<svg xmlns="http://www.w3.org/2000/svg" viewBox="0 0 150.05 67.45"><defs><style>.cls-1,.cls-3,.cls-61,.cls-64,.cls-8{fill:none;stroke:#000;stroke-linecap:round;stroke-linejoin:round;}.cls-1{stroke-width:0.25px;}.cls-2,.cls-4,.cls-5,.cls-6,.cls-62,.cls-63,.cls-7{isolation:isolate;}.cls-2{font-size:1.45px;letter-spacing:0.1em;}.cls-2,.cls-63{fill:red;}.cls-2,.cls-5,.cls-6,.cls-63,.cls-7{font-family:Alibaba-PuHuiTi-B, Alibaba PuHuiTi;}.cls-3{stroke-width:0.11px;stroke-dasharray:0.42 0.42;}.cls-5,.cls-6,.cls-7{font-size:2.73px;}.cls-5{letter-spacing:0.03em;}.cls-6{letter-spacing:0.01em;}.cls-7{letter-spacing:0.03em;}.cls-8{stroke-width:0.5px;}.cls-9{fill:#221714;}.cls-10{fill:#040000;}.cls-11{fill:#060001;}.cls-12{fill:#070404;}.cls-13{fill:#211613;}.cls-14{fill:#231815;}.cls-15{fill:#090505;}.cls-16{fill:#080404;}.cls-17{fill:#010101;}.cls-18{fill:#020202;}.cls-19{fill:#030303;}.cls-20{fill:#080808;}.cls-21{fill:#040404;}.cls-22{fill:#060606;}.cls-23{fill:#050505;}.cls-24{fill:#161212;}.cls-25{fill:#0b0b0b;}.cls-26{fill:#0c0c0c;}.cls-27{fill:#0a0a0a;}.cls-28{fill:#070707;}.cls-29{fill:#090909;}.cls-30{fill:#111;}.cls-31{fill:#141414;}.cls-32{fill:#cecece;}.cls-33{fill:#d1d1d1;}.cls-34{fill:#d0d0d0;}.cls-35{fill:#929292;}.cls-36{fill:#959595;}.cls-37{fill:#c3c2c2;}.cls-38{fill:#484848;}.cls-39{fill:#4e4e4e;}.cls-40{fill:#bcbcbc;}.cls-41{fill:#d4d4d4;}.cls-42{fill:#fefefe;}.cls-43{fill:#fdfdfd;}.cls-44{fill:#fff;}.cls-45{fill:#fcfcfc;}.cls-46{fill:#ececec;}.cls-47{fill:#ebebeb;}.cls-48{fill:#e1e0e0;}.cls-49{fill:#c0bfbf;}.cls-50{fill:#b5b5b5;}.cls-51{fill:#bfbfbf;}.cls-52{fill:#d2d2d2;}.cls-53{fill:#e1e1e1;}.cls-54{fill:#fafafa;}.cls-55{fill:#f8f8f8;}.cls-56{fill:#f9f9f9;}.cls-57{fill:#fbfbfb;}.cls-58{fill:#f6f6f6;}.cls-59{fill:#171314;}.cls-60{fill:#1a1717;}.cls-61{stroke-width:0.19px;}.cls-62{font-size:1.48px;font-family:Alibaba-PuHuiTi-R, Alibaba PuHuiTi;letter-spacing:0.1em;}.cls-63{font-size:2.2px;letter-spacing:0.1em;}.cls-64{stroke-width:0.2px;stroke-dasharray:0.76 0.76;}</style></defs><g id="图层_2" data-name="图层 2"><g id="图层_1-2" data-name="图层 1"><g id="图层_2-2" data-name="图层 2"><g id="图层_1-2-2" data-name="图层 1-2"><line class="cls-1" x1="82.62" y1="57.72" x2="82.62" y2="58.91"/><line class="cls-1" x1="82.53" y1="39.72" x2="82.53" y2="41.22"/><polyline class="cls-1" points="106.22 60.73 107.33 60.83 109.63 60.83 111.92 60.83 114.23 60.83 116.53 60.83 118.82 60.83 121.13 60.73 123.32 60.73 125.42 60.63 127.53 60.52 129.53 60.33 131.32 60.23 133.03 60.02 134.63 59.91 136.03 59.73 137.32 59.52 138.42 59.33 139.32 59.13 140.12 58.91 140.62 58.73 141.03 58.52 141.12 58.23"/><polyline class="cls-1" points="82.32 58.83 82.32 58.83 82.43 58.91 82.62 58.91"/><polyline class="cls-1" points="90.43 44.41 90.43 44.33 90.43 44.13 90.43 43.83"/><polyline class="cls-1" points="90.53 56.91 90.43 56.83 90.43 56.52 90.43 56.33"/><polyline class="cls-1" points="82.82 43.52 82.82 43.41 82.82 43.13 82.82 42.91"/><line class="cls-1" x1="82.62" y1="58.91" x2="100.12" y2="61.13"/><line class="cls-1" x1="101.72" y1="61.13" x2="106.22" y2="60.72"/><line class="cls-1" x1="106.22" y1="60.72" x2="106.22" y2="41.52"/><polyline class="cls-1" points="100.13 61.13 100.33 61.13 100.53 61.13 100.72 61.13 100.92 61.13 101.13 61.13 101.33 61.13 101.53 61.13 101.72 61.13"/><line class="cls-1" x1="101.72" y1="41.91" x2="101.72" y2="61.13"/><line class="cls-1" x1="100.12" y1="61.13" x2="100.12" y2="41.91"/><line class="cls-1" x1="82.72" y1="39.63" x2="87.22" y2="39.22"/><polyline class="cls-1" points="82.53 39.73 82.43 39.73 82.32 39.73 82.32 39.63 82.43 39.63 82.62 39.63 82.73 39.63"/><line class="cls-1" x1="100.12" y1="41.91" x2="82.53" y2="39.72"/><polyline class="cls-1" points="101.72 41.91 101.53 41.91 101.33 41.91 101.13 41.91 100.83 41.91 100.63 41.91 100.42 41.91 100.22 41.91 100.13 41.91"/><line class="cls-1" x1="83.03" y1="41.22" x2="82.92" y2="41.22"/><polyline class="cls-1" points="82.82 43.73 82.73 43.52 82.73 43.13"/><polyline class="cls-1" points="82.73 43.13 82.73 42.83 82.73 42.73"/><polyline class="cls-1" points="90.43 57.13 90.33 56.83 90.33 56.52"/><line class="cls-1" x1="90.32" y1="56.52" x2="90.32" y2="56.13"/><polyline class="cls-1" points="91.12 58.52 91.22 58.52 91.43 58.41 91.62 58.33 91.72 58.13 91.92 57.91 91.92 57.63 92.03 57.33 92.03 57.02"/><line class="cls-1" x1="91.03" y1="42.22" x2="83.03" y2="41.22"/><line class="cls-1" x1="82.12" y1="41.31" x2="83.03" y2="41.22"/><polyline class="cls-1" points="90.43 44.73 90.33 44.41 90.22 44.02"/><polyline class="cls-1" points="90.22 44.02 90.33 43.73 90.33 43.63"/><line class="cls-1" x1="92.03" y1="57.02" x2="91.12" y2="57.02"/><line class="cls-1" x1="92.03" y1="46.91" x2="92.03" y2="44.02"/><line class="cls-1" x1="92.03" y1="57.02" x2="92.03" y2="55.31"/><polyline class="cls-1" points="82.73 56.41 82.53 56.52 82.32 56.63 82.12 56.52"/><polyline class="cls-1" points="89.33 44.13 89.43 43.83 89.53 43.52 89.72 43.33 89.93 43.33 90.12 43.41 90.33 43.63 90.43 43.91 90.43 44.33 90.43 44.63 90.33 44.91 90.12 45.02 89.93 45.13 89.72 45.02 89.53 44.83 89.43 44.52 89.33 44.13"/><line class="cls-1" x1="90.12" y1="42.22" x2="82.12" y2="41.31"/><polyline class="cls-1" points="81.12 42.83 81.12 42.52 81.23 42.23 81.32 41.91 81.43 41.73 81.62 41.52 81.73 41.33 81.93 41.33 82.12 41.33"/><line class="cls-1" x1="81.12" y1="42.81" x2="81.12" y2="44.13"/><polyline class="cls-1" points="82.23 57.63 82.03 57.63 81.82 57.41 81.62 57.33 81.43 57.02 81.32 56.83 81.23 56.52"/><line class="cls-1" x1="82.22" y1="57.63" x2="90.12" y2="58.63"/><polyline class="cls-1" points="91.12 57.02 91.12 57.41 91.03 57.73 90.93 57.91 90.83 58.23 90.72 58.41 90.53 58.52 90.33 58.63 90.12 58.63"/><line class="cls-1" x1="91.12" y1="47.31" x2="91.12" y2="44.02"/><line class="cls-1" x1="91.12" y1="57.02" x2="91.12" y2="55.02"/><polyline class="cls-1" points="82.03 44.02 81.93 43.83 81.82 43.52 81.82 43.23"/><polyline class="cls-1" points="81.82 43.23 81.82 42.83 81.93 42.63 82.12 42.41 82.32 42.41 82.53 42.41 82.73 42.73 82.82 43.02 82.93 43.33 82.82 43.73 82.73 43.91"/><polyline class="cls-1" points="89.43 56.52 89.43 56.23 89.53 55.91 89.72 55.73 89.93 55.73 90.12 55.83 90.33 56.02 90.43 56.33 90.53 56.73 90.43 57.02 90.33 57.33 90.12 57.52 89.93 57.52 89.72 57.41 89.53 57.23 89.43 56.91 89.43 56.52"/><polyline class="cls-1" points="92.03 44.02 92.03 43.63 91.92 43.33 91.83 43.02 91.72 42.73 91.53 42.52 91.33 42.33 91.22 42.23 91.03 42.23"/><line class="cls-1" x1="91.03" y1="42.22" x2="90.12" y2="42.22"/><polyline class="cls-1" points="90.12 42.23 90.33 42.33 90.43 42.41 90.62 42.63 90.83 42.83 90.93 43.13 91.03 43.41 91.12 43.73 91.12 44.02"/><line class="cls-1" x1="91.12" y1="44.02" x2="92.03" y2="44.02"/><polyline class="cls-1" points="81.73 46.63 81.43 47.33 81.23 48.23 81.03 49.23 81.03 50.23 81.23 51.23 81.43 52.23 81.82 53.13 82.23 53.91"/><polyline class="cls-1" points="89.03 54.33 88.72 54.73 88.22 55.41 87.62 55.83 87.03 56.13 86.62 56.13"/><polyline class="cls-1" points="85.62 43.73 86.33 43.73 86.93 44.02 87.62 44.41 88.22 45.02 88.72 45.83 89.22 46.73 89.53 47.73"/><polyline class="cls-1" points="76.03 49.91 76.13 48.83 76.32 47.83 76.53 46.83 76.92 46.02 77.42 45.33 78.03 44.73 78.63 44.41 79.32 44.23 80.03 44.23 80.62 44.52 81.32 44.91 81.93 45.52 82.43 46.23 82.93 47.13 83.23 48.13 83.53 49.23 83.62 50.33 83.62 51.41 83.53 52.52 83.23 53.52 82.93 54.41 82.43 55.23 81.93 55.83 81.32 56.33 80.73 56.63 80.03 56.63 79.32 56.52 78.73 56.23 78.03 55.73 77.53 55.02 77.03 54.13 76.62 53.23 76.32 52.23 76.13 51.13 76.03 49.91"/><polyline class="cls-1" points="82.93 50.83 82.82 51.83 82.73 52.83 82.43 53.63 82.03 54.33 81.53 54.91 80.93 55.33 80.32 55.52 79.73 55.52 79.03 55.23 78.53 54.83 77.92 54.23 77.53 53.41 77.13 52.52 76.92 51.63 76.72 50.52 76.72 49.52 76.83 48.52 77.13 47.63 77.42 46.83 77.92 46.23 78.42 45.73 79.03 45.41 79.63 45.33 80.32 45.41 80.93 45.83 81.43 46.33 81.93 47.02 82.32 47.83 82.73 48.83 82.82 49.83 82.93 50.83"/><line class="cls-1" x1="93.12" y1="46.91" x2="93.22" y2="46.63"/><polyline class="cls-1" points="89.93 51.91 89.93 51.83 90.03 51.73 90.03 51.63 90.12 51.63 90.22 51.63 90.22 51.73 90.33 51.83 90.33 52.02 90.33 52.13 90.22 52.23 90.12 52.33 90.03 52.23 90.03 52.13 89.93 52.02 89.93 51.91"/><polyline class="cls-1" points="89.93 50.41 89.93 50.33 89.93 50.23 90.03 50.13 90.12 50.13 90.22 50.13 90.22 50.23 90.33 50.33 90.33 50.41 90.33 50.63 90.22 50.73 90.12 50.73 90.03 50.73 89.93 50.63 89.93 50.52 89.93 50.41"/><line class="cls-1" x1="94.12" y1="46.52" x2="97.12" y2="46.91"/><line class="cls-1" x1="94.12" y1="46.52" x2="93.22" y2="46.63"/><line class="cls-1" x1="93.22" y1="46.63" x2="94.72" y2="46.81"/><line class="cls-1" x1="96.22" y1="55.41" x2="94.92" y2="55.22"/><line class="cls-1" x1="94.72" y1="47.91" x2="95.12" y2="47.91"/><polyline class="cls-1" points="90.72 51.23 90.72 51.13 90.83 51.02 90.93 50.91 91.03 51.02 91.03 51.13 91.12 51.23 91.12 51.33 91.12 51.41 91.03 51.52 91.03 51.63 90.93 51.63 90.83 51.63 90.83 51.52 90.72 51.41 90.72 51.23"/><line class="cls-1" x1="94.72" y1="46.81" x2="96.22" y2="46.91"/><polyline class="cls-1" points="90.72 49.73 90.72 49.63 90.83 49.52 90.83 49.41 90.93 49.41 91.03 49.52 91.12 49.63 91.12 49.83 91.12 49.91 91.03 50.02 91.03 50.13 90.93 50.13 90.83 50.02 90.72 49.83 90.72 49.73"/><line class="cls-1" x1="97.03" y1="53.41" x2="96.22" y2="55.41"/><line class="cls-1" x1="97.12" y1="55.31" x2="96.22" y2="55.41"/><line class="cls-1" x1="98.62" y1="51.31" x2="97.12" y2="55.31"/><line class="cls-1" x1="97.72" y1="51.31" x2="97.03" y2="53.41"/><polyline class="cls-1" points="95.03 55.23 95.13 55.23 95.42 55.23 95.72 55.02 96.03 54.83 96.33 54.52 96.63 54.23 96.83 53.83 97.03 53.41"/><polyline class="cls-1" points="97.03 53.41 97.13 52.91 97.22 52.41 97.33 51.83 97.33 51.33 97.33 50.73 97.22 50.23 97.13 49.73 97.03 49.13"/><polyline class="cls-1" points="97.03 49.13 96.83 48.73 96.53 48.23 96.33 47.83 96.03 47.52 95.72 47.23 95.42 47.02 95.03 46.83 94.72 46.83"/><line class="cls-1" x1="94.72" y1="46.81" x2="94.42" y2="46.72"/><polyline class="cls-1" points="93.42 46.91 93.63 46.91 94.13 46.83 94.72 46.91 95.22 47.23 95.72 47.73 96.13 48.33 96.53 49.13 96.72 50.02 96.83 50.91 96.83 51.83 96.72 52.73 96.53 53.52 96.22 54.23 95.72 54.73 95.22 55.13 94.72 55.23 94.13 55.23 94.03 55.23"/><polyline class="cls-1" points="94.42 47.63 94.53 47.63 95.03 47.91 95.53 48.33 95.83 48.91 96.13 49.73 96.33 50.41 96.42 51.33 96.33 52.13 96.13 52.91 95.83 53.52 95.53 54.02 95.03 54.33 95.03 54.41"/><polyline class="cls-1" points="91.62 52.41 91.62 52.33 91.53 52.23 91.53 52.13"/><polyline class="cls-1" points="91.53 52.13 91.53 52.02 91.62 51.91 91.62 51.83 91.72 51.83"/><line class="cls-1" x1="95.03" y1="54.22" x2="95.22" y2="54.22"/><line class="cls-1" x1="95.22" y1="48.02" x2="94.82" y2="48.02"/><line class="cls-1" x1="97.03" y1="49.13" x2="97.72" y2="51.31"/><line class="cls-1" x1="98.62" y1="51.31" x2="97.72" y2="51.31"/><line class="cls-1" x1="97.12" y1="46.91" x2="98.62" y2="51.31"/><line class="cls-1" x1="97.12" y1="46.91" x2="96.22" y2="46.91"/><line class="cls-1" x1="96.22" y1="46.91" x2="97.03" y2="49.13"/><polyline class="cls-1" points="91.72 50.91 91.62 50.91 91.62 50.83 91.53 50.73 91.53 50.63"/><polyline class="cls-1" points="91.53 50.63 91.53 50.52 91.62 50.41"/><polyline class="cls-1" points="93.53 55.33 93.83 55.33 94.42 55.02 94.83 54.52 95.22 53.91 95.53 53.23 95.72 52.33 95.72 51.41"/><polyline class="cls-1" points="95.72 51.41 95.72 50.52 95.53 49.63 95.22 48.83 94.83 48.13 94.42 47.52 93.83 47.13 93.33 46.91 92.83 46.91"/><polyline class="cls-1" points="90.83 47.63 90.93 47.52 91.43 47.13 92.03 46.91 92.53 47.02 93.13 47.23 93.63 47.63 94.03 48.13 94.42 48.91 94.72 49.73 94.92 50.63 95.03 51.52"/><polyline class="cls-1" points="95.03 51.52 94.92 52.41 94.72 53.23 94.42 54.02 94.13 54.63 93.63 55.13 93.13 55.33 92.53 55.41 92.03 55.33 91.43 55.02 91.43 54.91"/><polyline class="cls-1" points="92.72 54.83 93.03 54.83 93.53 54.52 93.92 54.02 94.33 53.41 94.53 52.73 94.63 51.91 94.63 51.02 94.53 50.23 94.22 49.41 93.92 48.73 93.53 48.13 93.03 47.73 92.53 47.52 92.13 47.52"/><polyline class="cls-1" points="87.93 51.02 88.03 51.91 88.12 52.73 88.43 53.52 88.83 54.13 89.22 54.63 89.72 54.91 90.33 55.02 90.83 54.91 91.33 54.63 91.72 54.23 92.03 53.63 92.22 52.83 92.42 52.02 92.42 51.23 92.22 50.33 92.03 49.52 91.72 48.91 91.22 48.33 90.83 47.91 90.33 47.73 89.72 47.73 89.22 47.91 88.83 48.23 88.43 48.83 88.12 49.41 88.03 50.23 87.93 51.02"/><polyline class="cls-1" points="90.53 53.91 90.43 53.73 90.43 53.52 90.33 53.41 90.12 53.41 90.03 53.41 89.93 53.52 89.83 53.63 89.83 53.83"/><polyline class="cls-1" points="89.83 53.83 89.43 53.52 89.03 53.02 88.83 52.41 88.62 51.83 88.53 51.02 88.62 50.33 88.83 49.73 89.12 49.23 89.53 48.91 89.93 48.73 90.33 48.83 90.83 49.02 91.12 49.52 91.43 50.02 91.62 50.73 91.72 51.41 91.72 52.13 91.53 52.83 91.22 53.33 90.93 53.73 90.53 53.91"/><polyline class="cls-1" points="140.43 59.41 140.53 59.33 140.73 59.23 141.12 59.23 141.62 59.13 142.32 59.13 143.03 59.13 143.73 59.13 144.43 59.13 144.93 59.23 145.32 59.23 145.53 59.33 145.53 59.41 145.32 59.41 144.93 59.52 144.32 59.52 143.73 59.63 142.93 59.63 142.23 59.63 141.62 59.52 141.03 59.52 140.62 59.41 140.43 59.41"/><polyline class="cls-1" points="115.73 61.23 115.73 61.23 115.92 61.13 116.32 61.02 116.92 61.02 117.53 61.02 118.23 61.02 119.03 61.02 119.63 61.02 120.23 61.02 120.53 61.13 120.73 61.23 120.53 61.33 120.13 61.41 119.63 61.41 118.92 61.41 118.23 61.41 117.53 61.41 116.82 61.41 116.32 61.41 115.92 61.33 115.73 61.23"/><polyline class="cls-1" points="141.12 56.23 141.32 56.33 141.53 56.33 141.53 56.41 141.32 56.52 141.12 56.52"/><polyline class="cls-1" points="91.83 60.02 91.92 60.13 91.92 60.23 91.72 60.23 91.33 60.33 90.83 60.33 90.12 60.41 89.43 60.41 88.72 60.41 88.03 60.33 87.53 60.33 87.12 60.23 86.93 60.23"/><polyline class="cls-1" points="86.93 60.23 86.93 60.13 87.12 60.02 87.53 60.02 88.12 59.91 88.72 59.91 89.53 59.91 90.22 59.91 90.83 59.91 90.93 59.91"/><polyline class="cls-1" points="149.23 64.13 149.23 64.13 148.82 64.42 148.32 64.63 147.53 64.92 146.62 65.13 145.43 65.42 144.12 65.63 142.62 65.83 141.03 66.03 139.23 66.22 137.32 66.42 135.23 66.53 133.03 66.72 130.73 66.83 128.32 66.92 125.82 67.03 123.32 67.13 120.73 67.22 118.13 67.22 115.42 67.33 112.82 67.33 110.13 67.22 107.53 67.22 104.92 67.22 102.42 67.13 99.92 67.03 97.53 66.92 95.22 66.83 93.03 66.63 91.03 66.53 89.03 66.33 87.33 66.13 85.62 65.92 84.22 65.72 82.93 65.53 81.73 65.33 80.82 65.03 80.12 64.83 79.53 64.53 79.23 64.33"/><polyline class="cls-1" points="149.93 63.23 149.93 63.33 149.82 63.63 149.43 63.83 148.82 64.13 148.12 64.33 147.23 64.63 146.12 64.83 144.82 65.03 143.32 65.22 141.73 65.42 139.93 65.63 138.03 65.83 135.92 66.03 133.73 66.13 131.42 66.33 129.03 66.42 126.63 66.53 124.03 66.63 121.42 66.72 118.82 66.72 116.13 66.72 113.53 66.72 110.82 66.72 108.23 66.72 105.53 66.72 103.03 66.63 100.53 66.53 98.13 66.42 95.72 66.33 93.53 66.22 91.43 66.03 89.43 65.83 87.53 65.72 85.83 65.53 84.33 65.33 82.93 65.13 81.73 64.83 80.73 64.63 79.93 64.42 79.23 64.13 78.82 63.91 78.53 63.63 78.53 63.41"/><polyline class="cls-1" points="141.12 56.02 141.12 56.02 142.82 56.23 144.23 56.41 145.53 56.73 146.62 56.91 147.62 57.13 148.32 57.41 148.82 57.63 149.23 57.91 149.32 58.13 149.32 58.41 149.03 58.63 148.62 58.91 147.93 59.13 147.03 59.41 146.03 59.63 144.82 59.83 143.43 60.13 141.82 60.33 140.12 60.52 138.23 60.63 136.23 60.83 134.13 61.02 131.92 61.13 129.53 61.23 127.13 61.33 124.63 61.41 122.03 61.52 119.42 61.63 116.73 61.63 114.13 61.63 111.42 61.63 108.82 61.63 106.22 61.52 103.63 61.52 101.13 61.41 98.72 61.33 96.33 61.23 94.13 61.13 92.03 60.91 90.03 60.73 88.12 60.63 86.43 60.41 84.93 60.23 83.53 60.02 82.32 59.73 81.23 59.52 80.43 59.33 79.82 59.02 79.32 58.83"/><polyline class="cls-1" points="79.32 58.83 79.13 58.52 79.03 58.33 79.23 58.02 79.63 57.83 80.12 57.52 80.93 57.33 81.53 57.13"/><polyline class="cls-1" points="149.73 58.41 149.82 58.52 149.93 58.83 149.73 59.13 149.43 59.33 148.82 59.63 148.12 59.83 147.23 60.02 146.03 60.33 144.73 60.52 143.32 60.73 141.73 60.91 139.93 61.13 137.92 61.33 135.92 61.52 133.73 61.63 131.42 61.83 129.03 61.91 126.63 62.02 124.03 62.13 121.42 62.13 118.82 62.23 116.13 62.23 113.53 62.23 110.82 62.23 108.23 62.23 105.53 62.23 103.03 62.13 100.53 62.02 98.03 61.91 95.72 61.83 93.53 61.73 91.43 61.52 89.43 61.33 87.53 61.23 85.83 61.02 84.33 60.83 82.93 60.52 81.73 60.33 80.73 60.13 79.82 59.83 79.23 59.63 78.82 59.33 78.53 59.13 78.53 58.83 78.63 58.63"/><line class="cls-1" x1="141.12" y1="58.22" x2="141.03" y2="0.13"/><polyline class="cls-1" points="87.12 0.23 87.22 39.23 106.22 41.52 101.72 41.91"/><line class="cls-1" x1="82.32" y1="57.63" x2="82.32" y2="58.81"/><line class="cls-1" x1="82.32" y1="39.72" x2="82.32" y2="41.22"/><line class="cls-1" x1="82.92" y1="41.22" x2="82.03" y2="41.31"/><line class="cls-1" x1="90.22" y1="58.63" x2="91.12" y2="58.52"/><line class="cls-1" x1="80.32" y1="56.63" x2="86.62" y2="56.13"/><line class="cls-1" x1="85.62" y1="43.72" x2="79.32" y2="44.22"/><line class="cls-1" x1="90.12" y1="52.31" x2="91.53" y2="52.22"/><line class="cls-1" x1="90.82" y1="51.63" x2="90.12" y2="51.63"/><line class="cls-1" x1="90.12" y1="50.72" x2="91.53" y2="50.63"/><line class="cls-1" x1="90.82" y1="50.02" x2="90.12" y2="50.13"/><line class="cls-1" x1="90.92" y1="51.63" x2="91.72" y2="51.52"/><line class="cls-1" x1="91.62" y1="50.91" x2="90.92" y2="50.91"/><line class="cls-1" x1="90.92" y1="50.13" x2="91.42" y2="50.02"/><line class="cls-1" x1="91.12" y1="49.41" x2="90.92" y2="49.41"/><line class="cls-1" x1="91.32" y1="53.31" x2="90.12" y2="53.41"/><line class="cls-1" x1="94.62" y1="55.31" x2="95.03" y2="55.22"/><line class="cls-1" x1="94.42" y1="46.72" x2="94.03" y2="46.81"/><line class="cls-1" x1="91.72" y1="51.81" x2="91.72" y2="51.81"/><line class="cls-1" x1="92.82" y1="46.91" x2="92.12" y2="46.91"/><line class="cls-1" x1="92.72" y1="55.41" x2="93.53" y2="55.31"/><line class="cls-1" x1="90.42" y1="55.02" x2="92.72" y2="54.81"/><line class="cls-1" x1="92.12" y1="47.52" x2="89.92" y2="47.72"/><line class="cls-1" x1="149.22" y1="64.12" x2="149.72" y2="63.63"/><line class="cls-1" x1="78.62" y1="63.72" x2="79.22" y2="64.31"/><line class="cls-1" x1="149.92" y1="63.22" x2="149.92" y2="58.72"/><line class="cls-1" x1="78.53" y1="58.91" x2="78.53" y2="63.41"/><line class="cls-1" x1="79.22" y1="58.02" x2="78.62" y2="58.63"/><line class="cls-1" x1="149.72" y1="58.41" x2="149.22" y2="57.81"/><polygon points="103.97 43.85 103.97 43.47 105.52 43.16 105.52 43.55 103.97 43.85"/><polygon points="103.97 53.19 103.97 52.98 105.52 52.66 105.52 52.88 103.97 53.19"/><polygon points="103.97 44.27 103.97 44.23 105.52 43.91 105.52 43.97 103.97 44.27"/><polygon points="103.97 44.12 103.97 43.95 105.52 43.65 105.52 43.8 103.97 44.12"/><polygon points="103.97 44.87 103.97 44.81 105.52 44.51 105.52 44.55 103.97 44.87"/><polygon points="103.97 44.63 103.97 44.47 105.52 44.16 105.52 44.31 103.97 44.63"/><polygon points="103.97 46.05 103.97 45.98 105.52 45.69 105.52 45.73 103.97 46.05"/><polygon points="103.97 45.51 103.97 45.34 105.52 45.03 105.52 45.2 103.97 45.51"/><polygon points="103.97 47.23 103.97 47.16 105.52 46.85 105.52 46.91 103.97 47.23"/><polygon points="103.97 46.69 103.97 46.52 105.52 46.22 105.52 46.38 103.97 46.69"/><polygon points="103.97 48.4 103.97 48.34 105.52 48.03 105.52 48.09 103.97 48.4"/><polygon points="103.97 47.87 103.97 47.7 105.52 47.4 105.52 47.55 103.97 47.87"/><polygon points="103.97 49.58 103.97 49.52 105.52 49.22 105.52 49.27 103.97 49.58"/><polygon points="103.97 49.05 103.97 48.88 105.52 48.58 105.52 48.73 103.97 49.05"/><polygon points="103.97 50.76 103.97 50.7 105.52 50.4 105.52 50.45 103.97 50.76"/><polygon points="103.97 50.22 103.97 50.05 105.52 49.74 105.52 49.91 103.97 50.22"/><polygon points="103.97 51.34 103.97 51.28 105.52 50.98 105.52 51.03 103.97 51.34"/><polygon points="103.97 52.52 103.97 52.47 105.52 52.16 105.52 52.22 103.97 52.52"/><polygon points="103.97 51.98 103.97 51.83 105.52 51.52 105.52 51.67 103.97 51.98"/><polygon points="103.97 57.52 103.97 57.47 105.52 57.16 105.52 57.22 103.97 57.52"/><polygon points="103.97 57.28 103.97 57.13 105.52 56.81 105.52 56.98 103.97 57.28"/><polygon points="103.97 58.12 103.97 58.05 105.52 57.76 105.52 57.8 103.97 58.12"/><polygon points="103.97 57.88 103.97 57.7 105.52 57.41 105.52 57.56 103.97 57.88"/><polygon points="103.97 58.7 103.97 58.65 105.52 58.34 105.52 58.4 103.97 58.7"/><polygon points="103.97 58.47 103.97 58.3 105.52 57.98 105.52 58.16 103.97 58.47"/><polygon points="103.97 59.28 103.97 59.23 105.52 58.92 105.52 58.98 103.97 59.28"/><polygon points="103.97 59.05 103.97 58.88 105.52 58.58 105.52 58.74 103.97 59.05"/><polygon points="103.97 54.28 103.97 54.23 105.52 53.92 105.52 53.98 103.97 54.28"/><polygon points="103.97 53.84 103.97 53.51 105.52 53.2 105.52 53.52 103.97 53.84"/><polygon points="103.97 55.47 103.97 55.41 105.52 55.1 105.52 55.16 103.97 55.47"/><polygon points="103.97 54.92 103.97 54.77 105.52 54.45 105.52 54.63 103.97 54.92"/><polygon points="103.97 56.34 103.97 56.3 105.52 55.98 105.52 56.03 103.97 56.34"/><polygon points="103.97 56.1 103.97 55.95 105.52 55.63 105.52 55.8 103.97 56.1"/><polygon points="103.97 56.65 103.97 56.59 105.52 56.27 105.52 56.34 103.97 56.65"/><polygon points="103.97 56.98 103.97 56.83 105.52 56.52 105.52 56.69 103.97 56.98"/><polygon points="103.97 48.19 103.97 47.98 105.52 47.66 105.52 47.88 103.97 48.19"/><polygon points="103.97 45.74 103.97 45.7 105.52 45.38 105.52 45.45 103.97 45.74"/><polygon points="103.97 45.22 103.97 45.05 105.52 44.74 105.52 44.91 103.97 45.22"/><polygon points="103.97 46.34 103.97 46.28 105.52 45.98 105.52 46.02 103.97 46.34"/><polygon points="103.97 47.52 103.97 47.47 105.52 47.16 105.52 47.2 103.97 47.52"/><polygon points="103.97 46.98 103.97 46.81 105.52 46.52 105.52 46.67 103.97 46.98"/><polygon points="103.97 53.99 103.97 53.94 105.52 53.63 105.52 53.69 103.97 53.99"/><polygon points="103.97 53.45 103.97 53.3 105.52 52.98 105.52 53.15 103.97 53.45"/><polygon points="103.97 55.16 103.97 55.12 105.52 54.8 105.52 54.87 103.97 55.16"/><polygon points="103.97 54.63 103.97 54.48 105.52 54.16 105.52 54.33 103.97 54.63"/><polygon points="103.97 55.81 103.97 55.65 105.52 55.34 105.52 55.51 103.97 55.81"/><polygon points="103.97 49.28 103.97 49.23 105.52 48.91 105.52 48.98 103.97 49.28"/><polygon points="103.97 48.84 103.97 48.49 105.52 48.2 105.52 48.52 103.97 48.84"/><polygon points="103.97 50.45 103.97 50.41 105.52 50.09 105.52 50.16 103.97 50.45"/><polygon points="103.97 49.92 103.97 49.77 105.52 49.45 105.52 49.62 103.97 49.92"/><polygon points="103.97 51.63 103.97 51.59 105.52 51.27 105.52 51.33 103.97 51.63"/><polygon points="103.97 51.1 103.97 50.94 105.52 50.63 105.52 50.8 103.97 51.1"/><polygon points="103.97 52.23 103.97 52.16 105.52 51.87 105.52 51.91 103.97 52.23"/><polygon points="103.97 52.87 103.97 52.7 105.52 52.4 105.52 52.55 103.97 52.87"/><text class="cls-2" transform="matrix(0, 0.99, -0.99, 0.16, 102.5, 43.15)">S/N:XXXXXXXXXXXX</text><path class="cls-3" d="M102.1,60.33V42.81a.55.55,0,0,1,.43-.55l2.89-.53a.35.35,0,0,1,.42.28.37.37,0,0,1,0,.11V59.63a.56.56,0,0,1-.43.55l-2.89.53a.36.36,0,0,1-.43-.28A.34.34,0,0,1,102.1,60.33Z"/><g class="cls-4"><text class="cls-5" transform="translate(109.43 48.33)">SN of the </text><text class="cls-6" transform="translate(122.85 48.33)">R</text><text class="cls-7" transform="translate(124.64 48.33)">obotic Arm</text></g><polyline class="cls-8" points="103.97 42.83 107.75 39.63 117.4 39.63 117.4 44.98"/><path class="cls-9" d="M87.17,26.89v-.54h0a9.19,9.19,0,0,1,0-1.05v1a2.62,2.62,0,0,0,0,.56m0-3.06v-.54h0a7,7,0,0,0,0,1.29h0v-.74h0m.31-.18h0c-.37-.16-.16,3.25,0,3.54l0,.08h0V26.7s-.16-.11-.19-1.2l.14.12v-.55L87.29,25c0-.75.1-.79.14-.8h0v-.54"/><path d="M92,27.2l-.07-.11L92,27l.06.12-.06.09m-.42-.15v-.35a2,2,0,0,1,.19-.36c.08.15.14.32.22.46v.08a.19.19,0,0,0-.08.18h0l-.3-.05m0-.46v-.74h0l.21.45c-.06.1-.12.2-.17.3m.42.15c-.07-.15-.14-.29-.2-.44s.15-.3.24-.43v.87m.09-.93v0h0m-.32.43c-.08-.16-.15-.32-.22-.48a1,1,0,0,1,0-.35l.54.09v.29l-.08.13v-.07h-.24V26H92l-.14.25m-.26-.93h0v.05h0m.1,0v-.11h.09v.07H92v-.06a.31.31,0,0,1,.15.15l-.44-.08m.14-.1H91.7m.72-.2c-.12.19-.24.38-.34.57h0v-.1l.07-.07v-.1h-.08a.31.31,0,0,0-.16-.16h-.36v.13h-.06v.07h0a.74.74,0,0,0,0,.21c-.06-.09-.33-.73-.36-.8v.11l.36.8h0v.87a3.49,3.49,0,0,1-.37.72v.05l.36-.65a1,1,0,0,0,0,.25v.23h.07v-.1h0l.25.05c.12.14.15.18.2,0V27c.08.17.16.33.25.5h0a7,7,0,0,0-.35-.73,5.75,5.75,0,0,1,0-.83v-.14H92a1,1,0,0,1,0-.25,2.62,2.62,0,0,1,.27-.49V25"/><path d="M92.32,28.12l-1.11-.19v.51l1.11.19v-.51"/><path class="cls-10" d="M87.05,13.25v0"/><path class="cls-10" d="M87.12,12.6l-.06-.1v.28l0,.07V12.6"/><path class="cls-10" d="M87.2,13.56v-.63h0v.67h0m0-.84h0V14.2h0v-.37l0,.06v.4h0l-.07-1.55"/><path class="cls-10" d="M87.45,12.88c-.15-.07-.13,1.25,0,1.5,0,0,0,.1.09,0V14s0,.15-.06.11a2.41,2.41,0,0,1,0-1l.07.17a.94.94,0,0,0,0-.42"/><path class="cls-10" d="M87.9,13.13,87.59,13v.25l.08.05v1.23h.07V13.34l.1.05v-.26"/><path class="cls-10" d="M88.12,14.52c-.16-.1-.11-1,0-1s.17.74.09,1a.05.05,0,0,1-.06.06m0-1.3c-.28-.07-.18,1.3-.05,1.5s.15.13.21-.15,0-1.26-.16-1.35"/><path class="cls-10" d="M88.57,14.1v-.45h.06c.16.07.1.44,0,.45h-.06m.07-.67-.17-.06v1.5h.09v-.56h.07l.11.6.16.09-.13-.65c.15-.13.15-.83-.1-.92"/><path class="cls-10" d="M89.42,13.67h-.13a3.68,3.68,0,0,1-.11.65h0V14l-.06-.38H89l.18,1v.55h.12V14.6l.18-.89"/><path class="cls-10" d="M90.32,14.25h-.15v.36h0v-.19l-.06-.23H90l.15.58-.15.55h.14l.09-.38h0a1.6,1.6,0,0,1,0,.21l.06.23h.15l-.17-.6.16-.53"/><path class="cls-10" d="M90.7,14.85c0-.22.06-.43.08-.64h0a1.26,1.26,0,0,0,.07.5v.17h-.18M90.9,14h-.19l-.22,1.44h.15v-.37h.25l0,.4h.17L90.9,14"/><path class="cls-10" d="M91.68,14.48c-.1,0-.15.11-.18.19h0v-.2h-.14V15.6h.16v-.67c0-.09.06-.21.14-.2h.07v-.25h-.08"/><path class="cls-10" d="M92.78,14.65c-.08,0-.14,0-.22.16,0-.17-.22-.37-.41-.06h0v-.16H92v1.13h.18V15c.15-.24.22,0,.22,0v.81h.18V15c.18-.25.23,0,.23,0v.78H93v-.69c0-.13,0-.46-.23-.49"/><path class="cls-11" d="M100,15.43H99.9v.37l-.05.06h-.22v-.47h-.09v.51h.07l.29.1H100v-.52"/><path class="cls-11" d="M100.56,15.47h-.38V16h.1v-.22h.23l-.05-.06h-.18v-.13h.32l0-.07"/><path class="cls-11" d="M100.77,15.8l.08-.19h0l.07.15h-.16m.12-.31h-.07l-.24.53h.1v-.11H101V16h.11l-.16-.46h0"/><path class="cls-11" d="M101.63,15.52h-.36V16h.43v-.19h-.1V16h-.22v-.34h.22v.05h.07v-.11h-.09"/><path class="cls-11" d="M102.29,15.56h-.44v.11h.2v.44h.1v-.44h.2l-.06-.06"/><path class="cls-11" d="M102.56,16v-.35h.34l0,.07V16h-.34m.29-.4h-.43v.13h0v.37H103v-.49h-.09"/><path class="cls-11" d="M103.28,15.85v-.16h.22v.13h-.26m.27-.22h-.38v.54h.1V16h0l.18.2h.15l-.2-.22h.17V15.7h-.08"/><path class="cls-11" d="M104.3,15.65h-.12l-.15.2-.13-.17h-.16L104,16v.24h.1V16l.23-.28"/><path class="cls-11" d="M98.12,16.8l-.91-.7V14.8l.9-.57h0l.93.71v1.31l-.92.55h0m0-2.66h-.12l-.89.55-.06.12v1.26l.06.13.9.7h.12l.92-.54.06-.13V15l-.06-.14-.93-.69"/><path class="cls-11" d="M97.7,15.71H98l.06-.07v-.43h.07v.47l-.08.09h-.39v0h0v-.57h.11v.52m.52.15v-.61h.41v.11h-.34v.17h.25l0,.06v.06h-.3v.23H98.2m0-1.38H98l-.65.41-.06.11v.92l.06.13.65.51h.12l.67-.4.06-.12V15.1l0-.1-.67-.53"/><path class="cls-9" d="M87.08,17.1v-.71c0,.23,0,.47,0,.71h0m0-.84v1a8.34,8.34,0,0,0,0-1"/><path class="cls-9" d="M87.12,17.18v-.71h0a4.21,4.21,0,0,1,0,.71h0m0-.8h0v1h0a4.92,4.92,0,0,0,0-.94"/><path class="cls-9" d="M87.22,16.52l0-.06v.93l.06.07v-.13h0V17h0v-.11h0V16.6h0v-.13"/><path class="cls-9" d="M87.26,16.55h0v.93l.07.07v-.12h0v-.82"/><path class="cls-9" d="M87.35,17.37v0m0-.5v0"/><path class="cls-9" d="M92.43,18.09h-.11l-.1.45v.18h0v-.2L92,18H91.9v1H92v-.8h0l.05.22.1.47h0l.1-.43v-.21h0V19h.08v-.95"/><path class="cls-9" d="M92.67,18.68a2,2,0,0,1,.08-.42l.06.31v.13h-.16m.13-.53h-.11l-.18.91h.09l0-.26h.2l.06.27H93l-.21-1"/><path class="cls-9" d="M93.48,18.25h-.11l-.07.2v.13h0l0-.14-.08-.23h-.1l.16.48-.17.46h.1l.08-.22.05-.14h0v.15l.09.25h.11l-.19-.5.17-.43"/><polyline class="cls-9" points="93.63 19.02 93.57 19.11 93.64 19.21 93.7 19.13 93.63 19.02"/><path class="cls-9" d="M94,18.77v-.34H94c.25,0,.17.28.12.32a.2.2,0,0,1-.11,0H94m.09-.46h-.2v.93h.1v-.35H94c.32,0,.27-.37.17-.49a.51.51,0,0,0-.18-.09"/><path class="cls-9" d="M94.48,18.93l.09-.43h0l.06.31v.13h-.18m.15-.54h-.12l-.22.91h.11l0-.26h.24l.06.27h.12l-.24-1"/><path class="cls-9" d="M95.37,18.47h-.11l-.15.45h0a1.72,1.72,0,0,1-.07-.21L95,18.45h-.12l.21.6v.36h.11V19l.2-.55"/><path class="cls-9" d="M95.57,18.5h-.1v.93h.43V19.3h-.29v-.8"/><path class="cls-9" d="M96.25,19.39c-.25,0-.25-.59-.1-.69s.35.08.3.46c0,.15-.1.24-.2.23m0-.85c-.41,0-.39.67-.18.88s.51.12.51-.37c0-.29-.13-.49-.33-.51"/><path class="cls-9" d="M96.83,19.18a2.23,2.23,0,0,1,.1-.43h0a1.55,1.55,0,0,0,.07.31v.13h-.21m.17-.54H96.9l-.25.91h.13l.06-.26h.26l.07.27h.13l-.27-1"/><path class="cls-9" d="M97.49,19.5v-.71h.07c.35,0,.29.56.16.66a.14.14,0,0,1-.15,0H97.5m.07-.81h-.2v.95h.2c.47,0,.42-.65.24-.83a.49.49,0,0,0-.25-.12"/><path class="cls-9" d="M98.16,19.48l-.08.11.08.1.08-.09-.08-.12m0-.5-.08.11.08.1.09-.09-.1-.1"/><path class="cls-9" d="M87.08,19.32v-.15h0v-.78h0v.92"/><path class="cls-9" d="M87.1,18.5v.87a.08.08,0,0,0,0,.07v-.13h0V19h0v-.13h0V18.5"/><path class="cls-9" d="M87.16,18.6h0a4.18,4.18,0,0,0,0,1v-.48h0v.12h0v.25a2.89,2.89,0,0,1,0-.72v.11a.45.45,0,0,0,0-.23"/><path class="cls-9" d="M87.28,18.76h0v.37h0v-.38h0v.93h0v0h0v-.93"/><path class="cls-9" d="M87.4,18.86l-.1-.08v.12h0v.82h0V19h0v-.13"/><path class="cls-9" d="M87.43,19.62v0m0-.5v0"/><path class="cls-9" d="M92.44,20.28h-.1l-.1.45v.19h0v-.21l-.11-.49H92v.93h.08v-.76h0v.22l.1.47h.06l.09-.43v-.21h0v.75h.09v-.94"/><path class="cls-9" d="M92.68,20.87a3.1,3.1,0,0,1,.08-.42l.06.32v.12h-.17m.14-.53h-.11l-.19.9h.1V21h.31l0,.27h.1l-.2-1"/><path class="cls-9" d="M93.49,20.44h-.1l-.08.2v.13h0l0-.14-.07-.23h-.11l.17.48-.17.46h.1l.08-.22V21h0l0,.15.08.25h.11l-.18-.49.16-.44"/><polyline class="cls-9" points="93.65 21.2 93.58 21.3 93.65 21.41 93.72 21.32 93.65 21.2"/><path class="cls-9" d="M94,20.94v-.32h.1c.22,0,.15.27.1.3H94m.1-.44h-.21v.94H94V21h.1l.15.4h.12L94.19,21a.33.33,0,0,0,.08-.45.3.3,0,0,0-.08-.08h-.1"/><path class="cls-9" d="M94.9,20.61l-.4-.05v.94l.42.05v-.13h-.31v-.31h.25V21h-.25v-.3h.3v-.13"/><path class="cls-9" d="M95.12,21.19l.09-.42a.57.57,0,0,0,.07.32v.12h-.19m.16-.53h-.13l-.23.91H95l.06-.27h.25l.06.28h.12l0-.6v-.2a.48.48,0,0,0-.16-.19"/><path class="cls-9" d="M95.9,20.7c-.09,0-.23,0-.29.25a.84.84,0,0,0,.09.62.25.25,0,0,0,.36.06l.06-.06-.06-.1c-.06.09-.28.21-.35-.13s0-.64.27-.46A.22.22,0,0,1,96,21l.06-.09a.26.26,0,0,0-.2-.14"/><path class="cls-9" d="M96.78,20.8h-.12v.38h-.32V20.8h-.12v.93h.11V21.3h.32v.42h.12v-.94"/><path class="cls-9" d="M97,21.57l-.08.11.08.1.08-.09L97,21.57m0-.5-.08.11.08.11.08-.1L97,21.07"/><path class="cls-9" d="M87.09,21v.17h0V21"/><path class="cls-9" d="M87.1,21.29v-.42h0v.42m0-.52v.63h0v.28h0v-1"/><path class="cls-9" d="M87.14,20.88v0"/><path class="cls-9" d="M87.19,21v.86a.08.08,0,0,0,0,.07v-.47h0v-.13h0V21"/><path class="cls-9" d="M87.23,21.82v-.69h0a2.81,2.81,0,0,1,0,.71h0m0-.8h0V22h0c.06.05,0-.56,0-.77s0-.15,0-.16"/><path class="cls-9" d="M87.43,21.21h0V22h0v-.8h0v1h0v-.89"/><path class="cls-9" d="M87.52,22.09a1.42,1.42,0,0,1,0-.71,1.7,1.7,0,0,1,0,.71h0m0-.84c-.11,0-.06.8,0,.93s0,.08,0,0a1.91,1.91,0,0,0,0-.95"/><path class="cls-9" d="M87.65,21.36h0v.93l.11.06v-.13l-.08,0v-.8"/><path class="cls-9" d="M87.9,21.46a.48.48,0,0,1-.16-.08v.13h.06v.8h0v-.8h.07v-.13"/><path class="cls-9" d="M87.9,22v0h-.06m0-.52h0v.84h0v-.26H88v.27h0l-.09-1"/><path class="cls-9" d="M88.19,21.6c-.16,0-.14.78,0,.93s.09.08.12,0v-.4h-.09v.12h0v.22h0c-.13-.07-.08-.69,0-.71s0,0,.07.11,0-.07,0-.09,0-.14-.08-.15"/><path class="cls-9" d="M88.51,21.73l-.17-.05v.93l.18.06v-.13l-.13,0v-.3h.1v-.13h-.1v-.26h.13v-.12"/><path class="cls-9" d="M88.6,22.51v0m0-.49v0"/><path class="cls-9" d="M92.46,22.62h-.11l-.09.45v.18h0v-.19l-.11-.49h-.1v.93h.08v-.8h0l.05.22.1.47h0l.1-.43v-.2h0a1.31,1.31,0,0,0,0,.28v.46h.08v-.93"/><path class="cls-9" d="M92.7,23.2a2.31,2.31,0,0,1,.08-.43l.06.32v.14h-.16m.14-.53h-.11l-.19.9h.09l0-.26h.21l0,.28H93l-.2-1"/><path class="cls-9" d="M93.51,22.78H93.4l-.07.2v.14h0L93.24,23l-.08-.22h-.1l.17.48-.17.45h.1l.07-.22,0-.15h0l0,.16.09.24h.11l-.18-.5.16-.43"/><polyline class="cls-9" points="93.67 23.54 93.6 23.63 93.67 23.75 93.73 23.64 93.67 23.54"/><path class="cls-9" d="M94,23.29V23h.09c.24,0,.16.28.11.31a.11.11,0,0,1-.11,0H94m.09-.45h-.2v.93H94v-.35h.1c.3,0,.29-.37.18-.49a.42.42,0,0,0-.19-.09"/><path class="cls-9" d="M94.72,23.75c-.23-.05-.23-.58-.1-.69s.33.09.28.46c0,.15-.09.23-.18.22m0-.84c-.37,0-.35.66-.17.87s.45.15.47-.3-.11-.54-.3-.57"/><path class="cls-9" d="M95.9,23.05h-.11c0,.26-.07.52-.09.79h0a.65.65,0,0,0,0-.31L95.54,23h-.09c0,.26-.1.52-.14.77h0v-.31L95.2,23h-.11l.15,1h.13c0-.23.09-.47.12-.71h0v.22l.09.52h.14a7.58,7.58,0,0,1,0-.84l.08-.08"/><path class="cls-9" d="M96.45,23.12,96,23.07V24l.45,0v-.12h-.33v-.3h.28V23.5h-.28v-.27h.32v-.12"/><path class="cls-9" d="M96.74,23.57v-.31h.16a.17.17,0,0,1,.18.15.24.24,0,0,1,0,.14h-.24m.13-.42h-.25v.93h.11V23.7h.12l.17.39h.14l-.19-.4a.31.31,0,0,0,.11-.41.29.29,0,0,0-.11-.11h-.13"/><path class="cls-9" d="M97.35,23.94l-.07.1.08.11.08-.1-.09-.11m0-.49-.08.1.08.1.08-.09-.08-.11"/><path class="cls-11" d="M89,26.25a.71.71,0,0,0,0,.29.71.71,0,0,0,0-.29h0m.07-.31a.18.18,0,0,0-.05.11c.13.75-.18,1.32-.37.68-.05.12-.06.12,0,.3s.1.17.19.14A1.42,1.42,0,0,0,89,25.94m-.25-1h0a.33.33,0,0,1-.07.25,3,3,0,0,0-.15,1.35v-.1a2.69,2.69,0,0,1,.15-1.12h0l.06-.17a.79.79,0,0,0,.06.22,1.86,1.86,0,0,0,.1.39c0-.09,0-.09-.06-.48h0a1.67,1.67,0,0,0-.08-.3h0"/><path class="cls-11" d="M88.4,26.85c-.24-1.13,0-2.6.44-2.29a1.31,1.31,0,0,1,.39.72v-.07l.07.23v.12c.29,1.56-.42,2.85-.84,1.51v-.22m.37-2.59c-.73-.13-.68,2.78-.15,3.46.31.41.7,0,.81-.94.14-1.14-.25-2.39-.66-2.52"/><polyline class="cls-11" points="89.26 25.2 89.22 25.27 88.99 25.68 88.94 25.77 88.58 26.48 88.53 26.57 88.4 26.86 88.37 26.91 88.42 27.14 88.45 27.07 88.58 26.8 88.62 26.73 88.99 26.02 89.04 25.93 89.28 25.52 89.33 25.43 89.26 25.2"/><path class="cls-10" d="M96.35,27.1h-.18a.4.4,0,0,0,0,.56l0,0c.23.23.17.33.14.37s-.12.1-.15.18,0,0,0,.12h0c.2-.18.39-.36.1-.71s-.23-.28,0-.54"/><path class="cls-10" d="M96,27.06h-.19a.37.37,0,0,0-.12.31v.13a.77.77,0,0,1,.1.18v.08h0l.09,0v.06a.15.15,0,0,1,0,.16l-.1.11-.06.07v.09h0c.25-.18.24-.33.23-.41s-.1-.36-.28-.42a.34.34,0,0,1,0-.2h0v-.05l.13-.14"/><path class="cls-10" d="M96.67,27.12h-.18c-.1,0-.17.23-.15.34a2.34,2.34,0,0,0,.26.43v.18l-.12.14a0,0,0,0,0,0,.05.24.24,0,0,0,0,.12h0a.42.42,0,0,0,.15-.57l0,0c0-.08-.13-.13-.17-.22a.15.15,0,0,1,0-.13.51.51,0,0,1,.18-.25"/><path class="cls-10" d="M96.71,28.53l-.81-.08h-.13l0,.07c.16,0,.94.09.94.09h0l-.05-.06"/><path class="cls-10" d="M101.39,29.15l1.37-2.69c.68,1.34,1,1.89,1.45,2.82-.89,0-2-.09-2.82-.13M102.75,26a.13.13,0,0,0-.12,0c-.31.42-1.56,3-1.56,3s-.11.31.08.4a17.71,17.71,0,0,0,3.21.18h0c.2,0,.23-.2.16-.37S103,26.2,102.9,26.06a.28.28,0,0,0-.12,0"/><path class="cls-10" d="M94.74,28.69l1.51-2.62,1.3,2.9c-.88-.08-2-.2-2.81-.29m1.54-3.06a.19.19,0,0,0-.13.05c-.33.4-1.71,2.91-1.72,2.93s-.13.31.06.41a17.72,17.72,0,0,0,3.2.35h0c.21,0,.25-.19.18-.37s-1.37-3.18-1.52-3.32a.24.24,0,0,0-.11-.06"/><path class="cls-12" d="M102.9,27.31h-.27c-.06.05-.06.05-.3,1v.05l.49-.24a2.13,2.13,0,0,1-.1.42l-.14-.17a4.18,4.18,0,0,0,.09.71l.46-.53h0l-.24.06c.08-.26.16-.52.23-.78h0l-.42.18c.3-.67.3-.67.24-.67"/><path class="cls-13" d="M87.15,29.27v.11h0v-.11"/><path class="cls-13" d="M87.17,29.37v-.23h0a1,1,0,0,1,0,.24h0m0-.29v-.21h0v.21h0m0-.27v.63h0a1.71,1.71,0,0,0,0-.32h0a1.41,1.41,0,0,0,0-.29"/><path class="cls-13" d="M87.2,29.06h0v.39a.28.28,0,0,1,0-.13V29h0v.29a.67.67,0,0,0,0,.2h0V29"/><path class="cls-13" d="M87.21,29.1h0v.45h0V29.1"/><polyline class="cls-13" points="87.23 28.91 87.22 28.89 87.23 29.48 87.24 29.59 87.24 29.59 87.24 29.54 87.24 29.54 87.23 29.5 87.23 28.91"/><path class="cls-13" d="M87.26,29.57a1.09,1.09,0,0,1,0-.36h0v.36m0-.6h0v.18a2,2,0,0,0,0,.49h0V29"/><path class="cls-13" d="M87.3,29.21h0v.46h0v-.46"/><path class="cls-13" d="M87.34,29.25h0v.45h0v0h0v-.29a.67.67,0,0,0,0-.2"/><path class="cls-13" d="M87.4,29.94a.17.17,0,0,1,0-.1v-.07h0v.15m0-.37a.37.37,0,0,1,0-.21.74.74,0,0,1,0,.21h0m0-.28h0a.38.38,0,0,0,0,.15v.13h0V30a.39.39,0,0,0,0-.26h0v-.09h0v-.24h0v-.06h0"/><path class="cls-13" d="M87.55,29.28h0v.43h0v-.48h0v.63h0v-.05h0v.08h0v-.62"/><path class="cls-13" d="M87.62,29.67h0v0h0v0"/><path class="cls-13" d="M87.67,29.92a.37.37,0,0,1,0-.21v.21h0m0-.58c-.06,0,0,.58,0,.64h0a.81.81,0,0,0,0-.38v-.12h0V29.4"/><path class="cls-13" d="M87.74,29.89V30h0v.15a.48.48,0,0,0,0-.17v-.1"/><path class="cls-13" d="M87.9,29.48h0v.45h0v-.48h0v.63h0V30h0v.07h0v-.62"/><path class="cls-13" d="M88,30.1v-.05h0m0-.42h0v.06h0v.42h0v0h0v-.5"/><path class="cls-13" d="M88.21,30.19c-.08-.05,0-.5,0-.52s.08.37,0,.48h0m0-.59c-.1,0-.08.53,0,.63s0,.15.08.19h0v-.06h0v-.1c0-.1.07-.61,0-.65"/><path class="cls-13" d="M88.43,29.86h0v0h0v.5h0v-.46"/><path class="cls-13" d="M88.49,30.07c0-.12,0-.13.05-.12s0,.11,0,.15h-.07m0-.19c-.09,0-.08.39,0,.47h0v-.05h0a.38.38,0,0,1,0-.18h.09v-.28"/><path class="cls-13" d="M88.71,29.79h0v.63h.11v-.07h-.09v-.56"/><path class="cls-13" d="M88.9,30h0v.45h0V30m0-.21h0v.05h0v-.05"/><path class="cls-13" d="M89,30v0h0v.45h0v0h0v-.29c0-.13,0-.18,0-.21"/><path class="cls-13" d="M89.17,30.72v-.17h0c.09.16,0,.15,0,.15m0-.36v-.22s.06.14,0,.2h0m0-.28s-.07,0-.07.15v.13h0v.17c-.07.29.09.24.09.23s.07-.22,0-.25h0v-.08s.09.07.09-.12v-.1h0v-.06h-.06"/><path class="cls-13" d="M89.4,30h0v.62h0V30"/><path class="cls-13" d="M89.55,30.2l-.06.06h0V30.2h0v.45h0v-.34l.06,0v.41h0v-.29c0-.12,0-.18-.06-.2"/><path class="cls-13" d="M89.75,30.67c-.07,0-.07-.32,0-.36h0l0,.06v.24l0,.05m.08-.6h0v.26l0-.07c-.1,0-.11.36,0,.46h0l.06-.06v.06h0V30"/><path class="cls-13" d="M90.06,30.34h0v.33l0,0v-.41h0v.3c0,.12,0,.19.07.2l.06-.07h0v.07h0v-.46"/><path class="cls-13" d="M90.2,30.36c-.08,0-.1.15,0,.23h0l0,.1v.06l-.07-.07v0c.09.15.14.07.16,0a.21.21,0,0,0-.06-.21l0-.09v-.06h0l-.06-.06"/><path class="cls-13" d="M90.35,30.27h0v.12h0v.06h0v.26c0,.1,0,.15.07.17h0v-.06h0v-.35h.07v0h-.07v-.13"/><path class="cls-13" d="M90.56,30.44l-.06.08h0v-.08h0v.45h0V30.6c0-.05,0-.1.06-.09h0v-.06h0"/><path class="cls-13" d="M90.66,30.46h0v.46h0v-.46m0-.2v.1h0V30.3"/><path class="cls-13" d="M90.81,30.9c0-.06-.09-.17.06-.18v.13l-.06,0m0-.42a.14.14,0,0,0-.09,0v.06c.09,0,.12-.06.12.09-.23,0-.12.25-.1.28h.08V31h0v-.3c0-.05,0-.19-.08-.21"/><path class="cls-13" d="M91,30.32h0V31h0v0h0v-.63"/><path class="cls-13" d="M91.43,30.45h-.22v.06h.16L91.2,31h0l.18-.48h0"/><path class="cls-13" d="M91.58,31.05c-.09,0-.09-.33,0-.36s.13.17.09.29,0,.07-.07.07m0-.43c-.13,0-.15.34,0,.46s.16,0,.17-.14,0-.3-.12-.32"/><path class="cls-13" d="M91.9,30.69l-.09.06h0v-.06h0v.45h0V30.8h.08v.41h0v-.29c0-.13,0-.19-.08-.2"/><path class="cls-13" d="M92.1,30.93c0-.15.08-.14.11-.12s0,.11,0,.13h-.15m.07-.2c-.14,0-.15.35,0,.46h.15v-.06h-.11a.22.22,0,0,1,0-.14h.18c0-.2-.07-.23-.11-.24"/><path class="cls-13" d="M92.38,31.12v.11h0l0,.11h0s.07-.08.07-.17v-.1"/><path class="cls-13" d="M87.16,30.32v-.14h0v.18m0-.42v.48h0v-.49"/><path class="cls-13" d="M87.17,30h0v.45h0V30"/><path class="cls-13" d="M87.18,30a1.13,1.13,0,0,0,0,.26v.09a.29.29,0,0,0,0,.13,1.31,1.31,0,0,0,0-.28V30"/><path class="cls-13" d="M87.2,29.86h0v.67h0v0h0v-.3a.6.6,0,0,0,0-.19v-.22"/><path class="cls-13" d="M87.24,30.54v0m0-.41h0a.29.29,0,0,1,0,.13v.24h0v.06h0v-.49"/><path class="cls-13" d="M87.29,30.2v.06h0v-.07h0v.45h0v-.39a.33.33,0,0,1,0,.14v.28h0v-.29a.6.6,0,0,0,0-.19"/><path class="cls-13" d="M87.35,30.67v-.49h0a1.34,1.34,0,0,1,0,.49h0m0-.55v.6h0v-.6"/><path class="cls-13" d="M87.42,30.35h0v.45h0v-.45"/><path class="cls-13" d="M87.46,30.37v.48a.71.71,0,0,0,0-.29v-.19"/><path class="cls-13" d="M87.51,30.29h0v.13h0v0h0v.25a.54.54,0,0,0,0,.18h0v0h0V30.5h0v-.13"/><path class="cls-13" d="M87.58,30.45v0h0v.45h0v-.38h0v-.07h0"/><path class="cls-13" d="M87.62,30.5h0V31h0V30.5"/><path class="cls-13" d="M87.68,30.52V31h0v0h0a.69.69,0,0,1,0-.35h0v-.07"/><path class="cls-13" d="M87.75,30.44h0v.12h0v.06h0v.43h0V31h0v-.37h0v-.06h0v-.12"/><path class="cls-13" d="M87.81,31h0v.06h0v.12h0a.43.43,0,0,0,0-.16v0"/><path class="cls-13" d="M87.9,30.5a.48.48,0,0,0,0,.3v.05c0,.09,0,.23,0,.21V31c0,.12,0,.15.06.15a.5.5,0,0,0,0-.34h0v-.26"/><path class="cls-13" d="M88,30.5h0v.67h0v0h0v-.7"/><path class="cls-13" d="M88.15,31v0h-.07m0-.19c-.08,0-.06.39,0,.47h0v-.06h0a.44.44,0,0,0,0-.18h.09c0-.17,0-.26-.05-.28"/><path class="cls-13" d="M88.33,30.82v.06h0v-.06h0v.46h0v.08h0V31c0-.13,0-.19,0-.21"/><path class="cls-13" d="M88.51,30.9h-.1V31h.07l-.07.33h.1v-.06h-.07l.07-.33h0"/><path class="cls-13" d="M88.57,30.71h0v.67h0v0h0v-.7"/><path class="cls-13" d="M88.72,31.18c0-.14,0-.15.06-.13a.33.33,0,0,1,0,.14h-.09m0-.19c-.09,0-.09.36,0,.46h.06v-.05h0s0,0-.06-.18h.11c0-.18,0-.27-.06-.28"/><path class="cls-13" d="M89,31l-.06.06V31h0v.45h0v0h0V31"/><path class="cls-13" d="M89.07,31.45h0v.07h0v.16a.22.22,0,0,0,0-.16v-.1"/><path class="cls-13" d="M89.31,31c-.15,0-.13.5,0,.61s.07.08.12,0v-.26h-.09v.07h.06v.15h-.05c-.1,0-.1-.45,0-.5h0l.05.08c0-.12-.05-.14-.05-.14"/><path class="cls-13" d="M89.59,31.23h0v.33l0,.06v-.41h0v.3c0,.12,0,.18.06.19l.06-.06h0v.07h0v-.46"/><path class="cls-13" d="M89.71,31.68c0-.08-.07-.17,0-.18v.17m0-.42a.11.11,0,0,0-.08,0v.06h.06v.12c-.19,0-.11.25-.08.28h.06v-.28c0-.09,0-.19-.06-.21"/><path class="cls-13" d="M90,31.31l-.07.06v-.06h0v.46h0v-.33l.06-.06v.41h0V31.5c0-.13,0-.19-.06-.2"/><path class="cls-13" d="M90.17,32s-.06,0-.06-.11v-.07h0c0,.07,0,.07,0,.1s0,0-.06,0h0m0-.36c-.06,0-.06-.2,0-.22s.07.13.05.2h0m0-.28s-.08,0-.08.14v.13h0v.15h0v.17a.09.09,0,0,0,.12.07c.07,0,.09-.22,0-.25h-.06v-.06h0c.09.07.11-.06.11-.12v-.1h0v-.05h-.07"/><path class="cls-13" d="M90.39,31.82c-.09,0-.08-.3,0-.34h0v.3h0m.09-.59h0v.25c-.08-.07-.08-.07-.1-.05a.48.48,0,0,0-.06.18c0,.06,0,.27.09.3h.07V31.2"/><path class="cls-13" d="M90.65,31.88c-.09,0-.09-.32,0-.35s.11.19.08.3,0,.05,0,.05m0-.42c-.13,0-.13.34-.05.45s.13,0,.15-.11,0-.32-.1-.34"/><path class="cls-13" d="M90.9,31.53l-.08.06v-.06h0V32h0v-.33l.07-.06V32h0v-.3c0-.12,0-.18-.07-.19"/><path class="cls-13" d="M91.17,32.2a.07.07,0,0,1-.07-.09V32h0v.08a.12.12,0,0,1-.07.07h0m0-.36c-.07,0-.07-.19,0-.22s.09.07.07.16,0,.06,0,.06m0-.27s-.09,0-.09.14v.12h0V32h0v.18a.1.1,0,0,0,.14,0c.07,0,.09-.21,0-.25H91.1v-.11c.11.08.12-.05.12-.11v-.11h0v-.05H91.2"/><path class="cls-13" d="M91.36,32h0v.06h0l0,.12v0s.07-.08.07-.16V32"/><path class="cls-13" d="M91.62,31.81v-.24h0c.14,0,.09.22.06.24s-.05,0-.06,0h0m0-.29h-.1v.61h0v-.25h.06c.16,0,.14-.24.09-.31a.12.12,0,0,0-.1-.05"/><polyline class="cls-13" points="91.84 32.05 91.8 32.1 91.84 32.17 91.87 32.13 91.84 32.05"/><path class="cls-13" d="M92,31.87v-.23h.06a.12.12,0,0,1,.08.16.09.09,0,0,1,0,.06H92m.06-.29H92v.63h0v-.26H92l.1.28h0l-.1-.28c.12-.05.11-.3,0-.35H92"/><polyline class="cls-13" points="92.29 32.13 92.26 32.19 92.29 32.24 92.33 32.2 92.29 32.13"/><path class="cls-13" d="M92.68,31.67c-.22,0-.21.46-.08.6s.11.09.2,0v-.05c-.12.07-.12.07-.17,0a.47.47,0,0,1,0-.33c0-.12.09-.11.11-.11l.08.07h0a.26.26,0,0,0-.11-.1"/><path class="cls-13" d="M92.9,31.67h0v.67h0V32L93,32s.06,0,.06.13v.28h0v-.3c0-.12,0-.17-.09-.19l-.1.13v-.29"/><path class="cls-13" d="M93.25,31.93h-.06v.45h0v-.45m0-.2h0v.06h0v-.05"/><path class="cls-13" d="M93.5,32l-.1.06h0V32h0v.45h0v-.34l.08-.06a.19.19,0,0,1,.06.14v.28h0v-.29c0-.2-.09-.19-.09-.19"/><path class="cls-13" d="M93.78,32.4c-.06-.09-.06-.09,0-.11s.07-.07.13-.07v.14h-.09m0-.42a.13.13,0,0,0-.12,0V32c.11,0,.15-.05.16.09-.31,0-.16.25-.15.27h.15v-.2c0-.09,0-.19-.11-.21"/><path class="cls-13" d="M98.06,32.2H98l0,.26v0l-.06-.28h-.07l-.06.26v.13h0v-.13l-.07-.28h-.06l.11.47h.08l0-.25v-.13h0v.13l.06.26H98l.1-.46"/><path class="cls-13" d="M98.71,32.27h-.06l-.06.25v.13h0v-.13l-.06-.27h-.06l-.06.27v.12h0v-.13l-.06-.27h-.06l.11.48h.08l0-.24v0l.06.25h.08l.1-.45"/><path class="cls-13" d="M99.38,32.31h-.06l-.06.28v.11h0v-.13l-.06-.27h-.06l-.06.26v.13h0v-.4H99l.11.47h.08l0-.24v-.13h0v.13l.07.26h.08l.1-.45"/><polyline class="cls-13" points="99.56 32.67 99.51 32.73 99.56 32.8 99.61 32.73 99.56 32.67"/><path class="cls-13" d="M100.13,32.36h-.07v.32l-.12.07s-.06-.06-.06-.13v-.28h-.06v.29q0,.18.12.18l.13-.06h0v.07h.06v-.46"/><path class="cls-13" d="M100.48,32.16a.12.12,0,0,0-.12.14v.08h-.06v.07h0v.41h.07v-.41h.09V32.4h-.09v-.07l.06-.09h0v-.05h-.07"/><path class="cls-13" d="M100.78,32.81l-.07-.08c0-.06.05-.09.18-.11v.13l-.11.06m0-.41a.24.24,0,0,0-.16.05h0c.14,0,.2-.07.2.09-.39,0-.2.25-.2.25h.08l.13-.06v.06h.06v-.2c0-.05,0-.19-.14-.2"/><path class="cls-13" d="M101.35,32.43c-.22,0-.25.31-.13.43h.08a.24.24,0,0,1,0-.23.13.13,0,0,1,.11-.09h.08l-.12-.06"/><path class="cls-13" d="M101.73,32.34h-.06v.13h-.07v.06h.06v.26c0,.11,0,.15.12.16h.12v-.07h-.1l-.07-.09v-.25h.11v0h-.11v-.13"/><path class="cls-13" d="M102.18,32.9c-.15,0-.15-.28-.06-.34s.21,0,.18.22-.06.12-.12.12m0-.42c-.21,0-.24.31-.12.43s.32.07.31-.18a.23.23,0,0,0-.19-.25"/><path class="cls-13" d="M102.76,32.5l-.12.09h0v-.08h0V33h.07v-.3a.09.09,0,0,1,.1-.1h0v-.06h-.05"/><path class="cls-13" d="M103.32,32.54h-.07l-.07.25v.14h0v-.14l-.08-.25h-.2l.18.47h0l-.09.1h0v.06c.07,0,.14,0,.2-.14l.16-.49"/><polyline class="cls-13" points="103.5 32.91 103.45 32.97 103.5 33.02 103.55 32.97 103.5 32.91"/><path class="cls-13" d="M103.9,32.56c-.23,0-.26.3-.13.42a.16.16,0,0,0,.13.06L104,33v0c-.13.07-.13.07-.13,0a.24.24,0,0,1,0-.23.14.14,0,0,1,.11-.08h.09v0H104"/><path class="cls-13" d="M104.42,32.58a.24.24,0,0,0-.23.25.27.27,0,0,0,.1.18.23.23,0,0,0,.12.06l.14-.06h-.19a.3.3,0,0,1,0-.23.13.13,0,0,1,.12-.08h.09l-.12-.07"/><path class="cls-13" d="M98,33.09H97.9l-.1.31v.14h0V33.4l-.11-.34h-.08v.62h.06v-.55h0v.16l.1.33h0l.1-.32v-.14h0v.53h.06v-.63"/><path class="cls-13" d="M98.42,33.7c-.08-.09-.08-.09-.06-.12a.17.17,0,0,1,.16-.06v.11l-.11.07m0-.42a.22.22,0,0,0-.16,0v0c.14,0,.19-.06.19.09-.36,0-.19.25-.19.26h.07l.13-.07v.07h0v-.3s0-.18-.13-.2"/><path class="cls-13" d="M99,33.74c-.13,0-.13-.27,0-.34h.15v.25l-.1.05m.16-.59h-.06v.25c-.14-.07-.15-.09-.23,0a.3.3,0,0,0,0,.29.16.16,0,0,0,.15.12h.12v.07h.06v-.67"/><path class="cls-13" d="M99.52,33.56c0-.16.14-.16.18-.11a.24.24,0,0,1,0,.12h-.21m.11-.2c-.2,0-.22.31-.1.43a.13.13,0,0,0,.12.05h.13V33.8H99.6a.18.18,0,0,1-.08-.16h.27c0-.19-.07-.26-.16-.27"/><path class="cls-13" d="M100.45,33.43h-.07v.46h.07v-.46m0-.2h0v0h0"/><path class="cls-13" d="M101,33.45l-.13.07h0v-.07h0v.46h.07v-.34l.13-.06s.06,0,.06.13v.28h.07v-.29c0-.21-.13-.19-.13-.19"/><path class="cls-13" d="M101.9,33.34c-.3,0-.31.42-.16.57a.21.21,0,0,0,.29,0l0,0v-.06c-.17.09-.17.09-.24,0a.38.38,0,0,1,0-.33.15.15,0,0,1,.16-.12l.11.07v0a.24.24,0,0,0-.15-.09"/><path class="cls-13" d="M102.44,33.34h-.07V34h.06v-.34l.14-.07s.05,0,.05.13V34h.07v-.3c0-.13,0-.18-.14-.18l-.13.07v-.28"/><path class="cls-13" d="M103.08,33.59H103V34h.07v-.46m0-.2h0v.06l.06,0h-.06"/><path class="cls-13" d="M103.61,33.59l-.15.07v-.07h-.06v.46h.07v-.33c.12-.07.12-.07.14-.06a.23.23,0,0,1,.06.12v.28h.07v-.3c0-.2-.13-.18-.13-.18"/><path class="cls-13" d="M104.17,34h-.08c0-.07.06-.1.19-.1V34l-.12.06m0-.42a.26.26,0,0,0-.17,0v.06c.15,0,.21-.07.21.08-.41,0-.21.26-.21.26h.08l.14-.06h0v.06h.06v-.28s0-.19-.15-.2"/><path class="cls-13" d="M97.9,31h0v.37c0,.29-.19.16-.19.16a.84.84,0,0,1,0-.18V31H97.6v.36c0,.37.27.29.32.24a.33.33,0,0,0,0-.21V31"/><path class="cls-13" d="M98.41,31h-.3v.62h.07v-.28h.19v-.05h-.19v-.22h.24V31"/><path class="cls-13" d="M98.56,31.4a1.38,1.38,0,0,1,.08-.29l.06.2v.11h-.16m.12-.37h-.07l-.18.62h.07v-.2h.19l0,.2h.18L98.72,31"/><path class="cls-13" d="M99.16,31.06c-.27,0-.28.42-.15.57a.19.19,0,0,0,.28,0s0,0,0,0v0c-.16.08-.16.08-.23,0a.38.38,0,0,1,0-.33.15.15,0,0,1,.15-.12l.11.06v-.05a.38.38,0,0,0-.15-.09"/><path class="cls-13" d="M99.77,31.12h-.39v.07h.16v.56h.07v-.56h.16v-.07"/><path class="cls-13" d="M100.08,31.71c-.19,0-.2-.4-.08-.49s.29.06.24.33a.16.16,0,0,1-.16.16m0-.58c-.28,0-.27.46-.13.58s.37.08.37-.24-.1-.33-.24-.34"/><path class="cls-13" d="M100.53,31.46v-.21h.09a.12.12,0,0,1,.1.2.17.17,0,0,1-.1,0h-.09m.1-.28h-.17v.62h.06v-.27h.1l.14.27h.07l-.14-.29a.18.18,0,0,0,.08-.24.3.3,0,0,0-.08-.08h-.11"/><path class="cls-13" d="M101.29,31.22h-.07l-.07.18-.05.13-.06-.14-.07-.18h-.07l.17.4v.24h.07V31.6l.16-.38"/><path class="cls-13" d="M101.82,31.25c-.29,0-.3.42-.16.56a.21.21,0,0,0,.31,0l0,0h0c-.17.08-.18.09-.25,0a.38.38,0,0,1,0-.33.18.18,0,0,1,.16-.11l.11.06v-.05a.28.28,0,0,0-.15-.08"/><path class="cls-13" d="M102.28,31.86c-.15,0-.16-.26-.07-.34s.19,0,.19.18-.06.16-.12.16m0-.43c-.22,0-.25.3-.12.43s.31.06.31-.18a.23.23,0,0,0-.19-.25"/><polyline class="cls-13" points="102.64 31.82 102.59 31.86 102.64 31.93 102.69 31.88 102.64 31.82"/><path class="cls-13" d="M102.9,31.82v.11h0l-.08.11v.05a.18.18,0,0,0,.11-.18l0-.09"/><path class="cls-13" d="M103.17,31.32h-.07V32h.33v-.11h-.25v-.55"/><path class="cls-13" d="M103.62,31.37h-.06v.13h-.07v.06h.06v.26c0,.1,0,.14.12.15h.08v-.06h0l-.07-.09v-.25h.11v-.06h-.11v-.13"/><path class="cls-13" d="M104,31.94c-.15,0-.14-.27-.06-.33H104l.11.06v.23L104,32m.18-.62h-.07v.26c-.15-.08-.16-.09-.23,0a.29.29,0,0,0,0,.31A.16.16,0,0,0,104,32l.13-.06h0v0h0v-.69"/><polyline class="cls-13" points="104.41 31.89 104.36 31.95 104.41 32.01 104.46 31.95 104.41 31.89"/><path d="M87.62,16.79h0v.42h0v-.49h0l.07.61-.06.55h0l.06-.44h0l.06.52h0l-.08-.64.07-.53"/><path d="M87.9,17h0l-.06.43h0L87.77,17h0l.09.61-.08.55h0l.07-.46h0l.07.53h.06l-.1-.64L87.9,17"/><path d="M88.27,17.1h-.06l-.08.42h0L88.05,17H88l.11.61-.1.56h0l.08-.46h0l.09.51h.06l-.11-.63.1-.53"/><path d="M88.69,17.25h-.07l-.09.43h0l-.09-.49h-.06l.12.61-.12.56h.06l.1-.46h0l.1.53h.08l-.14-.64.12-.52"/><path d="M89.17,17.38h-.08l-.1.42h0l-.1-.48h-.08l.14.62-.14.54h.07L89,18h0l.12.52h.08L89,17.92l.14-.54"/><path d="M87.7,18.84h0v.43h0l-.06-.5h0l.07.61-.07.55h0l.06-.45h0l.06.52h0l-.09-.64.07-.54"/><path d="M88,19h0l-.12.39h0l-.07-.49h0l.09.63-.09.54h0l.07-.44h0l.08.51h0l-.1-.63L88,19"/><path d="M88.39,19.14h-.06l-.08.43h0l-.09-.48H88.1l.11.62-.11.54h.06l.09-.44h0l.09.51h.07l-.13-.63.11-.53"/><path d="M88.83,19.29h-.07l-.1.43h0l-.1-.49h-.07l.13.63-.13.54h.07l.1-.44h0l.11.51h.07l-.14-.63.13-.53"/><path d="M99.7,18.82h-.18l-.24.45h0L99,18.8h-.18l.32.59-.34.58H99l.27-.46h0l.26.5h.19l-.35-.62.32-.54"/><path d="M100.9,18.89h-.19l-.25.45h0l-.26-.47H100l.34.58L100,20h.18l.27-.46h0l.28.5h.16l-.35-.62.35-.56"/><path d="M102.06,19h-.16l-.25.44h0l-.26-.47h-.19l.34.59-.35.57h.18l.29-.46h0l.28.5h.18l-.36-.62.34-.55"/><path d="M103.27,19h-.19l-.26.45h0l-.28-.45h-.19l.34.57-.35.58h.18l.29-.46h0l.28.5h.2l-.39-.62.34-.54"/><path d="M104.5,19.07h-.19l-.27.45h0l-.27-.47h-.2l.36.59-.37.58h.2l.28-.47h0l.28.49h.2l-.37-.61.34-.56"/><path d="M105.75,19.12h-.19l-.27.45h0l-.28-.46h-.19l.36.57-.38.59h.2l.29-.47h0l.29.49h.2l-.38-.61.35-.55"/><path d="M98.38,20.73H98.2l-.23.45h0l-.25-.48h-.17l.32.59-.33.57h.17L98,21.4h0l.26.5h.17l-.33-.62.31-.54"/><path d="M99.51,20.81h-.17l-.25.45h0l-.26-.48h-.17l.32.59-.33.57h.17l.27-.46h0l.27.49h.18l-.35-.62.32-.55"/><path d="M100.67,20.89h-.18l-.25.45h0l-.26-.48H99.8l.33.59-.34.57H100l.27-.46h0l.27.49h.19l-.35-.61.32-.55"/><path d="M101.9,21h-.18l-.26.44h0L101.2,21H101l.34.59-.36.57h.19l.27-.46h0l.27.49h.17l-.36-.61.36-.55"/><path d="M89.09,21.7H89l-.1.43h0l-.1-.49h-.08l.14.62-.13.54h.07l.1-.44h0l.11.51h.08L89,22.23l.14-.52"/><path d="M89.61,21.85h-.08l-.12.43h0l-.12-.49h-.08l.15.62-.15.54h.08l.12-.45h0l.13.52h.09l-.17-.64.15-.53"/><path d="M90.21,22h-.1l-.13.43h0l-.14-.49h-.09l.17.61-.17.55h.09l.14-.46h0l.15.53h.1L90,22.53l.17-.53"/><path d="M90.9,22.12h-.1l-.15.43h0l-.15-.49h-.1l.19.62-.19.54h.1l.15-.45h0l.16.51h.11l-.21-.64.19-.53"/><path d="M98.4,23.07h-.18l-.24.45h0L97.73,23h-.17l.31.59-.33.56h.17L98,23.7h0l.26.51h.17l-.34-.62.32-.55"/><path d="M99.53,23.15h-.18l-.24.45h0l-.25-.48h-.18l.33.59-.33.57h.17l.27-.46h0l.26.5h.18l-.34-.63.32-.54"/><path d="M100.69,23.23h-.18l-.26.45h0L100,23.2H99.8l.34.6-.35.56H100l.26-.47h0l.27.5h.19l-.36-.62.33-.55"/><path d="M101.9,23.3h-.18l-.26.45h0l-.27-.47H101l.34.59-.35.57h.18l.28-.46h0l.28.49h.16l-.36-.61.33-.55"/><path d="M107.06,33.66a1.84,1.84,0,0,1-1.78,1.9h-.07c-16-.66-17.93-2.29-18-3l-.16-22.18c0,.86,2.81,1.71,8.34,2.31h.38c2.78.29,6,.5,9.31.62a2,2,0,0,1,1.88,2l.13,18.28m.17,0-.16-18.2a2.19,2.19,0,0,0-2-2.2c-3.35-.12-6.53-.33-9.31-.62h-.38C89.83,12,87,11.13,87,10.27l.16,22.54c0,.87,2.81,1.71,8.34,2.31h.38c2.78.3,6,.5,9.31.62a2,2,0,0,0,2-2v-.07"/></g></g><g id="图层_2-3" data-name="图层 2"><g id="图层_1-2-3" data-name="图层 1-2"><line class="cls-1" x1="21.42" y1="59.14" x2="21.42" y2="60.85"/><line class="cls-1" x1="21.42" y1="41.54" x2="21.42" y2="43.24"/><polyline class="cls-1" points="35.02 45.65 34.73 45.65 34.52 45.45 34.41 45.24 34.33 44.95 34.41 44.65 34.52 44.45 34.73 44.34 35.02 44.24 35.33 44.34 35.52 44.45 35.73 44.65 35.73 44.95 35.73 45.24 35.52 45.45 35.33 45.65 35.02 45.65"/><line class="cls-1" x1="50.31" y1="41.54" x2="21.42" y2="41.54"/><polyline class="cls-1" points="22.52 58.15 22.32 58.05 22.02 57.95 21.93 57.74 21.82 57.45 21.93 57.15 22.02 56.95 22.32 56.74 22.52 56.74 22.82 56.74 23.02 56.95 23.23 57.15 23.23 57.45 23.23 57.74 23.02 57.95 22.82 58.05 22.52 58.15"/><polyline class="cls-1" points="22.52 45.65 22.32 45.65 22.02 45.45 21.93 45.24 21.82 44.95 21.93 44.65 22.02 44.45 22.32 44.34 22.52 44.24 22.82 44.34 23.02 44.45 23.23 44.65 23.23 44.95 23.23 45.24 23.02 45.45 22.82 45.65 22.52 45.65"/><polyline class="cls-1" points="35.02 58.15 34.73 58.05 34.52 57.95 34.41 57.74 34.33 57.45 34.41 57.15 34.52 56.95 34.73 56.74 35.02 56.74 35.33 56.74 35.52 56.95 35.73 57.15 35.73 57.45 35.73 57.74 35.52 57.95 35.33 58.05 35.02 58.15"/><polyline class="cls-1" points="51.41 41.55 51.41 41.55 51.33 41.55 51.13 41.55 50.91 41.55 50.73 41.55 50.52 41.55 50.33 41.55"/><line class="cls-1" x1="51.41" y1="41.54" x2="51.41" y2="60.85"/><line class="cls-1" x1="50.31" y1="60.85" x2="50.31" y2="41.54"/><polyline class="cls-1" points="21.43 41.55 21.23 41.55 21.02 41.55 20.82 41.55 20.63 41.55 20.52 41.55 20.43 41.55 20.32 41.55"/><line class="cls-1" x1="20.31" y1="60.85" x2="20.31" y2="41.54"/><polyline class="cls-1" points="21.63 57.45 21.73 57.05 21.93 56.74 22.23 56.55 22.52 56.55 22.93 56.55 23.23 56.74 23.43 57.05 23.43 57.45 23.43 57.74 23.23 58.05 22.93 58.24 22.52 58.34 22.23 58.24 21.93 58.05 21.73 57.74 21.63 57.45"/><polyline class="cls-1" points="34.13 44.95 34.23 44.65 34.41 44.34 34.73 44.15 35.02 44.05 35.41 44.15 35.63 44.34 35.83 44.65 35.91 44.95 35.83 45.34 35.63 45.55 35.41 45.74 35.02 45.84 34.73 45.74 34.41 45.55 34.23 45.34 34.13 44.95"/><line class="cls-1" x1="35.31" y1="42.95" x2="22.21" y2="42.95"/><polyline class="cls-1" points="20.52 44.65 20.63 44.34 20.73 44.05 20.82 43.74 21.02 43.45 21.32 43.24 21.63 43.15 21.93 43.05 22.23 42.95"/><line class="cls-1" x1="20.52" y1="44.64" x2="20.52" y2="57.74"/><polyline class="cls-1" points="22.23 59.45 21.93 59.34 21.63 59.24 21.32 59.15 21.02 58.95 20.82 58.65 20.73 58.34 20.63 58.05 20.52 57.74"/><line class="cls-1" x1="22.21" y1="59.45" x2="35.31" y2="59.45"/><polyline class="cls-1" points="37.02 57.74 37.02 58.05 36.91 58.34 36.73 58.65 36.52 58.95 36.23 59.15 35.91 59.24 35.63 59.34 35.33 59.45"/><line class="cls-1" x1="37.02" y1="57.74" x2="37.02" y2="44.64"/><polyline class="cls-1" points="35.33 42.95 35.63 43.05 35.91 43.15 36.23 43.24 36.52 43.45 36.73 43.74 36.91 44.05 37.02 44.34 37.02 44.65"/><polyline class="cls-1" points="21.63 44.95 21.73 44.65 21.93 44.34 22.23 44.15 22.52 44.05 22.93 44.15 23.23 44.34 23.43 44.65 23.43 44.95 23.43 45.34 23.23 45.55 22.93 45.74 22.52 45.84 22.23 45.74 21.93 45.55 21.73 45.34 21.63 44.95"/><polyline class="cls-1" points="34.13 57.45 34.23 57.05 34.41 56.74 34.73 56.55 35.02 56.55 35.41 56.55 35.63 56.74 35.83 57.05 35.91 57.45 35.83 57.74 35.63 58.05 35.41 58.24 35.02 58.34 34.73 58.24 34.41 58.05 34.23 57.74 34.13 57.45"/><polyline class="cls-1" points="22.52 51.15 22.63 50.05 22.93 49.05 23.43 47.95 24.13 47.05 24.93 46.34 25.82 45.74 26.82 45.24 27.93 45.05 29.02 44.95 30.23 45.15 31.23 45.45 32.23 45.95 33.13 46.65 33.83 47.55 34.41 48.45 34.83 49.55 35.02 50.65 35.02 51.74 34.83 52.84 34.41 53.95 33.83 54.84 33.13 55.74 32.23 56.34 31.23 56.95 30.23 57.24 29.02 57.45 27.93 57.34 26.82 57.15 25.82 56.65 24.93 56.05 24.13 55.24 23.43 54.34 22.93 53.34 22.63 52.34 22.52 51.15"/><polyline class="cls-1" points="33.91 51.15 33.83 52.24 33.52 53.24 33.02 54.15 32.33 54.84 31.52 55.55 30.52 55.95 29.52 56.24 28.52 56.24 27.52 56.15 26.52 55.74 25.63 55.24 24.93 54.55 24.32 53.65 23.93 52.74 23.73 51.74 23.73 50.65 23.93 49.65 24.32 48.74 24.93 47.84 25.63 47.15 26.52 46.65 27.52 46.24 28.52 46.05 29.52 46.15 30.52 46.45 31.52 46.84 32.33 47.45 33.02 48.24 33.52 49.15 33.83 50.15 33.91 51.15"/><line class="cls-1" x1="39.31" y1="53.35" x2="38.02" y2="51.14"/><line class="cls-1" x1="38.02" y1="51.14" x2="39.31" y2="49.04"/><line class="cls-1" x1="40.52" y1="46.95" x2="42.91" y2="46.95"/><line class="cls-1" x1="39.31" y1="49.04" x2="40.52" y2="46.95"/><line class="cls-1" x1="42.91" y1="55.45" x2="40.52" y2="55.45"/><line class="cls-1" x1="40.52" y1="55.45" x2="39.31" y2="53.35"/><line class="cls-1" x1="45.41" y1="46.95" x2="46.63" y2="49.04"/><line class="cls-1" x1="42.91" y1="46.95" x2="45.41" y2="46.95"/><line class="cls-1" x1="46.63" y1="53.35" x2="45.41" y2="55.45"/><line class="cls-1" x1="45.41" y1="55.45" x2="42.91" y2="55.45"/><line class="cls-1" x1="47.91" y1="51.14" x2="46.63" y2="53.35"/><line class="cls-1" x1="46.63" y1="49.04" x2="47.91" y2="51.14"/><polyline class="cls-1" points="47.23 51.24 47.13 52.15 46.83 52.95 46.33 53.74 45.73 54.45 44.91 54.95 44.13 55.24 43.23 55.45 42.23 55.34 41.41 55.15 40.52 54.74 39.83 54.15 39.33 53.34 38.91 52.55 38.73 51.65 38.73 50.74 38.91 49.84 39.33 48.95 39.91 48.24 40.63 47.65 41.41 47.24 42.33 46.95 43.23 46.95 44.13 47.05 44.91 47.45 45.73 47.95 46.33 48.65 46.83 49.45 47.13 50.24 47.23 51.24"/><polyline class="cls-1" points="41.33 51.95 41.33 51.84 41.41 51.74 41.52 51.65 41.63 51.65 41.73 51.65 41.83 51.74 41.91 51.84 41.91 51.95 41.91 52.05 41.83 52.15 41.73 52.24 41.63 52.24 41.52 52.24 41.41 52.15 41.33 52.05 41.33 51.95"/><polyline class="cls-1" points="41.33 50.45 41.33 50.34 41.41 50.15 41.52 50.15 41.63 50.15 41.73 50.15 41.83 50.15 41.91 50.34 41.91 50.45 41.91 50.55 41.83 50.65 41.73 50.74 41.63 50.74 41.52 50.74 41.41 50.65 41.33 50.55 41.33 50.45"/><polyline class="cls-1" points="42.63 49.65 42.63 49.55 42.73 49.45 42.83 49.34 42.91 49.34 43.13 49.34 43.23 49.45 43.23 49.55 43.33 49.65 43.23 49.74 43.23 49.84 43.13 49.95 42.91 49.95 42.83 49.95 42.73 49.84 42.63 49.74 42.63 49.65"/><polyline class="cls-1" points="42.63 51.15 42.63 51.05 42.73 50.95 42.83 50.84 42.91 50.84 43.13 50.84 43.23 50.95 43.23 51.05 43.33 51.15 43.23 51.34 43.23 51.45 43.13 51.45 42.91 51.55 42.83 51.45 42.73 51.45 42.63 51.34 42.63 51.15"/><polyline class="cls-1" points="43.91 50.45 44.02 50.34 44.02 50.24 44.13 50.15 44.33 50.15 44.41 50.15 44.52 50.24 44.63 50.34 44.63 50.45 44.63 50.55 44.52 50.65 44.41 50.74 44.33 50.74 44.13 50.74 44.02 50.65 44.02 50.55 43.91 50.45"/><polyline class="cls-1" points="43.91 51.95 44.02 51.84 44.02 51.74 44.13 51.65 44.33 51.65 44.41 51.65 44.52 51.74 44.63 51.84 44.63 51.95 44.63 52.05 44.52 52.15 44.41 52.24 44.33 52.24 44.13 52.24 44.02 52.15 44.02 52.05 43.91 51.95"/><polyline class="cls-1" points="39.33 51.15 39.41 52.05 39.63 52.84 40.13 53.55 40.73 54.15 41.52 54.55 42.33 54.84 43.13 54.84 44.02 54.74 44.83 54.34 45.52 53.84 46.02 53.24 46.41 52.45 46.63 51.65 46.63 50.74 46.41 49.95 46.02 49.15 45.52 48.55 44.83 48.05 44.02 47.65 43.23 47.55 42.33 47.55 41.52 47.84 40.73 48.24 40.13 48.84 39.73 49.55 39.41 50.34 39.33 51.15"/><polyline class="cls-1" points="43.52 53.74 43.41 53.55 43.33 53.34 43.13 53.24 42.91 53.24 42.73 53.24 42.63 53.34 42.41 53.55 42.41 53.74"/><polyline class="cls-1" points="42.41 53.74 41.73 53.45 41.13 53.05 40.73 52.45 40.41 51.84 40.33 51.05 40.52 50.34 40.83 49.74 41.33 49.15 41.91 48.84 42.63 48.65 43.33 48.65 44.02 48.84 44.63 49.15 45.13 49.74 45.41 50.34 45.52 51.05 45.52 51.84 45.23 52.45 44.83 53.05 44.23 53.45 43.52 53.74"/><polyline class="cls-1" points="71.03 66.54 71.03 66.54 70.92 66.54 70.53 66.54 70.03 66.54 69.33 66.54 68.42 66.54 67.22 66.54 66.03 66.54 64.53 66.54 62.91 66.54 61.13 66.54 59.23 66.54 57.13 66.54 54.91 66.54 52.73 66.54 50.33 66.54 47.83 66.54 45.33 66.54 42.73 66.54 40.13 66.54 37.41 66.54 34.73 66.54 32.13 66.54 29.52 66.54 26.93 66.54 24.32 66.54 21.82 66.54 19.43 66.54 17.13 66.54 14.93 66.54 12.93 66.54 10.93 66.54 9.13 66.54 7.53 66.54 6.03 66.54 4.71 66.54 3.52 66.54 2.63 66.54 1.81 66.54 1.31 66.54 0.93 66.54 0.71 66.54"/><polyline class="cls-1" points="71.03 60.84 71.03 60.84 70.72 60.84 70.33 60.84 69.72 60.84 68.83 60.84 67.83 60.84 66.63 60.84 65.22 60.84 63.73 60.84 62.02 60.84 60.23 60.84 58.23 60.84 56.02 60.84 53.83 60.84 51.52 60.84 49.13 60.84 46.52 60.84 44.02 60.84 41.41 60.84 38.73 60.84 36.13 60.84 33.41 60.84 30.82 60.84 28.23 60.84 25.63 60.84 23.13 60.84 20.63 60.84 18.32 60.84"/><polyline class="cls-1" points="18.32 60.84 16.02 60.84 13.93 60.84 11.93 60.84 10.03 60.84 8.31 60.84 6.71 60.84 5.33 60.84 4.13 60.84 3.02 60.84 2.23 60.84 1.51 60.84 1.01 60.84 0.81 60.84 0.71 60.84"/><polyline class="cls-1" points="71.63 65.95 71.53 65.95 71.22 65.95 70.72 65.95 70.03 65.95 69.13 65.95 68.03 65.95 66.83 65.95 65.42 65.95 63.83 65.95 62.02 65.95 60.13 65.95 58.13 65.95 56.02 65.95 53.73 65.95 51.41 65.95 48.91 65.95 46.41 65.95 43.83 65.95 41.23 65.95 38.52 65.95 35.91 65.95 33.23 65.95 30.52 65.95 27.93 65.95 25.32 65.95 22.82 65.95 20.43 65.95 18.02 65.95 15.71 65.95 13.63 65.95 11.63 65.95 9.71 65.95 7.92 65.95 6.33 65.95 4.92 65.95 3.73 65.95 2.63 65.95 1.73 65.95 1.01 65.95 0.53 65.95 0.23 65.95 0.13 65.95"/><polyline class="cls-1" points="71.63 61.34 71.53 61.34 71.22 61.34 70.72 61.34 70.03 61.34 69.13 61.34 68.03 61.34 66.83 61.34 65.42 61.34 63.83 61.34 62.02 61.34 60.13 61.34 58.13 61.34 56.02 61.34 53.73 61.34 51.41 61.34 48.91 61.34 46.41 61.34 43.83 61.34 41.23 61.34 38.52 61.34 35.91 61.34 33.23 61.34 30.52 61.34 27.93 61.34 25.32 61.34 22.82 61.34 20.43 61.34 18.02 61.34 15.71 61.34 13.63 61.34 11.63 61.34 9.71 61.34 7.92 61.34 6.33 61.34 4.92 61.34 3.73 61.34 2.63 61.34 1.73 61.34 1.01 61.34 0.53 61.34 0.23 61.34 0.13 61.34"/><line class="cls-1" x1="62.81" y1="60.85" x2="62.81" y2="0.16"/><line class="cls-1" x1="8.92" y1="0.16" x2="8.92" y2="60.85"/><line class="cls-1" x1="71.01" y1="66.54" x2="71.62" y2="65.95"/><line class="cls-1" x1="0.13" y1="65.95" x2="0.72" y2="66.54"/><line class="cls-1" x1="0.72" y1="60.85" x2="0.13" y2="61.35"/><line class="cls-1" x1="71.62" y1="61.35" x2="71.01" y2="60.85"/><line class="cls-1" x1="71.62" y1="65.95" x2="71.62" y2="61.35"/><line class="cls-1" x1="0.13" y1="61.35" x2="0.13" y2="65.95"/><path class="cls-14" d="M31.45,28.93h-.79a1.6,1.6,0,0,1-.31,0,.27.27,0,0,1-.2-.32v0a1.36,1.36,0,0,1,.11-.28L31,26.91l.14-.19a.29.29,0,0,1,.39-.1.28.28,0,0,1,.09.1.46.46,0,0,1,.13.18c.27.47.54.94.8,1.41a.62.62,0,0,1,.11.25.26.26,0,0,1-.15.35h0a.76.76,0,0,1-.3,0h-.75Z"/><path class="cls-10" d="M26.48,26.54a1.2,1.2,0,1,1-1.2,1.2h0a1.19,1.19,0,0,1,1.19-1.19Z"/><path class="cls-14" d="M22.22,27.48h.55s.07,0,.07.06a.43.43,0,0,0,0,.16c0,.11,0,.1-.09.1h-.53v.08a.77.77,0,0,0,.71.54h0v.21c0,.05,0,.07-.07.07a1.2,1.2,0,0,1-.46-.11,1.07,1.07,0,0,1,.31-2h.17a.05.05,0,0,1,0,.06v.21c0,.05,0,.06,0,.06a.64.64,0,0,0-.7.58Z"/><path d="M36.34,18.8a.81.81,0,0,1,.22,0v.14a.51.51,0,0,1,.34-.17.29.29,0,0,1,.29.18l.11-.09a.4.4,0,0,1,.3-.09.27.27,0,0,1,.22.18.61.61,0,0,1,0,.19v.66c0,.05,0,.07-.07.06h-.2s0-.13,0-.2v-.53a.12.12,0,0,0-.13-.11h0a.2.2,0,0,0-.17.21v.53c0,.12,0,.1-.1.1H37s-.07,0-.07-.06v-.55a.24.24,0,0,0,0-.12.13.13,0,0,0-.15-.12h0a.21.21,0,0,0-.16.21v.56c0,.07,0,.07-.07.07h-.18s0-.12,0-.19v-.76A.17.17,0,0,1,36.34,18.8Z"/><path d="M29.81,19.32l.32.57h-.29l-.05-.05c0-.05-.15-.27-.22-.4s0-.07-.05-.07h-.15v.43c0,.12,0,.09-.09.09h-.19c-.05,0,0-.12,0-.18V18.55c0-.09,0-.09.09-.09h.43a.57.57,0,0,1,.26,0,.37.37,0,0,1,.23.29.44.44,0,0,1-.27.56Z"/><path class="cls-14" d="M20,27.81a1.12,1.12,0,0,1,1-1.21h.13v.22s0,.06-.05.06h-.23A.77.77,0,0,0,21,28.41h.14c.05,0,.06,0,.06.06v.2c0,.07,0,.07-.08.07A1.15,1.15,0,0,1,20,27.81Z"/><path d="M28.55,19.15a.8.8,0,0,1-.1.43.61.61,0,0,1-.83.23.72.72,0,0,1-.23-.23.89.89,0,0,1,0-.84.56.56,0,0,1,.55-.32.57.57,0,0,1,.54.32A.83.83,0,0,1,28.55,19.15Z"/><path d="M20.21,18.92v-.4s0-.07.06-.06h.2c.05,0,0,.13,0,.2v.77a.26.26,0,0,0,.3.2.23.23,0,0,0,.19-.2.34.34,0,0,0,0-.2v-.72c0-.07,0-.07.07-.07h.14s.06,0,.06.06v.66a1.13,1.13,0,0,1,0,.26.49.49,0,0,1-.52.46h-.05a.51.51,0,0,1-.51-.51V18.9Z"/><path d="M34.9,19.86h-.25l-.06-.05c-.06,0-.05-.17-.07-.25a.07.07,0,0,0-.07-.06h-.33c-.06,0-.08,0-.09.07l-.06.24s0,.05-.07.05h-.22v-.08c.13-.42.27-.83.4-1.25,0-.08,0-.07.11-.07h.18c.06,0,.08,0,.09.08l.38,1.16A1,1,0,0,1,34.9,19.86Z"/><path d="M24.18,19.86h-.3c-.05,0-.05-.18-.07-.26s0-.06-.08-.06h-.32c-.05,0-.08,0-.09.06l-.06.25s0,0-.07,0H23v-.07c.12-.42.26-.84.39-1.26,0-.07,0-.07.12-.07h.18a.1.1,0,0,1,.09.06l.42,1.31Z"/><path class="cls-15" d="M36,26.78s0-.11-.07-.1,0-.05,0-.06.11-.09.16-.14h.36a.83.83,0,0,1,.34.1h.06c.06,0,.08,0,.13.08s0,.07,0,.09h0l.07-.05.38-.42v.11l-.43.33a.15.15,0,0,0,0,.13.06.06,0,0,1,0,.06c0,.08,0,.09-.09.09s0,0,0,.06l-.06.67a.21.21,0,0,0,0,.11c.15.17.29.34.44.5s0,0,0,.06h0l-.31-.34v.06a.16.16,0,0,1-.22.09l-.05,0a.11.11,0,0,0-.11,0h-.22s-.1,0-.09.06,0,0-.07,0,0,0,0,0V28a.54.54,0,0,0,0-.18l-.49.53h0l.44-.49a.21.21,0,0,0-.12-.26,2.43,2.43,0,0,0,0-.6v-.1C35.9,26.87,36,26.83,36,26.78Z"/><path class="cls-16" d="M36.38,29.32h-.73c-.08,0-.08,0-.08-.08v-.3s0-.06,0-.05h1.54v.36h-.78Z"/><path d="M25.54,18.62l-.12.16a.09.09,0,0,1-.08-.05.35.35,0,0,0-.47.09.36.36,0,0,0-.07.17.75.75,0,0,0,0,.42.34.34,0,0,0,.42.23.42.42,0,0,0,.13-.07h.09c.09.11.09.11,0,.19a.62.62,0,0,1-.86-.15.31.31,0,0,1,0-.1.81.81,0,0,1,0-.74.59.59,0,0,1,.78-.31.51.51,0,0,1,.16.09S25.54,18.59,25.54,18.62Z"/><path d="M21.87,19.15v-.62c0-.07,0-.07.07-.07h.72c.08,0,.08,0,.08.07s0,.16-.16.16h-.35c-.08,0-.08,0-.08.08V19a.06.06,0,0,0,.06.06h.38s.06,0,.06.05a.15.15,0,0,1-.17.18h-.27a.06.06,0,0,0-.06.07v.42c0,.08,0,.08-.07.08h-.2s0-.12,0-.19S21.87,19.32,21.87,19.15Z"/><path d="M30.94,19.09V19a5,5,0,0,1,.2-.49.06.06,0,0,1,.07-.06h.23a.11.11,0,0,1,0,.08c-.13.25-.23.5-.35.74a.17.17,0,0,0,0,.14v.37c0,.12,0,.08-.07.07h-.21a.74.74,0,0,1,0-.21,1,1,0,0,0-.12-.57,4.43,4.43,0,0,1-.26-.54.11.11,0,0,1,0-.08h.26l.06.05.18.46A.25.25,0,0,0,30.94,19.09Z"/><path class="cls-17" d="M26.29,19.32v-.5c0-.08,0-.08-.09-.08h-.26a0,0,0,0,1-.05,0c0-.05,0-.18.16-.18h.84c.08,0,.08,0,.08.08s0,.14-.14.15h-.2a.06.06,0,0,0-.06.06v1c0,.08,0,.08-.08.08h-.15a.05.05,0,0,1-.05-.06Z"/><path d="M33.4,19.86h-.25a.06.06,0,0,1-.06,0L33,19.62l-.06-.1-.1.19-.06.14s0,.06-.09,0h-.22v-.07a2.75,2.75,0,0,1,.24-.39.17.17,0,0,0,0-.19l-.25-.41h.33s.08.16.13.24,0,.06.05.07.09-.2.13-.3a.08.08,0,0,1,.09-.05h.23c0,.1-.11.19-.16.28l-.12.21a.09.09,0,0,0,0,.1l.27.42A.05.05,0,0,1,33.4,19.86Z"/><path class="cls-17" d="M20.37,24.21a2.93,2.93,0,0,1,.13-.57c0-.19,0-.06.08-.06s.07,0,.08.06l.15.63h0a2.63,2.63,0,0,1,.1-.56h0c0-.12,0-.12.15-.1l-.12.65v.16s0,.07-.08.07h0c-.09,0-.09,0-.11-.08s-.09-.37-.13-.55h0a2.93,2.93,0,0,1-.13.57c0,.19,0,.07-.09.07s-.1,0-.12-.1l-.15-.74h0a.06.06,0,0,1,.06,0c.08,0,.08,0,.1.08s.07.38.1.57C20.37,24.32,20.36,24.21,20.37,24.21Z"/><path class="cls-17" d="M35.54,19a.69.69,0,0,1,.11-.13.31.31,0,0,1,.26-.06V19s0,.05-.07,0a.25.25,0,0,0-.27.15.29.29,0,0,0,0,.13v.5s0,.07-.06.06h-.16s-.06,0-.06-.05V18.72h.16S35.5,18.91,35.54,19Z"/><path class="cls-18" d="M20.78,21.78l-.16.45a.07.07,0,0,1-.07.07c-.07,0-.06,0-.07-.07l-.16-.45h0a.17.17,0,0,0,0,.1v.45c0,.15,0,.07-.06.07s-.07,0-.07-.07v-.75s0-.07.06-.07.1,0,.13.1l.19.51.08-.21.12-.33v-.06h.13v.8c0,.05,0,.06-.06.06s-.07,0-.07-.06v-.44a.24.24,0,0,0,0-.12S20.79,21.77,20.78,21.78Z"/><path class="cls-17" d="M40,28.72c0,.12-.1.25-.14.38s0,.09-.09.09-.06-.06-.08-.1-.09-.26-.14-.4,0,0,0-.06v.58c0,.06,0,.06-.07.06s-.06,0-.06-.06v-.77a.05.05,0,0,1,.06-.05c.06,0,.1,0,.13.08a4.94,4.94,0,0,1,.17.48h0s.09-.27.14-.4,0-.08,0-.12v-.08h.13v.77c0,.11,0,.09-.09.09h0a3.69,3.69,0,0,1,0-.47v-.09h0Z"/><path class="cls-17" d="M31.94,24.46h0c-.13,0-.12,0-.12-.1v-.71c0-.07,0-.07.08-.07s.08,0,.12.08l.16.47c0,.15,0,0,0,.05.07-.18.13-.35.19-.53v-.06h.13v.87h-.11a3.38,3.38,0,0,1,0-.45.17.17,0,0,0,0-.1h0l-.15.41a.06.06,0,0,1-.06.06c-.06,0-.06,0-.07-.06S32,24,32,23.91h0A.11.11,0,0,0,32,24v.4S32,24.44,31.94,24.46Z"/><path class="cls-17" d="M31.94,21.79l.06.53a.06.06,0,0,1-.06.06h-.07V21.6c0-.05,0-.05.06-.06s.09,0,.13.09a3.67,3.67,0,0,1,.17.48h0l.19-.54a.07.07,0,0,1,.07-.07c.07,0,.11,0,.11.11v.77h-.1V21.8h0a1.73,1.73,0,0,1-.18.51h0s0,0-.07,0-.13-.34-.18-.51S31.94,21.77,31.94,21.79Z"/><path class="cls-18" d="M23,38.44V37.8h0c.12,0,.11,0,.11.11v.77a.11.11,0,0,1-.11-.06l-.3-.53L22.64,38v.62c0,.17,0,.05-.07.05s-.07,0-.07-.05v-.79h0a.19.19,0,0,1,.15.08c.05.08.21.36.31.55C23,38.43,23,38.45,23,38.44Z"/><path class="cls-18" d="M26.38,38.45v-.59c0-.2,0-.07.08-.07s.06,0,.06.05v.81h0a.14.14,0,0,1-.16-.08c-.09-.19-.19-.36-.29-.54h0v.29a1.31,1.31,0,0,1,0,.28c0,.07,0,.1-.11.07h0v-.84c0-.07.12,0,.14,0v.06Z"/><path class="cls-17" d="M22.64,24.44c-.07-.09-.08-.12,0-.2s0,0,0-.07a.22.22,0,0,1,0-.27.26.26,0,0,1,.28-.11h.28s0,.06-.1.06h0v0a.24.24,0,0,1-.15.29H22.8m-.06,0v.07a.11.11,0,0,0,.08,0H23c.07,0,.14,0,.17.11a.2.2,0,0,1-.1.22.47.47,0,0,1-.4,0,.14.14,0,0,1-.11-.18.1.1,0,0,1,.05-.08Z"/><path class="cls-17" d="M31,38.23a.34.34,0,0,1,0-.2.36.36,0,0,1,.46-.23.39.39,0,0,1,.24.23.72.72,0,0,1,0,.41.37.37,0,0,1-.47.23.35.35,0,0,1-.23-.23v-.21Z"/><path class="cls-17" d="M35.58,22.37h0a.12.12,0,0,1-.15-.08h0c0-.08-.09-.15-.14-.22a.14.14,0,0,0-.15,0v.3c0,.06,0,0-.08,0H35v-.78s0-.06.06,0h.36a.21.21,0,0,1,.19.19.24.24,0,0,1-.11.28c-.06,0-.06,0,0,.1l.16.27Z"/><path class="cls-17" d="M32.4,38.32l.21.36h-.07a.12.12,0,0,1-.13-.07.94.94,0,0,0-.12-.22.11.11,0,0,0-.15-.06h0v.24s0,.08-.07.07-.07,0-.07-.06v-.76s0-.06.07-.06h.33c.14,0,.19.08.21.2a.24.24,0,0,1-.13.28Z"/><path class="cls-17" d="M40.47,26.81h.07c.06,0,.08,0,.09.07l.09.39h0a1.91,1.91,0,0,1,.11-.41c0-.13,0-.09.09-.09s.06,0,.09.09l.09.36a.09.09,0,0,0,0,.07,1.58,1.58,0,0,1,.1-.43c0-.14,0-.09.11-.09h0v.07s-.09.34-.13.51,0,.08-.09.07-.1,0-.12-.09-.07-.26-.11-.38l-.09.37c0,.11,0,.11-.16.1h0C40.58,27.23,40.52,27,40.47,26.81Z"/><path class="cls-17" d="M39.61,27.32a2.13,2.13,0,0,1,.1-.4c0-.14,0-.07.08-.07s.09,0,.09.08l.09.35,0,0a2,2,0,0,1,.09-.41c0-.14,0-.11.14-.09s0,.05,0,.07a1.89,1.89,0,0,1-.13.52c-.05.17,0,.06,0,.06H40s0,0,0-.06a2.64,2.64,0,0,0-.12-.4,1.34,1.34,0,0,1-.07.27.17.17,0,0,1,0,.1c0,.11,0,.12-.14.1s0,0,0,0a6.09,6.09,0,0,1-.17-.61h0c.12,0,.12,0,.14.1s.06.22.08.33v.09S39.59,27.32,39.61,27.32Z"/><path class="cls-17" d="M42.06,27a2,2,0,0,1-.1.41c0,.14,0,.05-.08,0s-.09,0-.11,0c-.05-.21-.12-.41-.16-.61h0c.11,0,.11,0,.14.11s.06.23.08.34h0s.07-.26.1-.39a.06.06,0,0,1,.07-.06h0s.08,0,.09.07.06.25.09.37,0,0,0,.06.07-.28.1-.42,0-.08.11-.08h0l-.12.49a.09.09,0,0,0,0,.07v.08h-.13l-.09-.36S42.09,27,42.06,27Z"/><path class="cls-18" d="M37.81,38.61a.27.27,0,0,1-.31,0,.32.32,0,0,1-.14-.29.67.67,0,0,1,0-.2.28.28,0,0,1,.36-.15l0,0h0v-.27c0-.07,0-.06.07-.07s.07,0,.07.07v.89h-.1Z"/><path class="cls-17" d="M24.82,38.24v.38c0,.06,0,.05-.06.05s-.08,0-.07-.05a1.31,1.31,0,0,1,0-.28c0-.06,0-.07-.07-.07h-.24c-.05,0-.07,0-.07.07v.33s-.09,0-.09-.08v-.8h.11V38a.06.06,0,0,0,.06.06h.32v-.25c0-.05,0-.06.06-.06s.08,0,.08.07Z"/><path class="cls-17" d="M20.78,38.23v-.36c0-.12,0-.08.07-.08s0,0,0,.08a.41.41,0,0,1,0,.22.06.06,0,0,0,.06.06h.26a.06.06,0,0,0,.06-.06v-.25c0-.05,0-.05.07-.05s.07,0,.07.06v.77c0,.06,0,.05-.07.05s-.07,0-.07-.05v-.3a.06.06,0,0,0-.06-.06H21a.05.05,0,0,0-.05.06v.29c0,.1,0,0-.08,0s-.07,0-.07,0S20.78,38.32,20.78,38.23Z"/><path class="cls-17" d="M22.53,21.76v-.28c0-.06,0-.06.07-.06s.07,0,.07.06v.84h0s-.11,0-.13-.05,0,0-.07,0a.25.25,0,0,1-.34-.09.08.08,0,0,0,0,0,.62.62,0,0,1,0-.33C22.17,21.71,22.32,21.66,22.53,21.76Z"/><path class="cls-17" d="M42.06,28.64a1.22,1.22,0,0,0,0-.27c0-.06,0-.06.07-.06s.07,0,.07.05v.9c-.09,0-.09,0-.13-.05l-.08.05a.24.24,0,0,1-.33-.11h0a.55.55,0,0,1,0-.4.27.27,0,0,1,.36-.13h0A0,0,0,0,0,42.06,28.64Z"/><path class="cls-17" d="M39.9,23.84v-.27c0-.06,0-.06.08-.06s.07,0,.07.06v.89s-.08,0-.11-.05,0,0-.06,0a.26.26,0,0,1-.35-.09s0,0,0,0a.42.42,0,0,1,0-.31.27.27,0,0,1,.37-.13Z"/><path class="cls-18" d="M27.11,38.1v-.26s0-.05,0-.05.1,0,.1.09v.44a.43.43,0,0,0,0,.16.16.16,0,0,0,.15.12.15.15,0,0,0,.17-.12.22.22,0,0,0,0-.16v-.44c0-.05,0-.06.06-.06s.08,0,.08.06v.54a.31.31,0,0,1-.32.31.28.28,0,0,1-.13,0,.29.29,0,0,1-.19-.27v-.3Z"/><path class="cls-17" d="M29.32,38.67h0c-.09,0-.07,0-.11-.08s0-.12-.06-.15-.11,0-.15,0a.17.17,0,0,0-.18.12h0c0,.12,0,.12-.15.11a0,0,0,0,1,0-.07c.08-.24.17-.49.23-.74,0-.07.06-.07.12-.07s.08,0,.1.07c.09.25.17.49.25.74A.08.08,0,0,1,29.32,38.67Z"/><path class="cls-18" d="M47.63,28.69a.37.37,0,0,1,.21-.1.2.2,0,0,1,.19.14.14.14,0,0,1,0,.09v.4c0,.14,0,.1,0,.1s-.07,0-.07-.06v-.34c0-.06,0-.13-.07-.15a.2.2,0,0,0-.18.07.06.06,0,0,0,0,.08v.34c0,.06,0,.06-.07.06s-.07,0-.07-.06v-.84c0-.06,0-.05.08-.06s.07,0,.06.06Z"/><path class="cls-17" d="M25.11,38.23v-.38c0-.13,0-.06.06-.06h.4c.05,0,.06,0,.06.06s0,.06-.06.06h-.34a.18.18,0,0,0,.19.19h.09a.05.05,0,0,1,0,.06c0,.06,0,.06,0,.06h-.26a1.55,1.55,0,0,1,0,.22c0,.06.12,0,.2,0a.38.38,0,0,0,.15,0v.12h-.46v-.05Z"/><path class="cls-17" d="M21.7,38.23v-.38c0-.05,0-.06.06-.06h.4a.06.06,0,0,1,.06.06c0,.06,0,.06-.06.06H21.9s-.07,0-.06.06a1,1,0,0,1,0,.17s.1,0,.16,0h.08c.06,0,.06,0,.06.07s0,0-.05,0h-.2c-.05,0-.08,0-.07.06a1.47,1.47,0,0,1,0,.21s.13,0,.2,0h.11c.07,0,.07,0,.07.08h-.45v0Z"/><path class="cls-17" d="M23.54,23.88l.09-.06a.21.21,0,0,1,.29,0A.2.2,0,0,1,24,24v.35c0,.1,0,.1-.07.1s-.08,0-.08-.1a1.41,1.41,0,0,0,0-.29c0-.06,0-.13-.07-.15a.48.48,0,0,0-.17,0s0,.06,0,.09v.35c0,.05,0,.06,0,.06s-.08,0-.08-.06v-.84c0-.06,0-.06.07-.06s.06,0,.06.06Z"/><path class="cls-17" d="M35,24.06v-.45h.36a.24.24,0,0,1,.21.26h0a.23.23,0,0,1-.2.26.67.67,0,0,1-.2,0s-.07,0-.07.06v.22c0,.07,0,.05-.05.05s-.09,0-.09-.09Z"/><path class="cls-17" d="M19.94,38.56V38.5H20a.31.31,0,0,0,.13.06h.15a.12.12,0,0,0,0-.17l0,0-.08,0-.15-.07a.23.23,0,0,1,0-.4.35.35,0,0,1,.41.07.15.15,0,0,1-.06.09h-.07a.15.15,0,0,0-.13,0,.13.13,0,0,0-.14.09.15.15,0,0,0,.09.13l.19.08a.26.26,0,0,1,.16.26.27.27,0,0,1-.21.22A.45.45,0,0,1,19.94,38.56Z"/><path class="cls-17" d="M38.29,21.78h.08a.21.21,0,0,1,.33.17c0,.17,0,.28,0,.42h0s-.1,0-.1-.09V22c0-.11,0-.15-.11-.15a.16.16,0,0,0-.16.16v.35h-.1v-.9c0-.06,0,0,.07,0h.06Z"/><path class="cls-17" d="M23.53,38.55h.36a.07.07,0,0,1,.07.06v0h-.54a.17.17,0,0,1,0-.1l.34-.53a.36.36,0,0,0,0-.09h-.32a.07.07,0,0,1-.07-.06s0,0,0,0h.52a.2.2,0,0,1,0,.15l-.35.55Z"/><path class="cls-17" d="M21.84,22c0,.23-.14.37-.34.35h-.07a.34.34,0,0,1-.2-.45.31.31,0,0,1,.6.09,0,0,0,0,1,0,0Z"/><path class="cls-19" d="M44.86,29.32v-.7c.09,0,.09,0,.13.07a.29.29,0,0,1,.22-.1.19.19,0,0,1,.18.13v.49c0,.06,0,.06-.07.06s-.07,0-.07-.06v-.35c0-.1,0-.14-.11-.14a.16.16,0,0,0-.16.15v.32c0,.11,0,.08-.08.08Z"/><path class="cls-17" d="M47.09,26.79a.33.33,0,0,1,.32.34.06.06,0,0,1,0,0,.3.3,0,0,1-.3.31H47a.3.3,0,0,1-.25-.31A.31.31,0,0,1,47,26.8Z"/><path class="cls-17" d="M47,29.07c.09.09.08.11,0,.17a.38.38,0,0,1-.51-.13l0,0a.62.62,0,0,1,0-.5.38.38,0,0,1,.5-.17.18.18,0,0,1,.07.05h0a.23.23,0,0,0-.33.06.09.09,0,0,0,0,.07.42.42,0,0,0,0,.31.23.23,0,0,0,.38.12Z"/><path class="cls-17" d="M35.22,38.32a.37.37,0,0,1-.07.2.28.28,0,0,1-.29.14.32.32,0,0,1-.25-.2.51.51,0,0,1,0-.3.32.32,0,0,1,.32-.19.29.29,0,0,1,.27.27A.24.24,0,0,1,35.22,38.32Z"/><path class="cls-17" d="M38.43,24.12a.34.34,0,0,1-.23.35.31.31,0,0,1-.37-.18.34.34,0,0,1,0-.31.28.28,0,0,1,.31-.19.31.31,0,0,1,.27.27S38.42,24.1,38.43,24.12Z"/><path class="cls-17" d="M34.43,37.88a.1.1,0,0,1-.07.09c-.07,0-.07-.06-.12-.07A.23.23,0,0,0,34,38a.43.43,0,0,0,0,.41.22.22,0,0,0,.3.1h0c.08-.05.08-.05.14,0a.36.36,0,0,1-.51,0,.25.25,0,0,1-.08-.1.5.5,0,0,1,0-.55.35.35,0,0,1,.49-.11Z"/><path class="cls-18" d="M38.72,24v-.09a.47.47,0,0,1,.28-.09.2.2,0,0,1,.22.19h0v.44H39a.19.19,0,0,1-.14-.36h0a1,1,0,0,1,.23-.06s.06,0,0-.07a.14.14,0,0,0-.12-.08A.39.39,0,0,0,38.72,24Z"/><path class="cls-17" d="M36.29,24.46c-.07,0-.12,0-.14-.06l-.15.08a.2.2,0,0,1-.15-.36.64.64,0,0,1,.18-.06h.11c0-.11,0-.14-.14-.13a.49.49,0,0,0-.16.05.1.1,0,0,0-.06-.08.42.42,0,0,1,.32-.09.21.21,0,0,1,.18.22Z"/><path class="cls-17" d="M33.27,24.41l-.15.07a.19.19,0,1,1-.12-.36h0a.61.61,0,0,1,.24-.07s0,0,0-.07a.13.13,0,0,0-.11-.08.53.53,0,0,0-.19.06.1.1,0,0,0-.06-.08.4.4,0,0,1,.3-.09.19.19,0,0,1,.18.15.29.29,0,0,1,0,.13v.39s-.09,0-.09-.05Z"/><path class="cls-17" d="M30.09,37.88,30,38H30a.23.23,0,0,0-.31.07.43.43,0,0,0,0,.46.22.22,0,0,0,.3.08l.09-.06.07.08a.38.38,0,0,1-.53,0,.44.44,0,0,1-.08-.11.5.5,0,0,1,0-.5.37.37,0,0,1,.48-.21Z"/><path class="cls-17" d="M41,28.85c0-.11,0-.14-.14-.14a.49.49,0,0,0-.17.06v-.09a.45.45,0,0,1,.28-.09.22.22,0,0,1,.21.19,3.53,3.53,0,0,1,0,.46h-.09l-.16.07a.21.21,0,0,1-.24-.11A.21.21,0,0,1,40.8,29a1.19,1.19,0,0,1,.23-.07Z"/><path class="cls-18" d="M33.41,22.38h-.24a.22.22,0,0,1-.22,0,.18.18,0,0,1,0-.2A.18.18,0,0,1,33,22l.2-.06s.07,0,0-.07a.13.13,0,0,0-.14-.07.21.21,0,0,0-.11,0h-.09s0-.06,0-.07l.2-.06a.21.21,0,0,1,.25.17,0,0,0,0,1,0,.05A.8.8,0,0,1,33.41,22.38Z"/><path class="cls-18" d="M37.09,22.37c-.09,0-.09,0-.12-.05l-.13.06a.2.2,0,0,1-.25-.06.19.19,0,0,1,.06-.26h0a.58.58,0,0,1,.21-.07H37a.1.1,0,0,0-.06-.1h-.28s0,0,0-.05a.49.49,0,0,1,.29-.06.18.18,0,0,1,.17.15.06.06,0,0,1,0,.06Z"/><path class="cls-17" d="M50.24,28.77a.2.2,0,0,1-.05-.09.45.45,0,0,1,.28-.09.19.19,0,0,1,.2.19h0a3.53,3.53,0,0,1,0,.46h-.16a.24.24,0,0,1-.12,0,.18.18,0,0,1-.2-.11.18.18,0,0,1,.08-.24.88.88,0,0,1,.23-.07h.07a.12.12,0,0,0-.07-.11.17.17,0,0,0-.14,0Z"/><path class="cls-17" d="M44.7,27c-.07-.09-.07-.09,0-.14h.2a.19.19,0,0,1,.21.19h0v.46H45l-.12.06a.18.18,0,0,1-.22,0,.19.19,0,0,1,0-.19.2.2,0,0,1,.12-.13.51.51,0,0,1,.22,0V27.1a.12.12,0,0,0-.14-.08Z"/><path class="cls-18" d="M23.09,22.09a.21.21,0,0,0,.22.2l.08,0h.07s0,.06,0,.08a.33.33,0,0,1-.44-.1.4.4,0,0,1,.08-.49.28.28,0,0,1,.37,0,.24.24,0,0,1,.06.15V22c0,.06,0,.1-.09.1Z"/><path class="cls-18" d="M21.44,24.17a.2.2,0,0,0,.19.21.17.17,0,0,0,.1,0h.07c.07,0,0,.07,0,.09a.35.35,0,0,1-.44-.1.4.4,0,0,1,.08-.49.26.26,0,0,1,.37,0,.2.2,0,0,1,.06.14v.08c0,.08,0,.08-.08.08Z"/><path class="cls-18" d="M35.93,22.09c0,.18.13.23.34.15h0v.05a.33.33,0,0,1-.47-.05h0a.41.41,0,0,1,.07-.51.27.27,0,0,1,.37,0,.23.23,0,0,1,.06.16h0c0,.11,0,.11-.09.11Z"/><path class="cls-18" d="M42.79,29a.22.22,0,0,0,.23.2l.07,0h.08c.08,0,0,.07,0,.1a.34.34,0,0,1-.44-.11.37.37,0,0,1,.08-.49.27.27,0,0,1,.37,0,.3.3,0,0,1,.06.11v.09s0,.09-.08.09Z"/><path class="cls-18" d="M48.29,26.83h.07a.1.1,0,0,1,.09.06,1,1,0,0,0,.08.23.29.29,0,0,0,.07.22l.06-.18a.73.73,0,0,1,.08-.25c0-.08,0-.08.11-.08h0a.11.11,0,0,1,0,.08c-.06.2-.13.4-.2.59v.11a.24.24,0,0,1-.31.14h0v-.1a.15.15,0,0,0,.18-.11.24.24,0,0,0,0-.12l-.21-.52A.31.31,0,0,1,48.29,26.83Z"/><path class="cls-18" d="M49.29,28.69l.11-.07a.2.2,0,0,1,.27,0,.18.18,0,0,1,0,.12v.45c0,.15,0,0-.05,0s-.09,0-.09-.08v-.4a.09.09,0,0,0-.11-.07.15.15,0,0,0-.15.15h0v.33c0,.11,0,.06-.08.06s-.07,0-.07-.06v-.6h.09a.08.08,0,0,0,0,.11Z"/><path class="cls-18" d="M28,38.22v-.37s0-.06.05-.06h.41s.06,0,0,.06,0,.06-.06.06h-.26s-.07,0-.05.06a1.2,1.2,0,0,1,0,.19c0,.05.12,0,.18,0h.08s0,0,0,.07,0,0,0,0h-.22a.06.06,0,0,0-.06.07v.23c0,.08,0,.08-.07.08s-.07,0-.07-.08Z"/><path class="cls-18" d="M43.63,27.38a.25.25,0,0,1-.18.1.17.17,0,0,1-.21-.12v0a.21.21,0,0,1,0-.11V26.9c0-.09,0-.09.07-.09s.07,0,.07.09v.33c0,.1,0,.13.11.13a.14.14,0,0,0,.15-.13v-.34c0-.11,0-.08.07-.08s.07,0,.07.07v.59h-.09A.09.09,0,0,0,43.63,27.38Z"/><path class="cls-17" d="M36.84,24.32l.13-.41c0-.11,0-.11.16-.1v.05l-.23.64a.31.31,0,0,1-.08.15.2.2,0,0,1-.21.09h0c.07,0,0-.08.07-.08s.11,0,.13-.11a.11.11,0,0,0,0-.11l-.2-.54h0a.12.12,0,0,1,.11.07C36.75,24,36.79,24.16,36.84,24.32Z"/><path class="cls-17" d="M32.68,37.79h.07c.11,0,.09,0,.13.08s.09.21.13.31h0l.13-.31c0-.12,0-.12.19-.1s0,0,0,.08-.07.13-.1.19a.76.76,0,0,0-.12.53v.07H33v0a.49.49,0,0,1,0-.17.8.8,0,0,0,0-.21A1.6,1.6,0,0,1,32.68,37.79Z"/><path class="cls-18" d="M30.46,38.32V38c0-.13,0-.11-.11-.11h-.1c-.06,0-.05,0-.05-.07s0-.05.05-.05h.57v.06c0,.06,0,.06-.05.06h-.21v.66a0,0,0,0,1,0,0c-.06,0-.08,0-.08-.08Z"/><path class="cls-18" d="M33.65,21.72h.1a.11.11,0,0,1,.09.05L34,22a.5.5,0,0,0,0-.13.12.12,0,0,1,.14-.11h0a.56.56,0,0,1-.09.17.21.21,0,0,0,0,.31h0a1.19,1.19,0,0,1,.09.15H34.1a.09.09,0,0,1-.1,0,1.13,1.13,0,0,0-.12-.21c0,.06-.06.11-.08.16s-.06.11-.19.09a2.26,2.26,0,0,1,.16-.26.14.14,0,0,0,0-.15C33.72,21.9,33.69,21.81,33.65,21.72Z"/><path class="cls-18" d="M33.66,23.82h.18A.72.72,0,0,0,34,24a.54.54,0,0,0,.07-.13c.06-.11.06-.11.2-.1a2.26,2.26,0,0,1-.16.26.1.1,0,0,0,0,.13h0a1.17,1.17,0,0,1,.16.25c.05.08-.06,0-.09,0h-.08a.63.63,0,0,0-.13-.2l-.08.15c-.06.1-.06.1-.19.09a1.35,1.35,0,0,1,.15-.26.1.1,0,0,0,0-.16Z"/><path class="cls-18" d="M44.29,26.81h.07a0,0,0,0,1,0,.05c0,.05,0,.06-.06.06s-.07,0-.07.08v.41c0,.06,0,.06-.07.06s-.07,0-.07-.06v-.49h0v-.06s.06,0,.06-.08v-.07a.22.22,0,0,1,.25-.17h0v.06h0a.1.1,0,0,0-.1.08A.19.19,0,0,0,44.29,26.81Z"/><path class="cls-18" d="M36.22,38.23v-.38c0-.13,0-.06.09-.06s.07,0,.07.06v.6c0,.2,0,.1.09.1a.89.89,0,0,0,.23,0c.06,0,.06,0,.06.07s0,.05-.06.05h-.41s-.07,0-.07-.06Z"/><path class="cls-18" d="M36.93,38.14h-.07V38s.07,0,.07-.08h0a.08.08,0,0,1,.08-.07h0V38s.07,0,.11,0,0,0,0,.06,0,.06,0,.06H37s0,.08,0,.12v.2c0,.09,0,.11.12.11s.05,0,.06.06h0A.19.19,0,0,1,37,38.5a.29.29,0,0,1,0-.09Z"/><path class="cls-18" d="M24.29,24.13V24s0-.1-.07-.09,0,0,0-.07h0a.07.07,0,0,0,.07-.07v-.05c0-.06.05-.08.11-.06h0v0c0,.09,0,.09.11.1s.08,0,.06.07,0,0,0,0h-.11s0,.08,0,.13v.19c0,.1,0,.12.12.11s.05,0,.06,0v0h0c-.15,0-.3,0-.3-.2v-.05Z"/><path class="cls-18" d="M46.4,26.81h.11c.05,0,.06,0,.06.07h-.11s0,.09,0,.13v.2c0,.09,0,.12.12.11s0,0,.06.05,0,0,0,.06-.28,0-.28-.21v-.28s0-.08-.06-.07,0,0,0-.05v-.05s.08,0,.08-.09v-.06c0-.05,0,0,.08,0s0,0,0,.05Z"/><path class="cls-18" d="M50.06,26.87,50,27h0a.2.2,0,0,0-.27.06l0,.09v.13a.18.18,0,0,0,.2.14.19.19,0,0,0,.1-.05h.08a.06.06,0,0,1,0,.07h0a.29.29,0,0,1-.47-.17.37.37,0,0,1,0-.29.31.31,0,0,1,.44-.07Z"/><path class="cls-18" d="M50.79,26.87v.05h-.07a.18.18,0,0,0-.24,0,.12.12,0,0,0,0,.1.24.24,0,0,0,.17.28.2.2,0,0,0,.11,0h.07c.07,0,0,.06,0,.09a.31.31,0,0,1-.42-.09.21.21,0,0,1,0-.11.33.33,0,0,1,.18-.43l.13,0A.33.33,0,0,1,50.79,26.87Z"/><path class="cls-18" d="M37.88,21.78v.06c0,.06,0,0-.07,0a.18.18,0,0,0-.24.06l0,.08v.11a.18.18,0,0,0,.28.15c.14-.07,0,0,.07,0s0,.06,0,.09a.3.3,0,0,1-.41-.08.54.54,0,0,1,0-.11.45.45,0,0,1,0-.28.31.31,0,0,1,.42-.1Z"/><path class="cls-18" d="M45.9,27.32c.07.07.09.09,0,.14a.32.32,0,0,1-.41-.15.14.14,0,0,0,0-.06.57.57,0,0,1,0-.26.31.31,0,0,1,.39-.18l.09.06v.06h-.06a.18.18,0,0,0-.24.06l0,.08a.24.24,0,0,0,0,.12.18.18,0,0,0,.19.17.12.12,0,0,0,.09,0Z"/><path class="cls-20" d="M37.5,23.51a.17.17,0,0,1,0,.1v.76a.07.07,0,0,1,0,.09h-.07a.13.13,0,0,1-.13-.1v-.78c0-.09,0-.09.09-.09Z"/><path class="cls-21" d="M24,22.38c-.15,0-.21,0-.21-.16V21.5a.08.08,0,0,1,.06-.09h.06v.82S24,22.32,24,22.38Z"/><path class="cls-19" d="M47.84,26.91c.06-.07.11-.12.18-.11h.07s0,.09-.07.09a.18.18,0,0,0-.18.16v.33c0,.06,0,.06-.07.06s-.07,0-.07-.06v-.6s.09,0,.09.06S47.84,26.89,47.84,26.91Z"/><path class="cls-22" d="M48.54,28.93a1,1,0,0,1,0-.25c0-.07,0-.07.07-.07s.06,0,.06.07v.53q0,.08-.06.06c-.07,0-.07,0-.07-.07A1.22,1.22,0,0,1,48.54,28.93Z"/><path class="cls-21" d="M44.36,28.94a1.31,1.31,0,0,0,0,.28c0,.06,0,.05-.09.05s-.07,0-.07-.05a2.62,2.62,0,0,0,0-.56c0-.06,0-.05.07-.05s.09,0,.09.05A1.31,1.31,0,0,0,44.36,28.94Z"/><path class="cls-23" d="M22.13,24.14v-.28c0-.06,0-.05.07-.05s.07,0,.07.05v.55c0,.05,0,.06-.07.06s-.08,0-.07-.06Z"/><path class="cls-22" d="M35.9,38.69h0a.1.1,0,0,1-.06-.1.07.07,0,0,1,.06-.07.09.09,0,0,1,.12,0,.17.17,0,0,1,0,.1.29.29,0,0,1-.14.25h-.07c-.07,0,0,0,0-.08S35.88,38.76,35.9,38.69Z"/><path class="cls-24" d="M36,26.78c.06.06,0,.09,0,.14-.17-.18-.32-.38-.5-.56a.09.09,0,0,1,0-.1l.52.59S35.93,26.8,36,26.78Z"/><path class="cls-25" d="M34.45,24.38a.09.09,0,0,1,.09-.09h0c.06,0,.09,0,.09.1a.1.1,0,0,1-.09.09.1.1,0,0,1-.1-.09Z"/><path class="cls-26" d="M40.34,24.38a.1.1,0,0,1,.09-.09h0c.07,0,.1,0,.1.1a.09.09,0,0,1-.1.09.1.1,0,0,1-.09-.09Z"/><path class="cls-27" d="M39.18,22.32a.09.09,0,0,1-.07.1h0c-.05,0-.09,0-.09-.09a.1.1,0,0,1,.06-.13.1.1,0,0,1,.12.07.06.06,0,0,1,0,.06Z"/><path class="cls-27" d="M40.43,23.81a.1.1,0,0,1,.1.1c0,.05,0,.09-.09.1a.1.1,0,0,1-.1-.08v0A.13.13,0,0,1,40.43,23.81Z"/><path class="cls-28" d="M24.44,21.83a.09.09,0,0,1-.09.09h0a.09.09,0,0,1-.09-.09h0a.08.08,0,0,1,.07-.1h0a.1.1,0,0,1,.09.09Z"/><path class="cls-27" d="M25,23.91A.09.09,0,0,1,25,24h0a.1.1,0,0,1-.09-.09h0a.12.12,0,0,1,.09-.11h0C25,23.82,25.05,23.86,25,23.91Z"/><path class="cls-29" d="M34.45,22.32a.09.09,0,0,1,.09-.09h0a.09.09,0,0,1,.09.1c0,.06,0,.1-.09.09A.09.09,0,0,1,34.45,22.32Z"/><path class="cls-27" d="M24.34,22.39a.09.09,0,0,1-.09-.09h0a.08.08,0,0,1,.07-.1h0a.11.11,0,0,1,.09.1S24.38,22.4,24.34,22.39Z"/><path class="cls-29" d="M35.58,38.59a.11.11,0,0,1-.08.1h0a.1.1,0,0,1-.1-.09c0-.06,0-.1.1-.11A.11.11,0,0,1,35.58,38.59Z"/><path class="cls-27" d="M25,24.48a.11.11,0,0,1-.1-.09s.05-.08.09-.07h0a.07.07,0,0,1,.09.06,0,0,0,0,1,0,0A.42.42,0,0,0,25,24.48Z"/><path class="cls-20" d="M42.9,27.39a.08.08,0,0,1-.08.09h0a.07.07,0,0,1-.09-.07s0,0,0,0a.08.08,0,0,1,.07-.1h0C42.87,27.3,42.91,27.34,42.9,27.39Z"/><path class="cls-27" d="M38.27,38.69a.11.11,0,0,1-.09-.1.12.12,0,0,1,.1-.1.11.11,0,0,1,.1.11h0A.09.09,0,0,1,38.27,38.69Z"/><path class="cls-22" d="M39.18,21.82a.09.09,0,0,1-.07.1h0c-.05,0-.09,0-.09-.09a.1.1,0,0,1,.06-.13.1.1,0,0,1,.12.07.06.06,0,0,1,0,.06Z"/><path class="cls-21" d="M49.27,27.39c0,.06,0,.1-.09.09a.07.07,0,0,1-.09-.07s0,0,0,0a.08.08,0,0,1,.07-.1h0a.11.11,0,0,1,.09.1Z"/><path class="cls-30" d="M48.68,28.4a.08.08,0,0,1-.06.09h0a.11.11,0,0,1-.1-.08c0-.05,0-.08.09-.09a.07.07,0,0,1,.09.07Z"/><path class="cls-31" d="M44.38,28.4c0,.05,0,.09-.09.09a.09.09,0,0,1-.09-.08h0c0-.05,0-.08.09-.09A.09.09,0,0,1,44.38,28.4Z"/><path class="cls-28" d="M22.2,23.52a.07.07,0,0,1,.09.07h0a.09.09,0,0,1-.09.09h0c-.05,0-.09,0-.09-.09a.09.09,0,0,1,.08-.08Z"/><path class="cls-32" d="M32.41,23.91v-.05h0V24S32.45,23.93,32.41,23.91Z"/><path class="cls-33" d="M31.94,24.46a4.69,4.69,0,0,0,0-.53v-.12a.17.17,0,0,1,0,.1v.48C31.94,24.52,32,24.45,31.94,24.46Z"/><path class="cls-34" d="M40,28.72a.14.14,0,0,1,0-.09v.17S40,28.74,40,28.72Z"/><path class="cls-35" d="M20.78,21.78a.09.09,0,0,1,0-.07.49.49,0,0,1,0,.17S20.8,21.8,20.78,21.78Z"/><path class="cls-36" d="M20.29,21.86a.22.22,0,0,1,0-.16.11.11,0,0,1,0,.08A.2.2,0,0,1,20.29,21.86Z"/><path class="cls-37" d="M37,26.66a.13.13,0,0,1-.07.06h0l.07-.08Z"/><path class="cls-38" d="M31.94,21.79a.09.09,0,0,1,0-.1v0C31.94,21.79,32,21.78,31.94,21.79Z"/><path class="cls-39" d="M32.43,21.74v0a.07.07,0,0,1,0,.1S32.47,21.75,32.43,21.74Z"/><path class="cls-40" d="M41.88,27.26a0,0,0,0,1,0,.07Z"/><path class="cls-40" d="M39.61,27.32h0a.11.11,0,0,1,0-.08Z"/><path class="cls-41" d="M20.37,24.21v0Z"/><path class="cls-42" d="M31.43,27.12c.16,0,.14,0,.13.15s0,.55,0,.83c0,.08,0,.08-.08.08h0c-.08,0-.08,0-.08-.09l-.06-.87h0c0-.07,0-.07.06-.07Z"/><path class="cls-43" d="M31.43,28.26a.18.18,0,0,1,.17.17h0a.2.2,0,0,1-.2.18.2.2,0,0,1-.17-.2A.19.19,0,0,1,31.43,28.26Z"/><path class="cls-44" d="M26.87,27.44l-.32-.39c-.05-.07-.09-.07-.15,0l-.23.29a2.75,2.75,0,0,0-.19.28.69.69,0,0,0,0,.45v.09l-.23.19a.94.94,0,0,1-.21-.68,1,1,0,0,1,1.78-.6c.05.05,0,.05,0,.09Z"/><path class="cls-44" d="M27.38,27.32a1,1,0,0,1-.31,1.27,1,1,0,0,1-1.27-.07c.07-.07.15-.12.22-.18s0,0,.07,0a.6.6,0,0,0,.26.14A.58.58,0,0,0,27,28a.53.53,0,0,0,0-.25v-.25Z"/><path class="cls-44" d="M26.78,27.51l-.71.54a.26.26,0,0,1,0-.24.66.66,0,0,1,.12-.27,2.31,2.31,0,0,1,.31-.39A2.14,2.14,0,0,0,26.78,27.51Z"/><path class="cls-42" d="M26.15,28.2l.71-.52a.44.44,0,0,1-.11.58A.43.43,0,0,1,26.15,28.2Z"/><path class="cls-44" d="M29.35,18.89h0v-.16s.11,0,.16,0h.12a.15.15,0,0,1,.15.17.2.2,0,0,1-.12.22.22.22,0,0,1-.16,0h-.16s0-.1,0-.16Z"/><path class="cls-44" d="M27.59,19.15a.66.66,0,0,1,0-.28.33.33,0,0,1,.3-.2.3.3,0,0,1,.29.21.8.8,0,0,1,0,.57.29.29,0,0,1-.28.19.35.35,0,0,1-.3-.19A.61.61,0,0,1,27.59,19.15Z"/><path class="cls-43" d="M34.29,18.69l.16.59h-.32l.15-.58Z"/><path class="cls-43" d="M23.59,18.74l.13.53a1.82,1.82,0,0,1-.33,0l.15-.56Z"/><path class="cls-40" d="M23.59,18.74Z"/><path class="cls-42" d="M39.7,19.41a.49.49,0,0,1,0,.17.17.17,0,0,1-.24,0,.08.08,0,0,1,0,0,.43.43,0,0,1-.11-.28v-.06a.24.24,0,0,1,.27-.09A.22.22,0,0,1,39.7,19.41Z"/><path class="cls-42" d="M36.58,27.12a1.12,1.12,0,0,0-.18.2h-.06L36,27a.06.06,0,0,1,0-.06.49.49,0,0,1,0-.17v0h.7v.22c0,.05-.06.08-.1.12h0c-.1-.08-.22,0-.33,0s0,0,0,.07v.07h.25Z"/><path class="cls-42" d="M36.36,27.43l.3.34v.1a.21.21,0,0,0-.1.14h-.38s-.07,0-.07-.06v-.06a.33.33,0,0,1,.12-.36Z"/><path class="cls-43" d="M36.4,27.39l.35-.38h0l-.07.71Z"/><path class="cls-45" d="M36.34,27.39l-.25.27a2.94,2.94,0,0,1-.05-.59A3.06,3.06,0,0,1,36.34,27.39Z"/><path class="cls-46" d="M36.77,26.62h-.59v-.06s.1-.06.12,0h.44Z"/><path class="cls-47" d="M36.9,26.7h0s0,.06-.09.06S36.83,26.69,36.9,26.7Z"/><path class="cls-48" d="M36.9,26.85c0,.09,0,.09-.06.09A.15.15,0,0,1,36.9,26.85Z"/><path class="cls-49" d="M36.66,28.1c0-.1,0-.16.09-.16h0a.09.09,0,0,0,0,.07h0Z"/><path class="cls-50" d="M36.79,28.06c0,.07,0,.07-.13,0h.09S36.79,28,36.79,28.06Z"/><path class="cls-51" d="M36.34,26.49h.18A.28.28,0,0,1,36.34,26.49Z"/><path class="cls-52" d="M36.79,28.06Z"/><path class="cls-53" d="M36.79,28Z"/><path class="cls-45" d="M22.86,24.49H23a.14.14,0,0,1,0,.09.31.31,0,0,1-.32,0,.07.07,0,0,1,0-.1.05.05,0,0,1,.06-.05h0Z"/><path class="cls-54" d="M22.82,23.89A.12.12,0,0,1,23,24a0,0,0,0,1,0,0,.12.12,0,0,1-.11.14h0A.13.13,0,0,1,22.7,24h0a.14.14,0,0,1,.12-.14Z"/><path class="cls-42" d="M31.61,38.23a.67.67,0,0,1,0,.2.24.24,0,0,1-.21.14.21.21,0,0,1-.19-.13.51.51,0,0,1,0-.42.19.19,0,0,1,.19-.12.24.24,0,0,1,.21.12A.74.74,0,0,1,31.61,38.23Z"/><path class="cls-43" d="M35.09,21.76h0c0-.15,0-.15.16-.14h0a.11.11,0,0,1,.11.11.13.13,0,0,1-.09.16.34.34,0,0,1-.2,0h0v-.11Z"/><path class="cls-45" d="M32.27,37.91h.06a.11.11,0,0,1,.12.12.15.15,0,0,1-.1.16.6.6,0,0,1-.19,0h0V38h0Z"/><path class="cls-42" d="M37.81,38.32v.09a.14.14,0,0,1-.27.07.36.36,0,0,1,0-.32.16.16,0,0,1,.23,0h0v.06Z"/><path class="cls-42" d="M22.53,22.05v.08a.12.12,0,0,1-.1.14h0a.14.14,0,0,1-.17-.06.31.31,0,0,1,0-.32c0-.09.14-.09.24,0V22Z"/><path class="cls-42" d="M42.06,28.93V29a.11.11,0,0,1-.09.14h0a.11.11,0,0,1-.15-.06h0a.37.37,0,0,1,0-.29.16.16,0,0,1,.2-.08l0,0a.06.06,0,0,1,0,.06Z"/><path class="cls-42" d="M39.9,24.12v.1a.12.12,0,0,1-.1.14h0a.13.13,0,0,1-.16-.06.29.29,0,0,1,0-.33.17.17,0,0,1,.23,0V24Z"/><path class="cls-55" d="M29.07,38.32h-.22l.12-.4Z"/><path class="cls-45" d="M35.09,23.88c0-.17,0-.17.16-.15s.16.05.16.14a.14.14,0,0,1-.12.17h0C35.11,24.07,35.09,24.06,35.09,23.88Z"/><path class="cls-42" d="M21.7,22.05a.33.33,0,0,1,0,.14.15.15,0,0,1-.14.09.12.12,0,0,1-.13-.09.34.34,0,0,1,0-.28.13.13,0,0,1,.14-.09.18.18,0,0,1,.14.09A.66.66,0,0,1,21.7,22.05Z"/><path class="cls-42" d="M47.25,27.13a.22.22,0,0,1,0,.16.14.14,0,0,1-.19.08.1.1,0,0,1-.06-.05A.31.31,0,0,1,47,27a.14.14,0,0,1,.2,0l0,0A.29.29,0,0,1,47.25,27.13Z"/><path class="cls-43" d="M35.08,38.32a.49.49,0,0,1,0,.17.15.15,0,0,1-.21,0l0,0a.29.29,0,0,1,0-.31.15.15,0,0,1,.2-.06l.06.06A.66.66,0,0,1,35.08,38.32Z"/><path class="cls-43" d="M38.27,24.13a.15.15,0,0,1,0,.16.15.15,0,0,1-.18.11.12.12,0,0,1-.09-.08A.29.29,0,0,1,38,24a.15.15,0,0,1,.2-.06l0,.06A.17.17,0,0,1,38.27,24.13Z"/><path class="cls-56" d="M39,24.13v.08a.16.16,0,0,1-.14.16h0a.09.09,0,0,1-.09-.06.08.08,0,0,1,0-.11h.08Z"/><path class="cls-54" d="M36.15,24.14v.08a.15.15,0,0,1-.13.15h0a.08.08,0,0,1-.1-.06.13.13,0,0,1,0-.12H36Z"/><path class="cls-55" d="M33.27,24.14v.08a.14.14,0,0,1-.12.15h0s-.09,0-.11-.06a.13.13,0,0,1,0-.12h.11Z"/><path class="cls-57" d="M41,28.94V29a.13.13,0,0,1-.11.15h0c-.07,0-.11,0-.13-.05a.11.11,0,0,1,.06-.13A.38.38,0,0,1,41,28.94Z"/><path class="cls-57" d="M33.27,22.05v.08a.15.15,0,0,1-.13.15h0c-.07,0-.1,0-.11-.06a.08.08,0,0,1,0-.11A.36.36,0,0,1,33.27,22.05Z"/><path class="cls-54" d="M37,22.05v.07a.16.16,0,0,1-.14.16h0a.08.08,0,0,1-.1-.05.09.09,0,0,1,0-.12A.38.38,0,0,1,37,22.05Z"/><path class="cls-54" d="M50.54,28.94V29a.13.13,0,0,1-.11.15h0a.09.09,0,0,1-.11-.05.09.09,0,0,1,.05-.12A.34.34,0,0,1,50.54,28.94Z"/><path class="cls-56" d="M45,27.14v.08a.13.13,0,0,1-.11.15h0c-.07,0-.1,0-.11-.06s0-.08,0-.11A.51.51,0,0,1,45,27.14Z"/><path class="cls-58" d="M23.1,22a.15.15,0,0,1,.17-.17c.1,0,.12.07.12.18h-.22S23.12,22,23.1,22Z"/><path class="cls-45" d="M21.75,24.07h-.31a.15.15,0,0,1,.17-.17C21.7,23.91,21.72,24,21.75,24.07Z"/><path class="cls-58" d="M36.22,22h-.29a.17.17,0,0,1,.14-.18h0C36.18,21.81,36.22,21.87,36.22,22Z"/><path class="cls-57" d="M43.11,28.87h-.3A.16.16,0,0,1,43,28.7.19.19,0,0,1,43.11,28.87Z"/><path class="cls-59" d="M26.84,27.82a.23.23,0,0,1,0,.2A.15.15,0,0,1,26.84,27.82Z"/><path class="cls-60" d="M36.77,28h0s0,.08-.1.05h0v-.1h.06Z"/><rect class="cls-61" x="18.07" y="17" width="35.6" height="22.62" rx="1.8"/><text class="cls-62" transform="translate(24.75 22.4)">xxxxx</text><text class="cls-62" transform="translate(25.56 24.49)">xxxx</text><text class="cls-62" transform="translate(39.41 22.4)">xxxxxx</text><text class="cls-62" transform="translate(41.27 24.49)">xxxx</text><path d="M47,18.94h-.07v.38a.06.06,0,0,1-.06.05h-.22V19h-.1v.42a.11.11,0,0,0,.08,0h.27a.14.14,0,0,0,.09,0,.28.28,0,0,0,0-.09v-.38Z"/><path d="M47.47,19.14h-.18V19h.33m0-.05H47.2v.47h.09v-.18h.23s0-.12-.05-.12Z"/><path d="M47.9,18.94h-.07l-.24.47h.09v-.1H48v.08h.11L47.88,19Zm0,.28h-.14l.08-.16h0l.06.12s0,0,0,0Z"/><path d="M48.63,18.94h-.35v.38a.07.07,0,0,0,0,.09h.33a.11.11,0,0,0,.08,0v-.19H48.6v.1m0,.05h-.22v-.3h.22m0,.05h.07V19a.25.25,0,0,0,0-.09Z"/><path d="M49.27,18.94h-.43V19H49v.39h.09V19h.2Z"/><path d="M49.84,18.94h-.41v.11h0v.36a.14.14,0,0,0,.09,0h.4a.24.24,0,0,0,.08-.09V19Zm0,.38h-.27V19h.27a0,0,0,0,1,0,.05Z"/><path d="M50.49,18.94h-.36v.47h.09v-.18h.05l.18.18h.13l-.18-.18h.16V19Zm0,.17h-.26V19h.26Z"/><path d="M51.09,18.94l-.16.17L50.81,19h-.16l.23.26v.21H51v-.21l.22-.26Z"/><path d="M46.09,18.48l-1-.55H45l-1,.55a.15.15,0,0,0-.06.11V19.7a.15.15,0,0,0,.06.11l1,.56h.14l1-.56a.15.15,0,0,0,.06-.11V18.59A.15.15,0,0,0,46.09,18.48Zm0,1.22h0l-1,.56h0l-1-.56h0V18.57l1-.56h0l1,.56h0Z"/><path d="M45.81,18.64l-.7-.41a.11.11,0,0,0-.11,0l-.71.41a.17.17,0,0,0-.06.1v.81a.24.24,0,0,0,.06.11l.71.4a.11.11,0,0,0,.11,0l.7-.4a.19.19,0,0,0,.07-.11v-.81A.14.14,0,0,0,45.81,18.64Zm-.75.71a.1.1,0,0,1-.09.09h-.41m-.05-.05v-.5h.11v.43h.26a.06.06,0,0,0,.09,0l0,0v-.39h0Zm1.14-.4h-.36v.14h.25m.05.05v.05h-.31v.21h-.12v-.55h.43v.29Z"/><rect x="19.94" y="30.92" width="0.71" height="3.36"/><rect x="37.18" y="30.92" width="0.38" height="3.36"/><rect x="21.3" y="30.92" width="0.1" height="3.36"/><rect x="20.82" y="30.92" width="0.29" height="3.36"/><rect x="22.37" y="30.92" width="0.1" height="3.36"/><rect x="21.75" y="30.92" width="0.29" height="3.36"/><rect x="24.52" y="30.92" width="0.1" height="3.36"/><rect x="23.35" y="30.92" width="0.29" height="3.36"/><rect x="26.64" y="30.92" width="0.1" height="3.36"/><rect x="25.47" y="30.92" width="0.29" height="3.36"/><rect x="28.78" y="30.92" width="0.1" height="3.36"/><rect x="27.62" y="30.92" width="0.29" height="3.36"/><rect x="30.92" y="30.92" width="0.1" height="3.36"/><rect x="29.75" y="30.92" width="0.29" height="3.36"/><rect x="33.04" y="30.92" width="0.1" height="3.36"/><rect x="31.88" y="30.92" width="0.29" height="3.36"/><rect x="34.11" y="30.92" width="0.1" height="3.36"/><rect x="36.25" y="30.92" width="0.1" height="3.36"/><rect x="35.09" y="30.92" width="0.29" height="3.36"/><rect x="45.31" y="30.92" width="0.1" height="3.36"/><rect x="44.68" y="30.92" width="0.29" height="3.36"/><rect x="46.38" y="30.92" width="0.1" height="3.36"/><rect x="45.75" y="30.92" width="0.29" height="3.36"/><rect x="47.45" y="30.92" width="0.1" height="3.36"/><rect x="46.81" y="30.92" width="0.29" height="3.36"/><rect x="48.52" y="30.92" width="0.1" height="3.36"/><rect x="47.88" y="30.92" width="0.29" height="3.36"/><rect x="49.59" y="30.92" width="0.1" height="3.36"/><rect x="48.95" y="30.92" width="0.29" height="3.36"/><rect x="50.65" y="30.92" width="0.1" height="3.36"/><rect x="50.02" y="30.92" width="0.29" height="3.36"/><rect x="51.18" y="30.92" width="0.1" height="3.36"/><rect x="51.61" y="30.92" width="0.29" height="3.36"/><rect x="39.45" y="30.92" width="0.1" height="3.36"/><rect x="38.13" y="30.92" width="0.61" height="3.36"/><rect x="41.59" y="30.92" width="0.1" height="3.36"/><rect x="40.41" y="30.92" width="0.29" height="3.36"/><rect x="43.18" y="30.92" width="0.1" height="3.36"/><rect x="42.54" y="30.92" width="0.29" height="3.36"/><rect x="43.72" y="30.92" width="0.1" height="3.36"/><rect x="44.15" y="30.92" width="0.29" height="3.36"/><rect x="28.11" y="30.92" width="0.38" height="3.36"/><rect x="23.97" y="30.92" width="0.1" height="3.36"/><rect x="22.81" y="30.92" width="0.29" height="3.36"/><rect x="25.04" y="30.92" width="0.1" height="3.36"/><rect x="27.18" y="30.92" width="0.1" height="3.36"/><rect x="26.02" y="30.92" width="0.29" height="3.36"/><rect x="38.91" y="30.92" width="0.1" height="3.36"/><rect x="37.75" y="30.92" width="0.29" height="3.36"/><rect x="41.04" y="30.92" width="0.1" height="3.36"/><rect x="39.88" y="30.92" width="0.29" height="3.36"/><rect x="42.02" y="30.92" width="0.29" height="3.36"/><rect x="30.37" y="30.92" width="0.1" height="3.36"/><rect x="29.05" y="30.92" width="0.61" height="3.36"/><rect x="32.52" y="30.92" width="0.1" height="3.36"/><rect x="31.35" y="30.92" width="0.29" height="3.36"/><rect x="34.65" y="30.92" width="0.1" height="3.36"/><rect x="33.49" y="30.92" width="0.29" height="3.36"/><rect x="35.72" y="30.92" width="0.1" height="3.36"/><rect x="36.68" y="30.92" width="0.29" height="3.36"/><text class="cls-63" transform="translate(23.39 36.5)">S/N:XXXXXXXXXXXX</text><path class="cls-64" d="M51.65,37.11H20.2a1,1,0,0,1-1-1V31.32a1,1,0,0,1,1-1H51.65a1,1,0,0,1,1,1V36.1a1,1,0,0,1-1,1Z"/><polyline class="cls-8" points="49.85 35.93 59.84 26.6 59.84 7.24 49.63 7.24"/><g class="cls-4"><text class="cls-5" transform="translate(18.07 8)">SN of the </text><text class="cls-6" transform="translate(31.49 8)">R</text><text class="cls-7" transform="translate(33.28 8)">obotic Arm</text></g></g></g></g></g></svg>