<?xml version="1.0" encoding="utf-8"?>
<!-- Generator: Adobe Illustrator 26.0.1, SVG Export Plug-In . SVG Version: 6.00 Build 0)  -->
<svg version="1.1" id="图层_1" xmlns="http://www.w3.org/2000/svg" xmlns:xlink="http://www.w3.org/1999/xlink" x="0px" y="0px"
	 viewBox="0 0 414.9 362.4" style="enable-background:new 0 0 414.9 362.4;" xml:space="preserve">
<style type="text/css">
	.st0{fill:#CA5729;}
	.st1{enable-background:new    ;}
	.st2{fill:none;stroke:#FFFFFF;stroke-linecap:round;stroke-linejoin:round;}
	.st3{fill:none;stroke:#CA5729;stroke-width:2;stroke-miterlimit:10;}
	.st4{fill:#FFFFFF;}
	.st5{fill:#FFFFFF;stroke:#FFFFFF;stroke-width:0.25;stroke-miterlimit:10;}
	.st6{fill:none;stroke:#CA5729;stroke-width:1.5;stroke-miterlimit:10;}
	.st7{fill:none;stroke:#FFFFFF;stroke-width:1.5;stroke-miterlimit:10;}
</style>
<g>
	<polygon class="st0" points="1083.7,-231.2 1092.7,-236.3 1083.7,-241.6 	"/>
	<polygon class="st0" points="1031.8,-175.9 1037,-166.9 1042.2,-175.9 	"/>
	<g class="st1">
		<path class="st0" d="M1051-170.6l9.7-15h-8.8v-1.9h11.7v1.4l-9.7,15h9.7v1.9H1051C1051-169.3,1051-170.6,1051-170.6z"/>
	</g>
	<g class="st1">
		<path class="st0" d="M1110-233.7l-5-8.9h2.5l2.5,4.7c0.4,0.8,0.8,1.7,1.4,2.6h0.1c0.6-1.1,0.8-1.8,1.3-2.6l2.5-4.7h2.4l-5,9
			l5.4,9.3h-2.5l-2.6-5c-0.4-0.8-1-1.8-1.5-2.9h-0.1c-0.6,1.1-1,2.1-1.5,2.9l-2.6,5h-2.4L1110-233.7z"/>
	</g>
	<g class="st1">
		<path class="st0" d="M1020.5-216.7l-5.6-11.3h2.5l2.4,5.1c0.6,1.4,1.1,2.6,1.8,4h0.1c0.7-1.4,1.3-2.6,1.8-4l2.4-5.1h2.4l-5.6,11.3
			v7.1h-2.4L1020.5-216.7L1020.5-216.7z"/>
	</g>
	<line class="st2" x1="1039.5" y1="-142.4" x2="1334.2" y2="-142.4"/>
	<line class="st2" x1="1108.6" y1="-142.4" x2="1083" y2="-125.3"/>
	<line class="st2" x1="1201.3" y1="-142.4" x2="1175.7" y2="-125.3"/>
	<line class="st2" x1="1325" y1="-142.4" x2="1299.4" y2="-125.3"/>
	<line class="st2" x1="1170.4" y1="-142.4" x2="1144.8" y2="-125.3"/>
	<line class="st2" x1="1046.8" y1="-142.4" x2="1021.2" y2="-125.3"/>
	<line class="st2" x1="1139.5" y1="-142.4" x2="1113.9" y2="-125.3"/>
	<line class="st2" x1="1263.2" y1="-142.4" x2="1237.5" y2="-125.3"/>
	<line class="st2" x1="1232.2" y1="-142.4" x2="1206.6" y2="-125.3"/>
	<line class="st2" x1="1294.1" y1="-142.4" x2="1268.4" y2="-125.3"/>
	<line class="st2" x1="1077.7" y1="-142.4" x2="1052.1" y2="-125.3"/>
	<circle class="st0" cx="1334.2" cy="-143.1" r="8.2"/>
	<line class="st3" x1="1326" y1="-143.1" x2="1225.6" y2="-143.1"/>
	<polygon class="st0" points="1227.7,-150.1 1215.6,-143.1 1227.7,-136.2 	"/>
	<line class="st3" x1="1334.2" y1="-151.3" x2="1334.2" y2="-221.5"/>
	<polygon class="st0" points="1341.1,-219.4 1334.2,-231.4 1327.2,-219.4 	"/>
	<circle class="st0" cx="1369.9" cy="-144.5" r="12.7"/>
	<g class="st1">
		<path class="st4" d="M1364.4-145.1c0-4.7,3.1-7.5,6.7-7.5c1.8,0,3.2,0.8,4.2,1.8l-1.5,1.8c-0.7-0.7-1.5-1.3-2.6-1.3
			c-2.1,0-3.8,1.8-3.8,4.9s1.5,5,3.8,5c1.3,0,2.2-0.6,2.9-1.4l1.5,1.8c-1.1,1.4-2.6,2.1-4.6,2.1
			C1367.3-137.9,1364.4-140.4,1364.4-145.1z"/>
	</g>
	<g class="st1">
		<path class="st0" d="M1327.2-244.6l9.7-15h-8.8v-1.9h11.7v1.4l-9.7,15h9.7v1.9h-12.7V-244.6z"/>
	</g>
	<g class="st1">
		<path class="st0" d="M1207.3-156.9l-5-8.9h2.5l2.5,4.7c0.4,0.8,0.8,1.7,1.4,2.6h0.1c0.6-1.1,0.8-1.8,1.3-2.6l2.5-4.7h2.4l-5,9
			l5.4,9.3h-2.5l-2.6-5c-0.4-0.8-1-1.8-1.5-2.9h-0.1c-0.6,1.1-1,2.1-1.5,2.9l-2.6,5h-2.4L1207.3-156.9z"/>
	</g>
	<g class="st1">
		<path class="st0" d="M1158.6-387.5h-8.5l-2.2,7.1h-2.9l7.8-23.1h3.2l7.8,23.1h-3.1L1158.6-387.5z M1157.7-389.8l-1.1-3.5
			c-0.8-2.6-1.5-5.1-2.4-7.8h-0.1c-0.7,2.6-1.5,5.1-2.2,7.8l-1.1,3.5H1157.7z"/>
		<path class="st0" d="M1166.2-394.9c0-1.3,1-2.2,2.1-2.2s2.1,1,2.1,2.2c0,1.3-1,2.2-2.1,2.2
			C1167.1-392.8,1166.2-393.6,1166.2-394.9z M1166.2-382.2c0-1.3,1-2.2,2.1-2.2s2.1,1,2.1,2.2s-1,2.2-2.1,2.2
			C1167.1-380.1,1166.2-380.9,1166.2-382.2z"/>
	</g>
	<g class="st1">
		<path class="st0" d="M1194.7-385c0-3.8,3.2-5.6,10.4-6.4c0-2.2-0.7-4.3-3.5-4.3c-1.9,0-3.8,1-5.1,1.8l-1.1-1.9
			c1.5-1,4-2.2,6.7-2.2c4.2,0,5.8,2.8,5.8,7v10.4h-2.4l-0.3-2.1h0.1c-1.7,1.4-3.6,2.5-5.7,2.5C1196.8-380.1,1194.7-381.9,1194.7-385
			z M1205.3-384.7v-4.7c-5.7,0.7-7.7,2.1-7.7,4.3c0,1.9,1.3,2.8,3.1,2.8C1202.3-382.3,1203.7-383.2,1205.3-384.7z"/>
		<path class="st0" d="M1211.6-382.5l1.4-1.9c1.5,1.3,3.1,1.9,5,1.9c2.2,0,3.3-1.3,3.3-2.6c0-1.7-1.9-2.5-3.9-3.2
			c-2.4-0.8-5.1-2.1-5.1-4.9c0-2.6,2.2-4.9,5.8-4.9c2.1,0,3.9,0.8,5.3,1.9l-1.4,1.8c-1.3-0.8-2.4-1.5-3.9-1.5
			c-2.1,0-3.1,1.1-3.1,2.5c0,1.7,1.8,2.2,3.8,2.9c2.5,1,5.1,1.9,5.1,5.1c0,2.8-2.2,5-6.3,5C1215.6-380.1,1213.3-381.1,1211.6-382.5z
			"/>
		<path class="st0" d="M1227-389c0-5.6,3.8-9,7.7-9c4.3,0,6.8,3.2,6.8,8.1c0,0.7,0,1.3-0.1,1.7h-11.5c0.1,3.6,2.4,6,5.7,6
			c1.7,0,3.1-0.6,4.3-1.4l1,1.9c-1.5,1-3.3,1.8-5.7,1.8C1230.6-380.1,1227-383.4,1227-389z M1239-390.4c0-3.5-1.5-5.3-4.2-5.3
			c-2.4,0-4.6,1.9-4.9,5.3H1239z"/>
	</g>
	<g class="st1">
		<path class="st0" d="M1258.5-389c0-5.7,3.9-9,8.2-9c2.2,0,3.8,1,5,1.9l-1.5,1.9c-1-1-2.1-1.5-3.5-1.5c-3.1,0-5.3,2.6-5.3,6.5
			s2.1,6.5,5.3,6.5c1.5,0,2.9-0.7,4-1.7l1.3,1.9c-1.5,1.4-3.5,2.2-5.6,2.2C1262-380.1,1258.5-383.3,1258.5-389z"/>
	</g>
	<g class="st1">
		<path class="st0" d="M1273.8-389c0-5.7,3.8-9,7.9-9c4.2,0,7.9,3.3,7.9,9c0,5.7-3.8,8.9-7.9,8.9
			C1277.4-380.1,1273.8-383.3,1273.8-389z M1286.6-389c0-3.9-1.9-6.5-5-6.5c-2.9,0-4.9,2.6-4.9,6.5c0,3.9,1.9,6.5,4.9,6.5
			C1284.6-382.5,1286.6-385.1,1286.6-389z"/>
		<path class="st0" d="M1292.7-389c0-5.7,3.8-9,7.9-9s7.9,3.3,7.9,9c0,5.7-3.8,8.9-7.9,8.9S1292.7-383.3,1292.7-389z M1305.6-389
			c0-3.9-1.9-6.5-5-6.5c-2.9,0-4.9,2.6-4.9,6.5c0,3.9,1.9,6.5,4.9,6.5C1303.7-382.5,1305.6-385.1,1305.6-389z"/>
	</g>
	<g class="st1">
		<path class="st0" d="M1313.2-397.5h2.4l0.3,3.1h0.1c1.3-2.2,2.9-3.6,4.9-3.6c0.7,0,1.3,0.1,1.8,0.4l-0.6,2.5
			c-0.6-0.3-1-0.3-1.7-0.3c-1.4,0-3.2,1-4.3,3.9v11h-2.9V-397.5z"/>
	</g>
	<g class="st1">
		<path class="st0" d="M1323.7-389c0-5.6,3.5-9,7.4-9c1.9,0,3.3,0.7,4.9,1.9l-0.1-2.9v-6.5h2.9v25h-2.5l-0.3-1.9l0,0
			c-1.4,1.3-3.2,2.4-5.1,2.4C1326.5-380.1,1323.7-383.3,1323.7-389z M1335.7-384.8v-8.9c-1.4-1.3-2.8-1.8-4.2-1.8
			c-2.8,0-4.9,2.6-4.9,6.5c0,4.2,1.7,6.5,4.7,6.5C1332.9-382.5,1334.3-383.3,1335.7-384.8z"/>
		<path class="st0" d="M1343.9-402.9c0-1.1,0.8-1.8,1.9-1.8s1.9,0.7,1.9,1.8s-0.8,1.8-1.9,1.8S1343.9-401.8,1343.9-402.9z
			 M1344.5-397.5h2.9v17.1h-2.9V-397.5z"/>
		<path class="st0" d="M1353.1-397.5h2.4l0.3,2.5h0.1c1.7-1.7,3.3-2.9,5.7-2.9c3.6,0,5.1,2.4,5.1,6.7v10.9h-2.9v-10.4
			c0-3.2-1-4.6-3.2-4.6c-1.8,0-2.9,0.8-4.7,2.6v12.4h-2.9L1353.1-397.5L1353.1-397.5z"/>
	</g>
	<g class="st1">
		<path class="st0" d="M1371.2-385c0-3.8,3.2-5.6,10.4-6.4c0-2.2-0.7-4.3-3.5-4.3c-1.9,0-3.8,1-5.1,1.8l-1.1-1.9
			c1.5-1,4-2.2,6.7-2.2c4.2,0,5.8,2.8,5.8,7v10.4h-2.2l-0.3-2.1h-0.1c-1.7,1.4-3.6,2.5-5.7,2.5
			C1373.4-380.1,1371.2-381.9,1371.2-385z M1381.8-384.7v-4.7c-5.7,0.7-7.7,2.1-7.7,4.3c0,1.9,1.3,2.8,3.1,2.8
			C1378.7-382.3,1380.1-383.2,1381.8-384.7z"/>
		<path class="st0" d="M1389.4-385.8v-9.5h-2.5v-2.2l2.6-0.1l0.3-4.7h2.4v4.7h4.6v2.4h-4.6v9.5c0,2.1,0.7,3.3,2.6,3.3
			c0.6,0,1.4-0.3,1.9-0.4l0.6,2.1c-1,0.3-2.1,0.7-3.2,0.7C1390.7-380.1,1389.4-382.3,1389.4-385.8z"/>
	</g>
	<g>
		<g class="st1">
			<path class="st0" d="M1148-358.7h6.8c4.7,0,7.9,1.5,7.9,5.6c0,2.2-1.3,4.3-3.3,5v0.1c2.8,0.6,4.7,2.4,4.7,5.6
				c0,4.6-3.6,6.8-8.8,6.8h-7.4V-358.7L1148-358.7z M1154.3-348.9c3.9,0,5.6-1.5,5.6-3.8c0-2.6-1.8-3.8-5.4-3.8h-3.6v7.5H1154.3z
				 M1155-338.1c3.9,0,6.3-1.4,6.3-4.6c0-2.9-2.2-4.2-6.3-4.2h-4v8.6h4V-338.1z"/>
			<path class="st0" d="M1167.8-350.2c0-1.3,1-2.2,2.1-2.2c1.1,0,2.1,1,2.1,2.2s-1,2.2-2.1,2.2S1167.8-348.9,1167.8-350.2z
				 M1167.8-337.5c0-1.3,1-2.2,2.1-2.2c1.1,0,2.1,1,2.1,2.2s-1,2.2-2.1,2.2C1168.7-335.3,1167.8-336.1,1167.8-337.5z"/>
		</g>
		<g class="st1">
			<path class="st0" d="M1182.1-356.3h-7v-2.5h16.8v2.5h-7v20.6h-2.9V-356.3z"/>
		</g>
		<g class="st1">
			<path class="st0" d="M1193.1-347.3c0-7.5,4.3-12,10.2-12c2.8,0,5,1.4,6.3,2.9l-1.5,1.9c-1.3-1.3-2.8-2.2-4.7-2.2
				c-4.3,0-7.2,3.6-7.2,9.3c0,5.8,2.8,9.5,7.1,9.5c2.2,0,3.9-1,5.3-2.6l1.7,1.8c-1.8,2.1-4,3.3-7.1,3.3
				C1197.4-335.3,1193.1-339.7,1193.1-347.3z"/>
			<path class="st0" d="M1213.5-358.7h6.5c5.1,0,8.6,1.7,8.6,6.8c0,4.9-3.5,7.1-8.5,7.1h-3.8v9.2h-2.9V-358.7z M1219.8-347.3
				c4,0,6-1.5,6-4.7c0-3.3-2.1-4.5-6.1-4.5h-3.3v9.2L1219.8-347.3L1219.8-347.3z"/>
		</g>
		<g class="st1">
			<path class="st0" d="M1236.9-344.2c0-5.7,3.9-9,8.2-9c2.2,0,3.8,1,5,1.9l-1.5,1.9c-1-1-2.1-1.5-3.5-1.5c-3.1,0-5.3,2.6-5.3,6.5
				s2.1,6.5,5.3,6.5c1.5,0,2.9-0.7,4-1.7l1.3,1.9c-1.5,1.4-3.5,2.2-5.6,2.2C1240.4-335.3,1236.9-338.5,1236.9-344.2z"/>
		</g>
		<g class="st1">
			<path class="st0" d="M1251.2-344.2c0-5.7,3.8-9,7.9-9s7.9,3.3,7.9,9c0,5.7-3.8,8.9-7.9,8.9S1251.2-338.5,1251.2-344.2z
				 M1264.2-344.2c0-3.9-1.9-6.5-5-6.5s-4.9,2.6-4.9,6.5s1.9,6.5,4.9,6.5S1264.2-340.3,1264.2-344.2z"/>
			<path class="st0" d="M1269.3-344.2c0-5.7,3.8-9,7.9-9c4.2,0,7.9,3.3,7.9,9c0,5.7-3.8,8.9-7.9,8.9
				C1273.1-335.3,1269.3-338.5,1269.3-344.2z M1282.3-344.2c0-3.9-1.9-6.5-5-6.5c-3.1,0-4.9,2.6-4.9,6.5s1.9,6.5,4.9,6.5
				C1280.2-337.7,1282.3-340.3,1282.3-344.2z"/>
		</g>
		<g class="st1">
			<path class="st0" d="M1288.8-352.8h2.4l0.3,3.1h0.1c1.3-2.2,2.9-3.6,4.9-3.6c0.7,0,1.3,0.1,1.8,0.4l-0.6,2.5
				c-0.6-0.3-1-0.3-1.7-0.3c-1.4,0-3.2,1-4.3,3.9v11h-2.9V-352.8z"/>
		</g>
		<g class="st1">
			<path class="st0" d="M1298.4-344.2c0-5.6,3.5-9,7.4-9c1.9,0,3.3,0.7,4.9,1.9l-0.1-2.9v-6.5h2.9v25h-2.4l-0.3-1.9l0,0
				c-1.4,1.3-3.2,2.4-5.1,2.4C1301.2-335.3,1298.4-338.5,1298.4-344.2z M1310.5-340v-8.9c-1.4-1.3-2.8-1.8-4.2-1.8
				c-2.8,0-4.9,2.6-4.9,6.5c0,4.2,1.7,6.5,4.7,6.5C1307.7-337.7,1309.1-338.5,1310.5-340z"/>
			<path class="st0" d="M1317.8-358.1c0-1.1,0.8-1.8,1.9-1.8s1.9,0.7,1.9,1.8s-0.8,1.8-1.9,1.8
				C1318.6-356.3,1317.8-357,1317.8-358.1z M1318.2-352.8h2.9v17.1h-2.9V-352.8z"/>
			<path class="st0" d="M1326-352.8h2.4l0.3,2.5h0.1c1.7-1.7,3.3-2.9,5.7-2.9c3.6,0,5.1,2.4,5.1,6.7v10.9h-2.9v-10.4
				c0-3.2-1-4.6-3.2-4.6c-1.8,0-2.9,0.8-4.7,2.6v12.4h-2.9L1326-352.8L1326-352.8z"/>
		</g>
		<g class="st1">
			<path class="st0" d="M1343.1-340.2c0-3.8,3.2-5.6,10.4-6.4c0-2.2-0.7-4.3-3.5-4.3c-1.9,0-3.8,1-5.1,1.8l-1.1-1.9
				c1.5-1,4-2.2,6.7-2.2c4.2,0,5.8,2.8,5.8,7v10.4h-2.4l-0.3-2.1h-0.1c-1.7,1.4-3.6,2.5-5.7,2.5
				C1345.3-335.3,1343.1-337.1,1343.1-340.2z M1353.7-339.9v-4.7c-5.7,0.7-7.7,2.1-7.7,4.3c0,1.9,1.3,2.8,3.1,2.8
				C1350.6-337.5,1352-338.4,1353.7-339.9z"/>
			<path class="st0" d="M1360.3-341v-9.5h-2.5v-2.1l2.6-0.1l0.3-4.7h2.4v4.7h4.6v2.4h-4.6v9.5c0,2.1,0.7,3.3,2.6,3.3
				c0.6,0,1.4-0.3,1.9-0.4l0.6,2.1c-1,0.3-2.1,0.7-3.2,0.7C1361.6-335.3,1360.3-337.5,1360.3-341z"/>
		</g>
		<g class="st1">
			<path class="st0" d="M1369.7-344.2c0-5.6,3.8-9,7.7-9c4.3,0,6.8,3.2,6.8,8.1c0,0.7,0,1.3-0.1,1.7h-11.5c0.1,3.6,2.4,6,5.7,6
				c1.7,0,3.1-0.6,4.3-1.4l1,1.9c-1.5,1-3.3,1.8-5.7,1.8C1373.3-335.3,1369.7-338.6,1369.7-344.2z M1381.6-345.6
				c0-3.5-1.5-5.3-4.2-5.3c-2.4,0-4.6,1.9-4.9,5.3H1381.6z"/>
		</g>
	</g>
	<g class="st1">
		<path class="st0" d="M1146.6-302.5c0-7.5,4.3-12,10.2-12c2.8,0,5,1.4,6.3,2.9l-1.5,1.9c-1.3-1.3-2.8-2.2-4.7-2.2
			c-4.3,0-7.2,3.6-7.2,9.3c0,5.8,2.8,9.5,7.1,9.5c2.2,0,3.9-1,5.3-2.6l1.7,1.8c-1.8,2.1-4,3.3-7.1,3.3
			C1150.9-290.5,1146.6-294.9,1146.6-302.5z"/>
		<path class="st0" d="M1167.2-305.4c0-1.3,1-2.2,2.1-2.2s2.1,1,2.1,2.2c0,1.3-1,2.2-2.1,2.2C1168-303.2,1167.2-304.1,1167.2-305.4z
			 M1167.2-292.7c0-1.3,1-2.2,2.1-2.2s2.1,1,2.1,2.2c0,1.3-1,2.2-2.1,2.2C1168-290.5,1167.2-291.3,1167.2-292.7z"/>
		<path class="st0" d="M1195-292.9l1.4-1.9c1.5,1.3,3.1,1.9,5,1.9c2.2,0,3.3-1.3,3.3-2.6c0-1.7-1.9-2.5-3.9-3.2
			c-2.4-0.8-5.1-2.1-5.1-4.9c0-2.6,2.2-4.9,5.8-4.9c2.1,0,3.9,0.8,5.3,1.9l-1.4,1.8c-1.3-0.8-2.4-1.5-3.9-1.5
			c-2.1,0-3.1,1.1-3.1,2.5c0,1.7,1.8,2.2,3.8,2.9c2.5,1,5.1,1.9,5.1,5.1c0,2.8-2.2,5-6.3,5C1199.1-290.5,1196.7-291.5,1195-292.9z"
			/>
		<path class="st0" d="M1210.3-299.4c0-5.6,3.8-9,7.7-9c4.3,0,6.8,3.2,6.8,8.1c0,0.7,0,1.3-0.1,1.7h-11.5c0.1,3.6,2.4,6,5.7,6
			c1.7,0,3.1-0.6,4.3-1.4l1,1.9c-1.5,1-3.3,1.8-5.7,1.8C1214.1-290.5,1210.3-293.8,1210.3-299.4z M1222.3-300.8
			c0-3.5-1.5-5.3-4.2-5.3c-2.4,0-4.6,1.9-4.9,5.3H1222.3z"/>
		<path class="st0" d="M1229.1-308h2.4l0.3,3.1h0.1c1.3-2.2,2.9-3.6,4.9-3.6c0.7,0,1.3,0.1,1.8,0.4l-0.6,2.5c-0.6-0.3-1-0.3-1.7-0.3
			c-1.4,0-3.2,1-4.3,3.9v11h-2.9V-308z"/>
	</g>
	<g class="st1">
		<path class="st0" d="M1245.7-299.4c0-5.7,3.9-9,8.2-9c2.2,0,3.8,1,5,1.9l-1.5,1.9c-1-1-2.1-1.5-3.5-1.5c-3.1,0-5.3,2.6-5.3,6.5
			c0,3.9,2.1,6.5,5.3,6.5c1.5,0,2.9-0.7,4-1.7l1.3,1.9c-1.5,1.4-3.5,2.2-5.6,2.2C1249.2-290.5,1245.7-293.8,1245.7-299.4z"/>
	</g>
	<g class="st1">
		<path class="st0" d="M1260.8-299.4c0-5.7,3.8-9,7.9-9s7.9,3.3,7.9,9s-3.8,8.9-7.9,8.9S1260.8-293.8,1260.8-299.4z M1273.8-299.4
			c0-3.9-1.9-6.5-5-6.5s-4.9,2.6-4.9,6.5s1.9,6.5,4.9,6.5S1273.8-295.5,1273.8-299.4z"/>
		<path class="st0" d="M1279.9-299.4c0-5.7,3.8-9,7.9-9s7.9,3.3,7.9,9s-3.8,8.9-7.9,8.9S1279.9-293.8,1279.9-299.4z M1292.8-299.4
			c0-3.9-1.9-6.5-5-6.5s-4.9,2.6-4.9,6.5s1.9,6.5,4.9,6.5S1292.8-295.5,1292.8-299.4z"/>
	</g>
	<g class="st1">
		<path class="st0" d="M1300.2-308h2.4l0.3,3.1h0.1c1.3-2.2,2.9-3.6,4.9-3.6c0.7,0,1.3,0.1,1.8,0.4l-0.6,2.5c-0.6-0.3-1-0.3-1.7-0.3
			c-1.4,0-3.2,1-4.3,3.9v11h-2.9V-308z"/>
	</g>
	<g class="st1">
		<path class="st0" d="M1310.9-299.4c0-5.6,3.5-9,7.4-9c1.9,0,3.3,0.7,4.9,1.9l-0.1-2.9v-6.5h2.9v25h-2.4l-0.3-1.9l0,0
			c-1.4,1.3-3.2,2.4-5.1,2.4C1313.7-290.5,1310.9-293.7,1310.9-299.4z M1322.9-295.2v-8.9c-1.4-1.3-2.8-1.8-4.2-1.8
			c-2.8,0-4.9,2.6-4.9,6.5c0,4.2,1.7,6.5,4.7,6.5C1320.1-292.9,1321.5-293.7,1322.9-295.2z"/>
		<path class="st0" d="M1331.1-313.3c0-1.1,0.8-1.8,1.9-1.8s1.9,0.7,1.9,1.8s-0.8,1.8-1.9,1.8S1331.1-312.3,1331.1-313.3z
			 M1331.7-308h2.9v17.1h-2.9V-308z"/>
		<path class="st0" d="M1340.3-308h2.4l0.3,2.5h0.1c1.7-1.7,3.3-2.9,5.7-2.9c3.6,0,5.1,2.4,5.1,6.7v10.9h-2.9v-10.4
			c0-3.2-1-4.6-3.2-4.6c-1.8,0-2.9,0.8-4.7,2.6v12.4h-2.9L1340.3-308L1340.3-308z"/>
	</g>
	<g class="st1">
		<path class="st0" d="M1358.4-295.4c0-3.8,3.2-5.6,10.4-6.4c0-2.2-0.7-4.3-3.5-4.3c-1.9,0-3.8,1-5.1,1.8l-1.1-1.9
			c1.5-1,4-2.2,6.7-2.2c4.2,0,5.8,2.8,5.8,7v10.4h-2.4l-0.3-2.1h-0.1c-1.7,1.4-3.6,2.5-5.7,2.5
			C1360.5-290.5,1358.4-292.3,1358.4-295.4z M1369-295.1v-4.7c-5.7,0.7-7.7,2.1-7.7,4.3c0,1.9,1.3,2.8,3.1,2.8
			C1365.9-292.9,1367.3-293.6,1369-295.1z"/>
		<path class="st0" d="M1376.6-296.2v-9.5h-2.5v-2.2l2.6-0.1l0.3-4.7h2.4v4.7h4.6v2.4h-4.6v9.5c0,2.1,0.7,3.3,2.6,3.3
			c0.6,0,1.4-0.3,1.9-0.4l0.6,2.1c-1,0.3-2.1,0.7-3.2,0.7C1377.9-290.5,1376.6-292.7,1376.6-296.2z"/>
	</g>
	<g>
		<path class="st0" d="M1175.3-404.6h7.1c5,0,8.3,1.7,8.3,6c0,2.5-1.3,4.6-3.6,5.3v0.1c3.1,0.6,5,2.5,5,5.8c0,4.7-3.8,7.1-9.2,7.1
			h-7.7V-404.6z M1181.8-394c4.5,0,6.1-1.7,6.1-4.2c0-3.1-2.1-4.2-6-4.2h-3.9v8.3H1181.8z M1182.5-382.3c4.3,0,7-1.5,7-5
			c0-3.2-2.5-4.6-7-4.6h-4.5v9.6L1182.5-382.3L1182.5-382.3z"/>
	</g>
	<g>
		<path class="st0" d="M1175.3-299.8v-14.5h2.8v14.6c0,6,2.6,7.9,5.8,7.9c3.3,0,6-1.8,6-7.9v-14.6h2.6v14.5c0,7.8-3.9,10.3-8.6,10.3
			C1179.2-289.5,1175.3-292,1175.3-299.8z"/>
	</g>
	<g>
		<path class="st5" d="M1069.2-231.4L1069.2-231.4c-0.6,0-0.6,0-0.6-0.6v-21.6c0-0.6,0-0.6,0.6-0.6l0,0c0.6,0,0.6,0,0.6,0.6v21.6
			L1069.2-231.4z"/>
		<path class="st5" d="M1068.1-254.7"/>
		<path class="st5" d="M1069.2-253.6"/>
		<path class="st5" d="M1068.6-251.8v-84.2c0-0.6,0-0.6,0.6-0.6l0,0c0.3,0,0.6,0.3,0.6,0.6l0,0v84.2c0,0.3-0.3,0.6-0.6,0.6
			C1068.6-250.7,1068.6-251.8,1068.6-251.8z"/>
		<g>
			<path class="st5" d="M1008.3-299.7L1008.3-299.7c-0.6,0-0.6,0-0.6-0.6v-35.9c0-0.6,0-0.6,0.6-0.6l0,0c0.6,0,0.6,0,0.6,0.6v35.9
				C1008.9-299.7,1008.9-299.7,1008.3-299.7z"/>
			<path class="st5" d="M1007.7-231.9"/>
			<path class="st5" d="M1007.7-231.4v-70c0-0.6,0-0.6,0.6-0.6l0,0c0.6,0,0.6,0,0.6,0.6v70"/>
			<path class="st5" d="M1018.5-230.2"/>
			<path class="st5" d="M1069.8-336.1h-1.1c0-4.6-6.3-5.1-6.3-5.1h-32.4v-1.1h32.4c0,0,0,0,0,0c3.6-0.5,6.9,2.1,7.4,5.7
				C1069.7-336.5,1069.8-336.3,1069.8-336.1z"/>
			<path class="st5" d="M1008.9-336.1h-1.1v0c0.1-3.6,3.2-6.5,6.8-6.3c0.2,0,0.4,0,0.6,0h32.4v1.1h-32.4
				C1015.1-341.2,1008.9-340.6,1008.9-336.1z"/>
			<rect x="1008.3" y="-255.8" class="st5" width="60.9" height="1.1"/>
			<rect x="1008.3" y="-273.5" class="st5" width="60.9" height="1.1"/>
			<rect x="1007.7" y="-231.9" class="st5" width="61.5" height="1.1"/>
			<rect x="995.2" y="-286" class="st5" width="13.1" height="1.1"/>
			<rect x="1006.6" y="-333.8" class="st5" width="1.7" height="1.1"/>
			<rect x="940.6" y="-446" class="st5" width="70.6" height="1.1"/>
			<rect x="940.6" y="-476.1" class="st5" width="70.6" height="1.1"/>
			<path class="st5" d="M979.8-279.2c-1.5,0.1-3.1-0.1-4.6-0.6c-10.7-1-20.4-6.9-26.2-15.9c-3-5-4.4-10.7-4-16.5v-53.5
				c1.7-15.9-3.4-43.3-4.6-49c-0.5-2.1-0.7-4.2-0.6-6.3v-33.6l0.6-71.2c0.6-13.7,4.6-23.9,12-30.2c6.4-5.7,14.8-8.6,23.3-8
				c12.3,1.2,23.4,7.9,30.2,18.2c3.4,5.7,5.2,12.2,5.1,18.8v71.7l0.6,35.3c0.1,2.1-0.1,4.2-0.6,6.3c-3.4,16.5-4,78.6-4,101.3
				c0.2,3.1-0.2,6.2-1.1,9.1C999.8-282,986.7-279.2,979.8-279.2z M941.1-454.5v33.6c-0.1,2.1,0.1,4.2,0.6,6.3
				c1.1,5.7,6.3,33.6,4.6,49v53.5c-0.4,5.4,1,10.8,4,15.4c5.8,8.5,14.9,14.3,25,15.9c1.1,0,21.1,5.1,29.6-22.2
				c0.9-2.9,1.3-6,1.1-9.1c0-0.6,0-82,4-101.3c0.5-2.1,0.7-4.2,0.6-6.3l-0.6-35.3v-71.7c0.1-6.3-1.7-12.4-5.1-17.6
				c-6.5-10.1-17.1-16.8-29-18.2c-8.1-0.4-16,2.2-22.2,7.4c-8.1,7.7-12.4,18.5-12,29.6L941.1-454.5z"/>
			
				<rect x="924.6" y="-561.4" transform="matrix(0.6644 -0.7473 0.7473 0.6644 714.7493 509.9243)" class="st5" width="1.1" height="41"/>
			
				<rect x="971.3" y="-620" transform="matrix(0.7142 -0.6999 0.6999 0.7142 683.9948 514.3212)" class="st5" width="1.1" height="79.1"/>
			<path class="st5" d="M865.4-409c-21.6,0-33.6-21.1-33.6-21.6c-6.8-10.2-4.6-24.5-2.3-31.9c1.8-7.3,2.7-14.7,2.8-22.2v-29.6
				c0.6-51.2,10.8-64.3,12-66c7.4-21.6,42.1-41.6,42.1-41.6c10.6-9.3,25.7-11.7,38.7-6.3c13.9,5.8,22.5,19.7,21.6,34.7
				c-2.3,25-29,33.6-29.6,33.6c-16.5,6.3-13.7,42.1-13.7,42.7v45c-0.2,3.6,0.2,7.3,1.1,10.8c1.1,5.1,2.3,13.7,2.3,13.7
				c-1.1,37-37.6,38.1-38.1,38.1C867.8-409.1,866.6-408.9,865.4-409z M910.4-629.2c-8.6,0.1-16.9,3.3-23.3,9.1
				c-0.6,0-34.7,19.9-42.1,41.6l0,0c0,0-11.4,12.5-12,64.9v29.6c-0.1,7.5-1.1,14.9-2.8,22.2c-1.7,7.4-4,21.1,2.3,30.7
				c0,0,13.1,22.8,35.9,21.1c1.7,0,35.9-1.1,37-37l0,0c0,0-1.1-8.5-2.3-13.7c-0.9-3.5-1.3-7.2-1.1-10.8v-45
				c0-1.7-2.8-37.6,14.8-43.8c0.6,0,26.2-8,28.5-32.4c1.1-14.4-7.2-28-20.5-33.6C920.1-628.2,915.3-629.2,910.4-629.2z"/>
			<rect x="904.7" y="-442" class="st5" width="1.1" height="74.6"/>
			<rect x="827.3" y="-442" class="st5" width="1.1" height="76.8"/>
			<path class="st5" d="M905.8-146.5v-214.6c-2.3-31.3-36.4-37.6-36.4-37.6c-33,0.6-41,34.2-41,34.2v218h-1.1v-218
				c0-0.6,8-34.7,42.1-35.3c0.6,0,35.3,6.3,37.6,38.7v214.6H905.8z"/>
			<rect x="827.3" y="-266.1" class="st5" width="79.1" height="1.1"/>
			<rect x="827.3" y="-233.1" class="st5" width="79.1" height="1.1"/>
			<path class="st5" d="M919.5-138H814.2v-9.1h105.3V-138z M815.3-139.1h103v-6.8h-103V-139.1z"/>
			<polygon class="st5" points="835.3,-146.5 834.1,-146.5 834.1,-174.4 827.9,-174.4 827.9,-175.6 835.3,-175.6 			"/>
			<polygon class="st5" points="825.6,-147.1 824.4,-147.1 824.4,-177.3 827.3,-177.3 827.3,-176.1 825.6,-176.1 			"/>
			<polygon class="st5" points="825,-148.2 820.5,-148.2 820.5,-173.3 825,-173.3 825,-172.2 821.6,-172.2 821.6,-149.4 825,-149.4 
							"/>
		</g>
	</g>
	<circle class="st0" cx="822" cy="-143.9" r="12.7"/>
	<line class="st6" x1="865.9" y1="-143.2" x2="865.9" y2="-186.8"/>
	<polygon class="st0" points="871.2,-185.3 865.9,-194.4 860.8,-185.3 	"/>
	<line class="st6" x1="870" y1="-138.6" x2="928" y2="-138.6"/>
	<polygon class="st0" points="926.5,-133.4 935.4,-138.7 926.5,-143.9 	"/>
	<g class="st1">
		<path class="st4" d="M823.8-141.1h-4.6l-1,3.6h-2.9l4.6-14.2h3.3l4.6,14.2h-2.9L823.8-141.1z M823.2-143.3l-0.4-1.5
			c-0.4-1.5-0.8-3.1-1.3-4.6h-0.1c-0.4,1.5-0.8,3.2-1.3,4.6l-0.4,1.5H823.2z"/>
	</g>
	<g class="st1">
		<path class="st0" d="M875.4-178.9l9.7-15h-8.8v-1.9h11.7v1.4l-9.7,15h9.7v1.9h-12.7C875.4-177.5,875.4-178.9,875.4-178.9z"/>
	</g>
	<g class="st1">
		<path class="st0" d="M950.3-138.3l-5-8.9h2.5l2.5,4.7c0.4,0.8,0.8,1.7,1.4,2.6h0.1c0.6-1.1,0.8-1.8,1.3-2.6l2.5-4.7h2.4l-5,9
			l5.4,9.3h-2.5l-2.6-5c-0.4-0.8-1-1.8-1.5-2.9h-0.1c-0.6,1.1-1,2.1-1.5,2.9l-2.6,5H945L950.3-138.3z"/>
	</g>
	<g class="st1">
		<path class="st0" d="M864.9-114.2l-5.6-11.3h2.5l2.4,5.1c0.6,1.4,1.1,2.6,1.8,4h0.1c0.7-1.4,1.3-2.6,1.8-4l2.4-5.1h2.4l-5.6,11.3
			v7.1h-2.4L864.9-114.2L864.9-114.2z"/>
	</g>
	<circle class="st3" cx="865.7" cy="-139" r="4.2"/>
	<circle class="st0" cx="1038.5" cy="-273.9" r="12.7"/>
	<g class="st1">
		<path class="st4" d="M1033.7-281.7h4.7c2.9,0,5.1,0.8,5.1,3.5c0,1.3-0.7,2.6-1.9,3.1v0.1c1.5,0.4,2.6,1.4,2.6,3.3
			c0,2.9-2.4,4.2-5.6,4.2h-5.1L1033.7-281.7L1033.7-281.7z M1038.2-275.9c1.8,0,2.6-0.7,2.6-1.8c0-1.3-0.8-1.8-2.5-1.8h-1.7v3.6
			H1038.2z M1038.5-269.6c1.9,0,3.1-0.7,3.1-2.2c0-1.4-1-1.9-3.1-1.9h-1.9v4.2H1038.5z"/>
	</g>
	<line class="st6" x1="1037" y1="-231.6" x2="1037" y2="-174.4"/>
	<line class="st7" x1="1008" y1="-237.3" x2="1069.2" y2="-237.3"/>
	<circle class="st0" cx="1037" cy="-236.3" r="4.7"/>
	<line class="st6" x1="1038.2" y1="-236.3" x2="1085.2" y2="-236.3"/>
</g>
</svg>
