<?xml version="1.0" encoding="utf-8"?>
<!-- Generator: Adobe Illustrator 26.0.1, SVG Export Plug-In . SVG Version: 6.00 Build 0)  -->
<svg version="1.1" id="图层_1" xmlns="http://www.w3.org/2000/svg" xmlns:xlink="http://www.w3.org/1999/xlink" x="0px" y="0px"
	 viewBox="0 0 353.9 90.3" style="enable-background:new 0 0 353.9 90.3;" xml:space="preserve">
<style type="text/css">
	.st0{fill:#E0E0E0;}
	.st1{fill:none;stroke:#040000;stroke-width:0.5;stroke-linecap:round;stroke-linejoin:round;}
	.st2{fill:none;stroke:#000000;stroke-width:0.25;stroke-miterlimit:10;}
	.st3{fill:none;stroke:#000000;stroke-width:0.25;stroke-miterlimit:9.9994;}
	.st4{fill:none;stroke:#000000;stroke-width:0.25;stroke-miterlimit:9.9997;}
	.st5{fill:none;stroke:#040000;stroke-width:0.25;stroke-linecap:round;stroke-linejoin:round;}
</style>
<rect class="st0" width="353.9" height="90.3"/>
<line class="st1" x1="49.1" y1="54.2" x2="94.8" y2="54.2"/>
<line class="st1" x1="211.9" y1="54.2" x2="268.9" y2="54.2"/>
<path d="M63.5,47.6l-1.8-3.1h-1.3v3.1h-0.9v-7.3h2.3c1.5,0,2.6,0.5,2.6,2.1c0,1-0.7,1.9-1.7,2.1l1.9,3.2L63.5,47.6z M60.4,43.7h1.2
	c1.1,0,1.8-0.5,1.8-1.4S62.8,41,61.6,41h-1.2V43.7z"/>
<path d="M65.1,46.6l0.5-0.6c0.5,0.6,1.2,0.9,2,0.9c1,0,1.5-0.5,1.5-1.2s-0.5-1-1.2-1.3l-1.1-0.5c-1.1-0.2-1.7-1.2-1.5-2.3
	s1.2-1.7,2.3-1.5c0,0,0,0,0.1,0l0,0c0.8,0,1.6,0.3,2.2,0.9l-0.6,0.6c-0.5-0.4-1.1-0.7-1.7-0.7c-0.8,0-1.4,0.4-1.4,1.1s0.6,1,1.2,1.2
	l1,0.4c0.9,0.3,1.5,1.1,1.5,2c-0.1,1.2-1.1,2.2-2.4,2.1l0,0h-0.1C66.5,47.7,65.6,47.3,65.1,46.6z"/>
<path d="M75.7,45.5h-1v2h-0.9v-2h-3.1v-0.6l3-4.7h1v4.6h1V45.5z M73.9,44.8v-2.2c0-0.4,0-0.9,0.1-1.3l0,0c-0.2,0.4-0.4,0.7-0.6,1.1
	l-1.7,2.4H73.9z"/>
<path d="M76.6,45.7c0-0.9,0.5-1.6,1.3-2l0,0c-0.6-0.4-1-1-1-1.7c0-1,0.9-1.9,1.9-1.9l0,0h0.1c1-0.1,1.9,0.7,2,1.7V42
	c0,0.7-0.4,1.4-1,1.8l0,0c0.7,0.4,1.2,1.1,1.2,1.9c0,1.1-0.9,1.9-2.3,1.9c-1,0.1-2-0.6-2.2-1.6C76.6,45.9,76.5,45.8,76.6,45.7z
	 M80.4,45.8c0-1-0.9-1.3-1.9-1.8c-0.6,0.4-1,1-1,1.7s0.6,1.3,1.3,1.3H79c0.7,0.1,1.3-0.4,1.4-1.1l0,0V45.8z M80.2,42.1
	c0-0.7-0.5-1.3-1.2-1.3l0,0h-0.1c-0.6,0-1.1,0.5-1.2,1.1V42c0,0.9,0.8,1.3,1.6,1.6C79.8,43.2,80.1,42.7,80.2,42.1z"/>
<path d="M81.8,46.7l0.5-0.6c0.5,0.5,1.1,0.8,1.8,0.8c0.9,0,1.6-0.7,1.6-1.6l0,0v-0.1c0.1-0.9-0.5-1.6-1.4-1.7l0,0h-0.1
	c-0.4,0-0.9,0.1-1.2,0.4l-0.5-0.3l0.2-3.4h3.6V41h-2.8l-0.2,2.1c0.3-0.2,0.7-0.3,1.1-0.3c1.1-0.1,2.1,0.8,2.2,1.9v0.4
	c0,1.3-1,2.4-2.3,2.5h-0.1C83.3,47.7,82.4,47.3,81.8,46.7z"/>
<g>
	<path class="st2" d="M1.4,71.7v-3.8c0-0.1,0-0.1,0.1-0.1l0,0c0.1,0,0.1,0,0.1,0.1v3.8C1.6,71.8,1.6,71.8,1.4,71.7L1.4,71.7
		L1.4,71.7z"/>
	<path class="st2" d="M1.5,68.3c-0.1,0-0.1,0-0.1-0.1V53.4l0,0c0-0.1,0-0.1,0.1-0.1l0,0c0.1,0,0.1,0,0.1,0.1L1.5,68.3
		C1.6,68.2,1.6,68.4,1.5,68.3z"/>
	<g>
		<path class="st2" d="M12.1,59.7v-6.3c0-0.1,0-0.1,0.1-0.1l0,0c0.1,0,0.1,0,0.1,0.1v6.3c0,0.1,0,0.1-0.1,0.1l0,0
			C12.1,59.8,12.1,59.8,12.1,59.7z"/>
		<path class="st2" d="M12.1,71.8V59.5c0-0.1,0-0.1,0.1-0.1l0,0c0.1,0,0.1,0,0.1,0.1v12.3"/>
		<path class="st2" d="M1.4,53.3c0.1-0.6,0.7-1.1,1.3-1l0,0h5.7v0.2H2.7c0,0-1.1,0.1-1.1,0.9H1.4C1.4,53.4,1.4,53.4,1.4,53.3z"/>
		<path class="st2" d="M11,52.5H5.3v-0.2H11h0.1c0.6,0,1.2,0.5,1.2,1.1l0,0h-0.2C12.1,52.6,11,52.5,11,52.5z"/>
		<rect x="1.5" y="67.5" class="st2" width="10.7" height="0.2"/>
		<rect x="1.5" y="64.4" class="st2" width="10.7" height="0.2"/>
		<rect x="1.5" y="71.7" class="st2" width="10.8" height="0.2"/>
		<rect x="12.2" y="62.2" class="st2" width="2.3" height="0.2"/>
		<rect x="12.2" y="53.8" class="st2" width="0.3" height="0.2"/>
		<rect x="11.7" y="34.1" class="st2" width="12.4" height="0.2"/>
		<rect x="11.7" y="28.8" class="st2" width="12.4" height="0.2"/>
		<path class="st2" d="M12.6,59.2c-0.2-0.5-0.2-1.1-0.2-1.6c0-4-0.1-14.9-0.7-17.8c-0.1-0.4-0.1-0.7-0.1-1.1l0.1-6.2V19.9
			c0-1.2,0.3-2.3,0.9-3.3c1.2-1.8,3.1-3,5.3-3.2c1.5-0.1,3,0.4,4.1,1.4c1.3,1.1,2,2.9,2.1,5.3l0.1,12.5v5.9c0,0.4,0,0.7-0.1,1.1
			c-0.2,1-1.1,5.8-0.8,8.6v9.4c0.1,1-0.2,2-0.7,2.9c-1,1.6-2.7,2.6-4.6,2.8c-0.3,0.1-0.5,0.1-0.8,0.1C16,63.4,13.7,62.9,12.6,59.2z
			 M23.9,20.1c0.1-2-0.7-3.9-2.1-5.2c-1.1-0.9-2.5-1.4-3.9-1.3c-2.1,0.2-4,1.4-5.1,3.2c-0.6,0.9-0.9,2-0.9,3.1v12.6l-0.1,6.2
			c0,0.4,0,0.7,0.1,1.1c0.7,3.4,0.7,17.7,0.7,17.8c0,0.5,0,1.1,0.2,1.6c1.5,4.8,5,3.9,5.2,3.9c1.8-0.3,3.4-1.3,4.4-2.8
			c0.5-0.8,0.8-1.7,0.7-2.7v-9.4c-0.3-2.7,0.6-7.6,0.8-8.6c0.1-0.4,0.1-0.7,0.1-1.1v-5.9L23.9,20.1z"/>
		
			<rect x="23.2" y="17.3" transform="matrix(0.7473 -0.6644 0.6644 0.7473 -4.7913 22.2097)" class="st3" width="7.2" height="0.2"/>
		
			<rect x="11.7" y="10.4" transform="matrix(0.6999 -0.7142 0.7142 0.6999 -1.8744 16.478)" class="st4" width="13.9" height="0.2"/>
		<path class="st2" d="M36.7,40.5c-0.1,0-6.5-0.2-6.7-6.7c0,0,0.2-1.5,0.4-2.4c0.2-0.6,0.2-1.3,0.2-1.9v-7.9c0-0.1,0.5-6.4-2.4-7.5
			c-0.1,0-4.8-1.5-5.2-5.9c-0.2-2.6,1.4-5.1,3.8-6.1c2.3-1,4.9-0.5,6.8,1.1c0,0,6.1,3.5,7.4,7.3c0.2,0.3,2,2.6,2.1,11.6v5.2
			c0,1.3,0.2,2.6,0.5,3.9c0.4,1.3,0.8,3.8-0.4,5.6c0,0.1-2.1,3.8-5.9,3.8C37.1,40.6,36.9,40.6,36.7,40.5z M26.9,2.4
			c-2.3,1-3.8,3.4-3.6,5.9c0.4,4.3,4.9,5.7,5,5.7c3.1,1.1,2.6,7.4,2.6,7.7v7.9c0,0.6,0,1.3-0.2,1.9c-0.2,0.9-0.4,2.4-0.4,2.4l0,0
			c0.2,6.3,6.2,6.5,6.5,6.5c4,0.3,6.3-3.7,6.3-3.7c1.1-1.7,0.7-4.1,0.4-5.4S43,28.7,43,27.4v-5.2c-0.1-9.2-2.1-11.4-2.1-11.4l0,0
			c-1.3-3.8-7.3-7.3-7.4-7.3c-1.1-1-2.6-1.6-4.1-1.6C28.6,1.9,27.7,2.1,26.9,2.4z"/>
		<rect x="30.2" y="34.8" class="st2" width="0.2" height="13.1"/>
		<rect x="43.8" y="34.8" class="st2" width="0.2" height="13.5"/>
		<path class="st2" d="M30,86.7V49c0.4-5.7,6.5-6.8,6.6-6.8c6,0.1,7.4,6.1,7.4,6.2v38.3h-0.2V48.4c0,0-1.4-5.9-7.2-6
			c0,0-6,1.1-6.4,6.6v37.7H30z"/>
		<rect x="30.1" y="65.7" class="st2" width="13.9" height="0.2"/>
		<rect x="30.1" y="71.5" class="st2" width="13.9" height="0.2"/>
		<path class="st2" d="M27.8,86.6h18.5v1.6H27.8V86.6z M46.1,86.8H28V88h18.1C46.1,88,46.1,86.8,46.1,86.8z"/>
		<polygon class="st2" points="42.6,81.6 43.9,81.6 43.9,81.8 42.8,81.8 42.8,86.7 42.6,86.7 		"/>
		<polygon class="st2" points="44.3,81.5 44,81.5 44,81.3 44.5,81.3 44.5,86.6 44.3,86.6 		"/>
		<polygon class="st2" points="44.4,86.2 45,86.2 45,82.2 44.4,82.2 44.4,82 45.2,82 45.2,86.4 44.4,86.4 		"/>
	</g>
</g>
<path d="M221.5,43.7h4.2v0.7h-3.3v2.4h2.8v0.7h-2.8v2.8h3.4V51h-4.3L221.5,43.7z"/>
<path d="M227.2,49.4v-3.1h-0.8v-0.6h0.9l0.1-1.5h0.7v1.5h1.5v0.7h-1.5v3.1c0,0.7,0.2,1.1,0.9,1.1c0.2,0,0.4-0.1,0.6-0.1l0.2,0.6
	c-0.3,0.1-0.7,0.2-1,0.2C227.5,51.2,227.2,50.5,227.2,49.4z"/>
<path d="M230.7,43.1h0.8v3.3c0.5-0.5,1.1-0.9,1.8-0.9c1.1,0,1.6,0.7,1.6,2.1V51h-0.8v-3.3c0-1-0.3-1.5-1.1-1.5
	c-0.6,0.1-1.2,0.4-1.5,0.9v4h-0.8V43.1z"/>
<path d="M236.3,48.3c-0.1-1.4,0.9-2.7,2.3-2.8h0.1c1.4,0,2.1,1,2.1,2.5v0.5h-3.7c-0.1,1,0.7,1.9,1.7,2h0.1c0.5,0,1-0.2,1.4-0.4
	l0.3,0.5c-0.5,0.4-1.2,0.6-1.8,0.5c-1.4,0-2.6-1.1-2.6-2.5C236.2,48.5,236.3,48.4,236.3,48.3z M240.1,47.9c0-1.2-0.5-1.8-1.4-1.8
	c-0.9,0.1-1.6,0.9-1.6,1.8H240.1z"/>
<path d="M242.2,45.6h0.7l0.1,1l0,0c0.3-0.6,0.8-1,1.5-1.1c0.2,0,0.4,0,0.6,0.1l-0.2,0.7c-0.2-0.1-0.3-0.1-0.5-0.1
	c-0.5,0-1,0.3-1.4,1.3V51h-0.8L242.2,45.6z"/>
<path d="M246,45.6h0.7l0.1,0.8l0,0c0.5-0.5,1.1-0.9,1.8-0.9c1.1,0,1.6,0.7,1.6,2.1V51h-0.8v-3.3c0-1-0.3-1.5-1.1-1.5
	c-0.6,0.1-1.2,0.4-1.5,0.9v4H246V45.6z"/>
<path d="M251.6,48.3c-0.1-1.4,0.9-2.7,2.3-2.8h0.1c1.4,0,2.1,1,2.1,2.5v0.5h-3.7c-0.1,1,0.7,1.9,1.7,2h0.1c0.5,0,1-0.2,1.4-0.4
	l0.3,0.5c-0.5,0.4-1.2,0.6-1.8,0.5c-1.4,0-2.6-1.1-2.6-2.5C251.5,48.5,251.6,48.4,251.6,48.3z M255.5,47.9c0-1.2-0.5-1.8-1.4-1.8
	c-0.9,0.1-1.6,0.9-1.6,1.8H255.5z"/>
<path d="M257.6,49.4v-3.1h-0.8v-0.6h0.9l0.1-1.5h0.7v1.5h1.5v0.7h-1.5v3.1c0,0.7,0.2,1.1,0.8,1.1c0.2,0,0.4-0.1,0.6-0.1l0.2,0.6
	c-0.3,0.1-0.7,0.2-1,0.2C257.9,51.2,257.6,50.5,257.6,49.4z"/>
<g>
	<path d="M308.2,76.5c-0.3,0-0.5-0.1-0.7-0.2l-24.4-16.8c-0.1-0.1-0.1-0.2,0-0.3l0.1-0.1l40.9-15.3c0.6-0.2,1.3-0.2,2,0l26.1,9.3
		c0.1,0,0.1,0.1,0.1,0.2c0,0,0,0.1-0.1,0.1l-43.4,22.9C308.6,76.4,308.4,76.5,308.2,76.5z M283.6,59.3l24.1,16.6
		c0.3,0.2,0.6,0.2,0.9,0.1l43-22.7l-25.8-9.1c-0.6-0.2-1.2-0.2-1.7,0L283.6,59.3z"/>
	<path d="M307.4,78c-0.3,0-0.7-0.1-1-0.2l-22-14.8c-1.4-0.7-2-2.3-1.4-3.8c0-0.1,0.1-0.1,0.2-0.1s0.1,0.1,0.1,0.2l0,0
		c-0.5,1.3,0.1,2.7,1.3,3.3l22,14.8c0.9,0.3,2,0.1,2.7-0.6l39.6-20.7c0.8-0.4,2.8-1.6,3.1-2.5c0-0.1,0-0.2,0-0.3
		c-0.1-0.1,0-0.2,0.1-0.3s0.2,0,0.2,0.1c0.1,0.2,0.1,0.4,0.1,0.6c-0.3,1.2-3.1,2.7-3.3,2.7l-39.5,20.7C308.9,77.7,308.2,78,307.4,78
		z"/>
	<path d="M283,61.6c-0.1,0-0.1,0-0.2,0c-0.5-0.2-1.1-1-1.6-2.4l-11.5-33.4c-0.2-0.5-0.1-1,0.1-1.4c0.5-0.5,1.2-0.8,2-0.7l40.7-7.1
		c0.2-0.1,0.5-0.1,0.7,0c0.5,0.2,0.8,0.8,0.9,1.8l9.6,25.6c0,0.1,0,0.2-0.1,0.2s-0.2,0-0.2-0.1l0,0l0,0l0,0l-9.6-25.6
		c-0.2-1.1-0.5-1.4-0.7-1.6c-0.1-0.1-0.3-0.1-0.4,0c0,0,0,0-0.1,0L271.9,24c-0.9,0-1.4,0.2-1.7,0.5c-0.2,0.3-0.2,0.7-0.1,1
		l11.5,33.4c0.6,1.7,1.1,2.1,1.4,2.1c0.1,0,0.1,0,0.2,0c0.1-0.1,0.2,0,0.3,0l0,0l0,0l0,0c0.1,0.1,0,0.2,0,0.3
		C283.2,61.5,283.1,61.6,283,61.6z"/>
	<path d="M283,56.6C283,56.6,282.9,56.6,283,56.6c-0.1,0-0.2-0.1-0.2-0.1l-9.7-28.4V28l0.1-0.1l40.1-8.1c0.1,0,0.2,0,0.2,0.1
		l8.2,22.9v0.1l-0.1,0.1L283,56.6L283,56.6z M273.5,28.2l9.6,28l38.3-13.5l-8.1-22.6L273.5,28.2z"/>
	<path d="M323.3,67.4c-0.2,0-0.3,0-0.5-0.1l-6.8-3.9c0,0-0.1,0-0.1-0.1c-0.1-0.2-0.1-0.4-0.1-0.6c0.1-0.2,0.3-0.4,0.5-0.6l9.7-4.3
		c0.6-0.4,1.4-0.6,2.1-0.5c0,0,0,0,0.1,0l5.1,2.3c1.1,0.5,1.6,1,1.6,1.4c0,0.2-0.1,0.4-0.3,0.5L324.4,67
		C324.1,67.3,323.7,67.4,323.3,67.4z M322.9,67c0.5,0.1,1,0,1.4-0.3l10.2-5.5l0.1-0.1c0-0.1-0.1-0.4-1.4-1.1l-5.1-2.3
		c-0.7-0.1-1.3,0.1-1.8,0.5c0,0,0,0-0.1,0l-9.7,4.3c-0.1,0.1-0.2,0.2-0.3,0.3c0,0.1,0,0.2,0,0.3L322.9,67L322.9,67z"/>
	<path d="M302.1,67.8c-0.3,0-0.5,0-0.8-0.1l0,0l-9.6-6.8c-0.3-0.2-0.4-0.7-0.2-1c0.1-0.1,0.2-0.2,0.3-0.3l35.3-13.8
		c0.2-0.1,0.4-0.1,0.5,0l11.3,4.2c0.5,0.2,0.8,0.5,0.9,0.8c0,0.2,0,0.3-0.1,0.5c0,0,0,0-0.1,0.1l-36.8,16.5
		C302.7,67.7,302.4,67.8,302.1,67.8z M301.4,67.3c0.5,0.1,0.9,0.1,1.4,0l36.7-16.4v-0.1c0-0.1-0.2-0.3-0.7-0.5l-11.3-4.2
		c-0.1,0-0.2,0-0.3,0l-35.3,13.8c-0.2,0.1-0.3,0.3-0.2,0.5c0,0.1,0.1,0.1,0.1,0.2L301.4,67.3z"/>
	<path d="M293.5,22.3c-0.3,0-0.5-0.2-0.5-0.5s0.2-0.5,0.5-0.5s0.5,0.2,0.5,0.5C294,22.1,293.7,22.3,293.5,22.3L293.5,22.3z
		 M293.5,21.7c-0.1,0-0.1,0.1-0.1,0.1l0.1,0.1l0.1-0.1l0,0C293.6,21.7,293.5,21.7,293.5,21.7L293.5,21.7L293.5,21.7L293.5,21.7z"/>
	<path d="M299.7,66.5c-0.1,0-0.2-0.1-0.2-0.2s0-0.1,0.1-0.2l37.7-16.8c0.1,0,0.2,0,0.2,0.1l0,0c0,0.1,0,0.2-0.1,0.2l0,0L299.7,66.5
		L299.7,66.5z"/>
	<path d="M297.4,64.9c-0.1,0-0.2-0.1-0.2-0.2c0-0.1,0-0.1,0.1-0.2l37.8-16c0.1,0,0.2,0,0.2,0.1l0,0c0,0.1,0,0.2-0.1,0.2l0,0l0,0
		L297.4,64.9C297.5,64.9,297.5,64.9,297.4,64.9z"/>
	<path d="M295.5,63.5c-0.1,0-0.2-0.1-0.2-0.2c0-0.1,0-0.1,0.1-0.2l37.2-15.5c0.1,0,0.2,0,0.2,0.1s0,0.2-0.1,0.2l0,0l0,0L295.5,63.5
		L295.5,63.5z"/>
	<path d="M293.5,62c-0.1,0-0.2-0.1-0.2-0.2c0-0.1,0-0.1,0.1-0.2l37.3-14.8c0.1,0,0.2,0,0.2,0.1s0,0.2-0.1,0.2L293.5,62L293.5,62z"/>
	<path d="M306.2,66.2h-0.1l-10.2-7.9c-0.1-0.1-0.1-0.2,0-0.3s0.2-0.1,0.3,0l0,0l10.2,7.9c0.1,0.1,0.1,0.2,0,0.3
		C306.3,66.2,306.2,66.2,306.2,66.2z"/>
	<path d="M309.9,64.5h-0.1l-10.5-7.6c-0.1-0.1-0.1-0.2,0-0.3l0,0c0.1-0.1,0.2-0.1,0.2,0l0,0l0,0l0,0l10.5,7.6c0.1,0.1,0.1,0.2,0,0.3
		H309.9L309.9,64.5z"/>
	<path d="M313.8,62.7h-0.1l-10.2-7.4c-0.1-0.1-0.1-0.2,0-0.3s0.2-0.1,0.3,0l10.2,7.4c0.1,0.1,0.1,0.2,0,0.3
		C313.9,62.7,313.8,62.7,313.8,62.7z"/>
	<path d="M314.3,60h-0.1l-7.4-6c-0.1-0.1-0.1-0.2,0-0.3l0,0l0,0l0,0c0.1-0.1,0.2-0.1,0.3,0l7.4,6c0.1,0.1,0.1,0.2,0,0.3
		C314.4,59.9,314.3,60,314.3,60L314.3,60z"/>
	<path d="M317,58.7h-0.1l-6.9-6.1c-0.1-0.1-0.1-0.2,0-0.3s0.2-0.1,0.3,0l0,0l0,0l0,0l6.9,6.1c0.1,0.1,0.1,0.2,0,0.3l0,0l0,0l0,0
		C317.1,58.7,317.1,58.7,317,58.7z"/>
	<path d="M321,56.9h-0.1l-7.6-5.5c-0.1-0.1-0.1-0.2,0-0.3s0.2-0.1,0.3,0l0,0l7.6,5.5c0.1,0.1,0.1,0.2,0,0.3
		C321.1,56.9,321.1,56.9,321,56.9L321,56.9z"/>
	<path d="M324.5,55.4C324.4,55.4,324.4,55.4,324.5,55.4l-8.2-5.1c-0.1-0.1-0.1-0.2-0.1-0.3l0,0l0,0c0.1-0.1,0.2-0.1,0.2-0.1l0,0l0,0
		l8.1,5.1c0.1,0.1,0.1,0.2,0.1,0.3C324.6,55.4,324.5,55.4,324.5,55.4L324.5,55.4z"/>
	<path d="M329.4,55.8C329.3,55.8,329.3,55.8,329.4,55.8l-10.6-6.5c-0.1-0.1-0.1-0.2-0.1-0.3c0.1-0.1,0.2-0.1,0.2-0.1l10.5,6.5
		c0.1,0.1,0.1,0.2,0.1,0.3S329.4,55.8,329.4,55.8z"/>
	<path d="M332.2,54.6C332.2,54.6,332.1,54.5,332.2,54.6l-11.1-6.2c-0.1-0.1-0.1-0.2-0.1-0.2c0-0.1,0.2-0.1,0.2-0.1l11,6.2
		c0.1,0,0.1,0.2,0.1,0.2S332.3,54.6,332.2,54.6L332.2,54.6z"/>
	<path d="M335.1,53.3C335.1,53.3,335,53.2,335.1,53.3l-11.4-5.8c-0.1,0-0.1-0.2-0.1-0.2c0-0.1,0.2-0.1,0.2-0.1l11.3,5.8
		c0.1,0,0.1,0.2,0.1,0.2S335.2,53.3,335.1,53.3z"/>
	<path d="M338,52C338,52,338,51.9,338,52l-12.3-5.3c-0.1,0-0.1-0.1-0.1-0.2c0-0.1,0.1-0.1,0.2-0.1l12.2,5.3c0.1,0,0.1,0.1,0.1,0.2
		C338.1,51.9,338.1,52,338,52L338,52z"/>
</g>
<g>
	<line class="st5" x1="149.4" y1="39" x2="149.4" y2="39"/>
	<line class="st5" x1="143.2" y1="42.6" x2="143.2" y2="42.9"/>
	<line class="st5" x1="176.4" y1="77.7" x2="106.4" y2="65.7"/>
	<line class="st5" x1="203.5" y1="63.4" x2="203.2" y2="63.4"/>
	<line class="st5" x1="196.6" y1="72.1" x2="198.6" y2="72.5"/>
	<line class="st5" x1="174.4" y1="56.6" x2="174.4" y2="56.5"/>
	<polyline class="st5" points="183.2,58.5 183.2,58.5 183,58.4 182.9,58.2 182.8,57.9 182.8,57.6 182.8,57.2 182.9,56.9 	"/>
	<polyline class="st5" points="182.9,56.9 183.1,56.6 183.3,56.4 183.5,56.3 183.6,56.3 	"/>
	<polyline class="st5" points="122.5,25.2 122.8,25 123.1,25 123.1,25 	"/>
	<polyline class="st5" points="101.6,40.6 101.6,40 101.6,39.3 101.8,38.7 102,38.1 102.2,37.6 102.5,37.2 102.8,36.8 103.1,36.6 	
		"/>
	<line class="st5" x1="141.7" y1="51.6" x2="141.7" y2="51.7"/>
	<line class="st5" x1="150.3" y1="38.9" x2="150.3" y2="38.8"/>
	<line class="st5" x1="143.4" y1="42.9" x2="143.4" y2="43"/>
	<polyline class="st5" points="141.1,47.4 141.1,46.8 141.2,46.1 141.3,45.5 141.5,44.9 141.8,44.4 142,44 142.3,43.6 142.7,43.4 	
		"/>
	<line class="st5" x1="152.3" y1="37.7" x2="152.3" y2="38"/>
	<line class="st5" x1="141.7" y1="51.7" x2="174.5" y2="57.3"/>
	<line class="st5" x1="141.7" y1="51.7" x2="141.3" y2="51.9"/>
	<polyline class="st5" points="176.6,48.6 176.7,48.6 176.8,48.6 177,48.6 177.1,48.6 177.2,48.6 177.3,48.6 177.4,48.5 177.5,48.5 
			"/>
	<line class="st5" x1="175.8" y1="49" x2="176.6" y2="48.6"/>
	<line class="st5" x1="103.1" y1="36.6" x2="122.5" y2="25.2"/>
	<line class="st5" x1="142.7" y1="43.4" x2="103.1" y2="36.6"/>
	<line class="st5" x1="143.4" y1="42.9" x2="142.7" y2="43.4"/>
	<polyline class="st5" points="143.2,42.6 143.2,42.7 143.1,42.7 143.1,42.7 143.1,42.8 143.2,42.8 143.2,42.9 143.3,42.9 
		143.4,42.9 	"/>
	<line class="st5" x1="149.4" y1="39" x2="143.2" y2="42.6"/>
	<polyline class="st5" points="150.3,38.8 150.2,38.8 150.1,38.8 150,38.8 149.8,38.8 149.7,38.9 149.6,38.9 149.5,38.9 149.4,39 	
		"/>
	<line class="st5" x1="152.3" y1="37.7" x2="150.3" y2="38.8"/>
	<line class="st5" x1="185.5" y1="43.4" x2="152.3" y2="37.7"/>
	<line class="st5" x1="183.5" y1="44.5" x2="185.5" y2="43.4"/>
	<polyline class="st5" points="183.7,44.8 183.8,44.8 183.8,44.8 183.8,44.7 183.8,44.7 183.7,44.6 183.7,44.6 183.6,44.6 
		183.5,44.5 	"/>
	<line class="st5" x1="177.5" y1="48.5" x2="183.7" y2="44.8"/>
	<polyline class="st5" points="137.8,29.6 137.9,29.6 137.9,29.6 138,29.6 138.1,29.6 138.2,29.6 138.3,29.6 138.4,29.5 138.4,29.5 
			"/>
	<line class="st5" x1="120.8" y1="26.7" x2="137.8" y2="29.6"/>
	<polyline class="st5" points="120.6,26.5 120.6,26.5 120.6,26.5 120.6,26.6 120.6,26.6 120.6,26.6 120.7,26.6 120.7,26.7 
		120.8,26.7 	"/>
	<line class="st5" x1="121.5" y1="26" x2="120.6" y2="26.5"/>
	<polyline class="st5" points="122.2,25.9 122.1,25.9 122,25.9 121.9,25.9 121.8,25.9 121.7,25.9 121.6,25.9 121.5,25.9 121.5,26 	
		"/>
	<line class="st5" x1="139.1" y1="28.8" x2="122.2" y2="25.9"/>
	<polyline class="st5" points="139.3,29 139.3,29 139.3,29 139.4,28.9 139.3,28.9 139.3,28.9 139.3,28.8 139.2,28.8 139.1,28.8 	"/>
	<line class="st5" x1="138.4" y1="29.5" x2="139.3" y2="29"/>
	<line class="st5" x1="174.5" y1="57.6" x2="174.4" y2="56.7"/>
	<line class="st5" x1="141.3" y1="51.9" x2="174.5" y2="57.6"/>
	<line class="st5" x1="141.3" y1="51" x2="141.3" y2="51.9"/>
	<line class="st5" x1="141.1" y1="47.4" x2="141.3" y2="50.8"/>
	<line class="st5" x1="101.6" y1="40.6" x2="141.1" y2="47.4"/>
	<line class="st5" x1="102.5" y1="63.6" x2="101.6" y2="40.6"/>
	<line class="st5" x1="181.1" y1="50" x2="175.8" y2="49"/>
	<polyline class="st5" points="175.8,49 175.5,49.3 175.2,49.7 174.9,50.1 174.7,50.6 174.5,51.2 174.4,51.8 174.3,52.5 174.3,53.1 
			"/>
	<line class="st5" x1="174.3" y1="53.1" x2="179.6" y2="54"/>
	<polyline class="st5" points="202.3,40.6 202.2,40 202.1,39.5 201.9,39.1 201.7,38.8 201.4,38.5 201.1,38.4 200.8,38.4 200.5,38.6 
			"/>
	<line class="st5" x1="200.5" y1="38.6" x2="181.1" y2="50"/>
	<polyline class="st5" points="181.1,50 180.8,50.2 180.5,50.6 180.2,51 180,51.5 179.8,52.1 179.6,52.7 179.6,53.4 179.6,54 	"/>
	<line class="st5" x1="179.6" y1="54" x2="180.6" y2="78.5"/>
	<polyline class="st5" points="182.4,80.5 182.1,80.6 181.7,80.6 181.4,80.5 181.2,80.3 180.9,80 180.8,79.5 180.6,79 180.6,78.5 	
		"/>
	<line class="st5" x1="182.4" y1="80.5" x2="201.7" y2="69.1"/>
	<polyline class="st5" points="203.3,65.1 203.3,65.7 203.2,66.3 203.1,66.9 202.9,67.5 202.7,68 202.4,68.5 202.1,68.9 201.7,69.1 
			"/>
	<line class="st5" x1="203.3" y1="65.1" x2="202.3" y2="40.6"/>
	<polyline class="st5" points="186.7,62.9 186.7,63.5 186.6,64.1 186.5,64.8 186.3,65.4 186.1,66 185.8,66.5 185.5,67 185.2,67.3 
		184.8,67.6 184.5,67.7 184.1,67.8 183.8,67.7 183.5,67.5 183.2,67.2 183,66.8 182.9,66.3 182.7,65.8 182.7,65.2 182.7,64.6 
		182.8,63.9 182.9,63.2 183.1,62.6 183.3,62 183.6,61.5 183.9,61.1 184.2,60.7 184.5,60.5 184.9,60.3 185.2,60.3 185.5,60.3 
		185.8,60.5 186.1,60.8 186.3,61.2 186.5,61.7 186.6,62.3 186.7,62.9 	"/>
	<polyline class="st5" points="193.5,46.4 193.5,46.6 193.5,46.8 193.4,47 193.3,47.1 193.2,47.1 193.1,47 193,46.9 193,46.7 
		193,46.5 193.1,46.4 193.1,46.2 193.2,46.1 193.3,46.1 193.4,46.1 193.5,46.3 193.5,46.4 	"/>
	<polyline class="st5" points="191.7,47.5 191.7,47.7 191.6,47.9 191.5,48.1 191.4,48.2 191.3,48.2 191.2,48.1 191.2,48 191.1,47.8 
		191.1,47.6 191.2,47.4 191.3,47.3 191.4,47.2 191.5,47.2 191.6,47.2 191.6,47.3 191.7,47.5 	"/>
	<polyline class="st5" points="187.4,55 187.4,55.2 187.4,55.4 187.3,55.6 187.2,55.7 187.1,55.7 187,55.6 186.9,55.5 186.9,55.4 
		186.9,55.1 186.9,55 187,54.8 187.1,54.7 187.2,54.7 187.3,54.7 187.4,54.9 187.4,55 	"/>
	<polyline class="st5" points="185.4,56.2 185.4,56.4 185.3,56.6 185.3,56.8 185.2,56.9 185,56.9 185,56.8 184.9,56.7 184.9,56.5 
		184.9,56.3 184.9,56.1 185,56 185.1,55.9 185.2,55.9 185.3,55.9 185.4,56 185.4,56.2 	"/>
	<polyline class="st5" points="189.1,64.5 189.1,64.5 188.8,64.4 188.5,64.2 188.3,63.9 188.1,63.5 188,63 187.9,62.4 187.9,61.8 
		187.9,61.2 188,60.6 188.1,60 188.3,59.4 188.6,58.9 188.9,58.4 189.2,58.1 189.5,57.8 189.8,57.6 190.2,57.6 190.3,57.6 	"/>
	<polyline class="st5" points="183.4,58.5 183.2,58.6 183,58.5 182.9,58.3 182.8,58.1 182.8,57.8 182.8,57.4 182.8,57.1 183,56.7 
		183.1,56.5 183.3,56.3 183.5,56.3 183.7,56.3 183.7,56.4 	"/>
	<line class="st5" x1="185.1" y1="65" x2="183.5" y2="64.7"/>
	<line class="st5" x1="185.6" y1="64.7" x2="183.5" y2="64.3"/>
	<line class="st5" x1="185.2" y1="65.5" x2="183.5" y2="65.2"/>
	<line class="st5" x1="183.5" y1="65.4" x2="185" y2="65.6"/>
	<line class="st5" x1="184.1" y1="65.8" x2="185" y2="66"/>
	<line class="st5" x1="184.3" y1="66" x2="184.1" y2="66"/>
	<line class="st5" x1="183.6" y1="65.6" x2="184" y2="65.6"/>
	<line class="st5" x1="184" y1="65.6" x2="183.6" y2="65.9"/>
	<line class="st5" x1="183.6" y1="65.9" x2="183.5" y2="63.8"/>
	<line class="st5" x1="183.5" y1="63.8" x2="185.5" y2="62.6"/>
	<line class="st5" x1="185.5" y1="62.6" x2="185.6" y2="64.7"/>
	<line class="st5" x1="185.6" y1="64.7" x2="185.1" y2="65"/>
	<line class="st5" x1="185.1" y1="65" x2="185.2" y2="65.5"/>
	<line class="st5" x1="185.2" y1="65.5" x2="185" y2="65.6"/>
	<line class="st5" x1="185" y1="65.6" x2="185" y2="66"/>
	<line class="st5" x1="185" y1="66" x2="184.3" y2="66.4"/>
	<line class="st5" x1="184.3" y1="66.4" x2="184.3" y2="66"/>
	<line class="st5" x1="184.3" y1="66" x2="184.1" y2="66.1"/>
	<line class="st5" x1="184.1" y1="66.1" x2="184" y2="65.6"/>
	<polyline class="st5" points="185.1,60.3 185.4,60.3 185.7,60.5 186,60.8 186.2,61.2 186.3,61.7 186.5,62.2 186.5,62.8 186.5,63.5 
		186.4,64.1 186.3,64.8 186.1,65.4 185.9,66 185.7,66.5 185.3,66.9 185,67.3 184.7,67.5 	"/>
	<polyline class="st5" points="184.7,67.5 184.3,67.7 184,67.7 183.9,67.7 	"/>
	<polyline class="st5" points="191.2,62.5 191.3,62.4 191.4,61.9 191.5,61.3 191.6,60.8 191.6,60.2 	"/>
	<polyline class="st5" points="194.2,60.7 194.2,61.2 194.2,61.8 194.1,62.3 193.9,62.9 193.7,63.3 193.4,63.7 193.1,64.1 
		192.8,64.3 192.6,64.4 192.3,64.4 192,64.3 191.7,64.1 191.5,63.8 191.4,63.4 191.3,63 191.2,62.5 191.2,61.9 191.3,61.4 
		191.4,60.8 191.6,60.3 191.8,59.8 192.1,59.4 192.3,59.1 192.6,58.8 192.9,58.7 193.2,58.7 193.5,58.8 193.7,59 193.9,59.3 
		194.1,59.7 194.2,60.2 194.2,60.7 	"/>
	<polyline class="st5" points="190.9,62.7 190.9,62 191,61.4 191.1,60.8 191.2,60.2 191.5,59.7 191.7,59.2 192,58.7 192.3,58.4 
		192.7,58.2 193,58.1 193.3,58.1 193.6,58.2 193.9,58.4 194.2,58.7 194.3,59.1 194.5,59.6 194.6,60.2 194.6,60.8 194.6,61.4 
		194.5,62 194.3,62.6 194.1,63.2 193.9,63.7 193.6,64.2 193.3,64.6 192.9,64.8 192.6,65 192.3,65.1 192,65 191.7,64.8 191.4,64.6 
		191.2,64.2 191,63.8 190.9,63.2 190.9,62.7 	"/>
	<polyline class="st5" points="193.1,46.3 193.2,46.2 193.3,46.1 193.4,46.1 193.4,46.2 193.5,46.3 193.5,46.5 193.5,46.7 
		193.4,46.8 193.4,47 193.3,47.1 193.2,47.1 193.1,47 193,46.9 193,46.7 193,46.5 193.1,46.3 	"/>
	<polyline class="st5" points="191.6,47.2 191.6,47.3 191.7,47.5 191.7,47.7 191.6,47.9 191.5,48 191.5,48.1 191.3,48.2 191.3,48.1 
		191.2,48 191.2,47.9 191.2,47.7 191.2,47.5 191.3,47.3 191.4,47.2 191.5,47.2 191.6,47.2 	"/>
	<line class="st5" x1="203.2" y1="63.5" x2="203.3" y2="63.5"/>
	<polyline class="st5" points="198.8,72.7 198.8,72.7 198.7,72.7 198.7,72.7 198.7,72.7 198.6,72.7 198.6,72.6 198.6,72.5 
		198.6,72.5 	"/>
	<line class="st5" x1="202.2" y1="70.7" x2="198.8" y2="72.7"/>
	<polyline class="st5" points="203.7,66.7 203.7,67.3 203.6,67.9 203.5,68.6 203.3,69.1 203.1,69.7 202.8,70.1 202.5,70.5 
		202.2,70.7 	"/>
	<line class="st5" x1="203.6" y1="63.7" x2="203.7" y2="66.7"/>
	<polyline class="st5" points="203.5,63.4 203.5,63.4 203.5,63.4 203.6,63.4 203.6,63.5 203.6,63.5 203.6,63.5 203.6,63.6 
		203.6,63.7 	"/>
	<line class="st5" x1="203.3" y1="63.5" x2="203.5" y2="63.4"/>
	<line class="st5" x1="203.3" y1="65.1" x2="203.3" y2="63.5"/>
	<polyline class="st5" points="203.3,65.1 203.3,65.7 203.2,66.3 203.1,66.9 202.9,67.5 202.7,68 202.4,68.5 202.1,68.9 201.7,69.1 
			"/>
	<line class="st5" x1="198.6" y1="71" x2="201.7" y2="69.1"/>
	<line class="st5" x1="198.6" y1="72.5" x2="198.6" y2="71"/>
	<polyline class="st5" points="176.5,79.8 176.5,80.4 176.7,80.9 176.8,81.3 177.1,81.7 177.3,81.9 177.6,82 	"/>
	<line class="st5" x1="179.9" y1="76.9" x2="177.2" y2="76.4"/>
	<line class="st5" x1="177.2" y1="76.4" x2="176.6" y2="76.3"/>
	<line class="st5" x1="176.6" y1="76.3" x2="176.5" y2="76.4"/>
	<line class="st5" x1="180.4" y1="77" x2="179.9" y2="76.9"/>
	<line class="st5" x1="176.3" y1="76.8" x2="176.5" y2="79.8"/>
	<line class="st5" x1="180.3" y1="80.5" x2="176.5" y2="79.8"/>
	<line class="st5" x1="176.5" y1="76.4" x2="180.3" y2="77.1"/>
	<polyline class="st5" points="176.5,76.4 176.4,76.4 176.4,76.5 176.4,76.5 176.3,76.6 176.3,76.6 176.3,76.7 176.3,76.8 
		176.3,76.8 	"/>
	<line class="st5" x1="180.1" y1="77.5" x2="176.3" y2="76.8"/>
	<polyline class="st5" points="185.7,80.1 185.6,80.2 185.6,80.2 185.6,80.3 185.6,80.4 185.6,80.4 185.6,80.5 185.5,80.5 
		185.5,80.5 	"/>
	<line class="st5" x1="185.6" y1="78.6" x2="185.7" y2="80.1"/>
	<line class="st5" x1="182.4" y1="80.5" x2="185.6" y2="78.6"/>
	<polyline class="st5" points="180.6,78.5 180.6,79 180.8,79.5 180.9,80 181.2,80.3 181.4,80.5 181.7,80.6 182.1,80.6 182.4,80.5 	
		"/>
	<line class="st5" x1="180.4" y1="77" x2="180.6" y2="78.5"/>
	<line class="st5" x1="180.3" y1="77.1" x2="180.4" y2="77"/>
	<polyline class="st5" points="180.1,77.5 180.1,77.4 180.1,77.4 180.2,77.3 180.2,77.2 180.2,77.2 180.2,77.1 180.3,77.1 
		180.3,77.1 	"/>
	<line class="st5" x1="180.3" y1="80.5" x2="180.1" y2="77.5"/>
	<polyline class="st5" points="182.1,82.5 181.8,82.6 181.5,82.6 181.2,82.5 180.9,82.3 180.7,82 180.5,81.5 180.4,81 180.3,80.5 	
		"/>
	<line class="st5" x1="185.5" y1="80.5" x2="182.1" y2="82.5"/>
	<polyline class="st5" points="102.3,67.1 102.4,67.6 102.5,68.1 102.7,68.6 102.9,68.9 103.2,69.1 103.5,69.2 	"/>
	<line class="st5" x1="105.7" y1="64.2" x2="103" y2="63.7"/>
	<line class="st5" x1="103" y1="63.7" x2="102.5" y2="63.6"/>
	<line class="st5" x1="102.5" y1="63.6" x2="102.3" y2="63.7"/>
	<line class="st5" x1="106.3" y1="64.2" x2="105.7" y2="64.2"/>
	<line class="st5" x1="102.1" y1="64.1" x2="102.3" y2="67.1"/>
	<line class="st5" x1="106.2" y1="67.7" x2="102.3" y2="67.1"/>
	<line class="st5" x1="102.3" y1="63.7" x2="106.1" y2="64.3"/>
	<polyline class="st5" points="102.3,63.7 102.3,63.7 102.2,63.7 102.2,63.8 102.2,63.8 102.2,63.9 102.1,64 102.1,64 102.1,64.1 	
		"/>
	<line class="st5" x1="106" y1="64.8" x2="102.1" y2="64.1"/>
	<polyline class="st5" points="106.4,65.7 106.5,66.3 106.6,66.8 106.8,67.2 107,67.6 107.3,67.8 107.6,67.9 	"/>
	<line class="st5" x1="106.3" y1="64.2" x2="106.4" y2="65.7"/>
	<line class="st5" x1="106.1" y1="64.3" x2="106.3" y2="64.2"/>
	<polyline class="st5" points="106,64.8 106,64.7 106,64.6 106,64.6 106,64.5 106,64.5 106.1,64.4 106.1,64.4 106.1,64.3 	"/>
	<line class="st5" x1="106.2" y1="67.7" x2="106" y2="64.8"/>
	<polyline class="st5" points="108,69.8 107.6,69.9 107.3,69.9 107,69.8 106.7,69.6 106.5,69.2 106.3,68.8 106.2,68.3 106.2,67.7 	
		"/>
	<line class="st5" x1="110.3" y1="68.4" x2="108" y2="69.8"/>
	<polyline class="st5" points="144.5,50.9 144.5,50.9 144.7,50.8 144.9,50.8 145.1,50.8 145.3,50.8 145.4,50.8 145.5,50.8 	"/>
	<line class="st5" x1="147" y1="48.4" x2="143.6" y2="50.4"/>
	<line class="st5" x1="172.4" y1="55.8" x2="171.2" y2="55.6"/>
	<line class="st5" x1="171.2" y1="55.6" x2="171.4" y2="55.5"/>
	<line class="st5" x1="170.3" y1="52.4" x2="166.3" y2="54.8"/>
	<line class="st5" x1="166.3" y1="54.8" x2="164.1" y2="54.4"/>
	<line class="st5" x1="164.1" y1="54.4" x2="164.3" y2="54.3"/>
	<line class="st5" x1="163.2" y1="51.2" x2="159.2" y2="53.5"/>
	<line class="st5" x1="159.2" y1="53.5" x2="157" y2="53.2"/>
	<line class="st5" x1="157" y1="53.2" x2="157.1" y2="53.1"/>
	<line class="st5" x1="156.1" y1="49.9" x2="152.1" y2="52.3"/>
	<line class="st5" x1="152.1" y1="52.3" x2="149.9" y2="51.9"/>
	<line class="st5" x1="149.9" y1="51.9" x2="150" y2="51.8"/>
	<polyline class="st5" points="145.5,50.9 145.3,50.9 145.1,51 144.9,51 144.7,50.9 144.5,50.9 144.4,50.8 144.4,50.8 144.5,50.7 
		144.7,50.6 144.8,50.6 145.1,50.6 145.3,50.6 145.4,50.6 145.5,50.7 145.5,50.8 145.5,50.9 	"/>
	<line class="st5" x1="152.5" y1="49.3" x2="148.5" y2="51.7"/>
	<line class="st5" x1="148.5" y1="51.7" x2="146.3" y2="51.3"/>
	<line class="st5" x1="146.3" y1="51.3" x2="146.5" y2="51.2"/>
	<line class="st5" x1="159.7" y1="50.6" x2="155.6" y2="52.9"/>
	<line class="st5" x1="155.6" y1="52.9" x2="153.5" y2="52.5"/>
	<line class="st5" x1="153.5" y1="52.5" x2="153.6" y2="52.5"/>
	<line class="st5" x1="166.8" y1="51.8" x2="162.8" y2="54.1"/>
	<line class="st5" x1="162.8" y1="54.1" x2="160.6" y2="53.8"/>
	<line class="st5" x1="160.6" y1="53.8" x2="160.7" y2="53.7"/>
	<line class="st5" x1="172" y1="54.1" x2="169.9" y2="55.4"/>
	<line class="st5" x1="169.9" y1="55.4" x2="167.7" y2="55"/>
	<line class="st5" x1="167.7" y1="55" x2="167.8" y2="54.9"/>
	<polyline class="st5" points="196.5,58.6 196.5,58.5 196.5,58.4 196.5,58.4 196.5,58.3 196.6,58.3 196.6,58.3 196.6,58.4 
		196.6,58.4 196.6,58.5 196.6,58.6 196.6,58.6 196.6,58.7 196.5,58.7 196.5,58.7 196.5,58.6 196.5,58.6 	"/>
	<polyline class="st5" points="196.4,57.7 196.4,57.7 196.4,57.6 196.5,57.5 196.5,57.5 196.5,57.5 196.6,57.5 196.6,57.6 
		196.6,57.6 196.6,57.7 196.6,57.8 196.6,57.8 196.5,57.8 196.5,57.9 196.5,57.8 196.4,57.8 196.4,57.7 	"/>
	<polyline class="st5" points="196,58.4 196,58.3 196.1,58.2 196.1,58.2 196.1,58.1 196.2,58.1 196.2,58.2 196.2,58.2 196.2,58.3 
		196.2,58.3 196.2,58.4 196.2,58.5 196.1,58.5 196.1,58.5 196.1,58.5 196.1,58.4 196,58.4 	"/>
	<polyline class="st5" points="196.2,57.4 196.2,57.4 196.2,57.4 196.2,57.5 196.2,57.6 196.1,57.6 196.1,57.7 196.1,57.7 196,57.7 
			"/>
	<polyline class="st5" points="195.8,58.8 195.9,58.8 195.9,58.9 195.9,59 195.8,59 	"/>
	<line class="st5" x1="196.2" y1="59.8" x2="196.5" y2="59.9"/>
	<polyline class="st5" points="195.2,55.7 195,55.7 194.7,55.8 194.5,56 194.2,56.2 194,56.6 193.8,57.1 193.6,57.6 193.6,58.1 
		193.5,58.1 	"/>
	<polyline class="st5" points="194,58.5 194,58.1 194.1,57.6 194.3,57.1 194.4,56.7 194.7,56.3 194.9,56 195.2,55.9 195.5,55.8 
		195.7,55.8 196,56 196.2,56.2 196.2,56.2 	"/>
	<polyline class="st5" points="195.5,60.3 195.4,60.4 195.1,60.5 194.9,60.5 194.6,60.5 194.6,60.4 	"/>
	<polyline class="st5" points="195.6,56.1 195.5,56.1 195.2,56.2 195,56.3 194.7,56.6 194.5,57 194.3,57.4 194.2,57.9 194.2,58.3 
		194.1,58.7 	"/>
	<polyline class="st5" points="194.5,60 194.7,60.1 194.9,60.2 194.9,60.2 	"/>
	<polyline class="st5" points="195.5,59 195.6,59.5 195.7,59.9 195.8,60.2 196,60.4 196.2,60.5 196.5,60.4 196.7,60.3 197,60.1 
		197.2,59.8 197.4,59.4 197.6,58.9 197.7,58.5 197.7,58 197.7,57.5 197.6,57.1 197.5,56.8 197.3,56.5 197.1,56.4 196.8,56.3 
		196.6,56.4 196.3,56.6 196.1,56.9 195.9,57.2 195.7,57.6 195.6,58.1 195.5,58.6 195.5,59 	"/>
	<polyline class="st5" points="196.8,59.7 196.8,59.6 196.8,59.5 196.7,59.5 196.6,59.5 196.6,59.5 196.5,59.6 196.5,59.7 
		196.5,59.9 	"/>
	<polyline class="st5" points="196.5,59.9 196.3,59.8 196.1,59.7 196,59.5 195.9,59.2 195.8,58.8 195.9,58.4 195.9,58 196.1,57.6 
		196.2,57.3 196.4,57.1 196.7,57 196.9,56.9 197.1,57 197.2,57.2 197.3,57.5 197.4,57.9 197.4,58.3 197.3,58.7 197.2,59.1 197,59.4 
		196.8,59.7 	"/>
	<polyline class="st5" points="200.7,56.1 200.7,56 200.7,55.9 200.7,55.9 200.8,55.8 200.8,55.8 200.8,55.9 200.8,55.9 200.9,56 
		200.9,56 200.8,56.1 200.8,56.2 200.8,56.2 200.7,56.2 200.7,56.2 200.7,56.1 200.7,56.1 	"/>
	<polyline class="st5" points="200.6,55.3 200.6,55.2 200.7,55.1 200.7,55.1 200.7,55 200.8,55 200.8,55 200.8,55.1 200.8,55.1 
		200.8,55.2 200.8,55.3 200.8,55.3 200.7,55.4 200.7,55.4 200.7,55.4 200.6,55.3 200.6,55.3 	"/>
	<polyline class="st5" points="200.3,55.9 200.3,55.8 200.3,55.8 200.3,55.7 200.3,55.7 200.4,55.7 200.4,55.7 200.4,55.7 
		200.4,55.8 200.4,55.9 200.4,55.9 200.4,56 200.4,56 200.3,56 200.3,56 200.3,56 200.3,55.9 	"/>
	<polyline class="st5" points="200.4,54.9 200.4,54.9 200.4,55 200.4,55 200.4,55.1 200.4,55.2 200.3,55.2 200.3,55.2 200.3,55.2 	
		"/>
	<polyline class="st5" points="200,56.3 200.1,56.4 200.1,56.4 200.1,56.5 200,56.5 	"/>
	<line class="st5" x1="200.4" y1="57.3" x2="200.7" y2="57.4"/>
	<polyline class="st5" points="199.4,53.2 199.2,53.2 198.9,53.3 198.7,53.5 198.4,53.8 198.2,54.2 198,54.6 197.8,55.1 197.8,55.6 
		197.7,56.1 197.7,56.6 197.8,57 198,57.4 198.1,57.7 198.3,57.9 198.6,58 	"/>
	<polyline class="st5" points="199.7,57.8 199.6,57.9 199.3,58 199.1,58.1 198.8,58 198.6,57.8 198.4,57.5 198.3,57.1 198.2,56.7 
		198.2,56.2 198.2,55.7 198.3,55.1 198.5,54.7 198.7,54.2 198.9,53.9 199.1,53.6 199.4,53.4 199.7,53.3 199.9,53.3 200.2,53.5 
		200.4,53.7 200.4,53.7 	"/>
	<polyline class="st5" points="201,57.2 201,57.1 201,57 200.9,57 200.9,57 200.8,57.1 200.8,57.2 200.7,57.3 200.7,57.4 	"/>
	<polyline class="st5" points="200.7,57.4 200.5,57.4 200.3,57.2 200.2,57 200.1,56.7 200,56.3 200.1,55.9 200.1,55.5 200.3,55.1 
		200.4,54.8 200.7,54.6 200.9,54.5 201.1,54.5 201.3,54.6 201.4,54.8 201.5,55.1 201.6,55.4 201.6,55.8 201.5,56.2 201.4,56.6 
		201.2,56.9 201,57.2 	"/>
	<polyline class="st5" points="199.8,53.6 199.7,53.6 199.4,53.7 199.2,53.9 198.9,54.1 198.7,54.5 198.6,54.9 198.4,55.4 
		198.4,55.9 198.3,56.3 	"/>
	<polyline class="st5" points="198.3,56.3 198.4,56.8 198.5,57.1 198.7,57.4 198.9,57.6 199.1,57.7 	"/>
	<polyline class="st5" points="199.7,56.6 199.8,57 199.9,57.4 200,57.7 200.2,57.9 200.5,58 200.7,58 201,57.8 201.2,57.6 
		201.4,57.3 201.6,56.9 201.8,56.5 201.9,56 201.9,55.5 201.9,55.1 201.8,54.7 201.7,54.3 201.5,54 201.3,53.9 201,53.9 200.8,53.9 
		200.5,54.1 200.3,54.4 200.1,54.7 199.9,55.1 199.8,55.6 199.7,56.1 199.7,56.6 	"/>
	<line class="st5" x1="155.5" y1="52.1" x2="158.5" y2="50.4"/>
	<line class="st5" x1="156.5" y1="50" x2="153.6" y2="51.8"/>
	<line class="st5" x1="155.5" y1="52.1" x2="155.6" y2="52.9"/>
	<line class="st5" x1="153.6" y1="51.8" x2="155.5" y2="52.1"/>
	<line class="st5" x1="153.6" y1="51.8" x2="153.6" y2="52.6"/>
	<line class="st5" x1="160.7" y1="53" x2="160.7" y2="53.8"/>
	<line class="st5" x1="162.6" y1="53.3" x2="162.7" y2="54.1"/>
	<line class="st5" x1="162.6" y1="53.3" x2="165.6" y2="51.6"/>
	<line class="st5" x1="163.6" y1="51.2" x2="160.7" y2="53"/>
	<line class="st5" x1="160.7" y1="53" x2="162.6" y2="53.3"/>
	<line class="st5" x1="172.1" y1="54.4" x2="171.4" y2="54.8"/>
	<line class="st5" x1="171.4" y1="54.8" x2="172.2" y2="55"/>
	<line class="st5" x1="171.4" y1="54.8" x2="171.4" y2="55.6"/>
	<line class="st5" x1="166.2" y1="53.9" x2="166.2" y2="54.7"/>
	<line class="st5" x1="164.2" y1="53.6" x2="164.3" y2="54.4"/>
	<line class="st5" x1="166.2" y1="53.9" x2="169.2" y2="52.2"/>
	<line class="st5" x1="167.2" y1="51.8" x2="164.2" y2="53.6"/>
	<line class="st5" x1="164.2" y1="53.6" x2="166.2" y2="53.9"/>
	<line class="st5" x1="157.1" y1="52.4" x2="157.1" y2="53.2"/>
	<line class="st5" x1="159.1" y1="52.7" x2="159.1" y2="53.5"/>
	<line class="st5" x1="159.1" y1="52.7" x2="162" y2="51"/>
	<line class="st5" x1="160.1" y1="50.6" x2="157.1" y2="52.4"/>
	<line class="st5" x1="157.1" y1="52.4" x2="159.1" y2="52.7"/>
	<line class="st5" x1="152" y1="51.5" x2="152" y2="52.3"/>
	<line class="st5" x1="150" y1="51.1" x2="150" y2="52"/>
	<line class="st5" x1="152" y1="51.5" x2="154.9" y2="49.7"/>
	<line class="st5" x1="153" y1="49.4" x2="150" y2="51.1"/>
	<line class="st5" x1="150" y1="51.1" x2="152" y2="51.5"/>
	<line class="st5" x1="149.4" y1="48.8" x2="146.4" y2="50.5"/>
	<line class="st5" x1="148.4" y1="50.9" x2="151.4" y2="49.1"/>
	<line class="st5" x1="148.4" y1="50.9" x2="148.4" y2="51.7"/>
	<line class="st5" x1="146.4" y1="50.5" x2="148.4" y2="50.9"/>
	<line class="st5" x1="146.4" y1="50.5" x2="146.5" y2="51.3"/>
	<line class="st5" x1="167.8" y1="54.2" x2="167.8" y2="55"/>
	<line class="st5" x1="170.7" y1="52.5" x2="167.8" y2="54.2"/>
	<line class="st5" x1="167.8" y1="54.2" x2="169.8" y2="54.5"/>
	<line class="st5" x1="169.8" y1="54.5" x2="171.7" y2="53.4"/>
	<line class="st5" x1="169.8" y1="54.5" x2="169.8" y2="55.4"/>
	<polyline class="st5" points="143,51.3 143.1,51.2 143.3,51 143.4,50.8 143.5,50.5 	"/>
	<line class="st5" x1="143.5" y1="50.5" x2="144" y2="48.7"/>
	<line class="st5" x1="143.5" y1="50.5" x2="143.2" y2="50.7"/>
	<polyline class="st5" points="144,48.7 144.1,48.5 144.2,48.3 144.3,48.1 144.4,48 	"/>
	<line class="st5" x1="144" y1="48.7" x2="143.7" y2="48.9"/>
	<polyline class="st5" points="141.8,51.6 141.7,51.6 141.6,51.5 141.5,51.4 141.4,51.3 141.4,51.2 141.3,51.1 141.3,51 141.3,50.9 
			"/>
	<line class="st5" x1="141.9" y1="51.6" x2="141.8" y2="51.6"/>
	<polyline class="st5" points="143.2,50.7 143.1,51 143,51.2 142.8,51.4 142.6,51.5 142.4,51.6 142.1,51.6 141.9,51.6 	"/>
	<line class="st5" x1="143.7" y1="48.9" x2="143.2" y2="50.7"/>
	<polyline class="st5" points="144.9,48 144.7,48 144.5,48 144.3,48.1 144.1,48.2 144,48.3 143.8,48.5 143.7,48.7 143.7,48.9 	"/>
	<line class="st5" x1="141.2" y1="47.4" x2="141.3" y2="50.9"/>
	<polyline class="st5" points="149.4,39 149.5,39 149.6,39 149.7,38.9 149.8,38.9 149.9,38.9 150.1,38.9 150.2,38.9 150.3,38.9 	"/>
	<line class="st5" x1="143.4" y1="42.6" x2="149.4" y2="39"/>
	<polyline class="st5" points="143.6,42.9 143.5,42.9 143.4,42.8 143.3,42.8 143.3,42.7 143.3,42.7 143.3,42.7 143.3,42.6 
		143.4,42.6 	"/>
	<line class="st5" x1="142.7" y1="43.4" x2="143.6" y2="42.9"/>
	<polyline class="st5" points="177.6,48.5 177.5,48.5 177.4,48.5 177.3,48.5 177.2,48.6 177.1,48.6 176.9,48.6 176.8,48.6 
		176.7,48.6 	"/>
	<line class="st5" x1="183.6" y1="44.9" x2="177.6" y2="48.5"/>
	<polyline class="st5" points="183.4,44.6 183.5,44.6 183.6,44.6 183.7,44.7 183.7,44.7 183.7,44.8 183.7,44.8 183.7,44.9 
		183.6,44.9 	"/>
	<line class="st5" x1="151.9" y1="38" x2="185" y2="43.7"/>
	<line class="st5" x1="150.3" y1="38.9" x2="151.9" y2="38"/>
	<polyline class="st5" points="174.4,56.6 174.4,56.7 174.3,56.8 174.3,56.9 174.2,57 174.1,57 174.1,57.1 173.9,57.1 173.8,57.1 	
		"/>
	<polyline class="st5" points="171.9,53.7 171.8,53.5 171.7,53.3 171.5,53.1 171.4,52.9 171.2,52.7 171,52.6 170.7,52.5 170.5,52.4 
			"/>
	<line class="st5" x1="172.4" y1="55.8" x2="171.9" y2="53.7"/>
	<polyline class="st5" points="173.8,57.1 173.5,57 173.3,56.9 173,56.7 172.8,56.5 172.7,56.3 172.5,56 172.4,55.8 	"/>
	<line class="st5" x1="173.8" y1="57.1" x2="173.8" y2="57.1"/>
	<polyline class="st5" points="142.7,43.4 142.4,43.6 142.1,44 141.8,44.4 141.6,45 141.4,45.5 141.3,46.1 141.2,46.8 141.2,47.4 	
		"/>
	<line class="st5" x1="141.2" y1="47.4" x2="144.9" y2="48"/>
	<line class="st5" x1="144.9" y1="48" x2="170.5" y2="52.4"/>
	<line class="st5" x1="170.5" y1="52.4" x2="174.3" y2="53.1"/>
	<line class="st5" x1="185" y1="43.7" x2="183.4" y2="44.6"/>
	<line class="st5" x1="176.7" y1="48.6" x2="176.7" y2="48.6"/>
	<line class="st5" x1="176.7" y1="48.6" x2="175.9" y2="49"/>
	<polyline class="st5" points="174.3,53.1 174.3,52.5 174.4,51.8 174.5,51.2 174.7,50.6 174.9,50.1 175.2,49.7 175.5,49.3 175.9,49 
			"/>
	<line class="st5" x1="174.3" y1="53.1" x2="174.4" y2="56.6"/>
	<polyline class="st5" points="145.4,50.9 145.3,50.9 145.2,50.8 	"/>
	<polyline class="st5" points="145.2,50.8 145,50.8 144.9,50.8 144.8,50.9 144.6,50.9 144.6,50.9 	"/>
	<polyline class="st5" points="183.9,57.8 183.8,58.1 183.7,58.2 183.7,58.2 183.6,58.3 183.5,58.3 183.4,58.2 183.3,58 183.2,57.8 
		183.2,57.7 183.2,57.5 183.2,57.4 183.3,57.1 	"/>
	<polyline class="st5" points="183.3,57.1 183.5,56.9 183.5,56.8 183.6,56.7 183.7,56.7 183.8,56.7 183.9,56.8 184,57 184,57.1 
		184.1,57.2 184.1,57.4 184,57.6 183.9,57.8 	"/>
	<line class="st5" x1="184.7" y1="35.6" x2="123.1" y2="25"/>
	<line class="st5" x1="201.1" y1="38.4" x2="194.2" y2="37.2"/>
	<line class="st5" x1="107.6" y1="67.9" x2="176.5" y2="79.7"/>
	<line class="st5" x1="185.2" y1="60.3" x2="185.1" y2="60.3"/>
	<line class="st5" x1="183.9" y1="67.7" x2="183.9" y2="67.7"/>
	<line class="st5" x1="193.3" y1="58.1" x2="190.3" y2="57.6"/>
	<line class="st5" x1="189.1" y1="64.5" x2="192.1" y2="65.1"/>
	<line class="st5" x1="193.1" y1="47.1" x2="193.2" y2="47.1"/>
	<line class="st5" x1="193.3" y1="46.1" x2="193.2" y2="46.1"/>
	<line class="st5" x1="191.2" y1="48.1" x2="191.3" y2="48.2"/>
	<line class="st5" x1="191.5" y1="47.2" x2="191.4" y2="47.2"/>
	<g>
		<line class="st5" x1="186.2" y1="34.1" x2="185.9" y2="34.2"/>
		<g>
			<line class="st5" x1="184.7" y1="36.1" x2="184.8" y2="36.9"/>
			<g>
				<polyline class="st5" points="193.1,39.9 193.4,39.7 193.6,39.4 193.7,39.2 193.7,39.1 				"/>
				<line class="st5" x1="193.7" y1="39.7" x2="193.7" y2="39.3"/>
				<line class="st5" x1="185.6" y1="39.6" x2="185.6" y2="40"/>
				<line class="st5" x1="193.4" y1="39.7" x2="193.4" y2="39.6"/>
				<line class="st5" x1="185.9" y1="39.9" x2="185.9" y2="40"/>
				<line class="st5" x1="185.6" y1="39.2" x2="185.6" y2="39.5"/>
				<line class="st5" x1="193.7" y1="39.1" x2="193.7" y2="38.9"/>
				<line class="st5" x1="184.8" y1="36.9" x2="185.1" y2="38.2"/>
				<line class="st5" x1="193.8" y1="38.7" x2="194" y2="38.4"/>
				<line class="st5" x1="185.2" y1="38.8" x2="185.4" y2="39"/>
				<line class="st5" x1="194.1" y1="38.1" x2="194.1" y2="37.9"/>
				<line class="st5" x1="185.1" y1="38.2" x2="185.1" y2="38.4"/>
				<g>
					<polyline class="st5" points="191.3,33.1 191.9,33.3 192.2,33.5 					"/>
					<line class="st5" x1="192.2" y1="33.5" x2="192.6" y2="33.6"/>
					<polyline class="st5" points="192.6,33.6 192.7,33.9 192.4,34.2 191.9,34.5 191.2,34.8 					"/>
					<line class="st5" x1="191.2" y1="34.8" x2="191.3" y2="34.9"/>
					<polyline class="st5" points="191.2,32.9 191.2,32.9 191.2,32.9 191.4,33 191.6,33.1 					"/>
					<polyline class="st5" points="191.3,33.1 191.5,33.1 191.6,33.1 					"/>
					<line class="st5" x1="191.3" y1="33" x2="191.1" y2="32.9"/>
					<g>
						<polyline class="st5" points="184.8,36.9 184.9,37.1 185.1,37.3 185.5,37.5 185.9,37.7 186.4,37.9 187,38 						"/>
						<line class="st5" x1="191" y1="32.9" x2="191.1" y2="32.9"/>
						<polyline class="st5" points="187,37.4 186.4,37.3 185.8,37.1 185.4,36.9 185,36.7 184.8,36.5 184.7,36.2 184.7,36.1 						
							"/>
						<polyline class="st5" points="187.2,39.4 186.7,39.3 186.2,39.2 185.7,39 185.4,38.8 185.2,38.6 185.1,38.3 185.1,38.2 						
							"/>
						<polyline class="st5" points="194.1,37.9 194.1,38 194,38.2 193.7,38.5 193.4,38.7 193,38.9 192.5,39.1 191.9,39.3 
							191.3,39.4 190.6,39.5 189.9,39.6 189.2,39.6 188.5,39.6 187.9,39.5 187.2,39.4 						"/>
						<polyline class="st5" points="187,38 187.7,38.1 188.4,38.1 189.1,38.1 189.9,38.1 190.6,38 191.3,37.9 192,37.8 192.6,37.6 
							193.1,37.4 193.6,37.2 193.9,37 194.1,36.7 194.2,36.5 						"/>
						<polyline class="st5" points="194.3,35.7 194.3,35.9 194.2,36.1 193.9,36.4 193.6,36.6 193.2,36.9 192.6,37.1 192,37.2 
							191.3,37.4 190.6,37.5 189.9,37.5 189.1,37.6 188.4,37.6 187.7,37.5 187,37.4 						"/>
						<polyline class="st5" points="186.7,40.9 186.8,40.9 187.2,41.1 187.7,41.2 188.3,41.3 188.9,41.3 189.6,41.3 190.2,41.3 
							190.8,41.2 191.4,41.1 191.9,40.9 192.4,40.8 192.7,40.7 						"/>
						<polyline class="st5" points="185.6,40 185.7,40.2 185.9,40.4 186.2,40.7 186.5,40.8 187,41 187.6,41.1 						"/>
						<polyline class="st5" points="187.6,41.1 188.2,41.2 188.8,41.2 189.5,41.2 190.2,41.2 190.8,41.1 191.5,41 192.1,40.9 
							192.6,40.7 193,40.5 193.3,40.3 193.6,40.1 193.7,39.8 193.7,39.7 						"/>
						<polyline class="st5" points="185.9,40 186.1,40.1 186.5,40.3 187,40.4 187.5,40.6 						"/>
						<polyline class="st5" points="187.5,40.6 188.1,40.6 188.8,40.7 189.5,40.7 190.1,40.7 190.8,40.6 191.5,40.5 192,40.3 
							192.5,40.2 193,40 193.3,39.7 193.4,39.7 						"/>
						<polyline class="st5" points="185.6,39.5 185.6,39.5 185.7,39.7 185.9,39.9 186.2,40.1 186.6,40.3 187.1,40.4 187.7,40.6 
							188.3,40.6 189,40.7 189.6,40.7 190.3,40.6 191,40.5 191.6,40.4 192.2,40.3 192.7,40.1 193.1,39.9 						"/>
						<polyline class="st5" points="188.8,34.2 189.1,34.3 189.5,34.3 189.8,34.2 190.2,34.2 190.4,34.1 190.6,33.9 190.7,33.8 
							190.6,33.7 190.5,33.6 190.2,33.5 189.9,33.4 189.5,33.4 189.2,33.4 188.8,33.5 188.5,33.6 188.3,33.7 188.2,33.8 188.2,33.9 
							188.3,34.1 188.5,34.2 188.8,34.2 						"/>
						<polyline class="st5" points="190.6,33 190.7,33 190.8,33 						"/>
						<polyline class="st5" points="190.7,32.9 190.6,33 190.6,33 						"/>
						<polyline class="st5" points="187.4,33.2 188.2,33 189,32.9 189.9,32.9 190.7,32.9 						"/>
						<polyline class="st5" points="188.3,34.5 187.7,34.3 187.5,34.2 187.3,34.1 187.3,33.9 187.3,33.8 187.6,33.5 188.1,33.3 
							188.5,33.2 188.9,33.1 189.4,33.1 189.8,33.1 190.5,33.2 						"/>
						<polyline class="st5" points="188.5,34.3 188.2,34.2 188,34.1 187.8,34 187.8,33.9 187.8,33.7 188,33.6 188.3,33.5 
							188.6,33.4 189,33.3 189.5,33.3 189.9,33.3 190.3,33.3 190.6,33.4 190.9,33.5 191,33.6 191,33.8 191,33.9 190.8,34.1 
							190.5,34.2 190.2,34.3 189.8,34.3 189.4,34.4 188.9,34.4 188.5,34.3 						"/>
						<polyline class="st5" points="186.6,34 186.7,34 186.8,34 						"/>
						<polyline class="st5" points="186.8,34 186.7,33.9 186.6,33.8 						"/>
						<polyline class="st5" points="187.9,34.7 187.4,34.6 187,34.5 186.7,34.3 186.6,34 						"/>
						<line class="st5" x1="187.9" y1="34.7" x2="188.6" y2="34.8"/>
						<line class="st5" x1="190.3" y1="34.8" x2="190.8" y2="34.5"/>
						<line class="st5" x1="190.8" y1="34.5" x2="191" y2="34.6"/>
						<polyline class="st5" points="191,34.6 191.4,34.5 191.7,34.3 191.9,34.2 192,34.2 192.1,34.1 192.3,33.8 192.2,33.5 						
							"/>
						<line class="st5" x1="191.3" y1="33.1" x2="190.8" y2="33"/>
						<polyline class="st5" points="190.5,33.2 191,33.3 191.4,33.5 191.5,33.6 191.5,33.8 191.4,33.9 191.2,34.1 190.9,34.3 
							190.5,34.4 190,34.5 189.6,34.5 188.9,34.5 188.3,34.5 						"/>
						<line class="st5" x1="186.5" y1="33.7" x2="186.6" y2="33.8"/>
						<polyline class="st5" points="186.6,33.8 186.8,33.6 186.9,33.5 187,33.4 187.1,33.3 187.4,33.2 						"/>
						<line class="st5" x1="187.4" y1="33.2" x2="187.2" y2="33.2"/>
						<polyline class="st5" points="187.2,33.2 188,33 189,32.9 190,32.8 190.9,32.9 						"/>
						<line class="st5" x1="190.9" y1="32.9" x2="191" y2="32.9"/>
						<line class="st5" x1="191.1" y1="32.9" x2="191.2" y2="32.9"/>
						<polyline class="st5" points="187.7,34.9 187.1,34.8 186.7,34.6 186.3,34.4 186.2,34.1 						"/>
						<line class="st5" x1="185.9" y1="34.2" x2="186.5" y2="33.7"/>
						<polyline class="st5" points="185.4,39 185.4,39 185.6,39.2 186,39.4 186.4,39.6 186.9,39.7 187.5,39.9 188.1,39.9 188.8,40 
							189.5,40 190.2,39.9 190.9,39.9 191.5,39.7 192.1,39.6 192.6,39.4 193.1,39.2 193.5,39 193.7,38.8 193.8,38.7 						"/>
						<polyline class="st5" points="194.1,38.1 194.1,38.2 194,38.5 193.7,38.7 193.4,38.9 193,39.1 192.5,39.3 191.9,39.5 
							191.3,39.6 190.6,39.7 189.9,39.8 189.2,39.8 188.5,39.8 187.9,39.7 187.2,39.6 						"/>
						<polyline class="st5" points="187.2,39.6 186.7,39.5 186.2,39.4 185.8,39.2 185.4,39 185.2,38.8 185.1,38.5 185.1,38.4 						
							"/>
						<line class="st5" x1="191.3" y1="34.9" x2="190.1" y2="34.9"/>
						<line class="st5" x1="190.1" y1="34.9" x2="190.3" y2="34.8"/>
						<polyline class="st5" points="190.3,34.8 189.5,34.8 188.6,34.8 						"/>
						<line class="st5" x1="188.6" y1="34.8" x2="188.5" y2="35"/>
						<line class="st5" x1="188.5" y1="35" x2="187.7" y2="34.9"/>
						<polyline class="st5" points="191.1,32.9 191,32.9 190.9,32.9 						"/>
						<polyline class="st5" points="190.9,32.9 190.6,32.9 189.9,32.8 189.3,32.8 188.6,32.9 187.6,33.1 186.9,33.3 186.5,33.4 
							186.1,33.7 185.7,34 185.3,34.4 185,34.8 184.7,35.4 184.7,36.1 						"/>
					</g>
					<line class="st5" x1="194.1" y1="37.9" x2="194.2" y2="36.5"/>
					<line class="st5" x1="194.2" y1="36.5" x2="194.3" y2="35.7"/>
					<polyline class="st5" points="194.3,35.7 194.3,35.3 194.1,34.9 193.9,34.5 193.6,34.1 193.1,33.7 192.5,33.3 191.9,33.1 
						191.3,33 					"/>
				</g>
			</g>
		</g>
	</g>
	<line class="st5" x1="203.5" y1="63.4" x2="203.2" y2="63.4"/>
	<line class="st5" x1="196.3" y1="72.3" x2="198.7" y2="72.7"/>
	<line class="st5" x1="177.6" y1="82" x2="181.5" y2="82.6"/>
	<line class="st5" x1="103.5" y1="69.2" x2="107.3" y2="69.9"/>
	<line class="st5" x1="196.6" y1="58.3" x2="196.2" y2="58.3"/>
	<line class="st5" x1="195.8" y1="58.6" x2="196.5" y2="58.7"/>
	<line class="st5" x1="196.5" y1="57.5" x2="196.2" y2="57.4"/>
	<line class="st5" x1="196" y1="57.8" x2="196.5" y2="57.9"/>
	<line class="st5" x1="196.7" y1="59.5" x2="195.9" y2="59.3"/>
	<line class="st5" x1="196.2" y1="58.1" x2="195.9" y2="58.1"/>
	<line class="st5" x1="195.8" y1="58.4" x2="196.1" y2="58.5"/>
	<line class="st5" x1="196" y1="57.7" x2="196.1" y2="57.7"/>
	<line class="st5" x1="194.6" y1="60.5" x2="194.8" y2="60.5"/>
	<line class="st5" x1="195.6" y1="55.8" x2="195.2" y2="55.7"/>
	<line class="st5" x1="197" y1="56.3" x2="195.6" y2="56.1"/>
	<line class="st5" x1="194.9" y1="60.2" x2="196.2" y2="60.5"/>
	<line class="st5" x1="200.8" y1="55.8" x2="200.4" y2="55.8"/>
	<line class="st5" x1="200" y1="56.1" x2="200.7" y2="56.2"/>
	<line class="st5" x1="200.8" y1="55" x2="200.4" y2="55"/>
	<line class="st5" x1="200.2" y1="55.3" x2="200.7" y2="55.4"/>
	<line class="st5" x1="200.9" y1="57" x2="200.1" y2="56.9"/>
	<line class="st5" x1="200.4" y1="55.7" x2="200.1" y2="55.6"/>
	<line class="st5" x1="200" y1="56" x2="200.3" y2="56"/>
	<line class="st5" x1="200.2" y1="55.2" x2="200.3" y2="55.2"/>
	<line class="st5" x1="198.6" y1="58" x2="199" y2="58.1"/>
	<line class="st5" x1="199.9" y1="53.3" x2="199.4" y2="53.2"/>
	<line class="st5" x1="201.2" y1="53.9" x2="199.8" y2="53.6"/>
	<line class="st5" x1="199.1" y1="57.7" x2="200.5" y2="58"/>
	<line class="st5" x1="143.3" y1="42.7" x2="143.3" y2="42.9"/>
	<line class="st5" x1="142.6" y1="51.5" x2="143" y2="51.3"/>
	<line class="st5" x1="183.7" y1="44.8" x2="183.7" y2="44.8"/>
	<line class="st5" x1="174.1" y1="57" x2="174.4" y2="56.9"/>
	<line class="st5" x1="183.6" y1="56.3" x2="183.4" y2="56.3"/>
	<line class="st5" x1="183" y1="58.5" x2="183.2" y2="58.5"/>
	<polyline class="st5" points="183.2,58.5 183.4,58.5 183.6,58.4 183.7,58.3 183.9,58.1 183.9,58 184,57.8 184.1,57.5 	"/>
	<polyline class="st5" points="184.1,57.5 184.1,57.2 184.1,57.1 184.1,56.9 184,56.7 183.9,56.5 183.8,56.4 183.6,56.3 183.6,56.3 
			"/>
</g>
<g>
	<path d="M212.1,62.5h2.5c1.3,0,2.2,0.7,2.2,2c0,1.3-0.9,2-2.3,2h-1.6v2.8H212v-6.8H212.1z M213,65.7h1.6c0.9,0,1.4-0.4,1.4-1.2
		c0-0.8-0.6-1.2-1.3-1.2h-1.6L213,65.7L213,65.7z"/>
	<path d="M217.9,65.6c0-0.7,0-1.1,0-1.3h0.8c0,0.1,0,0.5,0,1c0.3-0.7,0.8-1.1,1.6-1.1V65c-1,0-1.6,0.6-1.6,1.8v2.4h-0.8V65.6z"/>
	<path d="M221.2,62.1h0.8v1.1h-0.8V62.1z M221.2,64.3h0.8v4.9h-0.8V64.3z"/>
	<path d="M223.8,64.3c0.7,2,1.1,3.5,1.3,4.1l0,0c0.1-0.5,0.6-2,1.4-4.1h0.9l-1.8,4.9h-0.9l-1.7-4.9C223,64.3,223.8,64.3,223.8,64.3z
		"/>
	<path d="M231.7,68.1c0,0.4,0,0.9,0.1,1.1H231c0-0.1-0.1-0.3-0.1-0.6c-0.2,0.3-0.6,0.8-1.5,0.8c-1.2,0-1.6-0.8-1.6-1.5
		c0-1.1,0.9-1.6,2.3-1.6c0.3,0,0.7,0,0.8,0v-0.4c0-0.4-0.1-1-1.1-1c-0.8,0-1,0.4-1,0.8H228c0.1-0.7,0.5-1.5,1.9-1.4
		c1.2,0,1.9,0.5,1.9,1.6L231.7,68.1L231.7,68.1z M230.9,66.8c-0.2,0-0.5,0-0.8,0c-1,0-1.5,0.3-1.5,1c0,0.5,0.3,0.9,1,0.9
		c1.2,0,1.3-0.8,1.3-1.7V66.8z"/>
	<path d="M232.5,64.3h0.8v-1.4h0.8v1.4h1.1V65h-1.1v2.9c0,0.5,0.1,0.7,0.6,0.7c0.1,0,0.3,0,0.4,0v0.6c-0.2,0.1-0.5,0.1-0.7,0.1
		c-0.8,0-1.1-0.4-1.1-1.2V65h-0.8V64.3z"/>
	<path d="M236.6,66.9c0,1,0.5,1.7,1.3,1.7s1-0.4,1.2-0.8h0.9c-0.2,0.6-0.7,1.5-2.1,1.5c-1.5,0-2.2-1.2-2.2-2.5
		c0-1.5,0.7-2.6,2.2-2.6c1.6,0,2.1,1.3,2.1,2.3c0,0.1,0,0.3,0,0.4H236.6z M239.2,66.3c0-0.8-0.4-1.5-1.3-1.5c-0.9,0-1.2,0.6-1.3,1.5
		H239.2z"/>
	<path d="M243.7,62.5h2.5c1.3,0,2.2,0.7,2.2,2c0,1.3-0.9,2-2.3,2h-1.6v2.8h-0.9v-6.8H243.7z M244.6,65.7h1.6c0.9,0,1.4-0.4,1.4-1.2
		c0-0.8-0.6-1.2-1.3-1.2h-1.6L244.6,65.7L244.6,65.7z"/>
	<path d="M249.5,65.6c0-0.7,0-1.1,0-1.3h0.8c0,0.1,0,0.5,0,1c0.3-0.7,0.8-1.1,1.6-1.1V65c-1,0-1.6,0.6-1.6,1.8v2.4h-0.8V65.6z"/>
	<path d="M257,66.7c0,1.4-0.8,2.6-2.3,2.6c-1.4,0-2.2-1.1-2.2-2.6c0-1.4,0.8-2.6,2.3-2.6C256.1,64.2,257,65.2,257,66.7z M253.3,66.7
		c0,1.1,0.5,1.9,1.4,1.9s1.4-0.7,1.4-1.9c0-1.1-0.5-1.9-1.4-1.9C253.8,64.9,253.3,65.6,253.3,66.7z"/>
	<path d="M257.5,64.3h0.8v-1.4h0.8v1.4h1.1V65h-1.1v2.9c0,0.5,0.1,0.7,0.6,0.7c0.1,0,0.3,0,0.4,0v0.6c-0.2,0.1-0.5,0.1-0.7,0.1
		c-0.8,0-1.1-0.4-1.1-1.2V65h-0.8L257.5,64.3L257.5,64.3z"/>
	<path d="M265.3,66.7c0,1.4-0.8,2.6-2.3,2.6c-1.4,0-2.2-1.1-2.2-2.6c0-1.4,0.8-2.6,2.3-2.6C264.4,64.2,265.3,65.2,265.3,66.7z
		 M261.6,66.7c0,1.1,0.5,1.9,1.4,1.9s1.4-0.7,1.4-1.9c0-1.1-0.5-1.9-1.4-1.9C262.1,64.9,261.6,65.6,261.6,66.7z"/>
	<path d="M270.3,67.7c-0.2,0.8-0.8,1.6-2,1.6c-1.3,0-2.2-1-2.2-2.5c0-1.4,0.8-2.6,2.2-2.6c1.4,0,1.9,1,2,1.6h-0.8
		c-0.1-0.5-0.4-0.9-1.1-0.9c-0.9,0-1.4,0.7-1.4,1.9c0,1.1,0.5,1.9,1.3,1.9c0.6,0,1-0.3,1.2-0.9L270.3,67.7L270.3,67.7z"/>
	<path d="M275.6,66.7c0,1.4-0.8,2.6-2.3,2.6c-1.4,0-2.2-1.1-2.2-2.6c0-1.4,0.8-2.6,2.3-2.6C274.7,64.2,275.6,65.2,275.6,66.7z
		 M271.9,66.7c0,1.1,0.5,1.9,1.4,1.9s1.4-0.7,1.4-1.9c0-1.1-0.5-1.9-1.4-1.9C272.4,64.9,271.9,65.6,271.9,66.7z"/>
	<path d="M276.7,69.2v-7.1h0.8v7.1H276.7z"/>
</g>
</svg>
