<?xml version="1.0" encoding="UTF-8"?>
<svg version="1.1" xmlns="http://www.w3.org/2000/svg" width="801" height="387">
<path d="M0 0 C264 0 528 0 800 0 C800 127.38 800 254.76 800 386 C536 386 272 386 0 386 C0 258.62 0 131.24 0 0 Z " fill="#26343E" transform="translate(0,0)"/>
<path d="M0 0 C10.38721237 5.03622418 15.00542466 15.82377414 19 26 C19.69738281 25.83113281 20.39476562 25.66226563 21.11328125 25.48828125 C29.85815396 24.00910792 39.27943761 25.62831403 47 30 C47.33 30.66 47.66 31.32 48 32 C45.05594026 39.2078704 38.66787496 45.53875684 31.8515625 49.1328125 C25.24614599 51.73954775 18.98632655 52.12045391 12 52 C11.649375 53.216875 11.29875 54.43375 10.9375 55.6875 C8.75637606 62.2103918 5.41512191 68.05383785 2 74 C1.47535156 74.93070312 0.95070313 75.86140625 0.41015625 76.8203125 C-4.37209394 84.84139717 -10.53445778 91.33653301 -17 98 C-17.74507812 98.78503906 -18.49015625 99.57007813 -19.2578125 100.37890625 C-20.79098814 101.96660906 -22.38763126 103.49278575 -24 105 C-24.66 105 -25.32 105 -26 105 C-26 105.66 -26 106.32 -26 107 C-26.969375 107.53625 -27.93875 108.0725 -28.9375 108.625 C-30.97210486 109.77046652 -32.89474095 110.92128859 -34.765625 112.3203125 C-56.15897838 128.23488026 -88.57191422 132.99613175 -114.47412109 129.68359375 C-133.70131761 126.20691832 -153.99645464 116.22315711 -165.78833008 100.21972656 C-175.9049112 85.63052905 -180.34845184 69.73732806 -179 52 C-178.68356965 50.6625544 -178.35311033 49.32823265 -178 48 C-177.19253987 47.99853344 -176.38507975 47.99706688 -175.55315113 47.99555588 C-155.86215582 47.9584265 -136.17133701 47.89933075 -116.48048115 47.81609726 C-106.95793201 47.77636932 -97.43546476 47.74394519 -87.9128418 47.72900391 C-79.60826382 47.71595492 -71.30386651 47.68890782 -62.9993903 47.64538693 C-58.60642127 47.62284484 -54.21367447 47.60708494 -49.82064247 47.60811615 C-45.67629917 47.60886708 -41.53244576 47.59074451 -37.38822937 47.55883217 C-35.87629625 47.5503913 -34.36430779 47.5485432 -32.85236168 47.55419731 C-22.42873076 47.58795193 -11.92306706 46.94871137 -3 41 C-3.27714844 40.39671875 -3.55429687 39.7934375 -3.83984375 39.171875 C-4.20207031 38.37265625 -4.56429687 37.5734375 -4.9375 36.75 C-5.29714844 35.96109375 -5.65679687 35.1721875 -6.02734375 34.359375 C-9.40651575 26.16250798 -9.01229381 17.64724249 -5.6875 9.5 C-4.11551401 5.98781508 -2.41222137 2.9993603 0 0 Z " fill="#1EB5F7" transform="translate(309,138)"/>
<path d="M0 0 C264 0 528 0 800 0 C800 127.38 800 254.76 800 386 C536 386 272 386 0 386 C0 258.62 0 131.24 0 0 Z M2 2 C2 128.06 2 254.12 2 384 C264.68 384 527.36 384 798 384 C798 257.94 798 131.88 798 2 C535.32 2 272.64 2 2 2 Z " fill="#2E54A1" transform="translate(0,0)"/>
<path d="M0 0 C7.26 0 14.52 0 22 0 C22 7.59 22 15.18 22 23 C14.74 23 7.48 23 0 23 C0 15.41 0 7.82 0 0 Z " fill="#1A9AC6" transform="translate(171,125)"/>
<path d="M0 0 C7.26 0 14.52 0 22 0 C22 7.26 22 14.52 22 22 C14.74 22 7.48 22 0 22 C0 14.74 0 7.48 0 0 Z " fill="#1A9AC6" transform="translate(257,156)"/>
<path d="M0 0 C7.26 0 14.52 0 22 0 C22 7.26 22 14.52 22 22 C14.74 22 7.48 22 0 22 C0 14.74 0 7.48 0 0 Z " fill="#1A9AC6" transform="translate(171,156)"/>
<path d="M0 0 C7.26 0 14.52 0 22 0 C22 7.26 22 14.52 22 22 C14.74 22 7.48 22 0 22 C0 14.74 0 7.48 0 0 Z " fill="#1A9AC6" transform="translate(142,156)"/>
<path d="M0 0 C6.93 0 13.86 0 21 0 C21 7.59 21 15.18 21 23 C14.07 23 7.14 23 0 23 C0 15.41 0 7.82 0 0 Z " fill="#1A9AC6" transform="translate(229,125)"/>
<path d="M0 0 C6.93 0 13.86 0 21 0 C21 7.59 21 15.18 21 23 C14.07 23 7.14 23 0 23 C0 15.41 0 7.82 0 0 Z " fill="#1A9AC6" transform="translate(200,125)"/>
<path d="M0 0 C6.93 0 13.86 0 21 0 C21 7.59 21 15.18 21 23 C14.07 23 7.14 23 0 23 C0 15.41 0 7.82 0 0 Z " fill="#1A9AC6" transform="translate(229,94)"/>
<path d="M0 0 C3.57858038 2.17826632 5.41140748 4.17198189 7 8 C7.5822518 12.22699682 7.44569111 15.92095837 5.8125 19.875 C2.66613947 23.56383648 0.30019235 24.88594804 -4.5625 25.3125 C-9.42853084 24.87013356 -10.98323482 24.12973909 -14.25 20.5 C-16.55950715 15.88098569 -16.84743984 12.07616464 -16 7 C-12.27290723 0.61069811 -7.26510985 -1.18437179 0 0 Z " fill="#263641" transform="translate(180,208)"/>
<path d="M0 0 C6.93 0 13.86 0 21 0 C21 7.26 21 14.52 21 22 C14.07 22 7.14 22 0 22 C0 14.74 0 7.48 0 0 Z " fill="#1A9AC6" transform="translate(229,156)"/>
<path d="M0 0 C6.93 0 13.86 0 21 0 C21 7.26 21 14.52 21 22 C14.07 22 7.14 22 0 22 C0 14.74 0 7.48 0 0 Z " fill="#1A9AC6" transform="translate(200,156)"/>
<path d="M0 0 C2 2 2 2 2.375 5.9375 C2.29434554 8.89483011 2.23854038 9.70845065 0.3125 12.0625 C-2.63772095 13.25853552 -4.02043802 13.06958635 -7 12 C-8.875 10.875 -8.875 10.875 -10 9 C-9.93232476 5.21018637 -9.78500575 2.89714943 -7.25 0 C-4.36699859 -1.28133396 -2.95378439 -1.01050518 0 0 Z " fill="#1A98C3" transform="translate(179,214)"/>
</svg>
