<svg xmlns="http://www.w3.org/2000/svg" xmlns:xlink="http://www.w3.org/1999/xlink" fill="none" version="1.1" width="508" height="286" viewBox="0 0 508 286"><defs><clipPath id="master_svg0_175_01342"><rect x="0" y="0" width="508" height="286" rx="0"/></clipPath></defs><g clip-path="url(#master_svg0_175_01342)"><rect x="0" y="0" width="508" height="286" rx="0" fill="#27343E" fill-opacity="1"/><g><g><line x1="72" y1="122.490234375" x2="113.38613510131836" y2="122.490234375" fill-opacity="0" stroke-opacity="1" stroke="#55A4F1" fill="none" stroke-width="10" stroke-linecap="ROUND"/></g><g><path d="M107.326525,97.349215Q107.688525,96.759145,107.876625,96.092905Q108.064725,95.42666,108.064725,94.734375Q108.064725,94.611632,108.058725,94.489037Q108.052725,94.366441,108.040625,94.244289Q108.028625,94.122137,108.010625,94.000723Q107.992625,93.879308,107.968625,93.758924Q107.944725,93.638535,107.91482500000001,93.519475Q107.885025,93.400405,107.849425,93.282955Q107.81382500000001,93.16549499999999,107.772425,93.049925Q107.73112499999999,92.934355,107.684125,92.820955Q107.637125,92.707555,107.584625,92.596595Q107.532225,92.485645,107.474325,92.377395Q107.416425,92.269145,107.353325,92.163865Q107.29022499999999,92.058585,107.222025,91.956525Q107.153825,91.854465,107.080725,91.755875Q107.007625,91.657295,106.929725,91.562405Q106.851925,91.467525,106.769425,91.376585Q106.687025,91.285635,106.600225,91.198845Q106.513425,91.112045,106.42252500000001,91.029615Q106.331525,90.947195,106.236725,90.869325Q106.141825,90.791455,106.043225,90.718335Q105.944625,90.64521500000001,105.842525,90.577025Q105.740525,90.508835,105.63522499999999,90.445735Q105.52992499999999,90.382625,105.421725,90.324765Q105.313425,90.266905,105.20252500000001,90.214425Q105.091525,90.161945,104.978125,90.114975Q104.86472499999999,90.068005,104.74912499999999,90.026655Q104.633625,89.985305,104.516125,89.949675Q104.398725,89.914045,104.279625,89.884215Q104.160525,89.854395,104.040125,89.830445Q103.919825,89.806505,103.798325,89.788495Q103.676925,89.770485,103.554825,89.758455Q103.432625,89.746425,103.310025,89.740395Q103.187425,89.734375,103.064725,89.734375Q102.745425,89.734375,102.428625,89.774995Q102.111925,89.815625,101.802925,89.896205Q101.493925,89.976795,101.19772499999999,90.096025Q100.901425,90.215265,100.622825,90.371225Q100.34412499999999,90.527175,100.087625,90.717315Q99.831025,90.907445,99.600725,91.128675Q99.370525,91.349905,99.170225,91.598625Q98.969925,91.847355,98.802925,92.119535Q98.801525,92.121925,98.800025,92.124315Q87.527435,110.497475,82.357389,124.437975Q76.942765,139.037775,78.094315,149.22887500000002Q78.724095,154.80237499999998,81.287905,159.112375Q83.902555,163.507875,88.409195,166.410675Q96.672125,171.732875,111.185725,171.79557499999999L116.18572499999999,171.81717500000002L116.228925,161.817275L111.228925,161.79567500000002Q99.633625,161.745575,93.824225,158.003675Q91.294675,156.374375,89.882325,154.000075Q88.419135,151.540275,88.031085,148.106075Q87.146975,140.281775,91.733355,127.915175Q96.563625,114.890875,107.326525,97.349215Z" fill-rule="evenodd" fill="#55A4F1" fill-opacity="1"/></g><g><path d="M203.331371875,162.858259375Q197.340971875,165.516959375,188.086571875,162.105359375L183.395171875,160.375759375L179.936271875,169.758559375L184.627671875,171.488059375Q197.689071875,176.303159375,207.388071875,171.998459375Q217.070771875,167.700859375,222.36347187500002,154.762759375Q226.16057187500002,145.494359375,224.735471875,137.156259375Q223.45517187500002,129.665259375,218.192971875,123.878049375Q213.683471875,118.918706375,207.188471875,116.168989375Q201.086471875,113.585649375,195.327171875,113.769789375Q189.974171875,113.92909937499999,185.457971875,115.987989375Q181.777171875,117.666009375,178.919571875,120.477059375Q176.810571875,122.551659375,175.444571875,124.920149375Q174.901771875,125.861269375,174.58947187500002,126.664059375Q174.37027187500001,127.227279375,174.265271875,127.745339375L152.227331875,191.364759375L152.226601875,191.366859375Q151.951171875,192.162059375,151.951171875,193.003459375Q151.951171875,193.12625937500002,151.957191875,193.248859375Q151.963221875,193.371459375,151.975251875,193.49355937500002Q151.987281875,193.61575937499998,152.005291875,193.737159375Q152.023301875,193.858559375,152.047241875,193.978959375Q152.071191875,194.099359375,152.101011875,194.218359375Q152.130841875,194.33745937499998,152.166471875,194.454959375Q152.202101875,194.57235937500002,152.243451875,194.687959375Q152.284801875,194.803459375,152.331771875,194.916859375Q152.378741875,195.030359375,152.431221875,195.141259375Q152.483701875,195.252259375,152.541561875,195.360459375Q152.599421875,195.468759375,152.662531875,195.57395937500002Q152.725631875,195.67925937500002,152.793821875,195.781359375Q152.862011875,195.883359375,152.935131875,195.981959375Q153.008251875,196.080559375,153.086121875,196.175459375Q153.163991875,196.270359375,153.246411875,196.361259375Q153.328841875,196.45225937499998,153.415641875,196.539059375Q153.502431875,196.625759375,153.593381875,196.708259375Q153.684321875,196.79065937500002,153.779201875,196.86855937500002Q153.874091875,196.946359375,153.972671875,197.019559375Q154.071261875,197.09265937499998,154.173321875,197.160859375Q154.275381875,197.22905937500002,154.380661875,197.29215937499998Q154.485941875,197.355259375,154.594191875,197.413059375Q154.702441875,197.470959375,154.813391875,197.52345937500002Q154.924351875,197.575859375,155.037751875,197.62285937500002Q155.151151875,197.669859375,155.266721875,197.711159375Q155.382291875,197.752559375,155.499751875,197.78815937500002Q155.617201875,197.82385937499998,155.736271875,197.853659375Q155.855331875,197.883459375,155.975720875,197.907459375Q156.096104875,197.931359375,156.217519875,197.949359375Q156.338933875,197.967359375,156.461085875,197.979459375Q156.583237875,197.991459375,156.705833875,197.997459375Q156.828428875,198.003459375,156.951171875,198.003459375Q157.144600875,198.003459375,157.337452875,197.988559375Q157.530303875,197.97355937499998,157.721423875,197.943759375Q157.912544875,197.913959375,158.100791875,197.869559375Q158.289041875,197.825059375,158.473291875,197.766159375Q158.657531875,197.707259375,158.836681875,197.634359375Q159.015831875,197.561359375,159.188811875,197.474859375Q159.361791875,197.38825937500002,159.527561875,197.288559375Q159.693331875,197.188959375,159.850911875,197.076759375Q160.008491875,196.964559375,160.156931875,196.840559375Q160.305371875,196.716559375,160.443791875,196.581459375Q160.582201875,196.446259375,160.709771875,196.30085937500002Q160.837331875,196.15545937500002,160.953281875,196.000659375Q161.069231875,195.845859375,161.172871875,195.68255937499998Q161.276511875,195.51915937500002,161.367221875,195.348359375Q161.457941875,195.177559375,161.535181875,195.000159375Q161.612421875,194.822859375,161.675741875,194.64005937500002L161.676471875,194.63795937499998L183.913771875,130.442859375Q183.981471875,130.247359375,184.032871875,130.046959375Q184.065871875,129.987659375,184.107171875,129.916159375Q184.793271875,128.726359375,185.932271875,127.605979375Q189.655971875,123.942999375,195.646671875,123.764679375Q199.210571875,123.650739375,203.28987187500002,125.377729375Q207.76237187499999,127.271199375,210.794271875,130.605659375Q214.090471875,134.230559375,214.878371875,138.840959375Q215.820771875,144.35475937500001,213.107971875,150.976459375Q209.337971875,160.192259375,203.331371875,162.858259375ZM178.567071875,123.845159375Q177.323271875,123.987739375,176.265471875,124.750209375Q176.774971875,124.382969375,177.359471875,124.153129375Q177.943971875,123.923299375,178.567071875,123.845159375Z" fill-rule="evenodd" fill="#55A4F1" fill-opacity="1"/></g><g><ellipse cx="259.32758140563965" cy="118.75478172302246" rx="23.96039390563965" ry="24.02040672302246" fill="#0E71C2" fill-opacity="1"/></g><g><ellipse cx="277.84200859069824" cy="100.19387722015381" rx="14.158414840698242" ry="14.193877220153809" fill="#55A4F1" fill-opacity="1"/></g><g><path d="M153.795878125,126.341163125Q153.797778125,126.341553125,153.799778125,126.341943125Q154.281178125,126.437353125,154.771878125,126.437353125Q154.89467812499998,126.437353125,155.017278125,126.431333125Q155.139878125,126.425313125,155.26197812499998,126.413283125Q155.384178125,126.401253125,155.505578125,126.383243125Q155.626978125,126.365233125,155.747378125,126.341283125Q155.867778125,126.317333125,155.986778125,126.287513125Q156.105878125,126.257693125,156.223378125,126.222063125Q156.34077812499999,126.186423125,156.45637812500001,126.145073125Q156.571878125,126.103723125,156.685278125,126.056753125Q156.798678125,126.009783125,156.909678125,125.957303125Q157.020678125,125.90482312500001,157.128878125,125.846963125Q157.237178125,125.789103125,157.342378125,125.726003125Q157.447678125,125.662893125,157.549778125,125.594703125Q157.651778125,125.526513125,157.750378125,125.453393125Q157.848978125,125.380273125,157.943878125,125.302413125Q158.038778125,125.224543125,158.129678125,125.142113125Q158.220678125,125.059683125,158.307478125,124.972893125Q158.394278125,124.886093125,158.476678125,124.795153125Q158.55907812499998,124.704203125,158.63697812499998,124.609323125Q158.714778125,124.514443125,158.787978125,124.415853125Q158.861078125,124.317263125,158.929278125,124.215203125Q158.997478125,124.113153125,159.060578125,124.007873125Q159.123678125,123.902593125,159.181478125,123.794343125Q159.239378125,123.686093125,159.29187812499998,123.575133125Q159.344378125,123.464173125,159.39127812499999,123.350773125Q159.438278125,123.237373125,159.479678125,123.121803125Q159.520978125,123.006233125,159.556578125,122.888783125Q159.592278125,122.771323125,159.622078125,122.652253125Q159.651878125,122.533193125,159.675878125,122.412813125Q159.699778125,122.292423125,159.717778125,122.171013125Q159.735778125,122.049593125,159.747878125,121.927442125Q159.759878125,121.805290125,159.765878125,121.682695125Q159.771878125,121.560100125,159.771878125,121.437357125Q159.771878125,121.222361125,159.75347812500002,121.008158725Q159.734978125,120.793956125,159.698178125,120.582129125Q159.661478125,120.370301125,159.606578125,120.162412125Q159.551778125,119.954523125,159.47937812499998,119.752103125Q159.406878125,119.549693125,159.317278125,119.354243125Q159.227778125,119.158793125,159.12167812500002,118.971753125Q159.015678125,118.784723125,158.893978125,118.607473125Q158.772278125,118.430223125,158.635878125,118.264073125Q158.499478125,118.097933125,158.349178125,117.944103125Q158.198978125,117.790283125,158.036178125,117.649923125Q157.873278125,117.509563125,157.698978125,117.383703125Q157.524678125,117.257843125,157.340278125,117.147403125Q157.155778125,117.036963125,156.962478125,116.942773125Q156.769278125,116.848583125,156.568578125,116.771323125Q156.367978125,116.694063125,156.161478125,116.634313125Q155.954878125,116.574573125,155.743978125,116.532773125Q152.750578125,115.939453125,149.814578125,115.939453125Q144.104778125,115.939453125,138.872478125,118.033393125Q133.795028125,120.065396125,129.868268125,123.779883125Q125.909719125,127.524433125,123.728958125,132.402153125Q121.455078125,137.488253125,121.455078125,143.060753125Q121.455078125,147.840053125,123.135338125,152.294153125Q124.752868125,156.581853125,127.760458125,160.134753125Q130.718498125,163.62915312500002,134.693898125,166.026953125Q138.719978125,168.455353125,143.351978125,169.49215312500002L148.231278125,170.584353125L150.415578125,160.825753125L145.536278125,159.733653125Q142.491778125,159.052153125,139.85877812500001,157.464053125Q137.289778125,155.914553125,135.392958125,153.673753125Q131.455078125,149.021853125,131.455078125,143.060753125Q131.455078125,139.621853125,132.858108125,136.483653125Q134.226918125,133.422053125,136.740278125,131.044553125Q139.281378125,128.640843125,142.587978125,127.317523125Q146.031478125,125.939453125,149.814578125,125.939453125Q151.765278125,125.939453125,153.791778125,126.34035312500001Q153.793778125,126.340753125,153.795878125,126.341163125Z" fill-rule="evenodd" fill="#55A4F1" fill-opacity="1"/></g></g></g></svg>
