<svg xmlns="http://www.w3.org/2000/svg" xmlns:xlink="http://www.w3.org/1999/xlink" fill="none" version="1.1" width="508" height="286" viewBox="0 0 508 286"><defs><clipPath id="master_svg0_175_01537"><rect x="0" y="0" width="508" height="286" rx="0"/></clipPath></defs><g clip-path="url(#master_svg0_175_01537)"><rect x="0" y="0" width="508" height="286" rx="0" fill="#27343E" fill-opacity="1"/><g><path d="M98.86959999999999,141.66219999999998C99.963,141.48,101.0563,141.3585,102.14959999999999,141.3585L101.2385,141.3585L130.8193,141.3585C132.09480000000002,141.3585,133.3096,141.1763,134.5245,140.8726C139.99110000000002,139.35410000000002,144,134.4948,144,128.48149999999998L144,103.6385C144,96.59259,137.98669999999998,91.24741,130.8193,90.09333C126.2637,89.364444,119.643,89,115.1481,89C110.6533,89,106.3407,89.425185,102.5141,90.09333C91.3378,92.03704,89.33330000000001,96.10667,89.33330000000001,103.6385L89.33330000000001,111.7778L116.66669999999999,111.7778L116.66669999999999,116.33330000000001L80.4652,116.33330000000001C70.32148,116.33330000000001,62.0607405,128.48149999999998,62,143.4237L62,143.6667C62,146.4,62.242963,149.0119,62.78963,151.4415C65.03704,162.73930000000001,72.083,171,80.4652,171L84.7778,171L84.7778,157.9408C84.7778,150.2874,90.48740000000001,143.1807,98.86959999999999,141.66219999999998ZM101.7852,106.9185C99.0519,106.9185,96.8044,104.6711,96.8652,101.9378C96.8652,99.20439999999999,99.0519,96.95704,101.7852,96.95704C104.5185,96.95704,106.7659,99.20439999999999,106.7659,101.9378C106.70519999999999,104.7319,104.5185,106.9185,101.7852,106.9185Z" fill="#55A4F1" fill-opacity="1"/></g><g><path d="M169.8459,133.7881C167.2341,123.40665,160.4919,116,152.5348,116L148.2222,116L148.2222,127.5957C148.2222,137.2486,141.9052,144.2303,134.1304,145.4445C133.3407,145.5659,132.5511,145.6266,131.7615,145.6266L102.1807,145.6266C100.90520000000001,145.6266,99.6904,145.8087,98.47556,146.1123C93.00889,147.5693,89,152.0619,89,157.95080000000002L89,182.7813C89,189.8237,96.10667,194.0127,103.0919,196.0161C111.41329999999999,198.4445,120.5245,198.86950000000002,130.5467,196.0161C137.1674,194.1341,143.6667,190.30939999999998,143.6667,182.7813L143.6667,175.2532L116.33330000000001,175.2532L116.33330000000001,170.63920000000002L152.5348,170.63920000000002C159.7022,170.63920000000002,165.95850000000002,164.5682,168.9956,155.7045C170.2711,152.00119999999998,171,147.8122,171,143.3196C171,139.9806,170.57479999999998,136.7629,169.8459,133.7881ZM131.0933,179.38150000000002C133.82670000000002,179.38150000000002,136.01330000000002,181.62779999999998,136.01330000000002,184.3598C136.01330000000002,187.0917,133.7659,189.338,131.0933,189.338C128.36,189.338,126.1126,187.0917,126.1126,184.3598C126.1733,181.62779999999998,128.36,179.38150000000002,131.0933,179.38150000000002Z" fill="#FFD400" fill-opacity="1"/></g></g></svg>