<svg xmlns="http://www.w3.org/2000/svg" xmlns:xlink="http://www.w3.org/1999/xlink" fill="none" version="1.1" width="508" height="286" viewBox="0 0 508 286"><defs><clipPath id="master_svg0_175_01540"><rect x="0" y="0" width="508" height="286" rx="0"/></clipPath><clipPath id="master_svg1_175_01550"><rect x="54" y="49" width="323" height="166" rx="0"/></clipPath></defs><g clip-path="url(#master_svg0_175_01540)"><rect x="0" y="0" width="508" height="286" rx="0" fill="#27343E" fill-opacity="1"/><g clip-path="url(#master_svg1_175_01550)"><g><g><g><ellipse cx="64.039963722229" cy="106.55261516571045" rx="10.039963722229004" ry="10.12195110321045" fill="#55A4F1" fill-opacity="1"/></g></g><g><g><ellipse cx="64.039963722229" cy="140.09851360321045" rx="10.039963722229004" ry="10.12195110321045" fill="#55A4F1" fill-opacity="1"/></g></g><g><g><ellipse cx="64.039963722229" cy="173.35521411895752" rx="10.039963722229004" ry="9.83275318145752" fill="#55A4F1" fill-opacity="1"/></g></g><g><g><ellipse cx="97.315354347229" cy="106.55261516571045" rx="10.039963722229004" ry="10.12195110321045" fill="#55A4F1" fill-opacity="1"/></g></g><g><g><ellipse cx="97.315354347229" cy="140.09851360321045" rx="10.039963722229004" ry="10.12195110321045" fill="#55A4F1" fill-opacity="1"/></g></g><g><g><ellipse cx="97.315354347229" cy="173.35521411895752" rx="10.039963722229004" ry="9.83275318145752" fill="#55A4F1" fill-opacity="1"/></g></g><g><g><ellipse cx="130.020432472229" cy="106.55261516571045" rx="10.039963722229004" ry="10.12195110321045" fill="#55A4F1" fill-opacity="1"/></g></g><g><g><ellipse cx="130.020432472229" cy="140.09851360321045" rx="10.039963722229004" ry="10.12195110321045" fill="#55A4F1" fill-opacity="1"/></g></g><g><g><ellipse cx="130.020432472229" cy="173.35521411895752" rx="10.039963722229004" ry="9.83275318145752" fill="#55A4F1" fill-opacity="1"/></g></g></g><g><path d="M176.78,158.26L176.78,143.07999999999998L183.44,143.07999999999998C189.8,143.07999999999998,193.34,144.94,193.34,150.28C193.34,155.62,189.8,158.26,183.44,158.26L176.78,158.26ZM193.94,181.66L201.8,181.66L191,162.94C196.57999999999998,161.2,200.24,157.12,200.24,150.28C200.24,140.68,193.4,137.44,184.28,137.44L169.82,137.44L169.82,181.66L176.78,181.66L176.78,163.84L183.98,163.84L193.94,181.66ZM225.98,182.5C237.38,182.5,245.24,173.62,245.24,159.4C245.24,145.18,237.38,136.66,225.98,136.66C214.64,136.66,206.72,145.12,206.72,159.4C206.72,173.62,214.64,182.5,225.98,182.5ZM225.98,176.38C218.66,176.38,213.92000000000002,169.72,213.92000000000002,159.4C213.92000000000002,149.07999999999998,218.66,142.72,225.98,142.72C233.3,142.72,238.1,149.07999999999998,238.1,159.4C238.1,169.72,233.3,176.38,225.98,176.38ZM267.02,182.5C276.68,182.5,282.56,176.68,282.56,169.6C282.56,163.12,278.84000000000003,159.88,273.56,157.66L267.5,155.07999999999998C263.96,153.57999999999998,260.42,152.2,260.42,148.36C260.42,144.94,263.3,142.72,267.8,142.72C271.7,142.72,274.82,144.22,277.58,146.68L281.12,142.24C277.88,138.82,273.02,136.66,267.8,136.66C259.34000000000003,136.66,253.28,141.88,253.28,148.84C253.28,155.32,257.96,158.62,262.28,160.42000000000002L268.4,163.06C272.48,164.86,275.42,166.12,275.42,170.14C275.42,173.86,272.48,176.38,267.2,176.38C262.88,176.38,258.56,174.28,255.38,171.16L251.3,175.96C255.32,180.04000000000002,260.96,182.5,267.02,182.5Z" fill="#55A4F1" fill-opacity="1"/></g></g></g></svg>