<svg xmlns="http://www.w3.org/2000/svg" xmlns:xlink="http://www.w3.org/1999/xlink" fill="none" version="1.1" width="508" height="286" viewBox="0 0 508 286"><defs><clipPath id="master_svg0_175_01589"><rect x="0" y="0" width="508" height="286" rx="0"/></clipPath><clipPath id="master_svg1_175_01648"><rect x="46" y="60" width="323" height="166" rx="0"/></clipPath></defs><g clip-path="url(#master_svg0_175_01589)"><rect x="0" y="0" width="508" height="286" rx="0" fill="#27343E" fill-opacity="1"/><g clip-path="url(#master_svg1_175_01648)"><g><g><g><ellipse cx="56.039963722229004" cy="117.55261516571045" rx="10.039963722229004" ry="10.12195110321045" fill="#55A4F1" fill-opacity="1"/></g></g><g><g><ellipse cx="56.039963722229004" cy="151.09851360321045" rx="10.039963722229004" ry="10.12195110321045" fill="#55A4F1" fill-opacity="1"/></g></g><g><g><ellipse cx="56.039963722229004" cy="184.35521411895752" rx="10.039963722229004" ry="9.83275318145752" fill="#55A4F1" fill-opacity="1"/></g></g><g><g><ellipse cx="89.315354347229" cy="117.55261516571045" rx="10.039963722229004" ry="10.12195110321045" fill="#55A4F1" fill-opacity="1"/></g></g><g><g><ellipse cx="89.315354347229" cy="151.09851360321045" rx="10.039963722229004" ry="10.12195110321045" fill="#55A4F1" fill-opacity="1"/></g></g><g><g><ellipse cx="89.315354347229" cy="184.35521411895752" rx="10.039963722229004" ry="9.83275318145752" fill="#55A4F1" fill-opacity="1"/></g></g><g><g><ellipse cx="122.020432472229" cy="117.55261516571045" rx="10.039963722229004" ry="10.12195110321045" fill="#55A4F1" fill-opacity="1"/></g></g><g><g><ellipse cx="122.020432472229" cy="151.09851360321045" rx="10.039963722229004" ry="10.12195110321045" fill="#55A4F1" fill-opacity="1"/></g></g><g><g><ellipse cx="122.020432472229" cy="184.35521411895752" rx="10.039963722229004" ry="9.83275318145752" fill="#55A4F1" fill-opacity="1"/></g></g></g><g><path d="M168.78,169.26L168.78,154.07999999999998L175.44,154.07999999999998C181.8,154.07999999999998,185.34,155.94,185.34,161.28C185.34,166.62,181.8,169.26,175.44,169.26L168.78,169.26ZM185.94,192.66L193.8,192.66L183,173.94C188.57999999999998,172.2,192.24,168.12,192.24,161.28C192.24,151.68,185.4,148.44,176.28,148.44L161.82,148.44L161.82,192.66L168.78,192.66L168.78,174.84L175.98,174.84L185.94,192.66ZM217.98,193.5C229.38,193.5,237.24,184.62,237.24,170.4C237.24,156.18,229.38,147.66,217.98,147.66C206.64,147.66,198.72,156.12,198.72,170.4C198.72,184.62,206.64,193.5,217.98,193.5ZM217.98,187.38C210.66,187.38,205.92000000000002,180.72,205.92000000000002,170.4C205.92000000000002,160.07999999999998,210.66,153.72,217.98,153.72C225.3,153.72,230.1,160.07999999999998,230.1,170.4C230.1,180.72,225.3,187.38,217.98,187.38ZM259.02,193.5C268.68,193.5,274.56,187.68,274.56,180.6C274.56,174.12,270.84000000000003,170.88,265.56,168.66L259.5,166.07999999999998C255.95999999999998,164.57999999999998,252.42000000000002,163.2,252.42000000000002,159.36C252.42000000000002,155.94,255.3,153.72,259.8,153.72C263.7,153.72,266.82,155.22,269.58,157.68L273.12,153.24C269.88,149.82,265.02,147.66,259.8,147.66C251.34,147.66,245.28,152.88,245.28,159.84C245.28,166.32,249.95999999999998,169.62,254.28,171.42000000000002L260.4,174.06C264.48,175.86,267.42,177.12,267.42,181.14C267.42,184.86,264.48,187.38,259.2,187.38C254.88,187.38,250.56,185.28,247.38,182.16L243.3,186.96C247.32,191.04000000000002,252.95999999999998,193.5,259.02,193.5ZM293.72,192.66L322.28,192.66L322.28,186.72L311.18,186.72C309.02,186.72,306.26,186.96,303.98,187.2C313.34000000000003,178.26,320.18,169.44,320.18,160.92000000000002C320.18,152.94,314.96000000000004,147.66,306.86,147.66C301.03999999999996,147.66,297.14,150.12,293.36,154.26L297.26,158.1C299.65999999999997,155.34,302.53999999999996,153.24,305.96000000000004,153.24C310.94,153.24,313.4,156.48,313.4,161.28C313.4,168.54,306.74,177.12,293.72,188.64L293.72,192.66Z" fill="#55A4F1" fill-opacity="1"/></g></g></g></svg>