<svg xmlns="http://www.w3.org/2000/svg" xmlns:xlink="http://www.w3.org/1999/xlink" fill="none" version="1.1" width="706.984375" height="287" viewBox="0 0 706.984375 287"><g><g><path d="M210.2031,153.828L210.2031,99.6874L234.5625,99.6874C257.3281,99.6874,269.7969,106.437,269.7969,125.469C269.7969,144.516,257.3281,153.828,234.5625,153.828L210.2031,153.828ZM271.5781,229.828L292.172,229.828L255.3438,166.5C274.953,161.75,288.016,148.281,288.016,125.469C288.016,95.328,266.8281,84.828,237.3281,84.828L191.9844,84.828L191.9844,229.828L210.2031,229.828L210.2031,168.484L236.3438,168.484L271.5781,229.828ZM371.453,232.828C407.875,232.828,433.422,203.656,433.422,156.844C433.422,110.031,407.875,81.828,371.453,81.828C335.01599999999996,81.828,309.469,110.031,309.469,156.844C309.469,203.656,335.01599999999996,232.828,371.453,232.828ZM371.453,216.797C345.312,216.797,328.281,193.297,328.281,156.844C328.281,120.391,345.312,97.8749,371.453,97.8749C397.578,97.8749,414.60900000000004,120.391,414.60900000000004,156.844C414.60900000000004,193.297,397.578,216.797,371.453,216.797ZM505.188,232.828C535.4839999999999,232.828,554.4839999999999,214.609,554.4839999999999,191.5C554.4839999999999,169.781,541.422,159.828,524.594,152.453L504,143.484C492.703,138.703,479.844,133.328,479.844,118.984C479.844,106.047,490.531,97.8749,506.969,97.8749C520.422,97.8749,531.125,103.047,540.031,111.422L549.531,99.6718C539.438,89.1561,524.188,81.828,506.969,81.828C480.625,81.828,461.234,97.8749,461.234,120.391C461.234,141.703,477.266,152.062,490.734,157.828L511.516,167C525.375,173.172,535.875,177.953,535.875,193.094C535.875,207.234,524.594,216.797,505.375,216.797C490.328,216.797,475.688,209.625,465.391,198.672L454.5,211.422C466.969,224.516,484.594,232.828,505.188,232.828ZM615.703,229.828L706.984,229.828L706.984,214.187L666.781,214.187C659.469,214.187,650.547,214.984,643.031,215.578C677.078,183.234,700.047,153.656,700.047,124.484C700.047,98.6718,683.625,81.828,657.688,81.828C639.2660000000001,81.828,626.594,90.1561,614.906,103.047L625.406,113.359C633.531,103.641,643.625,96.4843,655.5,96.4843C673.5160000000001,96.4843,682.2339999999999,108.594,682.2339999999999,125.266C682.2339999999999,150.281,661.25,179.266,615.703,219.141L615.703,229.828Z" fill="#FFFFFF" fill-opacity="1"/></g><g><ellipse cx="17.5" cy="99.5" rx="17.5" ry="17.5" fill="#FFFFFF" fill-opacity="1"/></g><g><ellipse cx="17.5" cy="157.5" rx="17.5" ry="17.5" fill="#FFFFFF" fill-opacity="1"/></g><g><ellipse cx="17.5" cy="215" rx="17.5" ry="17" fill="#FFFFFF" fill-opacity="1"/></g><g><ellipse cx="75.5" cy="99.5" rx="17.5" ry="17.5" fill="#FFFFFF" fill-opacity="1"/></g><g><ellipse cx="75.5" cy="157.5" rx="17.5" ry="17.5" fill="#FFFFFF" fill-opacity="1"/></g><g><ellipse cx="75.5" cy="215" rx="17.5" ry="17" fill="#FFFFFF" fill-opacity="1"/></g><g><ellipse cx="132.5" cy="99.5" rx="17.5" ry="17.5" fill="#FFFFFF" fill-opacity="1"/></g><g><ellipse cx="132.5" cy="157.5" rx="17.5" ry="17.5" fill="#FFFFFF" fill-opacity="1"/></g><g><ellipse cx="132.5" cy="215" rx="17.5" ry="17" fill="#FFFFFF" fill-opacity="1"/></g></g></svg>