<?xml version="1.0" encoding="utf-8"?>
<!-- Generator: Adobe Illustrator 24.0.1, SVG Export Plug-In . SVG Version: 6.00 Build 0)  -->
<svg version="1.1" id="图层_1" xmlns="http://www.w3.org/2000/svg" xmlns:xlink="http://www.w3.org/1999/xlink" x="0px" y="0px"
	 viewBox="0 0 790 389" style="enable-background:new 0 0 790 389;" xml:space="preserve">
<style type="text/css">
	.st0{fill:#FFFFFF;}
</style>
<path class="st0" d="M360.2,28.6c0.6,0.5,1.1,1.1,1.4,1.8c0.1,0.4,0.1,0.5-0.3,0.4c-0.1,0-0.3-0.1-0.3-0.1c-1.1-0.8-2.1-1.8-3.1-2.8
	c-0.4-0.4-0.6-0.4-1,0c-1,1-2.1,2-3.4,3c-0.3,0.1-0.3,0.1-0.3-0.1c0.1-0.5,0.3-0.9,0.6-1.3c0.9-1,1.9-2,3.1-3c0.1-0.1,0.4-0.1,0.6,0
	c0.5,0.4,0.9,0.8,1.3,1.1C359.6,27.9,360,28.3,360.2,28.6z"/>
<path class="st0" d="M364.5,31.6c0.6-0.4,1.1-0.4,1.8-0.1c0.1,0,0.1,0.1,0.1,0.3c-0.3,2-0.5,3.5-1,4.4c-0.3,0.5-0.6,0.6-1.3,0.4
	c-0.1,0-0.1-0.1-0.1-0.3l0.3-4.4C364.2,31.9,364.3,31.8,364.5,31.6z"/>
<path class="st0" d="M358.2,33.9h-3.8c-0.4,0-0.6-0.3-0.8-0.5c-0.1-0.5-0.1-0.8,0-1c0.1-0.1,0.4-0.3,0.8-0.3c2.1-0.1,4.4-0.1,6.8,0
	c0.3,0,0.5,0.3,0.5,0.5v0.1c-0.4,1.1-0.9,2.3-1.6,3.3c-1.1,1.6-1.8,2.5-1.8,2.5c-0.6,1.1-1.4,2.1-2,3.3c-0.1,0.1,0,0.3,0.1,0.3h4.9
	c0.1,0,0.3,0.1,0.3,0.1l0,0v1.5c0,0.3-0.3,0.4-0.4,0.4h-7.3c-0.5,0-0.8-0.3-0.6-0.8c0.3-1.1,0.8-2.1,1.4-3s0.9-1.3,0.9-1.3
	c0.5-0.8,1-1.5,1.5-2.3c0.6-1,1.1-1.8,1.3-2.5C358.3,34,358.3,33.9,358.2,33.9L358.2,33.9z"/>
<path class="st0" d="M631.8,34.3c-0.3-0.4-0.6-0.5-0.9-0.1c-0.5,0.4-0.9,0.9-1.4,1.3c0,0-0.3,0.4-0.9,1c-0.4,0.5-0.9,0.9-1.5,1.3
	c-0.1,0.1-0.3,0.1-0.4,0c-0.1,0-0.1-0.1-0.1-0.3c0-0.1,0-0.1,0.1-0.3c1.3-1.6,2.5-3,4-4.3c0.3-0.3,0.6-0.3,0.9,0l3.9,4.1
	c0.3,0.3,0.1,0.4-0.1,0.4c-0.4,0-0.8-0.1-1-0.3C633.5,36.3,632.6,35.3,631.8,34.3z"/>
<path class="st0" d="M366.6,43.1c0.5-1.5,1-3.1,1.6-4.6c0-0.1,0.1-0.3,0.3-0.3c0.6-0.3,1.3-0.1,1.8,0.1c0.1,0,0.1,0.1,0.3,0.3
	c0.8,2.4,1.5,4.8,2.3,7.2c0,0,0.1,0.3,0.3,0.8c0.3,0.8-0.1,1-1.3,0.8c-0.4-0.1-0.6-0.4-0.8-0.8c0-0.5-0.1-1-0.5-1.4
	c-0.1-0.1-0.1-0.1-0.3-0.1h-2c-0.1,0-0.3,0-0.4,0.1c-0.4,0.4-0.6,0.9-0.8,1.6c-0.1,0.5-0.4,0.8-0.9,0.6c0,0-0.3,0-0.6,0
	c-0.4,0-0.5-0.3-0.4-0.8c0.3-1,0.5-1.8,0.6-2.3C366.5,43.6,366.6,43.1,366.6,43.1z M369.2,40.3c-0.4,0.9-0.6,1.9-0.9,2.9
	c0,0.1,0,0.3,0.1,0.3c0.5,0.3,1,0.3,1.5,0c0.1,0,0.1-0.1,0.1-0.3l-0.5-3C369.5,39.9,369.4,39.9,369.2,40.3z"/>
<path class="st0" d="M638.3,38.6c0-0.1,0.1-0.4,0.4-0.4h1.3c0.5,0,0.8,0.3,0.6,0.6l-1.1,4.6c0,0.1-0.1,0.3-0.3,0.3
	c-0.4,0.1-0.9,0-1.3-0.1c-0.1,0-0.1-0.1-0.1-0.3L638.3,38.6z"/>
<path class="st0" d="M632.1,41.6c0.3-0.4,0.1-0.6-0.4-0.6c-1.3,0-2.3,0-3.4,0c-0.9,0-1.3-0.4-1.3-1.3c0-0.5,0.3-0.8,0.8-0.8
	c2.1-0.1,4.3-0.1,6.5,0c0.5,0,0.8,0,0.8,0c0.4,0.1,0.5,0.4,0.5,0.8c0,0.4-0.1,0.6-0.3,0.9l-5.7,8.7c-0.1,0.3-0.1,0.4,0.1,0.4
	l5.4-0.1c0.1,0,0.3,0.1,0.3,0.1c0.1,0.5,0.1,1.1,0,1.6c0,0.1-0.1,0.1-0.3,0.1c-2.6,0.1-5.5,0.1-8.4-0.1c-0.5,0-0.6-0.3-0.5-0.8
	c0.4-0.9,0.8-1.8,1.3-2.4C629.3,45.8,630.7,43.7,632.1,41.6z"/>
<path class="st0" d="M645.1,52.7c-0.9-0.3-1.8-0.3-2.8,0.1c-0.1,0-0.1,0.1-0.3,0.3l-0.6,2c0,0.1-0.1,0.3-0.3,0.3
	c-0.5,0.1-1,0.1-1.5-0.1c-0.3-0.1-0.3-0.3-0.3-0.5l0,0l3.1-9.2c0.1-0.3,0.3-0.4,0.5-0.4h1.5c0.1,0,0.4,0.1,0.4,0.3
	c0.5,1.3,0.9,2.6,1.3,3.9c0.5,1.9,1,3.6,1.8,5.4c0,0.1,0,0.3-0.1,0.3c-0.6,0.5-1.3,0.5-1.8,0c-0.1,0-0.1-0.1-0.1-0.3l-0.6-1.8
	C645.4,52.9,645.3,52.7,645.1,52.7z M643.5,47.7l-0.8,2.9c0,0.1,0.1,0.4,0.3,0.4l0,0c0.8,0.1,1.3,0.1,1.6-0.1c0.1,0,0.1-0.1,0.1-0.3
	l-0.8-2.9C643.9,47.1,643.6,47.1,643.5,47.7z"/>
<path class="st0" d="M276.7,60.3c-0.5-0.1-0.8,0-1.1,0.5c0,0.1-0.1,0.3-0.3,0.3c-0.9,0.6-1.8,1.4-2.5,2.4c-0.3,0.4-0.5,0.3-0.6,0
	c-0.1-0.3,0.1-0.8,0.8-1.3c1-1,1.9-1.9,2.9-2.9c0.5-0.5,1-0.5,1.5,0.3c0.6,1.1,1.3,1.8,1.9,2.1s1.1,0.9,1.6,1.6
	c0.1,0.1,0,0.3-0.1,0.3c-0.6,0-1.1-0.4-1.6-0.8c-0.4-0.4-0.5-0.6-0.5-0.6c-0.4-0.4-0.8-0.8-1-1.1C277.2,60.5,276.9,60.3,276.7,60.3z
	"/>
<path class="st0" d="M72.6,256.4c0.4-0.5,0.6-0.9,0.9-1.1c3-3.5,6-7,8.9-10.5c0.3-0.3,0.1-0.6-0.1-0.8l0,0c-1.3-0.9-2.4-1.6-3.6-2.4
	c-1.4-0.9-2.6-1.5-3.9-1.9c-1.9-0.6-3.8-1.1-5.8-1.5c-2-0.4-4-0.4-5.9-0.1c-3.4,0.5-6.7,1.6-9.7,3.4c-0.1,0.1-0.1,0.3-0.1,0.4
	c0,0,0,0,0,0.1c0.9,0.8,1.8,1.4,2.8,1.9c0.5,0.3,0.5,0.5,0,0.8c-2.6,1.4-5.5,2.5-8.5,3.4c-0.1,0-0.1,0-0.3-0.1c0,0,0,0,0-0.1
	l1.5-8.8c0-0.1,0.1-0.3,0.3-0.3h0.1l2.9,2c0.1,0,0.3,0.1,0.4,0c1.1-0.6,2.4-1.1,3.5-1.8c1.4-0.6,2.5-1.1,3.6-1.4
	c2.8-0.8,5.4-1,7.9-0.8c3.9,0.4,7.7,1.6,11.4,3.6c0.5,0.3,1.3,0.8,1.9,1.4s1.3,1,1.9,1.4c0.5,0.4,1,0.3,1.4-0.3c1-1.5,2-2.9,3.1-4
	c4.4-5.1,8.8-10.4,13.4-15.8c0.3-0.4,0.3-0.8,0-1.1c-1-1.3-1.4-2.8-0.9-4.5c0.1-0.8,0.5-1.3,0.9-1.8c0.4-0.4,0.9-0.9,1.5-1.3
	c0.4-0.3,0.4-0.5,0-0.8c-0.1-0.1-0.3-0.1-0.3-0.3c-1.1-1.9-1.9-3.3-2.3-4c-0.6-1.8-1.3-3-1.9-4c-0.6-1.1-1.3-2.3-1.8-3.3
	c-0.8-1.8-1.4-2.8-1.6-3.3c-1.1-2.1-1.9-3.6-2.3-4.4c-0.5-1.3-1.3-2.6-2-4c-0.5-0.8-0.9-1.6-1.3-2.5c-0.5-1.3-1-2.1-1.3-2.6
	c-6.2-12.1-12.3-24.1-18.2-36.3c-0.1-0.4-0.6-1.1-1.4-2.4c-0.5-0.8-0.9-1.6-1.3-2.5c-0.4-1-0.9-2-1.5-3c-0.6-1.3-1.3-2.3-1.5-3
	c-0.6-1.3-1.1-2.5-1.9-3.6c-1-1.8-1.6-3-1.9-3.6c-1.6-3.3-3.3-6.5-4.8-9.8c0,0-0.5-1-1.6-3c-0.6-1.1-1.1-2.3-1.6-3.5
	c-0.1-0.5-0.5-1.1-1-1.9c-0.4-0.6-0.8-1.3-1-1.9c-0.6-1.3-1.1-2.5-1.9-3.8c-0.9-1.6-1.5-2.9-1.9-3.8c-0.6-1.4-1.4-2.9-2.1-4.3
	c-0.5-1-1.4-2.8-2.8-5.5c-0.9-1.9-1.9-3.6-2.9-5.4c-0.1-0.1-0.3-0.3-0.4-0.1c-1.3,0.5-2.4,1-3.3,1.5c-0.4,0.3-0.5,0.1-0.5-0.3
	l0.5-9.2c0-0.1,0.1-0.1,0.1-0.1l0,0c1.3,0.6,2.4,1.3,3.4,2c1.5,1,3,2,4.6,3c0.1,0,0.1,0.1,0,0.3l0,0c-1.1,0.9-2.3,1.5-3.3,1.9
	c-0.1,0-0.3,0.3-0.1,0.4c0.4,1,0.9,2,1.4,3c0.4,0.8,0.8,1.4,1,1.9c0.1,0.4,0.4,0.9,0.6,1.3c0.1,0.4,0.4,0.9,0.6,1.3
	c0.9,1.4,1.6,2.9,2.3,4.4c0.6,1.3,1.3,2.5,1.9,3.8c0.8,1.3,1.4,2.6,1.9,3.8c0.5,1.3,1,2.3,1.6,3.1c0.5,0.6,1,1.9,1.9,3.8
	c0.4,0.9,0.8,1.8,1.3,2.6c0.8,1.3,1.1,2.1,1.4,2.5c0.4,0.8,0.8,1.6,1.1,2.4c0.4,0.8,0.8,1.5,1.3,2.4c0.6,1.1,1.3,2.4,1.9,3.6
	c0.6,1.3,1.1,2.4,1.9,3.6c0.6,1.1,1.3,2.3,1.8,3.5c0.6,1.3,1.1,2.4,1.8,3.5c0.8,1.4,1.4,2.8,2.1,4.1c0.5,1.1,1.1,2.3,1.8,3.5
	c0.6,1.1,1.3,2.4,1.8,3.5c0.5,1,1,2.1,1.6,3.1s1.1,2.1,1.6,3.1c0.6,1.3,1.3,2.5,1.9,3.9c0.5,0.9,0.9,1.8,1.3,2.6
	c0.6,1.3,1,2.1,1.3,2.6c3.3,6.4,6.4,12.7,9.7,19c0.4,0.9,0.8,1.5,1,2.1c0.4,0.9,0.8,1.6,1,2.1c0.9,1.4,1.6,2.9,2.3,4.3
	c0.5,1.3,1.1,2.4,1.8,3.5s1.3,2.3,1.8,3.5c0.6,1.5,1.4,2.9,2.1,4.3c0.8,1.4,1.5,2.9,2.1,4.4c0.1,0.4,0.4,0.9,0.6,1.3
	c0.3,0.4,0.5,0.9,0.8,1.3c0.3,0.5,0.5,1,0.9,1.5c0.3,0.5,0.5,1,0.8,1.6c0.1,0.3,0.3,0.5,0.4,0.6c0.5,0.4,0.8,0.1,0.8-0.8
	c0-48.1,0-96.3,0-144.7c0-0.3-0.3-0.5-0.5-0.5h-3.5c-0.5,0-0.6-0.3-0.4-0.6l4.5-7.8c0.1-0.1,0.3-0.1,0.4-0.1c0,0,0.1,0,0.1,0.1
	c0.4,0.6,0.8,1.1,1,1.8c1,1.9,2.1,3.9,3.5,6c0.3,0.4,0.1,0.5-0.3,0.5h-3.4c-0.4,0-0.6,0.3-0.6,0.6c0,46.1,0,92.2,0.1,138.1
	c0,2.1,0,4.4-0.1,6.8c0,0.3,0.1,0.5,0.4,0.5c1,0.4,1.9,0.9,2.6,1.5c0,0,0.3,0.3,0.6,0.8c0.4,0.4,0.9,0.4,1.5,0
	c0.3-0.1,0.4-0.3,0.6-0.3c2.5-0.6,4.8-1.4,6.8-2.3c1.6-0.6,3.3-1.3,4.9-1.8c1.8-0.5,3.3-1,4.6-1.5c2.1-0.8,4.9-1.8,8.4-2.9
	c0.8-0.3,3-1.1,6.7-2.5c0.4-0.1,1-0.4,1.8-0.5c0.6-0.1,1.3-0.4,1.8-0.5c2.3-0.9,4.6-1.8,6.9-2.5c1.8-0.6,3.6-1.3,5.4-1.9
	c1.8-0.6,3.6-1.3,5.5-1.9c1.8-0.5,3.5-1.1,5.4-1.9c1.9-0.8,3.8-1.4,5.8-1.9c1.5-0.4,2.9-1,4.4-1.5c1.8-0.8,3.4-1.3,5.3-1.8
	c1-0.3,2.9-0.9,5.7-1.9c1.6-0.6,3.5-1.3,5.7-1.9c2.6-0.9,5.3-1.8,7.9-2.8c0.5-0.3,1.3-0.4,2.3-0.8c0.8-0.3,1.5-0.5,2.3-0.8
	c1.8-0.8,3.8-1.4,6-2.1c2-0.6,4-1.4,6-2.1c1.6-0.6,3.3-1.1,4.9-1.6c1.5-0.5,3.1-1,4.8-1.6c2-0.8,4-1.5,6.2-2.1
	c1.3-0.4,2.9-1,4.6-1.6c1.6-0.6,3.4-1.3,5-1.6c0.3,0,0.3-0.3,0.3-0.4l0,0l-1.1-3.4c0-0.1,0-0.4,0.1-0.4h0.1c2.1,0.5,4.4,0.8,6.7,1.1
	c0.4,0,1.1,0.3,2.1,0.5c0.1,0,0.1,0.1,0.1,0.1l0,0c-0.4,0.6-1,1.5-1.9,2.6c-1.4,1.5-2.6,3-4,4.6c-0.1,0.1-0.3,0.1-0.4,0
	c0,0,0,0-0.1-0.1l-1.3-3.4c-0.1-0.3-0.5-0.5-0.8-0.4l0,0c-2.8,1-5.4,2-8.2,2.9c-1.9,0.6-3.9,1.3-5.8,2c-1,0.4-1.9,0.8-2.9,1
	c-1.3,0.4-2.3,0.6-2.9,1c-2.4,0.9-4.8,1.8-7.2,2.5c-1.8,0.5-3.8,1.3-6.3,2.1c-1.9,0.6-4,1.4-6.3,2c-0.9,0.3-1.8,0.6-2.8,1
	s-2,0.8-2.8,1c-3.4,1-5.8,1.9-7.4,2.5c-1.6,0.6-3,1.1-4.3,1.5c-2.4,0.8-3.8,1.3-4.3,1.4c-4,1.5-6.5,2.4-7.4,2.6
	c-1.8,0.5-3.5,1.1-5.3,1.8c-1.6,0.6-3.3,1.1-4.9,1.6c-2.1,0.6-4.1,1.4-6.3,2.3c-0.6,0.3-1.5,0.5-2.8,1c-1,0.4-2,0.6-2.9,0.9
	c-3.4,1.3-6.8,2.4-10.2,3.5c-0.8,0.3-1.6,0.6-2.9,1c-1,0.4-1.9,0.8-2.9,1c-1.4,0.5-2.9,0.9-4.3,1.4c-0.4,0.1-1.8,0.6-4.1,1.5
	c-1.5,0.6-3,1-4.6,1.5c-0.8,0.3-3.1,1-6.9,2.5c-1.4,0.5-3.3,1-5.5,1.5c-0.1,0-0.3,0.1-0.3,0.1s-0.1,0.1,0,0.3c0,0.1,0.1,0.1,0.3,0.3
	c0.6,0.1,1.4,0.3,2.1,0.3c32.8,0,65.5,0,98.2,0c0.3,0,0.4-0.1,0.4-0.4v-3.6c0-0.1,0.1-0.3,0.3-0.3h0.1c2.6,1.5,5.1,2.9,7.5,4.3
	c0.3,0.1,0.4,0.3,0.4,0.3c0.1,0.3,0.1,0.4-0.3,0.5c-0.1,0-0.3,0.1-0.3,0.1c-0.4,0.4-0.8,0.6-1.3,0.9c-0.6,0.4-1,0.5-1,0.5
	c-1.6,0.9-3.3,1.9-4.9,2.9c-0.4,0.3-0.5,0.1-0.5-0.3v-3.3c0-0.4-0.3-0.6-0.6-0.6H110.1c-0.3,0-0.4,0.1-0.4,0.4l0,0
	c0.1,2.5-1,4.3-3.1,5.3c-1.5,0.6-3,0.6-4.5-0.3h-0.1l0,0c0,0.1,0,0.3-0.1,0.4c0,0.1-0.1,0.3-0.1,0.4c-5.7,6.7-11.3,13.4-17,20.1
	c-0.1,0.1-0.1,0.4,0,0.6c0.8,0.9,1.4,1.8,2.1,2.6c0.9,1,1.5,2,1.9,2.8c1.1,2,1.9,4.1,2.3,6.3c0.8,3.5,0.4,6.8-1.1,9.9
	c-0.5,1-1,1.9-1.4,2.6c-0.5,0.9-1.1,1.6-1.9,2.3c-0.3,0.3-0.6,0.5-1.1,0.5c-0.1,0-0.1,0-0.1-0.1l0,0c0.1-0.6,0.5-1.1,0.9-1.6
	c0.5-0.5,1-1.1,1.5-1.6c0.5-0.6,0.9-1.1,1.1-1.9c0.4-1.1,0.8-2.1,1-3.3c0.6-2.5,0.6-5.1-0.1-7.8c-0.3-1-0.5-1.9-0.9-2.8
	c-0.3-0.9-0.8-1.6-1.3-2.5c-1-1.5-2.1-3.1-3.4-4.5c-0.1-0.1-0.4-0.1-0.5,0l0,0c-0.9,0.9-1.6,1.8-2.4,2.6c-1.5,1.9-2.3,2.8-2.3,2.8
	c-2,2.4-4,4.6-6,7c-7.7,9.2-15.3,18.2-23.1,27.4c-0.4,0.5-0.8,1-1.1,1.5c-0.1,0.3-0.1,0.5,0.1,0.8l2.6,2c0.1,0.1,0.1,0.3,0.1,0.4
	c0,0,0,0-0.1,0.1c-2.6,1.1-5.3,2.1-8,2.9c-0.4,0.1-0.6,0.4-0.8,0.6c-0.4,0.9-1,1.8-1.8,2.4c0,0-0.3,0.1-0.5,0.4
	c-0.5,0.4-0.6,0.8-0.5,1.4c0,0.1,0.1,0.3,0.3,0.3c1,0.6,1.9,1.4,2.5,2.1c0.1,0.1,0.1,0.3,0,0.4c0,0,0,0-0.1,0c-1,0.4-1.9,0.6-2.8,1
	c0,0-0.8,0.3-2.3,0.9c-1.1,0.4-2.3,0.8-3.5,1c-0.1,0-0.1,0-0.1-0.1l0,0l1.3-8.9c0-0.1,0.1-0.3,0.3-0.3h0.1l2.9,2.1
	c0.3,0.3,0.6,0.1,0.8,0c1.3-1.1,2.3-2.4,3-3.5c0.4-0.5,0.6-1.3,0.8-2c0.4-2.4,0.9-4.6,1.3-7c0-0.1,0.1-0.1,0.1-0.1l0,0l3,2.3
	c0.1,0.1,0.3,0.1,0.3,0c0.5-0.3,1-0.8,1.4-1.4c0.3-0.4,0.8-1,1.3-1.6c0.9-0.9,1.3-1.5,1.4-1.6c5.7-6.7,11.2-13.3,16.8-20
	c1.5-1.8,2.5-3,3.3-3.8C72.1,257.2,72.4,256.8,72.6,256.4z"/>
<path class="st0" d="M283,66.2c0-0.4,0.1-0.9,0.1-1.3c0-0.1,0.1-0.3,0.1-0.3c0.5-0.4,1.1-0.5,1.8-0.4c0.1,0,0.1,0.1,0.3,0.3
	c0,1.3,0,2.5-0.4,3.6c0,0,0,0.3-0.1,0.6c0,0.6-0.6,0.8-1.6,0.5c-0.1,0-0.3-0.1-0.3-0.3C282.8,67.9,282.8,67.1,283,66.2z"/>
<path class="st0" d="M275.3,74.7h5.1c0.1,0,0.3,0.1,0.3,0.1l0.1,1.4c0,0.1-0.1,0.1-0.3,0.1l0,0h-8.2c-0.3,0-0.4-0.1-0.4-0.4v-0.1
	c1-2.3,2.4-4.4,3.9-6.5c0.3-0.4,0.6-0.8,0.9-1.3c0.3-0.4,0.5-0.9,0.9-1.3c0.3-0.4,0.1-0.5-0.3-0.5c-1.1,0.1-2.1,0.1-3,0.1
	c-0.8,0-1,0-1.1,0c-0.4-0.1-0.5-0.6-0.4-1.4c0-0.3,0.3-0.4,0.5-0.4h6.7c1,0,1.3,0.4,0.6,1.3l-5.4,8.4
	C275.1,74.7,275.1,74.7,275.3,74.7z"/>
<path class="st0" d="M366,73.6c0.1,0,0.1,0.1,0.1,0.3c0,0.1-0.1,0.1-0.3,0.1l-3.1-0.1c-0.3,0-0.5,0.1-0.5,0.5
	c-0.1,0.8-0.1,1.4-0.1,2.1c0,38.8,0,77.6,0,116.4c0,0.3,0.1,0.4,0.4,0.5l2.5,1.1c0.4,0.1,0.6,0.1,1.1,0c4.6-2.3,9.3-4.5,13.7-6.7
	c0.5-0.3,0.9-0.4,1.4-0.6c0.5-0.3,0.9-0.4,1.4-0.6c1.3-0.6,2.4-1.3,3.8-1.9c1.9-0.9,3.1-1.5,3.8-1.8c3.9-1.9,7.8-3.9,11.7-5.7
	c1.1-0.5,2.8-1.4,5-2.5c1.6-0.9,3.4-1.6,5.1-2.5c0.9-0.4,1.8-0.8,2.5-1.3c1-0.5,1.9-1,2.5-1.3c1.8-0.9,4-1.9,6.7-3.3
	c3.1-1.6,11.2-5.4,24-11.6c0.6-0.3,1.8-0.9,3.3-1.6c1.1-0.5,2.1-1.1,3.3-1.6c1.4-0.6,2.6-1.3,3.8-1.9c1.9-1,3.1-1.6,3.8-1.9
	c0.9-0.3,1.5-0.6,2-0.9c0.1,0,0.1-0.1,0.1-0.3l-1.1-3c0-0.1,0-0.3,0.1-0.4h0.1l7.7,0.5c0.3,0,0.4,0.3,0.4,0.5c0,0.1,0,0.1,0,0.3
	c-0.6,1.1-1.3,2-2,2.9c-0.5,0.6-0.9,1.3-1.1,1.8c-0.4,0.6-0.6,1.3-0.9,1.9c0,0.1-0.3,0.1-0.4,0.1c0,0-0.1,0-0.1-0.1
	c-0.6-0.8-1.1-1.8-1.5-2.8c-0.1-0.3-0.4-0.5-0.8-0.4c-0.6,0.1-1.1,0.4-1.8,0.6c-0.8,0.4-1.1,0.6-1.1,0.6
	c-12.2,5.9-19.7,9.7-22.7,11.1c-10.9,5.3-22,10.5-32.8,15.9c0,0-0.6,0.3-1.9,0.9c-0.5,0.3-1,0.5-1.4,0.8c-0.5,0.4-1,0.5-1.4,0.8
	c-2.6,1.3-5.4,2.5-8,3.9c-0.9,0.5-2.3,1.1-4,1.9c-0.9,0.4-1.8,0.9-2.6,1.3c-1.1,0.6-2,1-2.6,1.4c-6.5,3.1-10.4,5-11.7,5.7
	c-2.6,1.4-4.3,2.1-4.9,2.3c-0.6,0.1-1,0.5-1.3,1c-0.1,0.3,0,0.5,0.3,0.6h0.1l41.2,0.1c0.1,0,0.3,0,0.3-0.1c1.9-3.6,4.6-6.3,8.3-7.9
	c1.4-0.6,2.8-1,4.4-1.1c2-0.1,4.1,0,6.3,0.4c0.3,0,0.5,0.3,0.8,0.5c0.1,0.3,0.1,0.5-0.3,0.6c-0.1,0-0.3,0-0.4,0
	c-1.9-0.6-3.4-1-4.4-0.9c-4,0.1-7.5,1.6-10.4,4.3c-0.6,0.6-1.3,1.3-1.8,1.8c-0.6,0.6-1.1,1.4-1.5,2c-0.3,0.4-0.1,0.5,0.3,0.5h61.5
	c0.1,0,0.1-0.1,0.1-0.1l0,0v-3.3c0-0.1,0.1-0.3,0.3-0.3h0.1c2.4,1.1,4.6,2.4,6.8,3.8c0.3,0.1,0.3,0.5,0.1,0.6l-0.1,0.1
	c-0.3,0.3-0.6,0.4-0.9,0.5c-0.4,0.1-0.8,0.3-1,0.5c-1.6,1-3.3,1.9-4.9,2.9c-0.1,0-0.3,0-0.3-0.1v-0.1v-2.9c0-0.3-0.3-0.5-0.5-0.5
	l0,0c-20.2,0-40.6,0-60.9-0.1c-0.8,0-1.3,0.3-1.5,0.8c-2.4,5.4-2.5,10.9-0.6,16.6c0.5,1.3,1,2.6,1.8,4.1c0.4,0.9,1.1,1.8,2.1,2.8
	c1.4,1.4,2.1,2.1,2.1,2.3c0.8,0.8,1.6,1.3,2.6,1.8c0.3,0.1,0.4,0,0.5-0.1v-0.1l0.4-2.6c0-0.3,0.3-0.4,0.5-0.4h0.1
	c1,0.6,1.8,1.3,2.5,2.1c0.5,0.5,0.9,0.9,1.4,1.3c0.8,0.5,1.4,1,2,1.6c0.1,0.1,0.3,0.5,0,0.6l-0.1,0.1c-2.3,1-4.8,1.9-7.3,2.5
	c-0.1,0-0.4,0-0.4-0.3v-0.1l0.6-3.1c0-0.3-0.1-0.5-0.4-0.6c-0.5-0.3-1.1-0.5-1.6-0.8c-0.4-0.3-0.9-0.6-1.4-1
	c-0.6-0.6-1.4-1.4-2.4-2.3c-0.6-0.5-1.1-1.3-1.5-2c-0.3-0.4-0.6-1-1.1-2.1c-3.4-6.5-3.6-13.3-0.8-20.3c0-0.1,0-0.3-0.1-0.4h-0.1
	c-9.9,0.1-20,0.1-30.1,0.1c-0.1,0-1.9,0-5-0.1c-1.8,0-3.4,0-5,0.1c-0.3,0-0.5,0.3-0.5,0.5c-0.3,2.6-1.5,3.9-4,3.8
	c-0.3,0-0.4,0.1-0.5,0.4c-1.1,3.9-2.1,7.8-3,11.7c-1.1,5.1-2.5,10.3-3.8,15.3c-0.3,1-0.6,2.6-1.1,4.8c-0.3,1.4-0.8,3-1.1,4.8
	c-0.9,3.4-1.8,6.7-2.5,10c-0.6,2.9-1.4,5.8-2.1,8.5c-0.3,0.9-0.5,1.9-0.6,2.8c-0.3,1.3-0.5,2.1-0.6,2.8c-1.8,6.9-2.9,11.4-3.4,13.7
	c-0.8,3.5-1.6,7.2-2.6,10.7c-0.5,1.9-0.9,3.9-1.3,5.9c0,0.3,0.1,0.5,0.4,0.5l2.8,0.6c0.4,0.1,0.4,0.3,0.1,0.5l-5.7,5.9
	c-0.1,0.1-0.3,0.1-0.3-0.1c-0.6-2.6-1.4-5.3-2.4-7.9c-0.1-0.4,0-0.5,0.3-0.4l3.3,0.9c0.1,0,0.4,0,0.4-0.3c0.9-3.3,1.6-6.4,2.3-9.5
	c0.1-0.9,0.6-2.8,1.4-5.4c0.5-1.8,0.9-3.5,1.4-5.4c0.6-3,1.4-6,2.1-8.9c0.6-2.4,1.3-4.8,1.8-7c1-4.3,2-8.5,3.3-12.8
	c0-0.3,0.1-0.6,0.3-1.3c0-0.5,0.1-0.9,0.3-1.3c0.9-3.3,1.6-6.4,2.5-9.7c0.1-0.6,0.5-2.3,1.1-5.1c0.3-1.1,0.5-2.3,0.9-3.4
	c0.4-1.5,0.8-2.6,0.9-3.4c0.4-1.5,0.8-3.1,1.3-4.6c0.4-1.5,0.8-3.1,1.1-4.6c0.6-2.6,1.3-5.5,2-8.5c0-0.3-0.1-0.4-0.3-0.5
	c-0.9-0.3-1.4,0.1-1.6,1c-0.1,0.4-0.6,1-1.4,2c-0.6,0.8-1.1,1.4-1.5,1.9c-2.4,3.1-4.8,6.4-7,9.5c-6.7,8.9-13.3,18-20,26.9
	c-5,6.8-10.2,13.4-15.2,20.2c0,0-0.1,0.1-0.3,0.4c-0.5,0.5-0.4,1,0.3,1.5c0.6,0.4,1.4,0.9,2,1.4c0.1,0.1,0.1,0.3,0,0.3
	c0,0,0,0-0.1,0c-2.3,1.3-4.9,2.4-7.5,3.1c-0.1,0-0.3,0-0.3-0.1c0,0,0,0,0-0.1l1-7.5c0-0.3,0.3-0.4,0.5-0.4h0.1l2.3,1.5
	c0.3,0.1,0.6,0.1,0.8,0c0.6-0.8,1.3-1.4,1.8-2.1c4.8-6.7,7.9-10.8,9-12.3c0.6-0.9,1.3-1.6,1.6-2.3c1-1.3,1.5-2,1.6-2.3
	c3-3.9,5.9-7.8,8.8-11.7c5.1-7,10.4-13.9,15.6-21c0.8-1,1.4-1.8,1.8-2.4c0.5-0.6,1-1.4,1.5-2.1c0.5-0.8,1-1.5,1.6-2.1
	c0.6-0.8,1.1-1.3,1.3-1.5c0.4-0.5,0.9-1.1,1.3-1.6c0.4-0.6,0.5-1.1,0.3-1.6c-0.1-0.4-0.3-0.5-0.3-0.5c-0.5-1.5-0.4-3,0.4-4.5
	c0.3-0.4,0.3-0.9,0-1.3c-0.4-0.8-0.9-1.4-1.4-2c-0.9-1-1.3-1.5-1.3-1.5c-1.6-2.3-3.5-4.8-5.7-7.7c-2.8-3.9-8.5-11.7-17.1-23.4
	c-1.3-1.8-2.4-3.3-3.4-4.5c-0.5-0.6-1.1-1.5-2-2.8c-0.4-0.6-0.9-1.3-1.4-1.9s-1-1.3-1.4-1.9c-0.8-1.1-1.5-2.3-2.4-3.3
	c-0.4-0.5-0.9-1.1-1.3-1.6c-0.5-0.9-0.9-1.4-1.1-1.6c-0.9-1-1.8-2.1-2.5-3.3c-0.3-0.4-0.5-0.8-0.9-1.1c-0.3-0.4-0.6-0.8-0.9-1.1
	c-8.7-11.9-17.5-23.7-26.1-35.5c-0.1-0.1-0.3-0.1-0.4-0.1l-2.6,1.9c-0.1,0.1-0.4,0.1-0.4,0v-0.1l-0.9-7.8c0-0.1,0.1-0.4,0.3-0.4h0.1
	c2.6,1,4.9,2,6.9,3.1c0.1,0.1,0.3,0.3,0.1,0.5c0,0,0,0.1-0.1,0.1l-2.1,1.8c-0.1,0.1-0.1,0.1,0,0.3c0.6,1.3,1.5,2.4,2.3,3.5
	c1.6,2.1,2.4,3.3,2.4,3.3c1.5,2.1,3,4.3,4.6,6.3c1.9,2.5,3.4,4.4,4.4,5.8c8.8,12.1,14.9,20.6,18.6,25.4c0.8,0.9,1.3,1.6,1.6,2.3
	c0.8,1.1,1.4,1.9,1.6,2.3c1.3,1.5,2.4,3.1,3.5,4.6c0.3,0.4,0.8,1,1.4,1.8c0.5,0.6,0.9,1.1,1.4,1.9c0.4,0.6,0.8,1.1,1.1,1.6
	c0.4,0.4,0.8,1,1.3,1.6c5.4,7.4,10.8,14.7,16.2,22.1c0,0,0.5,0.6,1.5,2c0.5,0.8,1,1.4,1.4,2.3c0.1,0.3,0.3,0.5,0.5,0.6
	c0.3,0.1,0.4,0.4,0.6,0.6c1.5,1.9,2.9,3.8,4.3,5.8c0.1,0.1,0.1,0.1,0.3,0.1c0.6,0.1,1-0.1,1.4-0.5c0.3-0.3,0.4-0.6,0.4-1.3
	c-0.1-38.3-0.1-76.7-0.1-115c0,0,0-0.5,0.1-1.4c0-0.5,0-1-0.1-1.5c0-0.1-0.1-0.3-0.3-0.3h-3.4c-0.1,0-0.1,0-0.1-0.1l0,0
	c0.6-1.4,1.3-2.6,2-3.6c0.8-1.1,1.4-2.3,2-3.5c0-0.1,0.1-0.1,0.3-0.1l0,0c1.5,2.3,2.8,4.5,3.9,6.8C365.7,73.5,365.9,73.5,366,73.6z"
	/>
<path class="st0" d="M291,75.1c1.4,1.3,1.5,2.8,0.4,4.3c-0.1,0.1-0.1,0.1-0.3,0.3c-1.5,0.4-2.9,0.5-4.5,0.5c0,0-0.4,0-0.9,0
	c-0.5,0-0.6-0.3-0.6-0.8c0-0.4,0-0.6,0-0.6c0-2.5,0-5.1,0.1-7.7c0-0.1,0.1-0.3,0.3-0.3c0.8-0.1,1.6-0.1,2.4,0c0,0,0.5,0,1.4,0
	c1,0,1.6,0.4,2.1,1c0.5,0.6,0.5,1.5,0.1,2.4c0,0.1-0.1,0.1-0.3,0.3c-0.1,0.1-0.3,0.3-0.4,0.4C290.9,75,291,75.1,291,75.1z
	 M287.4,72.7c-0.4,1.4-0.1,2,0.9,1.9c0.5,0,0.9-0.1,1.1-0.3c0.5-0.3,0.6-0.6,0.5-1.4c0-0.1-0.1-0.3-0.3-0.3
	c-0.6-0.3-1.3-0.4-1.9-0.4C287.5,72.3,287.4,72.5,287.4,72.7z M290,78c0.4-0.8,0.5-1.1,0.1-1.4c-0.4-0.3-0.8-0.4-1.1-0.4
	c-0.5,0-0.9-0.1-1.1-0.1c-0.5,0-0.6,0.3-0.6,0.8c0,0.5,0,0.8,0,0.9c0,0.8,0.3,1,1,0.9c0,0,0.4,0,1-0.1C289.5,78.6,289.8,78.4,290,78
	z"/>
<path class="st0" d="M636.5,198c-0.1-0.3-0.1-0.5-0.1-0.9c0.3-0.8,0.1-1.4-0.3-2c-0.1-0.1-0.1-0.3-0.1-0.4
	c-0.1-11.2-0.1-22.4-0.1-33.5c0-0.3,0.1-0.6,0.3-1.1c0.1-0.4,0.3-0.8,0.3-1.1c0.3-2.8,0.4-5.5,0.3-8c0-0.5-0.3-0.8-0.8-0.8
	c-3.5-0.1-6.8-0.6-9.9-1.6c-2.5-0.8-4.8-1.8-6.5-2.9c-2-1.3-3.9-2.8-5.5-4.6c-2-2.3-3.1-4.8-3.4-7.7c0,0,0-0.3-0.1-0.5
	c-0.1-0.5,0.1-0.8,0.6-0.8c0.1,0,0.1,0.1,0.3,0.3c0.1,2.6,1,4.9,2.6,6.9c1.8,2.3,3.8,4.1,6.2,5.5c1.8,1,4,2,6.7,2.8
	c3.1,1,6.4,1.5,9.8,1.6c0.3,0,0.4-0.1,0.4-0.4l0,0c0-3,0-6-0.1-8.9c0-0.1-0.1-0.6-0.3-1.3c-0.1-0.4-0.1-0.9-0.1-1.4
	c0-14.3,0-28.8,0-43.1c0-1.5,0.1-3.5,0.3-6c0.1-2.3,0.3-4.5,0.3-7c0-0.5-0.3-0.8-0.8-0.8l-3,0.1c-0.1,0-0.3-0.1-0.3-0.3v-0.1
	c0.5-1.3,1.1-2.4,1.9-3.4c0.4-0.6,0.8-1,0.9-1.3c0.3-0.5,0.5-1,0.6-1.4c0.3-0.8,0.6-1.3,1.3-1.6c0.1,0,0.3,0,0.3,0.1l4.3,7.7
	c0,0.1,0,0.1-0.1,0.3c0,0,0,0-0.1,0l-3.8,0.1c-0.1,0-0.1,0.1-0.1,0.3l0,0c0.1,3,0.3,6,0.3,9.2c0,0.3,0,0.4,0,0.6
	c0.1,15.6,0.1,31.1,0.1,46.7c0,0.3,0,0.6-0.1,0.9c0,0.1-0.1,0.4-0.1,0.5c0,0.1-0.1,0.4-0.1,0.6c0,3.1,0,6.3,0,9.5
	c0,0.3,0.1,0.4,0.4,0.4l0,0c2.8-0.1,5.5-0.5,8.2-1.3s4.9-1.6,6.8-2.5c2.3-1.1,4.3-2.6,5.9-4.3c1.6-1.8,2.9-3.8,3.8-6.3
	c0.3-0.6,0.4-1,0.4-1.1c0.3-0.9-0.3-1.1-1.4-0.8c-0.8,0.3-1.4,0.5-2,0.6c-0.5,0.1-0.6,0-0.5-0.5c0.5-1.1,0.8-2.3,1-3.5
	c0.3-1.5,0.6-3.1,1.1-4.6c0.1-0.4,0.4-0.5,0.6-0.1c0.6,0.8,1.3,1.4,1.8,2.1c0.6,0.8,1.3,1.4,2.1,2c0.8,0.5,1.4,1.3,1.9,2.4
	c0,0.1,0,0.1-0.1,0.3l0,0l-3.4,0.8c-0.3,0-0.4,0.3-0.4,0.5c-0.3,2.5-1,4.6-2.3,6.3c-0.6,0.8-0.9,1.3-0.9,1.3c-0.5,0.6-0.8,1-1,1.3
	c-2.1,2-3.9,3.4-5.4,4.1c-5.1,2.6-10.7,4.1-16.3,4.4c-0.1,0-0.3,0.1-0.3,0.3l0.1,9c0,0.1,0,0.3,0.1,0.3c0.1,0.1,0.1,0.3,0.1,0.4
	c0,8.4,0,19.2,0,32.6c0,0.8,0,1.5-0.1,2.3c-0.1,1.1-0.3,1.9-0.3,2.3c0,3.4,0,6.8,0,10.4c0,0.3,0.1,0.5,0.4,0.6
	c0.8,0.5,1.5,0.5,2.1-0.1c4.3-4.4,8.5-8.8,12.8-13.2c0.3-0.3,1-1,2.3-2.1c0.5-0.5,1-1,1.5-1.5c0.6-0.8,1.1-1.3,1.5-1.5
	c6-6,12.1-12.1,18.1-18.1c0,0,0.6-0.6,1.9-2c0.6-0.8,1.5-1.5,2.4-2.3c0.4-0.3,0.6-0.6,1-1.1c0.4-0.4,0.6-0.8,1-1.1
	c0.8-0.6,1.4-1.3,2-1.9c1.3-1.3,1.9-2,1.9-2c14.6-14.7,29.3-29.4,43.8-44.1c0-0.1,0-0.1,0-0.3l0,0c-1.1-0.8-2-1.6-2.5-2.6
	c-0.1-0.1,0-0.4,0.1-0.4c0,0,0,0,0.1,0c2.8-0.5,5.4-1.1,7.7-1.9c0.6-0.3,0.9,0,0.6,0.6c-0.9,2.6-1.4,5-1.8,7.4
	c0,0.3-0.3,0.4-0.5,0.4h-0.1c-1-0.4-1.8-1-2.3-1.9c-0.4-0.6-0.8-0.8-1.3-0.1c-0.4,0.5-0.8,1-1.4,1.4c-0.8,0.6-1.3,1-1.4,1.3
	c-17.3,17.5-34.7,35-52.1,52.4c-0.1,0.1-0.5,0.5-1,1.3c-0.3,0.3-0.5,0.5-0.8,0.8c-0.4,0.4-0.6,0.6-0.8,0.8
	c-6.3,6.4-12.7,12.7-19.1,19.1c-0.3,0.3-0.4,0.5-0.8,0.8c-0.3,0.3-0.5,0.5-0.8,0.8c-0.8,0.6-1.4,1.3-2,1.9c-1,1.1-1.6,1.8-1.9,2
	c-1.8,1.8-3.4,3.4-5.1,5.1c0,0-0.4,0.5-1.3,1.4c-0.5,0.5-1.1,1.1-1.8,1.6c-0.3,0.1-0.3,0.4-0.1,0.6c0.6,0.8,1,1.6,1.3,2.4
	c0,0.1,0.1,0.3,0.3,0.3c0.5,0.1,1.3,0.1,2.3,0.1c31.4,0.1,62.8,0.1,94.1,0c0.3,0,0.5-0.3,0.5-0.5v-0.1c-0.3-0.9-0.4-1.6-0.3-2.5
	c0-0.1,0-0.1,0.1,0c1.1,1.5,2.6,2.6,4.3,3.5c0.1,0,0.1,0.1,0.1,0.3c0,0,0,0,0,0.1l-4.4,3.6c-0.3,0.1-0.3,0.1-0.3-0.1l0.6-2.6
	c0-0.3-0.1-0.4-0.3-0.4c0,0,0,0-0.1,0c-2.6,0-5.3,0-7.9,0c-25.9-0.1-51.7-0.1-77.5,0c0,0-1.8,0-5.3-0.1c-1.8,0-3.6,0-5.7,0.1
	c-0.3,0-0.5,0.3-0.5,0.5c-0.3,1.1-0.8,1.8-1.5,2.3c-0.3,0.1-0.4,0.5-0.3,0.8l0,0c0.8,1.3,1.5,2.5,2,3.8c1,2.3,1.6,3.5,1.9,3.9
	c1.5,3,3,5.9,4.5,8.9c0,0,0.3,0.5,0.8,1.3c0.1,0.3,0.3,0.6,0.4,0.9c0.1,0.4,0.3,0.8,0.4,0.9c1.1,2.3,2.4,4.4,3.4,6.7
	c0,0,0.1,0.3,0.3,0.8c0,0.1,0.1,0.4,0.3,0.5c0.1,0.3,0.3,0.4,0.4,0.5c1.4,2.9,2.9,5.8,4.4,8.7c0.3,0.4,1,1.9,2.3,4.4
	c0.5,1,1,2,1.5,2.9c0.5,1,1,1.9,1.5,2.9c0.6,1.3,1.3,2.5,1.9,3.6c0.6,1,1.1,2.1,1.6,3.3c0.5,1.1,1.1,2.3,1.6,3.3
	c1.3,2.4,2.4,4.5,3.3,6.2c2.4,4.9,4.9,9.8,7.4,14.6c0.3,0.5,0.9,1.9,1.9,3.9c0.6,1.4,1.3,2.6,2,3.9c0.5,0.9,1.1,2,1.8,3.5
	c0.5,1.1,1.1,2.4,1.9,3.5c0.4,0.6,0.8,1.5,1.4,2.8c0.4,1,0.9,1.9,1.4,2.8c0.9,1.4,1.4,2.4,1.5,2.8c0.5,1.4,1,2.5,1.8,3.6
	c0.1,0.3,0.5,0.3,0.6,0.1l2.6-1.6c0.4-0.3,0.5-0.1,0.5,0.4l-0.5,8.4c0,0.1-0.1,0.3-0.3,0.3h-0.1c-1.4-0.9-2.8-1.8-4-2.8
	c-0.5-0.4-1.1-0.8-1.6-0.9c-0.8-0.3-1.3-0.8-1.6-1.4c0-0.1,0-0.3,0.1-0.3l0,0l2.9-1.4c0.3-0.1,0.4-0.4,0.3-0.6
	c-0.4-0.9-0.8-1.8-1.3-2.6c-0.8-1.3-1.1-2.1-1.4-2.5c-1.4-3-2.4-4.9-2.6-5.5c-0.8-1.3-1.3-2.1-1.6-3c-0.5-1.1-0.9-1.8-0.9-1.8
	c-0.5-1-1-2-1.6-3c-0.5-0.9-1-1.9-1.5-3c-0.6-1.3-1.1-2.4-1.8-3.5c-0.8-1.5-1.4-2.8-1.9-3.5c-2.9-5.9-5.9-11.8-9-17.7
	c-0.1-0.3-0.5-1.1-1.1-2.4c-0.3-0.5-0.5-1.1-0.9-1.6c-0.4-0.6-0.6-1.1-0.9-1.5c-1.1-2.4-2.3-4.8-3.5-7.2c-1.6-3-3.1-6.2-4.8-9.2
	c0-0.1-0.5-0.9-1.3-2.5c-0.4-0.9-0.9-1.6-1.4-2.5c-0.4-0.5-0.8-1.5-1.5-2.9c-0.5-1-0.9-2-1.4-2.9c-0.8-1.4-1.5-2.9-2.3-4.3
	c-0.5-1-1.1-2.1-1.9-3.6c-0.4-0.8-0.9-1.6-1.3-2.4c-0.4-0.9-0.9-1.8-1.3-2.4c-0.8-1.5-1.5-3-2.3-4.5c-0.6-1.4-1.4-2.8-2-3.9
	c-0.6-1.3-1.4-2.5-2-3.8c-0.1-0.3-0.4-0.4-0.6-0.4c-1.4,0.3-2.5,0.1-3.5-0.4c-0.6-0.3-1.1-0.1-1.4,0.4c-0.1,0.4-0.3,0.5-0.3,0.5
	c-3.4,5.3-6.8,10.5-10.2,15.8c-1.4,2-2.6,4-4,6c0,0-0.5,0.9-1.6,2.6c-0.4,0.6-0.9,1.3-1.3,1.9c-0.5,0.6-0.9,1.3-1.3,1.9
	c-0.5,0.8-1,1.6-1.5,2.4c-0.9,1.4-1.5,2.1-1.5,2.3c-2.5,3.9-5,7.8-7.7,11.7c-1.8,2.5-3.4,5.1-5,7.8c-0.1,0.1-0.5,0.8-1.3,1.9
	c-0.3,0.4-0.5,0.9-0.8,1.3c-0.3,0.5-0.5,1-0.8,1.3c-2.4,3.5-4.8,7.2-7,10.8c-0.1,0.1,0,0.3,0,0.4c0.9,0.9,1.8,1.5,2.6,1.9
	c0.5,0.3,0.5,0.4,0,0.6c-2.3,1-4.5,2.3-6.8,3.5c-0.4,0.3-0.6,0.3-1,0.3c-0.1,0-0.3-0.1-0.3-0.3l0,0l0.5-8.4c0-0.5,0.3-0.6,0.8-0.4
	l2.6,1.9c0.3,0.1,0.5,0.1,0.6-0.1l0,0c0.9-1.5,1.8-2.9,2.6-4.3c2.9-4.4,5.9-8.9,8.8-13.4c0.1-0.1,0.5-0.8,1-1.6
	c0.4-0.5,0.8-1.1,1.1-1.6c0.6-0.9,1.1-1.5,1.4-2c0.3-0.5,0.6-1,0.9-1.4c0.3-0.4,0.6-0.9,0.9-1.4c1-1.4,1.9-2.8,2.8-4.1
	c0.4-0.6,1-1.6,1.9-2.9c0.5-0.6,0.9-1.3,1.3-1.9c0.5-0.9,0.9-1.5,1.3-2c1-1.5,2-3,3-4.6c0.3-0.4,0.8-1.3,1.6-2.4
	c0.4-0.5,0.8-1.1,1-1.6c0.4-0.8,0.8-1.3,1-1.6c3.9-5.8,7.7-11.6,11.4-17.3c0,0,0.4-0.5,1.1-1.5c0.4-0.6,0.8-1.3,1.1-1.9
	c0-0.1,0.1-0.1,0.3-0.3c0.4-0.3,0.4-0.6,0.1-1c-0.6-1.1-0.9-2.4-0.6-4c0.1-0.8-0.1-1.4-0.9-1.6c-0.4-0.1-0.5-0.3-0.5-0.3
	c-2.3-1.1-4.5-2.4-6.8-3.5c-0.6-0.4-1.6-0.9-3-1.5c-1-0.5-2-1-3-1.6c-0.6-0.4-1.5-0.9-2.5-1.4c-0.8-0.4-1.5-0.8-2.5-1.4
	s-2-1.1-3-1.8c-0.9-0.5-1.9-1-3.1-1.6s-2.5-1.3-3.6-2c-0.9-0.5-1.9-1-3.1-1.6c-1-0.5-2-1-3.1-1.6c-1.3-0.8-2.9-1.6-5.1-2.8
	c-0.3-0.1-1.1-0.6-2.6-1.5c-0.6-0.4-1.1-0.6-1.8-0.9c-0.8-0.4-1.3-0.6-1.8-0.9c-1-0.6-2.1-1.3-3.3-1.8c-1.6-0.9-2.8-1.4-3.3-1.8
	c-6-3.3-9.9-5.4-11.6-6.2c-1.9-0.9-3.8-2-5.5-3c-1.3-0.8-2.6-1.4-4.1-2c-0.3-0.1-0.5,0-0.6,0.3l-1.5,2.6c-0.3,0.4-0.5,0.4-0.6,0
	c-0.5-1-1-1.9-1.6-2.8c-1-1.4-1.9-2.9-2.6-4.4c-0.1-0.1,0-0.4,0.1-0.4h0.1c2.9-0.3,5.8-0.3,8.5-0.3c0.1,0,0.1,0.1,0.1,0.1s0,0,0,0.1
	c-0.4,0.9-0.9,1.6-1.3,2.4c-0.3,0.4-0.4,0.6-0.4,1c0,0.1,0.1,0.3,0.3,0.4c1.4,0.6,2.6,1.3,3.9,2c0.6,0.4,1.9,1,3.8,2.1
	c0.9,0.5,1.8,1,2.6,1.4c1,0.5,1.9,1,2.6,1.4c1.4,0.8,2.8,1.5,4.3,2.3c1.3,0.6,2.8,1.4,4.3,2.3c1.6,0.9,3.3,1.8,4.9,2.5
	c0.5,0.3,1.1,0.6,1.9,1.1c0.5,0.4,1.3,0.6,1.9,1c1.4,0.6,3,1.5,4.6,2.5c0.9,0.5,2.3,1.3,3.9,2c0.9,0.5,1.8,0.9,2.6,1.4
	c0.9,0.5,1.8,1,2.6,1.4c1.9,0.9,3.5,1.8,4.9,2.6c0.6,0.4,1.3,0.6,1.8,0.9c0.9,0.4,1.5,0.6,1.8,0.9c1.3,0.8,2.5,1.4,3.8,2.1
	c1,0.6,2.3,1.3,3.8,2s2.8,1.4,3.8,2c0.6,0.4,1.3,0.8,1.9,1c0.9,0.4,1.5,0.8,1.9,1c1.8,1,3.5,2,5.3,2.8c0,0,0.4,0.3,1,0.6
	c0.5,0.4,1.1,0.4,1.8,0s1-0.5,1-0.5c0.5-0.3,0.9-0.5,1.3-0.8c0.1-0.1,0.1-0.1,0.1-0.3l-0.1-9.7C636.6,198.3,636.6,198.2,636.5,198z"
	/>
<path class="st0" d="M115.8,86c0.4-0.4,0.8-0.8,1.3-1.1c0.1-0.1,0.4-0.1,0.5,0l0,0l4.4,4.4c0.1,0.1,0.1,0.3,0.1,0.3
	c-0.1,0.3-0.3,0.4-0.6,0.4c-0.1,0-0.3-0.1-0.3-0.1c-1.1-1.3-2.3-2.4-3.5-3.4c-0.1-0.1-0.4-0.1-0.5,0c-1.3,1-2.4,2.1-3.5,3.1
	c-0.1,0.1-0.3,0.3-0.5,0.3c-0.6,0.1-0.8-0.1-0.1-0.8C113.7,88,114.7,87,115.8,86z"/>
<path class="st0" d="M755.5,86.4c0.3-0.1,0.5-0.1,0.6,0c1.4,1.1,2.6,2.3,3.8,3.5c0.3,0.4,0.4,0.6,0.1,1.1c0,0.1-0.1,0.1-0.3,0l0,0
	l-3.3-3.1c-0.4-0.4-0.9-0.4-1.3-0.1c-1,0.8-2.1,1.8-3,3c-0.1,0.1-0.1,0.1-0.3,0.1c-0.4,0-0.5-0.3-0.4-0.6c0-0.1,0.1-0.3,0.3-0.5
	C752.7,88.7,754,87.5,755.5,86.4z"/>
<path class="st0" d="M124.5,92.4c0-0.4,0-0.9,0.1-1.3c0-0.1,0.1-0.3,0.3-0.3c0.9-0.1,1.6-0.1,2.5,0c0.1,0,0.1,0.1,0.1,0.3
	c-0.3,1.8-0.8,3.4-1.4,5.1c0,0.1-0.1,0.3-0.3,0.3l-1.1-0.1c-0.1,0-0.1-0.1-0.3-0.3c-0.1-0.8-0.1-1.5,0-2.3
	C124.5,93.4,124.5,93.1,124.5,92.4z"/>
<path class="st0" d="M116.3,102.6c1.4-0.3,3.1-0.3,5.1-0.3c0.1,0,0.3,0.1,0.3,0.1l0.1,2c0,0.1-0.1,0.3-0.3,0.3l0,0h-9
	c-0.1,0-0.3-0.1-0.3-0.3l0,0c0-0.9,0.3-1.6,0.8-2.3c1.6-2.6,3.4-5.4,5.1-8.2c0.3-0.4,0.1-0.5-0.4-0.5h-4.4c-0.1,0-0.3-0.1-0.3-0.1
	v-1.9c0-0.1,0.1-0.3,0.4-0.3l0,0h7.7c0.4,0,0.6,0.3,0.6,0.6c0,0.6-0.1,1.3-0.5,1.9c-0.4,0.5-0.5,0.8-0.5,0.8c-0.6,1.1-1.3,2.1-2,3.1
	c-1,1.4-1.9,2.9-2.8,4.5C116,102.5,116,102.6,116.3,102.6z"/>
<path class="st0" d="M762.3,97.1c-0.1,0-0.1-0.1-0.1-0.3l0.3-4.5c0-0.3,0.1-0.4,0.3-0.4l1.8-0.1c0.1,0,0.3,0.1,0.3,0.3l0,0
	c-0.1,1.6-0.5,3.3-1.1,4.9C763.4,97.3,763,97.4,762.3,97.1z"/>
<path class="st0" d="M756.3,104.9c0,0.1-0.1,0.3-0.3,0.3h-1.4c-0.3,0-0.5-0.3-0.5-0.5l0,0c0-1.1,0-2.1-0.1-3.1
	c-0.1-0.9-0.4-1.9-0.9-3c-0.8-1.9-1.6-3.8-2.6-5.5c-0.1-0.3,0-0.5,0.1-0.5c1.1-0.6,1.9-0.4,2.5,0.6c0.8,1.5,1.4,3.1,2.1,4.6
	c0.1,0.5,0.4,0.4,0.5,0c0.5-1.6,1.1-3.4,1.9-5c0.1-0.3,0.3-0.4,0.5-0.4l1.8-0.1c0.1,0,0.3,0.1,0.3,0.3l0,0c0,0.6-0.1,1.3-0.4,1.8
	c-1.1,2.4-2,4.1-2.5,5s-0.8,1.9-0.6,2.9C756.5,103,756.5,103.9,756.3,104.9z"/>
<path class="st0" d="M128.8,106l-0.5,2c-0.1,0.4-0.4,0.6-0.6,0.6l-1.6-0.1c-0.1,0-0.1-0.1-0.1-0.1l0,0c0.4-1.1,0.8-2.3,1.1-3.4
	c0.8-2,1.4-4.1,1.8-6.2c0-0.3,0.3-0.4,0.5-0.4l1.9-0.1c0.3,0,0.5,0.1,0.6,0.5c1,3.3,2,6.5,3.3,9.5c0,0.1,0,0.3-0.1,0.3l0,0
	c-0.8,0.1-1.5,0.1-2.1,0c-0.1,0-0.3-0.1-0.3-0.3c-0.1-0.5-0.3-1.1-0.4-1.6c-0.1-0.6-0.5-1-1.1-1c-0.5,0-0.8,0-0.8,0
	c-0.5,0-0.9,0-1.4,0C128.9,105.7,128.9,105.9,128.8,106z M130.2,100.3l-0.8,3.1c-0.1,0.4,0,0.6,0.1,0.8l0,0l1.6,0.1
	c0.5,0,0.6-0.3,0.5-0.8l-1.1-3.1C130.4,100,130.3,100,130.2,100.3z"/>
<path class="st0" d="M771.3,103.5c0.9,0.5,1.4,1.1,1.4,1.9c0.1,1.3-0.4,2.1-1.5,2.8c-0.9,0.5-1.9,0.8-2.9,0.6
	c-0.8,0-1.6-0.1-2.5-0.1c-0.3,0-0.5-0.3-0.5-0.5l-0.1-9c0-0.3,0.3-0.4,0.4-0.4l0,0c0.6,0,1.4,0,2.1,0c0,0,0.4,0,1,0
	c0.6,0,1.1,0.1,1.6,0.3c0.6,0.1,1,0.5,1.3,1c0.6,1.1,0.4,2.1-0.6,3.1C771.2,103.3,771.2,103.3,771.3,103.5L771.3,103.5z
	 M769.6,100.5l-2.1-0.3c-0.1,0-0.3,0.1-0.3,0.3c-0.3,0.8-0.3,1.5,0,2.3c0,0.1,0.1,0.1,0.3,0.1c0.4,0,0.8,0,1.3,0
	c0.5,0,1-0.1,1.3-0.5c0.5-0.5,0.4-1.1,0-1.8C769.8,100.6,769.7,100.5,769.6,100.5z M769.9,104.5l-2.4-0.1c-0.1,0-0.4,0.1-0.4,0.3
	l0,0l-0.1,2.1c0,0.1,0.1,0.4,0.4,0.4l0,0c0.4,0,0.8,0,1.1,0c1.9,0,2.4-0.8,1.5-2.4C770.2,104.6,770.1,104.5,769.9,104.5z"/>
<path class="st0" d="M25.3,106.6c0.4-0.4,0.6-0.6,1-1c0.1,0,0.3,0,0.3,0c1,1.3,2.1,2.4,3.3,3.4c0.6,0.5,1,1,1.1,1.4
	c0.1,0.5,0,0.6-0.3,0.6c-0.1,0-0.3-0.1-0.4-0.3c-1.1-1-2.4-2.1-3.6-3.4c-0.1-0.1-0.5-0.1-0.6,0c-1.3,1.1-2.5,2.3-3.6,3.4
	c-0.1,0.1-0.4,0.3-0.5,0.3c-0.3,0-0.4-0.1-0.4-0.4c0-0.1,0.1-0.3,0.3-0.5c0.8-0.9,1.5-1.6,2.4-2.5C24.3,107.6,24.7,107.2,25.3,106.6
	z"/>
<path class="st0" d="M474.2,109.5c0.3-0.4,0.6-0.5,1-0.3c0.1,0.1,0.3,0.3,0.4,0.5c0.1,0.1,0.3,0.4,0.4,0.5c1,0.9,1.9,1.8,2.8,2.8
	c0.1,0.1,0.3,0.4,0.3,0.5c0,0.3-0.1,0.4-0.4,0.4c-0.1,0-0.3,0-0.3-0.1l-3.4-3.1c-0.1-0.1-0.3-0.1-0.3,0l-3.5,3.1
	c-0.1,0.1-0.3,0.1-0.4,0.1c-0.3-0.1-0.1-0.6,0.5-1.3c0.3-0.3,0.5-0.5,0.8-0.8c0.6-0.4,1.1-1,1.8-1.6
	C473.8,110,474,109.9,474.2,109.5z"/>
<path class="st0" d="M34.5,112h1.8c0.1,0,0.3,0.1,0.3,0.3l0,0c-0.3,1.5-0.6,2.9-1,4.4c0,0,0,0.3,0,0.5s-0.1,0.4-0.5,0.4
	c-0.1,0-0.3,0-0.4,0c-0.3,0.1-0.6,0.1-0.9-0.1c-0.1,0-0.1-0.1-0.1-0.3l0.4-4.8C34,112.1,34.2,112,34.5,112z"/>
<path class="st0" d="M27.2,115.3c0.3-0.4,0.1-0.5-0.3-0.5h-4.6c-0.3,0-0.4-0.1-0.4-0.4l0,0v-1c0-0.6,0.3-0.9,0.8-0.9h7.3
	c0.5,0,0.8,0.3,0.8,0.8c0.1,0.9-0.1,1.6-0.8,2.4c-0.6,0.9-1,1.3-1,1.3c-1.4,2.3-2.9,4.4-4.1,6.7c-0.1,0.1,0,0.3,0.1,0.3l5.3-0.1
	c0.1,0,0.3,0,0.3,0.1c0.3,0.6,0.4,1.4,0.1,2c0,0.1-0.1,0.1-0.3,0.1c-3,0.1-6.2,0.1-9.2,0c-0.1,0-0.3-0.1-0.3-0.3l0,0
	c0.1-1,0.5-1.8,1-2.5c0.3-0.5,0.5-0.6,0.5-0.6C24.2,119.9,25.7,117.5,27.2,115.3z"/>
<path class="st0" d="M482.3,118.8c-0.1,0.4-0.4,0.6-0.6,0.8s-0.5,0.1-0.8,0c-0.1-0.1-0.1-0.3-0.1-0.6c0-1.3,0.1-2.5,0.3-3.8
	c0-0.1,0.1-0.3,0.1-0.3c0.4-0.4,1-0.4,1.8,0c0.1,0.1,0.3,0.3,0.3,0.4L482.3,118.8z"/>
<path class="st0" d="M474.6,119.8l1.9-4.4c0-0.1,0.1-0.3,0.3-0.3c0.6-0.3,1.3-0.3,2,0c0.1,0,0.1,0.1,0.1,0.3c0,0.3-0.1,0.5-0.4,0.8
	c-0.1,0.1-0.1,0.3-0.3,0.3c-0.5,1.8-1.3,3.3-2,4.6c-0.4,0.8-0.6,1.5-0.6,2.1c0,1-0.1,2-0.1,3.1c0,0.3-0.3,0.5-0.5,0.5l0,0l-1.5-0.1
	c-0.3,0-0.4-0.3-0.4-0.4l0,0c0.1-1,0.3-2,0-3.1c-0.1-0.6-0.5-1.6-1.1-2.8c-0.8-1.5-1.5-3.1-2.1-5c0-0.1,0-0.3,0.1-0.3l0,0
	c1.4-0.4,2.3,0,2.6,1c0.1,0.5,0.3,0.8,0.3,0.8c0.4,0.9,0.8,1.9,1.3,2.9C474.3,120.1,474.5,120.1,474.6,119.8z"/>
<path class="st0" d="M36.8,129.7c-0.3,0-0.4-0.1-0.4-0.4l-0.1-9.5c0-0.3,0.3-0.5,0.5-0.5l0,0c1.4,0.1,2.8,0.1,4,0.1
	c1.8,0,2.6,1,2.6,2.8c0,0.6-0.4,1.1-0.9,1.4c-0.1,0.1-0.3,0.3-0.1,0.5c0,0,0,0,0,0.1c2.1,2,2.1,3.6,0,5c-0.5,0.4-1,0.5-1.8,0.5
	C39.6,129.7,38.2,129.7,36.8,129.7z M38.2,121.2c0.1,0.3,0.1,0.6,0.1,0.9c-0.1,0.5,0,0.9,0.1,1c0.1,0,0.4,0.1,0.9,0.1
	c0.6,0,1.3-0.1,1.9-0.4c0.6-0.4,0.9-0.8,0.5-1.3c-0.1-0.3-0.5-0.5-0.9-0.6c-0.8-0.3-1.5-0.4-2.4-0.3c-0.1,0-0.1,0.1-0.3,0.3
	C38.2,121.2,38.2,121.2,38.2,121.2z M38.7,128c1,0.1,2,0,3-0.4c0.1,0,0.3-0.1,0.3-0.3c0.3-0.6,0.3-1.3-0.1-1.6
	c-0.3-0.4-0.8-0.5-1.4-0.6c-0.6,0-1.3,0-1.9,0c-0.1,0-0.3,0.1-0.3,0.3c-0.1,1-0.1,1.8,0.1,2.4C38.5,127.8,38.6,128,38.7,128z"/>
<path class="st0" d="M489.5,125.8l0.9,0.5c0.1,0,0.1,0.1,0.1,0.3c0.5,1.9-0.3,3-2,3.5c-1,0.3-2.5,0.3-4.5,0c-0.1,0-0.1-0.1-0.3-0.3
	c-0.1-2.9-0.1-5.8,0.1-8.7c0-0.1,0.1-0.3,0.3-0.3c2.1-0.1,3.6,0,4.4,0.3c1.3,0.4,1.9,1.3,1.8,2.4c0,0.3-0.1,0.5-0.4,1
	c-0.1,0.3-0.3,0.6-0.4,1C489.3,125.7,489.4,125.8,489.5,125.8z M486,124.8c0.8,0.1,1.5,0,2.1-0.5c0.1-0.1,0.1-0.1,0.3-0.3
	c0.1-0.6,0-1-0.6-1.3c-0.3-0.1-0.8-0.1-1.5-0.1c-0.6,0-0.9,0.4-0.8,0.9c0,0.1,0,0.3,0,0.4c0,0.3,0,0.4,0.1,0.5
	C485.7,124.7,485.8,124.8,486,124.8z M488.7,127.1c0-0.4-0.3-0.6-0.6-0.6l0,0h-1.8c-0.4,0-0.6,0.3-0.6,0.6l0,0v1.1
	c0,0.4,0.3,0.6,0.6,0.6l0,0h1.8c0.4,0,0.6-0.3,0.6-0.6l0,0V127.1z"/>
<path class="st0" d="M678.9,135.1l0.3-1c0-0.1,0.1-0.1,0.3-0.1l1.8-0.1c0.1,0,0.3,0.1,0.3,0.3l0,0c-0.3,1.9-0.5,3.6-0.9,5.1
	c-0.1,0.4-0.1,0.6-0.1,1c0,0.1,0,0.4-0.1,0.6c-0.1,0.4,0,0.5,0.4,0.5c0.3,0,0.5,0,0.5,0.1c0.8,0.4,1,1,0.5,1.8
	c0,0.1-0.1,0.1-0.3,0.1c-1.3,0.1-2.4-0.1-3.3-0.9c-0.1-0.1-0.3-0.1-0.3,0c-1.1,0.9-2.4,1.1-3.9,0.6c-1-0.4-1.6-1-2-2
	c-0.1-0.5-0.3-1-0.4-1.6s-0.1-1.3,0-1.6c0.1-1,0.5-1.9,1.3-2.9c1-1.1,2.1-1.6,3.4-1.5c0.5,0,0.9,0.3,1.3,0.5s0.6,0.6,0.9,1
	c0.1,0.1,0.1,0.3,0.3,0.1C678.8,135.4,678.8,135.4,678.9,135.1z M678.2,137.6c0-0.9-0.6-1.8-1.6-1.8h-0.3c-0.9,0-1.8,0.6-1.8,1.6
	l0,0l-0.1,2.4c0,0.9,0.6,1.8,1.6,1.8h0.3c0.9,0,1.8-0.6,1.8-1.6l0,0L678.2,137.6z"/>
<path class="st0" d="M568.4,144.5l-3.5,3.4c-0.1,0.1-0.3,0.1-0.3,0.1c-0.5,0-0.6-0.3-0.4-0.6c0.1-0.1,0.3-0.3,0.4-0.5
	c1.3-1.1,2.4-2.4,3.5-3.6c0.1-0.1,0.4-0.1,0.6,0l0,0c1.1,1.1,2.1,2.1,3.3,3.1c0,0,0.1,0.1,0.4,0.4c0.4,0.4,0.5,0.8,0.5,1.3
	c0,0.3-0.1,0.3-0.4,0.1c-1.3-1.1-2.5-2.3-3.8-3.3c-0.1,0-0.1-0.1-0.1-0.3C568.5,144.5,568.5,144.4,568.4,144.5L568.4,144.5z"/>
<path class="st0" d="M218.1,148.7c0.4,0.4,0.3,0.6-0.3,0.8c-0.4,0-0.8-0.1-1-0.6c-0.4-0.6-1.4-1.6-3.1-3c-0.1-0.1-0.3-0.1-0.3,0
	c-0.3,0.1-0.8,0.5-1.3,1c-0.9,0.8-1.6,1.5-2.5,2.4c-0.3,0.3-0.5,0.3-0.9,0c-0.1,0-0.1-0.1,0-0.3l0,0c1.8-2.3,3.1-3.6,4.1-4.4
	c0.5-0.4,1-0.4,1.4,0.1c0.3,0.4,0.4,0.5,0.5,0.5C215.7,146.3,216.8,147.4,218.1,148.7z"/>
<path class="st0" d="M575.6,154.2c-0.1,0-0.3-0.1-0.3-0.4l0.5-4.5c0-0.1,0.1-0.3,0.3-0.3c0.5-0.3,1-0.1,1.8,0.1
	c0.3,0.1,0.4,0.3,0.3,0.5l-1,4.3c0,0.1-0.1,0.3-0.3,0.3C576.4,154.3,576.1,154.5,575.6,154.2z"/>
<path class="st0" d="M567.3,159.9c-0.1,0.1,0,0.3,0.1,0.3l5.1,0.1c0.1,0,0.3,0.1,0.3,0.1c0.1,0.3,0.1,0.4,0.1,0.6c0,0.1,0,0.4,0,0.6
	c0,0.4-0.3,0.6-0.6,0.5c-0.3,0-0.5,0-0.5,0c-2.4,0-4.9,0-7.3-0.1c-0.6,0-0.8-0.3-0.5-0.9c0.6-1.5,1.5-3,2.6-4.5
	c1.1-1.5,2.1-3.1,3-4.8c0-0.1,0-0.3-0.1-0.3c0,0,0,0-0.1,0l-4.3-0.1c-0.3,0-0.5-0.1-0.5-0.4c-0.3-1,0.1-1.5,1-1.5c0.4,0,0.6,0,0.6,0
	c2.1,0,4.3,0,6.4,0.1c0.3,0,0.5,0.3,0.5,0.5c0,0,0,0,0,0.1c-0.3,1-0.8,2-1.4,2.9C570.2,155.5,568.7,157.6,567.3,159.9z"/>
<path class="st0" d="M221.9,150.4c0.5,0,0.8,0.1,0.8,0.4c0,0,0,0.3-0.1,0.6c-0.3,1.4-0.5,2.8-1,4.1c0,0.1-0.1,0.3-0.3,0.3
	c-1,0.6-1.5,0.3-1.5-1c0-1,0.1-2,0.3-3c0,0,0-0.3,0-0.8c0-0.6,0.4-1,1-0.8C221.6,150.3,221.7,150.4,221.9,150.4z"/>
<path class="st0" d="M213,157c0.1,0.3,0.1,0.1,0.3,0c0.1-0.6,0.4-1.4,0.6-2c0.5-1.1,0.9-2.1,1-3.3c0.1-0.4,0.4-0.6,0.8-0.8
	c0.9-0.1,1.6-0.1,2.1,0.1c0.1,0,0.1,0.1,0.1,0.3c-0.4,1.1-1,2.4-1.9,3.9c-0.4,0.8-0.8,1.6-1.3,2.8c-0.3,0.8-0.5,1.6-0.5,2.5
	c0,1.1-0.1,2.4-0.1,3.5c0,0.1-0.1,0.3-0.1,0.3c-0.8,0.1-1.5,0.1-2.3,0c-0.1,0-0.3-0.1-0.3-0.3c-0.3-1.4-0.3-2.6-0.1-3.8
	c0-0.5,0-1-0.3-1.5c-0.3-0.4-0.3-0.6-0.3-0.6c-1-2.3-2-4.5-3.1-6.8c-0.1-0.1,0-0.4,0.1-0.5l0,0c0.8-0.4,1.4-0.4,1.9,0
	c0.4,0.3,0.6,0.6,1,1.4C211.5,154,212.3,155.5,213,157z"/>
<path class="st0" d="M584,160.9c1.3,0.3,1.8,1.1,1.5,2.5c-0.1,0.9-0.5,1.5-1.3,1.8c-1.9,0.8-3.8,0.9-5.8,0.5c-0.1,0-0.1-0.1-0.3-0.3
	c-0.1-2.9-0.1-6,0-9.3c0-0.1,0.1-0.3,0.3-0.3l0,0c1.1,0.1,2.1,0.1,3.1,0.1c0.9,0,1.6,0.1,2.3,0.6c1.1,0.8,1.4,1.8,0.6,3
	c-0.3,0.4-0.5,0.8-0.6,1.1C583.8,160.7,583.8,160.9,584,160.9L584,160.9z M582.3,157.7c-0.5-0.1-1.1-0.1-2.1,0
	c-0.1,0-0.3,0.1-0.3,0.3v1.8c0,0.1,0.1,0.3,0.3,0.3c0.6,0.1,1.3,0.1,1.8-0.1c0.5-0.1,0.8-0.4,1-0.8
	C583.3,158.5,583.1,158,582.3,157.7z M582.8,161.6l-2.3-0.3c-0.3,0-0.4,0.1-0.4,0.4c-0.1,0.9-0.1,1.6,0,2.4c0,0.1,0.1,0.3,0.3,0.3
	c0.3,0,0.4,0,0.6,0c0.1,0,0.5,0,0.8,0c1.1,0,1.8-0.5,1.8-1.8C583.5,162,583.2,161.7,582.8,161.6z"/>
<path class="st0" d="M223.8,168.1c-0.3,0-0.4-0.3-0.4-0.5v-9.5c0-0.1,0.1-0.3,0.1-0.3c2-0.3,3.9-0.1,5.8,0.3
	c0.4,0.1,0.8,0.4,0.9,0.8c0.6,1.4,0.4,2.4-0.8,3.3c-0.3,0.3-0.3,0.4,0.1,0.5c0.4,0.1,0.8,0.4,1,0.9c1,1.5,0.8,2.9-0.8,4
	c-0.6,0.4-1.3,0.8-1.9,0.8c-0.3,0-1,0-2,0C225.2,168.3,224.5,168.3,223.8,168.1z M225.8,161.9c0.6,0.1,1.1,0,1.8-0.1
	c0.4-0.1,0.6-0.3,0.9-0.5c0.3-0.4,0.3-0.8,0.1-1.1c-0.1-0.4-0.5-0.6-1-0.8c-0.6-0.1-1.3-0.3-1.9-0.1c-0.1,0-0.3,0.1-0.3,0.3v1.9
	C225.5,161.6,225.6,161.7,225.8,161.9z M225.8,166.4c1,0.3,2,0,2.9-0.5c0.1-0.1,0.1-0.1,0.3-0.3c0.3-0.6,0.1-1.1-0.1-1.5
	c-0.3-0.4-0.8-0.5-1.4-0.6c-0.5,0-1.1,0-1.6,0c-0.1,0-0.3,0.1-0.3,0.3c-0.3,0.6-0.3,1.5,0,2.4C225.6,166.3,225.7,166.4,225.8,166.4z
	"/>
<path class="st0" d="M501.5,187.1c-0.4-0.3-0.8-0.6-1-0.9c-0.1-0.1-0.1-0.1-0.3,0l-3.5,3.1c-0.1,0.1-0.3,0.1-0.4,0.1
	c-0.4,0-0.4-0.3,0-0.6c0.5-0.8,1.1-1.4,1.9-2c0.6-0.5,1.1-1,1.5-1.5c0.3-0.4,0.6-0.4,1-0.1c1.1,1.1,2.4,2.4,3.5,3.5
	c0.1,0.1,0.3,0.3,0.3,0.4c0,0.3-0.1,0.4-0.4,0.4c-0.1,0-0.3-0.1-0.4-0.3c-0.4-0.4-0.6-0.6-1-1C502.2,187.9,501.8,187.5,501.5,187.1z
	"/>
<path class="st0" d="M506.2,195.3c-0.1-0.1-0.3-0.3-0.3-0.4l0.4-4c0-0.1,0.1-0.3,0.1-0.3c0.6-0.3,1.3-0.3,1.9,0
	c0.1,0,0.1,0.1,0.1,0.3c-0.3,1.4-0.5,2.6-1,4c-0.1,0.4-0.3,0.5-0.4,0.6C506.9,195.5,506.6,195.5,506.2,195.3z"/>
<path class="st0" d="M499.8,195.9c0.1,0.3,0.1,0.3,0.3,0l2-4.6c0-0.1,0.1-0.3,0.3-0.3c0.6-0.3,1.3-0.3,1.9,0c0.1,0,0.1,0.1,0.1,0.3
	c-0.6,1.8-1.4,3.4-2.1,5.1c0,0-0.3,0.5-0.8,1.3c-0.4,0.6-0.5,1.4-0.5,2.1s0.1,1.6,0.1,2.4c0,0.4-0.3,0.6-0.8,0.5c-0.1,0-0.3,0-0.4,0
	c-1,0.3-1.4-0.1-1.1-1.1c0.1-0.4,0.1-1.1,0-2.4c-0.1-0.6-0.3-1.3-0.6-1.9c-0.9-1.6-1.6-3.3-2.3-4.9c-0.3-0.5-0.4-0.9-0.4-0.9
	c0-0.4,0.3-0.8,0.9-0.9s1,0.1,1.3,0.6L499.8,195.9z"/>
<path class="st0" d="M510.6,203.9l-0.6,1.9c0,0.1-0.1,0.3-0.3,0.3h-1.5c-0.3,0-0.4-0.1-0.3-0.4v-0.1c0.9-2.3,1.6-4.5,2.4-6.9
	c0,0,0-0.3,0.1-0.6c0.1-0.8,0.8-1.1,1.6-1c0.9,0.1,1.4,0.5,1.5,1.4c0.5,2.4,1.3,4.8,2.3,7.2c0.1,0.1,0,0.4-0.1,0.4l0,0
	c-0.8,0.3-1.1,0.3-1.3,0.3c-0.5-0.3-0.8-0.6-0.8-1.1c-0.1-0.9-0.5-1.4-1-1.3c-0.4,0-0.5,0-0.6,0c-0.4,0-0.9,0-1.3,0
	C510.8,203.8,510.6,203.8,510.6,203.9z M511.8,199.4l-0.8,2.5c0,0.1,0,0.3,0.1,0.4l0,0c0.6,0.1,1.1,0.1,1.5-0.1
	c0.1,0,0.1-0.1,0.1-0.3c-0.1-0.9-0.3-1.6-0.4-2.4C512.1,198.5,511.9,198.5,511.8,199.4z"/>
<path class="st0" d="M760,206.6c-0.1-0.3,0-0.5,0.3-0.8c1.4-1.1,2.4-2.3,3.3-3.4c0.5-0.6,1.1-0.6,1.8-0.1c0.6,0.6,1.1,1.3,1.6,1.9
	c0.5,0.6,1.1,1.3,1.8,1.8c0.1,0.1,0.1,0.1,0.1,0.3c0,0.3,0,0.5-0.4,0.5s-0.6-0.1-0.9-0.4l-3.3-3.1c-0.1-0.1-0.4-0.1-0.5,0
	c0,0,0,0,0,0.1c-0.6,1-1.4,1.9-2.4,2.5c-0.1,0-0.1,0.1-0.3,0.3c-0.3,0.4-0.5,0.5-0.9,0.5C760.2,206.7,760,206.7,760,206.6z"/>
<path class="st0" d="M248.7,208.1c-0.4-0.3-0.8-0.3-1.1,0.1c-0.6,0.8-1.3,1.5-1.8,2.3c-0.5,0.8-1.1,1.1-1.6,1.3
	c-0.9,0.1-1-0.1-0.5-0.6c1.4-1.6,2.9-3,4.4-4.5c0.1-0.1,0.3-0.1,0.3,0c1.3,1.1,2.4,2.4,3.6,3.5c0,0,0.1,0.1,0.5,0.4
	c0.3,0.3,0.5,0.5,0.5,0.9c0.1,0.5-0.1,0.6-0.5,0.4c-1.3-0.6-2.3-1.6-3-2.8C249.2,208.5,248.9,208.2,248.7,208.1z"/>
<path class="st0" d="M770.7,208c0-0.1,0.1-0.3,0.3-0.3h1.9c0.3,0,0.5,0.3,0.5,0.5v0.1l-1,3.8c-0.1,0.4-0.4,0.6-0.8,0.8
	c-0.8,0.1-1.1,0.1-1.3-0.1c0,0,0-0.4,0-0.9C770.6,210.6,770.7,209.2,770.7,208z"/>
<path class="st0" d="M763.2,220.9c-0.3,0-0.4-0.1-0.4-0.4l0,0c0-1,0-2.1,0-3.1c0-0.8-0.3-1.4-0.5-2c-0.5-1-1-2.1-1.5-3.1
	c-0.5-1-1-2-1.3-3.1c-0.1-0.3,0-0.5,0.3-0.5l0,0c0.8-0.1,1.3-0.1,1.8,0.1c0.3,0.1,0.6,0.6,0.9,1.3c0.5,1.3,1,2.5,1.4,3.8
	c0.1,0.5,0.4,0.5,0.5,0c0.4-0.9,0.6-1.9,1.1-2.8c0,0,0.1-0.4,0.4-1.1c0.5-1.3,1.4-1.8,2.8-1.4c0.1,0,0.3,0.3,0.3,0.4l0,0
	c-1,2-1.9,4-2.8,6c0,0-0.1,0.4-0.5,1c-0.3,0.5-0.4,1.1-0.4,1.8c0.1,0.9,0.1,1.9,0,3c0,0.1-0.1,0.3-0.1,0.3L763.2,220.9z"/>
<path class="st0" d="M257.2,212.5c0.4,0.1,0.5,0.4,0.5,0.8l0,0l-1,4.4c-0.1,0.4-0.4,0.6-0.6,0.6c-0.8,0.1-1.3,0-1.4-0.4
	c0,0,0-0.4,0-1.1c0-1.4,0.1-2.6,0.4-4c0-0.1,0.1-0.3,0.3-0.3C256,212.5,256.7,212.3,257.2,212.5z"/>
<path class="st0" d="M247.8,218.9c0.1,0.1,0.3,0,0.4,0l0,0l2.1-5.4c0-0.1,0.3-0.3,0.4-0.3h2.1c0.1,0,0.3,0.1,0.3,0.3l0,0
	c-0.1,0.6-0.3,1.1-0.5,1.6c-0.4,0.6-0.6,1-0.6,1c-0.3,0.4-0.4,0.9-0.6,1.3c-0.1,0.3-0.4,0.8-0.6,1.3c-1,1.9-1.5,3.8-1.4,5.8
	c0,0.9,0,1.6,0,2c0,0.1-0.1,0.3-0.3,0.3h-1.9c-0.5,0-0.8-0.3-0.8-0.9c0.1-1.4,0.1-2.6-0.1-3.8c-0.1-0.8-0.6-2-1.4-3.4
	s-1.4-2.8-2.1-4.3c-0.3-0.5-0.1-0.9,0.5-1c0.4,0,1,0,1.8,0.1c0.3,0,0.5,0.3,0.5,0.4c0.6,1.5,1.1,3,1.5,4.4c0.1,0.3,0.1,0.4,0.3,0.5
	C247.6,218.6,247.7,218.9,247.8,218.9z"/>
<path class="st0" d="M775.3,222.3l-0.4,1.4c-0.1,0.4-0.4,0.6-0.8,0.8c-1.1,0.1-1.5,0-1.3-0.5s0.4-0.8,0.4-0.9
	c0.5-2.6,1.4-5.3,2.5-7.8c0-0.1,0.1-0.3,0.3-0.3c0.8-0.3,1.4-0.3,2,0.1c0.1,0,0.1,0.1,0.3,0.3c0.5,1.4,1,2.9,1.5,4.3
	c0.5,1.5,1,3,1.1,4.4c0,0.3-0.1,0.4-0.4,0.4l0,0c-1.3,0.1-1.9-0.4-1.9-1.4c0-0.6-0.4-1-1-1l-2.1,0.1
	C775.5,222,775.3,222.1,775.3,222.3z M776.6,220.5c0.9,0.1,1.3-0.1,1.1-0.9c-0.1-0.5-0.1-0.6-0.1-0.6c0-0.5-0.1-1.1-0.1-1.6
	c-0.1-0.6-0.3-0.8-0.5-0.4c-0.1,0.1-0.1,0.3-0.1,0.4c-0.1,0.6-0.3,1.1-0.5,1.6s-0.3,1,0,1.4C776.4,220.4,776.5,220.4,776.6,220.5z"
	/>
<path class="st0" d="M60.7,220.5c0.6-1.6,1.4-3.3,2.1-5c0.3-0.6,0.8-0.8,1.5-0.5c0.1,0,0.3,0,0.4,0c0.3,0,0.6,0,0.8,0.3
	c0.1,0.1,0.1,0.1,0,0.3c-1,1.9-1.9,3.8-2.6,5.8c-0.1,0.3-0.4,0.6-0.6,1.3c-0.3,0.5-0.5,1-0.5,1.4c0,1.5,0,2.9,0,4.4
	c0,0.1-0.1,0.3-0.1,0.3l0,0l-2.1-0.1c-0.1,0-0.1-0.1-0.1-0.3c0-1.3,0-2.5,0-3.6c0-0.8-0.1-1.4-0.5-2c-0.3-0.4-0.3-0.5-0.3-0.5
	c-1.1-2.1-2.1-4.4-3-6.7c0-0.1,0-0.3,0.1-0.3c0,0,0,0,0.1,0h2.1c0.3,0,0.5,0.1,0.6,0.4l2,5.1C60.5,220.9,60.6,220.9,60.7,220.5z"/>
<path class="st0" d="M445.7,224.5c1.6,0.8,2,2.1,1.5,4.3c-0.1,0.5-0.4,1-0.9,1.4c-0.9,0.9-2,1.1-3.4,0.8c-0.6-0.1-1.3-0.4-1.9-0.5
	c-0.3-0.1-0.3,0-0.3,0.3c0.3,1.1,0.4,2.3,0.3,3.3c0,0.1-0.1,0.3-0.3,0.3c-0.8,0.1-1.5,0.1-2.3,0c-0.1,0-0.1-0.1-0.1-0.3
	c0-3,0-5.9,0-8.9c0,0,0-0.8,0-2.1c0-1.1,0-1.9,0.3-2.4c0.3-1,1-1.6,2.3-2.1c1.4-0.5,2.5-0.5,3.6,0.1c1,0.5,1.5,1.3,1.6,2.1
	c0.1,1-0.1,1.9-0.9,2.9C445.1,223.9,445.2,224.3,445.7,224.5z M442.3,225.2c-0.3-0.9-0.1-1.5,0.5-1.9s0.9-0.5,0.9-0.5
	c0.8-0.6,0.8-1.4,0.3-2.4c0-0.1-0.1-0.3-0.3-0.3c-1-0.5-1.6-0.4-2.1,0.3c-0.3,0.4-0.4,0.9-0.5,1.8c-0.1,1.5-0.1,3.1-0.1,4.6
	c0,0.8,0.1,1.4,0.5,1.8c0.5,0.6,1.1,0.9,1.9,0.8c0.8-0.1,1.3-0.5,1.6-1c0.4-0.6,0.4-1.4,0-2.1c0-0.1-0.1-0.1-0.3-0.3
	c-0.6-0.4-1.4-0.5-2.1-0.6C442.5,225.3,442.3,225.2,442.3,225.2z"/>
<path class="st0" d="M257.5,230.2c-0.1,0-0.3-0.1-0.1-0.4c0.9-3.3,1.9-6.5,3-9.5c0-0.1,0.1-0.3,0.3-0.3l1.9-0.1
	c0.3,0,0.4,0.1,0.5,0.4c0.9,2.3,1.6,4.5,2.1,6.8c0.1,0.5,0.3,1,0.4,1.5c0.1,0.5,0.4,1,0.5,1.4c0,0.1,0,0.4-0.3,0.4l0,0
	c-1.3,0.3-1.9-0.1-2.1-1.1c-0.1-0.6-0.3-1-0.3-1.1c-0.3-0.3-0.5-0.4-0.9-0.4c-0.5,0-0.8,0-0.9,0c-0.5,0-1,0-1.4,0.1
	c-0.1,0-0.3,0.1-0.3,0.3c-0.1,0.5-0.3,0.9-0.5,1.4c-0.1,0.5-0.4,0.8-0.8,0.9C258.4,230.3,258,230.3,257.5,230.2z M260.7,225.8
	l1.3,0.3c0.5,0.1,0.8-0.1,0.6-0.6c-0.3-1-0.5-2-0.8-2.9c0-0.3-0.1-0.3-0.3-0.3s-0.1,0.1-0.3,0.3c-0.1,0.8-0.3,1.5-0.4,2.4
	c0,0.4-0.1,0.6-0.3,0.8C260.5,225.7,260.5,225.7,260.7,225.8z"/>
<path class="st0" d="M283.7,283.2c-0.6-0.6-1.3-0.6-1.8,0.1c-0.9,1-1.8,1.9-2.8,2.5c-0.5,0.4-0.8,0.3-0.5-0.4s0.6-1,1.1-1.3
	c0.6-0.4,1.1-0.9,1.6-1.5c0.3-0.5,0.8-0.9,1.3-1.3c0.3-0.1,0.5-0.1,0.8,0.1c0.5,0.5,0.9,1,1.4,1.6c0.5,0.8,1.1,1.3,2,1.6
	c0.4,0.3,0.5,0.6,0.4,1c-0.3,0.4-0.4,0.4-0.8,0.1c-0.1-0.1-0.3-0.3-0.3-0.3C285.1,284.6,284.4,283.8,283.7,283.2z"/>
<path class="st0" d="M289.9,291.7c-0.3,0-0.5-0.4-0.5-0.6l0.3-4.1c0-0.3,0.3-0.4,0.4-0.4l1.6,0.1c0.1,0,0.3,0.1,0.3,0.3l0,0
	c-0.1,1.3-0.3,2.4-0.4,3.4C291.4,291.5,290.8,292,289.9,291.7z"/>
<path class="st0" d="M283.4,295.6c-0.5-0.9-0.9-0.9-1.3,0l-1.1,3.1c0,0.1-0.1,0.1-0.3,0.1l-2,0.1c-0.5,0-0.6-0.1-0.4-0.5l3-5.1
	c0.3-0.4,0.3-0.8,0-1.1c-1-1.4-1.9-2.9-2.6-4.4c-0.3-0.5-0.1-0.8,0.3-0.6c0.3,0,0.4,0,0.5,0c0.4,0,0.9,0,1.5,0.1
	c0.1,0,0.4,0.1,0.4,0.4c0.4,1.1,0.8,2.3,1.4,3.3c0.3,0.4,0.5,0.4,0.6,0l1.4-3.1c0.1-0.1,0.3-0.3,0.4-0.3h2c0.1,0,0.1,0.1,0.1,0.1
	l0,0c0,0.4-0.1,0.6-0.4,0.9c-0.3,0.4-0.5,0.6-0.5,0.8c-0.4,0.8-0.6,1.3-0.9,1.5c-0.9,1.1-1.1,2.3-0.6,3.4c0.3,0.5,1,1.9,2.3,3.9
	c0.1,0.1,0.1,0.3,0.3,0.4c0.5,0.4,0.4,0.5-0.1,0.5c-0.1,0-0.3,0-0.4,0c-0.5,0.1-1,0.1-1.5,0c-0.1,0-0.3-0.1-0.3-0.3L283.4,295.6z"/>
<path class="st0" d="M295.7,300.2h-2.1c-0.3,0-0.5,0.3-0.6,0.5c-0.3,0.8-0.5,1.3-0.9,1.6c-0.1,0.1-0.1,0.1-0.3,0.1
	c-0.8,0.1-1-0.3-0.8-1.1c0.5-1.4,1-3.1,1.5-5.3c0.1-0.5,0.4-1.1,0.8-1.9c0-0.1,0-0.3,0-0.4c0-0.3,0.1-0.4,0.4-0.5
	c0.6-0.1,1.3-0.1,1.9,0c0.1,0,0.3,0.1,0.3,0.3c0.9,2.4,1.6,4.8,2.5,7c0,0,0.1,0.3,0.3,0.8c0.5,1.1,0,1.5-1.5,0.9
	c-0.1,0-0.3-0.1-0.3-0.3l-0.9-1.6C295.8,300.2,295.7,300.2,295.7,300.2z M294.7,298.6c0.3,0,0.5,0,0.6-0.1c0.1,0,0.1-0.1,0.1-0.3
	c-0.1-0.9-0.3-1.9-0.4-2.8c0-0.1,0-0.1-0.1-0.3s-0.1-0.1-0.3-0.1s-0.3,0.1-0.3,0.3c-0.3,0.9-0.5,1.8-0.8,2.6c-0.1,0.5,0,0.8,0.5,0.6
	C294.4,298.5,294.5,298.5,294.7,298.6z"/>
<path class="st0" d="M62.6,296.6l-3.5,3.8c-0.1,0.1-0.3,0.1-0.3,0.1c-0.8,0-0.9-0.3-0.4-0.6c0.1-0.1,0.3-0.3,0.4-0.4
	c1.1-1.4,2.3-2.8,3.6-3.8c0.3-0.3,0.6-0.3,0.9,0c1.6,1.3,3,2.8,4.1,4.3c0.3,0.4,0.3,0.5-0.1,0.6c-0.1,0-0.3,0-0.4-0.1
	c-0.5-0.4-1-0.8-1.5-1.3c-0.4-0.3-0.8-0.8-1.3-1.4c-0.4-0.5-0.8-0.9-1.3-1.1C62.7,296.5,62.6,296.5,62.6,296.6z"/>
<path class="st0" d="M70.8,307c-0.4-0.1-0.5-0.4-0.5-0.8l0.3-4.5c0-0.1,0-0.3,0.1-0.3c0.3-0.3,0.6-0.4,0.9-0.3
	c0.5,0,0.8,0.1,0.9,0.1c0.8,0,1,0.4,0.8,1c-0.1,0.5-0.3,0.9-0.3,1c-0.3,1.6-0.6,2.8-1,3.3C71.6,307,71.3,307.2,70.8,307z"/>
<path class="st0" d="M62.8,310.3c-0.1-0.4-0.3-0.4-0.4,0c-0.5,1.8-1.4,3.3-2.4,4.8c-0.1,0.1-0.1,0.1-0.3,0.1l-1.8-0.1
	c-0.5,0-0.6-0.3-0.3-0.6c0.5-0.8,1-1.5,1.5-2.4c0.1-0.3,0.4-0.8,0.6-1.4s0.5-1.1,0.8-1.4c0.5-0.5,0.6-1.1,0.3-1.6
	c-0.3-0.4-0.4-0.5-0.4-0.5c-0.8-1.6-1.6-3.3-2.5-4.9c0-0.1,0-0.1,0-0.3l0,0c0.6-0.3,1.3-0.3,1.9-0.1c0.5,0.1,0.9,0.5,1.1,1
	c0.6,1,1.1,2,1.5,3c0.3,0.8,0.5,0.8,0.8,0c0.4-1,0.8-2,1.3-3c0.4-0.8,0.9-1,1.8-1c0.1,0,0.4,0,0.6,0c0.1,0,0.4,0,0.5,0
	c0.1,0,0.1,0.1,0.1,0.3l0,0c-0.8,2-1.6,3.9-2.9,5.7c-0.1,0.1-0.1,0.3-0.1,0.4c0,0.5,0.1,1,0.4,1.4c0.4,0.5,0.6,0.9,0.6,0.9
	c0.8,1.4,1.5,2.9,2.3,4.4c0.1,0.1,0,0.4-0.1,0.4h-0.1c-0.8,0.1-1.5,0-2.3-0.3c-0.1,0-0.3-0.1-0.3-0.3
	C64.2,313.4,63.5,311.9,62.8,310.3z"/>
<path class="st0" d="M555.3,306.2c-0.1-0.1-0.5-0.3-0.6,0l-3.9,3.4c-0.1,0.1-0.3,0.1-0.3-0.1c-0.1-0.5,0-0.9,0.4-1.3
	c0.3-0.3,0.4-0.4,0.4-0.4c0.8-0.8,1.5-1.6,2.4-2.3c0,0,0.3-0.3,0.6-0.8c0.4-0.4,0.8-0.4,1.1,0c0.4,0.5,0.6,0.6,0.6,0.8
	c0.8,0.8,1.8,1.6,2.9,2.9c0.3,0.3,0.3,0.5,0.3,0.8c-0.1,0.5-0.4,0.5-0.9,0C557.4,308,556.2,307,555.3,306.2z"/>
<path class="st0" d="M353.4,307.8c-0.1,0.3-0.3,0.4-0.6,0.6c-0.3,0.3-0.5,0.4-0.6,0.5c-0.6,0.6-1.4,1.3-2,1.9
	c-0.1,0.1-0.3,0.1-0.3,0l0,0c-0.1-0.1-0.1-0.4-0.1-0.6s0.1-0.5,0.4-0.8l3.4-3.3c0.1-0.1,0.3-0.1,0.3,0c0.4,0.1,0.6,0.4,0.9,0.8
	c0.8,0.9,1.6,1.6,2.4,2.3c0.4,0.3,0.6,0.5,0.8,0.9c0.3,0.6,0.1,0.9-0.4,0.8c-0.1,0-0.3-0.1-0.3-0.1c-0.9-1-1.9-2-3.3-2.9
	C353.9,307.4,353.7,307.5,353.4,307.8C353.5,307.7,353.4,307.7,353.4,307.8z"/>
<path class="st0" d="M71.9,319.1c-0.1,0-0.3-0.3-0.3-0.4l0,0c1.1-3,2.1-6.2,2.9-9.3c0-0.1,0.1-0.3,0.3-0.3c0.8-0.5,1.5-0.5,2.4-0.3
	c0.1,0,0.3,0.1,0.3,0.3c0.9,2.5,1.8,4.9,2.5,7.4c0,0,0.1,0.4,0.4,1c0.1,0.5,0.3,0.9,0.3,1.4c0,0.1-0.1,0.3-0.1,0.3
	c-1.5,0.5-2.4-0.1-2.5-1.8c0-0.5-0.4-0.8-0.9-0.8h-2.4c-0.3,0-0.5,0.3-0.5,0.5l-0.4,1.6c0,0.1-0.1,0.3-0.3,0.3
	C73,319.2,72.4,319.2,71.9,319.1z M75.9,310.8c-0.1,0-0.3,0.1-0.3,0.3c-0.1,1-0.4,2-0.8,3c-0.1,0.3,0,0.5,0.3,0.5
	c0.5,0.3,1,0.3,1.6,0.1c0.3,0,0.4-0.3,0.4-0.5l0,0c-0.4-1.1-0.6-2.4-1.1-3.5C76,310.5,76,310.5,75.9,310.8
	C76,310.7,75.9,310.8,75.9,310.8z"/>
<path class="st0" d="M562.3,310.7c0-0.3,0.3-0.4,0.4-0.4h1.9c0.1,0,0.1,0.1,0.1,0.1l0,0c-0.1,1.6-0.5,3.1-1,4.5
	c-0.1,0.4-0.3,0.6-0.5,0.8c-0.3,0.3-0.6,0.1-0.9-0.1c-0.1-0.1-0.1-0.1-0.1-0.3C562,313.8,562,312.3,562.3,310.7z"/>
<path class="st0" d="M554.8,319.2c-0.4,0-0.5,0.3-0.6,0.6c-0.4,1.3-1,2.3-1.6,3.4c-0.1,0.1-0.1,0.1-0.3,0.3c-0.6,0.1-1.4,0.1-2,0
	c-0.1,0-0.1-0.1-0.1-0.1l0,0l3-5.9c0.1-0.1,0.1-0.4,0-0.5l-2.6-5.4c0-0.1,0-0.3,0.1-0.3c0.8-0.4,1.5-0.4,2.3,0
	c0.1,0,0.1,0.1,0.3,0.3l1.8,3.4c0.1,0.3,0.4,0.3,0.5,0c0.3-0.6,0.5-1.1,0.8-1.8c0.4-1,0.8-1.5,0.8-1.5c0.4-0.4,1-0.5,1.9-0.5
	c0.8,0,0.9,0.3,0.4,0.8c-0.1,0.1-0.3,0.4-0.4,1c-0.5,1.3-1.1,2.5-1.9,3.6c-0.4,0.5-0.4,1,0,1.5c0.4,0.4,0.5,0.6,0.5,0.6
	c0.9,1.5,1.6,3,2.4,4.6c0,0.1,0,0.3-0.1,0.3c0,0,0,0-0.1,0c-0.6,0-1.1,0-1.5-0.1c-0.5-0.1-0.9-0.4-1.1-0.8c-0.8-1-1.3-2.1-1.6-3.3
	C555.1,319.3,555,319.2,554.8,319.2z"/>
<path class="st0" d="M362.7,311.6c0.1,0,0.1,0.1,0.1,0.3c-0.1,1.4-0.5,2.8-1,4c-0.1,0.4-0.3,0.5-0.5,0.6c-0.3,0.1-0.4,0.1-0.6,0
	c-0.1,0-0.1-0.1-0.1-0.3c-0.1-1.5,0-2.9,0.3-4.4c0-0.1,0.1-0.3,0.3-0.3C361.6,311.4,362.2,311.4,362.7,311.6z"/>
<path class="st0" d="M353.9,319.7c-0.3-0.5-0.4-0.5-0.5,0c-0.4,1.4-0.9,2.6-1.8,3.8c-0.1,0.1-0.1,0.1-0.3,0.3
	c-0.6,0.3-1.3,0.3-1.9,0c-0.1,0-0.1-0.1-0.1-0.3l0,0c0.8-1.8,1.6-3.5,2.8-5.3c0.3-0.4,0.3-0.8,0-1.1c-0.9-1.3-1.6-2.8-2.4-4.5
	c-0.1-0.3,0-0.4,0.3-0.5c0,0,0,0,0.1,0c0.8-0.1,1.4-0.1,1.9,0.1c0.1,0,0.3,0.1,0.3,0.3l1.3,2.6c0.4,0.8,0.8,0.8,1,0
	c0.4-0.9,0.8-1.6,1-2.3c0.3-0.5,0.8-0.8,1.3-0.8c0.1,0,0.4,0,0.8,0c0.5,0,0.6,0.4,0.4,1c-0.6,1.4-1.3,2.6-2.1,3.8
	c-0.5,0.6-0.5,1.4,0,2c1,1.5,1.9,3,2.5,4.6c0,0.1,0,0.3-0.1,0.3c-0.5,0.3-1,0.3-1.5,0.1c-0.4-0.1-0.8-0.4-1.1-0.9
	C354.9,322,354.3,320.8,353.9,319.7z"/>
<path class="st0" d="M563.5,327c-0.1,0-0.3-0.1-0.3-0.4v-0.1l2.9-9c0-0.1,0.1-0.3,0.3-0.3l2-0.1c0.1,0,0.3,0.1,0.3,0.3l3,9.3
	c0,0.1,0,0.3-0.1,0.4c0,0,0,0-0.1,0h-1.5c-0.1,0-0.1-0.1-0.3-0.3l-0.6-1.9c0-0.1-0.1-0.1-0.3-0.3c-0.9-0.3-1.8-0.3-2.6,0
	c-0.1,0-0.3,0.1-0.3,0.3l-0.6,1.9c0,0.1-0.1,0.3-0.3,0.3L563.5,327z M566.6,322.9c0.6,0.3,1.3,0.3,1.9-0.1c0.1,0,0.1-0.1,0.1-0.3
	c-0.4-1-0.6-2-1-3.1c0-0.1-0.1-0.3-0.1-0.3c-0.1-0.1-0.3-0.1-0.4,0.1c-0.3,1-0.5,2-0.8,3.3C566.4,322.7,566.5,322.9,566.6,322.9z"/>
<path class="st0" d="M363.5,327.1c-0.4,0-0.6-0.3-0.6-0.6l0.1-8.3c0-0.1,0.1-0.3,0.3-0.3c1.1,0,2.1,0,3.1,0s1.8,0.3,2.3,0.6
	c0.8,0.6,0.9,1.5,0.4,2.8c-0.1,0.4-0.3,0.6-0.3,0.8c0,0.3,0.1,0.5,0.5,0.8c0.3,0.1,0.4,0.3,0.4,0.5c0.1,0.5,0.1,1,0.1,1.5
	c0,0.5-0.3,0.9-0.6,1.3c-0.8,0.6-1.4,1-2.1,1C365.7,327.2,364.5,327.2,363.5,327.1z M367.5,320c0-0.4-0.3-0.6-0.6-0.6l0,0h-1.4
	c-0.4,0-0.6,0.3-0.6,0.6v1.1c0,0.4,0.3,0.6,0.6,0.6h1.4c0.4,0,0.6-0.3,0.6-0.6l0,0V320z M367,323.1c-0.4-0.1-0.6-0.1-1-0.1
	c0,0-0.3,0-0.5,0c-0.5,0-0.6,0.3-0.6,0.8s0,1,0,1.5c0,0.5,0.1,0.8,0.6,0.8c0.3,0,0.4,0,0.5,0c1.1,0.1,1.9-0.4,2.3-1.6
	C368.2,323.7,367.9,323.2,367,323.1z"/>
<path class="st0" d="M23.3,327.7c0.5,0.5,0.9,0.9,1.4,1.4c0.1,0.1,0.1,0.3,0.1,0.4c0.1,1-0.1,1.1-0.8,0.4c-1-1.1-2.3-2.3-3.6-3.5
	c-0.1-0.1-0.3-0.1-0.3,0l-4.1,3.8c0,0-0.1,0-0.3,0l0,0c-0.3-0.4-0.3-0.8,0.1-1c1.4-1.4,2.9-2.8,4.1-4.1c0.1-0.1,0.4-0.1,0.5,0
	c0.5,0.5,1,1,1.4,1.4C22.4,326.9,22.9,327.2,23.3,327.7z"/>
<path class="st0" d="M29.1,336.8c-1.3,0.1-1.8-0.3-1.6-1.1c0.3-1.4,0.4-2.8,0.4-4.1c0-0.1,0-0.3,0.1-0.3c0.3-0.1,0.5-0.3,0.9-0.3
	c0.5,0,0.8,0,0.9,0c0.8,0,1,0.4,0.9,1.1c-0.1,0.4-0.1,0.6-0.1,0.6c-0.3,1.3-0.5,2.5-0.9,3.8C29.4,336.7,29.3,336.8,29.1,336.8z"/>
<path class="st0" d="M20,340.4c-0.9,1.4-1.5,2.6-2.1,4c-0.1,0.4-0.5,0.5-0.8,0.5h-1.9c-0.1,0-0.3-0.1-0.3-0.3v-0.1l3-6.2
	c0.1-0.3,0.1-0.6,0-1l-2.8-5.7c-0.1-0.1,0-0.4,0.1-0.5c0,0,0,0,0.1,0c0.3,0,0.5-0.1,0.9,0c0,0,0.3,0,0.8,0s0.9,0.3,1.1,0.8
	c0.8,1.3,1.4,2.4,2,3.6c0.1,0.1,0.3,0.1,0.3,0l2.1-4.1c0-0.1,0.1-0.1,0.3-0.1h1.8c0.3,0,0.4,0.1,0.4,0.4c0,0.1,0,0.1,0,0.1l-3,6
	c-0.1,0.1-0.1,0.3,0,0.4l3.3,6.2c0.1,0.1,0,0.3-0.1,0.4H25l-1.4,0.1c-0.6,0-1-0.1-1.3-0.6l-2-4.1C20.1,340.3,20.1,340.3,20,340.4z"
	/>
<path class="st0" d="M36.7,343.6l0.6,0.3c0.1,0,0.1,0.1,0.3,0.3c0.3,0.6,0.4,1.4,0.3,2.4c-0.1,1.1-0.8,1.9-1.8,2
	c-1.6,0.3-3.4,0.4-5.4,0.3c-0.1,0-0.3-0.1-0.3-0.3c-0.1-2.9-0.1-5.8-0.1-8.8c0,0,0-0.3,0-0.6c0-0.5,0.1-0.8,0.6-0.8
	c0.5,0,0.8,0,0.8,0c1.5-0.1,2.9,0,4.1,0.4c0.4,0.1,0.8,0.4,1.1,0.6c0.3,0.3,0.5,0.8,0.5,1.1c0.1,1-0.1,1.9-1,2.6
	c-0.1,0.1-0.1,0.3,0,0.4C36.6,343.6,36.7,343.6,36.7,343.6z M32.7,342.4c0.8,0.4,1.5,0.3,2.1-0.4c0.8-0.5,0.8-1.1,0.1-1.6
	c-0.4-0.4-0.9-0.5-1.4-0.5c-1.1,0-1.5,0.6-1.1,2C32.5,342.2,32.6,342.3,32.7,342.4z M32.6,347.1c0.6,0.1,1.4,0,2.3-0.1
	c0.3,0,0.4-0.1,0.5-0.3c0.5-0.5,0.8-1,0.5-1.5c-0.1-0.4-0.5-0.6-1-0.8c-0.6-0.3-1.4-0.4-2-0.3c-0.1,0-0.3,0.1-0.3,0.1
	c-0.3,0.9-0.4,1.8-0.3,2.6C32.3,347.1,32.5,347.1,32.6,347.1z"/>
<path class="st0" d="M702.5,351.6c0.6-0.8,1.3-1.4,2-2c0.3-0.1,0.5-0.1,0.8,0.1l0,0c0.9,1.1,1.9,2.1,3,2.9c0.6,0.5,0.9,1,1,1.8
	c0,0.5-0.1,0.6-0.5,0.3c-1.1-1-2.1-2.1-3.1-3.1c-0.5-0.6-1.1-0.6-1.8,0c-1,1-2,2-2.9,3.1c-0.1,0.1-0.3,0.1-0.3,0.1
	c-0.4-0.1-0.4-0.4-0.1-0.9c0.3-0.4,0.5-0.8,1-1.1C701.9,352.1,702.3,351.9,702.5,351.6z"/>
<path class="st0" d="M712.1,360.6c-0.1,0-0.3-0.1-0.3-0.3l0.3-4.8c0-0.1,0.1-0.3,0.1-0.3l1.6-0.3c0.3,0,0.5,0.1,0.5,0.4v0.1
	c-0.3,1.6-0.6,3.3-1.1,4.6c0,0.1-0.1,0.3-0.3,0.3C712.8,360.6,712.4,360.8,712.1,360.6z"/>
<path class="st0" d="M705,364.3c-0.3-0.6-0.5-0.6-0.8,0c-0.5,1.4-1.1,2.8-1.9,4c-0.1,0.1-0.1,0.1-0.3,0.1h-1.8
	c-0.6,0-0.8-0.3-0.4-0.8c1-1.5,1.9-3.1,2.6-4.9c0.3-0.5,0.3-1,0.1-1.5c-0.3-0.9-0.5-1.6-1.1-2.4c-0.6-0.9-1.1-1.8-1.6-2.8
	c-0.1-0.1,0-0.4,0.1-0.5l0,0c1.4-0.5,2.3-0.3,2.8,1c0.5,1,1,2,1.5,3c0.3,0.5,0.5,0.5,0.8,0l1.4-3.5c0-0.1,0.1-0.3,0.3-0.3l2.3-0.1
	c0.4,0,0.4,0.1,0.3,0.4l-3,5.5c-0.1,0.3-0.1,0.5,0,0.6c0.6,1,1.1,2,1.8,3c0,0,0.3,0.5,0.9,1.4c0.3,0.5,0.5,1,0.6,1.5
	c0,0.1,0,0.3-0.1,0.3c-0.8,0.1-1.4,0.1-2.1,0c-0.4-0.1-0.6-0.3-0.8-0.6L705,364.3z"/>
<path class="st0" d="M720.6,367.2c0.5,0.4,0.9,0.9,1,1.5c0.1,0.5,0.1,1.1-0.3,1.6c-0.6,1.4-1.9,2-3.6,1.9c-1,0-2.1,0-3.1,0
	c-0.1,0-0.3-0.1-0.3-0.3l0,0l-0.1-9.3c0-0.3,0.3-0.5,0.5-0.5l0,0c1,0,2.1,0,3.3,0.1c1,0,1.8,0.3,2.3,0.6c0.8,0.6,1,1.5,0.8,2.6
	c0,0.1-0.1,0.3-0.1,0.3c-0.3,0.3-0.5,0.6-0.5,1C720.3,366.9,720.5,367.1,720.6,367.2z M716.8,366.4c0.4,0.1,0.8,0.1,1.3,0
	c0.4-0.1,0.8-0.3,1-0.6c0.5-0.8,0.4-1.4-0.4-1.9c-0.3-0.1-0.5-0.1-0.9-0.1s-0.6,0-0.9-0.1c-0.3,0-0.4,0.1-0.5,0.3l0,0l-0.1,1.6
	C716.3,366,716.6,366.3,716.8,366.4z M719.3,368.2c-1-0.4-1.8-0.4-2.5-0.4c-0.1,0-0.3,0.1-0.3,0.3c-0.1,0.8-0.1,1.5,0,2.1
	c0,0.1,0.1,0.3,0.3,0.3c1,0.3,1.9,0.1,2.5-0.3c0.8-0.5,1-1,0.5-1.8C719.6,368.3,719.5,368.2,719.3,368.2z"/>
</svg>
