<?xml version="1.0" encoding="utf-8"?>
<!-- Generator: Adobe Illustrator 26.0.1, SVG Export Plug-In . SVG Version: 6.00 Build 0)  -->
<svg version="1.1" id="图层_1" xmlns="http://www.w3.org/2000/svg" xmlns:xlink="http://www.w3.org/1999/xlink" x="0px" y="0px"
	 viewBox="0 0 790 593.6" style="enable-background:new 0 0 790 593.6;" xml:space="preserve">
<style type="text/css">
	.st0{fill:#FFFFFF;}
</style>
<path class="st0" d="M380.1,165.9c0.5,0.4,0.9,0.9,1.1,1.4c0.1,0.3,0.1,0.4-0.2,0.3c-0.1,0-0.2-0.1-0.2-0.1
	c-0.9-0.6-1.7-1.4-2.5-2.2c-0.3-0.3-0.5-0.3-0.8,0c-0.8,0.8-1.7,1.6-2.7,2.4c-0.2,0.1-0.2,0.1-0.2-0.1c0.1-0.4,0.2-0.7,0.5-1
	c0.7-0.8,1.5-1.6,2.5-2.4c0.1-0.1,0.3-0.1,0.5,0c0.4,0.3,0.7,0.6,1,0.9C379.6,165.3,379.9,165.6,380.1,165.9z"/>
<path class="st0" d="M383.5,168.3c0.5-0.3,0.9-0.3,1.4-0.1c0.1,0,0.1,0.1,0.1,0.2c-0.2,1.6-0.4,2.8-0.8,3.5c-0.2,0.4-0.5,0.5-1,0.3
	c-0.1,0-0.1-0.1-0.1-0.2l0.2-3.5C383.3,168.5,383.4,168.4,383.5,168.3z"/>
<path class="st0" d="M378.5,170.1l-3,0c-0.3,0-0.5-0.2-0.6-0.4c-0.1-0.4-0.1-0.6,0-0.8c0.1-0.1,0.3-0.2,0.6-0.2
	c1.7-0.1,3.5-0.1,5.4,0c0.2,0,0.4,0.2,0.4,0.4c0,0,0,0.1,0,0.1c-0.3,0.9-0.7,1.8-1.3,2.6c-0.9,1.3-1.4,2-1.4,2
	c-0.5,0.9-1.1,1.7-1.6,2.6c-0.1,0.1,0,0.2,0.1,0.2l3.9,0c0.1,0,0.2,0.1,0.2,0.1c0,0,0,0,0,0l0,1.2c0,0.2-0.2,0.3-0.3,0.3l-5.8,0
	c-0.4,0-0.6-0.2-0.5-0.6c0.2-0.9,0.6-1.7,1.1-2.4c0.5-0.7,0.7-1,0.7-1c0.4-0.6,0.8-1.2,1.2-1.8c0.5-0.8,0.9-1.4,1-2
	C378.6,170.2,378.6,170.1,378.5,170.1C378.5,170.1,378.5,170.1,378.5,170.1z"/>
<path class="st0" d="M596.4,170.4c-0.2-0.3-0.5-0.4-0.7-0.1c-0.4,0.3-0.7,0.7-1.1,1c0,0-0.2,0.3-0.7,0.8c-0.3,0.4-0.7,0.7-1.2,1
	c-0.1,0.1-0.2,0.1-0.3,0c-0.1,0-0.1-0.1-0.1-0.2c0-0.1,0-0.1,0.1-0.2c1-1.3,2-2.4,3.2-3.4c0.2-0.2,0.5-0.2,0.7,0l3.1,3.3
	c0.2,0.2,0.1,0.3-0.1,0.3c-0.3,0-0.6-0.1-0.8-0.2C597.7,172,597,171.2,596.4,170.4z"/>
<path class="st0" d="M385.2,177.4c0.4-1.2,0.8-2.5,1.3-3.7c0-0.1,0.1-0.2,0.2-0.2c0.5-0.2,1-0.1,1.4,0.1c0.1,0,0.1,0.1,0.2,0.2
	c0.6,1.9,1.2,3.8,1.8,5.7c0,0,0.1,0.2,0.2,0.6c0.2,0.6-0.1,0.8-1,0.6c-0.3-0.1-0.5-0.3-0.6-0.6c0-0.4-0.1-0.8-0.4-1.1
	c-0.1-0.1-0.1-0.1-0.2-0.1h-1.6c-0.1,0-0.2,0-0.3,0.1c-0.3,0.3-0.5,0.7-0.6,1.3c-0.1,0.4-0.3,0.6-0.7,0.5c0,0-0.2,0-0.5,0
	c-0.3,0-0.4-0.2-0.3-0.6c0.2-0.8,0.4-1.4,0.5-1.8C385.1,177.8,385.2,177.4,385.2,177.4z M387.3,175.2c-0.3,0.7-0.5,1.5-0.7,2.3
	c0,0.1,0,0.2,0.1,0.2c0.4,0.2,0.8,0.2,1.2,0c0.1,0,0.1-0.1,0.1-0.2l-0.4-2.4C387.5,174.9,387.4,174.9,387.3,175.2z"/>
<path class="st0" d="M601.6,173.8c0-0.1,0.1-0.3,0.3-0.3l1,0c0.4,0,0.6,0.2,0.5,0.5l-0.9,3.7c0,0.1-0.1,0.2-0.2,0.2
	c-0.3,0.1-0.7,0-1-0.1c-0.1,0-0.1-0.1-0.1-0.2L601.6,173.8z"/>
<path class="st0" d="M596.6,176.2c0.2-0.3,0.1-0.5-0.3-0.5c-1,0-1.8,0-2.7,0c-0.7,0-1-0.3-1-1c0-0.4,0.2-0.6,0.6-0.6
	c1.7-0.1,3.4-0.1,5.2,0c0.4,0,0.6,0,0.6,0c0.3,0.1,0.4,0.3,0.4,0.6c0,0.3-0.1,0.5-0.2,0.7l-4.5,6.9c-0.1,0.2-0.1,0.3,0.1,0.3
	l4.3-0.1c0.1,0,0.2,0.1,0.2,0.1c0.1,0.4,0.1,0.9,0,1.3c0,0.1-0.1,0.1-0.2,0.1c-2.1,0.1-4.4,0.1-6.7-0.1c-0.4,0-0.5-0.2-0.4-0.6
	c0.3-0.7,0.6-1.4,1-1.9C594.4,179.6,595.5,177.9,596.6,176.2z"/>
<path class="st0" d="M607,185.1c-0.7-0.2-1.4-0.2-2.2,0.1c-0.1,0-0.1,0.1-0.2,0.2l-0.5,1.6c0,0.1-0.1,0.2-0.2,0.2
	c-0.4,0.1-0.8,0.1-1.2-0.1c-0.2-0.1-0.2-0.2-0.2-0.4c0,0,0,0,0,0l2.5-7.3c0.1-0.2,0.2-0.3,0.4-0.3h1.2c0.1,0,0.3,0.1,0.3,0.2
	c0.4,1,0.7,2.1,1,3.1c0.4,1.5,0.8,2.9,1.4,4.3c0,0.1,0,0.2-0.1,0.2c-0.5,0.4-1,0.4-1.4,0c-0.1,0-0.1-0.1-0.1-0.2l-0.5-1.4
	C607.2,185.2,607.1,185.1,607,185.1z M605.7,181.1l-0.6,2.3c0,0.1,0.1,0.3,0.2,0.3c0,0,0,0,0,0c0.6,0.1,1,0.1,1.3-0.1
	c0.1,0,0.1-0.1,0.1-0.2l-0.6-2.3C606,180.6,605.8,180.6,605.7,181.1z"/>
<path class="st0" d="M313.6,191.1c-0.4-0.1-0.6,0-0.9,0.4c0,0.1-0.1,0.2-0.2,0.2c-0.7,0.5-1.4,1.1-2,1.9c-0.2,0.3-0.4,0.2-0.5,0
	c-0.1-0.2,0.1-0.6,0.6-1c0.8-0.8,1.5-1.5,2.3-2.3c0.4-0.4,0.8-0.4,1.2,0.2c0.5,0.9,1,1.4,1.5,1.7c0.5,0.3,0.9,0.7,1.3,1.3
	c0.1,0.1,0,0.2-0.1,0.2c-0.5,0-0.9-0.3-1.3-0.6c-0.3-0.3-0.4-0.5-0.4-0.5c-0.3-0.3-0.6-0.6-0.8-0.9
	C314,191.3,313.8,191.1,313.6,191.1z"/>
<path class="st0" d="M151.1,347.3c0.3-0.4,0.5-0.7,0.7-0.9c2.4-2.8,4.8-5.6,7.1-8.4c0.2-0.2,0.1-0.5-0.1-0.6c0,0,0,0,0,0
	c-1-0.7-1.9-1.3-2.9-1.9c-1.1-0.7-2.1-1.2-3.1-1.5c-1.5-0.5-3-0.9-4.6-1.2c-1.6-0.3-3.2-0.3-4.7-0.1c-2.7,0.4-5.3,1.3-7.7,2.7
	c-0.1,0.1-0.1,0.2-0.1,0.3c0,0,0,0,0,0.1c0.7,0.6,1.4,1.1,2.2,1.5c0.4,0.2,0.4,0.4,0,0.6c-2.1,1.1-4.4,2-6.8,2.7
	c-0.1,0-0.1,0-0.2-0.1c0,0,0,0,0-0.1l1.2-7c0-0.1,0.1-0.2,0.2-0.2c0,0,0.1,0,0.1,0l2.3,1.6c0.1,0,0.2,0.1,0.3,0
	c0.9-0.5,1.9-0.9,2.8-1.4c1.1-0.5,2-0.9,2.9-1.1c2.2-0.6,4.3-0.8,6.3-0.6c3.1,0.3,6.1,1.3,9.1,2.9c0.4,0.2,1,0.6,1.5,1.1
	c0.5,0.5,1,0.8,1.5,1.1c0.4,0.3,0.8,0.2,1.1-0.2c0.8-1.2,1.6-2.3,2.5-3.2c3.5-4.1,7-8.3,10.7-12.6c0.2-0.3,0.2-0.6,0-0.9
	c-0.8-1-1.1-2.2-0.7-3.6c0.1-0.6,0.4-1,0.7-1.4c0.3-0.3,0.7-0.7,1.2-1c0.3-0.2,0.3-0.4,0-0.6c-0.1-0.1-0.2-0.1-0.2-0.2
	c-0.9-1.5-1.5-2.6-1.8-3.2c-0.5-1.4-1-2.4-1.5-3.2c-0.5-0.9-1-1.8-1.4-2.6c-0.6-1.4-1.1-2.2-1.3-2.6c-0.9-1.7-1.5-2.9-1.8-3.5
	c-0.4-1-1-2.1-1.6-3.2c-0.4-0.6-0.7-1.3-1-2c-0.4-1-0.8-1.7-1-2.1c-4.9-9.6-9.8-19.2-14.5-28.9c-0.1-0.3-0.5-0.9-1.1-1.9
	c-0.4-0.6-0.7-1.3-1-2c-0.3-0.8-0.7-1.6-1.2-2.4c-0.5-1-1-1.8-1.2-2.4c-0.5-1-0.9-2-1.5-2.9c-0.8-1.4-1.3-2.4-1.5-2.9
	c-1.3-2.6-2.6-5.2-3.8-7.8c0,0-0.4-0.8-1.3-2.4c-0.5-0.9-0.9-1.8-1.3-2.8c-0.1-0.4-0.4-0.9-0.8-1.5c-0.3-0.5-0.6-1-0.8-1.5
	c-0.5-1-0.9-2-1.5-3c-0.7-1.3-1.2-2.3-1.5-3c-0.5-1.1-1.1-2.3-1.7-3.4c-0.4-0.8-1.1-2.2-2.2-4.4c-0.7-1.5-1.5-2.9-2.3-4.3
	c-0.1-0.1-0.2-0.2-0.3-0.1c-1,0.4-1.9,0.8-2.6,1.2c-0.3,0.2-0.4,0.1-0.4-0.2l0.4-7.3c0-0.1,0.1-0.1,0.1-0.1c0,0,0,0,0,0
	c1,0.5,1.9,1,2.7,1.6c1.2,0.8,2.4,1.6,3.7,2.4c0.1,0,0.1,0.1,0,0.2c0,0,0,0,0,0c-0.9,0.7-1.8,1.2-2.6,1.5c-0.1,0-0.2,0.2-0.1,0.3
	c0.3,0.8,0.7,1.6,1.1,2.4c0.3,0.6,0.6,1.1,0.8,1.5c0.1,0.3,0.3,0.7,0.5,1c0.1,0.3,0.3,0.7,0.5,1c0.7,1.1,1.3,2.3,1.8,3.5
	c0.5,1,1,2,1.5,3c0.6,1,1.1,2.1,1.5,3c0.4,1,0.8,1.8,1.3,2.5c0.4,0.5,0.8,1.5,1.5,3c0.3,0.7,0.6,1.4,1,2.1c0.6,1,0.9,1.7,1.1,2
	c0.3,0.6,0.6,1.3,0.9,1.9c0.3,0.6,0.6,1.2,1,1.9c0.5,0.9,1,1.9,1.5,2.9c0.5,1,0.9,1.9,1.5,2.9c0.5,0.9,1,1.8,1.4,2.8
	c0.5,1,0.9,1.9,1.4,2.8c0.6,1.1,1.1,2.2,1.7,3.3c0.4,0.9,0.9,1.8,1.4,2.8c0.5,0.9,1,1.9,1.4,2.8c0.4,0.8,0.8,1.7,1.3,2.5
	c0.5,0.8,0.9,1.7,1.3,2.5c0.5,1,1,2,1.5,3.1c0.4,0.7,0.7,1.4,1,2.1c0.5,1,0.8,1.7,1,2.1c2.6,5.1,5.1,10.1,7.7,15.1
	c0.3,0.7,0.6,1.2,0.8,1.7c0.3,0.7,0.6,1.3,0.8,1.7c0.7,1.1,1.3,2.3,1.8,3.4c0.4,1,0.9,1.9,1.4,2.8c0.5,0.9,1,1.8,1.4,2.8
	c0.5,1.2,1.1,2.3,1.7,3.4c0.6,1.1,1.2,2.3,1.7,3.5c0.1,0.3,0.3,0.7,0.5,1c0.2,0.3,0.4,0.7,0.6,1c0.2,0.4,0.4,0.8,0.7,1.2
	c0.2,0.4,0.4,0.8,0.6,1.3c0.1,0.2,0.2,0.4,0.3,0.5c0.4,0.3,0.6,0.1,0.6-0.6c0-38.3,0-76.7,0-115.2c0-0.2-0.2-0.4-0.4-0.4h-2.8
	c-0.4,0-0.5-0.2-0.3-0.5l3.6-6.2c0.1-0.1,0.2-0.1,0.3-0.1c0,0,0.1,0,0.1,0.1c0.3,0.5,0.6,0.9,0.8,1.4c0.8,1.5,1.7,3.1,2.8,4.8
	c0.2,0.3,0.1,0.4-0.2,0.4l-2.7,0c-0.3,0-0.5,0.2-0.5,0.5c0,36.7,0,73.4,0.1,110c0,1.7,0,3.5-0.1,5.4c0,0.2,0.1,0.4,0.3,0.4
	c0.8,0.3,1.5,0.7,2.1,1.2c0,0,0.2,0.2,0.5,0.6c0.3,0.3,0.7,0.3,1.2,0c0.2-0.1,0.3-0.2,0.5-0.2c2-0.5,3.8-1.1,5.4-1.8
	c1.3-0.5,2.6-1,3.9-1.4c1.4-0.4,2.6-0.8,3.7-1.2c1.7-0.6,3.9-1.4,6.7-2.3c0.6-0.2,2.4-0.9,5.3-2c0.3-0.1,0.8-0.3,1.4-0.4
	c0.5-0.1,1-0.3,1.4-0.4c1.8-0.7,3.7-1.4,5.5-2c1.4-0.5,2.9-1,4.3-1.5c1.4-0.5,2.9-1,4.4-1.5c1.4-0.4,2.8-0.9,4.3-1.5
	c1.5-0.6,3-1.1,4.6-1.5c1.2-0.3,2.3-0.8,3.5-1.2c1.4-0.6,2.7-1,4.2-1.4c0.8-0.2,2.3-0.7,4.5-1.5c1.3-0.5,2.8-1,4.5-1.5
	c2.1-0.7,4.2-1.4,6.3-2.2c0.4-0.2,1-0.3,1.8-0.6c0.6-0.2,1.2-0.4,1.8-0.6c1.4-0.6,3-1.1,4.8-1.7c1.6-0.5,3.2-1.1,4.8-1.7
	c1.3-0.5,2.6-0.9,3.9-1.3c1.2-0.4,2.5-0.8,3.8-1.3c1.6-0.6,3.2-1.2,4.9-1.7c1-0.3,2.3-0.8,3.7-1.3c1.3-0.5,2.7-1,4-1.3
	c0.2,0,0.2-0.2,0.2-0.3c0,0,0,0,0,0l-0.9-2.7c0-0.1,0-0.3,0.1-0.3c0,0,0.1,0,0.1,0c1.7,0.4,3.5,0.6,5.3,0.9c0.3,0,0.9,0.2,1.7,0.4
	c0.1,0,0.1,0.1,0.1,0.1c0,0,0,0,0,0c-0.3,0.5-0.8,1.2-1.5,2.1c-1.1,1.2-2.1,2.4-3.2,3.7c-0.1,0.1-0.2,0.1-0.3,0c0,0,0,0-0.1-0.1
	l-1-2.7c-0.1-0.2-0.4-0.4-0.6-0.3c0,0,0,0,0,0c-2.2,0.8-4.3,1.6-6.5,2.3c-1.5,0.5-3.1,1-4.6,1.6c-0.8,0.3-1.5,0.6-2.3,0.8
	c-1,0.3-1.8,0.5-2.3,0.8c-1.9,0.7-3.8,1.4-5.7,2c-1.4,0.4-3,1-5,1.7c-1.5,0.5-3.2,1.1-5,1.6c-0.7,0.2-1.4,0.5-2.2,0.8
	c-0.8,0.3-1.6,0.6-2.2,0.8c-2.7,0.8-4.6,1.5-5.9,2c-1.3,0.5-2.4,0.9-3.4,1.2c-1.9,0.6-3,1-3.4,1.1c-3.2,1.2-5.2,1.9-5.9,2.1
	c-1.4,0.4-2.8,0.9-4.2,1.4c-1.3,0.5-2.6,0.9-3.9,1.3c-1.7,0.5-3.3,1.1-5,1.8c-0.5,0.2-1.2,0.4-2.2,0.8c-0.8,0.3-1.6,0.5-2.3,0.7
	c-2.7,1-5.4,1.9-8.1,2.8c-0.6,0.2-1.3,0.5-2.3,0.8c-0.8,0.3-1.5,0.6-2.3,0.8c-1.1,0.4-2.3,0.7-3.4,1.1c-0.3,0.1-1.4,0.5-3.3,1.2
	c-1.2,0.5-2.4,0.8-3.7,1.2c-0.6,0.2-2.5,0.8-5.5,2c-1.1,0.4-2.6,0.8-4.4,1.2c-0.1,0-0.2,0.1-0.2,0.1c0,0-0.1,0.1,0,0.2
	c0,0.1,0.1,0.1,0.2,0.2c0.5,0.1,1.1,0.2,1.7,0.2c26.1,0,52.2,0,78.2,0c0.2,0,0.3-0.1,0.3-0.3l0-2.9c0-0.1,0.1-0.2,0.2-0.2
	c0,0,0.1,0,0.1,0c2.1,1.2,4.1,2.3,6,3.4c0.2,0.1,0.3,0.2,0.3,0.2c0.1,0.2,0.1,0.3-0.2,0.4c-0.1,0-0.2,0.1-0.2,0.1
	c-0.3,0.3-0.6,0.5-1,0.7c-0.5,0.3-0.8,0.4-0.8,0.4c-1.3,0.7-2.6,1.5-3.9,2.3c-0.3,0.2-0.4,0.1-0.4-0.2l0-2.6c0-0.3-0.2-0.5-0.5-0.5
	h-82.7c-0.2,0-0.3,0.1-0.3,0.3c0,0,0,0,0,0c0.1,2-0.8,3.4-2.5,4.2c-1.2,0.5-2.4,0.5-3.6-0.2c0,0-0.1,0-0.1,0c0,0,0,0,0,0
	c0,0.1,0,0.2-0.1,0.3c0,0.1-0.1,0.2-0.1,0.3c-4.5,5.3-9,10.7-13.5,16c-0.1,0.1-0.1,0.3,0,0.5c0.6,0.7,1.1,1.4,1.7,2.1
	c0.7,0.8,1.2,1.6,1.5,2.2c0.9,1.6,1.5,3.3,1.8,5c0.6,2.8,0.3,5.4-0.9,7.9c-0.4,0.8-0.8,1.5-1.1,2.1c-0.4,0.7-0.9,1.3-1.5,1.8
	c-0.2,0.2-0.5,0.4-0.9,0.4c-0.1,0-0.1,0-0.1-0.1c0,0,0,0,0,0c0.1-0.5,0.4-0.9,0.7-1.3c0.4-0.4,0.8-0.9,1.2-1.3
	c0.4-0.5,0.7-0.9,0.9-1.5c0.3-0.9,0.6-1.7,0.8-2.6c0.5-2,0.5-4.1-0.1-6.2c-0.2-0.8-0.4-1.5-0.7-2.2c-0.2-0.7-0.6-1.3-1-2
	c-0.8-1.2-1.7-2.5-2.7-3.6c-0.1-0.1-0.3-0.1-0.4,0c0,0,0,0,0,0c-0.7,0.7-1.3,1.4-1.9,2.1c-1.2,1.5-1.8,2.2-1.8,2.2
	c-1.6,1.9-3.2,3.7-4.8,5.6c-6.1,7.3-12.2,14.5-18.4,21.8c-0.3,0.4-0.6,0.8-0.9,1.2c-0.1,0.2-0.1,0.4,0.1,0.6l2.1,1.6
	c0.1,0.1,0.1,0.2,0.1,0.3c0,0,0,0-0.1,0.1c-2.1,0.9-4.2,1.7-6.4,2.3c-0.3,0.1-0.5,0.3-0.6,0.5c-0.3,0.7-0.8,1.4-1.4,1.9
	c0,0-0.2,0.1-0.4,0.3c-0.4,0.3-0.5,0.6-0.4,1.1c0,0.1,0.1,0.2,0.2,0.2c0.8,0.5,1.5,1.1,2,1.7c0.1,0.1,0.1,0.2,0,0.3c0,0,0,0-0.1,0
	c-0.8,0.3-1.5,0.5-2.2,0.8c0,0-0.6,0.2-1.8,0.7c-0.9,0.3-1.8,0.6-2.8,0.8c-0.1,0-0.1,0-0.1-0.1c0,0,0,0,0,0l1-7.1
	c0-0.1,0.1-0.2,0.2-0.2c0,0,0.1,0,0.1,0l2.3,1.7c0.2,0.2,0.5,0.1,0.6,0c1-0.9,1.8-1.9,2.4-2.8c0.3-0.4,0.5-1,0.6-1.6
	c0.3-1.9,0.7-3.7,1-5.6c0-0.1,0.1-0.1,0.1-0.1c0,0,0,0,0,0l2.4,1.8c0.1,0.1,0.2,0.1,0.2,0c0.4-0.2,0.8-0.6,1.1-1.1
	c0.2-0.3,0.6-0.8,1-1.3c0.7-0.7,1-1.2,1.1-1.3c4.5-5.3,8.9-10.6,13.4-15.9c1.2-1.4,2-2.4,2.6-3C150.7,347.9,150.9,347.6,151.1,347.3
	z"/>
<path class="st0" d="M318.6,195.8c0-0.3,0.1-0.7,0.1-1c0-0.1,0.1-0.2,0.1-0.2c0.4-0.3,0.9-0.4,1.4-0.3c0.1,0,0.1,0.1,0.2,0.2
	c0,1,0,2-0.3,2.9c0,0,0,0.2-0.1,0.5c0,0.5-0.5,0.6-1.3,0.4c-0.1,0-0.2-0.1-0.2-0.2C318.5,197.2,318.5,196.5,318.6,195.8z"/>
<path class="st0" d="M312.5,202.6l4.1,0c0.1,0,0.2,0.1,0.2,0.1l0.1,1.1c0,0.1-0.1,0.1-0.2,0.1c0,0,0,0,0,0l-6.5,0
	c-0.2,0-0.3-0.1-0.3-0.3c0,0,0-0.1,0-0.1c0.8-1.8,1.9-3.5,3.1-5.2c0.2-0.3,0.5-0.6,0.7-1c0.2-0.3,0.4-0.7,0.7-1
	c0.2-0.3,0.1-0.4-0.2-0.4c-0.9,0.1-1.7,0.1-2.4,0.1c-0.6,0-0.8,0-0.9,0c-0.3-0.1-0.4-0.5-0.3-1.1c0-0.2,0.2-0.3,0.4-0.3l5.3,0
	c0.8,0,1,0.3,0.5,1l-4.3,6.7C312.3,202.6,312.3,202.6,312.5,202.6z"/>
<path class="st0" d="M384.7,201.7c0.1,0,0.1,0.1,0.1,0.2c0,0.1-0.1,0.1-0.2,0.1l-2.5-0.1c-0.2,0-0.4,0.1-0.4,0.4
	c-0.1,0.6-0.1,1.1-0.1,1.7c0,30.9,0,61.8,0,92.7c0,0.2,0.1,0.3,0.3,0.4l2,0.9c0.3,0.1,0.5,0.1,0.9,0c3.7-1.8,7.4-3.6,10.9-5.3
	c0.4-0.2,0.7-0.3,1.1-0.5c0.4-0.2,0.7-0.3,1.1-0.5c1-0.5,1.9-1,3-1.5c1.5-0.7,2.5-1.2,3-1.4c3.1-1.5,6.2-3.1,9.3-4.5
	c0.9-0.4,2.2-1.1,4-2c1.3-0.7,2.7-1.3,4.1-2c0.7-0.3,1.4-0.6,2-1c0.8-0.4,1.5-0.8,2-1c1.4-0.7,3.2-1.5,5.3-2.6
	c2.5-1.3,8.9-4.3,19.1-9.2c0.5-0.2,1.4-0.7,2.6-1.3c0.9-0.4,1.7-0.9,2.6-1.3c1.1-0.5,2.1-1,3-1.5c1.5-0.8,2.5-1.3,3-1.5
	c0.7-0.2,1.2-0.5,1.6-0.7c0.1,0,0.1-0.1,0.1-0.2l-0.9-2.4c0-0.1,0-0.2,0.1-0.3c0,0,0.1,0,0.1,0l6.1,0.4c0.2,0,0.3,0.2,0.3,0.4
	c0,0.1,0,0.1,0,0.2c-0.5,0.9-1,1.6-1.6,2.3c-0.4,0.5-0.7,1-0.9,1.4c-0.3,0.5-0.5,1-0.7,1.5c0,0.1-0.2,0.1-0.3,0.1c0,0-0.1,0-0.1-0.1
	c-0.5-0.6-0.9-1.4-1.2-2.2c-0.1-0.2-0.3-0.4-0.6-0.3c-0.5,0.1-0.9,0.3-1.4,0.5c-0.6,0.3-0.9,0.5-0.9,0.5c-9.7,4.7-15.7,7.7-18.1,8.8
	c-8.7,4.2-17.5,8.4-26.1,12.7c0,0-0.5,0.2-1.5,0.7c-0.4,0.2-0.8,0.4-1.1,0.6c-0.4,0.3-0.8,0.4-1.1,0.6c-2.1,1-4.3,2-6.4,3.1
	c-0.7,0.4-1.8,0.9-3.2,1.5c-0.7,0.3-1.4,0.7-2.1,1c-0.9,0.5-1.6,0.8-2.1,1.1c-5.2,2.5-8.3,4-9.3,4.5c-2.1,1.1-3.4,1.7-3.9,1.8
	c-0.5,0.1-0.8,0.4-1,0.8c-0.1,0.2,0,0.4,0.2,0.5c0,0,0.1,0,0.1,0l32.8,0.1c0.1,0,0.2,0,0.2-0.1c1.5-2.9,3.7-5,6.6-6.3
	c1.1-0.5,2.2-0.8,3.5-0.9c1.6-0.1,3.3,0,5,0.3c0.2,0,0.4,0.2,0.6,0.4c0.1,0.2,0.1,0.4-0.2,0.5c-0.1,0-0.2,0-0.3,0
	c-1.5-0.5-2.7-0.8-3.5-0.7c-3.2,0.1-6,1.3-8.3,3.4c-0.5,0.5-1,1-1.4,1.4c-0.5,0.5-0.9,1.1-1.2,1.6c-0.2,0.3-0.1,0.4,0.2,0.4l49,0
	c0.1,0,0.1-0.1,0.1-0.1l0,0v-2.6c0-0.1,0.1-0.2,0.2-0.2c0,0,0.1,0,0.1,0c1.9,0.9,3.7,1.9,5.4,3c0.2,0.1,0.2,0.4,0.1,0.5
	c0,0-0.1,0.1-0.1,0.1c-0.2,0.2-0.5,0.3-0.7,0.4c-0.3,0.1-0.6,0.2-0.8,0.4c-1.3,0.8-2.6,1.5-3.9,2.3c-0.1,0-0.2,0-0.2-0.1
	c0,0,0-0.1,0-0.1l0-2.3c0-0.2-0.2-0.4-0.4-0.4c0,0,0,0,0,0c-16.1,0-32.3,0-48.5-0.1c-0.6,0-1,0.2-1.2,0.6c-1.9,4.3-2,8.7-0.5,13.2
	c0.4,1,0.8,2.1,1.4,3.3c0.3,0.7,0.9,1.4,1.7,2.2c1.1,1.1,1.7,1.7,1.7,1.8c0.6,0.6,1.3,1,2.1,1.4c0.2,0.1,0.3,0,0.4-0.1
	c0,0,0-0.1,0-0.1l0.3-2.1c0-0.2,0.2-0.3,0.4-0.3c0,0,0.1,0,0.1,0c0.8,0.5,1.4,1,2,1.7c0.4,0.4,0.7,0.7,1.1,1
	c0.6,0.4,1.1,0.8,1.6,1.3c0.1,0.1,0.2,0.4,0,0.5c0,0-0.1,0.1-0.1,0.1c-1.8,0.8-3.8,1.5-5.8,2c-0.1,0-0.3,0-0.3-0.2c0,0,0-0.1,0-0.1
	l0.5-2.5c0-0.2-0.1-0.4-0.3-0.5c-0.4-0.2-0.9-0.4-1.3-0.6c-0.3-0.2-0.7-0.5-1.1-0.8c-0.5-0.5-1.1-1.1-1.9-1.8
	c-0.5-0.4-0.9-1-1.2-1.6c-0.2-0.3-0.5-0.8-0.9-1.7c-2.7-5.2-2.9-10.6-0.6-16.2c0-0.1,0-0.2-0.1-0.3c0,0-0.1,0-0.1,0
	c-7.9,0.1-15.9,0.1-24,0.1c-0.1,0-1.5,0-4-0.1c-1.4,0-2.7,0-4,0.1c-0.2,0-0.4,0.2-0.4,0.4c-0.2,2.1-1.2,3.1-3.2,3
	c-0.2,0-0.3,0.1-0.4,0.3c-0.9,3.1-1.7,6.2-2.4,9.3c-0.9,4.1-2,8.2-3,12.2c-0.2,0.8-0.5,2.1-0.9,3.8c-0.2,1.1-0.6,2.4-0.9,3.8
	c-0.7,2.7-1.4,5.3-2,8c-0.5,2.3-1.1,4.6-1.7,6.8c-0.2,0.7-0.4,1.5-0.5,2.2c-0.2,1-0.4,1.7-0.5,2.2c-1.4,5.5-2.3,9.1-2.7,10.9
	c-0.6,2.8-1.3,5.7-2.1,8.5c-0.4,1.5-0.7,3.1-1,4.7c0,0.2,0.1,0.4,0.3,0.4l2.2,0.5c0.3,0.1,0.3,0.2,0.1,0.4l-4.5,4.7
	c-0.1,0.1-0.2,0.1-0.2-0.1c-0.5-2.1-1.1-4.2-1.9-6.3c-0.1-0.3,0-0.4,0.2-0.3l2.6,0.7c0.1,0,0.3,0,0.3-0.2c0.7-2.6,1.3-5.1,1.8-7.6
	c0.1-0.7,0.5-2.2,1.1-4.3c0.4-1.4,0.7-2.8,1.1-4.3c0.5-2.4,1.1-4.8,1.7-7.1c0.5-1.9,1-3.8,1.4-5.6c0.8-3.4,1.6-6.8,2.6-10.2
	c0-0.2,0.1-0.5,0.2-1c0-0.4,0.1-0.7,0.2-1c0.7-2.6,1.3-5.1,2-7.7c0.1-0.5,0.4-1.8,0.9-4.1c0.2-0.9,0.4-1.8,0.7-2.7
	c0.3-1.2,0.6-2.1,0.7-2.7c0.3-1.2,0.6-2.5,1-3.7c0.3-1.2,0.6-2.5,0.9-3.7c0.5-2.1,1-4.4,1.6-6.8c0-0.2-0.1-0.3-0.2-0.4
	c-0.7-0.2-1.1,0.1-1.3,0.8c-0.1,0.3-0.5,0.8-1.1,1.6c-0.5,0.6-0.9,1.1-1.2,1.5c-1.9,2.5-3.8,5.1-5.6,7.6
	c-5.3,7.1-10.6,14.3-15.9,21.4c-4,5.4-8.1,10.7-12.1,16.1c0,0-0.1,0.1-0.2,0.3c-0.4,0.4-0.3,0.8,0.2,1.2c0.5,0.3,1.1,0.7,1.6,1.1
	c0.1,0.1,0.1,0.2,0,0.2c0,0,0,0-0.1,0c-1.8,1-3.9,1.9-6,2.5c-0.1,0-0.2,0-0.2-0.1c0,0,0,0,0-0.1l0.8-6c0-0.2,0.2-0.3,0.4-0.3
	c0,0,0.1,0,0.1,0l1.8,1.2c0.2,0.1,0.5,0.1,0.6,0c0.5-0.6,1-1.1,1.4-1.7c3.8-5.3,6.3-8.6,7.2-9.8c0.5-0.7,1-1.3,1.3-1.8
	c0.8-1,1.2-1.6,1.3-1.8c2.4-3.1,4.7-6.2,7-9.3c4.1-5.6,8.3-11.1,12.4-16.7c0.6-0.8,1.1-1.4,1.4-1.9c0.4-0.5,0.8-1.1,1.2-1.7
	c0.4-0.6,0.8-1.2,1.3-1.7c0.5-0.6,0.9-1,1-1.2c0.3-0.4,0.7-0.9,1-1.3c0.3-0.5,0.4-0.9,0.2-1.3c-0.1-0.3-0.2-0.4-0.2-0.4
	c-0.4-1.2-0.3-2.4,0.3-3.6c0.2-0.3,0.2-0.7,0-1c-0.3-0.6-0.7-1.1-1.1-1.6c-0.7-0.8-1-1.2-1-1.2c-1.3-1.8-2.8-3.8-4.5-6.1
	c-2.2-3.1-6.8-9.3-13.6-18.6c-1-1.4-1.9-2.6-2.7-3.6c-0.4-0.5-0.9-1.2-1.6-2.2c-0.3-0.5-0.7-1-1.1-1.5c-0.4-0.5-0.8-1-1.1-1.5
	c-0.6-0.9-1.2-1.8-1.9-2.6c-0.3-0.4-0.7-0.9-1-1.3c-0.4-0.7-0.7-1.1-0.9-1.3c-0.7-0.8-1.4-1.7-2-2.6c-0.2-0.3-0.4-0.6-0.7-0.9
	c-0.2-0.3-0.5-0.6-0.7-0.9c-6.9-9.5-13.9-18.9-20.8-28.3c-0.1-0.1-0.2-0.1-0.3-0.1l-2.1,1.5c-0.1,0.1-0.3,0.1-0.3,0c0,0,0-0.1,0-0.1
	l-0.7-6.2c0-0.1,0.1-0.3,0.2-0.3c0,0,0.1,0,0.1,0c2.1,0.8,3.9,1.6,5.5,2.5c0.1,0.1,0.2,0.2,0.1,0.4c0,0,0,0.1-0.1,0.1l-1.7,1.4
	c-0.1,0.1-0.1,0.1,0,0.2c0.5,1,1.2,1.9,1.8,2.8c1.3,1.7,1.9,2.6,1.9,2.6c1.2,1.7,2.4,3.4,3.7,5c1.5,2,2.7,3.5,3.5,4.6
	c7,9.6,11.9,16.4,14.8,20.2c0.6,0.7,1,1.3,1.3,1.8c0.6,0.9,1.1,1.5,1.3,1.8c1,1.2,1.9,2.5,2.8,3.7c0.2,0.3,0.6,0.8,1.1,1.4
	c0.4,0.5,0.7,0.9,1.1,1.5c0.3,0.5,0.6,0.9,0.9,1.3c0.3,0.3,0.6,0.8,1,1.3c4.3,5.9,8.6,11.7,12.9,17.6c0,0,0.4,0.5,1.2,1.6
	c0.4,0.6,0.8,1.1,1.1,1.8c0.1,0.2,0.2,0.4,0.4,0.5c0.2,0.1,0.3,0.3,0.5,0.5c1.2,1.5,2.3,3,3.4,4.6c0.1,0.1,0.1,0.1,0.2,0.1
	c0.5,0.1,0.8-0.1,1.1-0.4c0.2-0.2,0.3-0.5,0.3-1c-0.1-30.5-0.1-61.1-0.1-91.6c0,0,0-0.4,0.1-1.1c0-0.4,0-0.8-0.1-1.2
	c0-0.1-0.1-0.2-0.2-0.2l-2.7,0c-0.1,0-0.1,0-0.1-0.1c0,0,0,0,0,0c0.5-1.1,1-2.1,1.6-2.9c0.6-0.9,1.1-1.8,1.6-2.8
	c0-0.1,0.1-0.1,0.2-0.1c0,0,0,0,0,0c1.2,1.8,2.2,3.6,3.1,5.4C384.5,201.6,384.6,201.6,384.7,201.7z"/>
<path class="st0" d="M325,202.9c1.1,1,1.2,2.2,0.3,3.4c-0.1,0.1-0.1,0.1-0.2,0.2c-1.2,0.3-2.3,0.4-3.6,0.4c0,0-0.3,0-0.7,0
	c-0.4,0-0.5-0.2-0.5-0.6c0-0.3,0-0.5,0-0.5c0-2,0-4.1,0.1-6.1c0-0.1,0.1-0.2,0.2-0.2c0.6-0.1,1.3-0.1,1.9,0c0,0,0.4,0,1.1,0
	c0.8,0,1.3,0.3,1.7,0.8c0.4,0.5,0.4,1.2,0.1,1.9c0,0.1-0.1,0.1-0.2,0.2c-0.1,0.1-0.2,0.2-0.3,0.3C324.9,202.8,325,202.9,325,202.9z
	 M322.1,201c-0.3,1.1-0.1,1.6,0.7,1.5c0.4,0,0.7-0.1,0.9-0.2c0.4-0.2,0.5-0.5,0.4-1.1c0-0.1-0.1-0.2-0.2-0.2c-0.5-0.2-1-0.3-1.5-0.3
	C322.2,200.7,322.1,200.8,322.1,201z M324.2,205.2c0.3-0.6,0.4-0.9,0.1-1.1c-0.3-0.2-0.6-0.3-0.9-0.3c-0.4,0-0.7-0.1-0.9-0.1
	c-0.4,0-0.5,0.2-0.5,0.6c0,0.4,0,0.6,0,0.7c0,0.6,0.2,0.8,0.8,0.7c0,0,0.3,0,0.8-0.1C323.8,205.7,324,205.5,324.2,205.2z"/>
<path class="st0" d="M600.1,300.8c-0.1-0.2-0.1-0.4-0.1-0.7c0.2-0.6,0.1-1.1-0.2-1.6c-0.1-0.1-0.1-0.2-0.1-0.3
	c-0.1-8.9-0.1-17.8-0.1-26.7c0-0.2,0.1-0.5,0.2-0.9c0.1-0.3,0.2-0.6,0.2-0.9c0.2-2.2,0.3-4.4,0.2-6.4c0-0.4-0.2-0.6-0.6-0.6
	c-2.8-0.1-5.4-0.5-7.9-1.3c-2-0.6-3.8-1.4-5.2-2.3c-1.6-1-3.1-2.2-4.4-3.7c-1.6-1.8-2.5-3.8-2.7-6.1c0,0,0-0.2-0.1-0.4
	c-0.1-0.4,0.1-0.6,0.5-0.6c0.1,0,0.1,0.1,0.2,0.2c0.1,2.1,0.8,3.9,2.1,5.5c1.4,1.8,3,3.3,4.9,4.4c1.4,0.8,3.2,1.6,5.3,2.2
	c2.5,0.8,5.1,1.2,7.8,1.3c0.2,0,0.3-0.1,0.3-0.3c0,0,0,0,0,0c0-2.4,0-4.8-0.1-7.1c0-0.1-0.1-0.5-0.2-1c-0.1-0.3-0.1-0.7-0.1-1.1
	c0-11.4,0-22.9,0-34.3c0-1.2,0.1-2.8,0.2-4.8c0.1-1.8,0.2-3.6,0.2-5.6c0-0.4-0.2-0.6-0.6-0.6l-2.4,0.1c-0.1,0-0.2-0.1-0.2-0.2
	c0,0,0-0.1,0-0.1c0.4-1,0.9-1.9,1.5-2.7c0.3-0.5,0.6-0.8,0.7-1c0.2-0.4,0.4-0.8,0.5-1.1c0.2-0.6,0.5-1,1-1.3c0.1,0,0.2,0,0.2,0.1
	l3.4,6.1c0,0.1,0,0.1-0.1,0.2c0,0,0,0-0.1,0l-3,0.1c-0.1,0-0.1,0.1-0.1,0.2c0,0,0,0,0,0c0.1,2.4,0.2,4.8,0.2,7.3c0,0.2,0,0.3,0,0.5
	c0.1,12.4,0.1,24.8,0.1,37.2c0,0.2,0,0.5-0.1,0.7c0,0.1-0.1,0.3-0.1,0.4c0,0.1-0.1,0.3-0.1,0.5c0,2.5,0,5,0,7.6
	c0,0.2,0.1,0.3,0.3,0.3c0,0,0,0,0,0c2.2-0.1,4.4-0.4,6.5-1c2.1-0.6,3.9-1.3,5.4-2c1.8-0.9,3.4-2.1,4.7-3.4c1.3-1.4,2.3-3,3-5
	c0.2-0.5,0.3-0.8,0.3-0.9c0.2-0.7-0.2-0.9-1.1-0.6c-0.6,0.2-1.1,0.4-1.6,0.5c-0.4,0.1-0.5,0-0.4-0.4c0.4-0.9,0.6-1.8,0.8-2.8
	c0.2-1.2,0.5-2.5,0.9-3.7c0.1-0.3,0.3-0.4,0.5-0.1c0.5,0.6,1,1.1,1.4,1.7c0.5,0.6,1,1.1,1.7,1.6c0.6,0.4,1.1,1,1.5,1.9
	c0,0.1,0,0.1-0.1,0.2c0,0,0,0,0,0l-2.7,0.6c-0.2,0-0.3,0.2-0.3,0.4c-0.2,2-0.8,3.7-1.8,5c-0.5,0.6-0.7,1-0.7,1
	c-0.4,0.5-0.6,0.8-0.8,1c-1.7,1.6-3.1,2.7-4.3,3.3c-4.1,2.1-8.5,3.3-13,3.5c-0.1,0-0.2,0.1-0.2,0.2l0.1,7.2c0,0.1,0,0.2,0.1,0.2
	c0.1,0.1,0.1,0.2,0.1,0.3c0,6.7,0,15.3,0,26c0,0.6,0,1.2-0.1,1.8c-0.1,0.9-0.2,1.5-0.2,1.8c0,2.7,0,5.4,0,8.3c0,0.2,0.1,0.4,0.3,0.5
	c0.6,0.4,1.2,0.4,1.7-0.1c3.4-3.5,6.8-7,10.2-10.5c0.2-0.2,0.8-0.8,1.8-1.7c0.4-0.4,0.8-0.8,1.2-1.2c0.5-0.6,0.9-1,1.2-1.2
	c4.8-4.8,9.6-9.6,14.4-14.4c0,0,0.5-0.5,1.5-1.6c0.5-0.6,1.2-1.2,1.9-1.8c0.3-0.2,0.5-0.5,0.8-0.9c0.3-0.3,0.5-0.6,0.8-0.9
	c0.6-0.5,1.1-1,1.6-1.5c1-1,1.5-1.6,1.5-1.6c11.6-11.7,23.3-23.4,34.9-35.1c0-0.1,0-0.1,0-0.2c0,0,0,0,0,0c-0.9-0.6-1.6-1.3-2-2.1
	c-0.1-0.1,0-0.3,0.1-0.3c0,0,0,0,0.1,0c2.2-0.4,4.3-0.9,6.1-1.5c0.5-0.2,0.7,0,0.5,0.5c-0.7,2.1-1.1,4-1.4,5.9
	c0,0.2-0.2,0.3-0.4,0.3c0,0-0.1,0-0.1,0c-0.8-0.3-1.4-0.8-1.8-1.5c-0.3-0.5-0.6-0.6-1-0.1c-0.3,0.4-0.6,0.8-1.1,1.1
	c-0.6,0.5-1,0.8-1.1,1c-13.8,13.9-27.6,27.9-41.5,41.7c-0.1,0.1-0.4,0.4-0.8,1c-0.2,0.2-0.4,0.4-0.6,0.6c-0.3,0.3-0.5,0.5-0.6,0.6
	c-5,5.1-10.1,10.1-15.2,15.2c-0.2,0.2-0.3,0.4-0.6,0.6c-0.2,0.2-0.4,0.4-0.6,0.6c-0.6,0.5-1.1,1-1.6,1.5c-0.8,0.9-1.3,1.4-1.5,1.6
	c-1.4,1.4-2.7,2.7-4.1,4.1c0,0-0.3,0.4-1,1.1c-0.4,0.4-0.9,0.9-1.4,1.3c-0.2,0.1-0.2,0.3-0.1,0.5c0.5,0.6,0.8,1.3,1,1.9
	c0,0.1,0.1,0.2,0.2,0.2c0.4,0.1,1,0.1,1.8,0.1c25,0.1,50,0.1,74.9,0c0.2,0,0.4-0.2,0.4-0.4c0,0,0-0.1,0-0.1c-0.2-0.7-0.3-1.3-0.2-2
	c0-0.1,0-0.1,0.1,0c0.9,1.2,2.1,2.1,3.4,2.8c0.1,0,0.1,0.1,0.1,0.2c0,0,0,0,0,0.1l-3.5,2.9c-0.2,0.1-0.2,0.1-0.2-0.1l0.5-2.1
	c0-0.2-0.1-0.3-0.2-0.3c0,0,0,0-0.1,0c-2.1,0-4.2,0-6.3,0c-20.6-0.1-41.2-0.1-61.7,0c0,0-1.4,0-4.2-0.1c-1.4,0-2.9,0-4.5,0.1
	c-0.2,0-0.4,0.2-0.4,0.4c-0.2,0.9-0.6,1.4-1.2,1.8c-0.2,0.1-0.3,0.4-0.2,0.6c0,0,0,0,0,0c0.6,1,1.2,2,1.6,3c0.8,1.8,1.3,2.8,1.5,3.1
	c1.2,2.4,2.4,4.7,3.6,7.1c0,0,0.2,0.4,0.6,1c0.1,0.2,0.2,0.5,0.3,0.7c0.1,0.3,0.2,0.6,0.3,0.7c0.9,1.8,1.9,3.5,2.7,5.3
	c0,0,0.1,0.2,0.2,0.6c0,0.1,0.1,0.3,0.2,0.4c0.1,0.2,0.2,0.3,0.3,0.4c1.1,2.3,2.3,4.6,3.5,6.9c0.2,0.3,0.8,1.5,1.8,3.5
	c0.4,0.8,0.8,1.6,1.2,2.3c0.4,0.8,0.8,1.5,1.2,2.3c0.5,1,1,2,1.5,2.9c0.5,0.8,0.9,1.7,1.3,2.6c0.4,0.9,0.9,1.8,1.3,2.6
	c1,1.9,1.9,3.6,2.6,4.9c1.9,3.9,3.9,7.8,5.9,11.6c0.2,0.4,0.7,1.5,1.5,3.1c0.5,1.1,1,2.1,1.6,3.1c0.4,0.7,0.9,1.6,1.4,2.8
	c0.4,0.9,0.9,1.9,1.5,2.8c0.3,0.5,0.6,1.2,1.1,2.2c0.3,0.8,0.7,1.5,1.1,2.2c0.7,1.1,1.1,1.9,1.2,2.2c0.4,1.1,0.8,2,1.4,2.9
	c0.1,0.2,0.4,0.2,0.5,0.1l2.1-1.3c0.3-0.2,0.4-0.1,0.4,0.3l-0.4,6.7c0,0.1-0.1,0.2-0.2,0.2c0,0-0.1,0-0.1,0
	c-1.1-0.7-2.2-1.4-3.2-2.2c-0.4-0.3-0.9-0.6-1.3-0.7c-0.6-0.2-1-0.6-1.3-1.1c0-0.1,0-0.2,0.1-0.2c0,0,0,0,0,0l2.3-1.1
	c0.2-0.1,0.3-0.3,0.2-0.5c-0.3-0.7-0.6-1.4-1-2.1c-0.6-1-0.9-1.7-1.1-2c-1.1-2.4-1.9-3.9-2.1-4.4c-0.6-1-1-1.7-1.3-2.4
	c-0.4-0.9-0.7-1.4-0.7-1.4c-0.4-0.8-0.8-1.6-1.3-2.4c-0.4-0.7-0.8-1.5-1.2-2.4c-0.5-1-0.9-1.9-1.4-2.8c-0.6-1.2-1.1-2.2-1.5-2.8
	c-2.3-4.7-4.7-9.4-7.2-14.1c-0.1-0.2-0.4-0.9-0.9-1.9c-0.2-0.4-0.4-0.9-0.7-1.3c-0.3-0.5-0.5-0.9-0.7-1.2c-0.9-1.9-1.8-3.8-2.8-5.7
	c-1.3-2.4-2.5-4.9-3.8-7.3c0-0.1-0.4-0.7-1-2c-0.3-0.7-0.7-1.3-1.1-2c-0.3-0.4-0.6-1.2-1.2-2.3c-0.4-0.8-0.7-1.6-1.1-2.3
	c-0.6-1.1-1.2-2.3-1.8-3.4c-0.4-0.8-0.9-1.7-1.5-2.9c-0.3-0.6-0.7-1.3-1-1.9c-0.3-0.7-0.7-1.4-1-1.9c-0.6-1.2-1.2-2.4-1.8-3.6
	c-0.5-1.1-1.1-2.2-1.6-3.1c-0.5-1-1.1-2-1.6-3c-0.1-0.2-0.3-0.3-0.5-0.3c-1.1,0.2-2,0.1-2.8-0.3c-0.5-0.2-0.9-0.1-1.1,0.3
	c-0.1,0.3-0.2,0.4-0.2,0.4c-2.7,4.2-5.4,8.4-8.1,12.6c-1.1,1.6-2.1,3.2-3.2,4.8c0,0-0.4,0.7-1.3,2.1c-0.3,0.5-0.7,1-1,1.5
	c-0.4,0.5-0.7,1-1,1.5c-0.4,0.6-0.8,1.3-1.2,1.9c-0.7,1.1-1.2,1.7-1.2,1.8c-2,3.1-4,6.2-6.1,9.3c-1.4,2-2.7,4.1-4,6.2
	c-0.1,0.1-0.4,0.6-1,1.5c-0.2,0.3-0.4,0.7-0.6,1c-0.2,0.4-0.4,0.8-0.6,1c-1.9,2.8-3.8,5.7-5.6,8.6c-0.1,0.1,0,0.2,0,0.3
	c0.7,0.7,1.4,1.2,2.1,1.5c0.4,0.2,0.4,0.3,0,0.5c-1.8,0.8-3.6,1.8-5.4,2.8c-0.3,0.2-0.5,0.2-0.8,0.2c-0.1,0-0.2-0.1-0.2-0.2
	c0,0,0,0,0,0l0.4-6.7c0-0.4,0.2-0.5,0.6-0.3l2.1,1.5c0.2,0.1,0.4,0.1,0.5-0.1c0,0,0,0,0,0c0.7-1.2,1.4-2.3,2.1-3.4
	c2.3-3.5,4.7-7.1,7-10.7c0.1-0.1,0.4-0.6,0.8-1.3c0.3-0.4,0.6-0.9,0.9-1.3c0.5-0.7,0.9-1.2,1.1-1.6c0.2-0.4,0.5-0.8,0.7-1.1
	c0.2-0.3,0.5-0.7,0.7-1.1c0.8-1.1,1.5-2.2,2.2-3.3c0.3-0.5,0.8-1.3,1.5-2.3c0.4-0.5,0.7-1,1-1.5c0.4-0.7,0.7-1.2,1-1.6
	c0.8-1.2,1.6-2.4,2.4-3.7c0.2-0.3,0.6-1,1.3-1.9c0.3-0.4,0.6-0.9,0.8-1.3c0.3-0.6,0.6-1,0.8-1.3c3.1-4.6,6.1-9.2,9.1-13.8
	c0,0,0.3-0.4,0.9-1.2c0.3-0.5,0.6-1,0.9-1.5c0-0.1,0.1-0.1,0.2-0.2c0.3-0.2,0.3-0.5,0.1-0.8c-0.5-0.9-0.7-1.9-0.5-3.2
	c0.1-0.6-0.1-1.1-0.7-1.3c-0.3-0.1-0.4-0.2-0.4-0.2c-1.8-0.9-3.6-1.9-5.4-2.8c-0.5-0.3-1.3-0.7-2.4-1.2c-0.8-0.4-1.6-0.8-2.4-1.3
	c-0.5-0.3-1.2-0.7-2-1.1c-0.6-0.3-1.2-0.6-2-1.1c-0.8-0.5-1.6-0.9-2.4-1.4c-0.7-0.4-1.5-0.8-2.5-1.3c-1-0.5-2-1-2.9-1.6
	c-0.7-0.4-1.5-0.8-2.5-1.3c-0.8-0.4-1.6-0.8-2.5-1.3c-1-0.6-2.3-1.3-4.1-2.2c-0.2-0.1-0.9-0.5-2.1-1.2c-0.5-0.3-0.9-0.5-1.4-0.7
	c-0.6-0.3-1-0.5-1.4-0.7c-0.8-0.5-1.7-1-2.6-1.4c-1.3-0.7-2.2-1.1-2.6-1.4c-4.8-2.6-7.9-4.3-9.2-4.9c-1.5-0.7-3-1.6-4.4-2.4
	c-1-0.6-2.1-1.1-3.3-1.6c-0.2-0.1-0.4,0-0.5,0.2l-1.2,2.1c-0.2,0.3-0.4,0.3-0.5,0c-0.4-0.8-0.8-1.5-1.3-2.2
	c-0.8-1.1-1.5-2.3-2.1-3.5c-0.1-0.1,0-0.3,0.1-0.3c0,0,0.1,0,0.1,0c2.3-0.2,4.6-0.2,6.8-0.2c0.1,0,0.1,0.1,0.1,0.1c0,0,0,0,0,0.1
	c-0.3,0.7-0.7,1.3-1,1.9c-0.2,0.3-0.3,0.5-0.3,0.8c0,0.1,0.1,0.2,0.2,0.3c1.1,0.5,2.1,1,3.1,1.6c0.5,0.3,1.5,0.8,3,1.7
	c0.7,0.4,1.4,0.8,2.1,1.1c0.8,0.4,1.5,0.8,2.1,1.1c1.1,0.6,2.2,1.2,3.4,1.8c1,0.5,2.2,1.1,3.4,1.8c1.3,0.7,2.6,1.4,3.9,2
	c0.4,0.2,0.9,0.5,1.5,0.9c0.4,0.3,1,0.5,1.5,0.8c1.1,0.5,2.4,1.2,3.7,2c0.7,0.4,1.8,1,3.1,1.6c0.7,0.4,1.4,0.7,2.1,1.1
	c0.7,0.4,1.4,0.8,2.1,1.1c1.5,0.7,2.8,1.4,3.9,2.1c0.5,0.3,1,0.5,1.4,0.7c0.7,0.3,1.2,0.5,1.4,0.7c1,0.6,2,1.1,3,1.7
	c0.8,0.5,1.8,1,3,1.6c1.2,0.6,2.2,1.1,3,1.6c0.5,0.3,1,0.6,1.5,0.8c0.7,0.3,1.2,0.6,1.5,0.8c1.4,0.8,2.8,1.6,4.2,2.2
	c0,0,0.3,0.2,0.8,0.5c0.4,0.3,0.9,0.3,1.4,0c0.5-0.3,0.8-0.4,0.8-0.4c0.4-0.2,0.7-0.4,1-0.6c0.1-0.1,0.1-0.1,0.1-0.2l-0.1-7.7
	C600.2,301,600.2,300.9,600.1,300.8z"/>
<path class="st0" d="M185.5,211.6c0.3-0.3,0.6-0.6,1-0.9c0.1-0.1,0.3-0.1,0.4,0c0,0,0,0,0,0l3.5,3.5c0.1,0.1,0.1,0.2,0.1,0.2
	c-0.1,0.2-0.2,0.3-0.5,0.3c-0.1,0-0.2-0.1-0.2-0.1c-0.9-1-1.8-1.9-2.8-2.7c-0.1-0.1-0.3-0.1-0.4,0c-1,0.8-1.9,1.7-2.8,2.5
	c-0.1,0.1-0.2,0.2-0.4,0.2c-0.5,0.1-0.6-0.1-0.1-0.6C183.8,213.2,184.6,212.4,185.5,211.6z"/>
<path class="st0" d="M694.9,211.9c0.2-0.1,0.4-0.1,0.5,0c1.1,0.9,2.1,1.8,3,2.8c0.2,0.3,0.3,0.5,0.1,0.9c0,0.1-0.1,0.1-0.2,0
	c0,0,0,0,0,0l-2.6-2.5c-0.3-0.3-0.7-0.3-1-0.1c-0.8,0.6-1.7,1.4-2.4,2.4c-0.1,0.1-0.1,0.1-0.2,0.1c-0.3,0-0.4-0.2-0.3-0.5
	c0-0.1,0.1-0.2,0.2-0.4C692.7,213.7,693.7,212.8,694.9,211.9z"/>
<path class="st0" d="M192.4,216.7c0-0.3,0-0.7,0.1-1c0-0.1,0.1-0.2,0.2-0.2c0.7-0.1,1.3-0.1,2,0c0.1,0,0.1,0.1,0.1,0.2
	c-0.2,1.4-0.6,2.7-1.1,4.1c0,0.1-0.1,0.2-0.2,0.2l-0.9-0.1c-0.1,0-0.1-0.1-0.2-0.2c-0.1-0.6-0.1-1.2,0-1.8
	C192.4,217.5,192.4,217.2,192.4,216.7z"/>
<path class="st0" d="M185.9,224.8c1.1-0.2,2.5-0.2,4.1-0.2c0.1,0,0.2,0.1,0.2,0.1l0.1,1.6c0,0.1-0.1,0.2-0.2,0.2c0,0,0,0,0,0l-7.2,0
	c-0.1,0-0.2-0.1-0.2-0.2c0,0,0,0,0,0c0-0.7,0.2-1.3,0.6-1.8c1.3-2.1,2.7-4.3,4.1-6.5c0.2-0.3,0.1-0.4-0.3-0.4l-3.5,0
	c-0.1,0-0.2-0.1-0.2-0.1l0-1.5c0-0.1,0.1-0.2,0.3-0.2c0,0,0,0,0,0l6.1,0c0.3,0,0.5,0.2,0.5,0.5c0,0.5-0.1,1-0.4,1.5
	c-0.3,0.4-0.4,0.6-0.4,0.6c-0.5,0.9-1,1.7-1.6,2.5c-0.8,1.1-1.5,2.3-2.2,3.6C185.6,224.7,185.6,224.8,185.9,224.8z"/>
<path class="st0" d="M700.3,220.4c-0.1,0-0.1-0.1-0.1-0.2l0.2-3.6c0-0.2,0.1-0.3,0.2-0.3l1.4-0.1c0.1,0,0.2,0.1,0.2,0.2c0,0,0,0,0,0
	c-0.1,1.3-0.4,2.6-0.9,3.9C701.2,220.6,700.9,220.7,700.3,220.4z"/>
<path class="st0" d="M695.5,226.6c0,0.1-0.1,0.2-0.2,0.2l-1.1,0c-0.2,0-0.4-0.2-0.4-0.4c0,0,0,0,0,0c0-0.9,0-1.7-0.1-2.5
	c-0.1-0.7-0.3-1.5-0.7-2.4c-0.6-1.5-1.3-3-2.1-4.4c-0.1-0.2,0-0.4,0.1-0.4c0.9-0.5,1.5-0.3,2,0.5c0.6,1.2,1.1,2.5,1.7,3.7
	c0.1,0.4,0.3,0.3,0.4,0c0.4-1.3,0.9-2.7,1.5-4c0.1-0.2,0.2-0.3,0.4-0.3l1.4-0.1c0.1,0,0.2,0.1,0.2,0.2c0,0,0,0,0,0
	c0,0.5-0.1,1-0.3,1.4c-0.9,1.9-1.6,3.3-2,4c-0.4,0.7-0.6,1.5-0.5,2.3C695.7,225.1,695.7,225.8,695.5,226.6z"/>
<path class="st0" d="M195.8,227.5l-0.4,1.6c-0.1,0.3-0.3,0.5-0.5,0.5l-1.3-0.1c-0.1,0-0.1-0.1-0.1-0.1c0,0,0,0,0,0
	c0.3-0.9,0.6-1.8,0.9-2.7c0.6-1.6,1.1-3.3,1.4-4.9c0-0.2,0.2-0.3,0.4-0.3l1.5-0.1c0.2,0,0.4,0.1,0.5,0.4c0.8,2.6,1.6,5.2,2.6,7.6
	c0,0.1,0,0.2-0.1,0.2c0,0,0,0,0,0c-0.6,0.1-1.2,0.1-1.7,0c-0.1,0-0.2-0.1-0.2-0.2c-0.1-0.4-0.2-0.9-0.3-1.3
	c-0.1-0.5-0.4-0.8-0.9-0.8c-0.4,0-0.6,0-0.6,0c-0.4,0-0.7,0-1.1,0C195.9,227.3,195.9,227.4,195.8,227.5z M196.9,223l-0.6,2.5
	c-0.1,0.3,0,0.5,0.1,0.6c0,0,0,0,0,0l1.3,0.1c0.4,0,0.5-0.2,0.4-0.6l-0.9-2.5C197.1,222.7,197,222.7,196.9,223z"/>
<path class="st0" d="M707.5,225.5c0.7,0.4,1.1,0.9,1.1,1.5c0.1,1-0.3,1.7-1.2,2.2c-0.7,0.4-1.5,0.6-2.3,0.5c-0.6,0-1.3-0.1-2-0.1
	c-0.2,0-0.4-0.2-0.4-0.4l-0.1-7.2c0-0.2,0.2-0.3,0.3-0.3c0,0,0,0,0,0c0.5,0,1.1,0,1.7,0c0,0,0.3,0,0.8,0c0.5,0,0.9,0.1,1.3,0.2
	c0.5,0.1,0.8,0.4,1,0.8c0.5,0.9,0.3,1.7-0.5,2.5C707.4,225.4,707.4,225.4,707.5,225.5C707.5,225.5,707.5,225.5,707.5,225.5z
	 M706.1,223.1l-1.7-0.2c-0.1,0-0.2,0.1-0.2,0.2c-0.2,0.6-0.2,1.2,0,1.8c0,0.1,0.1,0.1,0.2,0.1c0.3,0,0.6,0,1,0c0.4,0,0.8-0.1,1-0.4
	c0.4-0.4,0.3-0.9,0-1.4C706.3,223.2,706.2,223.1,706.1,223.1z M706.4,226.3l-1.9-0.1c-0.1,0-0.3,0.1-0.3,0.2c0,0,0,0,0,0l-0.1,1.7
	c0,0.1,0.1,0.3,0.3,0.3c0,0,0,0,0,0c0.3,0,0.6,0,0.9,0c1.5,0,1.9-0.6,1.2-1.9C706.6,226.4,706.5,226.3,706.4,226.3z"/>
<path class="st0" d="M113.4,228c0.3-0.3,0.5-0.5,0.8-0.8c0.1,0,0.2,0,0.2,0c0.8,1,1.7,1.9,2.6,2.7c0.5,0.4,0.8,0.8,0.9,1.1
	c0.1,0.4,0,0.5-0.2,0.5c-0.1,0-0.2-0.1-0.3-0.2c-0.9-0.8-1.9-1.7-2.9-2.7c-0.1-0.1-0.4-0.1-0.5,0c-1,0.9-2,1.8-2.9,2.7
	c-0.1,0.1-0.3,0.2-0.4,0.2c-0.2,0-0.3-0.1-0.3-0.3c0-0.1,0.1-0.2,0.2-0.4c0.6-0.7,1.2-1.3,1.9-2C112.6,228.8,112.9,228.5,113.4,228z
	"/>
<path class="st0" d="M470.9,230.3c0.2-0.3,0.5-0.4,0.8-0.2c0.1,0.1,0.2,0.2,0.3,0.4c0.1,0.1,0.2,0.3,0.3,0.4
	c0.8,0.7,1.5,1.4,2.2,2.2c0.1,0.1,0.2,0.3,0.2,0.4c0,0.2-0.1,0.3-0.3,0.3c-0.1,0-0.2,0-0.2-0.1l-2.7-2.5c-0.1-0.1-0.2-0.1-0.2,0
	l-2.8,2.5c-0.1,0.1-0.2,0.1-0.3,0.1c-0.2-0.1-0.1-0.5,0.4-1c0.2-0.2,0.4-0.4,0.6-0.6c0.5-0.3,0.9-0.8,1.4-1.3
	C470.6,230.7,470.7,230.6,470.9,230.3z"/>
<path class="st0" d="M120.7,232.3l1.4,0c0.1,0,0.2,0.1,0.2,0.2c0,0,0,0,0,0c-0.2,1.2-0.5,2.3-0.8,3.5c0,0,0,0.2,0,0.4
	c0,0.2-0.1,0.3-0.4,0.3c-0.1,0-0.2,0-0.3,0c-0.2,0.1-0.5,0.1-0.7-0.1c-0.1,0-0.1-0.1-0.1-0.2l0.3-3.8
	C120.3,232.4,120.5,232.3,120.7,232.3z"/>
<path class="st0" d="M114.9,234.9c0.2-0.3,0.1-0.4-0.2-0.4l-3.7,0c-0.2,0-0.3-0.1-0.3-0.3c0,0,0,0,0,0l0-0.8c0-0.5,0.2-0.7,0.6-0.7
	h5.8c0.4,0,0.6,0.2,0.6,0.6c0.1,0.7-0.1,1.3-0.6,1.9c-0.5,0.7-0.8,1-0.8,1c-1.1,1.8-2.3,3.5-3.3,5.3c-0.1,0.1,0,0.2,0.1,0.2l4.2-0.1
	c0.1,0,0.2,0,0.2,0.1c0.2,0.5,0.3,1.1,0.1,1.6c0,0.1-0.1,0.1-0.2,0.1c-2.4,0.1-4.9,0.1-7.3,0c-0.1,0-0.2-0.1-0.2-0.2c0,0,0,0,0,0
	c0.1-0.8,0.4-1.4,0.8-2c0.2-0.4,0.4-0.5,0.4-0.5C112.5,238.6,113.7,236.7,114.9,234.9z"/>
<path class="st0" d="M477.3,237.7c-0.1,0.3-0.3,0.5-0.5,0.6c-0.2,0.1-0.4,0.1-0.6,0c-0.1-0.1-0.1-0.2-0.1-0.5c0-1,0.1-2,0.2-3
	c0-0.1,0.1-0.2,0.1-0.2c0.3-0.3,0.8-0.3,1.4,0c0.1,0.1,0.2,0.2,0.2,0.3L477.3,237.7z"/>
<path class="st0" d="M471.2,238.5l1.5-3.5c0-0.1,0.1-0.2,0.2-0.2c0.5-0.2,1-0.2,1.6,0c0.1,0,0.1,0.1,0.1,0.2c0,0.2-0.1,0.4-0.3,0.6
	c-0.1,0.1-0.1,0.2-0.2,0.2c-0.4,1.4-1,2.6-1.6,3.7c-0.3,0.6-0.5,1.2-0.5,1.7c0,0.8-0.1,1.6-0.1,2.5c0,0.2-0.2,0.4-0.4,0.4
	c0,0,0,0,0,0l-1.2-0.1c-0.2,0-0.3-0.2-0.3-0.3c0,0,0,0,0,0c0.1-0.8,0.2-1.6,0-2.5c-0.1-0.5-0.4-1.3-0.9-2.2c-0.6-1.2-1.2-2.5-1.7-4
	c0-0.1,0-0.2,0.1-0.2c0,0,0,0,0,0c1.1-0.3,1.8,0,2.1,0.8c0.1,0.4,0.2,0.6,0.2,0.6c0.3,0.7,0.6,1.5,1,2.3
	C471,238.7,471.1,238.7,471.2,238.5z"/>
<path class="st0" d="M122.6,246.4c-0.2,0-0.3-0.1-0.3-0.3l-0.1-7.6c0-0.2,0.2-0.4,0.4-0.4c0,0,0,0,0,0c1.1,0.1,2.2,0.1,3.2,0.1
	c1.4,0,2.1,0.8,2.1,2.2c0,0.5-0.3,0.9-0.7,1.1c-0.1,0.1-0.2,0.2-0.1,0.4c0,0,0,0,0,0.1c1.7,1.6,1.7,2.9,0,4
	c-0.4,0.3-0.8,0.4-1.4,0.4C124.8,246.4,123.7,246.4,122.6,246.4z M123.7,239.6c0.1,0.2,0.1,0.5,0.1,0.7c-0.1,0.4,0,0.7,0.1,0.8
	c0.1,0,0.3,0.1,0.7,0.1c0.5,0,1-0.1,1.5-0.3c0.5-0.3,0.7-0.6,0.4-1c-0.1-0.2-0.4-0.4-0.7-0.5c-0.6-0.2-1.2-0.3-1.9-0.2
	c-0.1,0-0.1,0.1-0.2,0.2C123.7,239.6,123.7,239.6,123.7,239.6z M124.1,245c0.8,0.1,1.6,0,2.4-0.3c0.1,0,0.2-0.1,0.2-0.2
	c0.2-0.5,0.2-1-0.1-1.3c-0.2-0.3-0.6-0.4-1.1-0.5c-0.5,0-1,0-1.5,0c-0.1,0-0.2,0.1-0.2,0.2c-0.1,0.8-0.1,1.4,0.1,1.9
	C123.9,244.9,124,245,124.1,245z"/>
<path class="st0" d="M483.1,243.3l0.7,0.4c0.1,0,0.1,0.1,0.1,0.2c0.4,1.5-0.2,2.4-1.6,2.8c-0.8,0.2-2,0.2-3.6,0
	c-0.1,0-0.1-0.1-0.2-0.2c-0.1-2.3-0.1-4.6,0.1-6.9c0-0.1,0.1-0.2,0.2-0.2c1.7-0.1,2.9,0,3.5,0.2c1,0.3,1.5,1,1.4,1.9
	c0,0.2-0.1,0.4-0.3,0.8c-0.1,0.2-0.2,0.5-0.3,0.8C482.9,243.2,483,243.3,483.1,243.3z M480.3,242.5c0.6,0.1,1.2,0,1.7-0.4
	c0.1-0.1,0.1-0.1,0.2-0.2c0.1-0.5,0-0.8-0.5-1c-0.2-0.1-0.6-0.1-1.2-0.1c-0.5,0-0.7,0.3-0.6,0.7c0,0.1,0,0.2,0,0.3
	c0,0.2,0,0.3,0.1,0.4C480,242.4,480.1,242.5,480.3,242.5z M482.4,244.3c0-0.3-0.2-0.5-0.5-0.5l0,0l-1.4,0c-0.3,0-0.5,0.2-0.5,0.5
	l0,0l0,0.9c0,0.3,0.2,0.5,0.5,0.5l0,0l1.4,0c0.3,0,0.5-0.2,0.5-0.5l0,0L482.4,244.3z"/>
<path class="st0" d="M633.9,250.7l0.2-0.8c0-0.1,0.1-0.1,0.2-0.1l1.4-0.1c0.1,0,0.2,0.1,0.2,0.2c0,0,0,0,0,0
	c-0.2,1.5-0.4,2.9-0.7,4.1c-0.1,0.3-0.1,0.5-0.1,0.8c0,0.1,0,0.3-0.1,0.5c-0.1,0.3,0,0.4,0.3,0.4c0.2,0,0.4,0,0.4,0.1
	c0.6,0.3,0.8,0.8,0.4,1.4c0,0.1-0.1,0.1-0.2,0.1c-1,0.1-1.9-0.1-2.6-0.7c-0.1-0.1-0.2-0.1-0.2,0c-0.9,0.7-1.9,0.9-3.1,0.5
	c-0.8-0.3-1.3-0.8-1.6-1.6c-0.1-0.4-0.2-0.8-0.3-1.3c-0.1-0.5-0.1-1,0-1.3c0.1-0.8,0.4-1.5,1-2.3c0.8-0.9,1.7-1.3,2.7-1.2
	c0.4,0,0.7,0.2,1,0.4c0.3,0.2,0.5,0.5,0.7,0.8c0.1,0.1,0.1,0.2,0.2,0.1C633.8,250.9,633.8,250.9,633.9,250.7z M633.3,252.7
	c0-0.7-0.5-1.4-1.3-1.4l-0.2,0c-0.7,0-1.4,0.5-1.4,1.3c0,0,0,0,0,0l-0.1,1.9c0,0.7,0.5,1.4,1.3,1.4l0.2,0c0.7,0,1.4-0.5,1.4-1.3
	c0,0,0,0,0,0L633.3,252.7z"/>
<path class="st0" d="M545.9,258.2l-2.8,2.7c-0.1,0.1-0.2,0.1-0.2,0.1c-0.4,0-0.5-0.2-0.3-0.5c0.1-0.1,0.2-0.2,0.3-0.4
	c1-0.9,1.9-1.9,2.8-2.9c0.1-0.1,0.3-0.1,0.5,0c0,0,0,0,0,0c0.9,0.9,1.7,1.7,2.6,2.5c0,0,0.1,0.1,0.3,0.3c0.3,0.3,0.4,0.6,0.4,1
	c0,0.2-0.1,0.2-0.3,0.1c-1-0.9-2-1.8-3-2.6c-0.1,0-0.1-0.1-0.1-0.2C546,258.2,546,258.1,545.9,258.2
	C545.9,258.2,545.9,258.2,545.9,258.2z"/>
<path class="st0" d="M266.9,261.5c0.3,0.3,0.2,0.5-0.2,0.6c-0.3,0-0.6-0.1-0.8-0.5c-0.3-0.5-1.1-1.3-2.5-2.4c-0.1-0.1-0.2-0.1-0.2,0
	c-0.2,0.1-0.6,0.4-1,0.8c-0.7,0.6-1.3,1.2-2,1.9c-0.2,0.2-0.4,0.2-0.7,0c-0.1,0-0.1-0.1,0-0.2c0,0,0,0,0,0c1.4-1.8,2.5-2.9,3.3-3.5
	c0.4-0.3,0.8-0.3,1.1,0.1c0.2,0.3,0.3,0.4,0.4,0.4C265,259.6,265.9,260.5,266.9,261.5z"/>
<path class="st0" d="M551.6,265.9c-0.1,0-0.2-0.1-0.2-0.3l0.4-3.6c0-0.1,0.1-0.2,0.2-0.2c0.4-0.2,0.8-0.1,1.4,0.1
	c0.2,0.1,0.3,0.2,0.2,0.4l-0.8,3.4c0,0.1-0.1,0.2-0.2,0.2C552.3,266,552,266.1,551.6,265.9z"/>
<path class="st0" d="M545,270.4c-0.1,0.1,0,0.2,0.1,0.2l4.1,0.1c0.1,0,0.2,0.1,0.2,0.1c0.1,0.2,0.1,0.3,0.1,0.5c0,0.1,0,0.3,0,0.5
	c0,0.3-0.2,0.5-0.5,0.4c-0.2,0-0.4,0-0.4,0c-1.9,0-3.9,0-5.8-0.1c-0.5,0-0.6-0.2-0.4-0.7c0.5-1.2,1.2-2.4,2.1-3.6
	c0.9-1.2,1.7-2.5,2.4-3.8c0-0.1,0-0.2-0.1-0.2c0,0,0,0-0.1,0l-3.4-0.1c-0.2,0-0.4-0.1-0.4-0.3c-0.2-0.8,0.1-1.2,0.8-1.2
	c0.3,0,0.5,0,0.5,0c1.7,0,3.4,0,5.1,0.1c0.2,0,0.4,0.2,0.4,0.4c0,0,0,0,0,0.1c-0.2,0.8-0.6,1.6-1.1,2.3
	C547.3,266.9,546.1,268.6,545,270.4z"/>
<path class="st0" d="M270,262.9c0.4,0,0.6,0.1,0.6,0.3c0,0,0,0.2-0.1,0.5c-0.2,1.1-0.4,2.2-0.8,3.3c0,0.1-0.1,0.2-0.2,0.2
	c-0.8,0.5-1.2,0.2-1.2-0.8c0-0.8,0.1-1.6,0.2-2.4c0,0,0-0.2,0-0.6c0-0.5,0.3-0.8,0.8-0.6C269.7,262.8,269.8,262.9,270,262.9z"/>
<path class="st0" d="M262.9,268.1c0.1,0.2,0.1,0.1,0.2,0c0.1-0.5,0.3-1.1,0.5-1.6c0.4-0.9,0.7-1.7,0.8-2.6c0.1-0.3,0.3-0.5,0.6-0.6
	c0.7-0.1,1.3-0.1,1.7,0.1c0.1,0,0.1,0.1,0.1,0.2c-0.3,0.9-0.8,1.9-1.5,3.1c-0.3,0.6-0.6,1.3-1,2.2c-0.2,0.6-0.4,1.3-0.4,2
	c0,0.9-0.1,1.9-0.1,2.8c0,0.1-0.1,0.2-0.1,0.2c-0.6,0.1-1.2,0.1-1.8,0c-0.1,0-0.2-0.1-0.2-0.2c-0.2-1.1-0.2-2.1-0.1-3
	c0-0.4,0-0.8-0.2-1.2c-0.2-0.3-0.2-0.5-0.2-0.5c-0.8-1.8-1.6-3.6-2.5-5.4c-0.1-0.1,0-0.3,0.1-0.4c0,0,0,0,0,0c0.6-0.3,1.1-0.3,1.5,0
	c0.3,0.2,0.5,0.5,0.8,1.1C261.7,265.7,262.3,266.9,262.9,268.1z"/>
<path class="st0" d="M558.3,271.2c1,0.2,1.4,0.9,1.2,2c-0.1,0.7-0.4,1.2-1,1.4c-1.5,0.6-3,0.7-4.6,0.4c-0.1,0-0.1-0.1-0.2-0.2
	c-0.1-2.3-0.1-4.8,0-7.4c0-0.1,0.1-0.2,0.2-0.2c0,0,0,0,0,0c0.9,0.1,1.7,0.1,2.5,0.1c0.7,0,1.3,0.1,1.8,0.5c0.9,0.6,1.1,1.4,0.5,2.4
	c-0.2,0.3-0.4,0.6-0.5,0.9C558.2,271.1,558.2,271.2,558.3,271.2C558.3,271.2,558.3,271.2,558.3,271.2z M557,268.7
	c-0.4-0.1-0.9-0.1-1.7,0c-0.1,0-0.2,0.1-0.2,0.2l0,1.4c0,0.1,0.1,0.2,0.2,0.2c0.5,0.1,1,0.1,1.4-0.1c0.4-0.1,0.6-0.3,0.8-0.6
	C557.8,269.3,557.6,268.9,557,268.7z M557.4,271.8l-1.8-0.2c-0.2,0-0.3,0.1-0.3,0.3c-0.1,0.7-0.1,1.3,0,1.9c0,0.1,0.1,0.2,0.2,0.2
	c0.2,0,0.3,0,0.5,0c0.1,0,0.4,0,0.6,0c0.9,0,1.4-0.4,1.4-1.4C557.9,272.1,557.7,271.9,557.4,271.8z"/>
<path class="st0" d="M271.5,277c-0.2,0-0.3-0.2-0.3-0.4l0-7.6c0-0.1,0.1-0.2,0.1-0.2c1.6-0.2,3.1-0.1,4.6,0.2
	c0.3,0.1,0.6,0.3,0.7,0.6c0.5,1.1,0.3,1.9-0.6,2.6c-0.2,0.2-0.2,0.3,0.1,0.4c0.3,0.1,0.6,0.3,0.8,0.7c0.8,1.2,0.6,2.3-0.6,3.2
	c-0.5,0.3-1,0.6-1.5,0.6c-0.2,0-0.8,0-1.6,0C272.6,277.1,272,277.1,271.5,277z M273.1,272c0.5,0.1,0.9,0,1.4-0.1
	c0.3-0.1,0.5-0.2,0.7-0.4c0.2-0.3,0.2-0.6,0.1-0.9c-0.1-0.3-0.4-0.5-0.8-0.6c-0.5-0.1-1-0.2-1.5-0.1c-0.1,0-0.2,0.1-0.2,0.2l0,1.5
	C272.8,271.8,272.9,271.9,273.1,272z M273.1,275.6c0.8,0.2,1.6,0,2.3-0.4c0.1-0.1,0.1-0.1,0.2-0.2c0.2-0.5,0.1-0.9-0.1-1.2
	c-0.2-0.3-0.6-0.4-1.1-0.5c-0.4,0-0.9,0-1.3,0c-0.1,0-0.2,0.1-0.2,0.2c-0.2,0.5-0.2,1.2,0,1.9C272.9,275.5,273,275.6,273.1,275.6z"
	/>
<path class="st0" d="M492.6,292.1c-0.3-0.2-0.6-0.5-0.8-0.7c-0.1-0.1-0.1-0.1-0.2,0l-2.8,2.5c-0.1,0.1-0.2,0.1-0.3,0.1
	c-0.3,0-0.3-0.2,0-0.5c0.4-0.6,0.9-1.1,1.5-1.6c0.5-0.4,0.9-0.8,1.2-1.2c0.2-0.3,0.5-0.3,0.8-0.1c0.9,0.9,1.9,1.9,2.8,2.8
	c0.1,0.1,0.2,0.2,0.2,0.3c0,0.2-0.1,0.3-0.3,0.3c-0.1,0-0.2-0.1-0.3-0.2c-0.3-0.3-0.5-0.5-0.8-0.8
	C493.2,292.7,492.9,292.4,492.6,292.1z"/>
<path class="st0" d="M496.4,298.6c-0.1-0.1-0.2-0.2-0.2-0.3l0.3-3.2c0-0.1,0.1-0.2,0.1-0.2c0.5-0.2,1-0.2,1.5,0
	c0.1,0,0.1,0.1,0.1,0.2c-0.2,1.1-0.4,2.1-0.8,3.2c-0.1,0.3-0.2,0.4-0.3,0.5C496.9,298.8,496.7,298.8,496.4,298.6z"/>
<path class="st0" d="M491.3,299.1c0.1,0.2,0.1,0.2,0.2,0l1.6-3.7c0-0.1,0.1-0.2,0.2-0.2c0.5-0.2,1-0.2,1.5,0c0.1,0,0.1,0.1,0.1,0.2
	c-0.5,1.4-1.1,2.7-1.7,4.1c0,0-0.2,0.4-0.6,1c-0.3,0.5-0.4,1.1-0.4,1.7c0,0.6,0.1,1.3,0.1,1.9c0,0.3-0.2,0.5-0.6,0.4
	c-0.1,0-0.2,0-0.3,0c-0.8,0.2-1.1-0.1-0.9-0.9c0.1-0.3,0.1-0.9,0-1.9c-0.1-0.5-0.2-1-0.5-1.5c-0.7-1.3-1.3-2.6-1.8-3.9
	c-0.2-0.4-0.3-0.7-0.3-0.7c0-0.3,0.2-0.6,0.7-0.7c0.5-0.1,0.8,0.1,1,0.5L491.3,299.1z"/>
<path class="st0" d="M499.9,305.5l-0.5,1.5c0,0.1-0.1,0.2-0.2,0.2l-1.2,0c-0.2,0-0.3-0.1-0.2-0.3c0,0,0-0.1,0-0.1
	c0.7-1.8,1.3-3.6,1.9-5.5c0,0,0-0.2,0.1-0.5c0.1-0.6,0.6-0.9,1.3-0.8c0.7,0.1,1.1,0.4,1.2,1.1c0.4,1.9,1,3.8,1.8,5.7
	c0.1,0.1,0,0.3-0.1,0.3c0,0,0,0,0,0c-0.6,0.2-0.9,0.2-1,0.2c-0.4-0.2-0.6-0.5-0.6-0.9c-0.1-0.7-0.4-1.1-0.8-1c-0.3,0-0.4,0-0.5,0
	c-0.3,0-0.7,0-1,0C500,305.4,499.9,305.4,499.9,305.5z M500.8,301.9l-0.6,2c0,0.1,0,0.2,0.1,0.3c0,0,0,0,0,0
	c0.5,0.1,0.9,0.1,1.2-0.1c0.1,0,0.1-0.1,0.1-0.2c-0.1-0.7-0.2-1.3-0.3-1.9C501.1,301.2,500.9,301.2,500.8,301.9z"/>
<path class="st0" d="M698.5,307.6c-0.1-0.2,0-0.4,0.2-0.6c1.1-0.9,1.9-1.8,2.6-2.7c0.4-0.5,0.9-0.5,1.4-0.1c0.5,0.5,0.9,1,1.3,1.5
	c0.4,0.5,0.9,1,1.4,1.4c0.1,0.1,0.1,0.1,0.1,0.2c0,0.2,0,0.4-0.3,0.4c-0.3,0-0.5-0.1-0.7-0.3l-2.6-2.5c-0.1-0.1-0.3-0.1-0.4,0
	c0,0,0,0,0,0.1c-0.5,0.8-1.1,1.5-1.9,2c-0.1,0-0.1,0.1-0.2,0.2c-0.2,0.3-0.4,0.4-0.7,0.4C698.6,307.7,698.5,307.7,698.5,307.6z"/>
<path class="st0" d="M291.3,308.8c-0.3-0.2-0.6-0.2-0.9,0.1c-0.5,0.6-1,1.2-1.4,1.8c-0.4,0.6-0.9,0.9-1.3,1
	c-0.7,0.1-0.8-0.1-0.4-0.5c1.1-1.3,2.3-2.4,3.5-3.6c0.1-0.1,0.2-0.1,0.2,0c1,0.9,1.9,1.9,2.9,2.8c0,0,0.1,0.1,0.4,0.3
	c0.2,0.2,0.4,0.4,0.4,0.7c0.1,0.4-0.1,0.5-0.4,0.3c-1-0.5-1.8-1.3-2.4-2.2C291.7,309.1,291.5,308.9,291.3,308.8z"/>
<path class="st0" d="M707,308.7c0-0.1,0.1-0.2,0.2-0.2l1.5,0c0.2,0,0.4,0.2,0.4,0.4c0,0,0,0.1,0,0.1l-0.8,3
	c-0.1,0.3-0.3,0.5-0.6,0.6c-0.6,0.1-0.9,0.1-1-0.1c0,0,0-0.3,0-0.7C706.9,310.8,707,309.7,707,308.7z"/>
<path class="st0" d="M701,319c-0.2,0-0.3-0.1-0.3-0.3c0,0,0,0,0,0c0-0.8,0-1.7,0-2.5c0-0.6-0.2-1.1-0.4-1.6
	c-0.4-0.8-0.8-1.7-1.2-2.5c-0.4-0.8-0.8-1.6-1-2.5c-0.1-0.2,0-0.4,0.2-0.4c0,0,0,0,0,0c0.6-0.1,1-0.1,1.4,0.1c0.2,0.1,0.5,0.5,0.7,1
	c0.4,1,0.8,2,1.1,3c0.1,0.4,0.3,0.4,0.4,0c0.3-0.7,0.5-1.5,0.9-2.2c0,0,0.1-0.3,0.3-0.9c0.4-1,1.1-1.4,2.2-1.1
	c0.1,0,0.2,0.2,0.2,0.3c0,0,0,0,0,0c-0.8,1.6-1.5,3.2-2.2,4.8c0,0-0.1,0.3-0.4,0.8c-0.2,0.4-0.3,0.9-0.3,1.4c0.1,0.7,0.1,1.5,0,2.4
	c0,0.1-0.1,0.2-0.1,0.2L701,319z"/>
<path class="st0" d="M298.1,312.3c0.3,0.1,0.4,0.3,0.4,0.6c0,0,0,0,0,0l-0.8,3.5c-0.1,0.3-0.3,0.5-0.5,0.5c-0.6,0.1-1,0-1.1-0.3
	c0,0,0-0.3,0-0.9c0-1.1,0.1-2.1,0.3-3.2c0-0.1,0.1-0.2,0.2-0.2C297.1,312.3,297.7,312.2,298.1,312.3z"/>
<path class="st0" d="M290.6,317.4c0.1,0.1,0.2,0,0.3,0c0,0,0,0,0,0l1.7-4.3c0-0.1,0.2-0.2,0.3-0.2l1.7,0c0.1,0,0.2,0.1,0.2,0.2
	c0,0,0,0,0,0c-0.1,0.5-0.2,0.9-0.4,1.3c-0.3,0.5-0.5,0.8-0.5,0.8c-0.2,0.3-0.3,0.7-0.5,1c-0.1,0.2-0.3,0.6-0.5,1
	c-0.8,1.5-1.2,3-1.1,4.6c0,0.7,0,1.3,0,1.6c0,0.1-0.1,0.2-0.2,0.2l-1.5,0c-0.4,0-0.6-0.2-0.6-0.7c0.1-1.1,0.1-2.1-0.1-3
	c-0.1-0.6-0.5-1.6-1.1-2.7c-0.6-1.1-1.1-2.2-1.7-3.4c-0.2-0.4-0.1-0.7,0.4-0.8c0.3,0,0.8,0,1.4,0.1c0.2,0,0.4,0.2,0.4,0.3
	c0.5,1.2,0.9,2.4,1.2,3.5c0.1,0.2,0.1,0.3,0.2,0.4C290.4,317.2,290.5,317.4,290.6,317.4z"/>
<path class="st0" d="M710.7,320.1l-0.3,1.1c-0.1,0.3-0.3,0.5-0.6,0.6c-0.9,0.1-1.2,0-1-0.4c0.2-0.4,0.3-0.6,0.3-0.7
	c0.4-2.1,1.1-4.2,2-6.2c0-0.1,0.1-0.2,0.2-0.2c0.6-0.2,1.1-0.2,1.6,0.1c0.1,0,0.1,0.1,0.2,0.2c0.4,1.1,0.8,2.3,1.2,3.4
	c0.4,1.2,0.8,2.4,0.9,3.5c0,0.2-0.1,0.3-0.3,0.3c0,0,0,0,0,0c-1,0.1-1.5-0.3-1.5-1.1c0-0.5-0.3-0.8-0.8-0.8l-1.7,0.1
	C710.8,319.9,710.7,320,710.7,320.1z M711.7,318.7c0.7,0.1,1-0.1,0.9-0.7c-0.1-0.4-0.1-0.5-0.1-0.5c0-0.4-0.1-0.9-0.1-1.3
	c-0.1-0.5-0.2-0.6-0.4-0.3c-0.1,0.1-0.1,0.2-0.1,0.3c-0.1,0.5-0.2,0.9-0.4,1.3c-0.2,0.4-0.2,0.8,0,1.1
	C711.5,318.6,711.6,318.6,711.7,318.7z"/>
<path class="st0" d="M141.6,318.7c0.5-1.3,1.1-2.6,1.7-4c0.2-0.5,0.6-0.6,1.2-0.4c0.1,0,0.2,0,0.3,0c0.2,0,0.5,0,0.6,0.2
	c0.1,0.1,0.1,0.1,0,0.2c-0.8,1.5-1.5,3-2.1,4.6c-0.1,0.2-0.3,0.5-0.5,1c-0.2,0.4-0.4,0.8-0.4,1.1c0,1.2,0,2.3,0,3.5
	c0,0.1-0.1,0.2-0.1,0.2c0,0,0,0,0,0l-1.7-0.1c-0.1,0-0.1-0.1-0.1-0.2c0-1,0-2,0-2.9c0-0.6-0.1-1.1-0.4-1.6c-0.2-0.3-0.2-0.4-0.2-0.4
	c-0.9-1.7-1.7-3.5-2.4-5.3c0-0.1,0-0.2,0.1-0.2c0,0,0,0,0.1,0l1.7,0c0.2,0,0.4,0.1,0.5,0.3l1.6,4.1C141.4,319,141.5,319,141.6,318.7
	z"/>
<path class="st0" d="M448.2,321.9c1.3,0.6,1.6,1.7,1.2,3.4c-0.1,0.4-0.3,0.8-0.7,1.1c-0.7,0.7-1.6,0.9-2.7,0.6
	c-0.5-0.1-1-0.3-1.5-0.4c-0.2-0.1-0.2,0-0.2,0.2c0.2,0.9,0.3,1.8,0.2,2.6c0,0.1-0.1,0.2-0.2,0.2c-0.6,0.1-1.2,0.1-1.8,0
	c-0.1,0-0.1-0.1-0.1-0.2c0-2.4,0-4.7,0-7.1c0,0,0-0.6,0-1.7c0-0.9,0-1.5,0.2-1.9c0.2-0.8,0.8-1.3,1.8-1.7c1.1-0.4,2-0.4,2.9,0.1
	c0.8,0.4,1.2,1,1.3,1.7c0.1,0.8-0.1,1.5-0.7,2.3C447.7,321.4,447.8,321.7,448.2,321.9z M445.5,322.4c-0.2-0.7-0.1-1.2,0.4-1.5
	c0.5-0.3,0.7-0.4,0.7-0.4c0.6-0.5,0.6-1.1,0.2-1.9c0-0.1-0.1-0.2-0.2-0.2c-0.8-0.4-1.3-0.3-1.7,0.2c-0.2,0.3-0.3,0.7-0.4,1.4
	c-0.1,1.2-0.1,2.5-0.1,3.7c0,0.6,0.1,1.1,0.4,1.4c0.4,0.5,0.9,0.7,1.5,0.6c0.6-0.1,1-0.4,1.3-0.8c0.3-0.5,0.3-1.1,0-1.7
	c0-0.1-0.1-0.1-0.2-0.2c-0.5-0.3-1.1-0.4-1.7-0.5C445.6,322.5,445.5,322.4,445.5,322.4z"/>
<path class="st0" d="M298.3,326.4c-0.1,0-0.2-0.1-0.1-0.3c0.7-2.6,1.5-5.2,2.4-7.6c0-0.1,0.1-0.2,0.2-0.2l1.5-0.1
	c0.2,0,0.3,0.1,0.4,0.3c0.7,1.8,1.3,3.6,1.7,5.4c0.1,0.4,0.2,0.8,0.3,1.2c0.1,0.4,0.3,0.8,0.4,1.1c0,0.1,0,0.3-0.2,0.3c0,0,0,0,0,0
	c-1,0.2-1.5-0.1-1.7-0.9c-0.1-0.5-0.2-0.8-0.2-0.9c-0.2-0.2-0.4-0.3-0.7-0.3c-0.4,0-0.6,0-0.7,0c-0.4,0-0.8,0-1.1,0.1
	c-0.1,0-0.2,0.1-0.2,0.2c-0.1,0.4-0.2,0.7-0.4,1.1c-0.1,0.4-0.3,0.6-0.6,0.7C299,326.5,298.7,326.5,298.3,326.4z M300.9,322.9l1,0.2
	c0.4,0.1,0.6-0.1,0.5-0.5c-0.2-0.8-0.4-1.6-0.6-2.3c0-0.2-0.1-0.2-0.2-0.2c-0.1,0-0.1,0.1-0.2,0.2c-0.1,0.6-0.2,1.2-0.3,1.9
	c0,0.3-0.1,0.5-0.2,0.6C300.7,322.8,300.7,322.8,300.9,322.9z"/>
<path class="st0" d="M319.2,368.6c-0.5-0.5-1-0.5-1.4,0.1c-0.7,0.8-1.4,1.5-2.2,2c-0.4,0.3-0.6,0.2-0.4-0.3c0.2-0.5,0.5-0.8,0.9-1
	c0.5-0.3,0.9-0.7,1.3-1.2c0.2-0.4,0.6-0.7,1-1c0.2-0.1,0.4-0.1,0.6,0.1c0.4,0.4,0.7,0.8,1.1,1.3c0.4,0.6,0.9,1,1.6,1.3
	c0.3,0.2,0.4,0.5,0.3,0.8c-0.2,0.3-0.3,0.3-0.6,0.1c-0.1-0.1-0.2-0.2-0.2-0.2C320.3,369.7,319.7,369.1,319.2,368.6z"/>
<path class="st0" d="M324.1,375.4c-0.2,0-0.4-0.3-0.4-0.5l0.2-3.3c0-0.2,0.2-0.3,0.3-0.3l1.3,0.1c0.1,0,0.2,0.1,0.2,0.2c0,0,0,0,0,0
	c-0.1,1-0.2,1.9-0.3,2.7C325.3,375.2,324.8,375.6,324.1,375.4z"/>
<path class="st0" d="M318.9,378.5c-0.4-0.7-0.7-0.7-1,0l-0.9,2.5c0,0.1-0.1,0.1-0.2,0.1l-1.6,0.1c-0.4,0-0.5-0.1-0.3-0.4l2.4-4.1
	c0.2-0.3,0.2-0.6,0-0.9c-0.8-1.1-1.5-2.3-2.1-3.5c-0.2-0.4-0.1-0.6,0.2-0.5c0.2,0,0.3,0,0.4,0c0.3,0,0.7,0,1.2,0.1
	c0.1,0,0.3,0.1,0.3,0.3c0.3,0.9,0.6,1.8,1.1,2.6c0.2,0.3,0.4,0.3,0.5,0l1.1-2.5c0.1-0.1,0.2-0.2,0.3-0.2l1.6,0
	c0.1,0,0.1,0.1,0.1,0.1c0,0,0,0,0,0c0,0.3-0.1,0.5-0.3,0.7c-0.2,0.3-0.4,0.5-0.4,0.6c-0.3,0.6-0.5,1-0.7,1.2
	c-0.7,0.9-0.9,1.8-0.5,2.7c0.2,0.4,0.8,1.5,1.8,3.1c0.1,0.1,0.1,0.2,0.2,0.3c0.4,0.3,0.3,0.4-0.1,0.4c-0.1,0-0.2,0-0.3,0
	c-0.4,0.1-0.8,0.1-1.2,0c-0.1,0-0.2-0.1-0.2-0.2L318.9,378.5z"/>
<path class="st0" d="M328.7,382.2l-1.7,0c-0.2,0-0.4,0.2-0.5,0.4c-0.2,0.6-0.4,1-0.7,1.3c-0.1,0.1-0.1,0.1-0.2,0.1
	c-0.6,0.1-0.8-0.2-0.6-0.9c0.4-1.1,0.8-2.5,1.2-4.2c0.1-0.4,0.3-0.9,0.6-1.5c0-0.1,0-0.2,0-0.3c0-0.2,0.1-0.3,0.3-0.4
	c0.5-0.1,1-0.1,1.5,0c0.1,0,0.2,0.1,0.2,0.2c0.7,1.9,1.3,3.8,2,5.6c0,0,0.1,0.2,0.2,0.6c0.4,0.9,0,1.2-1.2,0.7
	c-0.1,0-0.2-0.1-0.2-0.2l-0.7-1.3C328.8,382.2,328.7,382.2,328.7,382.2z M327.9,380.9c0.2,0,0.4,0,0.5-0.1c0.1,0,0.1-0.1,0.1-0.2
	c-0.1-0.7-0.2-1.5-0.3-2.2c0-0.1,0-0.1-0.1-0.2c-0.1-0.1-0.1-0.1-0.2-0.1c-0.1,0-0.2,0.1-0.2,0.2c-0.2,0.7-0.4,1.4-0.6,2.1
	c-0.1,0.4,0,0.6,0.4,0.5C327.7,380.8,327.8,380.8,327.9,380.9z"/>
<path class="st0" d="M143.1,379.3l-2.8,3c-0.1,0.1-0.2,0.1-0.2,0.1c-0.6,0-0.7-0.2-0.3-0.5c0.1-0.1,0.2-0.2,0.3-0.3
	c0.9-1.1,1.8-2.2,2.9-3c0.2-0.2,0.5-0.2,0.7,0c1.3,1,2.4,2.2,3.3,3.4c0.2,0.3,0.2,0.4-0.1,0.5c-0.1,0-0.2,0-0.3-0.1
	c-0.4-0.3-0.8-0.6-1.2-1c-0.3-0.2-0.6-0.6-1-1.1c-0.3-0.4-0.6-0.7-1-0.9C143.2,379.2,143.1,379.2,143.1,379.3z"/>
<path class="st0" d="M149.6,387.6c-0.3-0.1-0.4-0.3-0.4-0.6l0.2-3.6c0-0.1,0-0.2,0.1-0.2c0.2-0.2,0.5-0.3,0.7-0.2
	c0.4,0,0.6,0.1,0.7,0.1c0.6,0,0.8,0.3,0.6,0.8c-0.1,0.4-0.2,0.7-0.2,0.8c-0.2,1.3-0.5,2.2-0.8,2.6
	C150.3,387.6,150,387.7,149.6,387.6z"/>
<path class="st0" d="M143.3,390.2c-0.1-0.3-0.2-0.3-0.3,0c-0.4,1.4-1.1,2.6-1.9,3.8c-0.1,0.1-0.1,0.1-0.2,0.1l-1.4-0.1
	c-0.4,0-0.5-0.2-0.2-0.5c0.4-0.6,0.8-1.2,1.2-1.9c0.1-0.2,0.3-0.6,0.5-1.1c0.2-0.5,0.4-0.9,0.6-1.1c0.4-0.4,0.5-0.9,0.2-1.3
	c-0.2-0.3-0.3-0.4-0.3-0.4c-0.6-1.3-1.3-2.6-2-3.9c0-0.1,0-0.1,0-0.2c0,0,0,0,0,0c0.5-0.2,1-0.2,1.5-0.1c0.4,0.1,0.7,0.4,0.9,0.8
	c0.5,0.8,0.9,1.6,1.2,2.4c0.2,0.6,0.4,0.6,0.6,0c0.3-0.8,0.6-1.6,1-2.4c0.3-0.6,0.7-0.8,1.4-0.8c0.1,0,0.3,0,0.5,0
	c0.1,0,0.3,0,0.4,0c0.1,0,0.1,0.1,0.1,0.2c0,0,0,0,0,0c-0.6,1.6-1.3,3.1-2.3,4.5c-0.1,0.1-0.1,0.2-0.1,0.3c0,0.4,0.1,0.8,0.3,1.1
	c0.3,0.4,0.5,0.7,0.5,0.7c0.6,1.1,1.2,2.3,1.8,3.5c0.1,0.1,0,0.3-0.1,0.3c0,0-0.1,0-0.1,0c-0.6,0.1-1.2,0-1.8-0.2
	c-0.1,0-0.2-0.1-0.2-0.2C144.4,392.7,143.8,391.5,143.3,390.2z"/>
<path class="st0" d="M535.5,386.9c-0.1-0.1-0.4-0.2-0.5,0l-3.1,2.7c-0.1,0.1-0.2,0.1-0.2-0.1c-0.1-0.4,0-0.7,0.3-1
	c0.2-0.2,0.3-0.3,0.3-0.3c0.6-0.6,1.2-1.3,1.9-1.8c0,0,0.2-0.2,0.5-0.6c0.3-0.3,0.6-0.3,0.9,0c0.3,0.4,0.5,0.5,0.5,0.6
	c0.6,0.6,1.4,1.3,2.3,2.3c0.2,0.2,0.2,0.4,0.2,0.6c-0.1,0.4-0.3,0.4-0.7,0C537.1,388.4,536.2,387.6,535.5,386.9z"/>
<path class="st0" d="M374.7,388.2c-0.1,0.2-0.2,0.3-0.5,0.5c-0.2,0.2-0.4,0.3-0.5,0.4c-0.5,0.5-1.1,1-1.6,1.5
	c-0.1,0.1-0.2,0.1-0.2,0c0,0,0,0,0,0c-0.1-0.1-0.1-0.3-0.1-0.5c0-0.2,0.1-0.4,0.3-0.6l2.7-2.6c0.1-0.1,0.2-0.1,0.2,0
	c0.3,0.1,0.5,0.3,0.7,0.6c0.6,0.7,1.3,1.3,1.9,1.8c0.3,0.2,0.5,0.4,0.6,0.7c0.2,0.5,0.1,0.7-0.3,0.6c-0.1,0-0.2-0.1-0.2-0.1
	c-0.7-0.8-1.5-1.6-2.6-2.3C375.1,387.9,374.9,388,374.7,388.2C374.8,388.1,374.7,388.1,374.7,388.2z"/>
<path class="st0" d="M150.5,397.2c-0.1,0-0.2-0.2-0.2-0.3c0,0,0,0,0,0c0.9-2.4,1.7-4.9,2.3-7.4c0-0.1,0.1-0.2,0.2-0.2
	c0.6-0.4,1.2-0.4,1.9-0.2c0.1,0,0.2,0.1,0.2,0.2c0.7,2,1.4,3.9,2,5.9c0,0,0.1,0.3,0.3,0.8c0.1,0.4,0.2,0.7,0.2,1.1
	c0,0.1-0.1,0.2-0.1,0.2c-1.2,0.4-1.9-0.1-2-1.4c0-0.4-0.3-0.6-0.7-0.6l-1.9,0c-0.2,0-0.4,0.2-0.4,0.4L152,397c0,0.1-0.1,0.2-0.2,0.2
	C151.4,397.3,150.9,397.3,150.5,397.2z M153.7,390.6c-0.1,0-0.2,0.1-0.2,0.2c-0.1,0.8-0.3,1.6-0.6,2.4c-0.1,0.2,0,0.4,0.2,0.4
	c0.4,0.2,0.8,0.2,1.3,0.1c0.2,0,0.3-0.2,0.3-0.4c0,0,0,0,0,0c-0.3-0.9-0.5-1.9-0.9-2.8C153.8,390.4,153.8,390.4,153.7,390.6
	C153.8,390.5,153.7,390.6,153.7,390.6z"/>
<path class="st0" d="M541,390.5c0-0.2,0.2-0.3,0.3-0.3h1.5c0.1,0,0.1,0.1,0.1,0.1c0,0,0,0,0,0c-0.1,1.3-0.4,2.5-0.8,3.6
	c-0.1,0.3-0.2,0.5-0.4,0.6c-0.2,0.2-0.5,0.1-0.7-0.1c-0.1-0.1-0.1-0.1-0.1-0.2C540.8,393,540.8,391.8,541,390.5z"/>
<path class="st0" d="M535.1,397.3c-0.3,0-0.4,0.2-0.5,0.5c-0.3,1-0.8,1.8-1.3,2.7c-0.1,0.1-0.1,0.1-0.2,0.2c-0.5,0.1-1.1,0.1-1.6,0
	c-0.1,0-0.1-0.1-0.1-0.1c0,0,0,0,0,0l2.4-4.7c0.1-0.1,0.1-0.3,0-0.4l-2.1-4.3c0-0.1,0-0.2,0.1-0.2c0.6-0.3,1.2-0.3,1.8,0
	c0.1,0,0.1,0.1,0.2,0.2l1.4,2.7c0.1,0.2,0.3,0.2,0.4,0c0.2-0.5,0.4-0.9,0.6-1.4c0.3-0.8,0.6-1.2,0.6-1.2c0.3-0.3,0.8-0.4,1.5-0.4
	c0.6,0,0.7,0.2,0.3,0.6c-0.1,0.1-0.2,0.3-0.3,0.8c-0.4,1-0.9,2-1.5,2.9c-0.3,0.4-0.3,0.8,0,1.2c0.3,0.3,0.4,0.5,0.4,0.5
	c0.7,1.2,1.3,2.4,1.9,3.7c0,0.1,0,0.2-0.1,0.2c0,0,0,0-0.1,0c-0.5,0-0.9,0-1.2-0.1c-0.4-0.1-0.7-0.3-0.9-0.6c-0.6-0.8-1-1.7-1.3-2.6
	C535.3,397.4,535.2,397.3,535.1,397.3z"/>
<path class="st0" d="M382.1,391.2c0.1,0,0.1,0.1,0.1,0.2c-0.1,1.1-0.4,2.2-0.8,3.2c-0.1,0.3-0.2,0.4-0.4,0.5c-0.2,0.1-0.3,0.1-0.5,0
	c-0.1,0-0.1-0.1-0.1-0.2c-0.1-1.2,0-2.3,0.2-3.5c0-0.1,0.1-0.2,0.2-0.2C381.2,391.1,381.7,391.1,382.1,391.2z"/>
<path class="st0" d="M375.1,397.7c-0.2-0.4-0.3-0.4-0.4,0c-0.3,1.1-0.7,2.1-1.4,3c-0.1,0.1-0.1,0.1-0.2,0.2c-0.5,0.2-1,0.2-1.5,0
	c-0.1,0-0.1-0.1-0.1-0.2c0,0,0,0,0,0c0.6-1.4,1.3-2.8,2.2-4.2c0.2-0.3,0.2-0.6,0-0.9c-0.7-1-1.3-2.2-1.9-3.6c-0.1-0.2,0-0.3,0.2-0.4
	c0,0,0,0,0.1,0c0.6-0.1,1.1-0.1,1.5,0.1c0.1,0,0.2,0.1,0.2,0.2l1,2.1c0.3,0.6,0.6,0.6,0.8,0c0.3-0.7,0.6-1.3,0.8-1.8
	c0.2-0.4,0.6-0.6,1-0.6c0.1,0,0.3,0,0.6,0c0.4,0,0.5,0.3,0.3,0.8c-0.5,1.1-1,2.1-1.7,3c-0.4,0.5-0.4,1.1,0,1.6
	c0.8,1.2,1.5,2.4,2,3.7c0,0.1,0,0.2-0.1,0.2c-0.4,0.2-0.8,0.2-1.2,0.1c-0.3-0.1-0.6-0.3-0.9-0.7
	C375.9,399.5,375.4,398.6,375.1,397.7z"/>
<path class="st0" d="M542,403.5c-0.1,0-0.2-0.1-0.2-0.3c0,0,0-0.1,0-0.1l2.3-7.2c0-0.1,0.1-0.2,0.2-0.2l1.6-0.1
	c0.1,0,0.2,0.1,0.2,0.2l2.4,7.4c0,0.1,0,0.2-0.1,0.3c0,0,0,0-0.1,0l-1.2,0c-0.1,0-0.1-0.1-0.2-0.2l-0.5-1.5c0-0.1-0.1-0.1-0.2-0.2
	c-0.7-0.2-1.4-0.2-2.1,0c-0.1,0-0.2,0.1-0.2,0.2l-0.5,1.5c0,0.1-0.1,0.2-0.2,0.2L542,403.5z M544.5,400.2c0.5,0.2,1,0.2,1.5-0.1
	c0.1,0,0.1-0.1,0.1-0.2c-0.3-0.8-0.5-1.6-0.8-2.5c0-0.1-0.1-0.2-0.1-0.2c-0.1-0.1-0.2-0.1-0.3,0.1c-0.2,0.8-0.4,1.6-0.6,2.6
	C544.3,400.1,544.4,400.2,544.5,400.2z"/>
<path class="st0" d="M382.7,403.6c-0.3,0-0.5-0.2-0.5-0.5l0.1-6.6c0-0.1,0.1-0.2,0.2-0.2c0.9,0,1.7,0,2.5,0c0.8,0,1.4,0.2,1.8,0.5
	c0.6,0.5,0.7,1.2,0.3,2.2c-0.1,0.3-0.2,0.5-0.2,0.6c0,0.2,0.1,0.4,0.4,0.6c0.2,0.1,0.3,0.2,0.3,0.4c0.1,0.4,0.1,0.8,0.1,1.2
	c0,0.4-0.2,0.7-0.5,1c-0.6,0.5-1.1,0.8-1.7,0.8C384.5,403.7,383.5,403.7,382.7,403.6z M385.9,397.9c0-0.3-0.2-0.5-0.5-0.5l0,0h-1.1
	c-0.3,0-0.5,0.2-0.5,0.5v0.9c0,0.3,0.2,0.5,0.5,0.5h1.1c0.3,0,0.5-0.2,0.5-0.5l0,0V397.9z M385.5,400.4c-0.3-0.1-0.5-0.1-0.8-0.1
	c0,0-0.2,0-0.4,0c-0.4,0-0.5,0.2-0.5,0.6c0,0.4,0,0.8,0,1.2c0,0.4,0.1,0.6,0.5,0.6c0.2,0,0.3,0,0.4,0c0.9,0.1,1.5-0.3,1.8-1.3
	C386.5,400.9,386.2,400.5,385.5,400.4z"/>
<path class="st0" d="M111.8,404.1c0.4,0.4,0.7,0.7,1.1,1.1c0.1,0.1,0.1,0.2,0.1,0.3c0.1,0.8-0.1,0.9-0.6,0.3
	c-0.8-0.9-1.8-1.8-2.9-2.8c-0.1-0.1-0.2-0.1-0.2,0l-3.3,3c0,0-0.1,0-0.2,0c0,0,0,0,0,0c-0.2-0.3-0.2-0.6,0.1-0.8
	c1.1-1.1,2.3-2.2,3.3-3.3c0.1-0.1,0.3-0.1,0.4,0c0.4,0.4,0.8,0.8,1.1,1.1C111.1,403.4,111.5,403.7,111.8,404.1z"/>
<path class="st0" d="M116.4,411.3c-1,0.1-1.4-0.2-1.3-0.9c0.2-1.1,0.3-2.2,0.3-3.3c0-0.1,0-0.2,0.1-0.2c0.2-0.1,0.4-0.2,0.7-0.2
	c0.4,0,0.6,0,0.7,0c0.6,0,0.8,0.3,0.7,0.9c-0.1,0.3-0.1,0.5-0.1,0.5c-0.2,1-0.4,2-0.7,3C116.7,411.2,116.6,411.3,116.4,411.3z"/>
<path class="st0" d="M109.2,414.2c-0.7,1.1-1.2,2.1-1.7,3.2c-0.1,0.3-0.4,0.4-0.6,0.4h-1.5c-0.1,0-0.2-0.1-0.2-0.2c0,0,0-0.1,0-0.1
	l2.4-4.9c0.1-0.2,0.1-0.5,0-0.8l-2.2-4.5c-0.1-0.1,0-0.3,0.1-0.4c0,0,0,0,0.1,0c0.2,0,0.4-0.1,0.7,0c0,0,0.2,0,0.6,0
	c0.4,0,0.7,0.2,0.9,0.6c0.6,1,1.1,1.9,1.6,2.9c0.1,0.1,0.2,0.1,0.2,0l1.7-3.3c0-0.1,0.1-0.1,0.2-0.1l1.4,0c0.2,0,0.3,0.1,0.3,0.3
	c0,0.1,0,0.1,0,0.1l-2.4,4.8c-0.1,0.1-0.1,0.2,0,0.3l2.6,4.9c0.1,0.1,0,0.2-0.1,0.3c0,0-0.1,0-0.1,0l-1.1,0.1c-0.5,0-0.8-0.1-1-0.5
	l-1.6-3.3C109.3,414.1,109.3,414.1,109.2,414.2z"/>
<path class="st0" d="M122.5,416.7l0.5,0.2c0.1,0,0.1,0.1,0.2,0.2c0.2,0.5,0.3,1.1,0.2,1.9c-0.1,0.9-0.6,1.5-1.4,1.6
	c-1.3,0.2-2.7,0.3-4.3,0.2c-0.1,0-0.2-0.1-0.2-0.2c-0.1-2.3-0.1-4.6-0.1-7c0,0,0-0.2,0-0.5c0-0.4,0.1-0.6,0.5-0.6c0.4,0,0.6,0,0.6,0
	c1.2-0.1,2.3,0,3.3,0.3c0.3,0.1,0.6,0.3,0.9,0.5c0.2,0.2,0.4,0.6,0.4,0.9c0.1,0.8-0.1,1.5-0.8,2.1c-0.1,0.1-0.1,0.2,0,0.3
	C122.4,416.7,122.5,416.7,122.5,416.7z M119.3,415.8c0.6,0.3,1.2,0.2,1.7-0.3c0.6-0.4,0.6-0.9,0.1-1.3c-0.3-0.3-0.7-0.4-1.1-0.4
	c-0.9,0-1.2,0.5-0.9,1.6C119.1,415.6,119.2,415.7,119.3,415.8z M119.2,419.5c0.5,0.1,1.1,0,1.8-0.1c0.2,0,0.3-0.1,0.4-0.2
	c0.4-0.4,0.6-0.8,0.4-1.2c-0.1-0.3-0.4-0.5-0.8-0.6c-0.5-0.2-1.1-0.3-1.6-0.2c-0.1,0-0.2,0.1-0.2,0.1c-0.2,0.7-0.3,1.4-0.2,2.1
	C119,419.5,119.1,419.5,119.2,419.5z"/>
<path class="st0" d="M652.7,423.1c0.5-0.6,1-1.1,1.6-1.6c0.2-0.1,0.4-0.1,0.6,0.1c0,0,0,0,0,0c0.7,0.9,1.5,1.7,2.4,2.3
	c0.5,0.4,0.7,0.8,0.8,1.4c0,0.4-0.1,0.5-0.4,0.2c-0.9-0.8-1.7-1.7-2.5-2.5c-0.4-0.5-0.9-0.5-1.4,0c-0.8,0.8-1.6,1.6-2.3,2.5
	c-0.1,0.1-0.2,0.1-0.2,0.1c-0.3-0.1-0.3-0.3-0.1-0.7c0.2-0.3,0.4-0.6,0.8-0.9C652.2,423.5,652.5,423.3,652.7,423.1z"/>
<path class="st0" d="M660.3,430.3c-0.1,0-0.2-0.1-0.2-0.2l0.2-3.8c0-0.1,0.1-0.2,0.1-0.2l1.3-0.2c0.2,0,0.4,0.1,0.4,0.3
	c0,0,0,0.1,0,0.1c-0.2,1.3-0.5,2.6-0.9,3.7c0,0.1-0.1,0.2-0.2,0.2C660.9,430.3,660.6,430.4,660.3,430.3z"/>
<path class="st0" d="M654.7,433.2c-0.2-0.5-0.4-0.5-0.6,0c-0.4,1.1-0.9,2.2-1.5,3.2c-0.1,0.1-0.1,0.1-0.2,0.1l-1.4,0
	c-0.5,0-0.6-0.2-0.3-0.6c0.8-1.2,1.5-2.5,2.1-3.9c0.2-0.4,0.2-0.8,0.1-1.2c-0.2-0.7-0.4-1.3-0.9-1.9c-0.5-0.7-0.9-1.4-1.3-2.2
	c-0.1-0.1,0-0.3,0.1-0.4c0,0,0,0,0,0c1.1-0.4,1.8-0.2,2.2,0.8c0.4,0.8,0.8,1.6,1.2,2.4c0.2,0.4,0.4,0.4,0.6,0l1.1-2.8
	c0-0.1,0.1-0.2,0.2-0.2l1.8-0.1c0.3,0,0.3,0.1,0.2,0.3l-2.4,4.4c-0.1,0.2-0.1,0.4,0,0.5c0.5,0.8,0.9,1.6,1.4,2.4
	c0,0,0.2,0.4,0.7,1.1c0.2,0.4,0.4,0.8,0.5,1.2c0,0.1,0,0.2-0.1,0.2c-0.6,0.1-1.1,0.1-1.7,0c-0.3-0.1-0.5-0.2-0.6-0.5L654.7,433.2z"
	/>
<path class="st0" d="M667.1,435.5c0.4,0.3,0.7,0.7,0.8,1.2c0.1,0.4,0.1,0.9-0.2,1.3c-0.5,1.1-1.5,1.6-2.9,1.5c-0.8,0-1.7,0-2.5,0
	c-0.1,0-0.2-0.1-0.2-0.2c0,0,0,0,0,0l-0.1-7.4c0-0.2,0.2-0.4,0.4-0.4c0,0,0,0,0,0c0.8,0,1.7,0,2.6,0.1c0.8,0,1.4,0.2,1.8,0.5
	c0.6,0.5,0.8,1.2,0.6,2.1c0,0.1-0.1,0.2-0.1,0.2c-0.2,0.2-0.4,0.5-0.4,0.8C666.9,435.3,667,435.4,667.1,435.5z M664.1,434.9
	c0.3,0.1,0.6,0.1,1,0c0.3-0.1,0.6-0.2,0.8-0.5c0.4-0.6,0.3-1.1-0.3-1.5c-0.2-0.1-0.4-0.1-0.7-0.1c-0.3,0-0.5,0-0.7-0.1
	c-0.2,0-0.3,0.1-0.4,0.2c0,0,0,0,0,0l-0.1,1.3C663.7,434.6,663.9,434.8,664.1,434.9z M666.1,436.3c-0.8-0.3-1.4-0.3-2-0.3
	c-0.1,0-0.2,0.1-0.2,0.2c-0.1,0.6-0.1,1.2,0,1.7c0,0.1,0.1,0.2,0.2,0.2c0.8,0.2,1.5,0.1,2-0.2c0.6-0.4,0.8-0.8,0.4-1.4
	C666.3,436.4,666.2,436.3,666.1,436.3z"/>
</svg>
