<?xml version="1.0" encoding="utf-8"?>
<!-- Generator: Adobe Illustrator 24.0.1, SVG Export Plug-In . SVG Version: 6.00 Build 0)  -->
<svg version="1.1" id="图层_1" xmlns="http://www.w3.org/2000/svg" xmlns:xlink="http://www.w3.org/1999/xlink" x="0px" y="0px"
	 viewBox="0 0 790 389" style="enable-background:new 0 0 790 389;" xml:space="preserve">
<style type="text/css">
	.st0{fill:#FFFFFF;}
	.st1{fill:none;stroke:#FFFFFF;stroke-width:0.75;stroke-miterlimit:10;}
</style>
<path class="st0" d="M360.2,25.6c0.6,0.5,1.1,1.1,1.4,1.8c0.1,0.4,0.1,0.5-0.3,0.4c-0.1,0-0.3-0.1-0.3-0.1c-1.1-0.8-2.1-1.8-3.1-2.8
	c-0.4-0.4-0.6-0.4-1,0c-1,1-2.1,2-3.4,3c-0.3,0.1-0.3,0.1-0.3-0.1c0.1-0.5,0.3-0.9,0.6-1.3c0.9-1,1.9-2,3.1-3c0.1-0.1,0.4-0.1,0.6,0
	c0.5,0.4,0.9,0.8,1.3,1.1C359.6,24.8,360,25.2,360.2,25.6z"/>
<path class="st0" d="M364.5,28.6c0.6-0.4,1.1-0.4,1.8-0.1c0.1,0,0.1,0.1,0.1,0.3c-0.3,2-0.5,3.5-1,4.4c-0.3,0.5-0.6,0.6-1.3,0.4
	c-0.1,0-0.1-0.1-0.1-0.3l0.3-4.4C364.2,28.8,364.3,28.7,364.5,28.6z"/>
<path class="st0" d="M358.2,30.8h-3.8c-0.4,0-0.6-0.3-0.8-0.5c-0.1-0.5-0.1-0.8,0-1c0.1-0.1,0.4-0.3,0.8-0.3c2.1-0.1,4.4-0.1,6.8,0
	c0.3,0,0.5,0.3,0.5,0.5v0.1c-0.4,1.1-0.9,2.3-1.6,3.3c-1.1,1.6-1.8,2.5-1.8,2.5c-0.6,1.1-1.4,2.1-2,3.3c-0.1,0.1,0,0.3,0.1,0.3h4.9
	c0.1,0,0.3,0.1,0.3,0.1l0,0v1.5c0,0.3-0.3,0.4-0.4,0.4h-7.3c-0.5,0-0.8-0.3-0.6-0.8c0.3-1.1,0.8-2.1,1.4-3s0.9-1.3,0.9-1.3
	c0.5-0.8,1-1.5,1.5-2.3c0.6-1,1.1-1.8,1.3-2.5C358.3,31,358.3,30.8,358.2,30.8L358.2,30.8z"/>
<path class="st0" d="M631.8,31.2c-0.3-0.4-0.6-0.5-0.9-0.1c-0.5,0.4-0.9,0.9-1.4,1.3c0,0-0.3,0.4-0.9,1c-0.4,0.5-0.9,0.9-1.5,1.3
	c-0.1,0.1-0.3,0.1-0.4,0c-0.1,0-0.1-0.1-0.1-0.3c0-0.1,0-0.1,0.1-0.3c1.3-1.6,2.5-3,4-4.3c0.3-0.3,0.6-0.3,0.9,0l3.9,4.1
	c0.3,0.3,0.1,0.4-0.1,0.4c-0.4,0-0.8-0.1-1-0.3C633.5,33.2,632.6,32.2,631.8,31.2z"/>
<path class="st0" d="M366.6,40c0.5-1.5,1-3.1,1.6-4.6c0-0.1,0.1-0.3,0.3-0.3c0.6-0.3,1.3-0.1,1.8,0.1c0.1,0,0.1,0.1,0.3,0.3
	c0.8,2.4,1.5,4.8,2.3,7.2c0,0,0.1,0.3,0.3,0.8c0.3,0.8-0.1,1-1.3,0.8c-0.4-0.1-0.6-0.4-0.8-0.8c0-0.5-0.1-1-0.5-1.4
	c-0.1-0.1-0.1-0.1-0.3-0.1h-2c-0.1,0-0.3,0-0.4,0.1c-0.4,0.4-0.6,0.9-0.8,1.6c-0.1,0.5-0.4,0.8-0.9,0.6c0,0-0.3,0-0.6,0
	c-0.4,0-0.5-0.3-0.4-0.8c0.3-1,0.5-1.8,0.6-2.3C366.5,40.5,366.6,40,366.6,40z M369.2,37.3c-0.4,0.9-0.6,1.9-0.9,2.9
	c0,0.1,0,0.3,0.1,0.3c0.5,0.3,1,0.3,1.5,0c0.1,0,0.1-0.1,0.1-0.3l-0.5-3C369.5,36.9,369.4,36.9,369.2,37.3z"/>
<path class="st0" d="M638.3,35.5c0-0.1,0.1-0.4,0.4-0.4h1.3c0.5,0,0.8,0.3,0.6,0.6l-1.1,4.6c0,0.1-0.1,0.3-0.3,0.3
	c-0.4,0.1-0.9,0-1.3-0.1c-0.1,0-0.1-0.1-0.1-0.3L638.3,35.5z"/>
<path class="st0" d="M632.1,38.5c0.3-0.4,0.1-0.6-0.4-0.6c-1.3,0-2.3,0-3.4,0c-0.9,0-1.3-0.4-1.3-1.3c0-0.5,0.3-0.8,0.8-0.8
	c2.1-0.1,4.3-0.1,6.5,0c0.5,0,0.8,0,0.8,0c0.4,0.1,0.5,0.4,0.5,0.8s-0.1,0.6-0.3,0.9l-5.7,8.7c-0.1,0.3-0.1,0.4,0.1,0.4l5.4-0.1
	c0.1,0,0.3,0.1,0.3,0.1c0.1,0.5,0.1,1.1,0,1.6c0,0.1-0.1,0.1-0.3,0.1c-2.6,0.1-5.5,0.1-8.4-0.1c-0.5,0-0.6-0.3-0.5-0.8
	c0.4-0.9,0.8-1.8,1.3-2.4C629.3,42.8,630.7,40.6,632.1,38.5z"/>
<path class="st0" d="M645.1,49.7c-0.9-0.3-1.8-0.3-2.8,0.1c-0.1,0-0.1,0.1-0.3,0.3l-0.6,2c0,0.1-0.1,0.3-0.3,0.3
	c-0.5,0.1-1,0.1-1.5-0.1c-0.3-0.1-0.3-0.3-0.3-0.5l0,0l3.1-9.2c0.1-0.3,0.3-0.4,0.5-0.4h1.5c0.1,0,0.4,0.1,0.4,0.3
	c0.5,1.3,0.9,2.6,1.3,3.9c0.5,1.9,1,3.6,1.8,5.4c0,0.1,0,0.3-0.1,0.3c-0.6,0.5-1.3,0.5-1.8,0c-0.1,0-0.1-0.1-0.1-0.3l-0.6-1.8
	C645.4,49.8,645.3,49.7,645.1,49.7z M643.5,44.7l-0.8,2.9c0,0.1,0.1,0.4,0.3,0.4l0,0c0.8,0.1,1.3,0.1,1.6-0.1c0.1,0,0.1-0.1,0.1-0.3
	l-0.8-2.9C643.9,44,643.6,44,643.5,44.7z"/>
<path class="st0" d="M276.7,57.2c-0.5-0.1-0.8,0-1.1,0.5c0,0.1-0.1,0.3-0.3,0.3c-0.9,0.6-1.8,1.4-2.5,2.4c-0.3,0.4-0.5,0.3-0.6,0
	s0.1-0.8,0.8-1.3c1-1,1.9-1.9,2.9-2.9c0.5-0.5,1-0.5,1.5,0.3c0.6,1.1,1.3,1.8,1.9,2.1s1.1,0.9,1.6,1.6c0.1,0.1,0,0.3-0.1,0.3
	c-0.6,0-1.1-0.4-1.6-0.8c-0.4-0.4-0.5-0.6-0.5-0.6c-0.4-0.4-0.8-0.8-1-1.1C277.2,57.5,276.9,57.2,276.7,57.2z"/>
<path class="st0" d="M72.6,253.4c0.4-0.5,0.6-0.9,0.9-1.1c3-3.5,6-7,8.9-10.5c0.3-0.3,0.1-0.6-0.1-0.8l0,0c-1.3-0.9-2.4-1.6-3.6-2.4
	c-1.4-0.9-2.6-1.5-3.9-1.9c-1.9-0.6-3.8-1.1-5.8-1.5c-2-0.4-4-0.4-5.9-0.1c-3.4,0.5-6.7,1.6-9.7,3.4c-0.1,0.1-0.1,0.3-0.1,0.4
	c0,0,0,0,0,0.1c0.9,0.8,1.8,1.4,2.8,1.9c0.5,0.3,0.5,0.5,0,0.8c-2.6,1.4-5.5,2.5-8.5,3.4c-0.1,0-0.1,0-0.3-0.1c0,0,0,0,0-0.1
	l1.5-8.8c0-0.1,0.1-0.3,0.3-0.3h0.1l2.9,2c0.1,0,0.3,0.1,0.4,0c1.1-0.6,2.4-1.1,3.5-1.8c1.4-0.6,2.5-1.1,3.6-1.4
	c2.8-0.8,5.4-1,7.9-0.8c3.9,0.4,7.7,1.6,11.4,3.6c0.5,0.3,1.3,0.8,1.9,1.4s1.3,1,1.9,1.4c0.5,0.4,1,0.3,1.4-0.3c1-1.5,2-2.9,3.1-4
	c4.4-5.1,8.8-10.4,13.4-15.8c0.3-0.4,0.3-0.8,0-1.1c-1-1.3-1.4-2.8-0.9-4.5c0.1-0.8,0.5-1.3,0.9-1.8c0.4-0.4,0.9-0.9,1.5-1.3
	c0.4-0.3,0.4-0.5,0-0.8c-0.1-0.1-0.3-0.1-0.3-0.3c-1.1-1.9-1.9-3.3-2.3-4c-0.6-1.8-1.3-3-1.9-4c-0.6-1.1-1.3-2.3-1.8-3.3
	c-0.8-1.8-1.4-2.8-1.6-3.3c-1.1-2.1-1.9-3.6-2.3-4.4c-0.5-1.3-1.3-2.6-2-4c-0.5-0.8-0.9-1.6-1.3-2.5c-0.5-1.3-1-2.1-1.3-2.6
	c-6.2-12.1-12.3-24.1-18.2-36.3c-0.1-0.4-0.6-1.1-1.4-2.4c-0.5-0.8-0.9-1.6-1.3-2.5c-0.4-1-0.9-2-1.5-3c-0.6-1.3-1.3-2.3-1.5-3
	c-0.6-1.3-1.1-2.5-1.9-3.6c-1-1.8-1.6-3-1.9-3.6c-1.6-3.3-3.3-6.5-4.8-9.8c0,0-0.5-1-1.6-3c-0.6-1.1-1.1-2.3-1.6-3.5
	c-0.1-0.5-0.5-1.1-1-1.9c-0.4-0.6-0.8-1.3-1-1.9c-0.6-1.3-1.1-2.5-1.9-3.8c-0.9-1.6-1.5-2.9-1.9-3.8c-0.6-1.4-1.4-2.9-2.1-4.3
	c-0.5-1-1.4-2.8-2.8-5.5c-0.9-1.9-1.9-3.6-2.9-5.4c-0.1-0.1-0.3-0.3-0.4-0.1c-1.3,0.5-2.4,1-3.3,1.5c-0.4,0.3-0.5,0.1-0.5-0.3
	l0.5-9.2c0-0.1,0.1-0.1,0.1-0.1l0,0c1.3,0.6,2.4,1.3,3.4,2c1.5,1,3,2,4.6,3c0.1,0,0.1,0.1,0,0.3l0,0c-1.1,0.9-2.3,1.5-3.3,1.9
	c-0.1,0-0.3,0.3-0.1,0.4c0.4,1,0.9,2,1.4,3c0.4,0.8,0.8,1.4,1,1.9c0.1,0.4,0.4,0.9,0.6,1.3c0.1,0.4,0.4,0.9,0.6,1.3
	c0.9,1.4,1.6,2.9,2.3,4.4c0.6,1.3,1.3,2.5,1.9,3.8c0.8,1.3,1.4,2.6,1.9,3.8c0.5,1.3,1,2.3,1.6,3.1c0.5,0.6,1,1.9,1.9,3.8
	c0.4,0.9,0.8,1.8,1.3,2.6c0.8,1.3,1.1,2.1,1.4,2.5c0.4,0.8,0.8,1.6,1.1,2.4c0.4,0.8,0.8,1.5,1.3,2.4c0.6,1.1,1.3,2.4,1.9,3.6
	s1.1,2.4,1.9,3.6c0.6,1.1,1.3,2.3,1.8,3.5c0.6,1.3,1.1,2.4,1.8,3.5c0.8,1.4,1.4,2.8,2.1,4.1c0.5,1.1,1.1,2.3,1.8,3.5
	c0.6,1.1,1.3,2.4,1.8,3.5c0.5,1,1,2.1,1.6,3.1s1.1,2.1,1.6,3.1c0.6,1.3,1.3,2.5,1.9,3.9c0.5,0.9,0.9,1.8,1.3,2.6
	c0.6,1.3,1,2.1,1.3,2.6c3.3,6.4,6.4,12.7,9.7,19c0.4,0.9,0.8,1.5,1,2.1c0.4,0.9,0.8,1.6,1,2.1c0.9,1.4,1.6,2.9,2.3,4.3
	c0.5,1.3,1.1,2.4,1.8,3.5s1.3,2.3,1.8,3.5c0.6,1.5,1.4,2.9,2.1,4.3c0.8,1.4,1.5,2.9,2.1,4.4c0.1,0.4,0.4,0.9,0.6,1.3
	c0.3,0.4,0.5,0.9,0.8,1.3c0.3,0.5,0.5,1,0.9,1.5c0.3,0.5,0.5,1,0.8,1.6c0.1,0.3,0.3,0.5,0.4,0.6c0.5,0.4,0.8,0.1,0.8-0.8
	c0-48.1,0-96.3,0-144.7c0-0.3-0.3-0.5-0.5-0.5h-3.5c-0.5,0-0.6-0.3-0.4-0.6l4.5-7.8c0.1-0.1,0.3-0.1,0.4-0.1c0,0,0.1,0,0.1,0.1
	c0.4,0.6,0.8,1.1,1,1.8c1,1.9,2.1,3.9,3.5,6c0.3,0.4,0.1,0.5-0.3,0.5h-3.4c-0.4,0-0.6,0.3-0.6,0.6c0,46.1,0,92.2,0.1,138.1
	c0,2.1,0,4.4-0.1,6.8c0,0.3,0.1,0.5,0.4,0.5c1,0.4,1.9,0.9,2.6,1.5c0,0,0.3,0.3,0.6,0.8c0.4,0.4,0.9,0.4,1.5,0
	c0.3-0.1,0.4-0.3,0.6-0.3c2.5-0.6,4.8-1.4,6.8-2.3c1.6-0.6,3.3-1.3,4.9-1.8c1.8-0.5,3.3-1,4.6-1.5c2.1-0.8,4.9-1.8,8.4-2.9
	c0.8-0.3,3-1.1,6.7-2.5c0.4-0.1,1-0.4,1.8-0.5c0.6-0.1,1.3-0.4,1.8-0.5c2.3-0.9,4.6-1.8,6.9-2.5c1.8-0.6,3.6-1.3,5.4-1.9
	c1.8-0.6,3.6-1.3,5.5-1.9c1.8-0.5,3.5-1.1,5.4-1.9s3.8-1.4,5.8-1.9c1.5-0.4,2.9-1,4.4-1.5c1.8-0.8,3.4-1.3,5.3-1.8
	c1-0.3,2.9-0.9,5.7-1.9c1.6-0.6,3.5-1.3,5.7-1.9c2.6-0.9,5.3-1.8,7.9-2.8c0.5-0.3,1.3-0.4,2.3-0.8c0.8-0.3,1.5-0.5,2.3-0.8
	c1.8-0.8,3.8-1.4,6-2.1c2-0.6,4-1.4,6-2.1c1.6-0.6,3.3-1.1,4.9-1.6c1.5-0.5,3.1-1,4.8-1.6c2-0.8,4-1.5,6.2-2.1
	c1.3-0.4,2.9-1,4.6-1.6c1.6-0.6,3.4-1.3,5-1.6c0.3,0,0.3-0.3,0.3-0.4l0,0l-1.1-3.4c0-0.1,0-0.4,0.1-0.4h0.1c2.1,0.5,4.4,0.8,6.7,1.1
	c0.4,0,1.1,0.3,2.1,0.5c0.1,0,0.1,0.1,0.1,0.1l0,0c-0.4,0.6-1,1.5-1.9,2.6c-1.4,1.5-2.6,3-4,4.6c-0.1,0.1-0.3,0.1-0.4,0
	c0,0,0,0-0.1-0.1l-1.3-3.4c-0.1-0.3-0.5-0.5-0.8-0.4l0,0c-2.8,1-5.4,2-8.2,2.9c-1.9,0.6-3.9,1.3-5.8,2c-1,0.4-1.9,0.8-2.9,1
	c-1.3,0.4-2.3,0.6-2.9,1c-2.4,0.9-4.8,1.8-7.2,2.5c-1.8,0.5-3.8,1.3-6.3,2.1c-1.9,0.6-4,1.4-6.3,2c-0.9,0.3-1.8,0.6-2.8,1
	c-1,0.4-2,0.8-2.8,1c-3.4,1-5.8,1.9-7.4,2.5c-1.6,0.6-3,1.1-4.3,1.5c-2.4,0.8-3.8,1.3-4.3,1.4c-4,1.5-6.5,2.4-7.4,2.6
	c-1.8,0.5-3.5,1.1-5.3,1.8c-1.6,0.6-3.3,1.1-4.9,1.6c-2.1,0.6-4.1,1.4-6.3,2.3c-0.6,0.3-1.5,0.5-2.8,1c-1,0.4-2,0.6-2.9,0.9
	c-3.4,1.3-6.8,2.4-10.2,3.5c-0.8,0.3-1.6,0.6-2.9,1c-1,0.4-1.9,0.8-2.9,1c-1.4,0.5-2.9,0.9-4.3,1.4c-0.4,0.1-1.8,0.6-4.1,1.5
	c-1.5,0.6-3,1-4.6,1.5c-0.8,0.3-3.1,1-6.9,2.5c-1.4,0.5-3.3,1-5.5,1.5c-0.1,0-0.3,0.1-0.3,0.1s-0.1,0.1,0,0.3c0,0.1,0.1,0.1,0.3,0.3
	c0.6,0.1,1.4,0.3,2.1,0.3c32.8,0,65.5,0,98.2,0c0.3,0,0.4-0.1,0.4-0.4v-3.6c0-0.1,0.1-0.3,0.3-0.3h0.1c2.6,1.5,5.1,2.9,7.5,4.3
	c0.3,0.1,0.4,0.3,0.4,0.3c0.1,0.3,0.1,0.4-0.3,0.5c-0.1,0-0.3,0.1-0.3,0.1c-0.4,0.4-0.8,0.6-1.3,0.9c-0.6,0.4-1,0.5-1,0.5
	c-1.6,0.9-3.3,1.9-4.9,2.9c-0.4,0.3-0.5,0.1-0.5-0.3v-3.3c0-0.4-0.3-0.6-0.6-0.6H110.1c-0.3,0-0.4,0.1-0.4,0.4l0,0
	c0.1,2.5-1,4.3-3.1,5.3c-1.5,0.6-3,0.6-4.5-0.3h-0.1l0,0c0,0.1,0,0.3-0.1,0.4c0,0.1-0.1,0.3-0.1,0.4c-5.7,6.7-11.3,13.4-17,20.1
	c-0.1,0.1-0.1,0.4,0,0.6c0.8,0.9,1.4,1.8,2.1,2.6c0.9,1,1.5,2,1.9,2.8c1.1,2,1.9,4.1,2.3,6.3c0.8,3.5,0.4,6.8-1.1,9.9
	c-0.5,1-1,1.9-1.4,2.6c-0.5,0.9-1.1,1.6-1.9,2.3c-0.3,0.3-0.6,0.5-1.1,0.5c-0.1,0-0.1,0-0.1-0.1l0,0c0.1-0.6,0.5-1.1,0.9-1.6
	c0.5-0.5,1-1.1,1.5-1.6c0.5-0.6,0.9-1.1,1.1-1.9c0.4-1.1,0.8-2.1,1-3.3c0.6-2.5,0.6-5.1-0.1-7.8c-0.3-1-0.5-1.9-0.9-2.8
	c-0.3-0.9-0.8-1.6-1.3-2.5c-1-1.5-2.1-3.1-3.4-4.5c-0.1-0.1-0.4-0.1-0.5,0l0,0c-0.9,0.9-1.6,1.8-2.4,2.6c-1.5,1.9-2.3,2.8-2.3,2.8
	c-2,2.4-4,4.6-6,7c-7.7,9.2-15.3,18.2-23.1,27.4c-0.4,0.5-0.8,1-1.1,1.5c-0.1,0.3-0.1,0.5,0.1,0.8l2.6,2c0.1,0.1,0.1,0.3,0.1,0.4
	c0,0,0,0-0.1,0.1c-2.6,1.1-5.3,2.1-8,2.9c-0.4,0.1-0.6,0.4-0.8,0.6c-0.4,0.9-1,1.8-1.8,2.4c0,0-0.3,0.1-0.5,0.4
	c-0.5,0.4-0.6,0.8-0.5,1.4c0,0.1,0.1,0.3,0.3,0.3c1,0.6,1.9,1.4,2.5,2.1c0.1,0.1,0.1,0.3,0,0.4c0,0,0,0-0.1,0c-1,0.4-1.9,0.6-2.8,1
	c0,0-0.8,0.3-2.3,0.9c-1.1,0.4-2.3,0.8-3.5,1c-0.1,0-0.1,0-0.1-0.1l0,0l1.3-8.9c0-0.1,0.1-0.3,0.3-0.3h0.1l2.9,2.1
	c0.3,0.3,0.6,0.1,0.8,0c1.3-1.1,2.3-2.4,3-3.5c0.4-0.5,0.6-1.3,0.8-2c0.4-2.4,0.9-4.6,1.3-7c0-0.1,0.1-0.1,0.1-0.1l0,0l3,2.3
	c0.1,0.1,0.3,0.1,0.3,0c0.5-0.3,1-0.8,1.4-1.4c0.3-0.4,0.8-1,1.3-1.6c0.9-0.9,1.3-1.5,1.4-1.6c5.7-6.7,11.2-13.3,16.8-20
	c1.5-1.8,2.5-3,3.3-3.8C72.1,254.1,72.4,253.7,72.6,253.4z"/>
<path class="st0" d="M283,63.1c0-0.4,0.1-0.9,0.1-1.3c0-0.1,0.1-0.3,0.1-0.3c0.5-0.4,1.1-0.5,1.8-0.4c0.1,0,0.1,0.1,0.3,0.3
	c0,1.3,0,2.5-0.4,3.6c0,0,0,0.3-0.1,0.6c0,0.6-0.6,0.8-1.6,0.5c-0.1,0-0.3-0.1-0.3-0.3C282.8,64.9,282.8,64,283,63.1z"/>
<path class="st0" d="M275.3,71.7h5.1c0.1,0,0.3,0.1,0.3,0.1l0.1,1.4c0,0.1-0.1,0.1-0.3,0.1l0,0h-8.2c-0.3,0-0.4-0.1-0.4-0.4v-0.1
	c1-2.3,2.4-4.4,3.9-6.5c0.3-0.4,0.6-0.8,0.9-1.3c0.3-0.4,0.5-0.9,0.9-1.3c0.3-0.4,0.1-0.5-0.3-0.5c-1.1,0.1-2.1,0.1-3,0.1
	c-0.8,0-1,0-1.1,0c-0.4-0.1-0.5-0.6-0.4-1.4c0-0.3,0.3-0.4,0.5-0.4h6.7c1,0,1.3,0.4,0.6,1.3l-5.4,8.4
	C275.1,71.7,275.1,71.7,275.3,71.7z"/>
<path class="st0" d="M366,70.5c0.1,0,0.1,0.1,0.1,0.3c0,0.1-0.1,0.1-0.3,0.1l-3.1-0.1c-0.3,0-0.5,0.1-0.5,0.5
	c-0.1,0.8-0.1,1.4-0.1,2.1c0,38.8,0,77.6,0,116.4c0,0.3,0.1,0.4,0.4,0.5l2.5,1.1c0.4,0.1,0.6,0.1,1.1,0c4.6-2.3,9.3-4.5,13.7-6.7
	c0.5-0.3,0.9-0.4,1.4-0.6s0.9-0.4,1.4-0.6c1.3-0.6,2.4-1.3,3.8-1.9c1.9-0.9,3.1-1.5,3.8-1.8c3.9-1.9,7.8-3.9,11.7-5.7
	c1.1-0.5,2.8-1.4,5-2.5c1.6-0.9,3.4-1.6,5.1-2.5c0.9-0.4,1.8-0.8,2.5-1.3c1-0.5,1.9-1,2.5-1.3c1.8-0.9,4-1.9,6.7-3.3
	c3.1-1.6,11.2-5.4,24-11.6c0.6-0.3,1.8-0.9,3.3-1.6c1.1-0.5,2.1-1.1,3.3-1.6c1.4-0.6,2.6-1.3,3.8-1.9c1.9-1,3.1-1.6,3.8-1.9
	c0.9-0.3,1.5-0.6,2-0.9c0.1,0,0.1-0.1,0.1-0.3l-1.1-3c0-0.1,0-0.3,0.1-0.4h0.1l7.7,0.5c0.3,0,0.4,0.3,0.4,0.5c0,0.1,0,0.1,0,0.3
	c-0.6,1.1-1.3,2-2,2.9c-0.5,0.6-0.9,1.3-1.1,1.8c-0.4,0.6-0.6,1.3-0.9,1.9c0,0.1-0.3,0.1-0.4,0.1c0,0-0.1,0-0.1-0.1
	c-0.6-0.8-1.1-1.8-1.5-2.8c-0.1-0.3-0.4-0.5-0.8-0.4c-0.6,0.1-1.1,0.4-1.8,0.6c-0.8,0.4-1.1,0.6-1.1,0.6
	c-12.2,5.9-19.7,9.7-22.7,11.1c-10.9,5.3-22,10.5-32.8,15.9c0,0-0.6,0.3-1.9,0.9c-0.5,0.3-1,0.5-1.4,0.8c-0.5,0.4-1,0.5-1.4,0.8
	c-2.6,1.3-5.4,2.5-8,3.9c-0.9,0.5-2.3,1.1-4,1.9c-0.9,0.4-1.8,0.9-2.6,1.3c-1.1,0.6-2,1-2.6,1.4c-6.5,3.1-10.4,5-11.7,5.7
	c-2.6,1.4-4.3,2.1-4.9,2.3c-0.6,0.1-1,0.5-1.3,1c-0.1,0.3,0,0.5,0.3,0.6h0.1l41.2,0.1c0.1,0,0.3,0,0.3-0.1c1.9-3.6,4.6-6.3,8.3-7.9
	c1.4-0.6,2.8-1,4.4-1.1c2-0.1,4.1,0,6.3,0.4c0.3,0,0.5,0.3,0.8,0.5c0.1,0.3,0.1,0.5-0.3,0.6c-0.1,0-0.3,0-0.4,0
	c-1.9-0.6-3.4-1-4.4-0.9c-4,0.1-7.5,1.6-10.4,4.3c-0.6,0.6-1.3,1.3-1.8,1.8c-0.6,0.6-1.1,1.4-1.5,2c-0.3,0.4-0.1,0.5,0.3,0.5h61.5
	c0.1,0,0.1-0.1,0.1-0.1l0,0v-3.3c0-0.1,0.1-0.3,0.3-0.3h0.1c2.4,1.1,4.6,2.4,6.8,3.8c0.3,0.1,0.3,0.5,0.1,0.6l-0.1,0.1
	c-0.3,0.3-0.6,0.4-0.9,0.5c-0.4,0.1-0.8,0.3-1,0.5c-1.6,1-3.3,1.9-4.9,2.9c-0.1,0-0.3,0-0.3-0.1v-0.1v-2.9c0-0.3-0.3-0.5-0.5-0.5
	l0,0c-20.2,0-40.6,0-60.9-0.1c-0.8,0-1.3,0.3-1.5,0.8c-2.4,5.4-2.5,10.9-0.6,16.6c0.5,1.3,1,2.6,1.8,4.1c0.4,0.9,1.1,1.8,2.1,2.8
	c1.4,1.4,2.1,2.1,2.1,2.3c0.8,0.8,1.6,1.3,2.6,1.8c0.3,0.1,0.4,0,0.5-0.1v-0.1l0.4-2.6c0-0.3,0.3-0.4,0.5-0.4h0.1
	c1,0.6,1.8,1.3,2.5,2.1c0.5,0.5,0.9,0.9,1.4,1.3c0.8,0.5,1.4,1,2,1.6c0.1,0.1,0.3,0.5,0,0.6l-0.1,0.1c-2.3,1-4.8,1.9-7.3,2.5
	c-0.1,0-0.4,0-0.4-0.3v-0.1l0.6-3.1c0-0.3-0.1-0.5-0.4-0.6c-0.5-0.3-1.1-0.5-1.6-0.8c-0.4-0.3-0.9-0.6-1.4-1
	c-0.6-0.6-1.4-1.4-2.4-2.3c-0.6-0.5-1.1-1.3-1.5-2c-0.3-0.4-0.6-1-1.1-2.1c-3.4-6.5-3.6-13.3-0.8-20.3c0-0.1,0-0.3-0.1-0.4h-0.1
	c-9.9,0.1-20,0.1-30.1,0.1c-0.1,0-1.9,0-5-0.1c-1.8,0-3.4,0-5,0.1c-0.3,0-0.5,0.3-0.5,0.5c-0.3,2.6-1.5,3.9-4,3.8
	c-0.3,0-0.4,0.1-0.5,0.4c-1.1,3.9-2.1,7.8-3,11.7c-1.1,5.1-2.5,10.3-3.8,15.3c-0.3,1-0.6,2.6-1.1,4.8c-0.3,1.4-0.8,3-1.1,4.8
	c-0.9,3.4-1.8,6.7-2.5,10c-0.6,2.9-1.4,5.8-2.1,8.5c-0.3,0.9-0.5,1.9-0.6,2.8c-0.3,1.3-0.5,2.1-0.6,2.8c-1.8,6.9-2.9,11.4-3.4,13.7
	c-0.8,3.5-1.6,7.2-2.6,10.7c-0.5,1.9-0.9,3.9-1.3,5.9c0,0.3,0.1,0.5,0.4,0.5l2.8,0.6c0.4,0.1,0.4,0.3,0.1,0.5l-5.7,5.9
	c-0.1,0.1-0.3,0.1-0.3-0.1c-0.6-2.6-1.4-5.3-2.4-7.9c-0.1-0.4,0-0.5,0.3-0.4l3.3,0.9c0.1,0,0.4,0,0.4-0.3c0.9-3.3,1.6-6.4,2.3-9.5
	c0.1-0.9,0.6-2.8,1.4-5.4c0.5-1.8,0.9-3.5,1.4-5.4c0.6-3,1.4-6,2.1-8.9c0.6-2.4,1.3-4.8,1.8-7c1-4.3,2-8.5,3.3-12.8
	c0-0.3,0.1-0.6,0.3-1.3c0-0.5,0.1-0.9,0.3-1.3c0.9-3.3,1.6-6.4,2.5-9.7c0.1-0.6,0.5-2.3,1.1-5.1c0.3-1.1,0.5-2.3,0.9-3.4
	c0.4-1.5,0.8-2.6,0.9-3.4c0.4-1.5,0.8-3.1,1.3-4.6c0.4-1.5,0.8-3.1,1.1-4.6c0.6-2.6,1.3-5.5,2-8.5c0-0.3-0.1-0.4-0.3-0.5
	c-0.9-0.3-1.4,0.1-1.6,1c-0.1,0.4-0.6,1-1.4,2c-0.6,0.8-1.1,1.4-1.5,1.9c-2.4,3.1-4.8,6.4-7,9.5c-6.7,8.9-13.3,18-20,26.9
	c-5,6.8-10.2,13.4-15.2,20.2c0,0-0.1,0.1-0.3,0.4c-0.5,0.5-0.4,1,0.3,1.5c0.6,0.4,1.4,0.9,2,1.4c0.1,0.1,0.1,0.3,0,0.3
	c0,0,0,0-0.1,0c-2.3,1.3-4.9,2.4-7.5,3.1c-0.1,0-0.3,0-0.3-0.1c0,0,0,0,0-0.1l1-7.5c0-0.3,0.3-0.4,0.5-0.4h0.1l2.3,1.5
	c0.3,0.1,0.6,0.1,0.8,0c0.6-0.8,1.3-1.4,1.8-2.1c4.8-6.7,7.9-10.8,9-12.3c0.6-0.9,1.3-1.6,1.6-2.3c1-1.3,1.5-2,1.6-2.3
	c3-3.9,5.9-7.8,8.8-11.7c5.1-7,10.4-13.9,15.6-21c0.8-1,1.4-1.8,1.8-2.4c0.5-0.6,1-1.4,1.5-2.1c0.5-0.8,1-1.5,1.6-2.1
	c0.6-0.8,1.1-1.3,1.3-1.5c0.4-0.5,0.9-1.1,1.3-1.6c0.4-0.6,0.5-1.1,0.3-1.6c-0.1-0.4-0.3-0.5-0.3-0.5c-0.5-1.5-0.4-3,0.4-4.5
	c0.3-0.4,0.3-0.9,0-1.3c-0.4-0.8-0.9-1.4-1.4-2c-0.9-1-1.3-1.5-1.3-1.5c-1.6-2.3-3.5-4.8-5.7-7.7c-2.8-3.9-8.5-11.7-17.1-23.4
	c-1.3-1.8-2.4-3.3-3.4-4.5c-0.5-0.6-1.1-1.5-2-2.8c-0.4-0.6-0.9-1.3-1.4-1.9s-1-1.3-1.4-1.9c-0.8-1.1-1.5-2.3-2.4-3.3
	c-0.4-0.5-0.9-1.1-1.3-1.6c-0.5-0.9-0.9-1.4-1.1-1.6c-0.9-1-1.8-2.1-2.5-3.3c-0.3-0.4-0.5-0.8-0.9-1.1c-0.3-0.4-0.6-0.8-0.9-1.1
	c-8.7-11.9-17.5-23.7-26.1-35.5c-0.1-0.1-0.3-0.1-0.4-0.1l-2.6,1.9c-0.1,0.1-0.4,0.1-0.4,0v-0.1l-0.9-7.8c0-0.1,0.1-0.4,0.3-0.4h0.1
	c2.6,1,4.9,2,6.9,3.1c0.1,0.1,0.3,0.3,0.1,0.5c0,0,0,0.1-0.1,0.1l-2.1,1.8c-0.1,0.1-0.1,0.1,0,0.3c0.6,1.3,1.5,2.4,2.3,3.5
	c1.6,2.1,2.4,3.3,2.4,3.3c1.5,2.1,3,4.3,4.6,6.3c1.9,2.5,3.4,4.4,4.4,5.8c8.8,12.1,14.9,20.6,18.6,25.4c0.8,0.9,1.3,1.6,1.6,2.3
	c0.8,1.1,1.4,1.9,1.6,2.3c1.3,1.5,2.4,3.1,3.5,4.6c0.3,0.4,0.8,1,1.4,1.8c0.5,0.6,0.9,1.1,1.4,1.9c0.4,0.6,0.8,1.1,1.1,1.6
	c0.4,0.4,0.8,1,1.3,1.6c5.4,7.4,10.8,14.7,16.2,22.1c0,0,0.5,0.6,1.5,2c0.5,0.8,1,1.4,1.4,2.3c0.1,0.3,0.3,0.5,0.5,0.6
	c0.3,0.1,0.4,0.4,0.6,0.6c1.5,1.9,2.9,3.8,4.3,5.8c0.1,0.1,0.1,0.1,0.3,0.1c0.6,0.1,1-0.1,1.4-0.5c0.3-0.3,0.4-0.6,0.4-1.3
	c-0.1-38.3-0.1-76.7-0.1-115c0,0,0-0.5,0.1-1.4c0-0.5,0-1-0.1-1.5c0-0.1-0.1-0.3-0.3-0.3h-3.4c-0.1,0-0.1,0-0.1-0.1l0,0
	c0.6-1.4,1.3-2.6,2-3.6c0.8-1.1,1.4-2.3,2-3.5c0-0.1,0.1-0.1,0.3-0.1l0,0c1.5,2.3,2.8,4.5,3.9,6.8C365.7,70.4,365.9,70.4,366,70.5z"
	/>
<path class="st0" d="M291,72c1.4,1.3,1.5,2.8,0.4,4.3c-0.1,0.1-0.1,0.1-0.3,0.3c-1.5,0.4-2.9,0.5-4.5,0.5c0,0-0.4,0-0.9,0
	c-0.5,0-0.6-0.3-0.6-0.8c0-0.4,0-0.6,0-0.6c0-2.5,0-5.1,0.1-7.7c0-0.1,0.1-0.3,0.3-0.3c0.8-0.1,1.6-0.1,2.4,0c0,0,0.5,0,1.4,0
	c1,0,1.6,0.4,2.1,1c0.5,0.6,0.5,1.5,0.1,2.4c0,0.1-0.1,0.1-0.3,0.3c-0.1,0.1-0.3,0.3-0.4,0.4C290.9,71.9,291,72,291,72z M287.4,69.7
	c-0.4,1.4-0.1,2,0.9,1.9c0.5,0,0.9-0.1,1.1-0.3c0.5-0.3,0.6-0.6,0.5-1.4c0-0.1-0.1-0.3-0.3-0.3c-0.6-0.3-1.3-0.4-1.9-0.4
	C287.5,69.3,287.4,69.4,287.4,69.7z M290,74.9c0.4-0.8,0.5-1.1,0.1-1.4c-0.4-0.3-0.8-0.4-1.1-0.4c-0.5,0-0.9-0.1-1.1-0.1
	c-0.5,0-0.6,0.3-0.6,0.8c0,0.5,0,0.8,0,0.9c0,0.8,0.3,1,1,0.9c0,0,0.4,0,1-0.1C289.5,75.6,289.8,75.3,290,74.9z"/>
<path class="st0" d="M636.5,195c-0.1-0.3-0.1-0.5-0.1-0.9c0.3-0.8,0.1-1.4-0.3-2c-0.1-0.1-0.1-0.3-0.1-0.4
	c-0.1-11.2-0.1-22.4-0.1-33.5c0-0.3,0.1-0.6,0.3-1.1c0.1-0.4,0.3-0.8,0.3-1.1c0.3-2.8,0.4-5.5,0.3-8c0-0.5-0.3-0.8-0.8-0.8
	c-3.5-0.1-6.8-0.6-9.9-1.6c-2.5-0.8-4.8-1.8-6.5-2.9c-2-1.3-3.9-2.8-5.5-4.6c-2-2.3-3.1-4.8-3.4-7.7c0,0,0-0.3-0.1-0.5
	c-0.1-0.5,0.1-0.8,0.6-0.8c0.1,0,0.1,0.1,0.3,0.3c0.1,2.6,1,4.9,2.6,6.9c1.8,2.3,3.8,4.1,6.2,5.5c1.8,1,4,2,6.7,2.8
	c3.1,1,6.4,1.5,9.8,1.6c0.3,0,0.4-0.1,0.4-0.4l0,0c0-3,0-6-0.1-8.9c0-0.1-0.1-0.6-0.3-1.3c-0.1-0.4-0.1-0.9-0.1-1.4
	c0-14.3,0-28.8,0-43.1c0-1.5,0.1-3.5,0.3-6c0.1-2.3,0.3-4.5,0.3-7c0-0.5-0.3-0.8-0.8-0.8l-3,0.1c-0.1,0-0.3-0.1-0.3-0.3v-0.1
	c0.5-1.3,1.1-2.4,1.9-3.4c0.4-0.6,0.8-1,0.9-1.3c0.3-0.5,0.5-1,0.6-1.4c0.3-0.8,0.6-1.3,1.3-1.6c0.1,0,0.3,0,0.3,0.1l4.3,7.7
	c0,0.1,0,0.1-0.1,0.3c0,0,0,0-0.1,0l-3.8,0.1c-0.1,0-0.1,0.1-0.1,0.3l0,0c0.1,3,0.3,6,0.3,9.2c0,0.3,0,0.4,0,0.6
	c0.1,15.6,0.1,31.1,0.1,46.7c0,0.3,0,0.6-0.1,0.9c0,0.1-0.1,0.4-0.1,0.5c0,0.1-0.1,0.4-0.1,0.6c0,3.1,0,6.3,0,9.5
	c0,0.3,0.1,0.4,0.4,0.4l0,0c2.8-0.1,5.5-0.5,8.2-1.3c2.6-0.8,4.9-1.6,6.8-2.5c2.3-1.1,4.3-2.6,5.9-4.3c1.6-1.8,2.9-3.8,3.8-6.3
	c0.3-0.6,0.4-1,0.4-1.1c0.3-0.9-0.3-1.1-1.4-0.8c-0.8,0.3-1.4,0.5-2,0.6c-0.5,0.1-0.6,0-0.5-0.5c0.5-1.1,0.8-2.3,1-3.5
	c0.3-1.5,0.6-3.1,1.1-4.6c0.1-0.4,0.4-0.5,0.6-0.1c0.6,0.8,1.3,1.4,1.8,2.1c0.6,0.8,1.3,1.4,2.1,2c0.8,0.5,1.4,1.3,1.9,2.4
	c0,0.1,0,0.1-0.1,0.3l0,0l-3.4,0.8c-0.3,0-0.4,0.3-0.4,0.5c-0.3,2.5-1,4.6-2.3,6.3c-0.6,0.8-0.9,1.3-0.9,1.3c-0.5,0.6-0.8,1-1,1.3
	c-2.1,2-3.9,3.4-5.4,4.1c-5.1,2.6-10.7,4.1-16.3,4.4c-0.1,0-0.3,0.1-0.3,0.3l0.1,9c0,0.1,0,0.3,0.1,0.3c0.1,0.1,0.1,0.3,0.1,0.4
	c0,8.4,0,19.2,0,32.6c0,0.8,0,1.5-0.1,2.3c-0.1,1.1-0.3,1.9-0.3,2.3c0,3.4,0,6.8,0,10.4c0,0.3,0.1,0.5,0.4,0.6
	c0.8,0.5,1.5,0.5,2.1-0.1c4.3-4.4,8.5-8.8,12.8-13.2c0.3-0.3,1-1,2.3-2.1c0.5-0.5,1-1,1.5-1.5c0.6-0.8,1.1-1.3,1.5-1.5
	c6-6,12.1-12.1,18.1-18.1c0,0,0.6-0.6,1.9-2c0.6-0.8,1.5-1.5,2.4-2.3c0.4-0.3,0.6-0.6,1-1.1c0.4-0.4,0.6-0.8,1-1.1
	c0.8-0.6,1.4-1.3,2-1.9c1.3-1.3,1.9-2,1.9-2c14.6-14.7,29.3-29.4,43.8-44.1c0-0.1,0-0.1,0-0.3l0,0c-1.1-0.8-2-1.6-2.5-2.6
	c-0.1-0.1,0-0.4,0.1-0.4c0,0,0,0,0.1,0c2.8-0.5,5.4-1.1,7.7-1.9c0.6-0.3,0.9,0,0.6,0.6c-0.9,2.6-1.4,5-1.8,7.4
	c0,0.3-0.3,0.4-0.5,0.4h-0.1c-1-0.4-1.8-1-2.3-1.9c-0.4-0.6-0.8-0.8-1.3-0.1c-0.4,0.5-0.8,1-1.4,1.4c-0.8,0.6-1.3,1-1.4,1.3
	c-17.3,17.5-34.7,35-52.1,52.4c-0.1,0.1-0.5,0.5-1,1.3c-0.3,0.3-0.5,0.5-0.8,0.8c-0.4,0.4-0.6,0.6-0.8,0.8
	c-6.3,6.4-12.7,12.7-19.1,19.1c-0.3,0.3-0.4,0.5-0.8,0.8c-0.3,0.3-0.5,0.5-0.8,0.8c-0.8,0.6-1.4,1.3-2,1.9c-1,1.1-1.6,1.8-1.9,2
	c-1.8,1.8-3.4,3.4-5.1,5.1c0,0-0.4,0.5-1.3,1.4c-0.5,0.5-1.1,1.1-1.8,1.6c-0.3,0.1-0.3,0.4-0.1,0.6c0.6,0.8,1,1.6,1.3,2.4
	c0,0.1,0.1,0.3,0.3,0.3c0.5,0.1,1.3,0.1,2.3,0.1c31.4,0.1,62.8,0.1,94.1,0c0.3,0,0.5-0.3,0.5-0.5v-0.1c-0.3-0.9-0.4-1.6-0.3-2.5
	c0-0.1,0-0.1,0.1,0c1.1,1.5,2.6,2.6,4.3,3.5c0.1,0,0.1,0.1,0.1,0.3c0,0,0,0,0,0.1l-4.4,3.6c-0.3,0.1-0.3,0.1-0.3-0.1l0.6-2.6
	c0-0.3-0.1-0.4-0.3-0.4c0,0,0,0-0.1,0c-2.6,0-5.3,0-7.9,0c-25.9-0.1-51.7-0.1-77.5,0c0,0-1.8,0-5.3-0.1c-1.8,0-3.6,0-5.7,0.1
	c-0.3,0-0.5,0.3-0.5,0.5c-0.3,1.1-0.8,1.8-1.5,2.3c-0.3,0.1-0.4,0.5-0.3,0.8l0,0c0.8,1.3,1.5,2.5,2,3.8c1,2.3,1.6,3.5,1.9,3.9
	c1.5,3,3,5.9,4.5,8.9c0,0,0.3,0.5,0.8,1.3c0.1,0.3,0.3,0.6,0.4,0.9c0.1,0.4,0.3,0.8,0.4,0.9c1.1,2.3,2.4,4.4,3.4,6.7
	c0,0,0.1,0.3,0.3,0.8c0,0.1,0.1,0.4,0.3,0.5c0.1,0.3,0.3,0.4,0.4,0.5c1.4,2.9,2.9,5.8,4.4,8.7c0.3,0.4,1,1.9,2.3,4.4
	c0.5,1,1,2,1.5,2.9c0.5,1,1,1.9,1.5,2.9c0.6,1.3,1.3,2.5,1.9,3.6c0.6,1,1.1,2.1,1.6,3.3c0.5,1.1,1.1,2.3,1.6,3.3
	c1.3,2.4,2.4,4.5,3.3,6.2c2.4,4.9,4.9,9.8,7.4,14.6c0.3,0.5,0.9,1.9,1.9,3.9c0.6,1.4,1.3,2.6,2,3.9c0.5,0.9,1.1,2,1.8,3.5
	c0.5,1.1,1.1,2.4,1.9,3.5c0.4,0.6,0.8,1.5,1.4,2.8c0.4,1,0.9,1.9,1.4,2.8c0.9,1.4,1.4,2.4,1.5,2.8c0.5,1.4,1,2.5,1.8,3.6
	c0.1,0.3,0.5,0.3,0.6,0.1l2.6-1.6c0.4-0.3,0.5-0.1,0.5,0.4l-0.5,8.4c0,0.1-0.1,0.3-0.3,0.3h-0.1c-1.4-0.9-2.8-1.8-4-2.8
	c-0.5-0.4-1.1-0.8-1.6-0.9c-0.8-0.3-1.3-0.8-1.6-1.4c0-0.1,0-0.3,0.1-0.3l0,0l2.9-1.4c0.3-0.1,0.4-0.4,0.3-0.6
	c-0.4-0.9-0.8-1.8-1.3-2.6c-0.8-1.3-1.1-2.1-1.4-2.5c-1.4-3-2.4-4.9-2.6-5.5c-0.8-1.3-1.3-2.1-1.6-3c-0.5-1.1-0.9-1.8-0.9-1.8
	c-0.5-1-1-2-1.6-3c-0.5-0.9-1-1.9-1.5-3c-0.6-1.3-1.1-2.4-1.8-3.5c-0.8-1.5-1.4-2.8-1.9-3.5c-2.9-5.9-5.9-11.8-9-17.7
	c-0.1-0.3-0.5-1.1-1.1-2.4c-0.3-0.5-0.5-1.1-0.9-1.6c-0.4-0.6-0.6-1.1-0.9-1.5c-1.1-2.4-2.3-4.8-3.5-7.2c-1.6-3-3.1-6.2-4.8-9.2
	c0-0.1-0.5-0.9-1.3-2.5c-0.4-0.9-0.9-1.6-1.4-2.5c-0.4-0.5-0.8-1.5-1.5-2.9c-0.5-1-0.9-2-1.4-2.9c-0.8-1.4-1.5-2.9-2.3-4.3
	c-0.5-1-1.1-2.1-1.9-3.6c-0.4-0.8-0.9-1.6-1.3-2.4c-0.4-0.9-0.9-1.8-1.3-2.4c-0.8-1.5-1.5-3-2.3-4.5c-0.6-1.4-1.4-2.8-2-3.9
	c-0.6-1.3-1.4-2.5-2-3.8c-0.1-0.3-0.4-0.4-0.6-0.4c-1.4,0.3-2.5,0.1-3.5-0.4c-0.6-0.3-1.1-0.1-1.4,0.4c-0.1,0.4-0.3,0.5-0.3,0.5
	c-3.4,5.3-6.8,10.5-10.2,15.8c-1.4,2-2.6,4-4,6c0,0-0.5,0.9-1.6,2.6c-0.4,0.6-0.9,1.3-1.3,1.9c-0.5,0.6-0.9,1.3-1.3,1.9
	c-0.5,0.8-1,1.6-1.5,2.4c-0.9,1.4-1.5,2.1-1.5,2.3c-2.5,3.9-5,7.8-7.7,11.7c-1.8,2.5-3.4,5.1-5,7.8c-0.1,0.1-0.5,0.8-1.3,1.9
	c-0.3,0.4-0.5,0.9-0.8,1.3c-0.3,0.5-0.5,1-0.8,1.3c-2.4,3.5-4.8,7.2-7,10.8c-0.1,0.1,0,0.3,0,0.4c0.9,0.9,1.8,1.5,2.6,1.9
	c0.5,0.3,0.5,0.4,0,0.6c-2.3,1-4.5,2.3-6.8,3.5c-0.4,0.3-0.6,0.3-1,0.3c-0.1,0-0.3-0.1-0.3-0.3l0,0l0.5-8.4c0-0.5,0.3-0.6,0.8-0.4
	l2.6,1.9c0.3,0.1,0.5,0.1,0.6-0.1l0,0c0.9-1.5,1.8-2.9,2.6-4.3c2.9-4.4,5.9-8.9,8.8-13.4c0.1-0.1,0.5-0.8,1-1.6
	c0.4-0.5,0.8-1.1,1.1-1.6c0.6-0.9,1.1-1.5,1.4-2c0.3-0.5,0.6-1,0.9-1.4c0.3-0.4,0.6-0.9,0.9-1.4c1-1.4,1.9-2.8,2.8-4.1
	c0.4-0.6,1-1.6,1.9-2.9c0.5-0.6,0.9-1.3,1.3-1.9c0.5-0.9,0.9-1.5,1.3-2c1-1.5,2-3,3-4.6c0.3-0.4,0.8-1.3,1.6-2.4
	c0.4-0.5,0.8-1.1,1-1.6c0.4-0.8,0.8-1.3,1-1.6c3.9-5.8,7.7-11.6,11.4-17.3c0,0,0.4-0.5,1.1-1.5c0.4-0.6,0.8-1.3,1.1-1.9
	c0-0.1,0.1-0.1,0.3-0.3c0.4-0.3,0.4-0.6,0.1-1c-0.6-1.1-0.9-2.4-0.6-4c0.1-0.8-0.1-1.4-0.9-1.6c-0.4-0.1-0.5-0.3-0.5-0.3
	c-2.3-1.1-4.5-2.4-6.8-3.5c-0.6-0.4-1.6-0.9-3-1.5c-1-0.5-2-1-3-1.6c-0.6-0.4-1.5-0.9-2.5-1.4c-0.8-0.4-1.5-0.8-2.5-1.4
	s-2-1.1-3-1.8c-0.9-0.5-1.9-1-3.1-1.6s-2.5-1.3-3.6-2c-0.9-0.5-1.9-1-3.1-1.6c-1-0.5-2-1-3.1-1.6c-1.3-0.8-2.9-1.6-5.1-2.8
	c-0.3-0.1-1.1-0.6-2.6-1.5c-0.6-0.4-1.1-0.6-1.8-0.9c-0.8-0.4-1.3-0.6-1.8-0.9c-1-0.6-2.1-1.3-3.3-1.8c-1.6-0.9-2.8-1.4-3.3-1.8
	c-6-3.3-9.9-5.4-11.6-6.2c-1.9-0.9-3.8-2-5.5-3c-1.3-0.8-2.6-1.4-4.1-2c-0.3-0.1-0.5,0-0.6,0.3l-1.5,2.6c-0.3,0.4-0.5,0.4-0.6,0
	c-0.5-1-1-1.9-1.6-2.8c-1-1.4-1.9-2.9-2.6-4.4c-0.1-0.1,0-0.4,0.1-0.4h0.1c2.9-0.3,5.8-0.3,8.5-0.3c0.1,0,0.1,0.1,0.1,0.1s0,0,0,0.1
	c-0.4,0.9-0.9,1.6-1.3,2.4c-0.3,0.4-0.4,0.6-0.4,1c0,0.1,0.1,0.3,0.3,0.4c1.4,0.6,2.6,1.3,3.9,2c0.6,0.4,1.9,1,3.8,2.1
	c0.9,0.5,1.8,1,2.6,1.4c1,0.5,1.9,1,2.6,1.4c1.4,0.8,2.8,1.5,4.3,2.3c1.3,0.6,2.8,1.4,4.3,2.3c1.6,0.9,3.3,1.8,4.9,2.5
	c0.5,0.3,1.1,0.6,1.9,1.1c0.5,0.4,1.3,0.6,1.9,1c1.4,0.6,3,1.5,4.6,2.5c0.9,0.5,2.3,1.3,3.9,2c0.9,0.5,1.8,0.9,2.6,1.4
	c0.9,0.5,1.8,1,2.6,1.4c1.9,0.9,3.5,1.8,4.9,2.6c0.6,0.4,1.3,0.6,1.8,0.9c0.9,0.4,1.5,0.6,1.8,0.9c1.3,0.8,2.5,1.4,3.8,2.1
	c1,0.6,2.3,1.3,3.8,2s2.8,1.4,3.8,2c0.6,0.4,1.3,0.8,1.9,1c0.9,0.4,1.5,0.8,1.9,1c1.8,1,3.5,2,5.3,2.8c0,0,0.4,0.3,1,0.6
	c0.5,0.4,1.1,0.4,1.8,0s1-0.5,1-0.5c0.5-0.3,0.9-0.5,1.3-0.8c0.1-0.1,0.1-0.1,0.1-0.3l-0.1-9.7C636.6,195.2,636.6,195.1,636.5,195z"
	/>
<path class="st0" d="M115.8,83c0.4-0.4,0.8-0.8,1.3-1.1c0.1-0.1,0.4-0.1,0.5,0l0,0l4.4,4.4c0.1,0.1,0.1,0.3,0.1,0.3
	c-0.1,0.3-0.3,0.4-0.6,0.4c-0.1,0-0.3-0.1-0.3-0.1c-1.1-1.3-2.3-2.4-3.5-3.4c-0.1-0.1-0.4-0.1-0.5,0c-1.3,1-2.4,2.1-3.5,3.1
	c-0.1,0.1-0.3,0.3-0.5,0.3c-0.6,0.1-0.8-0.1-0.1-0.8C113.7,85,114.7,84,115.8,83z"/>
<path class="st0" d="M755.5,83.3c0.3-0.1,0.5-0.1,0.6,0c1.4,1.1,2.6,2.3,3.8,3.5c0.3,0.4,0.4,0.6,0.1,1.1c0,0.1-0.1,0.1-0.3,0l0,0
	l-3.3-3.1c-0.4-0.4-0.9-0.4-1.3-0.1c-1,0.8-2.1,1.8-3,3c-0.1,0.1-0.1,0.1-0.3,0.1c-0.4,0-0.5-0.3-0.4-0.6c0-0.1,0.1-0.3,0.3-0.5
	C752.7,85.6,754,84.5,755.5,83.3z"/>
<path class="st0" d="M124.5,89.4c0-0.4,0-0.9,0.1-1.3c0-0.1,0.1-0.3,0.3-0.3c0.9-0.1,1.6-0.1,2.5,0c0.1,0,0.1,0.1,0.1,0.3
	c-0.3,1.8-0.8,3.4-1.4,5.1c0,0.1-0.1,0.3-0.3,0.3l-1.1-0.1c-0.1,0-0.1-0.1-0.3-0.3c-0.1-0.8-0.1-1.5,0-2.3
	C124.5,90.4,124.5,90,124.5,89.4z"/>
<path class="st0" d="M116.3,99.5c1.4-0.3,3.1-0.3,5.1-0.3c0.1,0,0.3,0.1,0.3,0.1l0.1,2c0,0.1-0.1,0.3-0.3,0.3l0,0h-9
	c-0.1,0-0.3-0.1-0.3-0.3l0,0c0-0.9,0.3-1.6,0.8-2.3c1.6-2.6,3.4-5.4,5.1-8.2c0.3-0.4,0.1-0.5-0.4-0.5h-4.4c-0.1,0-0.3-0.1-0.3-0.1
	v-1.9c0-0.1,0.1-0.3,0.4-0.3l0,0h7.7c0.4,0,0.6,0.3,0.6,0.6c0,0.6-0.1,1.3-0.5,1.9c-0.4,0.5-0.5,0.8-0.5,0.8c-0.6,1.1-1.3,2.1-2,3.1
	c-1,1.4-1.9,2.9-2.8,4.5C116,99.4,116,99.5,116.3,99.5z"/>
<path class="st0" d="M762.3,94c-0.1,0-0.1-0.1-0.1-0.3l0.3-4.5c0-0.3,0.1-0.4,0.3-0.4l1.8-0.1c0.1,0,0.3,0.1,0.3,0.3l0,0
	c-0.1,1.6-0.5,3.3-1.1,4.9C763.4,94.3,763,94.4,762.3,94z"/>
<path class="st0" d="M756.3,101.8c0,0.1-0.1,0.3-0.3,0.3h-1.4c-0.3,0-0.5-0.3-0.5-0.5l0,0c0-1.1,0-2.1-0.1-3.1
	c-0.1-0.9-0.4-1.9-0.9-3c-0.8-1.9-1.6-3.8-2.6-5.5c-0.1-0.3,0-0.5,0.1-0.5c1.1-0.6,1.9-0.4,2.5,0.6c0.8,1.5,1.4,3.1,2.1,4.6
	c0.1,0.5,0.4,0.4,0.5,0c0.5-1.6,1.1-3.4,1.9-5c0.1-0.3,0.3-0.4,0.5-0.4l1.8-0.1c0.1,0,0.3,0.1,0.3,0.3l0,0c0,0.6-0.1,1.3-0.4,1.8
	c-1.1,2.4-2,4.1-2.5,5s-0.8,1.9-0.6,2.9C756.5,99.9,756.5,100.8,756.3,101.8z"/>
<path class="st0" d="M128.8,102.9l-0.5,2c-0.1,0.4-0.4,0.6-0.6,0.6l-1.6-0.1c-0.1,0-0.1-0.1-0.1-0.1l0,0c0.4-1.1,0.8-2.3,1.1-3.4
	c0.8-2,1.4-4.1,1.8-6.2c0-0.3,0.3-0.4,0.5-0.4l1.9-0.1c0.3,0,0.5,0.1,0.6,0.5c1,3.3,2,6.5,3.3,9.5c0,0.1,0,0.3-0.1,0.3l0,0
	c-0.8,0.1-1.5,0.1-2.1,0c-0.1,0-0.3-0.1-0.3-0.3c-0.1-0.5-0.3-1.1-0.4-1.6c-0.1-0.6-0.5-1-1.1-1c-0.5,0-0.8,0-0.8,0
	c-0.5,0-0.9,0-1.4,0C128.9,102.7,128.9,102.8,128.8,102.9z M130.2,97.3l-0.8,3.1c-0.1,0.4,0,0.6,0.1,0.8l0,0l1.6,0.1
	c0.5,0,0.6-0.3,0.5-0.8l-1.1-3.1C130.4,96.9,130.3,96.9,130.2,97.3z"/>
<path class="st0" d="M771.3,100.4c0.9,0.5,1.4,1.1,1.4,1.9c0.1,1.3-0.4,2.1-1.5,2.8c-0.9,0.5-1.9,0.8-2.9,0.6
	c-0.8,0-1.6-0.1-2.5-0.1c-0.3,0-0.5-0.3-0.5-0.5l-0.1-9c0-0.3,0.3-0.4,0.4-0.4l0,0c0.6,0,1.4,0,2.1,0c0,0,0.4,0,1,0
	c0.6,0,1.1,0.1,1.6,0.3c0.6,0.1,1,0.5,1.3,1c0.6,1.1,0.4,2.1-0.6,3.1C771.2,100.3,771.2,100.3,771.3,100.4L771.3,100.4z M769.6,97.4
	l-2.1-0.3c-0.1,0-0.3,0.1-0.3,0.3c-0.3,0.8-0.3,1.5,0,2.3c0,0.1,0.1,0.1,0.3,0.1c0.4,0,0.8,0,1.3,0c0.5,0,1-0.1,1.3-0.5
	c0.5-0.5,0.4-1.1,0-1.8C769.8,97.5,769.7,97.4,769.6,97.4z M769.9,101.4l-2.4-0.1c-0.1,0-0.4,0.1-0.4,0.3l0,0l-0.1,2.1
	c0,0.1,0.1,0.4,0.4,0.4l0,0c0.4,0,0.8,0,1.1,0c1.9,0,2.4-0.8,1.5-2.4C770.2,101.5,770.1,101.4,769.9,101.4z"/>
<path class="st0" d="M25.3,103.6c0.4-0.4,0.6-0.6,1-1c0.1,0,0.3,0,0.3,0c1,1.3,2.1,2.4,3.3,3.4c0.6,0.5,1,1,1.1,1.4
	c0.1,0.5,0,0.6-0.3,0.6c-0.1,0-0.3-0.1-0.4-0.3c-1.1-1-2.4-2.1-3.6-3.4c-0.1-0.1-0.5-0.1-0.6,0c-1.3,1.1-2.5,2.3-3.6,3.4
	c-0.1,0.1-0.4,0.3-0.5,0.3c-0.3,0-0.4-0.1-0.4-0.4c0-0.1,0.1-0.3,0.3-0.5c0.8-0.9,1.5-1.6,2.4-2.5C24.3,104.6,24.7,104.2,25.3,103.6
	z"/>
<path class="st0" d="M474.2,106.4c0.3-0.4,0.6-0.5,1-0.3c0.1,0.1,0.3,0.3,0.4,0.5c0.1,0.1,0.3,0.4,0.4,0.5c1,0.9,1.9,1.8,2.8,2.8
	c0.1,0.1,0.3,0.4,0.3,0.5c0,0.3-0.1,0.4-0.4,0.4c-0.1,0-0.3,0-0.3-0.1l-3.4-3.1c-0.1-0.1-0.3-0.1-0.3,0l-3.5,3.1
	c-0.1,0.1-0.3,0.1-0.4,0.1c-0.3-0.1-0.1-0.6,0.5-1.3c0.3-0.3,0.5-0.5,0.8-0.8c0.6-0.4,1.1-1,1.8-1.6
	C473.8,106.9,474,106.8,474.2,106.4z"/>
<path class="st0" d="M34.5,109h1.8c0.1,0,0.3,0.1,0.3,0.3l0,0c-0.3,1.5-0.6,2.9-1,4.4c0,0,0,0.3,0,0.5s-0.1,0.4-0.5,0.4
	c-0.1,0-0.3,0-0.4,0c-0.3,0.1-0.6,0.1-0.9-0.1c-0.1,0-0.1-0.1-0.1-0.3l0.4-4.8C34,109.1,34.2,109,34.5,109z"/>
<path class="st0" d="M27.2,112.2c0.3-0.4,0.1-0.5-0.3-0.5h-4.6c-0.3,0-0.4-0.1-0.4-0.4l0,0v-1c0-0.6,0.3-0.9,0.8-0.9h7.3
	c0.5,0,0.8,0.3,0.8,0.8c0.1,0.9-0.1,1.6-0.8,2.4c-0.6,0.9-1,1.3-1,1.3c-1.4,2.3-2.9,4.4-4.1,6.7c-0.1,0.1,0,0.3,0.1,0.3l5.3-0.1
	c0.1,0,0.3,0,0.3,0.1c0.3,0.6,0.4,1.4,0.1,2c0,0.1-0.1,0.1-0.3,0.1c-3,0.1-6.2,0.1-9.2,0c-0.1,0-0.3-0.1-0.3-0.3l0,0
	c0.1-1,0.5-1.8,1-2.5c0.3-0.5,0.5-0.6,0.5-0.6C24.2,116.9,25.7,114.5,27.2,112.2z"/>
<path class="st0" d="M482.3,115.7c-0.1,0.4-0.4,0.6-0.6,0.8c-0.3,0.1-0.5,0.1-0.8,0c-0.1-0.1-0.1-0.3-0.1-0.6c0-1.3,0.1-2.5,0.3-3.8
	c0-0.1,0.1-0.3,0.1-0.3c0.4-0.4,1-0.4,1.8,0c0.1,0.1,0.3,0.3,0.3,0.4L482.3,115.7z"/>
<path class="st0" d="M474.6,116.7l1.9-4.4c0-0.1,0.1-0.3,0.3-0.3c0.6-0.3,1.3-0.3,2,0c0.1,0,0.1,0.1,0.1,0.3c0,0.3-0.1,0.5-0.4,0.8
	c-0.1,0.1-0.1,0.3-0.3,0.3c-0.5,1.8-1.3,3.3-2,4.6c-0.4,0.8-0.6,1.5-0.6,2.1c0,1-0.1,2-0.1,3.1c0,0.3-0.3,0.5-0.5,0.5l0,0l-1.5-0.1
	c-0.3,0-0.4-0.3-0.4-0.4l0,0c0.1-1,0.3-2,0-3.1c-0.1-0.6-0.5-1.6-1.1-2.8c-0.8-1.5-1.5-3.1-2.1-5c0-0.1,0-0.3,0.1-0.3l0,0
	c1.4-0.4,2.3,0,2.6,1c0.1,0.5,0.3,0.8,0.3,0.8c0.4,0.9,0.8,1.9,1.3,2.9C474.3,117,474.5,117,474.6,116.7z"/>
<path class="st0" d="M36.8,126.7c-0.3,0-0.4-0.1-0.4-0.4l-0.1-9.5c0-0.3,0.3-0.5,0.5-0.5l0,0c1.4,0.1,2.8,0.1,4,0.1
	c1.8,0,2.6,1,2.6,2.8c0,0.6-0.4,1.1-0.9,1.4c-0.1,0.1-0.3,0.3-0.1,0.5c0,0,0,0,0,0.1c2.1,2,2.1,3.6,0,5c-0.5,0.4-1,0.5-1.8,0.5
	C39.6,126.7,38.2,126.7,36.8,126.7z M38.2,118.1c0.1,0.3,0.1,0.6,0.1,0.9c-0.1,0.5,0,0.9,0.1,1c0.1,0,0.4,0.1,0.9,0.1
	c0.6,0,1.3-0.1,1.9-0.4c0.6-0.4,0.9-0.8,0.5-1.3c-0.1-0.3-0.5-0.5-0.9-0.6c-0.8-0.3-1.5-0.4-2.4-0.3c-0.1,0-0.1,0.1-0.3,0.3
	C38.2,118.1,38.2,118.1,38.2,118.1z M38.7,124.9c1,0.1,2,0,3-0.4c0.1,0,0.3-0.1,0.3-0.3c0.3-0.6,0.3-1.3-0.1-1.6
	c-0.3-0.4-0.8-0.5-1.4-0.6c-0.6,0-1.3,0-1.9,0c-0.1,0-0.3,0.1-0.3,0.3c-0.1,1-0.1,1.8,0.1,2.4C38.5,124.8,38.6,124.9,38.7,124.9z"/>
<path class="st0" d="M489.5,122.8l0.9,0.5c0.1,0,0.1,0.1,0.1,0.3c0.5,1.9-0.3,3-2,3.5c-1,0.3-2.5,0.3-4.5,0c-0.1,0-0.1-0.1-0.3-0.3
	c-0.1-2.9-0.1-5.8,0.1-8.7c0-0.1,0.1-0.3,0.3-0.3c2.1-0.1,3.6,0,4.4,0.3c1.3,0.4,1.9,1.3,1.8,2.4c0,0.3-0.1,0.5-0.4,1
	c-0.1,0.3-0.3,0.6-0.4,1C489.3,122.6,489.4,122.8,489.5,122.8z M486,121.8c0.8,0.1,1.5,0,2.1-0.5c0.1-0.1,0.1-0.1,0.3-0.3
	c0.1-0.6,0-1-0.6-1.3c-0.3-0.1-0.8-0.1-1.5-0.1c-0.6,0-0.9,0.4-0.8,0.9c0,0.1,0,0.3,0,0.4c0,0.3,0,0.4,0.1,0.5
	C485.7,121.6,485.8,121.8,486,121.8z M488.7,124c0-0.4-0.3-0.6-0.6-0.6l0,0h-1.8c-0.4,0-0.6,0.3-0.6,0.6l0,0v1.1
	c0,0.4,0.3,0.6,0.6,0.6l0,0h1.8c0.4,0,0.6-0.3,0.6-0.6l0,0V124z"/>
<path class="st0" d="M678.9,132.1l0.3-1c0-0.1,0.1-0.1,0.3-0.1l1.8-0.1c0.1,0,0.3,0.1,0.3,0.3l0,0c-0.3,1.9-0.5,3.6-0.9,5.1
	c-0.1,0.4-0.1,0.6-0.1,1c0,0.1,0,0.4-0.1,0.6c-0.1,0.4,0,0.5,0.4,0.5c0.3,0,0.5,0,0.5,0.1c0.8,0.4,1,1,0.5,1.8
	c0,0.1-0.1,0.1-0.3,0.1c-1.3,0.1-2.4-0.1-3.3-0.9c-0.1-0.1-0.3-0.1-0.3,0c-1.1,0.9-2.4,1.1-3.9,0.6c-1-0.4-1.6-1-2-2
	c-0.1-0.5-0.3-1-0.4-1.6s-0.1-1.3,0-1.6c0.1-1,0.5-1.9,1.3-2.9c1-1.1,2.1-1.6,3.4-1.5c0.5,0,0.9,0.3,1.3,0.5s0.6,0.6,0.9,1
	c0.1,0.1,0.1,0.3,0.3,0.1C678.8,132.3,678.8,132.3,678.9,132.1z M678.2,134.6c0-0.9-0.6-1.8-1.6-1.8h-0.3c-0.9,0-1.8,0.6-1.8,1.6
	l0,0l-0.1,2.4c0,0.9,0.6,1.8,1.6,1.8h0.3c0.9,0,1.8-0.6,1.8-1.6l0,0L678.2,134.6z"/>
<path class="st0" d="M568.4,141.5l-3.5,3.4c-0.1,0.1-0.3,0.1-0.3,0.1c-0.5,0-0.6-0.3-0.4-0.6c0.1-0.1,0.3-0.3,0.4-0.5
	c1.3-1.1,2.4-2.4,3.5-3.6c0.1-0.1,0.4-0.1,0.6,0l0,0c1.1,1.1,2.1,2.1,3.3,3.1c0,0,0.1,0.1,0.4,0.4c0.4,0.4,0.5,0.8,0.5,1.3
	c0,0.3-0.1,0.3-0.4,0.1c-1.3-1.1-2.5-2.3-3.8-3.3c-0.1,0-0.1-0.1-0.1-0.3C568.5,141.5,568.5,141.4,568.4,141.5L568.4,141.5z"/>
<path class="st0" d="M218.1,145.6c0.4,0.4,0.3,0.6-0.3,0.8c-0.4,0-0.8-0.1-1-0.6c-0.4-0.6-1.4-1.6-3.1-3c-0.1-0.1-0.3-0.1-0.3,0
	c-0.3,0.1-0.8,0.5-1.3,1c-0.9,0.8-1.6,1.5-2.5,2.4c-0.3,0.3-0.5,0.3-0.9,0c-0.1,0-0.1-0.1,0-0.3l0,0c1.8-2.3,3.1-3.6,4.1-4.4
	c0.5-0.4,1-0.4,1.4,0.1c0.3,0.4,0.4,0.5,0.5,0.5C215.7,143.2,216.8,144.4,218.1,145.6z"/>
<path class="st0" d="M575.6,151.1c-0.1,0-0.3-0.1-0.3-0.4l0.5-4.5c0-0.1,0.1-0.3,0.3-0.3c0.5-0.3,1-0.1,1.8,0.1
	c0.3,0.1,0.4,0.3,0.3,0.5l-1,4.3c0,0.1-0.1,0.3-0.3,0.3C576.4,151.3,576.1,151.4,575.6,151.1z"/>
<path class="st0" d="M567.3,156.8c-0.1,0.1,0,0.3,0.1,0.3l5.1,0.1c0.1,0,0.3,0.1,0.3,0.1c0.1,0.3,0.1,0.4,0.1,0.6c0,0.1,0,0.4,0,0.6
	c0,0.4-0.3,0.6-0.6,0.5c-0.3,0-0.5,0-0.5,0c-2.4,0-4.9,0-7.3-0.1c-0.6,0-0.8-0.3-0.5-0.9c0.6-1.5,1.5-3,2.6-4.5
	c1.1-1.5,2.1-3.1,3-4.8c0-0.1,0-0.3-0.1-0.3c0,0,0,0-0.1,0l-4.3-0.1c-0.3,0-0.5-0.1-0.5-0.4c-0.3-1,0.1-1.5,1-1.5c0.4,0,0.6,0,0.6,0
	c2.1,0,4.3,0,6.4,0.1c0.3,0,0.5,0.3,0.5,0.5c0,0,0,0,0,0.1c-0.3,1-0.8,2-1.4,2.9C570.2,152.4,568.7,154.5,567.3,156.8z"/>
<path class="st0" d="M221.9,147.4c0.5,0,0.8,0.1,0.8,0.4c0,0,0,0.3-0.1,0.6c-0.3,1.4-0.5,2.8-1,4.1c0,0.1-0.1,0.3-0.3,0.3
	c-1,0.6-1.5,0.3-1.5-1c0-1,0.1-2,0.3-3c0,0,0-0.3,0-0.8c0-0.6,0.4-1,1-0.8C221.6,147.3,221.7,147.4,221.9,147.4z"/>
<path class="st0" d="M213,153.9c0.1,0.3,0.1,0.1,0.3,0c0.1-0.6,0.4-1.4,0.6-2c0.5-1.1,0.9-2.1,1-3.3c0.1-0.4,0.4-0.6,0.8-0.8
	c0.9-0.1,1.6-0.1,2.1,0.1c0.1,0,0.1,0.1,0.1,0.3c-0.4,1.1-1,2.4-1.9,3.9c-0.4,0.8-0.8,1.6-1.3,2.8c-0.3,0.8-0.5,1.6-0.5,2.5
	c0,1.1-0.1,2.4-0.1,3.5c0,0.1-0.1,0.3-0.1,0.3c-0.8,0.1-1.5,0.1-2.3,0c-0.1,0-0.3-0.1-0.3-0.3c-0.3-1.4-0.3-2.6-0.1-3.8
	c0-0.5,0-1-0.3-1.5c-0.3-0.4-0.3-0.6-0.3-0.6c-1-2.3-2-4.5-3.1-6.8c-0.1-0.1,0-0.4,0.1-0.5l0,0c0.8-0.4,1.4-0.4,1.9,0
	c0.4,0.3,0.6,0.6,1,1.4C211.5,150.9,212.3,152.4,213,153.9z"/>
<path class="st0" d="M584,157.8c1.3,0.3,1.8,1.1,1.5,2.5c-0.1,0.9-0.5,1.5-1.3,1.8c-1.9,0.8-3.8,0.9-5.8,0.5c-0.1,0-0.1-0.1-0.3-0.3
	c-0.1-2.9-0.1-6,0-9.3c0-0.1,0.1-0.3,0.3-0.3l0,0c1.1,0.1,2.1,0.1,3.1,0.1c0.9,0,1.6,0.1,2.3,0.6c1.1,0.8,1.4,1.8,0.6,3
	c-0.3,0.4-0.5,0.8-0.6,1.1C583.8,157.7,583.8,157.8,584,157.8L584,157.8z M582.3,154.7c-0.5-0.1-1.1-0.1-2.1,0
	c-0.1,0-0.3,0.1-0.3,0.3v1.8c0,0.1,0.1,0.3,0.3,0.3c0.6,0.1,1.3,0.1,1.8-0.1c0.5-0.1,0.8-0.4,1-0.8
	C583.3,155.4,583.1,154.9,582.3,154.7z M582.8,158.6l-2.3-0.3c-0.3,0-0.4,0.1-0.4,0.4c-0.1,0.9-0.1,1.6,0,2.4c0,0.1,0.1,0.3,0.3,0.3
	c0.3,0,0.4,0,0.6,0c0.1,0,0.5,0,0.8,0c1.1,0,1.8-0.5,1.8-1.8C583.5,158.9,583.2,158.7,582.8,158.6z"/>
<path class="st0" d="M223.8,165.1c-0.3,0-0.4-0.3-0.4-0.5V155c0-0.1,0.1-0.3,0.1-0.3c2-0.3,3.9-0.1,5.8,0.3c0.4,0.1,0.8,0.4,0.9,0.8
	c0.6,1.4,0.4,2.4-0.8,3.3c-0.3,0.3-0.3,0.4,0.1,0.5c0.4,0.1,0.8,0.4,1,0.9c1,1.5,0.8,2.9-0.8,4c-0.6,0.4-1.3,0.8-1.9,0.8
	c-0.3,0-1,0-2,0C225.2,165.2,224.5,165.2,223.8,165.1z M225.8,158.8c0.6,0.1,1.1,0,1.8-0.1c0.4-0.1,0.6-0.3,0.9-0.5
	c0.3-0.4,0.3-0.8,0.1-1.1s-0.5-0.6-1-0.8c-0.6-0.1-1.3-0.3-1.9-0.1c-0.1,0-0.3,0.1-0.3,0.3v1.9C225.5,158.6,225.6,158.7,225.8,158.8
	z M225.8,163.3c1,0.3,2,0,2.9-0.5c0.1-0.1,0.1-0.1,0.3-0.3c0.3-0.6,0.1-1.1-0.1-1.5c-0.3-0.4-0.8-0.5-1.4-0.6c-0.5,0-1.1,0-1.6,0
	c-0.1,0-0.3,0.1-0.3,0.3c-0.3,0.6-0.3,1.5,0,2.4C225.6,163.2,225.7,163.3,225.8,163.3z"/>
<path class="st0" d="M501.5,184c-0.4-0.3-0.8-0.6-1-0.9c-0.1-0.1-0.1-0.1-0.3,0l-3.5,3.1c-0.1,0.1-0.3,0.1-0.4,0.1
	c-0.4,0-0.4-0.3,0-0.6c0.5-0.8,1.1-1.4,1.9-2c0.6-0.5,1.1-1,1.5-1.5c0.3-0.4,0.6-0.4,1-0.1c1.1,1.1,2.4,2.4,3.5,3.5
	c0.1,0.1,0.3,0.3,0.3,0.4c0,0.3-0.1,0.4-0.4,0.4c-0.1,0-0.3-0.1-0.4-0.3c-0.4-0.4-0.6-0.6-1-1C502.2,184.8,501.8,184.4,501.5,184z"
	/>
<path class="st0" d="M506.2,192.2c-0.1-0.1-0.3-0.3-0.3-0.4l0.4-4c0-0.1,0.1-0.3,0.1-0.3c0.6-0.3,1.3-0.3,1.9,0
	c0.1,0,0.1,0.1,0.1,0.3c-0.3,1.4-0.5,2.6-1,4c-0.1,0.4-0.3,0.5-0.4,0.6C506.9,192.5,506.6,192.5,506.2,192.2z"/>
<path class="st0" d="M499.8,192.8c0.1,0.3,0.1,0.3,0.3,0l2-4.6c0-0.1,0.1-0.3,0.3-0.3c0.6-0.3,1.3-0.3,1.9,0c0.1,0,0.1,0.1,0.1,0.3
	c-0.6,1.8-1.4,3.4-2.1,5.1c0,0-0.3,0.5-0.8,1.3c-0.4,0.6-0.5,1.4-0.5,2.1s0.1,1.6,0.1,2.4c0,0.4-0.3,0.6-0.8,0.5c-0.1,0-0.3,0-0.4,0
	c-1,0.3-1.4-0.1-1.1-1.1c0.1-0.4,0.1-1.1,0-2.4c-0.1-0.6-0.3-1.3-0.6-1.9c-0.9-1.6-1.6-3.3-2.3-4.9c-0.3-0.5-0.4-0.9-0.4-0.9
	c0-0.4,0.3-0.8,0.9-0.9c0.6-0.1,1,0.1,1.3,0.6L499.8,192.8z"/>
<path class="st0" d="M510.6,200.9l-0.6,1.9c0,0.1-0.1,0.3-0.3,0.3h-1.5c-0.3,0-0.4-0.1-0.3-0.4v-0.1c0.9-2.3,1.6-4.5,2.4-6.9
	c0,0,0-0.3,0.1-0.6c0.1-0.8,0.8-1.1,1.6-1c0.9,0.1,1.4,0.5,1.5,1.4c0.5,2.4,1.3,4.8,2.3,7.2c0.1,0.1,0,0.4-0.1,0.4l0,0
	c-0.8,0.3-1.1,0.3-1.3,0.3c-0.5-0.3-0.8-0.6-0.8-1.1c-0.1-0.9-0.5-1.4-1-1.3c-0.4,0-0.5,0-0.6,0c-0.4,0-0.9,0-1.3,0
	C510.8,200.8,510.6,200.8,510.6,200.9z M511.8,196.4l-0.8,2.5c0,0.1,0,0.3,0.1,0.4l0,0c0.6,0.1,1.1,0.1,1.5-0.1
	c0.1,0,0.1-0.1,0.1-0.3c-0.1-0.9-0.3-1.6-0.4-2.4C512.1,195.5,511.9,195.5,511.8,196.4z"/>
<path class="st0" d="M760,203.5c-0.1-0.3,0-0.5,0.3-0.8c1.4-1.1,2.4-2.3,3.3-3.4c0.5-0.6,1.1-0.6,1.8-0.1c0.6,0.6,1.1,1.3,1.6,1.9
	c0.5,0.6,1.1,1.3,1.8,1.8c0.1,0.1,0.1,0.1,0.1,0.3c0,0.3,0,0.5-0.4,0.5s-0.6-0.1-0.9-0.4l-3.3-3.1c-0.1-0.1-0.4-0.1-0.5,0
	c0,0,0,0,0,0.1c-0.6,1-1.4,1.9-2.4,2.5c-0.1,0-0.1,0.1-0.3,0.3c-0.3,0.4-0.5,0.5-0.9,0.5C760.2,203.6,760,203.6,760,203.5z"/>
<path class="st0" d="M248.7,205c-0.4-0.3-0.8-0.3-1.1,0.1c-0.6,0.8-1.3,1.5-1.8,2.3c-0.5,0.8-1.1,1.1-1.6,1.3
	c-0.9,0.1-1-0.1-0.5-0.6c1.4-1.6,2.9-3,4.4-4.5c0.1-0.1,0.3-0.1,0.3,0c1.3,1.1,2.4,2.4,3.6,3.5c0,0,0.1,0.1,0.5,0.4
	c0.3,0.3,0.5,0.5,0.5,0.9c0.1,0.5-0.1,0.6-0.5,0.4c-1.3-0.6-2.3-1.6-3-2.8C249.2,205.4,248.9,205.1,248.7,205z"/>
<path class="st0" d="M770.7,204.9c0-0.1,0.1-0.3,0.3-0.3h1.9c0.3,0,0.5,0.3,0.5,0.5v0.1l-1,3.8c-0.1,0.4-0.4,0.6-0.8,0.8
	c-0.8,0.1-1.1,0.1-1.3-0.1c0,0,0-0.4,0-0.9C770.6,207.5,770.7,206.2,770.7,204.9z"/>
<path class="st0" d="M763.2,217.8c-0.3,0-0.4-0.1-0.4-0.4l0,0c0-1,0-2.1,0-3.1c0-0.8-0.3-1.4-0.5-2c-0.5-1-1-2.1-1.5-3.1
	c-0.5-1-1-2-1.3-3.1c-0.1-0.3,0-0.5,0.3-0.5l0,0c0.8-0.1,1.3-0.1,1.8,0.1c0.3,0.1,0.6,0.6,0.9,1.3c0.5,1.3,1,2.5,1.4,3.8
	c0.1,0.5,0.4,0.5,0.5,0c0.4-0.9,0.6-1.9,1.1-2.8c0,0,0.1-0.4,0.4-1.1c0.5-1.3,1.4-1.8,2.8-1.4c0.1,0,0.3,0.3,0.3,0.4l0,0
	c-1,2-1.9,4-2.8,6c0,0-0.1,0.4-0.5,1c-0.3,0.5-0.4,1.1-0.4,1.8c0.1,0.9,0.1,1.9,0,3c0,0.1-0.1,0.3-0.1,0.3L763.2,217.8z"/>
<path class="st0" d="M257.2,209.4c0.4,0.1,0.5,0.4,0.5,0.8l0,0l-1,4.4c-0.1,0.4-0.4,0.6-0.6,0.6c-0.8,0.1-1.3,0-1.4-0.4
	c0,0,0-0.4,0-1.1c0-1.4,0.1-2.6,0.4-4c0-0.1,0.1-0.3,0.3-0.3C256,209.4,256.7,209.3,257.2,209.4z"/>
<path class="st0" d="M247.8,215.8c0.1,0.1,0.3,0,0.4,0l0,0l2.1-5.4c0-0.1,0.3-0.3,0.4-0.3h2.1c0.1,0,0.3,0.1,0.3,0.3l0,0
	c-0.1,0.6-0.3,1.1-0.5,1.6c-0.4,0.6-0.6,1-0.6,1c-0.3,0.4-0.4,0.9-0.6,1.3c-0.1,0.3-0.4,0.8-0.6,1.3c-1,1.9-1.5,3.8-1.4,5.8
	c0,0.9,0,1.6,0,2c0,0.1-0.1,0.3-0.3,0.3h-1.9c-0.5,0-0.8-0.3-0.8-0.9c0.1-1.4,0.1-2.6-0.1-3.8c-0.1-0.8-0.6-2-1.4-3.4
	s-1.4-2.8-2.1-4.3c-0.3-0.5-0.1-0.9,0.5-1c0.4,0,1,0,1.8,0.1c0.3,0,0.5,0.3,0.5,0.4c0.6,1.5,1.1,3,1.5,4.4c0.1,0.3,0.1,0.4,0.3,0.5
	C247.6,215.6,247.7,215.8,247.8,215.8z"/>
<path class="st0" d="M775.3,219.2l-0.4,1.4c-0.1,0.4-0.4,0.6-0.8,0.8c-1.1,0.1-1.5,0-1.3-0.5c0.3-0.5,0.4-0.8,0.4-0.9
	c0.5-2.6,1.4-5.3,2.5-7.8c0-0.1,0.1-0.3,0.3-0.3c0.8-0.3,1.4-0.3,2,0.1c0.1,0,0.1,0.1,0.3,0.3c0.5,1.4,1,2.9,1.5,4.3
	c0.5,1.5,1,3,1.1,4.4c0,0.3-0.1,0.4-0.4,0.4l0,0c-1.3,0.1-1.9-0.4-1.9-1.4c0-0.6-0.4-1-1-1l-2.1,0.1
	C775.5,219,775.3,219.1,775.3,219.2z M776.6,217.5c0.9,0.1,1.3-0.1,1.1-0.9c-0.1-0.5-0.1-0.6-0.1-0.6c0-0.5-0.1-1.1-0.1-1.6
	c-0.1-0.6-0.3-0.8-0.5-0.4c-0.1,0.1-0.1,0.3-0.1,0.4c-0.1,0.6-0.3,1.1-0.5,1.6s-0.3,1,0,1.4C776.4,217.3,776.5,217.3,776.6,217.5z"
	/>
<path class="st0" d="M60.7,217.5c0.6-1.6,1.4-3.3,2.1-5c0.3-0.6,0.8-0.8,1.5-0.5c0.1,0,0.3,0,0.4,0c0.3,0,0.6,0,0.8,0.3
	c0.1,0.1,0.1,0.1,0,0.3c-1,1.9-1.9,3.8-2.6,5.8c-0.1,0.3-0.4,0.6-0.6,1.3c-0.3,0.5-0.5,1-0.5,1.4c0,1.5,0,2.9,0,4.4
	c0,0.1-0.1,0.3-0.1,0.3l0,0l-2.1-0.1c-0.1,0-0.1-0.1-0.1-0.3c0-1.3,0-2.5,0-3.6c0-0.8-0.1-1.4-0.5-2c-0.3-0.4-0.3-0.5-0.3-0.5
	c-1.1-2.1-2.1-4.4-3-6.7c0-0.1,0-0.3,0.1-0.3c0,0,0,0,0.1,0h2.1c0.3,0,0.5,0.1,0.6,0.4l2,5.1C60.5,217.8,60.6,217.8,60.7,217.5z"/>
<path class="st0" d="M445.7,221.5c1.6,0.8,2,2.1,1.5,4.3c-0.1,0.5-0.4,1-0.9,1.4c-0.9,0.9-2,1.1-3.4,0.8c-0.6-0.1-1.3-0.4-1.9-0.5
	c-0.3-0.1-0.3,0-0.3,0.3c0.3,1.1,0.4,2.3,0.3,3.3c0,0.1-0.1,0.3-0.3,0.3c-0.8,0.1-1.5,0.1-2.3,0c-0.1,0-0.1-0.1-0.1-0.3
	c0-3,0-5.9,0-8.9c0,0,0-0.8,0-2.1c0-1.1,0-1.9,0.3-2.4c0.3-1,1-1.6,2.3-2.1c1.4-0.5,2.5-0.5,3.6,0.1c1,0.5,1.5,1.3,1.6,2.1
	c0.1,1-0.1,1.9-0.9,2.9C445.1,220.8,445.2,221.2,445.7,221.5z M442.3,222.1c-0.3-0.9-0.1-1.5,0.5-1.9s0.9-0.5,0.9-0.5
	c0.8-0.6,0.8-1.4,0.3-2.4c0-0.1-0.1-0.3-0.3-0.3c-1-0.5-1.6-0.4-2.1,0.3c-0.3,0.4-0.4,0.9-0.5,1.8c-0.1,1.5-0.1,3.1-0.1,4.6
	c0,0.8,0.1,1.4,0.5,1.8c0.5,0.6,1.1,0.9,1.9,0.8s1.3-0.5,1.6-1c0.4-0.6,0.4-1.4,0-2.1c0-0.1-0.1-0.1-0.3-0.3
	c-0.6-0.4-1.4-0.5-2.1-0.6C442.5,222.2,442.3,222.1,442.3,222.1z"/>
<path class="st0" d="M257.5,227.1c-0.1,0-0.3-0.1-0.1-0.4c0.9-3.3,1.9-6.5,3-9.5c0-0.1,0.1-0.3,0.3-0.3l1.9-0.1
	c0.3,0,0.4,0.1,0.5,0.4c0.9,2.3,1.6,4.5,2.1,6.8c0.1,0.5,0.3,1,0.4,1.5c0.1,0.5,0.4,1,0.5,1.4c0,0.1,0,0.4-0.3,0.4l0,0
	c-1.3,0.3-1.9-0.1-2.1-1.1c-0.1-0.6-0.3-1-0.3-1.1c-0.3-0.3-0.5-0.4-0.9-0.4c-0.5,0-0.8,0-0.9,0c-0.5,0-1,0-1.4,0.1
	c-0.1,0-0.3,0.1-0.3,0.3c-0.1,0.5-0.3,0.9-0.5,1.4c-0.1,0.5-0.4,0.8-0.8,0.9C258.4,227.2,258,227.2,257.5,227.1z M260.7,222.7
	l1.3,0.3c0.5,0.1,0.8-0.1,0.6-0.6c-0.3-1-0.5-2-0.8-2.9c0-0.3-0.1-0.3-0.3-0.3s-0.1,0.1-0.3,0.3c-0.1,0.8-0.3,1.5-0.4,2.4
	c0,0.4-0.1,0.6-0.3,0.8C260.5,222.6,260.5,222.6,260.7,222.7z"/>
<path class="st0" d="M283.7,280.1c-0.6-0.6-1.3-0.6-1.8,0.1c-0.9,1-1.8,1.9-2.8,2.5c-0.5,0.4-0.8,0.3-0.5-0.4s0.6-1,1.1-1.3
	c0.6-0.4,1.1-0.9,1.6-1.5c0.3-0.5,0.8-0.9,1.3-1.3c0.3-0.1,0.5-0.1,0.8,0.1c0.5,0.5,0.9,1,1.4,1.6c0.5,0.8,1.1,1.3,2,1.6
	c0.4,0.3,0.5,0.6,0.4,1c-0.3,0.4-0.4,0.4-0.8,0.1c-0.1-0.1-0.3-0.3-0.3-0.3C285.1,281.5,284.4,280.7,283.7,280.1z"/>
<path class="st0" d="M289.9,288.7c-0.3,0-0.5-0.4-0.5-0.6l0.3-4.1c0-0.3,0.3-0.4,0.4-0.4l1.6,0.1c0.1,0,0.3,0.1,0.3,0.3l0,0
	c-0.1,1.3-0.3,2.4-0.4,3.4C291.4,288.4,290.8,288.9,289.9,288.7z"/>
<path class="st0" d="M283.4,292.5c-0.5-0.9-0.9-0.9-1.3,0l-1.1,3.1c0,0.1-0.1,0.1-0.3,0.1l-2,0.1c-0.5,0-0.6-0.1-0.4-0.5l3-5.1
	c0.3-0.4,0.3-0.8,0-1.1c-1-1.4-1.9-2.9-2.6-4.4c-0.3-0.5-0.1-0.8,0.3-0.6c0.3,0,0.4,0,0.5,0c0.4,0,0.9,0,1.5,0.1
	c0.1,0,0.4,0.1,0.4,0.4c0.4,1.1,0.8,2.3,1.4,3.3c0.3,0.4,0.5,0.4,0.6,0l1.4-3.1c0.1-0.1,0.3-0.3,0.4-0.3h2c0.1,0,0.1,0.1,0.1,0.1
	l0,0c0,0.4-0.1,0.6-0.4,0.9c-0.3,0.4-0.5,0.6-0.5,0.8c-0.4,0.8-0.6,1.3-0.9,1.5c-0.9,1.1-1.1,2.3-0.6,3.4c0.3,0.5,1,1.9,2.3,3.9
	c0.1,0.1,0.1,0.3,0.3,0.4c0.5,0.4,0.4,0.5-0.1,0.5c-0.1,0-0.3,0-0.4,0c-0.5,0.1-1,0.1-1.5,0c-0.1,0-0.3-0.1-0.3-0.3L283.4,292.5z"/>
<path class="st0" d="M295.7,297.2h-2.1c-0.3,0-0.5,0.3-0.6,0.5c-0.3,0.8-0.5,1.3-0.9,1.6c-0.1,0.1-0.1,0.1-0.3,0.1
	c-0.8,0.1-1-0.3-0.8-1.1c0.5-1.4,1-3.1,1.5-5.3c0.1-0.5,0.4-1.1,0.8-1.9c0-0.1,0-0.3,0-0.4c0-0.3,0.1-0.4,0.4-0.5
	c0.6-0.1,1.3-0.1,1.9,0c0.1,0,0.3,0.1,0.3,0.3c0.9,2.4,1.6,4.8,2.5,7c0,0,0.1,0.3,0.3,0.8c0.5,1.1,0,1.5-1.5,0.9
	c-0.1,0-0.3-0.1-0.3-0.3l-0.9-1.6C295.8,297.2,295.7,297.2,295.7,297.2z M294.7,295.6c0.3,0,0.5,0,0.6-0.1c0.1,0,0.1-0.1,0.1-0.3
	c-0.1-0.9-0.3-1.9-0.4-2.8c0-0.1,0-0.1-0.1-0.3s-0.1-0.1-0.3-0.1s-0.3,0.1-0.3,0.3c-0.3,0.9-0.5,1.8-0.8,2.6c-0.1,0.5,0,0.8,0.5,0.6
	C294.4,295.4,294.5,295.4,294.7,295.6z"/>
<path class="st0" d="M62.6,293.5l-3.5,3.8c-0.1,0.1-0.3,0.1-0.3,0.1c-0.8,0-0.9-0.3-0.4-0.6c0.1-0.1,0.3-0.3,0.4-0.4
	c1.1-1.4,2.3-2.8,3.6-3.8c0.3-0.3,0.6-0.3,0.9,0c1.6,1.3,3,2.8,4.1,4.3c0.3,0.4,0.3,0.5-0.1,0.6c-0.1,0-0.3,0-0.4-0.1
	c-0.5-0.4-1-0.8-1.5-1.3c-0.4-0.3-0.8-0.8-1.3-1.4c-0.4-0.5-0.8-0.9-1.3-1.1C62.7,293.4,62.6,293.4,62.6,293.5z"/>
<path class="st0" d="M70.8,304c-0.4-0.1-0.5-0.4-0.5-0.8l0.3-4.5c0-0.1,0-0.3,0.1-0.3c0.3-0.3,0.6-0.4,0.9-0.3
	c0.5,0,0.8,0.1,0.9,0.1c0.8,0,1,0.4,0.8,1c-0.1,0.5-0.3,0.9-0.3,1c-0.3,1.6-0.6,2.8-1,3.3C71.6,304,71.3,304.1,70.8,304z"/>
<path class="st0" d="M62.8,307.2c-0.1-0.4-0.3-0.4-0.4,0c-0.5,1.8-1.4,3.3-2.4,4.8c-0.1,0.1-0.1,0.1-0.3,0.1l-1.8-0.1
	c-0.5,0-0.6-0.3-0.3-0.6c0.5-0.8,1-1.5,1.5-2.4c0.1-0.3,0.4-0.8,0.6-1.4s0.5-1.1,0.8-1.4c0.5-0.5,0.6-1.1,0.3-1.6
	c-0.3-0.4-0.4-0.5-0.4-0.5c-0.8-1.6-1.6-3.3-2.5-4.9c0-0.1,0-0.1,0-0.3l0,0c0.6-0.3,1.3-0.3,1.9-0.1c0.5,0.1,0.9,0.5,1.1,1
	c0.6,1,1.1,2,1.5,3c0.3,0.8,0.5,0.8,0.8,0c0.4-1,0.8-2,1.3-3c0.4-0.8,0.9-1,1.8-1c0.1,0,0.4,0,0.6,0c0.1,0,0.4,0,0.5,0
	c0.1,0,0.1,0.1,0.1,0.3l0,0c-0.8,2-1.6,3.9-2.9,5.7c-0.1,0.1-0.1,0.3-0.1,0.4c0,0.5,0.1,1,0.4,1.4c0.4,0.5,0.6,0.9,0.6,0.9
	c0.8,1.4,1.5,2.9,2.3,4.4c0.1,0.1,0,0.4-0.1,0.4h-0.1c-0.8,0.1-1.5,0-2.3-0.3c-0.1,0-0.3-0.1-0.3-0.3
	C64.2,310.4,63.5,308.9,62.8,307.2z"/>
<path class="st0" d="M555.3,303.1c-0.1-0.1-0.5-0.3-0.6,0l-3.9,3.4c-0.1,0.1-0.3,0.1-0.3-0.1c-0.1-0.5,0-0.9,0.4-1.3
	c0.3-0.3,0.4-0.4,0.4-0.4c0.8-0.8,1.5-1.6,2.4-2.3c0,0,0.3-0.3,0.6-0.8c0.4-0.4,0.8-0.4,1.1,0c0.4,0.5,0.6,0.6,0.6,0.8
	c0.8,0.8,1.8,1.6,2.9,2.9c0.3,0.3,0.3,0.5,0.3,0.8c-0.1,0.5-0.4,0.5-0.9,0C557.4,305,556.2,304,555.3,303.1z"/>
<path class="st0" d="M353.4,304.7c-0.1,0.3-0.3,0.4-0.6,0.6c-0.3,0.3-0.5,0.4-0.6,0.5c-0.6,0.6-1.4,1.3-2,1.9
	c-0.1,0.1-0.3,0.1-0.3,0l0,0c-0.1-0.1-0.1-0.4-0.1-0.6s0.1-0.5,0.4-0.8l3.4-3.3c0.1-0.1,0.3-0.1,0.3,0c0.4,0.1,0.6,0.4,0.9,0.8
	c0.8,0.9,1.6,1.6,2.4,2.3c0.4,0.3,0.6,0.5,0.8,0.9c0.3,0.6,0.1,0.9-0.4,0.8c-0.1,0-0.3-0.1-0.3-0.1c-0.9-1-1.9-2-3.3-2.9
	C353.9,304.3,353.7,304.5,353.4,304.7C353.5,304.6,353.4,304.6,353.4,304.7z"/>
<path class="st0" d="M71.9,316c-0.1,0-0.3-0.3-0.3-0.4l0,0c1.1-3,2.1-6.2,2.9-9.3c0-0.1,0.1-0.3,0.3-0.3c0.8-0.5,1.5-0.5,2.4-0.3
	c0.1,0,0.3,0.1,0.3,0.3c0.9,2.5,1.8,4.9,2.5,7.4c0,0,0.1,0.4,0.4,1c0.1,0.5,0.3,0.9,0.3,1.4c0,0.1-0.1,0.3-0.1,0.3
	c-1.5,0.5-2.4-0.1-2.5-1.8c0-0.5-0.4-0.8-0.9-0.8h-2.4c-0.3,0-0.5,0.3-0.5,0.5l-0.4,1.6c0,0.1-0.1,0.3-0.3,0.3
	C73,316.2,72.4,316.2,71.9,316z M75.9,307.7c-0.1,0-0.3,0.1-0.3,0.3c-0.1,1-0.4,2-0.8,3c-0.1,0.3,0,0.5,0.3,0.5
	c0.5,0.3,1,0.3,1.6,0.1c0.3,0,0.4-0.3,0.4-0.5l0,0c-0.4-1.1-0.6-2.4-1.1-3.5C76,307.5,76,307.5,75.9,307.7
	C76,307.6,75.9,307.7,75.9,307.7z"/>
<path class="st0" d="M562.3,307.6c0-0.3,0.3-0.4,0.4-0.4h1.9c0.1,0,0.1,0.1,0.1,0.1l0,0c-0.1,1.6-0.5,3.1-1,4.5
	c-0.1,0.4-0.3,0.6-0.5,0.8c-0.3,0.3-0.6,0.1-0.9-0.1c-0.1-0.1-0.1-0.1-0.1-0.3C562,310.8,562,309.2,562.3,307.6z"/>
<path class="st0" d="M554.8,316.2c-0.4,0-0.5,0.3-0.6,0.6c-0.4,1.3-1,2.3-1.6,3.4c-0.1,0.1-0.1,0.1-0.3,0.3c-0.6,0.1-1.4,0.1-2,0
	c-0.1,0-0.1-0.1-0.1-0.1l0,0l3-5.9c0.1-0.1,0.1-0.4,0-0.5l-2.6-5.4c0-0.1,0-0.3,0.1-0.3c0.8-0.4,1.5-0.4,2.3,0
	c0.1,0,0.1,0.1,0.3,0.3l1.8,3.4c0.1,0.3,0.4,0.3,0.5,0c0.3-0.6,0.5-1.1,0.8-1.8c0.4-1,0.8-1.5,0.8-1.5c0.4-0.4,1-0.5,1.9-0.5
	c0.8,0,0.9,0.3,0.4,0.8c-0.1,0.1-0.3,0.4-0.4,1c-0.5,1.3-1.1,2.5-1.9,3.6c-0.4,0.5-0.4,1,0,1.5c0.4,0.4,0.5,0.6,0.5,0.6
	c0.9,1.5,1.6,3,2.4,4.6c0,0.1,0,0.3-0.1,0.3c0,0,0,0-0.1,0c-0.6,0-1.1,0-1.5-0.1c-0.5-0.1-0.9-0.4-1.1-0.8c-0.8-1-1.3-2.1-1.6-3.3
	C555.1,316.3,555,316.2,554.8,316.2z"/>
<path class="st0" d="M362.7,308.5c0.1,0,0.1,0.1,0.1,0.3c-0.1,1.4-0.5,2.8-1,4c-0.1,0.4-0.3,0.5-0.5,0.6c-0.3,0.1-0.4,0.1-0.6,0
	c-0.1,0-0.1-0.1-0.1-0.3c-0.1-1.5,0-2.9,0.3-4.4c0-0.1,0.1-0.3,0.3-0.3C361.6,308.4,362.2,308.4,362.7,308.5z"/>
<path class="st0" d="M353.9,316.7c-0.3-0.5-0.4-0.5-0.5,0c-0.4,1.4-0.9,2.6-1.8,3.8c-0.1,0.1-0.1,0.1-0.3,0.3
	c-0.6,0.3-1.3,0.3-1.9,0c-0.1,0-0.1-0.1-0.1-0.3l0,0c0.8-1.8,1.6-3.5,2.8-5.3c0.3-0.4,0.3-0.8,0-1.1c-0.9-1.3-1.6-2.8-2.4-4.5
	c-0.1-0.3,0-0.4,0.3-0.5c0,0,0,0,0.1,0c0.8-0.1,1.4-0.1,1.9,0.1c0.1,0,0.3,0.1,0.3,0.3l1.3,2.6c0.4,0.8,0.8,0.8,1,0
	c0.4-0.9,0.8-1.6,1-2.3c0.3-0.5,0.8-0.8,1.3-0.8c0.1,0,0.4,0,0.8,0c0.5,0,0.6,0.4,0.4,1c-0.6,1.4-1.3,2.6-2.1,3.8
	c-0.5,0.6-0.5,1.4,0,2c1,1.5,1.9,3,2.5,4.6c0,0.1,0,0.3-0.1,0.3c-0.5,0.3-1,0.3-1.5,0.1c-0.4-0.1-0.8-0.4-1.1-0.9
	C354.9,318.9,354.3,317.8,353.9,316.7z"/>
<path class="st0" d="M563.5,323.9c-0.1,0-0.3-0.1-0.3-0.4v-0.1l2.9-9c0-0.1,0.1-0.3,0.3-0.3l2-0.1c0.1,0,0.3,0.1,0.3,0.3l3,9.3
	c0,0.1,0,0.3-0.1,0.4c0,0,0,0-0.1,0h-1.5c-0.1,0-0.1-0.1-0.3-0.3l-0.6-1.9c0-0.1-0.1-0.1-0.3-0.3c-0.9-0.3-1.8-0.3-2.6,0
	c-0.1,0-0.3,0.1-0.3,0.3l-0.6,1.9c0,0.1-0.1,0.3-0.3,0.3L563.5,323.9z M566.6,319.8c0.6,0.3,1.3,0.3,1.9-0.1c0.1,0,0.1-0.1,0.1-0.3
	c-0.4-1-0.6-2-1-3.1c0-0.1-0.1-0.3-0.1-0.3c-0.1-0.1-0.3-0.1-0.4,0.1c-0.3,1-0.5,2-0.8,3.3C566.4,319.7,566.5,319.8,566.6,319.8z"/>
<path class="st0" d="M363.5,324.1c-0.4,0-0.6-0.3-0.6-0.6l0.1-8.3c0-0.1,0.1-0.3,0.3-0.3c1.1,0,2.1,0,3.1,0s1.8,0.3,2.3,0.6
	c0.8,0.6,0.9,1.5,0.4,2.8c-0.1,0.4-0.3,0.6-0.3,0.8c0,0.3,0.1,0.5,0.5,0.8c0.3,0.1,0.4,0.3,0.4,0.5c0.1,0.5,0.1,1,0.1,1.5
	c0,0.5-0.3,0.9-0.6,1.3c-0.8,0.6-1.4,1-2.1,1C365.7,324.2,364.5,324.2,363.5,324.1z M367.5,316.9c0-0.4-0.3-0.6-0.6-0.6l0,0h-1.4
	c-0.4,0-0.6,0.3-0.6,0.6v1.1c0,0.4,0.3,0.6,0.6,0.6h1.4c0.4,0,0.6-0.3,0.6-0.6l0,0V316.9z M367,320c-0.4-0.1-0.6-0.1-1-0.1
	c0,0-0.3,0-0.5,0c-0.5,0-0.6,0.3-0.6,0.8s0,1,0,1.5c0,0.5,0.1,0.8,0.6,0.8c0.3,0,0.4,0,0.5,0c1.1,0.1,1.9-0.4,2.3-1.6
	C368.2,320.7,367.9,320.2,367,320z"/>
<path class="st0" d="M23.3,324.7c0.5,0.5,0.9,0.9,1.4,1.4c0.1,0.1,0.1,0.3,0.1,0.4c0.1,1-0.1,1.1-0.8,0.4c-1-1.1-2.3-2.3-3.6-3.5
	c-0.1-0.1-0.3-0.1-0.3,0l-4.1,3.8c0,0-0.1,0-0.3,0l0,0c-0.3-0.4-0.3-0.8,0.1-1c1.4-1.4,2.9-2.8,4.1-4.1c0.1-0.1,0.4-0.1,0.5,0
	c0.5,0.5,1,1,1.4,1.4C22.4,323.8,22.9,324.2,23.3,324.7z"/>
<path class="st0" d="M29.1,333.7c-1.3,0.1-1.8-0.3-1.6-1.1c0.3-1.4,0.4-2.8,0.4-4.1c0-0.1,0-0.3,0.1-0.3c0.3-0.1,0.5-0.3,0.9-0.3
	c0.5,0,0.8,0,0.9,0c0.8,0,1,0.4,0.9,1.1c-0.1,0.4-0.1,0.6-0.1,0.6c-0.3,1.3-0.5,2.5-0.9,3.8C29.4,333.6,29.3,333.7,29.1,333.7z"/>
<path class="st0" d="M20,337.4c-0.9,1.4-1.5,2.6-2.1,4c-0.1,0.4-0.5,0.5-0.8,0.5h-1.9c-0.1,0-0.3-0.1-0.3-0.3v-0.1l3-6.2
	c0.1-0.3,0.1-0.6,0-1l-2.8-5.7c-0.1-0.1,0-0.4,0.1-0.5c0,0,0,0,0.1,0c0.3,0,0.5-0.1,0.9,0c0,0,0.3,0,0.8,0s0.9,0.3,1.1,0.8
	c0.8,1.3,1.4,2.4,2,3.6c0.1,0.1,0.3,0.1,0.3,0l2.1-4.1c0-0.1,0.1-0.1,0.3-0.1h1.8c0.3,0,0.4,0.1,0.4,0.4c0,0.1,0,0.1,0,0.1l-3,6
	c-0.1,0.1-0.1,0.3,0,0.4l3.3,6.2c0.1,0.1,0,0.3-0.1,0.4H25l-1.4,0.1c-0.6,0-1-0.1-1.3-0.6l-2-4.1C20.1,337.2,20.1,337.2,20,337.4z"
	/>
<path class="st0" d="M36.7,340.5l0.6,0.3c0.1,0,0.1,0.1,0.3,0.3c0.3,0.6,0.4,1.4,0.3,2.4c-0.1,1.1-0.8,1.9-1.8,2
	c-1.6,0.3-3.4,0.4-5.4,0.3c-0.1,0-0.3-0.1-0.3-0.3c-0.1-2.9-0.1-5.8-0.1-8.8c0,0,0-0.3,0-0.6c0-0.5,0.1-0.8,0.6-0.8
	c0.5,0,0.8,0,0.8,0c1.5-0.1,2.9,0,4.1,0.4c0.4,0.1,0.8,0.4,1.1,0.6c0.3,0.3,0.5,0.8,0.5,1.1c0.1,1-0.1,1.9-1,2.6
	c-0.1,0.1-0.1,0.3,0,0.4C36.6,340.5,36.7,340.5,36.7,340.5z M32.7,339.4c0.8,0.4,1.5,0.3,2.1-0.4c0.8-0.5,0.8-1.1,0.1-1.6
	c-0.4-0.4-0.9-0.5-1.4-0.5c-1.1,0-1.5,0.6-1.1,2C32.5,339.1,32.6,339.3,32.7,339.4z M32.6,344c0.6,0.1,1.4,0,2.3-0.1
	c0.3,0,0.4-0.1,0.5-0.3c0.5-0.5,0.8-1,0.5-1.5c-0.1-0.4-0.5-0.6-1-0.8c-0.6-0.3-1.4-0.4-2-0.3c-0.1,0-0.3,0.1-0.3,0.1
	c-0.3,0.9-0.4,1.8-0.3,2.6C32.3,344,32.5,344,32.6,344z"/>
<path class="st0" d="M702.5,348.6c0.6-0.8,1.3-1.4,2-2c0.3-0.1,0.5-0.1,0.8,0.1l0,0c0.9,1.1,1.9,2.1,3,2.9c0.6,0.5,0.9,1,1,1.8
	c0,0.5-0.1,0.6-0.5,0.3c-1.1-1-2.1-2.1-3.1-3.1c-0.5-0.6-1.1-0.6-1.8,0c-1,1-2,2-2.9,3.1c-0.1,0.1-0.3,0.1-0.3,0.1
	c-0.4-0.1-0.4-0.4-0.1-0.9c0.3-0.4,0.5-0.8,1-1.1C701.9,349.1,702.3,348.8,702.5,348.6z"/>
<path class="st0" d="M712.1,357.6c-0.1,0-0.3-0.1-0.3-0.3l0.3-4.8c0-0.1,0.1-0.3,0.1-0.3l1.6-0.3c0.3,0,0.5,0.1,0.5,0.4v0.1
	c-0.3,1.6-0.6,3.3-1.1,4.6c0,0.1-0.1,0.3-0.3,0.3C712.8,357.6,712.4,357.7,712.1,357.6z"/>
<path class="st0" d="M705,361.2c-0.3-0.6-0.5-0.6-0.8,0c-0.5,1.4-1.1,2.8-1.9,4c-0.1,0.1-0.1,0.1-0.3,0.1h-1.8
	c-0.6,0-0.8-0.3-0.4-0.8c1-1.5,1.9-3.1,2.6-4.9c0.3-0.5,0.3-1,0.1-1.5c-0.3-0.9-0.5-1.6-1.1-2.4c-0.6-0.9-1.1-1.8-1.6-2.8
	c-0.1-0.1,0-0.4,0.1-0.5l0,0c1.4-0.5,2.3-0.3,2.8,1c0.5,1,1,2,1.5,3c0.3,0.5,0.5,0.5,0.8,0l1.4-3.5c0-0.1,0.1-0.3,0.3-0.3l2.3-0.1
	c0.4,0,0.4,0.1,0.3,0.4l-3,5.5c-0.1,0.3-0.1,0.5,0,0.6c0.6,1,1.1,2,1.8,3c0,0,0.3,0.5,0.9,1.4c0.3,0.5,0.5,1,0.6,1.5
	c0,0.1,0,0.3-0.1,0.3c-0.8,0.1-1.4,0.1-2.1,0c-0.4-0.1-0.6-0.3-0.8-0.6L705,361.2z"/>
<path class="st0" d="M720.6,364.1c0.5,0.4,0.9,0.9,1,1.5c0.1,0.5,0.1,1.1-0.3,1.6c-0.6,1.4-1.9,2-3.6,1.9c-1,0-2.1,0-3.1,0
	c-0.1,0-0.3-0.1-0.3-0.3l0,0l-0.1-9.3c0-0.3,0.3-0.5,0.5-0.5l0,0c1,0,2.1,0,3.3,0.1c1,0,1.8,0.3,2.3,0.6c0.8,0.6,1,1.5,0.8,2.6
	c0,0.1-0.1,0.3-0.1,0.3c-0.3,0.3-0.5,0.6-0.5,1C720.3,363.9,720.5,364,720.6,364.1z M716.8,363.4c0.4,0.1,0.8,0.1,1.3,0
	c0.4-0.1,0.8-0.3,1-0.6c0.5-0.8,0.4-1.4-0.4-1.9c-0.3-0.1-0.5-0.1-0.9-0.1s-0.6,0-0.9-0.1c-0.3,0-0.4,0.1-0.5,0.3l0,0l-0.1,1.6
	C716.3,363,716.6,363.2,716.8,363.4z M719.3,365.1c-1-0.4-1.8-0.4-2.5-0.4c-0.1,0-0.3,0.1-0.3,0.3c-0.1,0.8-0.1,1.5,0,2.1
	c0,0.1,0.1,0.3,0.3,0.3c1,0.3,1.9,0.1,2.5-0.3c0.8-0.5,1-1,0.5-1.8C719.6,365.3,719.5,365.1,719.3,365.1z"/>
<line class="st1" x1="361.2" y1="190.5" x2="361.2" y2="71"/>
<line class="st1" x1="636.5" y1="190.5" x2="636.5" y2="71"/>
</svg>
