<svg xmlns="http://www.w3.org/2000/svg" xmlns:xlink="http://www.w3.org/1999/xlink" fill="none" version="1.1" width="508" height="286" viewBox="0 0 508 286"><defs><clipPath id="master_svg0_175_01596"><rect x="0" y="0" width="508" height="286" rx="0"/></clipPath><clipPath id="master_svg1_175_01676"><rect x="61" y="90" width="107" height="107" rx="0"/></clipPath></defs><g clip-path="url(#master_svg0_175_01596)"><rect x="0" y="0" width="508" height="286" rx="0" fill="#27343E" fill-opacity="1"/><g clip-path="url(#master_svg1_175_01676)"><g><path d="M81.847495,119.957109375C80.244055,119.957109375,79.17510300000001,118.352109375,79.17510300000001,116.747109375C79.17510300000001,115.142109375,80.244055,113.537109375,82.381975,113.537109375L94.140525,113.537109375C95.743925,113.537109375,97.347325,114.607109375,97.347325,116.747109375C97.347325,118.352109375,96.278425,119.957109375,94.140525,119.957109375L81.847495,119.957109375ZM81.847495,155.267109375C80.244055,155.267109375,78.640625,154.197109375,78.640625,152.057109375C78.640625,150.452109375,79.709585,148.847109375,81.847495,148.847109375L111.243825,148.847109375C112.84722500000001,148.847109375,114.450625,149.917109375,114.450625,152.057109375C114.450625,153.662109375,113.381725,155.267109375,111.243825,155.267109375L81.847495,155.267109375ZM126.209125,134.402109375C126.209125,136.007109375,125.140225,137.612109375,123.002325,137.612109375L81.847495,137.612109375C80.244055,137.612109375,78.640625,136.542109375,78.640625,134.402109375C78.640625,132.797109375,79.709585,131.192109375,81.847495,131.192109375L123.53672499999999,131.192109375C125.140225,131.727109375,126.209125,132.797109375,126.209125,134.402109375Z" fill="#55A4F1" fill-opacity="1"/></g><g><path d="M144.3786,138.15L144.3786,121.03L112.84440000000001,90L73.293,90C66.34478,90,61,95.35,61,101.77L61,184.695C61,191.65,66.34478,197,73.293,197L123.5339,197C121.396,195.39499999999998,119.2581,193.255,117.65469999999999,191.115L73.293,191.115C70.08613,191.115,67.41374,188.44,67.41374,185.23000000000002L67.41374,101.77C67.41374,100.16499999999999,67.94821,98.56,69.01717,97.49C70.08613,96.42,71.6896,95.885,73.293,95.885L109.10300000000001,95.885L109.10300000000001,125.845L139.03379999999999,125.845L139.03379999999999,137.615C140.1028,137.615,142.2407,137.615,144.3786,138.15ZM114.4478,119.96000000000001L114.4478,101.235L133.15449999999998,119.425L114.4478,119.96000000000001ZM159.344,141.895L138.4993,163.29500000000002C137.9648,163.82999999999998,137.43040000000002,164.9,137.43040000000002,165.435L135.8269,171.32C135.8269,171.85500000000002,135.8269,172.39,136.3614,172.925C136.89589999999998,173.45999999999998,137.43040000000002,173.45999999999998,137.9648,173.45999999999998L144.3786,171.85500000000002C144.9131,171.85500000000002,145.4475,171.32,145.982,170.785L166.827,149.385C168.43,147.78,168.43,145.105,166.827,143.5L165.75799999999998,142.43C164.689,141.36,163.62,140.825,162.551,140.825C160.94740000000002,140.29,159.8784,140.825,159.344,141.895Z" fill="#55A4F1" fill-opacity="1"/></g><g><path d="M91.466730625,186.83625312499998C90.932250625,186.83625312499998,90.397770625,186.83625312499998,90.397770625,186.301253125C89.328818625,185.766253125,88.794340625,184.161253125,89.328818625,182.556253125C101.087340625,161.691213125,105.363140625,162.761210475,106.966640625,162.761210475C108.570040625,162.761210475,110.173440625,163.831213125,110.70794062499999,167.041213125C111.242440625,169.716213125,111.242440625,172.391213125,111.77694062500001,175.066253125L111.77694062500001,176.671253125L113.914840625,174.531253125C117.656140625,170.251213125,120.328540625,167.576213125,123.535440625,168.111213125C126.742240625,168.646213125,126.742240625,171.856213125,127.276740625,172.391213125C127.81124062500001,173.996253125,127.81124062500001,175.066253125,127.81124062500001,176.671253125L129.414640625,176.136253125C130.483640625,175.601253125,132.087040625,176.136253125,132.621540625,177.74125312500001C133.156040625,178.811253125,132.621540625,180.416253125,131.552540625,180.951253125C127.276740625,183.091253125,125.138840625,183.626253125,123.000940625,182.556253125C121.93194062500001,181.486253125,121.397540625,179.346253125,121.93194062500001,177.74125312500001C122.46644062499999,176.671253125,122.46644062499999,175.066253125,121.93194062500001,173.996253125C120.328540625,175.601253125,119.259540625,176.671253125,118.190640625,178.276253125L114.449240625,180.951253125C113.380340625,182.021253125,110.70794062499999,184.696253125,108.035540625,183.626253125C105.363140625,182.556253125,105.363140625,179.881253125,104.828640625,175.601253125L104.828640625,169.181213125C100.552840625,173.996253125,96.811510625,179.346253125,93.604640625,185.231253125C93.070160625,186.301253125,92.535690625,186.83625312499998,91.466730625,186.83625312499998Z" fill="#55A4F1" fill-opacity="1"/></g></g></g></svg>