<svg xmlns="http://www.w3.org/2000/svg" xmlns:xlink="http://www.w3.org/1999/xlink" fill="none" version="1.1" width="370" height="287" viewBox="0 0 370 287"><g><g><path d="M50.0781,229.828L68.5,229.828L68.5,100.281L112.453,100.281L112.453,84.828L6.125,84.828L6.125,100.281L50.0781,100.281L50.0781,229.828ZM193.641,232.828C212.453,232.828,226.703,225.312,238.188,212.016L228.094,200.266C218.781,210.625,208.297,216.797,194.422,216.797C166.703,216.797,149.281,193.687,149.281,156.844C149.281,120.391,167.703,97.8749,195.031,97.8749C207.5,97.8749,217,103.453,224.719,111.625L234.625,99.6718C226.312,90.3436,212.453,81.828,194.828,81.828C158,81.828,130.469,110.219,130.469,157.437C130.469,204.844,157.406,232.828,193.641,232.828ZM264.984,229.828L283.203,229.828L283.203,171.828L307.156,171.828C339.047,171.828,360.625,157.781,360.625,127.25C360.625,95.7186,338.844,84.828,306.375,84.828L264.984,84.828L264.984,229.828ZM283.203,156.984L283.203,99.6874L304,99.6874C329.531,99.6874,342.406,106.187,342.406,127.25C342.406,147.922,330.328,156.984,304.781,156.984L283.203,156.984Z" fill="#FFFFFF" fill-opacity="1"/></g></g></svg>