<svg xmlns="http://www.w3.org/2000/svg" xmlns:xlink="http://www.w3.org/1999/xlink" fill="none" version="1.1" width="508" height="286" viewBox="0 0 508 286"><defs><clipPath id="master_svg0_175_01592"><rect x="0" y="0" width="508" height="286" rx="0"/></clipPath></defs><g clip-path="url(#master_svg0_175_01592)"><rect x="0" y="0" width="508" height="286" rx="0" fill="#27343E" fill-opacity="1"/><g><g><path d="M133.1394625,170.6267125L87.6829825,170.6267125C86.4074925,170.6267125,85.3625225,169.57931250000001,85.3625225,168.3008125L85.3625225,122.8606525C85.3625225,122.0134675,84.6709925,121.3203125,83.8257925,121.3203125C82.9805905,121.3203125,82.2890625,122.0134675,82.2890625,122.8606525L82.2890625,168.3008125C82.2890625,171.2891125,84.7017225,173.7074125,87.6829825,173.7074125L133.1394625,173.7074125C133.9846625,173.7074125,134.6761625,173.01421249999999,134.6761625,172.1670125C134.6761625,171.3199125,133.9999625,170.6267125,133.1394625,170.6267125Z" fill="#0E71C2" fill-opacity="1"/></g><g><path d="M165.942,125.8309C167.624,125.8309,169,124.4556,169,122.77459999999999C169,121.09360000000001,167.624,119.7182,165.942,119.7182L155.28480000000002,119.7182L155.28480000000002,111.0382C155.28480000000002,105.1394,150.4837,100.341,144.5817,100.341L140.33100000000002,100.341L140.33100000000002,90.05635C140.33100000000002,88.37536,138.9549,87,137.273,87C135.59109999999998,87,134.215,88.37536,134.215,90.05635L134.215,100.341L127.1051,100.341L127.1051,90.05635C127.1051,88.37536,125.729,87,124.0471,87C122.3652,87,120.98910000000001,88.37536,120.98910000000001,90.05635L120.98910000000001,100.341L113.8792,100.341L113.8792,90.05635C113.8792,88.37536,112.5031,87,110.8212,87C109.1392,87,107.76310000000001,88.37536,107.76310000000001,90.05635L107.76310000000001,100.341L100.6532,100.341L100.6532,90.05635C100.6532,88.37536,99.27709999999999,87,97.5952,87C95.91329999999999,87,94.5372,88.37536,94.5372,90.05635L94.5372,100.341L81.4183,100.341C75.5163,100.341,70.7152,105.1394,70.7152,111.0382L70.7152,119.7182L60.05802,119.7182C58.37611,119.7182,57,121.09360000000001,57,122.77459999999999C57,124.4556,58.37611,125.8309,60.05802,125.8309L70.7152,125.8309L70.7152,132.937L60.05802,132.937C58.37611,132.937,57,134.3123,57,135.9933C57,137.67430000000002,58.37611,139.0497,60.05802,139.0497L70.7152,139.0497L70.7152,146.1557L60.05802,146.1557C58.37611,146.1557,57,147.531,57,149.212C57,150.893,58.37611,152.26839999999999,60.05802,152.26839999999999L70.7152,152.26839999999999L70.7152,159.37439999999998L60.05802,159.37439999999998C58.37611,159.37439999999998,57,160.7498,57,162.4307C57,164.11169999999998,58.37611,165.4871,60.05802,165.4871L70.7152,165.4871L70.7152,174.1671C70.7152,180.0659,75.5163,184.8644,81.4183,184.8644L86.1276,184.8644L86.1276,195.94400000000002C86.1276,197.625,87.5038,199,89.1857,199C90.86760000000001,199,92.24369999999999,197.625,92.24369999999999,195.94400000000002L92.24369999999999,184.8644L99.3536,184.8644L99.3536,195.94400000000002C99.3536,197.625,100.72970000000001,199,102.41159999999999,199C104.0935,199,105.4696,197.625,105.4696,195.94400000000002L105.4696,184.8644L112.5795,184.8644L112.5795,195.94400000000002C112.5795,197.625,113.9556,199,115.6375,199C117.3195,199,118.6956,197.625,118.6956,195.94400000000002L118.6956,184.8644L125.8055,184.8644L125.8055,195.94400000000002C125.8055,197.625,127.1816,199,128.8635,199C130.5454,199,131.92149999999998,197.625,131.92149999999998,195.94400000000002L131.92149999999998,184.8644L144.5817,184.8644C150.4837,184.8644,155.28480000000002,180.0659,155.28480000000002,174.1671L155.28480000000002,165.4871L165.942,165.4871C167.624,165.4871,169,164.11169999999998,169,162.4307C169,160.7498,167.624,159.37439999999998,165.942,159.37439999999998L155.28480000000002,159.37439999999998L155.28480000000002,152.26839999999999L165.942,152.26839999999999C167.624,152.26839999999999,169,150.893,169,149.212C169,147.531,167.624,146.1557,165.942,146.1557L155.28480000000002,146.1557L155.28480000000002,139.0497L165.942,139.0497C167.624,139.0497,169,137.67430000000002,169,135.9933C169,134.3123,167.624,132.937,165.942,132.937L155.28480000000002,132.937L155.28480000000002,125.8309L165.942,125.8309ZM149.1687,174.1519C149.1687,176.67329999999998,147.1046,178.7364,144.5817,178.7364L81.4183,178.7364C78.8954,178.7364,76.8313,176.67329999999998,76.8313,174.1519L76.8313,111.0382C76.8313,108.5167,78.8954,106.4537,81.4183,106.4537L144.5817,106.4537C147.1046,106.4537,149.1687,108.5167,149.1687,111.0382L149.1687,174.1519Z" fill="#55A4F1" fill-opacity="1"/></g><g><path d="M95.271645,145.70886875L103.013025,145.70886875L104.706025,150.22646875L108.95372499999999,150.22646875L101.196925,130.35546875L97.056935,130.35546875L89.515625,150.22646875L93.671045,150.22646875L95.271645,145.70886875ZM99.088475,134.98360875L101.751025,142.36016875L96.472095,142.36016875L99.088475,134.98360875ZM114.940625,142.73926875L117.495425,142.73926875C119.265325,142.73926875,120.619725,142.64446875,121.558525,142.45496875C122.251025,142.29696875,122.928225,141.98106875,123.590025,141.50726875C124.251825,141.03336875,124.805925,140.38576875,125.23682500000001,139.54855875C125.66772499999999,138.71138875,125.88322500000001,137.68466875000001,125.88322500000001,136.46839875C125.88322500000001,134.88882875,125.513825,133.59358875,124.759725,132.59845875C124.005525,131.60332875,123.08212499999999,130.95570475,121.974025,130.65558675C121.250725,130.45024285,119.696225,130.35546875,117.326125,130.35546875L111.031425,130.35546875L111.031425,150.22646875L114.940625,150.22646875L114.940625,142.73926875ZM114.940625,133.71994875L116.833625,133.71994875C118.249525,133.71994875,119.173025,133.76733875,119.650125,133.86210875C120.281125,133.97267875,120.804325,134.27279875,121.219925,134.74666875C121.635425,135.22053875,121.83552499999999,135.82077875,121.83552499999999,136.53157875C121.83552499999999,137.11601875,121.681625,137.63727875,121.389225,138.07955875C121.096825,138.52183875,120.681225,138.85354875,120.173325,139.05888875C119.650125,139.26422875,118.618925,139.37479875,117.079925,139.37479875L114.940625,139.37479875L114.940625,133.71994875ZM128.961325,130.35546875L132.870425,130.35546875L132.870425,150.22646875L128.961325,150.22646875L128.961325,130.35546875Z" fill="#55A4F1" fill-opacity="1"/></g></g></g></svg>