<svg xmlns="http://www.w3.org/2000/svg" xmlns:xlink="http://www.w3.org/1999/xlink" fill="none" version="1.1" width="1920" height="299" viewBox="0 0 1920 299"><defs><clipPath id="master_svg0_175_01314"><rect x="0" y="0" width="1920" height="299" rx="0"/></clipPath></defs><g clip-path="url(#master_svg0_175_01314)"><rect x="0" y="0" width="1920" height="299" rx="0" fill="#27343E" fill-opacity="1"/><g><rect x="-87" y="219" width="2062" height="145" rx="0" fill="#FFFFFF" fill-opacity="1"/></g><g><path d="M666.74,278.12L674.3,278.12L676.865,267.14C677.36,264.8,677.765,262.46,678.215,259.76L678.44,259.76C678.935,262.46,679.385,264.755,679.925,267.14L682.58,278.12L690.365,278.12L696.575,252.92000000000002L690.41,252.92000000000002L687.71,265.34000000000003C687.26,267.815,686.9,270.245,686.45,272.72L686.27,272.72C685.685,270.245,685.235,267.815,684.65,265.34000000000003L681.5,252.92000000000002L675.65,252.92000000000002L672.59,265.34000000000003C671.96,267.77,671.51,270.245,671.015,272.72L670.79,272.72C670.385,270.245,670.025,267.815,669.62,265.34000000000003L666.83,252.92000000000002L660.26,252.92000000000002L666.74,278.12ZM701.3799,278.12L708.001,278.12L708.001,260.4393C709.8467,258.5643,711.1944,257.5536,713.2159,257.5536C715.6914,257.5536,716.7754,258.9305,716.7754,262.9296L716.7754,278.12L723.3965000000001,278.12L723.3965000000001,262.0946C723.3965000000001,255.6639,721.0528,251.87,715.6036,251.87C712.1905,251.87,709.6709,253.6718,707.6787,255.5614L708.001,250.8446L708.001,241.7919L701.3799,241.7919L701.3799,278.12ZM736.6094,279.0575C739.5391,279.0575,742.0586,277.6659,744.212,275.7323L744.4463,275.7323L744.8858,278.12L750.2911,278.12L750.2911,263.10540000000003C750.2911,255.7079,747.0098,251.87,740.6231,251.87C736.6534,251.87,733.0498,253.4081,730.1348,255.2098L732.4639,259.663C734.8077,258.2421,737.0635,257.1874,739.4073,257.1874C742.5127,257.1874,743.5821,259.121,743.67,261.6405C733.5479,262.7391,729.1827,265.6395,729.1827,271.1034C729.1827,275.8641,732.1123,279.0575,736.6094,279.0575ZM738.8213,273.8866C736.8877,273.8866,735.4815,272.993,735.4815,270.9276C735.4815,268.5253,737.5176,266.7821,743.67,266.03499999999997L743.67,271.3085C742.1025999999999,272.9491,740.711,273.8866,738.8213,273.8866ZM765.921,279.0575C768.133,279.0575,769.876,278.5302,771.282,278.12L770.154,273.286C769.481,273.5643,768.484,273.8427,767.679,273.8427C765.423,273.8427,764.207,272.4511,764.207,269.5067L764.207,258.037L770.462,258.037L770.462,252.8075L764.207,252.8075L764.207,246.02530000000002L758.7725,246.02530000000002L757.9961,252.8075L754.085,253.1298L754.085,258.037L757.6446,258.037L757.6446,269.5507C757.6446,275.2343,759.9300000000001,279.0575,765.921,279.0575ZM796.463,279.0575C799.261,279.0575,802.322,278.12,804.71,276.0106L802.088,271.54290000000003C800.696,272.7733,799.0409999999999,273.6669,797.1949999999999,273.6669C793.548,273.6669,790.94,270.45889999999997,790.94,265.4637C790.94,260.5272,793.548,257.2753,797.415,257.2753C798.807,257.2753,799.979,257.8905,801.238,258.9745L804.388,254.7118C802.542,253.0419,800.154,251.87,797.049,251.87C790.208,251.87,784.188,256.7333,784.188,265.4637C784.188,274.20889999999997,789.534,279.0575,796.463,279.0575ZM815.359,279.0575C818.289,279.0575,820.809,277.6659,822.962,275.7323L823.196,275.7323L823.636,278.12L829.0409999999999,278.12L829.0409999999999,263.10540000000003C829.0409999999999,255.7079,825.76,251.87,819.373,251.87C815.403,251.87,811.8,253.4081,808.885,255.2098L811.2139999999999,259.663C813.558,258.2421,815.814,257.1874,818.157,257.1874C821.263,257.1874,822.332,259.121,822.42,261.6405C812.298,262.7391,807.933,265.6395,807.933,271.1034C807.933,275.8641,810.862,279.0575,815.359,279.0575ZM817.571,273.8866C815.638,273.8866,814.231,272.993,814.231,270.9276C814.231,268.5253,816.268,266.7821,822.42,266.03499999999997L822.42,271.3085C820.8530000000001,272.9491,819.461,273.8866,817.571,273.8866ZM835.442,278.12L842.064,278.12L842.064,260.4393C843.909,258.5643,845.2570000000001,257.5536,847.278,257.5536C849.754,257.5536,850.838,258.9305,850.838,262.9296L850.838,278.12L857.4590000000001,278.12L857.4590000000001,262.0946C857.4590000000001,255.6639,855.115,251.87,849.6659999999999,251.87C846.2529999999999,251.87,843.675,253.6718,841.4780000000001,255.8397L841.346,255.8397L840.848,252.8075L835.442,252.8075L835.442,278.12ZM879.012,278.12L886.572,278.12L889.137,267.14C889.6320000000001,264.8,890.037,262.46,890.487,259.76L890.712,259.76C891.207,262.46,891.657,264.755,892.197,267.14L894.852,278.12L902.637,278.12L908.847,252.92000000000002L902.682,252.92000000000002L899.982,265.34000000000003C899.532,267.815,899.172,270.245,898.722,272.72L898.542,272.72C897.957,270.245,897.5070000000001,267.815,896.922,265.34000000000003L893.7719999999999,252.92000000000002L887.922,252.92000000000002L884.862,265.34000000000003C884.232,267.77,883.782,270.245,883.287,272.72L883.062,272.72C882.657,270.245,882.297,267.815,881.892,265.34000000000003L879.102,252.92000000000002L872.532,252.92000000000002L879.012,278.12ZM924.639,279.0575C927.744,279.0575,930.938,277.9882,933.413,276.2743L931.1569999999999,272.1874C929.312,273.33,927.568,273.9305,925.5319999999999,273.9305C921.7529999999999,273.9305,919.058,271.7772,918.5160000000001,267.5878L934.043,267.5878C934.219,266.9579,934.351,265.7421,934.351,264.5262C934.351,256.9237,930.762,251.87,923.8330000000001,251.87C917.842,251.87,912.085,256.9677,912.085,265.6981C912.085,274.1649,917.5640000000001,279.0575,924.639,279.0575ZM918.384,263.12C918.9259999999999,259.0917,921.255,257.0116,923.921,257.0116C927.202,257.0116,928.682,259.3993,928.682,263.12L918.384,263.12ZM950.2149999999999,278.12L956.836,278.12L956.836,260.4393C958.682,258.5643,960.029,257.5536,962.0509999999999,257.5536C964.5260000000001,257.5536,965.61,258.9305,965.61,262.9296L965.61,278.12L972.232,278.12L972.232,262.0946C972.232,255.6639,969.8879999999999,251.87,964.4390000000001,251.87C961.025,251.87,958.506,253.6718,956.514,255.5614L956.836,250.8446L956.836,241.7919L950.2149999999999,241.7919L950.2149999999999,278.12ZM990.264,279.0575C993.369,279.0575,996.563,277.9882,999.038,276.2743L996.7819999999999,272.1874C994.937,273.33,993.193,273.9305,991.1569999999999,273.9305C987.3779999999999,273.9305,984.683,271.7772,984.1410000000001,267.5878L999.668,267.5878C999.844,266.9579,999.976,265.7421,999.976,264.5262C999.976,256.9237,996.387,251.87,989.4580000000001,251.87C983.467,251.87,977.71,256.9677,977.71,265.6981C977.71,274.1649,983.1890000000001,279.0575,990.264,279.0575ZM984.009,263.12C984.5509999999999,259.0917,986.88,257.0116,989.546,257.0116C992.827,257.0116,994.307,259.3993,994.307,263.12L984.009,263.12ZM1011.7819999999999,279.0575C1013.3199999999999,279.0575,1014.39,278.7938,1015.1659999999999,278.4862L1014.346,273.579C1013.906,273.6669,1013.716,273.6669,1013.452,273.6669C1012.822,273.6669,1012.148,273.1688,1012.148,271.6454L1012.148,242.5243L1005.527,242.5243L1005.527,271.3671C1005.527,276.0546,1007.153,279.0575,1011.7819999999999,279.0575ZM1019.5899999999999,287.495L1026.211,287.495L1026.211,280.3319L1025.9769999999999,276.3182C1027.8809999999999,278.0761,1030.034,279.0575,1032.246,279.0575C1037.769,279.0575,1042.954,274.0624,1042.954,265.0389C1042.954,256.9677,1039.219,251.87,1033.0520000000001,251.87C1030.298,251.87,1027.734,253.3202,1025.625,255.122L1025.493,255.122L1024.995,252.8075L1019.5899999999999,252.8075L1019.5899999999999,287.495ZM1030.796,273.6229C1029.404,273.6229,1027.8220000000001,273.1102,1026.211,271.6893L1026.211,259.9999C1027.925,258.2128,1029.4479999999999,257.3192,1031.162,257.3192C1034.6190000000001,257.3192,1036.157,260.1024,1036.157,265.1415C1036.157,270.9569,1033.77,273.6229,1030.796,273.6229ZM1061.1770000000001,288.4325C1066.8020000000001,288.4325,1069.497,285.0634,1071.709,279.0721L1080.659,252.8075L1074.316,252.8075L1070.845,264.6434C1070.215,267.0165,1069.585,269.4774,1069.0430000000001,271.8358L1068.8229999999999,271.8358C1068.106,269.3749,1067.476,266.9286,1066.714,264.6434L1062.7,252.8075L1056.05,252.8075L1065.85,277.7977L1065.41,279.3505C1064.6779999999999,281.577,1063.242,283.2177,1060.679,283.2177C1060.093,283.2177,1059.375,283.0419,1058.921,282.8954L1057.705,287.495C1058.701,288.2567,1059.683,288.4325,1061.1770000000001,288.4325ZM1095.747,279.0575C1102.046,279.0575,1107.8609999999999,274.20889999999997,1107.8609999999999,265.4637C1107.8609999999999,256.7333,1102.046,251.87,1095.747,251.87C1089.404,251.87,1083.6480000000001,256.7333,1083.6480000000001,265.4637C1083.6480000000001,274.20889999999997,1089.404,279.0575,1095.747,279.0575ZM1095.747,273.6669C1092.29,273.6669,1090.4,270.45889999999997,1090.4,265.4637C1090.4,260.5272,1092.29,257.2753,1095.747,257.2753C1099.175,257.2753,1101.108,260.5272,1101.108,265.4637C1101.108,270.45889999999997,1099.175,273.6669,1095.747,273.6669ZM1120.855,279.0575C1124.326,279.0575,1126.714,277.3583,1128.867,274.7948L1129.0430000000001,274.7948L1129.541,278.12L1134.946,278.12L1134.946,252.8075L1128.325,252.8075L1128.325,270.1805C1126.626,272.48040000000003,1125.2640000000001,273.3886,1123.242,273.3886C1120.767,273.3886,1119.6390000000001,272.0116,1119.6390000000001,268.0272L1119.6390000000001,252.8075L1113.076,252.8075L1113.076,268.84749999999997C1113.076,275.27819999999997,1115.42,279.0575,1120.855,279.0575ZM1150.43,258.14L1153.85,258.14L1153.85,278.12L1160.42,278.12L1160.42,258.14L1165.2350000000001,258.14L1165.2350000000001,252.92000000000002L1160.42,252.92000000000002L1160.42,250.76C1160.42,247.97,1161.545,246.8,1163.48,246.8C1164.38,246.8,1165.325,246.98,1166.18,247.385L1167.395,242.435C1166.27,241.985,1164.56,241.58,1162.58,241.58C1156.28,241.58,1153.85,245.675,1153.85,250.895L1153.85,252.965L1150.43,253.235L1150.43,258.14ZM1169.455,278.12L1176.076,278.12L1176.076,252.8075L1169.455,252.8075L1169.455,278.12ZM1172.795,248.7645C1175.036,248.7645,1176.618,247.37290000000002,1176.618,245.161C1176.618,243.0077,1175.036,241.5575,1172.795,241.5575C1170.451,241.5575,1168.9569999999999,243.0077,1168.9569999999999,245.161C1168.9569999999999,247.37290000000002,1170.451,248.7645,1172.795,248.7645ZM1183.517,278.12L1190.138,278.12L1190.138,260.4393C1191.984,258.5643,1193.3319999999999,257.5536,1195.353,257.5536C1197.829,257.5536,1198.913,258.9305,1198.913,262.9296L1198.913,278.12L1205.534,278.12L1205.534,262.0946C1205.534,255.6639,1203.19,251.87,1197.741,251.87C1194.328,251.87,1191.75,253.6718,1189.5529999999999,255.8397L1189.421,255.8397L1188.923,252.8075L1183.517,252.8075L1183.517,278.12ZM1221.455,278.75C1224.065,278.75,1226.585,277.355,1228.4299999999998,275.51L1228.6100000000001,275.51L1229.105,278.12L1234.505,278.12L1234.505,242.21L1227.8899999999999,242.21L1227.8899999999999,251.075L1228.115,255.035C1226.315,253.37,1224.56,252.29,1221.725,252.29C1216.325,252.29,1211.15,257.33,1211.15,265.52C1211.15,273.8,1215.155,278.75,1221.455,278.75ZM1223.165,273.305C1219.835,273.305,1217.9450000000002,270.695,1217.9450000000002,265.43C1217.9450000000002,260.435,1220.33,257.735,1223.165,257.735C1224.7849999999999,257.735,1226.3600000000001,258.23,1227.8899999999999,259.625L1227.8899999999999,270.695C1226.45,272.585,1224.92,273.305,1223.165,273.305ZM1245.98,266.78L1251.74,266.78C1251.065,260.435,1258.94,258.275,1258.94,251.885C1258.94,246.125,1254.935,243.29,1249.5349999999999,243.29C1245.62,243.29,1242.38,245.18,1240.04,247.835L1243.73,251.21C1245.17,249.635,1246.745,248.645,1248.725,248.645C1251.065,248.645,1252.55,250.085,1252.55,252.335C1252.55,256.61,1244.9,259.49,1245.98,266.78ZM1248.905,278.75C1251.245,278.75,1253,276.86,1253,274.43C1253,271.955,1251.245,270.11,1248.905,270.11C1246.52,270.11,1244.7649999999999,271.955,1244.7649999999999,274.43C1244.7649999999999,276.86,1246.52,278.75,1248.905,278.75Z" fill="#27343E" fill-opacity="1"/></g></g></svg>