<?xml version="1.0" encoding="utf-8"?>
<!-- Generator: Adobe Illustrator 26.0.1, SVG Export Plug-In . SVG Version: 6.00 Build 0)  -->
<svg version="1.1" id="图层_1" xmlns="http://www.w3.org/2000/svg" xmlns:xlink="http://www.w3.org/1999/xlink" x="0px" y="0px"
	 viewBox="0 0 616.7 547.8" style="enable-background:new 0 0 616.7 547.8;" xml:space="preserve">
<style type="text/css">
	.st0{fill:#356FE0;}
	.st1{fill:none;stroke:#FFFFFF;stroke-linecap:round;stroke-linejoin:round;}
	.st2{fill:none;stroke:#356FE0;stroke-width:2;stroke-miterlimit:10;}
	.st3{enable-background:new    ;}
	.st4{fill:#FFFFFF;}
	.st5{fill:#FFFFFF;stroke:#FFFFFF;stroke-width:0.25;stroke-miterlimit:10;}
	.st6{fill:#FFFFFF;stroke:#FFFFFF;stroke-width:0.25;stroke-miterlimit:9.9994;}
	.st7{fill:#FFFFFF;stroke:#FFFFFF;stroke-width:0.25;stroke-miterlimit:9.9997;}
	.st8{fill:none;stroke:#356FE0;stroke-width:1.5;stroke-miterlimit:10;}
	.st9{fill:none;stroke:#FFFFFF;stroke-width:1.5;stroke-miterlimit:10;}
</style>
<polygon class="st0" points="295.1,417.4 304.1,412.2 295.1,406.9 "/>
<polygon class="st0" points="243.2,472.6 248.4,481.7 253.6,472.6 "/>
<g>
	<path class="st0" d="M262.4,477.9l9.7-15h-8.8V461H275v1.4l-9.7,15h9.7v1.9h-12.7C262.4,479.3,262.4,477.9,262.4,477.9z"/>
</g>
<g>
	<path class="st0" d="M321.4,414.9l-5-8.9h2.5l2.5,4.7c0.4,0.8,0.8,1.7,1.4,2.6h0.1c0.6-1.1,0.8-1.8,1.3-2.6l2.5-4.7h2.4l-5,9
		l5.4,9.3H327l-2.6-5c-0.4-0.8-1-1.8-1.5-2.9h-0.1c-0.6,1.1-1,2.1-1.5,2.9l-2.6,5h-2.4L321.4,414.9z"/>
</g>
<g>
	<path class="st0" d="M231.9,431.9l-5.6-11.3h2.5l2.4,5.1c0.6,1.4,1.1,2.6,1.8,4h0.1c0.7-1.4,1.3-2.6,1.8-4l2.4-5.1h2.4l-5.6,11.3
		v7.1h-2.4L231.9,431.9L231.9,431.9z"/>
</g>
<line class="st1" x1="250.9" y1="506.1" x2="545.6" y2="506.1"/>
<line class="st1" x1="320" y1="506.1" x2="294.4" y2="523.2"/>
<line class="st1" x1="412.7" y1="506.1" x2="387.1" y2="523.2"/>
<line class="st1" x1="536.4" y1="506.1" x2="510.8" y2="523.2"/>
<line class="st1" x1="381.8" y1="506.1" x2="356.2" y2="523.2"/>
<line class="st1" x1="258.2" y1="506.1" x2="232.6" y2="523.2"/>
<line class="st1" x1="350.9" y1="506.1" x2="325.3" y2="523.2"/>
<line class="st1" x1="474.6" y1="506.1" x2="448.9" y2="523.2"/>
<line class="st1" x1="443.6" y1="506.1" x2="418" y2="523.2"/>
<line class="st1" x1="505.5" y1="506.1" x2="479.8" y2="523.2"/>
<line class="st1" x1="289.1" y1="506.1" x2="263.5" y2="523.2"/>
<circle class="st0" cx="545.6" cy="505.4" r="8.2"/>
<line class="st2" x1="537.4" y1="505.4" x2="437" y2="505.4"/>
<polygon class="st0" points="439.1,498.5 427,505.4 439.1,512.4 "/>
<line class="st2" x1="545.6" y1="497.2" x2="545.6" y2="427.1"/>
<polygon class="st0" points="552.5,429.2 545.6,417.2 538.6,429.2 "/>
<circle class="st0" cx="581.3" cy="504" r="12.7"/>
<g class="st3">
	<path class="st4" d="M575.8,503.5c0-4.7,3.1-7.5,6.7-7.5c1.8,0,3.2,0.8,4.2,1.8l-1.5,1.8c-0.7-0.7-1.5-1.3-2.6-1.3
		c-2.1,0-3.8,1.8-3.8,4.9s1.5,5,3.8,5c1.3,0,2.2-0.6,2.9-1.4l1.5,1.8c-1.1,1.4-2.6,2.1-4.6,2.1C578.7,510.7,575.8,508.2,575.8,503.5
		z"/>
</g>
<g>
	<path class="st0" d="M538.6,404l9.7-15h-8.8v-1.9h11.7v1.4l-9.7,15h9.7v1.9h-12.7V404H538.6z"/>
</g>
<g>
	<path class="st0" d="M418.7,491.6l-5-8.9h2.5l2.5,4.7c0.4,0.8,0.8,1.7,1.4,2.6h0.1c0.6-1.1,0.8-1.8,1.3-2.6l2.5-4.7h2.4l-5,9
		l5.4,9.3h-2.5l-2.6-5c-0.4-0.8-1-1.8-1.5-2.9h-0.1c-0.6,1.1-1,2.1-1.5,2.9l-2.6,5h-2.4L418.7,491.6z"/>
</g>
<g class="st3">
	<path class="st0" d="M370,261.1h-8.5l-2.2,7.1h-2.9l7.8-23.1h3.2l7.8,23.1h-3.1L370,261.1z M369.1,258.7l-1.1-3.5
		c-0.8-2.6-1.5-5.1-2.4-7.8h-0.1c-0.7,2.6-1.5,5.1-2.2,7.8l-1.1,3.5H369.1z"/>
	<path class="st0" d="M377.6,253.7c0-1.3,1-2.2,2.1-2.2s2.1,1,2.1,2.2c0,1.3-1,2.2-2.1,2.2C378.5,255.8,377.6,255,377.6,253.7z
		 M377.6,266.4c0-1.3,1-2.2,2.1-2.2s2.1,1,2.1,2.2c0,1.3-1,2.2-2.1,2.2C378.5,268.5,377.6,267.6,377.6,266.4z"/>
</g>
<g class="st3">
	<path class="st0" d="M406.1,263.6c0-3.8,3.2-5.6,10.4-6.4c0-2.2-0.7-4.3-3.5-4.3c-1.9,0-3.8,1-5.1,1.8l-1.1-1.9
		c1.5-1,4-2.2,6.7-2.2c4.2,0,5.8,2.8,5.8,7V268h-2.4l-0.3-2.1h0.1c-1.7,1.4-3.6,2.5-5.7,2.5C408.2,268.5,406.1,266.6,406.1,263.6z
		 M416.7,263.9v-4.7c-5.7,0.7-7.7,2.1-7.7,4.3c0,1.9,1.3,2.8,3.1,2.8C413.7,266.2,415.1,265.4,416.7,263.9z"/>
	<path class="st0" d="M423,266.1l1.4-1.9c1.5,1.3,3.1,1.9,5,1.9c2.2,0,3.3-1.3,3.3-2.6c0-1.7-1.9-2.5-3.9-3.2
		c-2.4-0.8-5.1-2.1-5.1-4.9c0-2.6,2.2-4.9,5.8-4.9c2.1,0,3.9,0.8,5.3,1.9l-1.4,1.8c-1.3-0.8-2.4-1.5-3.9-1.5c-2.1,0-3.1,1.1-3.1,2.5
		c0,1.7,1.8,2.2,3.8,2.9c2.5,1,5.1,1.9,5.1,5.1c0,2.8-2.2,5-6.3,5C427,268.5,424.7,267.5,423,266.1z"/>
	<path class="st0" d="M438.4,259.5c0-5.6,3.8-9,7.7-9c4.3,0,6.8,3.2,6.8,8.1c0,0.7,0,1.3-0.1,1.7h-11.5c0.1,3.6,2.4,6,5.7,6
		c1.7,0,3.1-0.6,4.3-1.4l1,1.9c-1.5,1-3.3,1.8-5.7,1.8C442,268.5,438.4,265.1,438.4,259.5z M450.4,258.2c0-3.5-1.5-5.3-4.2-5.3
		c-2.4,0-4.6,1.9-4.9,5.3H450.4z"/>
</g>
<g class="st3">
	<path class="st0" d="M469.9,259.5c0-5.7,3.9-9,8.2-9c2.2,0,3.8,1,5,1.9l-1.5,1.9c-1-1-2.1-1.5-3.5-1.5c-3.1,0-5.3,2.6-5.3,6.5
		s2.1,6.5,5.3,6.5c1.5,0,2.9-0.7,4-1.7l1.3,1.9c-1.5,1.4-3.5,2.2-5.6,2.2C473.4,268.5,469.9,265.3,469.9,259.5z"/>
</g>
<g class="st3">
	<path class="st0" d="M485.2,259.5c0-5.7,3.8-9,7.9-9s7.9,3.3,7.9,9s-3.8,8.9-7.9,8.9C488.8,268.5,485.2,265.3,485.2,259.5z
		 M498,259.5c0-3.9-1.9-6.5-5-6.5c-2.9,0-4.9,2.6-4.9,6.5s1.9,6.5,4.9,6.5C496,266.1,498,263.4,498,259.5z"/>
	<path class="st0" d="M504.1,259.5c0-5.7,3.8-9,7.9-9s7.9,3.3,7.9,9s-3.8,8.9-7.9,8.9S504.1,265.3,504.1,259.5z M517,259.5
		c0-3.9-1.9-6.5-5-6.5c-2.9,0-4.9,2.6-4.9,6.5s1.9,6.5,4.9,6.5C515.1,266.1,517,263.4,517,259.5z"/>
</g>
<g class="st3">
	<path class="st0" d="M524.6,251.1h2.4l0.3,3.1h0.1c1.3-2.2,2.9-3.6,4.9-3.6c0.7,0,1.3,0.1,1.8,0.4l-0.6,2.5c-0.6-0.3-1-0.3-1.7-0.3
		c-1.4,0-3.2,1-4.3,3.9v11h-2.9L524.6,251.1L524.6,251.1z"/>
</g>
<g class="st3">
	<path class="st0" d="M535.1,259.5c0-5.6,3.5-9,7.4-9c1.9,0,3.3,0.7,4.9,1.9l-0.1-2.9V243h2.9v25h-2.5l-0.3-1.9l0,0
		c-1.4,1.3-3.2,2.4-5.1,2.4C537.9,268.5,535.1,265.3,535.1,259.5z M547.1,263.7v-8.9c-1.4-1.3-2.8-1.8-4.2-1.8
		c-2.8,0-4.9,2.6-4.9,6.5c0,4.2,1.7,6.5,4.7,6.5C544.3,266.1,545.7,265.3,547.1,263.7z"/>
	<path class="st0" d="M555.3,245.6c0-1.1,0.8-1.8,1.9-1.8s1.9,0.7,1.9,1.8s-0.8,1.8-1.9,1.8S555.3,246.7,555.3,245.6z M555.9,251.1
		h2.9v17.1h-2.9V251.1z"/>
	<path class="st0" d="M564.5,251.1h2.4l0.3,2.5h0.1c1.7-1.7,3.3-2.9,5.7-2.9c3.6,0,5.1,2.4,5.1,6.7v10.9h-2.9v-10.4
		c0-3.2-1-4.6-3.2-4.6c-1.8,0-2.9,0.8-4.7,2.6v12.4h-2.9L564.5,251.1L564.5,251.1z"/>
</g>
<g class="st3">
	<path class="st0" d="M582.6,263.6c0-3.8,3.2-5.6,10.4-6.4c0-2.2-0.7-4.3-3.5-4.3c-1.9,0-3.8,1-5.1,1.8l-1.1-1.9
		c1.5-1,4-2.2,6.7-2.2c4.2,0,5.8,2.8,5.8,7V268h-2.2l-0.3-2.1h-0.1c-1.7,1.4-3.6,2.5-5.7,2.5C584.8,268.5,582.6,266.6,582.6,263.6z
		 M593.2,263.9v-4.7c-5.7,0.7-7.7,2.1-7.7,4.3c0,1.9,1.3,2.8,3.1,2.8C590.1,266.2,591.5,265.4,593.2,263.9z"/>
	<path class="st0" d="M600.8,262.7v-9.4h-2.5v-2.2l2.6-0.1l0.3-4.7h2.4v4.7h4.6v2.4h-4.6v9.5c0,2.1,0.7,3.3,2.6,3.3
		c0.6,0,1.4-0.3,1.9-0.4l0.6,2.1c-1,0.3-2.1,0.7-3.2,0.7C602.1,268.5,600.8,266.2,600.8,262.7z"/>
</g>
<g>
	<g class="st3">
		<path class="st0" d="M359.4,289.9h6.8c4.7,0,7.9,1.5,7.9,5.6c0,2.2-1.3,4.3-3.3,5v0.1c2.8,0.6,4.7,2.4,4.7,5.6
			c0,4.6-3.6,6.8-8.8,6.8h-7.4L359.4,289.9L359.4,289.9z M365.7,299.6c3.9,0,5.6-1.5,5.6-3.8c0-2.6-1.8-3.8-5.4-3.8h-3.6v7.5
			L365.7,299.6L365.7,299.6z M366.3,310.5c3.9,0,6.3-1.4,6.3-4.6c0-2.9-2.2-4.2-6.3-4.2h-4v8.6h4V310.5z"/>
		<path class="st0" d="M379.2,298.4c0-1.3,1-2.2,2.1-2.2s2.1,1,2.1,2.2s-1,2.2-2.1,2.2C380.1,300.6,379.2,299.6,379.2,298.4z
			 M379.2,311c0-1.3,1-2.2,2.1-2.2s2.1,1,2.1,2.2c0,1.3-1,2.2-2.1,2.2C380.1,313.3,379.2,312.4,379.2,311z"/>
	</g>
	<g class="st3">
		<path class="st0" d="M393.5,292.2h-7v-2.5h16.8v2.5h-7v20.6h-2.9L393.5,292.2L393.5,292.2z"/>
	</g>
	<g class="st3">
		<path class="st0" d="M404.5,301.3c0-7.5,4.3-12,10.2-12c2.8,0,5,1.4,6.3,2.9l-1.5,1.9c-1.3-1.3-2.8-2.2-4.7-2.2
			c-4.3,0-7.2,3.6-7.2,9.3c0,5.8,2.8,9.5,7.1,9.5c2.2,0,3.9-1,5.3-2.6l1.7,1.8c-1.8,2.1-4,3.3-7.1,3.3
			C408.8,313.3,404.5,308.8,404.5,301.3z"/>
		<path class="st0" d="M424.9,289.9h6.5c5.1,0,8.6,1.7,8.6,6.8c0,4.9-3.5,7.1-8.5,7.1h-3.8v9.2h-2.9v-23.1H424.9z M431.2,301.3
			c4,0,6-1.5,6-4.7c0-3.3-2.1-4.5-6.1-4.5h-3.3v9.2H431.2L431.2,301.3z"/>
	</g>
	<g class="st3">
		<path class="st0" d="M448.3,304.4c0-5.7,3.9-9,8.2-9c2.2,0,3.8,1,5,1.9l-1.5,1.9c-1-1-2.1-1.5-3.5-1.5c-3.1,0-5.3,2.6-5.3,6.5
			s2.1,6.5,5.3,6.5c1.5,0,2.9-0.7,4-1.7l1.3,1.9c-1.5,1.4-3.5,2.2-5.6,2.2C451.8,313.3,448.3,310.1,448.3,304.4z"/>
	</g>
	<g class="st3">
		<path class="st0" d="M462.6,304.4c0-5.7,3.8-9,7.9-9s7.9,3.3,7.9,9s-3.8,8.9-7.9,8.9S462.6,310.1,462.6,304.4z M475.6,304.4
			c0-3.9-1.9-6.5-5-6.5s-4.9,2.6-4.9,6.5s1.9,6.5,4.9,6.5S475.6,308.3,475.6,304.4z"/>
		<path class="st0" d="M480.7,304.4c0-5.7,3.8-9,7.9-9s7.9,3.3,7.9,9s-3.8,8.9-7.9,8.9S480.7,310.1,480.7,304.4z M493.7,304.4
			c0-3.9-1.9-6.5-5-6.5s-4.9,2.6-4.9,6.5s1.9,6.5,4.9,6.5S493.7,308.3,493.7,304.4z"/>
	</g>
	<g class="st3">
		<path class="st0" d="M500.2,295.7h2.4l0.3,3.1h0.1c1.3-2.2,2.9-3.6,4.9-3.6c0.7,0,1.3,0.1,1.8,0.4l-0.6,2.5
			c-0.6-0.3-1-0.3-1.7-0.3c-1.4,0-3.2,1-4.3,3.9v11h-2.9L500.2,295.7L500.2,295.7z"/>
	</g>
	<g class="st3">
		<path class="st0" d="M509.8,304.4c0-5.6,3.5-9,7.4-9c1.9,0,3.3,0.7,4.9,1.9l-0.1-2.9v-6.5h2.9v25h-2.4l-0.3-1.9l0,0
			c-1.4,1.3-3.2,2.4-5.1,2.4C512.6,313.3,509.8,310.1,509.8,304.4z M521.9,308.5v-8.9c-1.4-1.3-2.8-1.8-4.2-1.8
			c-2.8,0-4.9,2.6-4.9,6.5c0,4.2,1.7,6.5,4.7,6.5C519.1,310.9,520.5,310.1,521.9,308.5z"/>
		<path class="st0" d="M529.2,290.4c0-1.1,0.8-1.8,1.9-1.8s1.9,0.7,1.9,1.8s-0.8,1.8-1.9,1.8C530,292.2,529.2,291.6,529.2,290.4z
			 M529.6,295.7h2.9v17.1h-2.9V295.7z"/>
		<path class="st0" d="M537.4,295.7h2.4l0.3,2.5h0.1c1.7-1.7,3.3-2.9,5.7-2.9c3.6,0,5.1,2.4,5.1,6.7v10.9h-2.9v-10.4
			c0-3.2-1-4.6-3.2-4.6c-1.8,0-2.9,0.8-4.7,2.6v12.4h-2.9L537.4,295.7L537.4,295.7z"/>
	</g>
	<g class="st3">
		<path class="st0" d="M554.5,308.4c0-3.8,3.2-5.6,10.4-6.4c0-2.2-0.7-4.3-3.5-4.3c-1.9,0-3.8,1-5.1,1.8l-1.1-1.9
			c1.5-1,4-2.2,6.7-2.2c4.2,0,5.8,2.8,5.8,7v10.4h-2.4l-0.3-2.1h-0.1c-1.7,1.4-3.6,2.5-5.7,2.5C556.7,313.3,554.5,311.5,554.5,308.4
			z M565.1,308.7V304c-5.7,0.7-7.7,2.1-7.7,4.3c0,1.9,1.3,2.8,3.1,2.8C562,311,563.4,310.2,565.1,308.7z"/>
		<path class="st0" d="M571.7,307.6v-9.5h-2.5V296l2.6-0.1l0.3-4.7h2.4v4.7h4.6v2.4h-4.6v9.5c0,2.1,0.7,3.3,2.6,3.3
			c0.6,0,1.4-0.3,1.9-0.4l0.6,2.1c-1,0.3-2.1,0.7-3.2,0.7C573,313.3,571.7,311,571.7,307.6z"/>
	</g>
	<g class="st3">
		<path class="st0" d="M581.1,304.4c0-5.6,3.8-9,7.7-9c4.3,0,6.8,3.2,6.8,8.1c0,0.7,0,1.3-0.1,1.7H584c0.1,3.6,2.4,6,5.7,6
			c1.7,0,3.1-0.6,4.3-1.4l1,1.9c-1.5,1-3.3,1.8-5.7,1.8C584.7,313.3,581.1,309.9,581.1,304.4z M593,303c0-3.5-1.5-5.3-4.2-5.3
			c-2.4,0-4.6,1.9-4.9,5.3H593z"/>
	</g>
</g>
<g class="st3">
	<path class="st0" d="M358,346.1c0-7.5,4.3-12,10.2-12c2.8,0,5,1.4,6.3,2.9l-1.5,1.9c-1.3-1.3-2.8-2.2-4.7-2.2
		c-4.3,0-7.2,3.6-7.2,9.3c0,5.8,2.8,9.5,7.1,9.5c2.2,0,3.9-1,5.3-2.6l1.7,1.8c-1.8,2.1-4,3.3-7.1,3.3
		C362.3,358.1,358,353.6,358,346.1z"/>
	<path class="st0" d="M378.6,343.2c0-1.3,1-2.2,2.1-2.2s2.1,1,2.1,2.2s-1,2.2-2.1,2.2C379.4,345.4,378.6,344.4,378.6,343.2z
		 M378.6,355.8c0-1.3,1-2.2,2.1-2.2s2.1,1,2.1,2.2c0,1.3-1,2.2-2.1,2.2C379.4,358.1,378.6,357.2,378.6,355.8z"/>
	<path class="st0" d="M406.4,355.7l1.4-1.9c1.5,1.3,3.1,1.9,5,1.9c2.2,0,3.3-1.3,3.3-2.6c0-1.7-1.9-2.5-3.9-3.2
		c-2.4-0.8-5.1-2.1-5.1-4.9c0-2.6,2.2-4.9,5.8-4.9c2.1,0,3.9,0.8,5.3,1.9l-1.4,1.8c-1.3-0.8-2.4-1.5-3.9-1.5c-2.1,0-3.1,1.1-3.1,2.5
		c0,1.7,1.8,2.2,3.8,2.9c2.5,1,5.1,1.9,5.1,5.1c0,2.8-2.2,5-6.3,5C410.5,358.1,408.1,357.1,406.4,355.7z"/>
	<path class="st0" d="M421.7,349.2c0-5.6,3.8-9,7.7-9c4.3,0,6.8,3.2,6.8,8.1c0,0.7,0,1.3-0.1,1.7h-11.5c0.1,3.6,2.4,6,5.7,6
		c1.7,0,3.1-0.6,4.3-1.4l1,1.9c-1.5,1-3.3,1.8-5.7,1.8C425.5,358.1,421.7,354.7,421.7,349.2z M433.7,347.8c0-3.5-1.5-5.3-4.2-5.3
		c-2.4,0-4.6,1.9-4.9,5.3H433.7z"/>
	<path class="st0" d="M440.5,340.5h2.4l0.3,3.1h0.1c1.3-2.2,2.9-3.6,4.9-3.6c0.7,0,1.3,0.1,1.8,0.4l-0.6,2.5c-0.6-0.3-1-0.3-1.7-0.3
		c-1.4,0-3.2,1-4.3,3.9v11h-2.9L440.5,340.5L440.5,340.5z"/>
</g>
<g class="st3">
	<path class="st0" d="M457.1,349.2c0-5.7,3.9-9,8.2-9c2.2,0,3.8,1,5,1.9l-1.5,1.9c-1-1-2.1-1.5-3.5-1.5c-3.1,0-5.3,2.6-5.3,6.5
		s2.1,6.5,5.3,6.5c1.5,0,2.9-0.7,4-1.7l1.3,1.9c-1.5,1.4-3.5,2.2-5.6,2.2C460.6,358.1,457.1,354.7,457.1,349.2z"/>
</g>
<g class="st3">
	<path class="st0" d="M472.2,349.2c0-5.7,3.8-9,7.9-9s7.9,3.3,7.9,9s-3.8,8.9-7.9,8.9S472.2,354.7,472.2,349.2z M485.2,349.2
		c0-3.9-1.9-6.5-5-6.5s-4.9,2.6-4.9,6.5s1.9,6.5,4.9,6.5S485.2,353.1,485.2,349.2z"/>
	<path class="st0" d="M491.3,349.2c0-5.7,3.8-9,7.9-9s7.9,3.3,7.9,9s-3.8,8.9-7.9,8.9S491.3,354.7,491.3,349.2z M504.2,349.2
		c0-3.9-1.9-6.5-5-6.5s-4.9,2.6-4.9,6.5s1.9,6.5,4.9,6.5S504.2,353.1,504.2,349.2z"/>
</g>
<g class="st3">
	<path class="st0" d="M511.6,340.5h2.4l0.3,3.1h0.1c1.3-2.2,2.9-3.6,4.9-3.6c0.7,0,1.3,0.1,1.8,0.4l-0.6,2.5c-0.6-0.3-1-0.3-1.7-0.3
		c-1.4,0-3.2,1-4.3,3.9v11h-2.9L511.6,340.5L511.6,340.5z"/>
</g>
<g class="st3">
	<path class="st0" d="M522.3,349.2c0-5.6,3.5-9,7.4-9c1.9,0,3.3,0.7,4.9,1.9l-0.1-2.9v-6.5h2.9v25H535l-0.3-1.9l0,0
		c-1.4,1.3-3.2,2.4-5.1,2.4C525.1,358.1,522.3,354.9,522.3,349.2z M534.3,353.3v-8.9c-1.4-1.3-2.8-1.8-4.2-1.8
		c-2.8,0-4.9,2.6-4.9,6.5c0,4.2,1.7,6.5,4.7,6.5C531.5,355.7,532.9,354.9,534.3,353.3z"/>
	<path class="st0" d="M542.5,335.2c0-1.1,0.8-1.8,1.9-1.8s1.9,0.7,1.9,1.8s-0.8,1.8-1.9,1.8S542.5,336.2,542.5,335.2z M543.1,340.5
		h2.9v17.1h-2.9V340.5z"/>
	<path class="st0" d="M551.7,340.5h2.4l0.3,2.5h0.1c1.7-1.7,3.3-2.9,5.7-2.9c3.6,0,5.1,2.4,5.1,6.7v10.9h-2.9v-10.4
		c0-3.2-1-4.6-3.2-4.6c-1.8,0-2.9,0.8-4.7,2.6v12.4h-2.9L551.7,340.5L551.7,340.5z"/>
</g>
<g class="st3">
	<path class="st0" d="M569.8,353.2c0-3.8,3.2-5.6,10.4-6.4c0-2.2-0.7-4.3-3.5-4.3c-1.9,0-3.8,1-5.1,1.8l-1.1-1.9
		c1.5-1,4-2.2,6.7-2.2c4.2,0,5.8,2.8,5.8,7v10.4h-2.4l-0.3-2.1h-0.1c-1.7,1.4-3.6,2.5-5.7,2.5C571.9,358.1,569.8,356.3,569.8,353.2z
		 M580.4,353.5v-4.7c-5.7,0.7-7.7,2.1-7.7,4.3c0,1.9,1.3,2.8,3.1,2.8C577.3,355.7,578.7,355,580.4,353.5z"/>
	<path class="st0" d="M588,352.4v-9.5h-2.5v-2.2l2.6-0.1l0.3-4.7h2.4v4.7h4.6v2.4h-4.6v9.5c0,2.1,0.7,3.3,2.6,3.3
		c0.6,0,1.4-0.3,1.9-0.4l0.6,2.1c-1,0.3-2.1,0.7-3.2,0.7C589.3,358.1,588,355.8,588,352.4z"/>
</g>
<g>
	<path class="st0" d="M386.7,244h7.1c5,0,8.3,1.7,8.3,6c0,2.5-1.3,4.6-3.6,5.3v0.1c3.1,0.6,5,2.5,5,5.8c0,4.7-3.8,7.1-9.2,7.1h-7.7
		L386.7,244L386.7,244z M393.2,254.5c4.5,0,6.1-1.7,6.1-4.2c0-3.1-2.1-4.2-6-4.2h-3.9v8.3h3.8V254.5z M393.9,266.2c4.3,0,7-1.5,7-5
		c0-3.2-2.5-4.6-7-4.6h-4.5v9.6H393.9L393.9,266.2z"/>
</g>
<g>
	<path class="st0" d="M386.7,348.7v-14.4h2.8v14.6c0,6,2.6,7.9,5.8,7.9c3.3,0,6-1.8,6-7.9v-14.6h2.6v14.5c0,7.8-3.9,10.3-8.6,10.3
		C390.6,359,386.7,356.5,386.7,348.7z"/>
</g>
<g>
	<path class="st5" d="M280.6,417.2L280.6,417.2c-0.6,0-0.6,0-0.6-0.6V395c0-0.6,0-0.6,0.6-0.6l0,0c0.6,0,0.6,0,0.6,0.6v21.6
		L280.6,417.2z"/>
	<path class="st5" d="M279.5,393.9"/>
	<path class="st5" d="M280.6,395"/>
	<path class="st5" d="M280,396.7v-84.2c0-0.6,0-0.6,0.6-0.6l0,0c0.3,0,0.6,0.3,0.6,0.6l0,0v84.2c0,0.3-0.3,0.6-0.6,0.6
		C280,397.8,280,396.7,280,396.7z"/>
	<g>
		<path class="st5" d="M219.7,348.9L219.7,348.9c-0.6,0-0.6,0-0.6-0.6v-35.9c0-0.6,0-0.6,0.6-0.6l0,0c0.6,0,0.6,0,0.6,0.6v35.9
			C220.3,348.9,220.3,348.9,219.7,348.9z"/>
		<path class="st5" d="M219.1,416.6"/>
		<path class="st5" d="M219.1,417.2v-70c0-0.6,0-0.6,0.6-0.6l0,0c0.6,0,0.6,0,0.6,0.6v70"/>
		<path class="st5" d="M229.9,418.3"/>
		<path class="st5" d="M281.2,312.5h-1.1c0-4.6-6.3-5.1-6.3-5.1h-32.5v-1.1h32.4l0,0c3.6-0.5,6.9,2.1,7.4,5.7
			C281.1,312.1,281.2,312.3,281.2,312.5z"/>
		<path class="st5" d="M220.3,312.5h-1.1l0,0c0.1-3.6,3.2-6.5,6.8-6.3c0.2,0,0.4,0,0.6,0H259v1.1h-32.4
			C226.5,307.3,220.3,307.9,220.3,312.5z"/>
		<rect x="219.7" y="392.7" class="st5" width="60.9" height="1.1"/>
		<rect x="219.7" y="375.1" class="st5" width="60.9" height="1.1"/>
		<rect x="219.1" y="416.6" class="st5" width="61.5" height="1.1"/>
		<rect x="206.6" y="362.6" class="st5" width="13.1" height="1.1"/>
		<rect x="218" y="314.7" class="st5" width="1.7" height="1.1"/>
		<rect x="152" y="202.6" class="st5" width="70.6" height="1.1"/>
		<rect x="152" y="172.4" class="st5" width="70.6" height="1.1"/>
		<path class="st5" d="M191.2,369.4c-1.5,0.1-3.1-0.1-4.6-0.6c-10.7-1-20.4-6.9-26.2-15.9c-3-5-4.4-10.7-4-16.5v-53.5
			c1.7-15.9-3.4-43.3-4.6-49c-0.5-2.1-0.7-4.2-0.6-6.3V194l0.6-71.2c0.6-13.7,4.6-23.9,12-30.2c6.4-5.7,14.8-8.6,23.3-8
			c12.3,1.2,23.4,7.9,30.2,18.2c3.4,5.7,5.2,12.2,5.1,18.8v71.7l0.6,35.3c0.1,2.1-0.1,4.2-0.6,6.3c-3.4,16.5-4,78.6-4,101.3
			c0.2,3.1-0.2,6.2-1.1,9.1C211.2,366.5,198.1,369.4,191.2,369.4z M152.5,194.1v33.6c-0.1,2.1,0.1,4.2,0.6,6.3
			c1.1,5.7,6.3,33.6,4.6,49v53.5c-0.4,5.4,1,10.8,4,15.4c5.8,8.5,14.9,14.3,25,15.9c1.1,0,21.1,5.1,29.6-22.2c0.9-2.9,1.3-6,1.1-9.1
			c0-0.6,0-82,4-101.3c0.5-2.1,0.7-4.2,0.6-6.3l-0.6-35.3v-71.7c0.1-6.3-1.7-12.4-5.1-17.6c-6.5-10.1-17.1-16.8-29-18.2
			c-8.1-0.4-16,2.2-22.2,7.4c-8.1,7.7-12.4,18.5-12,29.6L152.5,194.1z"/>
		
			<rect x="135.9" y="87.1" transform="matrix(0.6644 -0.7473 0.7473 0.6644 -34.633 138.1166)" class="st6" width="1.1" height="41"/>
		
			<rect x="182.6" y="28.6" transform="matrix(0.7142 -0.6999 0.6999 0.7142 4.6261 147.6579)" class="st7" width="1.1" height="79.1"/>
		<path class="st5" d="M76.8,239.6c-21.6,0-33.6-21.1-33.6-21.6c-6.8-10.2-4.6-24.5-2.3-31.9c1.8-7.3,2.7-14.7,2.8-22.2v-29.6
			c0.6-51.2,10.8-64.3,12-66c7.4-21.6,42.1-41.6,42.1-41.6c10.6-9.3,25.7-11.7,38.7-6.3c13.9,5.8,22.5,19.7,21.6,34.7
			c-2.3,25-29,33.6-29.6,33.6c-16.5,6.3-13.7,42.1-13.7,42.7v45c-0.2,3.6,0.2,7.3,1.1,10.8c1.1,5.1,2.3,13.7,2.3,13.7
			c-1.1,37-37.6,38.1-38.1,38.1C79.2,239.5,78,239.7,76.8,239.6z M121.8,19.3c-8.6,0.1-16.9,3.3-23.3,9.1
			c-0.6,0-34.7,19.9-42.1,41.6l0,0c0,0-11.4,12.5-12,64.9v29.6c-0.1,7.5-1.1,14.9-2.8,22.2c-1.7,7.4-4,21.1,2.3,30.7
			c0,0,13.1,22.8,35.9,21.1c1.7,0,35.9-1.1,37-37l0,0c0,0-1.1-8.5-2.3-13.7c-0.9-3.5-1.3-7.2-1.1-10.8v-45c0-1.7-2.8-37.6,14.8-43.8
			c0.6,0,26.2-8,28.5-32.4c1.1-14.4-7.2-28-20.5-33.6C131.5,20.3,126.7,19.4,121.8,19.3z"/>
		<rect x="116.1" y="206.6" class="st5" width="1.1" height="74.6"/>
		<rect x="38.7" y="206.6" class="st5" width="1.1" height="76.8"/>
		<path class="st5" d="M117.2,502V287.4c-2.3-31.3-36.4-37.6-36.4-37.6c-33,0.6-41,34.2-41,34.2v218h-1.1V284
			c0-0.6,8-34.7,42.1-35.3c0.6,0,35.3,6.3,37.6,38.7V502L117.2,502L117.2,502z"/>
		<rect x="38.7" y="382.5" class="st5" width="79.1" height="1.1"/>
		<rect x="38.7" y="415.5" class="st5" width="79.1" height="1.1"/>
		<path class="st5" d="M130.9,510.6H25.6v-9.1h105.3V510.6z M26.7,509.4h103v-6.8h-103V509.4z"/>
		<polygon class="st5" points="46.7,502 45.5,502 45.5,474.1 39.3,474.1 39.3,473 46.7,473 		"/>
		<polygon class="st5" points="37,501.4 35.8,501.4 35.8,471.3 38.7,471.3 38.7,472.4 37,472.4 		"/>
		<polygon class="st5" points="36.4,500.3 31.9,500.3 31.9,475.3 36.4,475.3 36.4,476.4 33,476.4 33,499.2 36.4,499.2 		"/>
	</g>
</g>
<circle class="st0" cx="33.4" cy="504.7" r="12.7"/>
<line class="st8" x1="77.3" y1="505.4" x2="77.3" y2="461.7"/>
<polygon class="st0" points="82.6,463.2 77.3,454.2 72.2,463.2 "/>
<line class="st8" x1="81.4" y1="510" x2="139.4" y2="510"/>
<polygon class="st0" points="137.9,515.1 146.8,509.9 137.9,504.7 "/>
<g class="st3">
	<path class="st4" d="M35.2,507.5h-4.6l-1,3.6h-2.9l4.6-14.2h3.3l4.6,14.2h-2.9L35.2,507.5z M34.6,505.3l-0.4-1.5
		c-0.4-1.5-0.8-3.1-1.3-4.6h-0.1c-0.4,1.5-0.8,3.2-1.3,4.6l-0.4,1.5H34.6z"/>
</g>
<g>
	<path class="st0" d="M86.8,469.6l9.7-15h-8.8v-1.9h11.7v1.4l-9.7,15h9.7v1.9H86.7C86.8,471,86.8,469.6,86.8,469.6z"/>
</g>
<g>
	<path class="st0" d="M161.7,510.3l-5-8.9h2.5l2.5,4.7c0.4,0.8,0.8,1.7,1.4,2.6h0.1c0.6-1.1,0.8-1.8,1.3-2.6l2.5-4.7h2.4l-5,9
		l5.4,9.3h-2.5l-2.6-5c-0.4-0.8-1-1.8-1.5-2.9h-0.1c-0.6,1.1-1,2.1-1.5,2.9l-2.6,5h-2.4L161.7,510.3z"/>
</g>
<g>
	<path class="st0" d="M76.3,534.4l-5.6-11.3h2.5l2.4,5.1c0.6,1.4,1.1,2.6,1.8,4h0.1c0.7-1.4,1.3-2.6,1.8-4l2.4-5.1h2.4l-5.6,11.3
		v7.1h-2.4L76.3,534.4L76.3,534.4z"/>
</g>
<circle class="st2" cx="77.1" cy="509.6" r="4.2"/>
<circle class="st0" cx="249.9" cy="374.6" r="12.7"/>
<g class="st3">
	<path class="st4" d="M245.1,366.8h4.7c2.9,0,5.1,0.8,5.1,3.5c0,1.3-0.7,2.6-1.9,3.1v0.1c1.5,0.4,2.6,1.4,2.6,3.3
		c0,2.9-2.4,4.2-5.6,4.2h-5.1L245.1,366.8L245.1,366.8z M249.6,372.7c1.8,0,2.6-0.7,2.6-1.8c0-1.3-0.8-1.8-2.5-1.8H248v3.6H249.6z
		 M249.9,378.9c1.9,0,3.1-0.7,3.1-2.2c0-1.4-1-1.9-3.1-1.9H248v4.2L249.9,378.9L249.9,378.9z"/>
</g>
<line class="st8" x1="248.4" y1="417" x2="248.4" y2="474.2"/>
<line class="st9" x1="219.4" y1="411.2" x2="280.6" y2="411.2"/>
<circle class="st0" cx="248.4" cy="412.2" r="4.7"/>
<line class="st8" x1="249.6" y1="412.2" x2="296.6" y2="412.2"/>
</svg>
