<?xml version="1.0" encoding="utf-8"?>
<!-- Generator: Adobe Illustrator 26.0.1, SVG Export Plug-In . SVG Version: 6.00 Build 0)  -->
<svg version="1.1" id="图层_1" xmlns="http://www.w3.org/2000/svg" xmlns:xlink="http://www.w3.org/1999/xlink" x="0px" y="0px"
	 viewBox="0 0 896.7 623.7" style="enable-background:new 0 0 896.7 623.7;" xml:space="preserve">
<style type="text/css">
	.st0{fill:#356FE0;}
	.st1{fill:none;stroke:#FFFFFF;stroke-linecap:round;stroke-linejoin:round;}
	.st2{fill:none;stroke:#356FE0;stroke-width:2;stroke-miterlimit:10;}
	.st3{enable-background:new    ;}
	.st4{fill:#FFFFFF;}
	.st5{fill:#FFFFFF;stroke:#FFFFFF;stroke-width:0.25;stroke-miterlimit:10;}
	.st6{fill:#FFFFFF;stroke:#FFFFFF;stroke-width:0.25;stroke-miterlimit:9.9994;}
	.st7{fill:#FFFFFF;stroke:#FFFFFF;stroke-width:0.25;stroke-miterlimit:9.9997;}
	.st8{fill:none;stroke:#356FE0;stroke-width:1.5;stroke-miterlimit:10;}
	.st9{fill:none;stroke:#FFFFFF;stroke-width:1.5;stroke-miterlimit:10;}
</style>
<polygon class="st0" points="446.1,417.5 455.1,412.3 446.1,407 "/>
<polygon class="st0" points="394.2,472.7 399.4,481.8 404.6,472.7 "/>
<g>
	<path class="st0" d="M413.4,478l9.7-15h-8.8v-1.9H426v1.4l-9.7,15h9.7v1.9h-12.7C413.4,479.4,413.4,478,413.4,478z"/>
</g>
<g>
	<path class="st0" d="M472.4,415l-5-8.9h2.5l2.5,4.7c0.4,0.8,0.8,1.7,1.4,2.6h0.1c0.6-1.1,0.8-1.8,1.3-2.6l2.5-4.7h2.4l-5,9l5.4,9.3
		H478l-2.6-5c-0.4-0.8-1-1.8-1.5-2.9h-0.1c-0.6,1.1-1,2.1-1.5,2.9l-2.6,5h-2.4L472.4,415z"/>
</g>
<g>
	<path class="st0" d="M382.9,432l-5.6-11.3h2.5l2.4,5.1c0.6,1.4,1.1,2.6,1.8,4h0.1c0.7-1.4,1.3-2.6,1.8-4l2.4-5.1h2.4l-5.6,11.3v7.1
		h-2.4L382.9,432L382.9,432z"/>
</g>
<line class="st1" x1="401.9" y1="506.2" x2="696.6" y2="506.2"/>
<line class="st1" x1="471" y1="506.2" x2="445.4" y2="523.3"/>
<line class="st1" x1="563.7" y1="506.2" x2="538.1" y2="523.3"/>
<line class="st1" x1="687.4" y1="506.2" x2="661.8" y2="523.3"/>
<line class="st1" x1="532.8" y1="506.2" x2="507.2" y2="523.3"/>
<line class="st1" x1="409.2" y1="506.2" x2="383.6" y2="523.3"/>
<line class="st1" x1="501.9" y1="506.2" x2="476.3" y2="523.3"/>
<line class="st1" x1="625.6" y1="506.2" x2="599.9" y2="523.3"/>
<line class="st1" x1="594.6" y1="506.2" x2="569" y2="523.3"/>
<line class="st1" x1="656.5" y1="506.2" x2="630.8" y2="523.3"/>
<line class="st1" x1="440.1" y1="506.2" x2="414.5" y2="523.3"/>
<circle class="st0" cx="696.6" cy="505.5" r="8.2"/>
<line class="st2" x1="688.4" y1="505.5" x2="588" y2="505.5"/>
<polygon class="st0" points="590.1,498.6 578,505.5 590.1,512.5 "/>
<line class="st2" x1="696.6" y1="497.3" x2="696.6" y2="427.2"/>
<polygon class="st0" points="703.5,429.3 696.6,417.3 689.6,429.3 "/>
<circle class="st0" cx="732.3" cy="504.1" r="12.7"/>
<g class="st3">
	<path class="st4" d="M726.8,503.6c0-4.7,3.1-7.5,6.7-7.5c1.8,0,3.2,0.8,4.2,1.8l-1.5,1.8c-0.7-0.7-1.5-1.3-2.6-1.3
		c-2.1,0-3.8,1.8-3.8,4.9s1.5,5,3.8,5c1.3,0,2.2-0.6,2.9-1.4l1.5,1.8c-1.1,1.4-2.6,2.1-4.6,2.1C729.7,510.8,726.8,508.3,726.8,503.6
		z"/>
</g>
<g>
	<path class="st0" d="M689.6,404.1l9.7-15h-8.8v-1.9h11.7v1.4l-9.7,15h9.7v1.9h-12.7v-1.4H689.6z"/>
</g>
<g>
	<path class="st0" d="M569.7,491.7l-5-8.9h2.5l2.5,4.7c0.4,0.8,0.8,1.7,1.4,2.6h0.1c0.6-1.1,0.8-1.8,1.3-2.6l2.5-4.7h2.4l-5,9
		l5.4,9.3h-2.5l-2.6-5c-0.4-0.8-1-1.8-1.5-2.9h-0.1c-0.6,1.1-1,2.1-1.5,2.9l-2.6,5h-2.4L569.7,491.7z"/>
</g>
<g class="st3">
	<path class="st0" d="M91.3,572.8h-8.5l-2.2,7.1h-2.9l7.8-23.1h3.2l7.8,23.1h-3.1L91.3,572.8z M90.4,570.4l-1.1-3.5
		c-0.8-2.6-1.5-5.1-2.4-7.8h-0.1c-0.7,2.6-1.5,5.1-2.2,7.8l-1.1,3.5H90.4z"/>
	<path class="st0" d="M98.9,565.4c0-1.3,1-2.2,2.1-2.2s2.1,1,2.1,2.2c0,1.3-1,2.2-2.1,2.2C99.8,567.5,98.9,566.7,98.9,565.4z
		 M98.9,578.1c0-1.3,1-2.2,2.1-2.2s2.1,1,2.1,2.2c0,1.3-1,2.2-2.1,2.2C99.8,580.2,98.9,579.3,98.9,578.1z"/>
</g>
<g class="st3">
	<path class="st0" d="M127.4,575.3c0-3.8,3.2-5.6,10.4-6.4c0-2.2-0.7-4.3-3.5-4.3c-1.9,0-3.8,1-5.1,1.8l-1.1-1.9
		c1.5-1,4-2.2,6.7-2.2c4.2,0,5.8,2.8,5.8,7v10.4h-2.4l-0.3-2.1h0.1c-1.7,1.4-3.6,2.5-5.7,2.5C129.5,580.2,127.4,578.3,127.4,575.3z
		 M138,575.6v-4.7c-5.7,0.7-7.7,2.1-7.7,4.3c0,1.9,1.3,2.8,3.1,2.8C135,577.9,136.4,577.1,138,575.6z"/>
	<path class="st0" d="M144.3,577.8l1.4-1.9c1.5,1.3,3.1,1.9,5,1.9c2.2,0,3.3-1.3,3.3-2.6c0-1.7-1.9-2.5-3.9-3.2
		c-2.4-0.8-5.1-2.1-5.1-4.9c0-2.6,2.2-4.9,5.8-4.9c2.1,0,3.9,0.8,5.3,1.9l-1.4,1.8c-1.3-0.8-2.4-1.5-3.9-1.5c-2.1,0-3.1,1.1-3.1,2.5
		c0,1.7,1.8,2.2,3.8,2.9c2.5,1,5.1,1.9,5.1,5.1c0,2.8-2.2,5-6.3,5C148.3,580.2,146,579.2,144.3,577.8z"/>
	<path class="st0" d="M159.7,571.2c0-5.6,3.8-9,7.7-9c4.3,0,6.8,3.2,6.8,8.1c0,0.7,0,1.3-0.1,1.7h-11.5c0.1,3.6,2.4,6,5.7,6
		c1.7,0,3.1-0.6,4.3-1.4l1,1.9c-1.5,1-3.3,1.8-5.7,1.8C163.3,580.2,159.7,576.8,159.7,571.2z M171.7,569.9c0-3.5-1.5-5.3-4.2-5.3
		c-2.4,0-4.6,1.9-4.9,5.3H171.7z"/>
</g>
<g class="st3">
	<path class="st0" d="M191.2,571.2c0-5.7,3.9-9,8.2-9c2.2,0,3.8,1,5,1.9l-1.5,1.9c-1-1-2.1-1.5-3.5-1.5c-3.1,0-5.3,2.6-5.3,6.5
		s2.1,6.5,5.3,6.5c1.5,0,2.9-0.7,4-1.7l1.3,1.9c-1.5,1.4-3.5,2.2-5.6,2.2C194.7,580.2,191.2,577,191.2,571.2z"/>
</g>
<g class="st3">
	<path class="st0" d="M206.5,571.2c0-5.7,3.8-9,7.9-9s7.9,3.3,7.9,9s-3.8,8.9-7.9,8.9C210.1,580.2,206.5,577,206.5,571.2z
		 M219.3,571.2c0-3.9-1.9-6.5-5-6.5c-2.9,0-4.9,2.6-4.9,6.5s1.9,6.5,4.9,6.5C217.3,577.8,219.3,575.1,219.3,571.2z"/>
	<path class="st0" d="M225.4,571.2c0-5.7,3.8-9,7.9-9s7.9,3.3,7.9,9s-3.8,8.9-7.9,8.9S225.4,577,225.4,571.2z M238.3,571.2
		c0-3.9-1.9-6.5-5-6.5c-2.9,0-4.9,2.6-4.9,6.5s1.9,6.5,4.9,6.5C236.4,577.8,238.3,575.1,238.3,571.2z"/>
</g>
<g class="st3">
	<path class="st0" d="M245.9,562.8h2.4l0.3,3.1h0.1c1.3-2.2,2.9-3.6,4.9-3.6c0.7,0,1.3,0.1,1.8,0.4l-0.6,2.5c-0.6-0.3-1-0.3-1.7-0.3
		c-1.4,0-3.2,1-4.3,3.9v11h-2.9L245.9,562.8L245.9,562.8z"/>
</g>
<g class="st3">
	<path class="st0" d="M256.4,571.2c0-5.6,3.5-9,7.4-9c1.9,0,3.3,0.7,4.9,1.9l-0.1-2.9v-6.5h2.9v25H269l-0.3-1.9l0,0
		c-1.4,1.3-3.2,2.4-5.1,2.4C259.2,580.2,256.4,577,256.4,571.2z M268.4,575.4v-8.9c-1.4-1.3-2.8-1.8-4.2-1.8c-2.8,0-4.9,2.6-4.9,6.5
		c0,4.2,1.7,6.5,4.7,6.5C265.6,577.8,267,577,268.4,575.4z"/>
	<path class="st0" d="M276.6,557.3c0-1.1,0.8-1.8,1.9-1.8s1.9,0.7,1.9,1.8s-0.8,1.8-1.9,1.8S276.6,558.4,276.6,557.3z M277.2,562.8
		h2.9v17.1h-2.9V562.8z"/>
	<path class="st0" d="M285.8,562.8h2.4l0.3,2.5h0.1c1.7-1.7,3.3-2.9,5.7-2.9c3.6,0,5.1,2.4,5.1,6.7V580h-2.9v-10.4
		c0-3.2-1-4.6-3.2-4.6c-1.8,0-2.9,0.8-4.7,2.6V580h-2.9L285.8,562.8L285.8,562.8z"/>
</g>
<g class="st3">
	<path class="st0" d="M303.9,575.3c0-3.8,3.2-5.6,10.4-6.4c0-2.2-0.7-4.3-3.5-4.3c-1.9,0-3.8,1-5.1,1.8l-1.1-1.9
		c1.5-1,4-2.2,6.7-2.2c4.2,0,5.8,2.8,5.8,7v10.4h-2.2l-0.3-2.1h-0.1c-1.7,1.4-3.6,2.5-5.7,2.5C306.1,580.2,303.9,578.3,303.9,575.3z
		 M314.5,575.6v-4.7c-5.7,0.7-7.7,2.1-7.7,4.3c0,1.9,1.3,2.8,3.1,2.8C311.4,577.9,312.8,577.1,314.5,575.6z"/>
	<path class="st0" d="M322.1,574.4V565h-2.5v-2.2l2.6-0.1l0.3-4.7h2.4v4.7h4.6v2.4h-4.6v9.5c0,2.1,0.7,3.3,2.6,3.3
		c0.6,0,1.4-0.3,1.9-0.4l0.6,2.1c-1,0.3-2.1,0.7-3.2,0.7C323.4,580.2,322.1,577.9,322.1,574.4z"/>
</g>
<g class="st3">
	<path class="st0" d="M451,305.7h6.8c4.7,0,7.9,1.5,7.9,5.6c0,2.2-1.3,4.3-3.3,5v0.1c2.8,0.6,4.7,2.4,4.7,5.6c0,4.6-3.6,6.8-8.8,6.8
		h-7.4L451,305.7L451,305.7z M457.3,315.4c3.9,0,5.6-1.5,5.6-3.8c0-2.6-1.8-3.8-5.4-3.8h-3.6v7.5L457.3,315.4L457.3,315.4z
		 M457.9,326.3c3.9,0,6.3-1.4,6.3-4.6c0-2.9-2.2-4.2-6.3-4.2h-4v8.6h4V326.3z"/>
	<path class="st0" d="M470.8,314.2c0-1.3,1-2.2,2.1-2.2s2.1,1,2.1,2.2s-1,2.2-2.1,2.2C471.7,316.4,470.8,315.4,470.8,314.2z
		 M470.8,326.8c0-1.3,1-2.2,2.1-2.2s2.1,1,2.1,2.2c0,1.3-1,2.2-2.1,2.2C471.7,329.1,470.8,328.2,470.8,326.8z"/>
</g>
<g class="st3">
	<path class="st0" d="M485.1,308h-7v-2.5h16.8v2.5h-7v20.6H485L485.1,308L485.1,308z"/>
</g>
<g class="st3">
	<path class="st0" d="M496.1,317.1c0-7.5,4.3-12,10.2-12c2.8,0,5,1.4,6.3,2.9l-1.5,1.9c-1.3-1.3-2.8-2.2-4.7-2.2
		c-4.3,0-7.2,3.6-7.2,9.3c0,5.8,2.8,9.5,7.1,9.5c2.2,0,3.9-1,5.3-2.6l1.7,1.8c-1.8,2.1-4,3.3-7.1,3.3
		C500.4,329.1,496.1,324.6,496.1,317.1z"/>
	<path class="st0" d="M516.5,305.7h6.5c5.1,0,8.6,1.7,8.6,6.8c0,4.9-3.5,7.1-8.5,7.1h-3.8v9.2h-2.9v-23.1H516.5z M522.8,317.1
		c4,0,6-1.5,6-4.7c0-3.3-2.1-4.5-6.1-4.5h-3.3v9.2H522.8L522.8,317.1z"/>
</g>
<g class="st3">
	<path class="st0" d="M539.9,320.2c0-5.7,3.9-9,8.2-9c2.2,0,3.8,1,5,1.9l-1.5,1.9c-1-1-2.1-1.5-3.5-1.5c-3.1,0-5.3,2.6-5.3,6.5
		s2.1,6.5,5.3,6.5c1.5,0,2.9-0.7,4-1.7l1.3,1.9c-1.5,1.4-3.5,2.2-5.6,2.2C543.4,329.1,539.9,325.9,539.9,320.2z"/>
</g>
<g class="st3">
	<path class="st0" d="M554.2,320.2c0-5.7,3.8-9,7.9-9s7.9,3.3,7.9,9s-3.8,8.9-7.9,8.9S554.2,325.9,554.2,320.2z M567.2,320.2
		c0-3.9-1.9-6.5-5-6.5s-4.9,2.6-4.9,6.5s1.9,6.5,4.9,6.5S567.2,324.1,567.2,320.2z"/>
	<path class="st0" d="M572.3,320.2c0-5.7,3.8-9,7.9-9s7.9,3.3,7.9,9s-3.8,8.9-7.9,8.9S572.3,325.9,572.3,320.2z M585.3,320.2
		c0-3.9-1.9-6.5-5-6.5s-4.9,2.6-4.9,6.5s1.9,6.5,4.9,6.5S585.3,324.1,585.3,320.2z"/>
</g>
<g class="st3">
	<path class="st0" d="M591.8,311.5h2.4l0.3,3.1h0.1c1.3-2.2,2.9-3.6,4.9-3.6c0.7,0,1.3,0.1,1.8,0.4l-0.6,2.5c-0.6-0.3-1-0.3-1.7-0.3
		c-1.4,0-3.2,1-4.3,3.9v11h-2.9L591.8,311.5L591.8,311.5z"/>
</g>
<g class="st3">
	<path class="st0" d="M601.4,320.2c0-5.6,3.5-9,7.4-9c1.9,0,3.3,0.7,4.9,1.9l-0.1-2.9v-6.5h2.9v25h-2.4l-0.3-1.9l0,0
		c-1.4,1.3-3.2,2.4-5.1,2.4C604.2,329.1,601.4,325.9,601.4,320.2z M613.5,324.3v-8.9c-1.4-1.3-2.8-1.8-4.2-1.8
		c-2.8,0-4.9,2.6-4.9,6.5c0,4.2,1.7,6.5,4.7,6.5C610.7,326.7,612.1,325.9,613.5,324.3z"/>
	<path class="st0" d="M620.8,306.2c0-1.1,0.8-1.8,1.9-1.8s1.9,0.7,1.9,1.8s-0.8,1.8-1.9,1.8C621.6,308,620.8,307.4,620.8,306.2z
		 M621.2,311.5h2.9v17.1h-2.9V311.5z"/>
	<path class="st0" d="M629,311.5h2.4l0.3,2.5h0.1c1.7-1.7,3.3-2.9,5.7-2.9c3.6,0,5.1,2.4,5.1,6.7v10.9h-2.9v-10.4
		c0-3.2-1-4.6-3.2-4.6c-1.8,0-2.9,0.8-4.7,2.6v12.4h-2.9L629,311.5L629,311.5z"/>
</g>
<g class="st3">
	<path class="st0" d="M646.1,324.2c0-3.8,3.2-5.6,10.4-6.4c0-2.2-0.7-4.3-3.5-4.3c-1.9,0-3.8,1-5.1,1.8l-1.1-1.9
		c1.5-1,4-2.2,6.7-2.2c4.2,0,5.8,2.8,5.8,7v10.4h-2.4l-0.3-2.1h-0.1c-1.7,1.4-3.6,2.5-5.7,2.5C648.3,329.1,646.1,327.3,646.1,324.2z
		 M656.7,324.5v-4.7c-5.7,0.7-7.7,2.1-7.7,4.3c0,1.9,1.3,2.8,3.1,2.8C653.6,326.8,655,326,656.7,324.5z"/>
	<path class="st0" d="M663.3,323.4v-9.5h-2.5v-2.1l2.6-0.1l0.3-4.7h2.4v4.7h4.6v2.4h-4.6v9.5c0,2.1,0.7,3.3,2.6,3.3
		c0.6,0,1.4-0.3,1.9-0.4l0.6,2.1c-1,0.3-2.1,0.7-3.2,0.7C664.6,329.1,663.3,326.8,663.3,323.4z"/>
</g>
<g class="st3">
	<path class="st0" d="M672.7,320.2c0-5.6,3.8-9,7.7-9c4.3,0,6.8,3.2,6.8,8.1c0,0.7,0,1.3-0.1,1.7h-11.5c0.1,3.6,2.4,6,5.7,6
		c1.7,0,3.1-0.6,4.3-1.4l1,1.9c-1.5,1-3.3,1.8-5.7,1.8C676.3,329.1,672.7,325.7,672.7,320.2z M684.6,318.8c0-3.5-1.5-5.3-4.2-5.3
		c-2.4,0-4.6,1.9-4.9,5.3H684.6z"/>
</g>
<g class="st3">
	<path class="st0" d="M331.8,571.1c0-5.6,3.8-9,7.7-9c4.3,0,6.8,3.2,6.8,8.1c0,0.7,0,1.3-0.1,1.7h-11.5c0.1,3.6,2.4,6,5.7,6
		c1.7,0,3.1-0.6,4.3-1.4l1,1.9c-1.5,1-3.3,1.8-5.7,1.8C335.4,580,331.8,576.6,331.8,571.1z M343.7,569.7c0-3.5-1.5-5.3-4.2-5.3
		c-2.4,0-4.6,1.9-4.9,5.3H343.7z"/>
</g>
<g class="st3">
	<path class="st0" d="M802.5,570.4c0-5.6,3.8-9,7.7-9c4.3,0,6.8,3.2,6.8,8.1c0,0.7,0,1.3-0.1,1.7h-11.5c0.1,3.6,2.4,6,5.7,6
		c1.7,0,3.1-0.6,4.3-1.4l1,1.9c-1.5,1-3.3,1.8-5.7,1.8C806.1,579.3,802.5,575.9,802.5,570.4z M814.4,569c0-3.5-1.5-5.3-4.2-5.3
		c-2.4,0-4.6,1.9-4.9,5.3H814.4z"/>
</g>
<g class="st3">
	<path class="st0" d="M562.2,567.8c0-7.5,4.3-12,10.2-12c2.8,0,5,1.4,6.3,2.9l-1.5,1.9c-1.3-1.3-2.8-2.2-4.7-2.2
		c-4.3,0-7.2,3.6-7.2,9.3c0,5.8,2.8,9.5,7.1,9.5c2.2,0,3.9-1,5.3-2.6l1.7,1.8c-1.8,2.1-4,3.3-7.1,3.3
		C566.5,579.8,562.2,575.3,562.2,567.8z"/>
	<path class="st0" d="M582.8,564.9c0-1.3,1-2.2,2.1-2.2s2.1,1,2.1,2.2s-1,2.2-2.1,2.2C583.6,567.1,582.8,566.1,582.8,564.9z
		 M582.8,577.5c0-1.3,1-2.2,2.1-2.2s2.1,1,2.1,2.2c0,1.3-1,2.2-2.1,2.2C583.6,579.8,582.8,578.9,582.8,577.5z"/>
	<path class="st0" d="M610.6,577.4l1.4-1.9c1.5,1.3,3.1,1.9,5,1.9c2.2,0,3.3-1.3,3.3-2.6c0-1.7-1.9-2.5-3.9-3.2
		c-2.4-0.8-5.1-2.1-5.1-4.9c0-2.6,2.2-4.9,5.8-4.9c2.1,0,3.9,0.8,5.3,1.9l-1.4,1.8c-1.3-0.8-2.4-1.5-3.9-1.5c-2.1,0-3.1,1.1-3.1,2.5
		c0,1.7,1.8,2.2,3.8,2.9c2.5,1,5.1,1.9,5.1,5.1c0,2.8-2.2,5-6.3,5C614.7,579.8,612.3,578.8,610.6,577.4z"/>
	<path class="st0" d="M625.9,570.9c0-5.6,3.8-9,7.7-9c4.3,0,6.8,3.2,6.8,8.1c0,0.7,0,1.3-0.1,1.7h-11.5c0.1,3.6,2.4,6,5.7,6
		c1.7,0,3.1-0.6,4.3-1.4l1,1.9c-1.5,1-3.3,1.8-5.7,1.8C629.7,579.8,625.9,576.4,625.9,570.9z M637.9,569.5c0-3.5-1.5-5.3-4.2-5.3
		c-2.4,0-4.6,1.9-4.9,5.3H637.9z"/>
	<path class="st0" d="M644.7,562.2h2.4l0.3,3.1h0.1c1.3-2.2,2.9-3.6,4.9-3.6c0.7,0,1.3,0.1,1.8,0.4l-0.6,2.5c-0.6-0.3-1-0.3-1.7-0.3
		c-1.4,0-3.2,1-4.3,3.9v11h-2.9L644.7,562.2L644.7,562.2z"/>
</g>
<g class="st3">
	<path class="st0" d="M661.3,570.9c0-5.7,3.9-9,8.2-9c2.2,0,3.8,1,5,1.9l-1.5,1.9c-1-1-2.1-1.5-3.5-1.5c-3.1,0-5.3,2.6-5.3,6.5
		s2.1,6.5,5.3,6.5c1.5,0,2.9-0.7,4-1.7l1.3,1.9c-1.5,1.4-3.5,2.2-5.6,2.2C664.8,579.8,661.3,576.4,661.3,570.9z"/>
</g>
<g class="st3">
	<path class="st0" d="M676.4,570.9c0-5.7,3.8-9,7.9-9s7.9,3.3,7.9,9s-3.8,8.9-7.9,8.9S676.4,576.4,676.4,570.9z M689.4,570.9
		c0-3.9-1.9-6.5-5-6.5s-4.9,2.6-4.9,6.5s1.9,6.5,4.9,6.5S689.4,574.8,689.4,570.9z"/>
	<path class="st0" d="M695.5,570.9c0-5.7,3.8-9,7.9-9s7.9,3.3,7.9,9s-3.8,8.9-7.9,8.9S695.5,576.4,695.5,570.9z M708.4,570.9
		c0-3.9-1.9-6.5-5-6.5s-4.9,2.6-4.9,6.5s1.9,6.5,4.9,6.5S708.4,574.8,708.4,570.9z"/>
</g>
<g class="st3">
	<path class="st0" d="M715.8,562.2h2.4l0.3,3.1h0.1c1.3-2.2,2.9-3.6,4.9-3.6c0.7,0,1.3,0.1,1.8,0.4l-0.6,2.5c-0.6-0.3-1-0.3-1.7-0.3
		c-1.4,0-3.2,1-4.3,3.9v11h-2.9L715.8,562.2L715.8,562.2z"/>
</g>
<g class="st3">
	<path class="st0" d="M726.5,570.9c0-5.6,3.5-9,7.4-9c1.9,0,3.3,0.7,4.9,1.9l-0.1-2.9v-6.5h2.9v25h-2.4l-0.3-1.9l0,0
		c-1.4,1.3-3.2,2.4-5.1,2.4C729.3,579.8,726.5,576.6,726.5,570.9z M738.5,575v-8.9c-1.4-1.3-2.8-1.8-4.2-1.8c-2.8,0-4.9,2.6-4.9,6.5
		c0,4.2,1.7,6.5,4.7,6.5C735.7,577.4,737.1,576.6,738.5,575z"/>
	<path class="st0" d="M746.7,556.9c0-1.1,0.8-1.8,1.9-1.8s1.9,0.7,1.9,1.8s-0.8,1.8-1.9,1.8S746.7,557.9,746.7,556.9z M747.3,562.2
		h2.9v17.1h-2.9V562.2z"/>
	<path class="st0" d="M755.9,562.2h2.4l0.3,2.5h0.1c1.7-1.7,3.3-2.9,5.7-2.9c3.6,0,5.1,2.4,5.1,6.7v10.9h-2.9V569
		c0-3.2-1-4.6-3.2-4.6c-1.8,0-2.9,0.8-4.7,2.6v12.4h-2.9L755.9,562.2L755.9,562.2z"/>
</g>
<g class="st3">
	<path class="st0" d="M774,574.9c0-3.8,3.2-5.6,10.4-6.4c0-2.2-0.7-4.3-3.5-4.3c-1.9,0-3.8,1-5.1,1.8l-1.1-1.9c1.5-1,4-2.2,6.7-2.2
		c4.2,0,5.8,2.8,5.8,7v10.4h-2.4l-0.3-2.1h-0.1c-1.7,1.4-3.6,2.5-5.7,2.5C776.1,579.8,774,578,774,574.9z M784.6,575.2v-4.7
		c-5.7,0.7-7.7,2.1-7.7,4.3c0,1.9,1.3,2.8,3.1,2.8C781.5,577.4,782.9,576.7,784.6,575.2z"/>
	<path class="st0" d="M792.2,574.1v-9.5h-2.5v-2.2l2.6-0.1l0.3-4.7h2.4v4.7h4.6v2.4H795v9.5c0,2.1,0.7,3.3,2.6,3.3
		c0.6,0,1.4-0.3,1.9-0.4l0.6,2.1c-1,0.3-2.1,0.7-3.2,0.7C793.5,579.8,792.2,577.5,792.2,574.1z"/>
</g>
<g>
	<path class="st0" d="M108,555.7h7.1c5,0,8.3,1.7,8.3,6c0,2.5-1.3,4.6-3.6,5.3v0.1c3.1,0.6,5,2.5,5,5.8c0,4.7-3.8,7.1-9.2,7.1h-7.7
		L108,555.7L108,555.7z M114.5,566.2c4.5,0,6.1-1.7,6.1-4.2c0-3.1-2.1-4.2-6-4.2h-3.9v8.3h3.8V566.2z M115.2,577.9c4.3,0,7-1.5,7-5
		c0-3.2-2.5-4.6-7-4.6h-4.5v9.6H115.2L115.2,577.9z"/>
</g>
<g>
	<path class="st0" d="M590.9,570.4V556h2.8v14.6c0,6,2.6,7.9,5.8,7.9c3.3,0,6-1.8,6-7.9V556h2.6v14.5c0,7.8-3.9,10.3-8.6,10.3
		C594.8,580.7,590.9,578.2,590.9,570.4z"/>
</g>
<g>
	<path class="st5" d="M431.6,417.3L431.6,417.3c-0.6,0-0.6,0-0.6-0.6v-21.6c0-0.6,0-0.6,0.6-0.6l0,0c0.6,0,0.6,0,0.6,0.6v21.6
		L431.6,417.3z"/>
	<path class="st5" d="M430.5,394"/>
	<path class="st5" d="M431.6,395.1"/>
	<path class="st5" d="M431,396.8v-84.2c0-0.6,0-0.6,0.6-0.6l0,0c0.3,0,0.6,0.3,0.6,0.6l0,0v84.2c0,0.3-0.3,0.6-0.6,0.6
		C431,397.9,431,396.8,431,396.8z"/>
	<g>
		<path class="st5" d="M370.7,349L370.7,349c-0.6,0-0.6,0-0.6-0.6v-35.9c0-0.6,0-0.6,0.6-0.6l0,0c0.6,0,0.6,0,0.6,0.6v35.9
			C371.3,349,371.3,349,370.7,349z"/>
		<path class="st5" d="M370.1,416.7"/>
		<path class="st5" d="M370.1,417.3v-70c0-0.6,0-0.6,0.6-0.6l0,0c0.6,0,0.6,0,0.6,0.6v70"/>
		<path class="st5" d="M380.9,418.4"/>
		<path class="st5" d="M432.2,312.6h-1.1c0-4.6-6.3-5.1-6.3-5.1h-32.5v-1.1h32.4l0,0c3.6-0.5,6.9,2.1,7.4,5.7
			C432.1,312.2,432.2,312.4,432.2,312.6z"/>
		<path class="st5" d="M371.3,312.6h-1.1l0,0c0.1-3.6,3.2-6.5,6.8-6.3c0.2,0,0.4,0,0.6,0H410v1.1h-32.4
			C377.5,307.4,371.3,308,371.3,312.6z"/>
		<rect x="370.7" y="392.8" class="st5" width="60.9" height="1.1"/>
		<rect x="370.7" y="375.2" class="st5" width="60.9" height="1.1"/>
		<rect x="370.1" y="416.7" class="st5" width="61.5" height="1.1"/>
		<rect x="357.6" y="362.7" class="st5" width="13.1" height="1.1"/>
		<rect x="369" y="314.8" class="st5" width="1.7" height="1.1"/>
		<rect x="303" y="202.7" class="st5" width="70.6" height="1.1"/>
		<rect x="303" y="172.5" class="st5" width="70.6" height="1.1"/>
		<path class="st5" d="M342.2,369.5c-1.5,0.1-3.1-0.1-4.6-0.6c-10.7-1-20.4-6.9-26.2-15.9c-3-5-4.4-10.7-4-16.5V283
			c1.7-15.9-3.4-43.3-4.6-49c-0.5-2.1-0.7-4.2-0.6-6.3v-33.6l0.6-71.2c0.6-13.7,4.6-23.9,12-30.2c6.4-5.7,14.8-8.6,23.3-8
			c12.3,1.2,23.4,7.9,30.2,18.2c3.4,5.7,5.2,12.2,5.1,18.8v71.7l0.6,35.3c0.1,2.1-0.1,4.2-0.6,6.3c-3.4,16.5-4,78.6-4,101.3
			c0.2,3.1-0.2,6.2-1.1,9.1C362.2,366.6,349.1,369.5,342.2,369.5z M303.5,194.2v33.6c-0.1,2.1,0.1,4.2,0.6,6.3
			c1.1,5.7,6.3,33.6,4.6,49v53.5c-0.4,5.4,1,10.8,4,15.4c5.8,8.5,14.9,14.3,25,15.9c1.1,0,21.1,5.1,29.6-22.2c0.9-2.9,1.3-6,1.1-9.1
			c0-0.6,0-82,4-101.3c0.5-2.1,0.7-4.2,0.6-6.3l-0.6-35.3V122c0.1-6.3-1.7-12.4-5.1-17.6c-6.5-10.1-17.1-16.8-29-18.2
			c-8.1-0.4-16,2.2-22.2,7.4c-8.1,7.7-12.4,18.5-12,29.6L303.5,194.2z"/>
		<rect x="287" y="87.3" transform="matrix(0.6644 -0.7473 0.7473 0.6644 15.956 251.0408)" class="st6" width="1.1" height="41"/>
		
			<rect x="333.6" y="28.7" transform="matrix(0.7142 -0.6999 0.6999 0.7142 47.7018 253.4128)" class="st7" width="1.1" height="79.1"/>
		<path class="st5" d="M227.8,239.7c-21.6,0-33.6-21.1-33.6-21.6c-6.8-10.2-4.6-24.5-2.3-31.9c1.8-7.3,2.7-14.7,2.8-22.2v-29.6
			c0.6-51.2,10.8-64.3,12-66c7.4-21.6,42.1-41.6,42.1-41.6c10.6-9.3,25.7-11.7,38.7-6.3c13.9,5.8,22.5,19.7,21.6,34.7
			c-2.3,25-29,33.6-29.6,33.6c-16.5,6.3-13.7,42.1-13.7,42.7v45c-0.2,3.6,0.2,7.3,1.1,10.8c1.1,5.1,2.3,13.7,2.3,13.7
			c-1.1,37-37.6,38.1-38.1,38.1C230.2,239.6,229,239.8,227.8,239.7z M272.8,19.4c-8.6,0.1-16.9,3.3-23.3,9.1
			c-0.6,0-34.7,19.9-42.1,41.6l0,0c0,0-11.4,12.5-12,64.9v29.6c-0.1,7.5-1.1,14.9-2.8,22.2c-1.7,7.4-4,21.1,2.3,30.7
			c0,0,13.1,22.8,35.9,21.1c1.7,0,35.9-1.1,37-37l0,0c0,0-1.1-8.5-2.3-13.7c-0.9-3.5-1.3-7.2-1.1-10.8v-45c0-1.7-2.8-37.6,14.8-43.8
			c0.6,0,26.2-8,28.5-32.4c1.1-14.4-7.2-28-20.5-33.6C282.5,20.4,277.7,19.5,272.8,19.4z"/>
		<rect x="267.1" y="206.7" class="st5" width="1.1" height="74.6"/>
		<rect x="189.7" y="206.7" class="st5" width="1.1" height="76.8"/>
		<path class="st5" d="M268.2,502.1V287.5c-2.3-31.3-36.4-37.6-36.4-37.6c-33,0.6-41,34.2-41,34.2v218h-1.1v-218
			c0-0.6,8-34.7,42.1-35.3c0.6,0,35.3,6.3,37.6,38.7v214.6L268.2,502.1L268.2,502.1z"/>
		<rect x="189.7" y="382.6" class="st5" width="79.1" height="1.1"/>
		<rect x="189.7" y="415.6" class="st5" width="79.1" height="1.1"/>
		<path class="st5" d="M281.9,510.7H176.6v-9.1h105.3V510.7z M177.7,509.5h103v-6.8h-103V509.5z"/>
		<polygon class="st5" points="197.7,502.1 196.5,502.1 196.5,474.2 190.3,474.2 190.3,473.1 197.7,473.1 		"/>
		<polygon class="st5" points="188,501.5 186.8,501.5 186.8,471.4 189.7,471.4 189.7,472.5 188,472.5 		"/>
		<polygon class="st5" points="187.4,500.4 182.9,500.4 182.9,475.4 187.4,475.4 187.4,476.5 184,476.5 184,499.3 187.4,499.3 		"/>
	</g>
</g>
<circle class="st0" cx="184.4" cy="504.8" r="12.7"/>
<line class="st8" x1="228.3" y1="505.5" x2="228.3" y2="461.8"/>
<polygon class="st0" points="233.6,463.3 228.3,454.3 223.2,463.3 "/>
<line class="st8" x1="232.4" y1="510.1" x2="290.4" y2="510.1"/>
<polygon class="st0" points="288.9,515.2 297.8,510 288.9,504.8 "/>
<g class="st3">
	<path class="st4" d="M186.2,507.6h-4.6l-1,3.6h-2.9l4.6-14.2h3.3l4.6,14.2h-2.9L186.2,507.6z M185.6,505.4l-0.4-1.5
		c-0.4-1.5-0.8-3.1-1.3-4.6h-0.1c-0.4,1.5-0.8,3.2-1.3,4.6l-0.4,1.5H185.6z"/>
</g>
<g>
	<path class="st0" d="M237.8,469.7l9.7-15h-8.8v-1.9h11.7v1.4l-9.7,15h9.7v1.9h-12.7C237.8,471.1,237.8,469.7,237.8,469.7z"/>
</g>
<g>
	<path class="st0" d="M312.7,510.4l-5-8.9h2.5l2.5,4.7c0.4,0.8,0.8,1.7,1.4,2.6h0.1c0.6-1.1,0.8-1.8,1.3-2.6l2.5-4.7h2.4l-5,9
		l5.4,9.3h-2.5l-2.6-5c-0.4-0.8-1-1.8-1.5-2.9h-0.1c-0.6,1.1-1,2.1-1.5,2.9l-2.6,5h-2.4L312.7,510.4z"/>
</g>
<g>
	<path class="st0" d="M227.3,534.5l-5.6-11.3h2.5l2.4,5.1c0.6,1.4,1.1,2.6,1.8,4h0.1c0.7-1.4,1.3-2.6,1.8-4l2.4-5.1h2.4l-5.6,11.3
		v7.1h-2.4L227.3,534.5L227.3,534.5z"/>
</g>
<circle class="st2" cx="228.1" cy="509.7" r="4.2"/>
<circle class="st0" cx="400.9" cy="374.7" r="12.7"/>
<g class="st3">
	<path class="st4" d="M396.1,366.9h4.7c2.9,0,5.1,0.8,5.1,3.5c0,1.3-0.7,2.6-1.9,3.1v0.1c1.5,0.4,2.6,1.4,2.6,3.3
		c0,2.9-2.4,4.2-5.6,4.2h-5.1L396.1,366.9L396.1,366.9z M400.6,372.8c1.8,0,2.6-0.7,2.6-1.8c0-1.3-0.8-1.8-2.5-1.8H399v3.6H400.6z
		 M400.9,379c1.9,0,3.1-0.7,3.1-2.2c0-1.4-1-1.9-3.1-1.9H399v4.2L400.9,379L400.9,379z"/>
</g>
<line class="st8" x1="399.4" y1="417.1" x2="399.4" y2="474.3"/>
<line class="st9" x1="370.4" y1="411.3" x2="431.6" y2="411.3"/>
<circle class="st0" cx="399.4" cy="412.3" r="4.7"/>
<line class="st8" x1="400.6" y1="412.3" x2="447.6" y2="412.3"/>
</svg>
