<?xml version="1.0" encoding="utf-8"?>
<!-- Generator: Adobe Illustrator 26.0.1, SVG Export Plug-In . SVG Version: 6.00 Build 0)  -->
<svg version="1.1" id="图层_1" xmlns="http://www.w3.org/2000/svg" xmlns:xlink="http://www.w3.org/1999/xlink" x="0px" y="0px"
	 viewBox="0 0 1920 1080" style="enable-background:new 0 0 1920 1080;" xml:space="preserve">
<style type="text/css">
	.st0{fill:#356FE0;}
	.st1{fill:none;stroke:#FFFFFF;stroke-linecap:round;stroke-linejoin:round;}
	.st2{fill:none;stroke:#356FE0;stroke-width:2;stroke-miterlimit:10;}
	.st3{enable-background:new    ;}
	.st4{fill:#FFFFFF;}
	.st5{fill:#FFFFFF;stroke:#FFFFFF;stroke-width:0.25;stroke-miterlimit:10;}
	.st6{fill:#FFFFFF;stroke:#FFFFFF;stroke-width:0.25;stroke-miterlimit:9.9994;}
	.st7{fill:#FFFFFF;stroke:#FFFFFF;stroke-width:0.25;stroke-miterlimit:9.9997;}
	.st8{fill:none;stroke:#356FE0;stroke-width:1.5;stroke-miterlimit:10;}
	.st9{fill:none;stroke:#FFFFFF;stroke-width:1.5;stroke-miterlimit:10;}
</style>
<polygon class="st0" points="940.8,679.1 949.8,673.9 940.8,668.6 "/>
<polygon class="st0" points="888.9,734.3 894.1,743.4 899.3,734.3 "/>
<g>
	<path class="st0" d="M908.1,739.6l9.7-15H909v-1.9h11.7v1.4l-9.7,15h9.7v1.9H908C908.1,741,908.1,739.6,908.1,739.6z"/>
</g>
<g>
	<path class="st0" d="M967.1,676.6l-5-8.9h2.5l2.5,4.7c0.4,0.8,0.8,1.7,1.4,2.6h0.1c0.6-1.1,0.8-1.8,1.3-2.6l2.5-4.7h2.4l-5,9
		l5.4,9.3h-2.5l-2.6-5c-0.4-0.8-1-1.8-1.5-2.9h-0.1c-0.6,1.1-1,2.1-1.5,2.9l-2.6,5H962L967.1,676.6z"/>
</g>
<g>
	<path class="st0" d="M877.6,693.6l-5.6-11.3h2.5l2.4,5.1c0.6,1.4,1.1,2.6,1.8,4h0.1c0.7-1.4,1.3-2.6,1.8-4l2.4-5.1h2.4l-5.6,11.3
		v7.1h-2.4L877.6,693.6L877.6,693.6z"/>
</g>
<line class="st1" x1="896.6" y1="767.8" x2="1191.3" y2="767.8"/>
<line class="st1" x1="965.7" y1="767.8" x2="940.1" y2="784.9"/>
<line class="st1" x1="1058.4" y1="767.8" x2="1032.8" y2="784.9"/>
<line class="st1" x1="1182.1" y1="767.8" x2="1156.5" y2="784.9"/>
<line class="st1" x1="1027.5" y1="767.8" x2="1001.9" y2="784.9"/>
<line class="st1" x1="903.9" y1="767.8" x2="878.3" y2="784.9"/>
<line class="st1" x1="996.6" y1="767.8" x2="971" y2="784.9"/>
<line class="st1" x1="1120.3" y1="767.8" x2="1094.6" y2="784.9"/>
<line class="st1" x1="1089.3" y1="767.8" x2="1063.7" y2="784.9"/>
<line class="st1" x1="1151.2" y1="767.8" x2="1125.5" y2="784.9"/>
<line class="st1" x1="934.8" y1="767.8" x2="909.2" y2="784.9"/>
<circle class="st0" cx="1191.3" cy="767.1" r="8.2"/>
<line class="st2" x1="1183.1" y1="767.1" x2="1082.7" y2="767.1"/>
<polygon class="st0" points="1084.8,760.2 1072.7,767.1 1084.8,774.1 "/>
<line class="st2" x1="1191.3" y1="758.9" x2="1191.3" y2="688.8"/>
<polygon class="st0" points="1198.2,690.9 1191.3,678.9 1184.3,690.9 "/>
<circle class="st0" cx="1227" cy="765.7" r="12.7"/>
<g class="st3">
	<path class="st4" d="M1221.5,765.2c0-4.7,3.1-7.5,6.7-7.5c1.8,0,3.2,0.8,4.2,1.8l-1.5,1.8c-0.7-0.7-1.5-1.3-2.6-1.3
		c-2.1,0-3.8,1.8-3.8,4.9s1.5,5,3.8,5c1.3,0,2.2-0.6,2.9-1.4l1.5,1.8c-1.1,1.4-2.6,2.1-4.6,2.1
		C1224.4,772.4,1221.5,769.9,1221.5,765.2z"/>
</g>
<g>
	<path class="st0" d="M1184.3,665.7l9.7-15h-8.8v-1.9h11.7v1.4l-9.7,15h9.7v1.9h-12.7v-1.4H1184.3z"/>
</g>
<g>
	<path class="st0" d="M1064.4,753.3l-5-8.9h2.5l2.5,4.7c0.4,0.8,0.8,1.7,1.4,2.6h0.1c0.6-1.1,0.8-1.8,1.3-2.6l2.5-4.7h2.4l-5,9
		l5.4,9.3h-2.5l-2.6-5c-0.4-0.8-1-1.8-1.5-2.9h-0.1c-0.6,1.1-1,2.1-1.5,2.9l-2.6,5h-2.4L1064.4,753.3z"/>
</g>
<g class="st3">
	<path class="st0" d="M1015.7,522.8h-8.5l-2.2,7.1h-2.9l7.8-23.1h3.2l7.8,23.1h-3.1L1015.7,522.8z M1014.8,520.4l-1.1-3.5
		c-0.8-2.6-1.5-5.1-2.4-7.8h-0.1c-0.7,2.6-1.5,5.1-2.2,7.8l-1.1,3.5H1014.8z"/>
	<path class="st0" d="M1023.3,515.4c0-1.3,1-2.2,2.1-2.2s2.1,1,2.1,2.2c0,1.3-1,2.2-2.1,2.2C1024.2,517.5,1023.3,516.7,1023.3,515.4
		z M1023.3,528.1c0-1.3,1-2.2,2.1-2.2s2.1,1,2.1,2.2c0,1.3-1,2.2-2.1,2.2C1024.2,530.2,1023.3,529.3,1023.3,528.1z"/>
</g>
<g class="st3">
	<path class="st0" d="M1051.8,525.3c0-3.8,3.2-5.6,10.4-6.4c0-2.2-0.7-4.3-3.5-4.3c-1.9,0-3.8,1-5.1,1.8l-1.1-1.9
		c1.5-1,4-2.2,6.7-2.2c4.2,0,5.8,2.8,5.8,7v10.4h-2.4l-0.3-2.1h0.1c-1.7,1.4-3.6,2.5-5.7,2.5
		C1053.9,530.2,1051.8,528.3,1051.8,525.3z M1062.4,525.6v-4.7c-5.7,0.7-7.7,2.1-7.7,4.3c0,1.9,1.3,2.8,3.1,2.8
		C1059.4,527.9,1060.8,527.1,1062.4,525.6z"/>
	<path class="st0" d="M1068.7,527.8l1.4-1.9c1.5,1.3,3.1,1.9,5,1.9c2.2,0,3.3-1.3,3.3-2.6c0-1.7-1.9-2.5-3.9-3.2
		c-2.4-0.8-5.1-2.1-5.1-4.9c0-2.6,2.2-4.9,5.8-4.9c2.1,0,3.9,0.8,5.3,1.9l-1.4,1.8c-1.3-0.8-2.4-1.5-3.9-1.5c-2.1,0-3.1,1.1-3.1,2.5
		c0,1.7,1.8,2.2,3.8,2.9c2.5,1,5.1,1.9,5.1,5.1c0,2.8-2.2,5-6.3,5C1072.7,530.2,1070.4,529.2,1068.7,527.8z"/>
	<path class="st0" d="M1084.1,521.2c0-5.6,3.8-9,7.7-9c4.3,0,6.8,3.2,6.8,8.1c0,0.7,0,1.3-0.1,1.7H1087c0.1,3.6,2.4,6,5.7,6
		c1.7,0,3.1-0.6,4.3-1.4l1,1.9c-1.5,1-3.3,1.8-5.7,1.8C1087.7,530.2,1084.1,526.8,1084.1,521.2z M1096.1,519.9
		c0-3.5-1.5-5.3-4.2-5.3c-2.4,0-4.6,1.9-4.9,5.3H1096.1z"/>
</g>
<g class="st3">
	<path class="st0" d="M1115.6,521.2c0-5.7,3.9-9,8.2-9c2.2,0,3.8,1,5,1.9l-1.5,1.9c-1-1-2.1-1.5-3.5-1.5c-3.1,0-5.3,2.6-5.3,6.5
		s2.1,6.5,5.3,6.5c1.5,0,2.9-0.7,4-1.7l1.3,1.9c-1.5,1.4-3.5,2.2-5.6,2.2C1119.1,530.2,1115.6,527,1115.6,521.2z"/>
</g>
<g class="st3">
	<path class="st0" d="M1130.9,521.2c0-5.7,3.8-9,7.9-9s7.9,3.3,7.9,9s-3.8,8.9-7.9,8.9C1134.5,530.2,1130.9,527,1130.9,521.2z
		 M1143.7,521.2c0-3.9-1.9-6.5-5-6.5c-2.9,0-4.9,2.6-4.9,6.5s1.9,6.5,4.9,6.5C1141.7,527.8,1143.7,525.1,1143.7,521.2z"/>
	<path class="st0" d="M1149.8,521.2c0-5.7,3.8-9,7.9-9s7.9,3.3,7.9,9s-3.8,8.9-7.9,8.9S1149.8,527,1149.8,521.2z M1162.7,521.2
		c0-3.9-1.9-6.5-5-6.5c-2.9,0-4.9,2.6-4.9,6.5s1.9,6.5,4.9,6.5C1160.8,527.8,1162.7,525.1,1162.7,521.2z"/>
</g>
<g class="st3">
	<path class="st0" d="M1170.3,512.8h2.4l0.3,3.1h0.1c1.3-2.2,2.9-3.6,4.9-3.6c0.7,0,1.3,0.1,1.8,0.4l-0.6,2.5
		c-0.6-0.3-1-0.3-1.7-0.3c-1.4,0-3.2,1-4.3,3.9v11h-2.9L1170.3,512.8L1170.3,512.8z"/>
</g>
<g class="st3">
	<path class="st0" d="M1180.8,521.2c0-5.6,3.5-9,7.4-9c1.9,0,3.3,0.7,4.9,1.9l-0.1-2.9v-6.5h2.9v25h-2.5l-0.3-1.9l0,0
		c-1.4,1.3-3.2,2.4-5.1,2.4C1183.6,530.2,1180.8,527,1180.8,521.2z M1192.8,525.4v-8.9c-1.4-1.3-2.8-1.8-4.2-1.8
		c-2.8,0-4.9,2.6-4.9,6.5c0,4.2,1.7,6.5,4.7,6.5C1190,527.8,1191.4,527,1192.8,525.4z"/>
	<path class="st0" d="M1201,507.3c0-1.1,0.8-1.8,1.9-1.8s1.9,0.7,1.9,1.8s-0.8,1.8-1.9,1.8S1201,508.4,1201,507.3z M1201.6,512.8
		h2.9v17.1h-2.9V512.8z"/>
	<path class="st0" d="M1210.2,512.8h2.4l0.3,2.5h0.1c1.7-1.7,3.3-2.9,5.7-2.9c3.6,0,5.1,2.4,5.1,6.7V530h-2.9v-10.4
		c0-3.2-1-4.6-3.2-4.6c-1.8,0-2.9,0.8-4.7,2.6V530h-2.9L1210.2,512.8L1210.2,512.8z"/>
</g>
<g class="st3">
	<path class="st0" d="M1228.3,525.3c0-3.8,3.2-5.6,10.4-6.4c0-2.2-0.7-4.3-3.5-4.3c-1.9,0-3.8,1-5.1,1.8l-1.1-1.9
		c1.5-1,4-2.2,6.7-2.2c4.2,0,5.8,2.8,5.8,7v10.4h-2.2l-0.3-2.1h-0.1c-1.7,1.4-3.6,2.5-5.7,2.5
		C1230.5,530.2,1228.3,528.3,1228.3,525.3z M1238.9,525.6v-4.7c-5.7,0.7-7.7,2.1-7.7,4.3c0,1.9,1.3,2.8,3.1,2.8
		C1235.8,527.9,1237.2,527.1,1238.9,525.6z"/>
	<path class="st0" d="M1246.5,524.4V515h-2.5v-2.2l2.6-0.1l0.3-4.7h2.4v4.7h4.6v2.4h-4.6v9.5c0,2.1,0.7,3.3,2.6,3.3
		c0.6,0,1.4-0.3,1.9-0.4l0.6,2.1c-1,0.3-2.1,0.7-3.2,0.7C1247.8,530.2,1246.5,527.9,1246.5,524.4z"/>
</g>
<g>
	<g class="st3">
		<path class="st0" d="M1005.1,551.6h6.8c4.7,0,7.9,1.5,7.9,5.6c0,2.2-1.3,4.3-3.3,5v0.1c2.8,0.6,4.7,2.4,4.7,5.6
			c0,4.6-3.6,6.8-8.8,6.8h-7.4L1005.1,551.6L1005.1,551.6z M1011.4,561.3c3.9,0,5.6-1.5,5.6-3.8c0-2.6-1.8-3.8-5.4-3.8h-3.6v7.5
			L1011.4,561.3L1011.4,561.3z M1012,572.2c3.9,0,6.3-1.4,6.3-4.6c0-2.9-2.2-4.2-6.3-4.2h-4v8.6h4V572.2z"/>
		<path class="st0" d="M1024.9,560.1c0-1.3,1-2.2,2.1-2.2s2.1,1,2.1,2.2s-1,2.2-2.1,2.2C1025.8,562.3,1024.9,561.3,1024.9,560.1z
			 M1024.9,572.7c0-1.3,1-2.2,2.1-2.2s2.1,1,2.1,2.2c0,1.3-1,2.2-2.1,2.2C1025.8,575,1024.9,574.1,1024.9,572.7z"/>
	</g>
	<g class="st3">
		<path class="st0" d="M1039.2,553.9h-7v-2.5h16.8v2.5h-7v20.6h-2.9L1039.2,553.9L1039.2,553.9z"/>
	</g>
	<g class="st3">
		<path class="st0" d="M1050.2,563c0-7.5,4.3-12,10.2-12c2.8,0,5,1.4,6.3,2.9l-1.5,1.9c-1.3-1.3-2.8-2.2-4.7-2.2
			c-4.3,0-7.2,3.6-7.2,9.3c0,5.8,2.8,9.5,7.1,9.5c2.2,0,3.9-1,5.3-2.6l1.7,1.8c-1.8,2.1-4,3.3-7.1,3.3
			C1054.5,575,1050.2,570.5,1050.2,563z"/>
		<path class="st0" d="M1070.6,551.6h6.5c5.1,0,8.6,1.7,8.6,6.8c0,4.9-3.5,7.1-8.5,7.1h-3.8v9.2h-2.9v-23.1H1070.6z M1076.9,563
			c4,0,6-1.5,6-4.7c0-3.3-2.1-4.5-6.1-4.5h-3.3v9.2H1076.9L1076.9,563z"/>
	</g>
	<g class="st3">
		<path class="st0" d="M1094,566.1c0-5.7,3.9-9,8.2-9c2.2,0,3.8,1,5,1.9l-1.5,1.9c-1-1-2.1-1.5-3.5-1.5c-3.1,0-5.3,2.6-5.3,6.5
			s2.1,6.5,5.3,6.5c1.5,0,2.9-0.7,4-1.7l1.3,1.9c-1.5,1.4-3.5,2.2-5.6,2.2C1097.5,575,1094,571.8,1094,566.1z"/>
	</g>
	<g class="st3">
		<path class="st0" d="M1108.3,566.1c0-5.7,3.8-9,7.9-9s7.9,3.3,7.9,9s-3.8,8.9-7.9,8.9S1108.3,571.8,1108.3,566.1z M1121.3,566.1
			c0-3.9-1.9-6.5-5-6.5s-4.9,2.6-4.9,6.5s1.9,6.5,4.9,6.5S1121.3,570,1121.3,566.1z"/>
		<path class="st0" d="M1126.4,566.1c0-5.7,3.8-9,7.9-9s7.9,3.3,7.9,9s-3.8,8.9-7.9,8.9S1126.4,571.8,1126.4,566.1z M1139.4,566.1
			c0-3.9-1.9-6.5-5-6.5s-4.9,2.6-4.9,6.5s1.9,6.5,4.9,6.5S1139.4,570,1139.4,566.1z"/>
	</g>
	<g class="st3">
		<path class="st0" d="M1145.9,557.4h2.4l0.3,3.1h0.1c1.3-2.2,2.9-3.6,4.9-3.6c0.7,0,1.3,0.1,1.8,0.4l-0.6,2.5
			c-0.6-0.3-1-0.3-1.7-0.3c-1.4,0-3.2,1-4.3,3.9v11h-2.9L1145.9,557.4L1145.9,557.4z"/>
	</g>
	<g class="st3">
		<path class="st0" d="M1155.5,566.1c0-5.6,3.5-9,7.4-9c1.9,0,3.3,0.7,4.9,1.9l-0.1-2.9v-6.5h2.9v25h-2.4l-0.3-1.9l0,0
			c-1.4,1.3-3.2,2.4-5.1,2.4C1158.3,575,1155.5,571.8,1155.5,566.1z M1167.6,570.2v-8.9c-1.4-1.3-2.8-1.8-4.2-1.8
			c-2.8,0-4.9,2.6-4.9,6.5c0,4.2,1.7,6.5,4.7,6.5C1164.8,572.6,1166.2,571.8,1167.6,570.2z"/>
		<path class="st0" d="M1174.9,552.1c0-1.1,0.8-1.8,1.9-1.8s1.9,0.7,1.9,1.8s-0.8,1.8-1.9,1.8
			C1175.7,553.9,1174.9,553.3,1174.9,552.1z M1175.3,557.4h2.9v17.1h-2.9V557.4z"/>
		<path class="st0" d="M1183.1,557.4h2.4l0.3,2.5h0.1c1.7-1.7,3.3-2.9,5.7-2.9c3.6,0,5.1,2.4,5.1,6.7v10.9h-2.9v-10.4
			c0-3.2-1-4.6-3.2-4.6c-1.8,0-2.9,0.8-4.7,2.6v12.4h-2.9L1183.1,557.4L1183.1,557.4z"/>
	</g>
	<g class="st3">
		<path class="st0" d="M1200.2,570.1c0-3.8,3.2-5.6,10.4-6.4c0-2.2-0.7-4.3-3.5-4.3c-1.9,0-3.8,1-5.1,1.8l-1.1-1.9
			c1.5-1,4-2.2,6.7-2.2c4.2,0,5.8,2.8,5.8,7v10.4h-2.4l-0.3-2.1h-0.1c-1.7,1.4-3.6,2.5-5.7,2.5
			C1202.4,575,1200.2,573.2,1200.2,570.1z M1210.8,570.4v-4.7c-5.7,0.7-7.7,2.1-7.7,4.3c0,1.9,1.3,2.8,3.1,2.8
			C1207.7,572.7,1209.1,571.9,1210.8,570.4z"/>
		<path class="st0" d="M1217.4,569.3v-9.5h-2.5v-2.1l2.6-0.1l0.3-4.7h2.4v4.7h4.6v2.4h-4.6v9.5c0,2.1,0.7,3.3,2.6,3.3
			c0.6,0,1.4-0.3,1.9-0.4l0.6,2.1c-1,0.3-2.1,0.7-3.2,0.7C1218.7,575,1217.4,572.7,1217.4,569.3z"/>
	</g>
	<g class="st3">
		<path class="st0" d="M1226.8,566.1c0-5.6,3.8-9,7.7-9c4.3,0,6.8,3.2,6.8,8.1c0,0.7,0,1.3-0.1,1.7h-11.5c0.1,3.6,2.4,6,5.7,6
			c1.7,0,3.1-0.6,4.3-1.4l1,1.9c-1.5,1-3.3,1.8-5.7,1.8C1230.4,575,1226.8,571.6,1226.8,566.1z M1238.7,564.7c0-3.5-1.5-5.3-4.2-5.3
			c-2.4,0-4.6,1.9-4.9,5.3H1238.7z"/>
	</g>
</g>
<g class="st3">
	<path class="st0" d="M1003.7,607.8c0-7.5,4.3-12,10.2-12c2.8,0,5,1.4,6.3,2.9l-1.5,1.9c-1.3-1.3-2.8-2.2-4.7-2.2
		c-4.3,0-7.2,3.6-7.2,9.3c0,5.8,2.8,9.5,7.1,9.5c2.2,0,3.9-1,5.3-2.6l1.7,1.8c-1.8,2.1-4,3.3-7.1,3.3
		C1008,619.8,1003.7,615.3,1003.7,607.8z"/>
	<path class="st0" d="M1024.3,604.9c0-1.3,1-2.2,2.1-2.2s2.1,1,2.1,2.2s-1,2.2-2.1,2.2C1025.1,607.1,1024.3,606.1,1024.3,604.9z
		 M1024.3,617.5c0-1.3,1-2.2,2.1-2.2s2.1,1,2.1,2.2c0,1.3-1,2.2-2.1,2.2C1025.1,619.8,1024.3,618.9,1024.3,617.5z"/>
	<path class="st0" d="M1052.1,617.4l1.4-1.9c1.5,1.3,3.1,1.9,5,1.9c2.2,0,3.3-1.3,3.3-2.6c0-1.7-1.9-2.5-3.9-3.2
		c-2.4-0.8-5.1-2.1-5.1-4.9c0-2.6,2.2-4.9,5.8-4.9c2.1,0,3.9,0.8,5.3,1.9l-1.4,1.8c-1.3-0.8-2.4-1.5-3.9-1.5c-2.1,0-3.1,1.1-3.1,2.5
		c0,1.7,1.8,2.2,3.8,2.9c2.5,1,5.1,1.9,5.1,5.1c0,2.8-2.2,5-6.3,5C1056.2,619.8,1053.8,618.8,1052.1,617.4z"/>
	<path class="st0" d="M1067.4,610.9c0-5.6,3.8-9,7.7-9c4.3,0,6.8,3.2,6.8,8.1c0,0.7,0,1.3-0.1,1.7h-11.5c0.1,3.6,2.4,6,5.7,6
		c1.7,0,3.1-0.6,4.3-1.4l1,1.9c-1.5,1-3.3,1.8-5.7,1.8C1071.2,619.8,1067.4,616.4,1067.4,610.9z M1079.4,609.5
		c0-3.5-1.5-5.3-4.2-5.3c-2.4,0-4.6,1.9-4.9,5.3H1079.4z"/>
	<path class="st0" d="M1086.2,602.2h2.4l0.3,3.1h0.1c1.3-2.2,2.9-3.6,4.9-3.6c0.7,0,1.3,0.1,1.8,0.4l-0.6,2.5
		c-0.6-0.3-1-0.3-1.7-0.3c-1.4,0-3.2,1-4.3,3.9v11h-2.9L1086.2,602.2L1086.2,602.2z"/>
</g>
<g class="st3">
	<path class="st0" d="M1102.8,610.9c0-5.7,3.9-9,8.2-9c2.2,0,3.8,1,5,1.9l-1.5,1.9c-1-1-2.1-1.5-3.5-1.5c-3.1,0-5.3,2.6-5.3,6.5
		s2.1,6.5,5.3,6.5c1.5,0,2.9-0.7,4-1.7l1.3,1.9c-1.5,1.4-3.5,2.2-5.6,2.2C1106.3,619.8,1102.8,616.4,1102.8,610.9z"/>
</g>
<g class="st3">
	<path class="st0" d="M1117.9,610.9c0-5.7,3.8-9,7.9-9s7.9,3.3,7.9,9s-3.8,8.9-7.9,8.9S1117.9,616.4,1117.9,610.9z M1130.9,610.9
		c0-3.9-1.9-6.5-5-6.5s-4.9,2.6-4.9,6.5s1.9,6.5,4.9,6.5S1130.9,614.8,1130.9,610.9z"/>
	<path class="st0" d="M1137,610.9c0-5.7,3.8-9,7.9-9s7.9,3.3,7.9,9s-3.8,8.9-7.9,8.9S1137,616.4,1137,610.9z M1149.9,610.9
		c0-3.9-1.9-6.5-5-6.5s-4.9,2.6-4.9,6.5s1.9,6.5,4.9,6.5S1149.9,614.8,1149.9,610.9z"/>
</g>
<g class="st3">
	<path class="st0" d="M1157.3,602.2h2.4l0.3,3.1h0.1c1.3-2.2,2.9-3.6,4.9-3.6c0.7,0,1.3,0.1,1.8,0.4l-0.6,2.5
		c-0.6-0.3-1-0.3-1.7-0.3c-1.4,0-3.2,1-4.3,3.9v11h-2.9L1157.3,602.2L1157.3,602.2z"/>
</g>
<g class="st3">
	<path class="st0" d="M1168,610.9c0-5.6,3.5-9,7.4-9c1.9,0,3.3,0.7,4.9,1.9l-0.1-2.9v-6.5h2.9v25h-2.4l-0.3-1.9l0,0
		c-1.4,1.3-3.2,2.4-5.1,2.4C1170.8,619.8,1168,616.6,1168,610.9z M1180,615v-8.9c-1.4-1.3-2.8-1.8-4.2-1.8c-2.8,0-4.9,2.6-4.9,6.5
		c0,4.2,1.7,6.5,4.7,6.5C1177.2,617.4,1178.6,616.6,1180,615z"/>
	<path class="st0" d="M1188.2,596.9c0-1.1,0.8-1.8,1.9-1.8s1.9,0.7,1.9,1.8s-0.8,1.8-1.9,1.8S1188.2,597.9,1188.2,596.9z
		 M1188.8,602.2h2.9v17.1h-2.9V602.2z"/>
	<path class="st0" d="M1197.4,602.2h2.4l0.3,2.5h0.1c1.7-1.7,3.3-2.9,5.7-2.9c3.6,0,5.1,2.4,5.1,6.7v10.9h-2.9V609
		c0-3.2-1-4.6-3.2-4.6c-1.8,0-2.9,0.8-4.7,2.6v12.4h-2.9L1197.4,602.2L1197.4,602.2z"/>
</g>
<g class="st3">
	<path class="st0" d="M1215.5,614.9c0-3.8,3.2-5.6,10.4-6.4c0-2.2-0.7-4.3-3.5-4.3c-1.9,0-3.8,1-5.1,1.8l-1.1-1.9
		c1.5-1,4-2.2,6.7-2.2c4.2,0,5.8,2.8,5.8,7v10.4h-2.4l-0.3-2.1h-0.1c-1.7,1.4-3.6,2.5-5.7,2.5C1217.6,619.8,1215.5,618,1215.5,614.9
		z M1226.1,615.2v-4.7c-5.7,0.7-7.7,2.1-7.7,4.3c0,1.9,1.3,2.8,3.1,2.8C1223,617.4,1224.4,616.7,1226.1,615.2z"/>
	<path class="st0" d="M1233.7,614.1v-9.5h-2.5v-2.2l2.6-0.1l0.3-4.7h2.4v4.7h4.6v2.4h-4.6v9.5c0,2.1,0.7,3.3,2.6,3.3
		c0.6,0,1.4-0.3,1.9-0.4l0.6,2.1c-1,0.3-2.1,0.7-3.2,0.7C1235,619.8,1233.7,617.5,1233.7,614.1z"/>
</g>
<g>
	<path class="st0" d="M1032.4,505.7h7.1c5,0,8.3,1.7,8.3,6c0,2.5-1.3,4.6-3.6,5.3v0.1c3.1,0.6,5,2.5,5,5.8c0,4.7-3.8,7.1-9.2,7.1
		h-7.7L1032.4,505.7L1032.4,505.7z M1038.9,516.2c4.5,0,6.1-1.7,6.1-4.2c0-3.1-2.1-4.2-6-4.2h-3.9v8.3h3.8V516.2z M1039.6,527.9
		c4.3,0,7-1.5,7-5c0-3.2-2.5-4.6-7-4.6h-4.5v9.6H1039.6L1039.6,527.9z"/>
</g>
<g>
	<path class="st0" d="M1032.4,610.4V596h2.8v14.6c0,6,2.6,7.9,5.8,7.9c3.3,0,6-1.8,6-7.9V596h2.6v14.5c0,7.8-3.9,10.3-8.6,10.3
		C1036.3,620.7,1032.4,618.2,1032.4,610.4z"/>
</g>
<g>
	<path class="st5" d="M926.3,678.9L926.3,678.9c-0.6,0-0.6,0-0.6-0.6v-21.6c0-0.6,0-0.6,0.6-0.6l0,0c0.6,0,0.6,0,0.6,0.6v21.6
		L926.3,678.9z"/>
	<path class="st5" d="M925.2,655.6"/>
	<path class="st5" d="M926.3,656.7"/>
	<path class="st5" d="M925.7,658.4v-84.2c0-0.6,0-0.6,0.6-0.6l0,0c0.3,0,0.6,0.3,0.6,0.6l0,0v84.2c0,0.3-0.3,0.6-0.6,0.6
		C925.7,659.5,925.7,658.4,925.7,658.4z"/>
	<g>
		<path class="st5" d="M865.4,610.6L865.4,610.6c-0.6,0-0.6,0-0.6-0.6v-35.9c0-0.6,0-0.6,0.6-0.6l0,0c0.6,0,0.6,0,0.6,0.6V610
			C866,610.6,866,610.6,865.4,610.6z"/>
		<path class="st5" d="M864.8,678.3"/>
		<path class="st5" d="M864.8,678.9v-70c0-0.6,0-0.6,0.6-0.6l0,0c0.6,0,0.6,0,0.6,0.6v70"/>
		<path class="st5" d="M875.6,680"/>
		<path class="st5" d="M926.9,574.2h-1.1c0-4.6-6.3-5.1-6.3-5.1H887V568h32.4l0,0c3.6-0.5,6.9,2.1,7.4,5.7
			C926.8,573.8,926.9,574,926.9,574.2z"/>
		<path class="st5" d="M866,574.2h-1.1l0,0c0.1-3.6,3.2-6.5,6.8-6.3c0.2,0,0.4,0,0.6,0h32.4v1.1h-32.4
			C872.2,569,866,569.6,866,574.2z"/>
		<rect x="865.4" y="654.4" class="st5" width="60.9" height="1.1"/>
		<rect x="865.4" y="636.8" class="st5" width="60.9" height="1.1"/>
		<rect x="864.8" y="678.3" class="st5" width="61.5" height="1.1"/>
		<rect x="852.3" y="624.3" class="st5" width="13.1" height="1.1"/>
		<rect x="863.7" y="576.4" class="st5" width="1.7" height="1.1"/>
		<rect x="797.7" y="464.3" class="st5" width="70.6" height="1.1"/>
		<rect x="797.7" y="434.1" class="st5" width="70.6" height="1.1"/>
		<path class="st5" d="M836.9,631.1c-1.5,0.1-3.1-0.1-4.6-0.6c-10.7-1-20.4-6.9-26.2-15.9c-3-5-4.4-10.7-4-16.5v-53.5
			c1.7-15.9-3.4-43.3-4.6-49c-0.5-2.1-0.7-4.2-0.6-6.3v-33.6l0.6-71.2c0.6-13.7,4.6-23.9,12-30.2c6.4-5.7,14.8-8.6,23.3-8
			c12.3,1.2,23.4,7.9,30.2,18.2c3.4,5.7,5.2,12.2,5.1,18.8V455l0.6,35.3c0.1,2.1-0.1,4.2-0.6,6.3c-3.4,16.5-4,78.6-4,101.3
			c0.2,3.1-0.2,6.2-1.1,9.1C856.9,628.2,843.8,631.1,836.9,631.1z M798.2,455.8v33.6c-0.1,2.1,0.1,4.2,0.6,6.3
			c1.1,5.7,6.3,33.6,4.6,49v53.5c-0.4,5.4,1,10.8,4,15.4c5.8,8.5,14.9,14.3,25,15.9c1.1,0,21.1,5.1,29.6-22.2c0.9-2.9,1.3-6,1.1-9.1
			c0-0.6,0-82,4-101.3c0.5-2.1,0.7-4.2,0.6-6.3l-0.6-35.3v-71.7c0.1-6.3-1.7-12.4-5.1-17.6c-6.5-10.1-17.1-16.8-29-18.2
			c-8.1-0.4-16,2.2-22.2,7.4c-8.1,7.7-12.4,18.5-12,29.6L798.2,455.8z"/>
		
			<rect x="781.7" y="348.9" transform="matrix(0.6644 -0.7473 0.7473 0.6644 -13.5566 708.5349)" class="st6" width="1.1" height="41"/>
		
			<rect x="828.3" y="290.4" transform="matrix(0.7142 -0.6999 0.6999 0.7142 5.9683 674.4235)" class="st7" width="1.1" height="79.1"/>
		<path class="st5" d="M722.5,501.3c-21.6,0-33.6-21.1-33.6-21.6c-6.8-10.2-4.6-24.5-2.3-31.9c1.8-7.3,2.7-14.7,2.8-22.2V396
			c0.6-51.2,10.8-64.3,12-66c7.4-21.6,42.1-41.6,42.1-41.6c10.6-9.3,25.7-11.7,38.7-6.3c13.9,5.8,22.5,19.7,21.6,34.7
			c-2.3,25-29,33.6-29.6,33.6c-16.5,6.3-13.7,42.1-13.7,42.7v45c-0.2,3.6,0.2,7.3,1.1,10.8c1.1,5.1,2.3,13.7,2.3,13.7
			c-1.1,37-37.6,38.1-38.1,38.1C724.9,501.2,723.7,501.4,722.5,501.3z M767.5,281c-8.6,0.1-16.9,3.3-23.3,9.1
			c-0.6,0-34.7,19.9-42.1,41.6l0,0c0,0-11.4,12.5-12,64.9v29.6c-0.1,7.5-1.1,14.9-2.8,22.2c-1.7,7.4-4,21.1,2.3,30.7
			c0,0,13.1,22.8,35.9,21.1c1.7,0,35.9-1.1,37-37l0,0c0,0-1.1-8.5-2.3-13.7c-0.9-3.5-1.3-7.2-1.1-10.8v-45c0-1.7-2.8-37.6,14.8-43.8
			c0.6,0,26.2-8,28.5-32.4c1.1-14.4-7.2-28-20.5-33.6C777.2,282,772.4,281.1,767.5,281z"/>
		<rect x="761.8" y="468.3" class="st5" width="1.1" height="74.6"/>
		<rect x="684.4" y="468.3" class="st5" width="1.1" height="76.8"/>
		<path class="st5" d="M762.9,763.7V549.1c-2.3-31.3-36.4-37.6-36.4-37.6c-33,0.6-41,34.2-41,34.2v218h-1.1v-218
			c0-0.6,8-34.7,42.1-35.3c0.6,0,35.3,6.3,37.6,38.7v214.6L762.9,763.7L762.9,763.7z"/>
		<rect x="684.4" y="644.2" class="st5" width="79.1" height="1.1"/>
		<rect x="684.4" y="677.2" class="st5" width="79.1" height="1.1"/>
		<path class="st5" d="M776.6,772.3H671.3v-9.1h105.3V772.3z M672.4,771.1h103v-6.8h-103V771.1z"/>
		<polygon class="st5" points="692.4,763.7 691.2,763.7 691.2,735.8 685,735.8 685,734.7 692.4,734.7 		"/>
		<polygon class="st5" points="682.7,763.1 681.5,763.1 681.5,733 684.4,733 684.4,734.1 682.7,734.1 		"/>
		<polygon class="st5" points="682.1,762 677.6,762 677.6,737 682.1,737 682.1,738.1 678.7,738.1 678.7,760.9 682.1,760.9 		"/>
	</g>
</g>
<circle class="st0" cx="679.1" cy="766.4" r="12.7"/>
<line class="st8" x1="723" y1="767.1" x2="723" y2="723.4"/>
<polygon class="st0" points="728.3,724.9 723,715.9 717.9,724.9 "/>
<line class="st8" x1="727.1" y1="771.7" x2="785.1" y2="771.7"/>
<polygon class="st0" points="783.6,776.8 792.5,771.6 783.6,766.4 "/>
<g class="st3">
	<path class="st4" d="M680.9,769.2h-4.6l-1,3.6h-2.9l4.6-14.2h3.3l4.6,14.2H682L680.9,769.2z M680.3,767l-0.4-1.5
		c-0.4-1.5-0.8-3.1-1.3-4.6h-0.1c-0.4,1.5-0.8,3.2-1.3,4.6l-0.4,1.5H680.3z"/>
</g>
<g>
	<path class="st0" d="M732.5,731.3l9.7-15h-8.8v-1.9h11.7v1.4l-9.7,15h9.7v1.9h-12.7C732.5,732.7,732.5,731.3,732.5,731.3z"/>
</g>
<g>
	<path class="st0" d="M807.4,772l-5-8.9h2.5l2.5,4.7c0.4,0.8,0.8,1.7,1.4,2.6h0.1c0.6-1.1,0.8-1.8,1.3-2.6l2.5-4.7h2.4l-5,9l5.4,9.3
		H813l-2.6-5c-0.4-0.8-1-1.8-1.5-2.9h-0.1c-0.6,1.1-1,2.1-1.5,2.9l-2.6,5h-2.4L807.4,772z"/>
</g>
<g>
	<path class="st0" d="M722,796.1l-5.6-11.3h2.5l2.4,5.1c0.6,1.4,1.1,2.6,1.8,4h0.1c0.7-1.4,1.3-2.6,1.8-4l2.4-5.1h2.4l-5.6,11.3v7.1
		h-2.4L722,796.1L722,796.1z"/>
</g>
<circle class="st2" cx="722.8" cy="771.3" r="4.2"/>
<circle class="st0" cx="895.6" cy="636.3" r="12.7"/>
<g class="st3">
	<path class="st4" d="M890.8,628.5h4.7c2.9,0,5.1,0.8,5.1,3.5c0,1.3-0.7,2.6-1.9,3.1v0.1c1.5,0.4,2.6,1.4,2.6,3.3
		c0,2.9-2.4,4.2-5.6,4.2h-5.1L890.8,628.5L890.8,628.5z M895.3,634.4c1.8,0,2.6-0.7,2.6-1.8c0-1.3-0.8-1.8-2.5-1.8h-1.7v3.6H895.3z
		 M895.6,640.6c1.9,0,3.1-0.7,3.1-2.2c0-1.4-1-1.9-3.1-1.9h-1.9v4.2L895.6,640.6L895.6,640.6z"/>
</g>
<line class="st8" x1="894.1" y1="678.7" x2="894.1" y2="735.9"/>
<line class="st9" x1="865.1" y1="672.9" x2="926.3" y2="672.9"/>
<circle class="st0" cx="894.1" cy="673.9" r="4.7"/>
<line class="st8" x1="895.3" y1="673.9" x2="942.3" y2="673.9"/>
</svg>
