<?xml version="1.0" encoding="utf-8"?>
<!-- Generator: Adobe Illustrator 26.0.1, SVG Export Plug-In . SVG Version: 6.00 Build 0)  -->
<svg version="1.1" id="图层_1" xmlns="http://www.w3.org/2000/svg" xmlns:xlink="http://www.w3.org/1999/xlink" x="0px" y="0px"
	 viewBox="0 0 1088 1080" style="enable-background:new 0 0 1088 1080;" xml:space="preserve">
<style type="text/css">
	.st0{fill:#ECECFF;stroke:#BFACEA;stroke-width:2;stroke-miterlimit:10;}
</style>
<g>
	<path d="M739.52,272.17l-0.79-0.61c11.58-15.07,18.29-31.25,19.94-48.09l1,0.1C757.99,240.6,751.21,256.95,739.52,272.17z"/>
</g>
<g>
	<path d="M758.15,202.47c-3.92-27.2-19.26-46.23-19.41-46.42l0.77-0.63c0.16,0.19,15.67,19.42,19.63,46.91L758.15,202.47z"/>
</g>
<g>
	<path d="M688.43,272.24c-11.71-15.24-18.49-31.62-20.14-48.67l1-0.1c1.64,16.86,8.35,33.07,19.94,48.16L688.43,272.24z"/>
</g>
<g>
	<path d="M669.81,202.47l-0.99-0.14c3.98-27.45,19.46-46.65,19.62-46.84l0.77,0.63C689.06,156.31,673.75,175.31,669.81,202.47z"/>
</g>
<g>
	<rect x="682.62" y="153.76" transform="matrix(0.501 -0.8654 0.8654 0.501 198.2882 673.3891)" width="1" height="21.95"/>
</g>
<g>
	<rect x="678.62" y="160.76" transform="matrix(0.501 -0.8654 0.8654 0.501 190.2343 673.4202)" width="1" height="21.95"/>
</g>
<g>
	<rect x="732.15" y="164.23" transform="matrix(0.865 -0.5018 0.5018 0.865 17.6716 395.1458)" width="21.95" height="1"/>
</g>
<g>
	<rect x="736.15" y="171.23" transform="matrix(0.865 -0.5018 0.5018 0.865 14.699 398.0981)" width="21.95" height="1"/>
</g>
<g>
	<path d="M672.62,248.73c-4.14,0-7.5-3.36-7.5-7.5s3.36-7.5,7.5-7.5s7.5,3.36,7.5,7.5S676.76,248.73,672.62,248.73z M672.62,234.73
		c-3.58,0-6.5,2.92-6.5,6.5s2.92,6.5,6.5,6.5s6.5-2.92,6.5-6.5S676.21,234.73,672.62,234.73z"/>
</g>
<g>
	<path d="M755.62,248.73c-4.14,0-7.5-3.36-7.5-7.5s3.36-7.5,7.5-7.5s7.5,3.36,7.5,7.5S759.76,248.73,755.62,248.73z M755.62,234.73
		c-3.58,0-6.5,2.92-6.5,6.5s2.92,6.5,6.5,6.5s6.5-2.92,6.5-6.5S759.21,234.73,755.62,234.73z"/>
</g>
<g>
	<path d="M699.16,271.31c-0.03-0.14-3.04-13.59-21.55-17.55c-0.27,2.16-1.16,10.55,0.07,17.36l-0.98,0.18
		c-1.44-8.01-0.02-18.11,0-18.21l0.08-0.52l0.52,0.1c19.65,3.95,22.83,18.29,22.86,18.44L699.16,271.31z"/>
</g>
<g>
	<path d="M729.03,271.31l-0.98-0.2c0.03-0.14,3.21-14.49,22.86-18.44l0.52-0.1l0.08,0.52c0.01,0.1,1.44,10.2,0,18.21l-0.98-0.18
		c1.23-6.81,0.33-15.2,0.07-17.36C732.07,257.72,729.05,271.18,729.03,271.31z"/>
</g>
<g>
	<rect x="713.12" y="420.56" width="1" height="54.67"/>
</g>
<g>
	<rect x="713.12" y="359.23" width="1" height="43.86"/>
</g>
<g>
	<rect x="702.62" y="368.73" width="21.48" height="1"/>
</g>
<g>
	<rect x="702.62" y="375.73" width="21.48" height="1"/>
</g>
<g>
	<rect x="702.62" y="446.73" width="21.48" height="1"/>
</g>
<g>
	<rect x="790.62" y="651.73" width="21.48" height="1"/>
</g>
<g>
	<rect x="751.62" y="575.73" transform="matrix(0.7432 -0.6691 0.6691 0.7432 -189.7657 658.0543)" width="21.48" height="1"/>
</g>
<g>
	<rect x="747.62" y="570.73" transform="matrix(0.7432 -0.6691 0.6691 0.7432 -187.4476 654.094)" width="21.48" height="1"/>
</g>
<g>
	<rect x="664.86" y="565.5" transform="matrix(0.669 -0.7432 0.7432 0.669 -208.0628 685.2371)" width="1" height="21.48"/>
</g>
<g>
	<rect x="668.86" y="560.5" transform="matrix(0.669 -0.7432 0.7432 0.669 -203.0228 686.5552)" width="1" height="21.48"/>
</g>
<g>
	<path d="M703.58,475.28l-1-0.09c1.47-16.1,10.44-20.47,10.82-20.65l0.42,0.91C713.75,455.49,705,459.79,703.58,475.28z"/>
</g>
<g>
	<path d="M723.62,475.28c-1.48-15.49-10.65-19.79-10.74-19.83l0.41-0.91c0.4,0.18,9.79,4.54,11.33,20.65L723.62,475.28z"/>
</g>
<g>
	<path d="M791.58,680.28l-1-0.09c1.47-16.1,10.44-20.47,10.82-20.65l0.42,0.91C801.75,660.49,793,664.79,791.58,680.28z"/>
</g>
<g>
	<path d="M811.62,680.28c-1.48-15.49-10.65-19.79-10.74-19.83l0.41-0.91c0.4,0.18,9.79,4.54,11.33,20.65L811.62,680.28z"/>
</g>
<g>
	<path d="M802.12,679.26l-1-0.06c1-17.46-1.6-34.93-7.71-51.92l-0.26-0.73l0.94-0.34l0.27,0.73
		C800.51,644.06,803.13,661.67,802.12,679.26z"/>
</g>
<g>
	<path d="M784.11,606.64c-0.24-0.44-0.48-0.89-0.73-1.32c-14.34-25.83-32.36-41.04-32.54-41.19l0.64-0.77
		c0.18,0.15,18.33,15.48,32.77,41.48c0.24,0.44,0.49,0.88,0.73,1.33L784.11,606.64z"/>
</g>
<g>
	<path d="M676.47,884.75c-36.5-34.56-45.26-77.99-45.34-78.42c-0.05-0.21-4.8-22.75-5.58-72.52l1-0.02
		c0.77,49.65,5.51,72.11,5.55,72.34c0.09,0.44,8.79,43.57,45.05,77.89L676.47,884.75z"/>
</g>
<g>
	<path d="M626.46,714.89l-1-0.01c0.05-10.45,0.27-21.44,0.66-32.67c1.55-45.06,15.16-74.97,26.3-92.13
		c12.09-18.62,24-26.69,24.11-26.77l0.55,0.83c-0.12,0.08-11.88,8.06-23.86,26.53c-11.06,17.05-24.56,46.78-26.11,91.57
		C626.74,693.47,626.51,704.45,626.46,714.89z"/>
</g>
<g>
	<rect x="647.11" y="862.73" transform="matrix(0.7722 -0.6354 0.6354 0.7722 -398.5562 614.7822)" width="22.02" height="1"/>
</g>
<g>
	<path d="M664.22,883.53c-3.07-4.1-2.56-14.71-2.54-15.16l0.02-0.41l0.41-0.06c0.16-0.02,15.97-2.01,26.48,15.07l-0.85,0.52
		c-9.21-14.98-22.57-14.81-25.08-14.64c-0.06,2.04-0.17,10.71,2.36,14.08L664.22,883.53z"/>
</g>
<g>
	<path d="M649.42,409.68h0.97l0.12,0.82h0.03c0.64-0.53,1.43-1,2.25-1c1.82,0,2.81,1.42,2.81,3.6c0,2.42-1.46,3.81-3.07,3.81
		c-0.64,0-1.31-0.29-1.95-0.82l0.04,1.23v2.39h-1.2V409.68z M654.36,413.11c0-1.57-0.52-2.61-1.87-2.61c-0.58,0-1.2,0.34-1.87,0.96
		v3.72c0.62,0.55,1.25,0.73,1.72,0.73C653.5,415.9,654.36,414.85,654.36,413.11z"/>
	<path d="M657.48,409.68h0.97l0.12,1.29h0.03c0.49-0.9,1.22-1.47,2-1.47c0.31,0,0.53,0.04,0.75,0.16l-0.22,1.03
		c-0.23-0.08-0.39-0.12-0.69-0.12c-0.58,0-1.3,0.44-1.77,1.64v4.54h-1.2V409.68z"/>
	<path d="M662.34,407.43c0-0.45,0.31-0.77,0.78-0.77s0.79,0.31,0.79,0.77c0,0.48-0.33,0.79-0.79,0.79S662.34,407.91,662.34,407.43z
		 M662.52,409.68h1.2v7.06h-1.2V409.68z"/>
	<path d="M665.07,409.68h1.24l1.33,4.02c0.22,0.69,0.44,1.4,0.65,2.08h0.07c0.21-0.68,0.44-1.39,0.65-2.08l1.34-4.02h1.17l-2.5,7.06
		h-1.39L665.07,409.68z"/>
	<path d="M672.16,414.9c0-1.53,1.33-2.3,4.33-2.64c0-0.91-0.3-1.78-1.46-1.78c-0.82,0-1.56,0.38-2.12,0.75l-0.46-0.82
		c0.64-0.42,1.62-0.92,2.77-0.92c1.73,0,2.44,1.14,2.44,2.9v4.34h-0.97l-0.1-0.85h-0.04c-0.68,0.56-1.47,1.01-2.34,1.01
		C673.03,416.9,672.16,416.18,672.16,414.9z M676.48,415.02v-1.96c-2.38,0.27-3.18,0.86-3.18,1.77c0,0.81,0.55,1.12,1.25,1.12
		C675.22,415.94,675.8,415.63,676.48,415.02z"/>
	<path d="M679.92,414.55v-3.91h-1.05v-0.9l1.12-0.06l0.13-1.99h0.99v1.99h1.92v0.96h-1.92v3.95c0,0.86,0.27,1.35,1.09,1.35
		c0.26,0,0.57-0.09,0.81-0.2l0.23,0.9c-0.4,0.13-0.87,0.26-1.31,0.26C680.42,416.9,679.92,415.97,679.92,414.55z"/>
	<path d="M683.89,413.21c0-2.3,1.55-3.72,3.16-3.72c1.81,0,2.82,1.3,2.82,3.31c0,0.26-0.03,0.49-0.05,0.68h-4.76
		c0.08,1.51,1,2.47,2.34,2.47c0.69,0,1.23-0.21,1.77-0.56l0.42,0.79c-0.61,0.4-1.37,0.71-2.31,0.71
		C685.39,416.9,683.89,415.54,683.89,413.21z M688.83,412.64c0-1.43-0.65-2.2-1.75-2.2c-1,0-1.88,0.79-2.03,2.2H688.83z"/>
	<path d="M690.59,417.77h6.92v0.78h-6.92V417.77z"/>
	<path d="M699.09,414.55v-3.91h-1.05v-0.9l1.12-0.06l0.13-1.99h0.99v1.99h1.92v0.96h-1.92v3.95c0,0.86,0.27,1.35,1.09,1.35
		c0.26,0,0.57-0.09,0.81-0.2l0.23,0.9c-0.4,0.13-0.87,0.26-1.31,0.26C699.6,416.9,699.09,415.97,699.09,414.55z"/>
	<path d="M703.07,413.21c0-2.35,1.57-3.72,3.39-3.72c0.92,0,1.56,0.39,2.05,0.83l-0.6,0.78c-0.4-0.36-0.86-0.61-1.4-0.61
		c-1.29,0-2.22,1.09-2.22,2.72c0,1.62,0.88,2.7,2.18,2.7c0.65,0,1.22-0.31,1.66-0.7l0.52,0.81c-0.64,0.55-1.44,0.88-2.29,0.88
		C704.5,416.9,703.07,415.55,703.07,413.21z"/>
	<path d="M710.22,409.68h0.97l0.12,0.82h0.03c0.64-0.53,1.43-1,2.25-1c1.82,0,2.81,1.42,2.81,3.6c0,2.42-1.46,3.81-3.07,3.81
		c-0.64,0-1.31-0.29-1.95-0.82l0.04,1.23v2.39h-1.2V409.68z M715.16,413.11c0-1.57-0.52-2.61-1.87-2.61c-0.59,0-1.2,0.34-1.87,0.96
		v3.72c0.62,0.55,1.25,0.73,1.72,0.73C714.3,415.9,715.16,414.85,715.16,413.11z"/>
	<path d="M717.25,417.77h6.92v0.78h-6.92V417.77z"/>
	<path d="M725.55,409.68h0.97l0.12,0.82h0.03c0.64-0.53,1.43-1,2.25-1c1.82,0,2.81,1.42,2.81,3.6c0,2.42-1.46,3.81-3.07,3.81
		c-0.64,0-1.31-0.29-1.95-0.82l0.04,1.23v2.39h-1.2V409.68z M730.49,413.11c0-1.57-0.52-2.61-1.87-2.61c-0.58,0-1.2,0.34-1.87,0.96
		v3.72c0.62,0.55,1.25,0.73,1.72,0.73C729.63,415.9,730.49,414.85,730.49,413.11z"/>
	<path d="M733.61,409.68h0.97l0.12,1.29h0.03c0.49-0.9,1.22-1.47,2-1.47c0.31,0,0.53,0.04,0.75,0.16l-0.22,1.03
		c-0.23-0.08-0.39-0.12-0.69-0.12c-0.58,0-1.3,0.44-1.77,1.64v4.54h-1.2V409.68z"/>
	<path d="M737.99,413.21c0-2.35,1.53-3.72,3.26-3.72c1.73,0,3.26,1.37,3.26,3.72c0,2.34-1.53,3.69-3.26,3.69
		C739.52,416.9,737.99,415.55,737.99,413.21z M743.3,413.21c0-1.63-0.83-2.72-2.05-2.72c-1.22,0-2.04,1.09-2.04,2.72
		c0,1.62,0.82,2.7,2.04,2.7C742.47,415.92,743.3,414.84,743.3,413.21z"/>
	<path d="M746.35,414.55v-3.91h-1.05v-0.9l1.12-0.06l0.13-1.99h0.99v1.99h1.92v0.96h-1.92v3.95c0,0.86,0.27,1.35,1.09,1.35
		c0.26,0,0.57-0.09,0.81-0.2l0.23,0.9c-0.4,0.13-0.87,0.26-1.31,0.26C746.85,416.9,746.35,415.97,746.35,414.55z"/>
	<path d="M750.32,413.21c0-2.35,1.53-3.72,3.26-3.72c1.73,0,3.26,1.37,3.26,3.72c0,2.34-1.53,3.69-3.26,3.69
		C751.86,416.9,750.32,415.55,750.32,413.21z M755.64,413.21c0-1.63-0.83-2.72-2.05-2.72c-1.22,0-2.04,1.09-2.04,2.72
		c0,1.62,0.82,2.7,2.04,2.7C754.81,415.92,755.64,414.84,755.64,413.21z"/>
	<path d="M758.2,413.21c0-2.35,1.57-3.72,3.39-3.72c0.92,0,1.56,0.39,2.05,0.83l-0.6,0.78c-0.4-0.36-0.86-0.61-1.4-0.61
		c-1.29,0-2.22,1.09-2.22,2.72c0,1.62,0.88,2.7,2.18,2.7c0.65,0,1.22-0.31,1.66-0.7l0.52,0.81c-0.64,0.55-1.44,0.88-2.29,0.88
		C759.63,416.9,758.2,415.55,758.2,413.21z"/>
	<path d="M764.52,413.21c0-2.35,1.53-3.72,3.26-3.72c1.73,0,3.26,1.37,3.26,3.72c0,2.34-1.53,3.69-3.26,3.69
		C766.05,416.9,764.52,415.55,764.52,413.21z M769.84,413.21c0-1.63-0.83-2.72-2.05-2.72c-1.22,0-2.04,1.09-2.04,2.72
		c0,1.62,0.82,2.7,2.04,2.7C769,415.92,769.84,414.84,769.84,413.21z"/>
	<path d="M772.92,415.33v-8.94h1.2v9.02c0,0.36,0.14,0.51,0.33,0.51c0.07,0,0.12,0,0.25-0.03l0.17,0.91
		c-0.17,0.05-0.36,0.1-0.69,0.1C773.28,416.9,772.92,416.33,772.92,415.33z"/>
</g>
<g>
	<path d="M694.63,614.67h0.97l0.12,0.82h0.03c0.64-0.53,1.43-1,2.25-1c1.82,0,2.81,1.42,2.81,3.6c0,2.42-1.46,3.81-3.07,3.81
		c-0.64,0-1.31-0.29-1.95-0.82l0.04,1.24v2.39h-1.2V614.67z M699.57,618.11c0-1.57-0.52-2.61-1.87-2.61c-0.59,0-1.2,0.34-1.87,0.96
		v3.72c0.62,0.55,1.25,0.73,1.72,0.73C698.71,620.9,699.57,619.85,699.57,618.11z"/>
	<path d="M702.69,614.67h0.97l0.12,1.29h0.03c0.49-0.9,1.22-1.47,2-1.47c0.31,0,0.53,0.04,0.75,0.16l-0.22,1.03
		c-0.23-0.08-0.39-0.12-0.69-0.12c-0.58,0-1.3,0.44-1.77,1.64v4.54h-1.2V614.67z"/>
	<path d="M707.55,612.43c0-0.46,0.31-0.77,0.78-0.77s0.79,0.31,0.79,0.77c0,0.48-0.33,0.79-0.79,0.79S707.55,612.91,707.55,612.43z
		 M707.73,614.67h1.2v7.06h-1.2V614.67z"/>
	<path d="M710.28,614.67h1.24l1.33,4.02c0.22,0.69,0.44,1.4,0.65,2.08h0.07c0.21-0.68,0.44-1.39,0.65-2.08l1.34-4.02h1.17l-2.5,7.06
		h-1.39L710.28,614.67z"/>
	<path d="M717.36,619.9c0-1.53,1.33-2.3,4.33-2.64c0-0.91-0.3-1.78-1.46-1.78c-0.82,0-1.56,0.38-2.12,0.75l-0.46-0.82
		c0.64-0.42,1.62-0.92,2.77-0.92c1.73,0,2.44,1.14,2.44,2.9v4.34h-0.98l-0.1-0.85h-0.04c-0.68,0.56-1.47,1.01-2.34,1.01
		C718.23,621.9,717.36,621.17,717.36,619.9z M721.69,620.02v-1.96c-2.38,0.27-3.19,0.86-3.19,1.77c0,0.81,0.55,1.12,1.25,1.12
		C720.43,620.94,721,620.63,721.69,620.02z"/>
	<path d="M725.12,619.55v-3.91h-1.05v-0.9l1.12-0.07l0.13-1.99h0.99v1.99h1.92v0.96h-1.92v3.95c0,0.86,0.27,1.35,1.09,1.35
		c0.26,0,0.57-0.09,0.81-0.2l0.23,0.9c-0.4,0.13-0.87,0.26-1.31,0.26C725.63,621.9,725.12,620.97,725.12,619.55z"/>
	<path d="M729.1,618.21c0-2.3,1.55-3.72,3.16-3.72c1.81,0,2.82,1.3,2.82,3.31c0,0.26-0.03,0.49-0.05,0.68h-4.76
		c0.08,1.51,1,2.47,2.34,2.47c0.69,0,1.23-0.21,1.77-0.56l0.42,0.79c-0.61,0.4-1.37,0.71-2.31,0.71
		C730.6,621.9,729.1,620.54,729.1,618.21z M734.04,617.64c0-1.43-0.65-2.2-1.75-2.2c-1,0-1.89,0.79-2.03,2.2H734.04z"/>
	<path d="M735.8,622.77h6.92v0.78h-6.92V622.77z"/>
	<path d="M743.31,620.93l0.57-0.79c0.62,0.51,1.25,0.85,2.09,0.85c0.94,0,1.39-0.49,1.39-1.11c0-0.71-0.83-1.05-1.61-1.34
		c-0.99-0.36-2.05-0.83-2.05-2.04c0-1.12,0.88-2,2.43-2c0.87,0,1.65,0.36,2.18,0.81l-0.57,0.74c-0.48-0.35-0.98-0.62-1.6-0.62
		c-0.9,0-1.31,0.47-1.31,1.03c0,0.66,0.73,0.92,1.52,1.22c1.03,0.39,2.15,0.81,2.15,2.15c0,1.14-0.9,2.09-2.56,2.09
		C744.94,621.9,743.97,621.49,743.31,620.93z"/>
	<path d="M749.65,618.21c0-2.3,1.55-3.72,3.16-3.72c1.81,0,2.82,1.3,2.82,3.31c0,0.26-0.03,0.49-0.05,0.68h-4.76
		c0.08,1.51,1,2.47,2.34,2.47c0.69,0,1.23-0.21,1.77-0.56l0.42,0.79c-0.61,0.4-1.37,0.71-2.31,0.71
		C751.15,621.9,749.65,620.54,749.65,618.21z M754.59,617.64c0-1.43-0.65-2.2-1.75-2.2c-1,0-1.88,0.79-2.03,2.2H754.59z"/>
	<path d="M757.38,614.67h0.97l0.12,1.29h0.03c0.49-0.9,1.22-1.47,2-1.47c0.31,0,0.53,0.04,0.75,0.16l-0.22,1.03
		c-0.23-0.08-0.39-0.12-0.69-0.12c-0.58,0-1.3,0.44-1.77,1.64v4.54h-1.2V614.67z"/>
	<path d="M761.77,614.67h1.24l1.33,4.02c0.22,0.69,0.44,1.4,0.65,2.08h0.07c0.21-0.68,0.44-1.39,0.65-2.08l1.34-4.02h1.17l-2.5,7.06
		h-1.39L761.77,614.67z"/>
	<path d="M769,618.21c0-2.35,1.53-3.72,3.26-3.72c1.73,0,3.26,1.37,3.26,3.72c0,2.34-1.53,3.69-3.26,3.69
		C770.53,621.9,769,620.55,769,618.21z M774.32,618.21c0-1.62-0.83-2.72-2.05-2.72c-1.22,0-2.04,1.09-2.04,2.72s0.82,2.7,2.04,2.7
		C773.48,620.92,774.32,619.84,774.32,618.21z"/>
	<path d="M776.37,622.77h6.92v0.78h-6.92V622.77z"/>
	<path d="M784.14,618.21c0-2.35,1.57-3.72,3.39-3.72c0.92,0,1.56,0.39,2.05,0.83l-0.6,0.78c-0.4-0.36-0.86-0.61-1.4-0.61
		c-1.29,0-2.22,1.09-2.22,2.72s0.88,2.7,2.18,2.7c0.65,0,1.22-0.31,1.66-0.7l0.52,0.81c-0.64,0.55-1.44,0.88-2.29,0.88
		C785.57,621.9,784.14,620.55,784.14,618.21z"/>
	<path d="M790.46,618.21c0-2.35,1.53-3.72,3.26-3.72c1.73,0,3.26,1.37,3.26,3.72c0,2.34-1.53,3.69-3.26,3.69
		C792,621.9,790.46,620.55,790.46,618.21z M795.78,618.21c0-1.62-0.83-2.72-2.05-2.72c-1.22,0-2.04,1.09-2.04,2.72
		s0.82,2.7,2.04,2.7C794.95,620.92,795.78,619.84,795.78,618.21z"/>
	<path d="M798.86,614.67h0.97l0.12,1.03h0.03c0.66-0.68,1.4-1.21,2.37-1.21c1.48,0,2.16,0.97,2.16,2.77v4.47h-1.18v-4.32
		c0-1.33-0.4-1.88-1.34-1.88c-0.73,0-1.22,0.36-1.92,1.08v5.12h-1.2V614.67z"/>
	<path d="M807,619.55v-3.91h-1.05v-0.9l1.12-0.07l0.13-1.99h0.99v1.99h1.92v0.96h-1.92v3.95c0,0.86,0.27,1.35,1.09,1.35
		c0.26,0,0.57-0.09,0.81-0.2l0.23,0.9c-0.4,0.13-0.87,0.26-1.31,0.26C807.5,621.9,807,620.97,807,619.55z"/>
	<path d="M811.69,614.67h0.97l0.12,1.29h0.03c0.49-0.9,1.22-1.47,2-1.47c0.31,0,0.53,0.04,0.75,0.16l-0.22,1.03
		c-0.23-0.08-0.39-0.12-0.69-0.12c-0.58,0-1.3,0.44-1.77,1.64v4.54h-1.2V614.67z"/>
	<path d="M816.07,618.21c0-2.35,1.53-3.72,3.26-3.72c1.73,0,3.26,1.37,3.26,3.72c0,2.34-1.53,3.69-3.26,3.69
		C817.6,621.9,816.07,620.55,816.07,618.21z M821.39,618.21c0-1.62-0.83-2.72-2.05-2.72c-1.22,0-2.04,1.09-2.04,2.72
		s0.82,2.7,2.04,2.7C820.56,620.92,821.39,619.84,821.39,618.21z"/>
	<path d="M824.47,620.33v-8.94h1.2v9.02c0,0.36,0.14,0.51,0.33,0.51c0.07,0,0.12,0,0.25-0.03l0.17,0.91
		c-0.17,0.05-0.36,0.1-0.69,0.1C824.83,621.9,824.47,621.33,824.47,620.33z"/>
	<path d="M827.13,622.77h6.92v0.78h-6.92V622.77z"/>
	<path d="M835.43,614.67h0.97l0.12,0.82h0.03c0.64-0.53,1.43-1,2.25-1c1.82,0,2.81,1.42,2.81,3.6c0,2.42-1.46,3.81-3.07,3.81
		c-0.64,0-1.31-0.29-1.95-0.82l0.04,1.24v2.39h-1.2V614.67z M840.37,618.11c0-1.57-0.52-2.61-1.87-2.61c-0.59,0-1.2,0.34-1.87,0.96
		v3.72c0.62,0.55,1.25,0.73,1.72,0.73C839.51,620.9,840.37,619.85,840.37,618.11z"/>
	<path d="M843.49,614.67h0.97l0.12,1.29h0.03c0.49-0.9,1.22-1.47,2-1.47c0.31,0,0.53,0.04,0.75,0.16l-0.22,1.03
		c-0.23-0.08-0.39-0.12-0.69-0.12c-0.58,0-1.3,0.44-1.77,1.64v4.54h-1.2V614.67z"/>
	<path d="M847.87,618.21c0-2.35,1.53-3.72,3.26-3.72c1.73,0,3.26,1.37,3.26,3.72c0,2.34-1.53,3.69-3.26,3.69
		C849.4,621.9,847.87,620.55,847.87,618.21z M853.19,618.21c0-1.62-0.83-2.72-2.05-2.72c-1.22,0-2.04,1.09-2.04,2.72
		s0.82,2.7,2.04,2.7C852.35,620.92,853.19,619.84,853.19,618.21z"/>
	<path d="M856.23,619.55v-3.91h-1.05v-0.9l1.12-0.07l0.13-1.99h0.99v1.99h1.92v0.96h-1.92v3.95c0,0.86,0.27,1.35,1.09,1.35
		c0.26,0,0.57-0.09,0.81-0.2l0.23,0.9c-0.4,0.13-0.87,0.26-1.31,0.26C856.73,621.9,856.23,620.97,856.23,619.55z"/>
	<path d="M860.21,618.21c0-2.35,1.53-3.72,3.26-3.72c1.73,0,3.26,1.37,3.26,3.72c0,2.34-1.53,3.69-3.26,3.69
		C861.74,621.9,860.21,620.55,860.21,618.21z M865.52,618.21c0-1.62-0.83-2.72-2.05-2.72c-1.22,0-2.04,1.09-2.04,2.72
		s0.82,2.7,2.04,2.7C864.69,620.92,865.52,619.84,865.52,618.21z"/>
	<path d="M868.08,618.21c0-2.35,1.57-3.72,3.39-3.72c0.92,0,1.56,0.39,2.05,0.83l-0.6,0.78c-0.4-0.36-0.86-0.61-1.4-0.61
		c-1.29,0-2.22,1.09-2.22,2.72s0.88,2.7,2.18,2.7c0.65,0,1.22-0.31,1.66-0.7l0.52,0.81c-0.64,0.55-1.44,0.88-2.29,0.88
		C869.51,621.9,868.08,620.55,868.08,618.21z"/>
	<path d="M874.4,618.21c0-2.35,1.53-3.72,3.26-3.72c1.73,0,3.26,1.37,3.26,3.72c0,2.34-1.53,3.69-3.26,3.69
		C875.94,621.9,874.4,620.55,874.4,618.21z M879.72,618.21c0-1.62-0.83-2.72-2.05-2.72c-1.22,0-2.04,1.09-2.04,2.72
		s0.82,2.7,2.04,2.7C878.89,620.92,879.72,619.84,879.72,618.21z"/>
	<path d="M882.8,620.33v-8.94h1.2v9.02c0,0.36,0.14,0.51,0.33,0.51c0.07,0,0.12,0,0.25-0.03l0.17,0.91c-0.17,0.05-0.36,0.1-0.69,0.1
		C883.16,621.9,882.8,621.33,882.8,620.33z"/>
</g>
<g>
	<path d="M591.47,721.67h0.97l0.12,1.03h0.03c0.62-0.68,1.35-1.21,2.2-1.21c1.09,0,1.66,0.52,1.95,1.35
		c0.74-0.79,1.47-1.35,2.34-1.35c1.44,0,2.13,0.97,2.13,2.77v4.47h-1.18v-4.32c0-1.33-0.42-1.88-1.31-1.88
		c-0.55,0-1.12,0.35-1.78,1.08v5.12h-1.18v-4.32c0-1.33-0.42-1.88-1.31-1.88c-0.53,0-1.13,0.35-1.77,1.08v5.12h-1.2V721.67z"/>
	<path d="M602.99,725.21c0-2.35,1.53-3.72,3.26-3.72c1.73,0,3.26,1.37,3.26,3.72c0,2.34-1.53,3.69-3.26,3.69
		C604.52,728.9,602.99,727.55,602.99,725.21z M608.31,725.21c0-1.62-0.83-2.72-2.05-2.72c-1.22,0-2.04,1.09-2.04,2.72
		s0.82,2.7,2.04,2.7C607.47,727.92,608.31,726.84,608.31,725.21z"/>
	<path d="M610.88,725.21c0-2.29,1.44-3.72,3.05-3.72c0.83,0,1.37,0.31,1.99,0.82l-0.07-1.21v-2.72h1.2v10.35h-0.97l-0.1-0.83h-0.04
		c-0.55,0.55-1.3,1-2.14,1C612.02,728.9,610.88,727.56,610.88,725.21z M615.86,726.94v-3.71c-0.58-0.53-1.13-0.74-1.72-0.74
		c-1.13,0-2.04,1.09-2.04,2.7c0,1.7,0.71,2.7,1.95,2.7C614.7,727.9,615.27,727.59,615.86,726.94z"/>
	<path d="M620.55,728.01h-0.05l-0.1,0.73h-0.95v-10.35h1.2v2.83l-0.05,1.26c0.65-0.55,1.43-0.99,2.22-0.99
		c1.82,0,2.81,1.42,2.81,3.6c0,2.42-1.46,3.81-3.07,3.81C621.9,728.9,621.16,728.57,620.55,728.01z M624.39,725.11
		c0-1.57-0.52-2.61-1.87-2.61c-0.58,0-1.21,0.34-1.87,0.96v3.72c0.61,0.55,1.25,0.73,1.72,0.73
		C623.53,727.9,624.39,726.85,624.39,725.11z"/>
	<path d="M627.38,726.15v-4.47h1.2V726c0,1.31,0.39,1.87,1.33,1.87c0.73,0,1.24-0.36,1.91-1.2v-5h1.18v7.06H632l-0.09-1.11h-0.04
		c-0.66,0.77-1.36,1.27-2.33,1.27C628.05,728.9,627.38,727.95,627.38,726.15z"/>
	<path d="M634.59,727.93l0.57-0.79c0.62,0.51,1.25,0.85,2.09,0.85c0.94,0,1.39-0.49,1.39-1.11c0-0.71-0.83-1.05-1.61-1.34
		c-0.99-0.36-2.05-0.83-2.05-2.04c0-1.12,0.88-2,2.43-2c0.87,0,1.65,0.36,2.18,0.81l-0.57,0.74c-0.48-0.35-0.98-0.62-1.6-0.62
		c-0.9,0-1.31,0.47-1.31,1.03c0,0.66,0.73,0.92,1.52,1.22c1.03,0.39,2.15,0.81,2.15,2.15c0,1.14-0.9,2.09-2.56,2.09
		C636.22,728.9,635.25,728.49,634.59,727.93z"/>
	<path d="M640.43,729.77h6.92v0.78h-6.92V729.77z"/>
	<path d="M648.72,721.67h0.97l0.12,1.29h0.03c0.49-0.9,1.22-1.47,2-1.47c0.31,0,0.53,0.04,0.75,0.16l-0.22,1.03
		c-0.23-0.08-0.39-0.12-0.69-0.12c-0.58,0-1.3,0.44-1.77,1.64v4.54h-1.2V721.67z"/>
	<path d="M653.97,726.55v-3.91h-1.05v-0.9l1.12-0.07l0.13-1.99h0.99v1.99h1.92v0.96h-1.92v3.95c0,0.86,0.27,1.35,1.09,1.35
		c0.26,0,0.57-0.09,0.81-0.2l0.23,0.9c-0.4,0.13-0.87,0.26-1.31,0.26C654.48,728.9,653.97,727.97,653.97,726.55z"/>
	<path d="M658.56,726.15v-4.47h1.2V726c0,1.31,0.39,1.87,1.33,1.87c0.73,0,1.24-0.36,1.91-1.2v-5h1.18v7.06h-0.99l-0.09-1.11h-0.04
		c-0.66,0.77-1.36,1.27-2.33,1.27C659.24,728.9,658.56,727.95,658.56,726.15z"/>
</g>
<g>
	<path d="M635.17,209.68h1.21l1.05,4.08c0.14,0.68,0.27,1.31,0.42,1.96h0.06c0.14-0.65,0.3-1.29,0.47-1.96l1.1-4.08h1.16l1.11,4.08
		c0.17,0.68,0.32,1.31,0.49,1.96h0.07c0.14-0.65,0.27-1.29,0.43-1.96l1.03-4.08h1.14l-1.91,7.06h-1.44l-1.01-3.81
		c-0.18-0.66-0.31-1.31-0.48-2.03h-0.07c-0.16,0.72-0.3,1.38-0.48,2.05l-1,3.78h-1.38L635.17,209.68z"/>
	<path d="M645.87,213.21c0-2.3,1.55-3.72,3.16-3.72c1.81,0,2.82,1.3,2.82,3.31c0,0.26-0.03,0.49-0.05,0.68h-4.76
		c0.08,1.51,1,2.47,2.34,2.47c0.69,0,1.23-0.21,1.77-0.56l0.42,0.79c-0.61,0.4-1.37,0.71-2.31,0.71
		C647.36,216.9,645.87,215.54,645.87,213.21z M650.81,212.64c0-1.43-0.65-2.2-1.75-2.2c-1,0-1.89,0.79-2.03,2.2H650.81z"/>
	<path d="M654.69,216.01h-0.05l-0.1,0.73h-0.95v-10.35h1.2v2.83l-0.05,1.26c0.65-0.55,1.43-0.99,2.22-0.99
		c1.82,0,2.81,1.42,2.81,3.6c0,2.42-1.46,3.81-3.07,3.81C656.05,216.9,655.31,216.57,654.69,216.01z M658.53,213.11
		c0-1.57-0.52-2.61-1.87-2.61c-0.59,0-1.21,0.34-1.87,0.96v3.72c0.61,0.55,1.25,0.73,1.72,0.73
		C657.67,215.9,658.53,214.85,658.53,213.11z"/>
	<path d="M660.84,215.93l0.57-0.79c0.62,0.51,1.25,0.85,2.09,0.85c0.94,0,1.39-0.49,1.39-1.1c0-0.72-0.83-1.05-1.61-1.34
		c-0.99-0.36-2.05-0.83-2.05-2.04c0-1.12,0.88-2,2.43-2c0.87,0,1.65,0.36,2.18,0.81l-0.57,0.74c-0.48-0.35-0.98-0.62-1.6-0.62
		c-0.9,0-1.31,0.47-1.31,1.03c0,0.66,0.73,0.92,1.52,1.22c1.03,0.39,2.15,0.81,2.15,2.15c0,1.14-0.9,2.09-2.56,2.09
		C662.47,216.9,661.51,216.49,660.84,215.93z"/>
	<path d="M667.19,213.21c0-2.35,1.53-3.72,3.26-3.72c1.73,0,3.26,1.37,3.26,3.72c0,2.34-1.53,3.69-3.26,3.69
		C668.72,216.9,667.19,215.55,667.19,213.21z M672.5,213.21c0-1.63-0.83-2.72-2.05-2.72c-1.22,0-2.04,1.09-2.04,2.72
		c0,1.62,0.82,2.7,2.04,2.7C671.67,215.92,672.5,214.84,672.5,213.21z"/>
	<path d="M675.07,213.21c0-2.35,1.57-3.72,3.39-3.72c0.92,0,1.56,0.39,2.05,0.83l-0.6,0.78c-0.4-0.36-0.86-0.61-1.4-0.61
		c-1.29,0-2.22,1.09-2.22,2.72c0,1.62,0.88,2.7,2.18,2.7c0.65,0,1.22-0.31,1.66-0.7l0.52,0.81c-0.64,0.55-1.44,0.88-2.29,0.88
		C676.5,216.9,675.07,215.55,675.07,213.21z"/>
	<path d="M682.22,206.39h1.17v7.01h0.05l2.99-3.72h1.33l-2.35,2.85l2.67,4.21h-1.29l-2.07-3.41l-1.33,1.55v1.86h-1.17V206.39z"/>
	<path d="M688.61,213.21c0-2.3,1.55-3.72,3.16-3.72c1.81,0,2.82,1.3,2.82,3.31c0,0.26-0.03,0.49-0.05,0.68h-4.76
		c0.08,1.51,1,2.47,2.34,2.47c0.69,0,1.23-0.21,1.77-0.56l0.42,0.79c-0.61,0.4-1.37,0.71-2.31,0.71
		C690.11,216.9,688.61,215.54,688.61,213.21z M693.55,212.64c0-1.43-0.65-2.2-1.75-2.2c-1,0-1.88,0.79-2.03,2.2H693.55z"/>
	<path d="M696.4,214.55v-3.91h-1.05v-0.9l1.12-0.06l0.13-1.99h0.99v1.99h1.92v0.96h-1.92v3.95c0,0.86,0.27,1.35,1.09,1.35
		c0.26,0,0.57-0.09,0.81-0.2l0.23,0.9c-0.4,0.13-0.87,0.26-1.31,0.26C696.91,216.9,696.4,215.97,696.4,214.55z"/>
</g>
<g>
	<path d="M749.01,206.39h1.2v2.83l-0.05,1.46c0.65-0.65,1.38-1.18,2.34-1.18c1.48,0,2.16,0.98,2.16,2.77v4.47h-1.18v-4.32
		c0-1.33-0.4-1.88-1.34-1.88c-0.73,0-1.22,0.36-1.92,1.08v5.12h-1.2V206.39z"/>
	<path d="M757.11,214.55v-3.91h-1.05v-0.9l1.12-0.06l0.13-1.99h0.99v1.99h1.92v0.96h-1.92v3.95c0,0.86,0.27,1.35,1.09,1.35
		c0.26,0,0.57-0.09,0.81-0.2l0.23,0.9c-0.4,0.13-0.87,0.26-1.31,0.26C757.62,216.9,757.11,215.97,757.11,214.55z"/>
	<path d="M761.73,214.55v-3.91h-1.05v-0.9l1.12-0.06l0.13-1.99h0.99v1.99h1.92v0.96h-1.92v3.95c0,0.86,0.27,1.35,1.09,1.35
		c0.26,0,0.57-0.09,0.81-0.2l0.23,0.9c-0.4,0.13-0.87,0.26-1.31,0.26C762.24,216.9,761.73,215.97,761.73,214.55z"/>
	<path d="M766.42,209.68h0.97l0.12,0.82h0.03c0.64-0.53,1.43-1,2.25-1c1.82,0,2.81,1.42,2.81,3.6c0,2.42-1.46,3.81-3.07,3.81
		c-0.64,0-1.31-0.29-1.95-0.82l0.04,1.23v2.39h-1.2V209.68z M771.36,213.11c0-1.57-0.52-2.61-1.87-2.61c-0.59,0-1.2,0.34-1.87,0.96
		v3.72c0.62,0.55,1.25,0.73,1.72,0.73C770.5,215.9,771.36,214.85,771.36,213.11z"/>
</g>
<g>
	<rect x="656" y="69" class="st0" width="116" height="88.74"/>
	<rect x="656" y="272.13" class="st0" width="116" height="88.74"/>
	<rect x="656" y="475.26" class="st0" width="116" height="88.74"/>
	<rect x="744" y="678.26" class="st0" width="116" height="88.74"/>
	<rect x="656" y="881.26" class="st0" width="116" height="88.74"/>
</g>
<g>
	<path d="M684.12,106.01l0.96-0.06v-1.13c0-1.43,0.65-2.33,2.05-2.33c0.44,0,0.86,0.09,1.18,0.22l-0.26,0.92
		c-0.26-0.13-0.55-0.19-0.79-0.19c-0.68,0-1,0.48-1,1.39v1.12h1.5v0.96h-1.5v6.1h-1.18v-6.1h-0.96V106.01z"/>
	<path d="M689.12,105.94h0.97l0.12,1.29h0.03c0.49-0.9,1.22-1.47,2-1.47c0.31,0,0.53,0.04,0.75,0.16l-0.22,1.03
		c-0.23-0.08-0.39-0.12-0.69-0.12c-0.58,0-1.3,0.44-1.77,1.64V113h-1.2V105.94z"/>
	<path d="M693.5,109.48c0-2.35,1.53-3.72,3.26-3.72c1.73,0,3.26,1.37,3.26,3.72c0,2.34-1.53,3.69-3.26,3.69
		C695.03,113.17,693.5,111.82,693.5,109.48z M698.81,109.48c0-1.63-0.83-2.72-2.05-2.72c-1.22,0-2.04,1.09-2.04,2.72
		c0,1.62,0.82,2.7,2.04,2.7C697.98,112.18,698.81,111.1,698.81,109.48z"/>
	<path d="M701.9,105.94h0.97l0.12,1.03h0.03c0.66-0.68,1.4-1.21,2.37-1.21c1.48,0,2.16,0.98,2.16,2.77V113h-1.18v-4.32
		c0-1.33-0.4-1.88-1.34-1.88c-0.73,0-1.22,0.36-1.92,1.08V113h-1.2V105.94z"/>
	<path d="M710.03,110.82v-3.91h-1.05v-0.9l1.12-0.06l0.13-1.99h0.99v1.99h1.92v0.96h-1.92v3.95c0,0.86,0.27,1.35,1.09,1.35
		c0.26,0,0.57-0.09,0.81-0.2l0.23,0.9c-0.4,0.13-0.87,0.26-1.31,0.26C710.54,113.17,710.03,112.23,710.03,110.82z"/>
	<path d="M713.7,114.04h6.92v0.78h-6.92V114.04z"/>
	<path d="M721.47,109.48c0-2.3,1.55-3.72,3.16-3.72c1.81,0,2.82,1.3,2.82,3.31c0,0.26-0.03,0.49-0.05,0.68h-4.76
		c0.08,1.51,1,2.47,2.34,2.47c0.69,0,1.23-0.21,1.77-0.56l0.42,0.79c-0.61,0.4-1.37,0.71-2.31,0.71
		C722.97,113.17,721.47,111.8,721.47,109.48z M726.41,108.9c0-1.43-0.65-2.2-1.75-2.2c-1,0-1.88,0.79-2.03,2.2H726.41z"/>
	<path d="M729.2,105.94h0.97l0.12,1.03h0.03c0.66-0.68,1.4-1.21,2.37-1.21c1.48,0,2.16,0.98,2.16,2.77V113h-1.18v-4.32
		c0-1.33-0.4-1.88-1.34-1.88c-0.73,0-1.22,0.36-1.92,1.08V113h-1.2V105.94z"/>
	<path d="M736.62,109.48c0-2.29,1.44-3.72,3.05-3.72c0.83,0,1.37,0.31,1.99,0.82l-0.07-1.21v-2.72h1.2V113h-0.97l-0.1-0.83h-0.04
		c-0.55,0.55-1.3,1-2.14,1C737.76,113.17,736.62,111.83,736.62,109.48z M741.6,111.21v-3.71c-0.58-0.53-1.13-0.74-1.72-0.74
		c-1.13,0-2.04,1.09-2.04,2.7c0,1.7,0.71,2.7,1.95,2.7C740.44,112.17,741.01,111.86,741.6,111.21z"/>
</g>
<g>
	<path d="M677.25,310.47h2.82c1.92,0,3.28,0.65,3.28,2.33c0,0.95-0.49,1.78-1.39,2.07v0.06c1.13,0.22,1.94,0.98,1.94,2.28
		c0,1.87-1.48,2.79-3.61,2.79h-3.03V310.47z M679.86,314.51c1.64,0,2.3-0.58,2.3-1.56c0-1.12-0.75-1.53-2.25-1.53h-1.47v3.09H679.86
		z M680.11,319.04c1.64,0,2.6-0.58,2.6-1.87c0-1.18-0.92-1.72-2.6-1.72h-1.66v3.59H680.11z"/>
	<path d="M685.25,318.17c0-1.53,1.33-2.3,4.33-2.64c0-0.91-0.3-1.78-1.46-1.78c-0.82,0-1.56,0.38-2.12,0.75l-0.46-0.82
		c0.64-0.42,1.62-0.92,2.77-0.92c1.73,0,2.44,1.14,2.44,2.9V320h-0.98l-0.1-0.85h-0.04c-0.68,0.56-1.47,1.01-2.34,1.01
		C686.12,320.17,685.25,319.44,685.25,318.17z M689.58,318.28v-1.96c-2.38,0.27-3.19,0.86-3.19,1.77c0,0.81,0.55,1.12,1.25,1.12
		C688.31,319.21,688.89,318.9,689.58,318.28z"/>
	<path d="M692.47,316.48c0-2.35,1.57-3.72,3.39-3.72c0.92,0,1.56,0.39,2.05,0.83l-0.6,0.78c-0.4-0.36-0.86-0.61-1.4-0.61
		c-1.29,0-2.22,1.09-2.22,2.72c0,1.62,0.88,2.7,2.18,2.7c0.65,0,1.22-0.31,1.66-0.7l0.52,0.81c-0.64,0.55-1.44,0.88-2.29,0.88
		C693.9,320.17,692.47,318.82,692.47,316.48z"/>
	<path d="M699.62,309.65h1.17v7.01h0.05l2.99-3.72h1.33l-2.35,2.85l2.67,4.21h-1.29l-2.07-3.41l-1.33,1.55V320h-1.17V309.65z"/>
	<path d="M706.12,321.37c0-0.61,0.38-1.2,1.04-1.6v-0.06c-0.36-0.22-0.64-0.6-0.64-1.16c0-0.58,0.4-1.05,0.78-1.31v-0.05
		c-0.47-0.36-0.92-1.05-0.92-1.9c0-1.55,1.22-2.52,2.64-2.52c0.4,0,0.75,0.08,1,0.18h2.46v0.91h-1.44c0.34,0.33,0.57,0.85,0.57,1.46
		c0,1.51-1.13,2.46-2.59,2.46c-0.34,0-0.73-0.09-1.04-0.25c-0.26,0.22-0.46,0.45-0.46,0.84c0,0.44,0.29,0.77,1.23,0.77h1.39
		c1.62,0,2.46,0.51,2.46,1.68c0,1.31-1.39,2.44-3.58,2.44C707.32,323.25,706.12,322.57,706.12,321.37z M711.44,321
		c0-0.66-0.49-0.9-1.43-0.9h-1.22c-0.26,0-0.6-0.03-0.91-0.1c-0.51,0.36-0.71,0.79-0.71,1.2c0,0.75,0.75,1.23,2.04,1.23
		C710.57,322.43,711.44,321.73,711.44,321z M710.53,315.28c0-1.04-0.66-1.65-1.51-1.65c-0.82,0-1.5,0.61-1.5,1.65
		c0,1.03,0.69,1.68,1.5,1.68C709.84,316.96,710.53,316.31,710.53,315.28z"/>
	<path d="M713.99,312.94h0.97l0.12,1.29h0.03c0.49-0.9,1.22-1.47,2-1.47c0.31,0,0.53,0.04,0.75,0.16l-0.22,1.03
		c-0.23-0.08-0.39-0.12-0.69-0.12c-0.58,0-1.3,0.44-1.77,1.64V320h-1.2V312.94z"/>
	<path d="M718.37,316.48c0-2.35,1.53-3.72,3.26-3.72c1.73,0,3.26,1.37,3.26,3.72c0,2.34-1.53,3.69-3.26,3.69
		C719.9,320.17,718.37,318.82,718.37,316.48z M723.69,316.48c0-1.63-0.83-2.72-2.05-2.72c-1.22,0-2.04,1.09-2.04,2.72
		c0,1.62,0.82,2.7,2.04,2.7C722.86,319.18,723.69,318.1,723.69,316.48z"/>
	<path d="M726.66,317.41v-4.47h1.2v4.33c0,1.31,0.39,1.87,1.33,1.87c0.73,0,1.24-0.36,1.91-1.2v-5h1.18V320h-0.99l-0.09-1.1h-0.04
		c-0.66,0.77-1.36,1.27-2.33,1.27C727.34,320.17,726.66,319.22,726.66,317.41z"/>
	<path d="M734.66,312.94h0.97l0.12,1.03h0.03c0.66-0.68,1.4-1.21,2.37-1.21c1.48,0,2.16,0.98,2.16,2.77V320h-1.18v-4.32
		c0-1.33-0.4-1.88-1.34-1.88c-0.73,0-1.22,0.36-1.92,1.08V320h-1.2V312.94z"/>
	<path d="M742.08,316.48c0-2.29,1.44-3.72,3.05-3.72c0.83,0,1.37,0.31,1.99,0.82l-0.07-1.21v-2.72h1.2V320h-0.97l-0.1-0.83h-0.04
		c-0.55,0.55-1.3,1-2.14,1C743.23,320.17,742.08,318.83,742.08,316.48z M747.06,318.21v-3.71c-0.58-0.53-1.13-0.74-1.72-0.74
		c-1.13,0-2.04,1.09-2.04,2.7c0,1.7,0.71,2.7,1.95,2.7C745.9,319.17,746.48,318.86,747.06,318.21z"/>
</g>
<g>
	<path d="M682.74,517.24c0-3.08,1.81-4.94,4.23-4.94c1.16,0,2.07,0.56,2.61,1.17l-0.65,0.78c-0.51-0.53-1.13-0.9-1.95-0.9
		c-1.79,0-3,1.47-3,3.85c0,2.41,1.14,3.91,2.96,3.91c0.91,0,1.6-0.4,2.21-1.08l0.66,0.77c-0.75,0.87-1.69,1.37-2.92,1.37
		C684.51,522.17,682.74,520.34,682.74,517.24z"/>
	<path d="M690.96,518.48c0-2.35,1.53-3.72,3.26-3.72c1.73,0,3.26,1.37,3.26,3.72c0,2.34-1.53,3.69-3.26,3.69
		C692.49,522.17,690.96,520.82,690.96,518.48z M696.28,518.48c0-1.63-0.83-2.72-2.05-2.72c-1.22,0-2.04,1.09-2.04,2.72
		c0,1.62,0.82,2.7,2.04,2.7C695.45,521.18,696.28,520.1,696.28,518.48z"/>
	<path d="M699.36,514.94h0.97l0.12,1.03h0.03c0.66-0.68,1.4-1.21,2.37-1.21c1.48,0,2.16,0.98,2.16,2.77V522h-1.18v-4.32
		c0-1.33-0.4-1.88-1.34-1.88c-0.73,0-1.22,0.36-1.92,1.08V522h-1.2V514.94z"/>
	<path d="M707.5,519.82v-3.91h-1.05v-0.9l1.12-0.06l0.13-1.99h0.99v1.99h1.92v0.96h-1.92v3.95c0,0.86,0.27,1.35,1.09,1.35
		c0.26,0,0.57-0.09,0.81-0.2l0.23,0.9c-0.4,0.13-0.87,0.26-1.31,0.26C708,522.17,707.5,521.23,707.5,519.82z"/>
	<path d="M712.19,514.94h0.97l0.12,1.29h0.03c0.49-0.9,1.22-1.47,2-1.47c0.31,0,0.53,0.04,0.75,0.16l-0.22,1.03
		c-0.23-0.08-0.39-0.12-0.69-0.12c-0.58,0-1.3,0.44-1.77,1.64V522h-1.2V514.94z"/>
	<path d="M716.57,518.48c0-2.35,1.53-3.72,3.26-3.72c1.73,0,3.26,1.37,3.26,3.72c0,2.34-1.53,3.69-3.26,3.69
		C718.1,522.17,716.57,520.82,716.57,518.48z M721.89,518.48c0-1.63-0.83-2.72-2.05-2.72c-1.22,0-2.04,1.09-2.04,2.72
		c0,1.62,0.82,2.7,2.04,2.7C721.05,521.18,721.89,520.1,721.89,518.48z"/>
	<path d="M724.97,520.6v-8.94h1.2v9.02c0,0.36,0.14,0.51,0.32,0.51c0.07,0,0.12,0,0.25-0.03l0.17,0.91c-0.17,0.05-0.36,0.1-0.69,0.1
		C725.33,522.17,724.97,521.6,724.97,520.6z"/>
	<path d="M728.66,520.6v-8.94h1.2v9.02c0,0.36,0.14,0.51,0.33,0.51c0.07,0,0.12,0,0.25-0.03l0.17,0.91c-0.17,0.05-0.36,0.1-0.69,0.1
		C729.02,522.17,728.66,521.6,728.66,520.6z"/>
	<path d="M731.83,518.48c0-2.3,1.55-3.72,3.16-3.72c1.81,0,2.82,1.3,2.82,3.31c0,0.26-0.03,0.49-0.05,0.68H733
		c0.08,1.51,1,2.47,2.34,2.47c0.69,0,1.23-0.21,1.77-0.56l0.42,0.79c-0.61,0.4-1.37,0.71-2.31,0.71
		C733.33,522.17,731.83,520.8,731.83,518.48z M736.77,517.9c0-1.43-0.65-2.2-1.75-2.2c-1,0-1.89,0.79-2.03,2.2H736.77z"/>
	<path d="M739.55,514.94h0.97l0.12,1.29h0.03c0.49-0.9,1.22-1.47,2-1.47c0.31,0,0.53,0.04,0.75,0.16l-0.22,1.03
		c-0.23-0.08-0.39-0.12-0.69-0.12c-0.58,0-1.3,0.44-1.77,1.64V522h-1.2V514.94z"/>
</g>
<g>
	<path d="M788.64,722.96h-1.72V727h-1.2v-9.53h2.98c1.94,0,3.33,0.69,3.33,2.67c0,1.5-0.86,2.38-2.14,2.69l2.42,4.17h-1.35
		L788.64,722.96z M788.53,721.99c1.5,0,2.31-0.61,2.31-1.86s-0.82-1.69-2.31-1.69h-1.6v3.55H788.53z"/>
	<path d="M793.21,723.48c0-2.35,1.53-3.72,3.26-3.72c1.73,0,3.26,1.37,3.26,3.72c0,2.34-1.53,3.69-3.26,3.69
		C794.74,727.17,793.21,725.82,793.21,723.48z M798.52,723.48c0-1.62-0.83-2.72-2.05-2.72c-1.22,0-2.04,1.09-2.04,2.72
		s0.82,2.71,2.04,2.71C797.69,726.18,798.52,725.1,798.52,723.48z"/>
	<path d="M802.71,726.27h-0.05l-0.1,0.73h-0.95v-10.35h1.2v2.83l-0.05,1.26c0.65-0.54,1.43-0.99,2.22-0.99
		c1.82,0,2.81,1.42,2.81,3.6c0,2.42-1.46,3.81-3.07,3.81C804.06,727.17,803.32,726.83,802.71,726.27z M806.54,723.37
		c0-1.57-0.52-2.61-1.87-2.61c-0.59,0-1.21,0.34-1.87,0.96v3.72c0.61,0.55,1.25,0.73,1.72,0.73
		C805.69,726.17,806.54,725.12,806.54,723.37z"/>
	<path d="M809.12,723.48c0-2.35,1.53-3.72,3.26-3.72c1.73,0,3.26,1.37,3.26,3.72c0,2.34-1.53,3.69-3.26,3.69
		C810.65,727.17,809.12,725.82,809.12,723.48z M814.43,723.48c0-1.62-0.83-2.72-2.05-2.72c-1.22,0-2.04,1.09-2.04,2.72
		s0.82,2.71,2.04,2.71C813.6,726.18,814.43,725.1,814.43,723.48z"/>
	<path d="M817.48,724.82v-3.91h-1.05v-0.9l1.12-0.06l0.13-1.99h0.99v1.99h1.92v0.96h-1.92v3.95c0,0.86,0.27,1.35,1.09,1.35
		c0.26,0,0.57-0.09,0.81-0.2l0.23,0.9c-0.4,0.13-0.87,0.26-1.31,0.26C817.98,727.17,817.48,726.23,817.48,724.82z"/>
</g>
<g>
	<path d="M689.35,922.47h5.49v1.01h-4.29v2.99h3.61v1.03h-3.61v3.47h4.43V932h-5.63V922.47z"/>
	<path d="M697.78,928.32l-2.15-3.38h1.29l0.95,1.55c0.21,0.4,0.46,0.78,0.69,1.18h0.07c0.21-0.4,0.4-0.78,0.62-1.18l0.87-1.55h1.24
		l-2.15,3.5l2.33,3.56h-1.3l-1.04-1.65c-0.23-0.43-0.49-0.86-0.77-1.26h-0.06c-0.25,0.4-0.47,0.83-0.72,1.26L696.7,932h-1.25
		L697.78,928.32z"/>
	<path d="M702.78,929.82v-3.91h-1.05v-0.9l1.12-0.06l0.13-1.99h0.99v1.99h1.92v0.96h-1.92v3.95c0,0.86,0.27,1.35,1.09,1.35
		c0.26,0,0.57-0.09,0.81-0.2l0.23,0.9c-0.4,0.13-0.87,0.26-1.31,0.26C703.29,932.17,702.78,931.23,702.78,929.82z"/>
	<path d="M706.76,928.48c0-2.3,1.55-3.72,3.16-3.72c1.81,0,2.82,1.3,2.82,3.32c0,0.26-0.03,0.49-0.05,0.68h-4.76
		c0.08,1.51,1,2.47,2.34,2.47c0.69,0,1.23-0.21,1.77-0.56l0.42,0.79c-0.61,0.4-1.37,0.71-2.31,0.71
		C708.25,932.17,706.76,930.8,706.76,928.48z M711.7,927.9c0-1.43-0.65-2.2-1.75-2.2c-1,0-1.88,0.79-2.03,2.2H711.7z"/>
	<path d="M714.48,924.94h0.97l0.12,1.29h0.03c0.49-0.9,1.22-1.47,2-1.47c0.31,0,0.53,0.04,0.75,0.16l-0.22,1.03
		c-0.23-0.08-0.39-0.12-0.69-0.12c-0.58,0-1.3,0.44-1.77,1.64V932h-1.2V924.94z"/>
	<path d="M719.52,924.94h0.97l0.12,1.03h0.03c0.66-0.68,1.4-1.21,2.37-1.21c1.48,0,2.16,0.98,2.16,2.77V932h-1.18v-4.32
		c0-1.33-0.4-1.88-1.34-1.88c-0.73,0-1.22,0.36-1.92,1.08V932h-1.2V924.94z"/>
	<path d="M727.02,930.17c0-1.53,1.33-2.3,4.33-2.64c0-0.91-0.3-1.78-1.46-1.78c-0.82,0-1.56,0.38-2.12,0.75l-0.46-0.82
		c0.64-0.42,1.62-0.92,2.77-0.92c1.73,0,2.44,1.14,2.44,2.9V932h-0.97l-0.1-0.85h-0.04c-0.68,0.56-1.47,1.01-2.34,1.01
		C727.9,932.17,727.02,931.44,727.02,930.17z M731.35,930.28v-1.96c-2.38,0.27-3.18,0.86-3.18,1.77c0,0.81,0.55,1.12,1.25,1.12
		C730.09,931.21,730.67,930.89,731.35,930.28z"/>
	<path d="M734.77,930.6v-8.94h1.2v9.02c0,0.36,0.14,0.51,0.32,0.51c0.07,0,0.12,0,0.25-0.03l0.17,0.91c-0.17,0.05-0.36,0.1-0.69,0.1
		C735.14,932.17,734.77,931.6,734.77,930.6z"/>
	<path d="M737.68,931.19l0.57-0.79c0.62,0.51,1.25,0.85,2.09,0.85c0.94,0,1.39-0.49,1.39-1.11c0-0.71-0.83-1.05-1.61-1.34
		c-0.99-0.36-2.05-0.83-2.05-2.04c0-1.12,0.88-2,2.43-2c0.87,0,1.65,0.36,2.18,0.81l-0.57,0.74c-0.48-0.35-0.98-0.62-1.6-0.62
		c-0.9,0-1.31,0.47-1.31,1.03c0,0.66,0.73,0.92,1.52,1.22c1.03,0.39,2.15,0.81,2.15,2.15c0,1.14-0.9,2.09-2.56,2.09
		C739.31,932.17,738.35,931.75,737.68,931.19z"/>
</g>
</svg>
