<?xml version="1.0" encoding="utf-8"?>
<!-- Generator: Adobe Illustrator 26.0.1, SVG Export Plug-In . SVG Version: 6.00 Build 0)  -->
<svg version="1.1" id="图层_1" xmlns="http://www.w3.org/2000/svg" xmlns:xlink="http://www.w3.org/1999/xlink" x="0px" y="0px"
	 viewBox="0 0 790 593.6" style="enable-background:new 0 0 790 593.6;" xml:space="preserve">
<style type="text/css">
	.st0{fill:#356FE0;}
	.st1{fill:none;stroke:#FFFFFF;stroke-linecap:round;stroke-linejoin:round;}
	.st2{fill:none;stroke:#356FE0;stroke-width:2;stroke-miterlimit:10;}
	.st3{enable-background:new    ;}
	.st4{fill:#FFFFFF;}
	.st5{fill:#FFFFFF;stroke:#FFFFFF;stroke-width:0.25;stroke-miterlimit:10;}
	.st6{fill:#FFFFFF;stroke:#FFFFFF;stroke-width:0.25;stroke-miterlimit:9.9994;}
	.st7{fill:#FFFFFF;stroke:#FFFFFF;stroke-width:0.25;stroke-miterlimit:9.9997;}
	.st8{fill:none;stroke:#356FE0;stroke-width:1.5;stroke-miterlimit:10;}
	.st9{fill:none;stroke:#FFFFFF;stroke-width:1.5;stroke-miterlimit:10;}
</style>
<polygon class="st0" points="393.3,417.5 402.3,412.3 393.3,407 "/>
<polygon class="st0" points="341.4,472.7 346.6,481.8 351.8,472.7 "/>
<g>
	<path class="st0" d="M360.6,478l9.7-15h-8.8v-1.9h11.7v1.4l-9.7,15h9.7v1.9h-12.7C360.6,479.4,360.6,478,360.6,478z"/>
</g>
<g>
	<path class="st0" d="M419.6,415l-5-8.9h2.5l2.5,4.7c0.4,0.8,0.8,1.7,1.4,2.6h0.1c0.6-1.1,0.8-1.8,1.3-2.6l2.5-4.7h2.4l-5,9l5.4,9.3
		h-2.5l-2.6-5c-0.4-0.8-1-1.8-1.5-2.9H421c-0.6,1.1-1,2.1-1.5,2.9l-2.6,5h-2.4L419.6,415z"/>
</g>
<g>
	<path class="st0" d="M330.1,432l-5.6-11.3h2.5l2.4,5.1c0.6,1.4,1.1,2.6,1.8,4h0.1c0.7-1.4,1.3-2.6,1.8-4l2.4-5.1h2.4l-5.6,11.3v7.1
		h-2.4L330.1,432L330.1,432z"/>
</g>
<line class="st1" x1="349.1" y1="506.2" x2="643.8" y2="506.2"/>
<line class="st1" x1="418.2" y1="506.2" x2="392.6" y2="523.3"/>
<line class="st1" x1="510.9" y1="506.2" x2="485.3" y2="523.3"/>
<line class="st1" x1="634.6" y1="506.2" x2="609" y2="523.3"/>
<line class="st1" x1="480" y1="506.2" x2="454.4" y2="523.3"/>
<line class="st1" x1="356.4" y1="506.2" x2="330.8" y2="523.3"/>
<line class="st1" x1="449.1" y1="506.2" x2="423.5" y2="523.3"/>
<line class="st1" x1="572.8" y1="506.2" x2="547.1" y2="523.3"/>
<line class="st1" x1="541.8" y1="506.2" x2="516.2" y2="523.3"/>
<line class="st1" x1="603.7" y1="506.2" x2="578" y2="523.3"/>
<line class="st1" x1="387.3" y1="506.2" x2="361.7" y2="523.3"/>
<circle class="st0" cx="643.8" cy="505.5" r="8.2"/>
<line class="st2" x1="635.6" y1="505.5" x2="535.2" y2="505.5"/>
<polygon class="st0" points="537.3,498.6 525.2,505.5 537.3,512.5 "/>
<line class="st2" x1="643.8" y1="497.3" x2="643.8" y2="427.2"/>
<polygon class="st0" points="650.7,429.3 643.8,417.3 636.8,429.3 "/>
<circle class="st0" cx="679.5" cy="504.1" r="12.7"/>
<g class="st3">
	<path class="st4" d="M674,503.6c0-4.7,3.1-7.5,6.7-7.5c1.8,0,3.2,0.8,4.2,1.8l-1.5,1.8c-0.7-0.7-1.5-1.3-2.6-1.3
		c-2.1,0-3.8,1.8-3.8,4.9s1.5,5,3.8,5c1.3,0,2.2-0.6,2.9-1.4l1.5,1.8c-1.1,1.4-2.6,2.1-4.6,2.1C676.9,510.8,674,508.3,674,503.6z"/>
</g>
<g>
	<path class="st0" d="M636.8,404.1l9.7-15h-8.8v-1.9h11.7v1.4l-9.7,15h9.7v1.9h-12.7v-1.4H636.8z"/>
</g>
<g>
	<path class="st0" d="M516.9,491.7l-5-8.9h2.5l2.5,4.7c0.4,0.8,0.8,1.7,1.4,2.6h0.1c0.6-1.1,0.8-1.8,1.3-2.6l2.5-4.7h2.4l-5,9
		l5.4,9.3h-2.5l-2.6-5c-0.4-0.8-1-1.8-1.5-2.9h-0.1c-0.6,1.1-1,2.1-1.5,2.9l-2.6,5h-2.4L516.9,491.7z"/>
</g>
<g class="st3">
	<path class="st0" d="M38.5,572.8H30l-2.2,7.1h-2.9l7.8-23.1h3.2l7.8,23.1h-3.1L38.5,572.8z M37.6,570.4l-1.1-3.5
		c-0.8-2.6-1.5-5.1-2.4-7.8H34c-0.7,2.6-1.5,5.1-2.2,7.8l-1.1,3.5H37.6z"/>
	<path class="st0" d="M46.1,565.4c0-1.3,1-2.2,2.1-2.2s2.1,1,2.1,2.2c0,1.3-1,2.2-2.1,2.2C47,567.5,46.1,566.7,46.1,565.4z
		 M46.1,578.1c0-1.3,1-2.2,2.1-2.2s2.1,1,2.1,2.2c0,1.3-1,2.2-2.1,2.2C47,580.2,46.1,579.3,46.1,578.1z"/>
</g>
<g class="st3">
	<path class="st0" d="M84.6,575.3c0-3.8,3.2-5.6,10.4-6.4c0-2.2-0.7-4.3-3.5-4.3c-1.9,0-3.8,1-5.1,1.8l-1.1-1.9c1.5-1,4-2.2,6.7-2.2
		c4.2,0,5.8,2.8,5.8,7v10.4h-2.4l-0.3-2.1h0.1c-1.7,1.4-3.6,2.5-5.7,2.5C86.7,580.2,84.6,578.3,84.6,575.3z M95.2,575.6v-4.7
		c-5.7,0.7-7.7,2.1-7.7,4.3c0,1.9,1.3,2.8,3.1,2.8C92.2,577.9,93.6,577.1,95.2,575.6z"/>
	<path class="st0" d="M101.5,577.8l1.4-1.9c1.5,1.3,3.1,1.9,5,1.9c2.2,0,3.3-1.3,3.3-2.6c0-1.7-1.9-2.5-3.9-3.2
		c-2.4-0.8-5.1-2.1-5.1-4.9c0-2.6,2.2-4.9,5.8-4.9c2.1,0,3.9,0.8,5.3,1.9l-1.4,1.8c-1.3-0.8-2.4-1.5-3.9-1.5c-2.1,0-3.1,1.1-3.1,2.5
		c0,1.7,1.8,2.2,3.8,2.9c2.5,1,5.1,1.9,5.1,5.1c0,2.8-2.2,5-6.3,5C105.5,580.2,103.2,579.2,101.5,577.8z"/>
	<path class="st0" d="M116.9,571.2c0-5.6,3.8-9,7.7-9c4.3,0,6.8,3.2,6.8,8.1c0,0.7,0,1.3-0.1,1.7h-11.5c0.1,3.6,2.4,6,5.7,6
		c1.7,0,3.1-0.6,4.3-1.4l1,1.9c-1.5,1-3.3,1.8-5.7,1.8C120.5,580.2,116.9,576.8,116.9,571.2z M128.9,569.9c0-3.5-1.5-5.3-4.2-5.3
		c-2.4,0-4.6,1.9-4.9,5.3H128.9z"/>
</g>
<g class="st3">
	<path class="st0" d="M148.4,571.2c0-5.7,3.9-9,8.2-9c2.2,0,3.8,1,5,1.9l-1.5,1.9c-1-1-2.1-1.5-3.5-1.5c-3.1,0-5.3,2.6-5.3,6.5
		s2.1,6.5,5.3,6.5c1.5,0,2.9-0.7,4-1.7l1.3,1.9c-1.5,1.4-3.5,2.2-5.6,2.2C151.9,580.2,148.4,577,148.4,571.2z"/>
</g>
<g class="st3">
	<path class="st0" d="M163.7,571.2c0-5.7,3.8-9,7.9-9s7.9,3.3,7.9,9s-3.8,8.9-7.9,8.9C167.3,580.2,163.7,577,163.7,571.2z
		 M176.5,571.2c0-3.9-1.9-6.5-5-6.5c-2.9,0-4.9,2.6-4.9,6.5s1.9,6.5,4.9,6.5C174.5,577.8,176.5,575.1,176.5,571.2z"/>
	<path class="st0" d="M182.6,571.2c0-5.7,3.8-9,7.9-9s7.9,3.3,7.9,9s-3.8,8.9-7.9,8.9S182.6,577,182.6,571.2z M195.5,571.2
		c0-3.9-1.9-6.5-5-6.5c-2.9,0-4.9,2.6-4.9,6.5s1.9,6.5,4.9,6.5C193.6,577.8,195.5,575.1,195.5,571.2z"/>
</g>
<g class="st3">
	<path class="st0" d="M203.1,562.8h2.4l0.3,3.1h0.1c1.3-2.2,2.9-3.6,4.9-3.6c0.7,0,1.3,0.1,1.8,0.4l-0.6,2.5c-0.6-0.3-1-0.3-1.7-0.3
		c-1.4,0-3.2,1-4.3,3.9v11h-2.9L203.1,562.8L203.1,562.8z"/>
</g>
<g class="st3">
	<path class="st0" d="M213.6,571.2c0-5.6,3.5-9,7.4-9c1.9,0,3.3,0.7,4.9,1.9l-0.1-2.9v-6.5h2.9v25h-2.5l-0.3-1.9l0,0
		c-1.4,1.3-3.2,2.4-5.1,2.4C216.4,580.2,213.6,577,213.6,571.2z M225.6,575.4v-8.9c-1.4-1.3-2.8-1.8-4.2-1.8c-2.8,0-4.9,2.6-4.9,6.5
		c0,4.2,1.7,6.5,4.7,6.5C222.8,577.8,224.2,577,225.6,575.4z"/>
	<path class="st0" d="M233.8,557.3c0-1.1,0.8-1.8,1.9-1.8s1.9,0.7,1.9,1.8s-0.8,1.8-1.9,1.8S233.8,558.4,233.8,557.3z M234.4,562.8
		h2.9v17.1h-2.9V562.8z"/>
	<path class="st0" d="M243,562.8h2.4l0.3,2.5h0.1c1.7-1.7,3.3-2.9,5.7-2.9c3.6,0,5.1,2.4,5.1,6.7V580h-2.9v-10.4
		c0-3.2-1-4.6-3.2-4.6c-1.8,0-2.9,0.8-4.7,2.6V580h-2.9L243,562.8L243,562.8z"/>
</g>
<g class="st3">
	<path class="st0" d="M261.1,575.3c0-3.8,3.2-5.6,10.4-6.4c0-2.2-0.7-4.3-3.5-4.3c-1.9,0-3.8,1-5.1,1.8l-1.1-1.9
		c1.5-1,4-2.2,6.7-2.2c4.2,0,5.8,2.8,5.8,7v10.4h-2.2l-0.3-2.1h-0.1c-1.7,1.4-3.6,2.5-5.7,2.5C263.3,580.2,261.1,578.3,261.1,575.3z
		 M271.7,575.6v-4.7c-5.7,0.7-7.7,2.1-7.7,4.3c0,1.9,1.3,2.8,3.1,2.8C268.6,577.9,270,577.1,271.7,575.6z"/>
	<path class="st0" d="M279.3,574.4V565h-2.5v-2.2l2.6-0.1l0.3-4.7h2.4v4.7h4.6v2.4h-4.6v9.5c0,2.1,0.7,3.3,2.6,3.3
		c0.6,0,1.4-0.3,1.9-0.4l0.6,2.1c-1,0.3-2.1,0.7-3.2,0.7C280.6,580.2,279.3,577.9,279.3,574.4z"/>
</g>
<g class="st3">
	<path class="st0" d="M398.1,305.7h6.8c4.7,0,7.9,1.5,7.9,5.6c0,2.2-1.3,4.3-3.3,5v0.1c2.8,0.6,4.7,2.4,4.7,5.6
		c0,4.6-3.6,6.8-8.8,6.8H398L398.1,305.7L398.1,305.7z M404.4,315.4c3.9,0,5.6-1.5,5.6-3.8c0-2.6-1.8-3.8-5.4-3.8H401v7.5
		L404.4,315.4L404.4,315.4z M405,326.3c3.9,0,6.3-1.4,6.3-4.6c0-2.9-2.2-4.2-6.3-4.2h-4v8.6h4V326.3z"/>
	<path class="st0" d="M417.9,314.2c0-1.3,1-2.2,2.1-2.2s2.1,1,2.1,2.2s-1,2.2-2.1,2.2C418.8,316.4,417.9,315.4,417.9,314.2z
		 M417.9,326.8c0-1.3,1-2.2,2.1-2.2s2.1,1,2.1,2.2c0,1.3-1,2.2-2.1,2.2C418.8,329.1,417.9,328.2,417.9,326.8z"/>
</g>
<g class="st3">
	<path class="st0" d="M441.2,308h-7v-2.5H451v2.5h-7v20.6h-2.9L441.2,308L441.2,308z"/>
</g>
<g class="st3">
	<path class="st0" d="M452.2,317.1c0-7.5,4.3-12,10.2-12c2.8,0,5,1.4,6.3,2.9l-1.5,1.9c-1.3-1.3-2.8-2.2-4.7-2.2
		c-4.3,0-7.2,3.6-7.2,9.3c0,5.8,2.8,9.5,7.1,9.5c2.2,0,3.9-1,5.3-2.6l1.7,1.8c-1.8,2.1-4,3.3-7.1,3.3
		C456.5,329.1,452.2,324.6,452.2,317.1z"/>
	<path class="st0" d="M472.6,305.7h6.5c5.1,0,8.6,1.7,8.6,6.8c0,4.9-3.5,7.1-8.5,7.1h-3.8v9.2h-2.9v-23.1H472.6z M478.9,317.1
		c4,0,6-1.5,6-4.7c0-3.3-2.1-4.5-6.1-4.5h-3.3v9.2H478.9L478.9,317.1z"/>
</g>
<g class="st3">
	<path class="st0" d="M496,320.2c0-5.7,3.9-9,8.2-9c2.2,0,3.8,1,5,1.9l-1.5,1.9c-1-1-2.1-1.5-3.5-1.5c-3.1,0-5.3,2.6-5.3,6.5
		s2.1,6.5,5.3,6.5c1.5,0,2.9-0.7,4-1.7l1.3,1.9c-1.5,1.4-3.5,2.2-5.6,2.2C499.5,329.1,496,325.9,496,320.2z"/>
</g>
<g class="st3">
	<path class="st0" d="M510.3,320.2c0-5.7,3.8-9,7.9-9s7.9,3.3,7.9,9s-3.8,8.9-7.9,8.9S510.3,325.9,510.3,320.2z M523.3,320.2
		c0-3.9-1.9-6.5-5-6.5s-4.9,2.6-4.9,6.5s1.9,6.5,4.9,6.5S523.3,324.1,523.3,320.2z"/>
	<path class="st0" d="M528.4,320.2c0-5.7,3.8-9,7.9-9s7.9,3.3,7.9,9s-3.8,8.9-7.9,8.9S528.4,325.9,528.4,320.2z M541.4,320.2
		c0-3.9-1.9-6.5-5-6.5s-4.9,2.6-4.9,6.5s1.9,6.5,4.9,6.5S541.4,324.1,541.4,320.2z"/>
</g>
<g class="st3">
	<path class="st0" d="M547.9,311.5h2.4l0.3,3.1h0.1c1.3-2.2,2.9-3.6,4.9-3.6c0.7,0,1.3,0.1,1.8,0.4l-0.6,2.5c-0.6-0.3-1-0.3-1.7-0.3
		c-1.4,0-3.2,1-4.3,3.9v11h-2.9L547.9,311.5L547.9,311.5z"/>
</g>
<g class="st3">
	<path class="st0" d="M557.5,320.2c0-5.6,3.5-9,7.4-9c1.9,0,3.3,0.7,4.9,1.9l-0.1-2.9v-6.5h2.9v25h-2.4l-0.3-1.9l0,0
		c-1.4,1.3-3.2,2.4-5.1,2.4C560.3,329.1,557.5,325.9,557.5,320.2z M569.6,324.3v-8.9c-1.4-1.3-2.8-1.8-4.2-1.8
		c-2.8,0-4.9,2.6-4.9,6.5c0,4.2,1.7,6.5,4.7,6.5C566.8,326.7,568.2,325.9,569.6,324.3z"/>
	<path class="st0" d="M576.9,306.2c0-1.1,0.8-1.8,1.9-1.8s1.9,0.7,1.9,1.8s-0.8,1.8-1.9,1.8C577.7,308,576.9,307.4,576.9,306.2z
		 M577.3,311.5h2.9v17.1h-2.9V311.5z"/>
	<path class="st0" d="M585.1,311.5h2.4l0.3,2.5h0.1c1.7-1.7,3.3-2.9,5.7-2.9c3.6,0,5.1,2.4,5.1,6.7v10.9h-2.9v-10.4
		c0-3.2-1-4.6-3.2-4.6c-1.8,0-2.9,0.8-4.7,2.6v12.4H585L585.1,311.5L585.1,311.5z"/>
</g>
<g class="st3">
	<path class="st0" d="M602.2,324.2c0-3.8,3.2-5.6,10.4-6.4c0-2.2-0.7-4.3-3.5-4.3c-1.9,0-3.8,1-5.1,1.8l-1.1-1.9
		c1.5-1,4-2.2,6.7-2.2c4.2,0,5.8,2.8,5.8,7v10.4H613l-0.3-2.1h-0.1c-1.7,1.4-3.6,2.5-5.7,2.5C604.4,329.1,602.2,327.3,602.2,324.2z
		 M612.8,324.5v-4.7c-5.7,0.7-7.7,2.1-7.7,4.3c0,1.9,1.3,2.8,3.1,2.8C609.7,326.8,611.1,326,612.8,324.5z"/>
	<path class="st0" d="M619.4,323.4v-9.5h-2.5v-2.1l2.6-0.1l0.3-4.7h2.4v4.7h4.6v2.4h-4.6v9.5c0,2.1,0.7,3.3,2.6,3.3
		c0.6,0,1.4-0.3,1.9-0.4l0.6,2.1c-1,0.3-2.1,0.7-3.2,0.7C620.7,329.1,619.4,326.8,619.4,323.4z"/>
</g>
<g class="st3">
	<path class="st0" d="M628.8,320.2c0-5.6,3.8-9,7.7-9c4.3,0,6.8,3.2,6.8,8.1c0,0.7,0,1.3-0.1,1.7h-11.5c0.1,3.6,2.4,6,5.7,6
		c1.7,0,3.1-0.6,4.3-1.4l1,1.9c-1.5,1-3.3,1.8-5.7,1.8C632.4,329.1,628.8,325.7,628.8,320.2z M640.7,318.8c0-3.5-1.5-5.3-4.2-5.3
		c-2.4,0-4.6,1.9-4.9,5.3H640.7z"/>
</g>
<g class="st3">
	<path class="st0" d="M289,571.1c0-5.6,3.8-9,7.7-9c4.3,0,6.8,3.2,6.8,8.1c0,0.7,0,1.3-0.1,1.7h-11.5c0.1,3.6,2.4,6,5.7,6
		c1.7,0,3.1-0.6,4.3-1.4l1,1.9c-1.5,1-3.3,1.8-5.7,1.8C292.6,580,289,576.6,289,571.1z M300.9,569.7c0-3.5-1.5-5.3-4.2-5.3
		c-2.4,0-4.6,1.9-4.9,5.3H300.9z"/>
</g>
<g class="st3">
	<path class="st0" d="M758.7,570.4c0-5.6,3.8-9,7.7-9c4.3,0,6.8,3.2,6.8,8.1c0,0.7,0,1.3-0.1,1.7h-11.5c0.1,3.6,2.4,6,5.7,6
		c1.7,0,3.1-0.6,4.3-1.4l1,1.9c-1.5,1-3.3,1.8-5.7,1.8C762.3,579.3,758.7,575.9,758.7,570.4z M770.6,569c0-3.5-1.5-5.3-4.2-5.3
		c-2.4,0-4.6,1.9-4.9,5.3H770.6z"/>
</g>
<path class="st0" d="M509.4,567.8c0-7.5,4.3-12,10.2-12c2.8,0,5,1.4,6.3,2.9l-1.5,1.9c-1.3-1.3-2.8-2.2-4.7-2.2
	c-4.3,0-7.2,3.6-7.2,9.3c0,5.8,2.8,9.5,7.1,9.5c2.2,0,3.9-1,5.3-2.6l1.7,1.8c-1.8,2.1-4,3.3-7.1,3.3
	C513.7,579.8,509.4,575.3,509.4,567.8z"/>
<path class="st0" d="M530,564.9c0-1.3,1-2.2,2.1-2.2s2.1,1,2.1,2.2s-1,2.2-2.1,2.2C530.8,567.1,530,566.1,530,564.9z M530,577.5
	c0-1.3,1-2.2,2.1-2.2s2.1,1,2.1,2.2c0,1.3-1,2.2-2.1,2.2C530.8,579.8,530,578.9,530,577.5z"/>
<path class="st0" d="M566.8,577.4l1.4-1.9c1.5,1.3,3.1,1.9,5,1.9c2.2,0,3.3-1.3,3.3-2.6c0-1.7-1.9-2.5-3.9-3.2
	c-2.4-0.8-5.1-2.1-5.1-4.9c0-2.6,2.2-4.9,5.8-4.9c2.1,0,3.9,0.8,5.3,1.9l-1.4,1.8c-1.3-0.8-2.4-1.5-3.9-1.5c-2.1,0-3.1,1.1-3.1,2.5
	c0,1.7,1.8,2.2,3.8,2.9c2.5,1,5.1,1.9,5.1,5.1c0,2.8-2.2,5-6.3,5C570.9,579.8,568.5,578.8,566.8,577.4z"/>
<path class="st0" d="M582.1,570.9c0-5.6,3.8-9,7.7-9c4.3,0,6.8,3.2,6.8,8.1c0,0.7,0,1.3-0.1,1.7H585c0.1,3.6,2.4,6,5.7,6
	c1.7,0,3.1-0.6,4.3-1.4l1,1.9c-1.5,1-3.3,1.8-5.7,1.8C585.9,579.8,582.1,576.4,582.1,570.9z M594.1,569.5c0-3.5-1.5-5.3-4.2-5.3
	c-2.4,0-4.6,1.9-4.9,5.3H594.1z"/>
<path class="st0" d="M600.9,562.2h2.4l0.3,3.1h0.1c1.3-2.2,2.9-3.6,4.9-3.6c0.7,0,1.3,0.1,1.8,0.4l-0.6,2.5c-0.6-0.3-1-0.3-1.7-0.3
	c-1.4,0-3.2,1-4.3,3.9v11h-2.9L600.9,562.2L600.9,562.2z"/>
<g class="st3">
	<path class="st0" d="M617.5,570.9c0-5.7,3.9-9,8.2-9c2.2,0,3.8,1,5,1.9l-1.5,1.9c-1-1-2.1-1.5-3.5-1.5c-3.1,0-5.3,2.6-5.3,6.5
		s2.1,6.5,5.3,6.5c1.5,0,2.9-0.7,4-1.7l1.3,1.9c-1.5,1.4-3.5,2.2-5.6,2.2C621,579.8,617.5,576.4,617.5,570.9z"/>
</g>
<g class="st3">
	<path class="st0" d="M632.6,570.9c0-5.7,3.8-9,7.9-9s7.9,3.3,7.9,9s-3.8,8.9-7.9,8.9S632.6,576.4,632.6,570.9z M645.6,570.9
		c0-3.9-1.9-6.5-5-6.5s-4.9,2.6-4.9,6.5s1.9,6.5,4.9,6.5S645.6,574.8,645.6,570.9z"/>
	<path class="st0" d="M651.7,570.9c0-5.7,3.8-9,7.9-9s7.9,3.3,7.9,9s-3.8,8.9-7.9,8.9S651.7,576.4,651.7,570.9z M664.6,570.9
		c0-3.9-1.9-6.5-5-6.5s-4.9,2.6-4.9,6.5s1.9,6.5,4.9,6.5S664.6,574.8,664.6,570.9z"/>
</g>
<g class="st3">
	<path class="st0" d="M672,562.2h2.4l0.3,3.1h0.1c1.3-2.2,2.9-3.6,4.9-3.6c0.7,0,1.3,0.1,1.8,0.4l-0.6,2.5c-0.6-0.3-1-0.3-1.7-0.3
		c-1.4,0-3.2,1-4.3,3.9v11H672L672,562.2L672,562.2z"/>
</g>
<g class="st3">
	<path class="st0" d="M682.7,570.9c0-5.6,3.5-9,7.4-9c1.9,0,3.3,0.7,4.9,1.9l-0.1-2.9v-6.5h2.9v25h-2.4l-0.3-1.9l0,0
		c-1.4,1.3-3.2,2.4-5.1,2.4C685.5,579.8,682.7,576.6,682.7,570.9z M694.7,575v-8.9c-1.4-1.3-2.8-1.8-4.2-1.8c-2.8,0-4.9,2.6-4.9,6.5
		c0,4.2,1.7,6.5,4.7,6.5C691.9,577.4,693.3,576.6,694.7,575z"/>
	<path class="st0" d="M702.9,556.9c0-1.1,0.8-1.8,1.9-1.8s1.9,0.7,1.9,1.8s-0.8,1.8-1.9,1.8S702.9,557.9,702.9,556.9z M703.5,562.2
		h2.9v17.1h-2.9V562.2z"/>
	<path class="st0" d="M712.1,562.2h2.4l0.3,2.5h0.1c1.7-1.7,3.3-2.9,5.7-2.9c3.6,0,5.1,2.4,5.1,6.7v10.9h-2.9V569
		c0-3.2-1-4.6-3.2-4.6c-1.8,0-2.9,0.8-4.7,2.6v12.4H712L712.1,562.2L712.1,562.2z"/>
</g>
<g class="st3">
	<path class="st0" d="M730.2,574.9c0-3.8,3.2-5.6,10.4-6.4c0-2.2-0.7-4.3-3.5-4.3c-1.9,0-3.8,1-5.1,1.8l-1.1-1.9
		c1.5-1,4-2.2,6.7-2.2c4.2,0,5.8,2.8,5.8,7v10.4H741l-0.3-2.1h-0.1c-1.7,1.4-3.6,2.5-5.7,2.5C732.3,579.8,730.2,578,730.2,574.9z
		 M740.8,575.2v-4.7c-5.7,0.7-7.7,2.1-7.7,4.3c0,1.9,1.3,2.8,3.1,2.8C737.7,577.4,739.1,576.7,740.8,575.2z"/>
	<path class="st0" d="M748.4,574.1v-9.5h-2.5v-2.2l2.6-0.1l0.3-4.7h2.4v4.7h4.6v2.4h-4.6v9.5c0,2.1,0.7,3.3,2.6,3.3
		c0.6,0,1.4-0.3,1.9-0.4l0.6,2.1c-1,0.3-2.1,0.7-3.2,0.7C749.7,579.8,748.4,577.5,748.4,574.1z"/>
</g>
<g>
	<path class="st0" d="M65.2,555.7h7.1c5,0,8.3,1.7,8.3,6c0,2.5-1.3,4.6-3.6,5.3v0.1c3.1,0.6,5,2.5,5,5.8c0,4.7-3.8,7.1-9.2,7.1h-7.7
		L65.2,555.7L65.2,555.7z M71.7,566.2c4.5,0,6.1-1.7,6.1-4.2c0-3.1-2.1-4.2-6-4.2h-3.9v8.3h3.8V566.2z M72.4,577.9c4.3,0,7-1.5,7-5
		c0-3.2-2.5-4.6-7-4.6h-4.5v9.6H72.4L72.4,577.9z"/>
</g>
<path class="st0" d="M547.1,570.4V556h2.8v14.6c0,6,2.6,7.9,5.8,7.9c3.3,0,6-1.8,6-7.9V556h2.6v14.5c0,7.8-3.9,10.3-8.6,10.3
	C551,580.7,547.1,578.2,547.1,570.4z"/>
<g>
	<path class="st5" d="M378.8,417.3L378.8,417.3c-0.6,0-0.6,0-0.6-0.6v-21.6c0-0.6,0-0.6,0.6-0.6l0,0c0.6,0,0.6,0,0.6,0.6v21.6
		L378.8,417.3z"/>
	<path class="st5" d="M377.7,394"/>
	<path class="st5" d="M378.8,395.1"/>
	<path class="st5" d="M378.2,396.8v-84.2c0-0.6,0-0.6,0.6-0.6l0,0c0.3,0,0.6,0.3,0.6,0.6l0,0v84.2c0,0.3-0.3,0.6-0.6,0.6
		C378.2,397.9,378.2,396.8,378.2,396.8z"/>
	<g>
		<path class="st5" d="M317.9,349L317.9,349c-0.6,0-0.6,0-0.6-0.6v-35.9c0-0.6,0-0.6,0.6-0.6l0,0c0.6,0,0.6,0,0.6,0.6v35.9
			C318.5,349,318.5,349,317.9,349z"/>
		<path class="st5" d="M317.3,416.7"/>
		<path class="st5" d="M317.3,417.3v-70c0-0.6,0-0.6,0.6-0.6l0,0c0.6,0,0.6,0,0.6,0.6v70"/>
		<path class="st5" d="M328.1,418.4"/>
		<path class="st5" d="M379.4,312.6h-1.1c0-4.6-6.3-5.1-6.3-5.1h-32.5v-1.1h32.4l0,0c3.6-0.5,6.9,2.1,7.4,5.7
			C379.3,312.2,379.4,312.4,379.4,312.6z"/>
		<path class="st5" d="M318.5,312.6h-1.1l0,0c0.1-3.6,3.2-6.5,6.8-6.3c0.2,0,0.4,0,0.6,0h32.4v1.1h-32.4
			C324.7,307.4,318.5,308,318.5,312.6z"/>
		<rect x="317.9" y="392.8" class="st5" width="60.9" height="1.1"/>
		<rect x="317.9" y="375.2" class="st5" width="60.9" height="1.1"/>
		<rect x="317.3" y="416.7" class="st5" width="61.5" height="1.1"/>
		<rect x="304.8" y="362.7" class="st5" width="13.1" height="1.1"/>
		<rect x="316.2" y="314.8" class="st5" width="1.7" height="1.1"/>
		<rect x="250.2" y="202.7" class="st5" width="70.6" height="1.1"/>
		<rect x="250.2" y="172.5" class="st5" width="70.6" height="1.1"/>
		<path class="st5" d="M289.4,369.5c-1.5,0.1-3.1-0.1-4.6-0.6c-10.7-1-20.4-6.9-26.2-15.9c-3-5-4.4-10.7-4-16.5V283
			c1.7-15.9-3.4-43.3-4.6-49c-0.5-2.1-0.7-4.2-0.6-6.3v-33.6l0.6-71.2c0.6-13.7,4.6-23.9,12-30.2c6.4-5.7,14.8-8.6,23.3-8
			c12.3,1.2,23.4,7.9,30.2,18.2c3.4,5.7,5.2,12.2,5.1,18.8v71.7l0.6,35.3c0.1,2.1-0.1,4.2-0.6,6.3c-3.4,16.5-4,78.6-4,101.3
			c0.2,3.1-0.2,6.2-1.1,9.1C309.4,366.6,296.3,369.5,289.4,369.5z M250.7,194.2v33.6c-0.1,2.1,0.1,4.2,0.6,6.3
			c1.1,5.7,6.3,33.6,4.6,49v53.5c-0.4,5.4,1,10.8,4,15.4c5.8,8.5,14.9,14.3,25,15.9c1.1,0,21.1,5.1,29.6-22.2c0.9-2.9,1.3-6,1.1-9.1
			c0-0.6,0-82,4-101.3c0.5-2.1,0.7-4.2,0.6-6.3l-0.6-35.3V122c0.1-6.3-1.7-12.4-5.1-17.6c-6.5-10.1-17.1-16.8-29-18.2
			c-8.1-0.4-16,2.2-22.2,7.4c-8.1,7.7-12.4,18.5-12,29.6L250.7,194.2z"/>
		
			<rect x="234.2" y="87.3" transform="matrix(0.6644 -0.7473 0.7473 0.6644 -1.7705 211.5616)" class="st6" width="1.1" height="41"/>
		
			<rect x="280.8" y="28.7" transform="matrix(0.7142 -0.6999 0.6999 0.7142 32.6052 216.4387)" class="st7" width="1.1" height="79.1"/>
		<path class="st5" d="M175,239.7c-21.6,0-33.6-21.1-33.6-21.6c-6.8-10.2-4.6-24.5-2.3-31.9c1.8-7.3,2.7-14.7,2.8-22.2v-29.6
			c0.6-51.2,10.8-64.3,12-66c7.4-21.6,42.1-41.6,42.1-41.6c10.6-9.3,25.7-11.7,38.7-6.3c13.9,5.8,22.5,19.7,21.6,34.7
			c-2.3,25-29,33.6-29.6,33.6c-16.5,6.3-13.7,42.1-13.7,42.7v45c-0.2,3.6,0.2,7.3,1.1,10.8c1.1,5.1,2.3,13.7,2.3,13.7
			c-1.1,37-37.6,38.1-38.1,38.1C177.4,239.6,176.2,239.8,175,239.7z M220,19.4c-8.6,0.1-16.9,3.3-23.3,9.1
			c-0.6,0-34.7,19.9-42.1,41.6l0,0c0,0-11.4,12.5-12,64.9v29.6c-0.1,7.5-1.1,14.9-2.8,22.2c-1.7,7.4-4,21.1,2.3,30.7
			c0,0,13.1,22.8,35.9,21.1c1.7,0,35.9-1.1,37-37l0,0c0,0-1.1-8.5-2.3-13.7c-0.9-3.5-1.3-7.2-1.1-10.8v-45c0-1.7-2.8-37.6,14.8-43.8
			c0.6,0,26.2-8,28.5-32.4c1.1-14.4-7.2-28-20.5-33.6C229.7,20.4,224.9,19.5,220,19.4z"/>
		<rect x="214.3" y="206.7" class="st5" width="1.1" height="74.6"/>
		<rect x="136.9" y="206.7" class="st5" width="1.1" height="76.8"/>
		<path class="st5" d="M215.4,502.1V287.5c-2.3-31.3-36.4-37.6-36.4-37.6c-33,0.6-41,34.2-41,34.2v218h-1.1v-218
			c0-0.6,8-34.7,42.1-35.3c0.6,0,35.3,6.3,37.6,38.7v214.6L215.4,502.1L215.4,502.1z"/>
		<rect x="136.9" y="382.6" class="st5" width="79.1" height="1.1"/>
		<rect x="136.9" y="415.6" class="st5" width="79.1" height="1.1"/>
		<path class="st5" d="M229.1,510.7H123.8v-9.1h105.3V510.7z M124.9,509.5h103v-6.8h-103V509.5z"/>
		<polygon class="st5" points="144.9,502.1 143.7,502.1 143.7,474.2 137.5,474.2 137.5,473.1 144.9,473.1 		"/>
		<polygon class="st5" points="135.2,501.5 134,501.5 134,471.4 136.9,471.4 136.9,472.5 135.2,472.5 		"/>
		<polygon class="st5" points="134.6,500.4 130.1,500.4 130.1,475.4 134.6,475.4 134.6,476.5 131.2,476.5 131.2,499.3 134.6,499.3 
					"/>
	</g>
</g>
<circle class="st0" cx="131.6" cy="504.8" r="12.7"/>
<line class="st8" x1="175.5" y1="505.5" x2="175.5" y2="461.8"/>
<polygon class="st0" points="180.8,463.3 175.5,454.3 170.4,463.3 "/>
<line class="st8" x1="179.6" y1="510.1" x2="237.6" y2="510.1"/>
<polygon class="st0" points="236.1,515.2 245,510 236.1,504.8 "/>
<g class="st3">
	<path class="st4" d="M133.4,507.6h-4.6l-1,3.6h-2.9l4.6-14.2h3.3l4.6,14.2h-2.9L133.4,507.6z M132.8,505.4l-0.4-1.5
		c-0.4-1.5-0.8-3.1-1.3-4.6H131c-0.4,1.5-0.8,3.2-1.3,4.6l-0.4,1.5H132.8z"/>
</g>
<g>
	<path class="st0" d="M185,469.7l9.7-15h-8.8v-1.9h11.7v1.4l-9.7,15h9.7v1.9h-12.7C185,471.1,185,469.7,185,469.7z"/>
</g>
<g>
	<path class="st0" d="M259.9,510.4l-5-8.9h2.5l2.5,4.7c0.4,0.8,0.8,1.7,1.4,2.6h0.1c0.6-1.1,0.8-1.8,1.3-2.6l2.5-4.7h2.4l-5,9
		l5.4,9.3h-2.5l-2.6-5c-0.4-0.8-1-1.8-1.5-2.9h-0.1c-0.6,1.1-1,2.1-1.5,2.9l-2.6,5h-2.4L259.9,510.4z"/>
</g>
<g>
	<path class="st0" d="M174.5,534.5l-5.6-11.3h2.5l2.4,5.1c0.6,1.4,1.1,2.6,1.8,4h0.1c0.7-1.4,1.3-2.6,1.8-4l2.4-5.1h2.4l-5.6,11.3
		v7.1h-2.4L174.5,534.5L174.5,534.5z"/>
</g>
<circle class="st2" cx="175.3" cy="509.7" r="4.2"/>
<circle class="st0" cx="348.1" cy="374.7" r="12.7"/>
<g class="st3">
	<path class="st4" d="M343.3,366.9h4.7c2.9,0,5.1,0.8,5.1,3.5c0,1.3-0.7,2.6-1.9,3.1v0.1c1.5,0.4,2.6,1.4,2.6,3.3
		c0,2.9-2.4,4.2-5.6,4.2h-5.1L343.3,366.9L343.3,366.9z M347.8,372.8c1.8,0,2.6-0.7,2.6-1.8c0-1.3-0.8-1.8-2.5-1.8h-1.7v3.6H347.8z
		 M348.1,379c1.9,0,3.1-0.7,3.1-2.2c0-1.4-1-1.9-3.1-1.9h-1.9v4.2L348.1,379L348.1,379z"/>
</g>
<line class="st8" x1="346.6" y1="417.1" x2="346.6" y2="474.3"/>
<line class="st9" x1="317.6" y1="411.3" x2="378.8" y2="411.3"/>
<circle class="st0" cx="346.6" cy="412.3" r="4.7"/>
<line class="st8" x1="347.8" y1="412.3" x2="394.8" y2="412.3"/>
</svg>
