<?xml version="1.0" encoding="utf-8"?>
<!-- Generator: Adobe Illustrator 26.0.1, SVG Export Plug-In . SVG Version: 6.00 Build 0)  -->
<svg version="1.1" id="图层_1" xmlns="http://www.w3.org/2000/svg" xmlns:xlink="http://www.w3.org/1999/xlink" x="0px" y="0px"
	 viewBox="0 0 351 86.9" style="enable-background:new 0 0 351 86.9;" xml:space="preserve">
<style type="text/css">
	.st0{fill:none;stroke:#040000;stroke-width:0.5;stroke-linecap:round;stroke-linejoin:round;}
	.st1{fill:none;stroke:#000000;stroke-width:0.25;stroke-miterlimit:10;}
	.st2{fill:none;stroke:#000000;stroke-width:0.25;stroke-miterlimit:9.9994;}
	.st3{fill:none;stroke:#000000;stroke-width:0.25;stroke-miterlimit:9.9997;}
	.st4{fill:none;stroke:#040000;stroke-width:0.25;stroke-linecap:round;stroke-linejoin:round;}
</style>
<line class="st0" x1="48.7" y1="52.8" x2="94.4" y2="52.8"/>
<line class="st0" x1="211.5" y1="52.8" x2="268.5" y2="52.8"/>
<path d="M63.1,46.2l-1.8-3.1H60v3.1h-0.9v-7.3h2.3c1.5,0,2.6,0.5,2.6,2.1c0,1-0.7,1.9-1.7,2.1l1.9,3.2L63.1,46.2z M60,42.3h1.2
	c1.1,0,1.8-0.5,1.8-1.4s-0.6-1.3-1.8-1.3H60V42.3z"/>
<path d="M64.7,45.2l0.5-0.6c0.5,0.6,1.2,0.9,2,0.9c1,0,1.5-0.5,1.5-1.2s-0.5-1-1.2-1.3l-1.1-0.5c-1.1-0.2-1.7-1.2-1.5-2.3
	s1.2-1.7,2.3-1.5c0,0,0,0,0.1,0l0,0c0.8,0,1.6,0.3,2.2,0.9l-0.6,0.6c-0.5-0.4-1.1-0.7-1.7-0.7c-0.8,0-1.4,0.4-1.4,1.1s0.6,1,1.2,1.2
	l1,0.4c0.9,0.3,1.5,1.1,1.5,2c-0.1,1.2-1.1,2.2-2.4,2.1l0,0H67C66.1,46.3,65.2,45.9,64.7,45.2z"/>
<path d="M75.3,44.1h-1v2h-0.9v-2h-3.1v-0.6l3-4.7h1v4.6h1V44.1z M73.5,43.4v-2.2c0-0.4,0-0.9,0.1-1.3l0,0c-0.2,0.4-0.4,0.7-0.6,1.1
	l-1.7,2.4H73.5z"/>
<path d="M76.2,44.3c0-0.9,0.5-1.6,1.3-2l0,0c-0.6-0.4-1-1-1-1.7c0-1,0.9-1.9,1.9-1.9l0,0h0.1c1-0.1,1.9,0.7,2,1.7v0.2
	c0,0.7-0.4,1.4-1,1.8l0,0c0.7,0.4,1.2,1.1,1.2,1.9c0,1.1-0.9,1.9-2.3,1.9c-1,0.1-2-0.6-2.2-1.6C76.2,44.5,76.1,44.4,76.2,44.3z
	 M80,44.4c0-1-0.9-1.3-1.9-1.8c-0.6,0.4-1,1-1,1.7s0.6,1.3,1.3,1.3h0.2c0.7,0.1,1.3-0.4,1.4-1.1l0,0V44.4z M79.8,40.7
	c0-0.7-0.5-1.3-1.2-1.3l0,0h-0.1c-0.6,0-1.1,0.5-1.2,1.1v0.1c0,0.9,0.8,1.3,1.6,1.6C79.4,41.8,79.7,41.3,79.8,40.7z"/>
<path d="M81.4,45.3l0.5-0.6c0.5,0.5,1.1,0.8,1.8,0.8c0.9,0,1.6-0.7,1.6-1.6l0,0v-0.1c0.1-0.9-0.5-1.6-1.4-1.7l0,0h-0.1
	c-0.4,0-0.9,0.1-1.2,0.4l-0.5-0.3l0.2-3.4h3.6v0.8h-2.8l-0.2,2.1c0.3-0.2,0.7-0.3,1.1-0.3c1.1-0.1,2.1,0.8,2.2,1.9v0.4
	c0,1.3-1,2.4-2.3,2.5h-0.1C82.9,46.3,82,45.9,81.4,45.3z"/>
<g>
	<path class="st1" d="M1,70.3v-3.8c0-0.1,0-0.1,0.1-0.1l0,0c0.1,0,0.1,0,0.1,0.1v3.8C1.2,70.4,1.2,70.4,1,70.3L1,70.3L1,70.3z"/>
	<path class="st1" d="M1.3,66.3"/>
	<path class="st1" d="M1.1,66.5"/>
	<path class="st1" d="M1.1,66.9c-0.1,0-0.1,0-0.1-0.1V52l0,0c0-0.1,0-0.1,0.1-0.1l0,0c0.1,0,0.1,0,0.1,0.1L1.1,66.9
		C1.2,66.8,1.2,67,1.1,66.9z"/>
	<g>
		<path class="st1" d="M11.7,58.3V52c0-0.1,0-0.1,0.1-0.1l0,0c0.1,0,0.1,0,0.1,0.1v6.3c0,0.1,0,0.1-0.1,0.1l0,0
			C11.7,58.4,11.7,58.4,11.7,58.3z"/>
		<path class="st1" d="M11.9,70.3"/>
		<path class="st1" d="M11.7,70.4V58.1c0-0.1,0-0.1,0.1-0.1l0,0c0.1,0,0.1,0,0.1,0.1v12.3"/>
		<path class="st1" d="M10,70.6"/>
		<path class="st1" d="M1,51.9c0.1-0.6,0.7-1.1,1.3-1l0,0H8v0.2H2.3c0,0-1.1,0.1-1.1,0.9H1C1,52,1,52,1,51.9z"/>
		<path class="st1" d="M10.6,51.1H4.9v-0.2h5.7h0.1c0.6,0,1.2,0.5,1.2,1.1l0,0h-0.2C11.7,51.2,10.6,51.1,10.6,51.1z"/>
		<rect x="1.1" y="66.1" class="st1" width="10.7" height="0.2"/>
		<rect x="1.1" y="63" class="st1" width="10.7" height="0.2"/>
		<rect x="1.1" y="70.3" class="st1" width="10.8" height="0.2"/>
		<rect x="11.8" y="60.8" class="st1" width="2.3" height="0.2"/>
		<rect x="11.8" y="52.4" class="st1" width="0.3" height="0.2"/>
		<rect x="11.3" y="32.7" class="st1" width="12.4" height="0.2"/>
		<rect x="11.3" y="27.4" class="st1" width="12.4" height="0.2"/>
		<path class="st1" d="M12.2,57.8C12,57.3,12,56.7,12,56.2c0-4-0.1-14.9-0.7-17.8c-0.1-0.4-0.1-0.7-0.1-1.1l0.1-6.2V18.5
			c0-1.2,0.3-2.3,0.9-3.3c1.2-1.8,3.1-3,5.3-3.2c1.5-0.1,3,0.4,4.1,1.4c1.3,1.1,2,2.9,2.1,5.3l0.1,12.5v5.9c0,0.4,0,0.7-0.1,1.1
			c-0.2,1-1.1,5.8-0.8,8.6v9.4c0.1,1-0.2,2-0.7,2.9c-1,1.6-2.7,2.6-4.6,2.8C17.3,62,17.1,62,16.8,62C15.6,62,13.3,61.5,12.2,57.8z
			 M23.5,18.7c0.1-2-0.7-3.9-2.1-5.2c-1.1-0.9-2.5-1.4-3.9-1.3c-2.1,0.2-4,1.4-5.1,3.2c-0.6,0.9-0.9,2-0.9,3.1v12.6l-0.1,6.2
			c0,0.4,0,0.7,0.1,1.1c0.7,3.4,0.7,17.7,0.7,17.8c0,0.5,0,1.1,0.2,1.6c1.5,4.8,5,3.9,5.2,3.9c1.8-0.3,3.4-1.3,4.4-2.8
			c0.5-0.8,0.8-1.7,0.7-2.7v-9.4c-0.3-2.7,0.6-7.6,0.8-8.6c0.1-0.4,0.1-0.7,0.1-1.1v-5.9L23.5,18.7z"/>
		
			<rect x="22.7" y="15.9" transform="matrix(0.7473 -0.6644 0.6644 0.7473 -3.9651 21.5451)" class="st2" width="7.2" height="0.2"/>
		<rect x="11.3" y="9" transform="matrix(0.6999 -0.7142 0.7142 0.6999 -0.9995 15.7231)" class="st3" width="13.9" height="0.2"/>
		<path class="st1" d="M36.3,39.1c-0.1,0-6.5-0.2-6.7-6.7c0,0,0.2-1.5,0.4-2.4c0.2-0.6,0.2-1.3,0.2-1.9v-7.9c0-0.1,0.5-6.4-2.4-7.5
			c-0.1,0-4.8-1.5-5.2-5.9c-0.2-2.6,1.4-5.1,3.8-6.1c2.3-1,4.9-0.5,6.8,1.1c0,0,6.1,3.5,7.4,7.3c0.2,0.3,2,2.6,2.1,11.6v5.2
			c0,1.3,0.2,2.6,0.5,3.9c0.4,1.3,0.8,3.8-0.4,5.6c0,0.1-2.1,3.8-5.9,3.8C36.7,39.2,36.5,39.2,36.3,39.1z M26.5,1
			c-2.3,1-3.8,3.4-3.6,5.9c0.4,4.3,4.9,5.7,5,5.7c3.1,1.1,2.6,7.4,2.6,7.7v7.9c0,0.6,0,1.3-0.2,1.9c-0.2,0.9-0.4,2.4-0.4,2.4l0,0
			c0.2,6.3,6.2,6.5,6.5,6.5c4,0.3,6.3-3.7,6.3-3.7c1.1-1.7,0.7-4.1,0.4-5.4s-0.5-2.6-0.5-3.9v-5.2c-0.1-9.2-2.1-11.4-2.1-11.4l0,0
			c-1.3-3.8-7.3-7.3-7.4-7.3c-1.1-1-2.6-1.6-4.1-1.6C28.2,0.5,27.3,0.7,26.5,1z"/>
		<rect x="29.8" y="33.4" class="st1" width="0.2" height="13.1"/>
		<rect x="43.4" y="33.4" class="st1" width="0.2" height="13.5"/>
		<path class="st1" d="M29.6,85.3V47.6c0.4-5.7,6.5-6.8,6.6-6.8c6,0.1,7.4,6.1,7.4,6.2v38.3h-0.2V47c0,0-1.4-5.9-7.2-6
			c0,0-6,1.1-6.4,6.6v37.7H29.6z"/>
		<rect x="29.7" y="64.3" class="st1" width="13.9" height="0.2"/>
		<rect x="29.7" y="70.1" class="st1" width="13.9" height="0.2"/>
		<path class="st1" d="M27.4,85.2h18.5v1.6H27.4V85.2z M45.7,85.4H27.6v1.2h18.1C45.7,86.6,45.7,85.4,45.7,85.4z"/>
		<polygon class="st1" points="42.2,80.2 43.5,80.2 43.5,80.4 42.4,80.4 42.4,85.3 42.2,85.3 		"/>
		<polygon class="st1" points="43.9,80.1 43.6,80.1 43.6,79.9 44.1,79.9 44.1,85.2 43.9,85.2 		"/>
		<polygon class="st1" points="44,84.8 44.6,84.8 44.6,80.8 44,80.8 44,80.6 44.8,80.6 44.8,85 44,85 		"/>
	</g>
</g>
<path d="M221.1,42.3h4.2V43H222v2.4h2.8v0.7H222v2.8h3.4v0.7h-4.3L221.1,42.3z"/>
<path d="M226.8,48v-3.1H226v-0.6h0.9l0.1-1.5h0.7v1.5h1.5V45h-1.5v3.1c0,0.7,0.2,1.1,0.9,1.1c0.2,0,0.4-0.1,0.6-0.1l0.2,0.6
	c-0.3,0.1-0.7,0.2-1,0.2C227.1,49.8,226.8,49.1,226.8,48z"/>
<path d="M230.3,41.7h0.8V45c0.5-0.5,1.1-0.9,1.8-0.9c1.1,0,1.6,0.7,1.6,2.1v3.4h-0.8v-3.3c0-1-0.3-1.5-1.1-1.5
	c-0.6,0.1-1.2,0.4-1.5,0.9v4h-0.8V41.7z"/>
<path d="M235.9,46.9c-0.1-1.4,0.9-2.7,2.3-2.8h0.1c1.4,0,2.1,1,2.1,2.5v0.5h-3.7c-0.1,1,0.7,1.9,1.7,2h0.1c0.5,0,1-0.2,1.4-0.4
	l0.3,0.5c-0.5,0.4-1.2,0.6-1.8,0.5c-1.4,0-2.6-1.1-2.6-2.5C235.8,47.1,235.9,47,235.9,46.9z M239.7,46.5c0-1.2-0.5-1.8-1.4-1.8
	c-0.9,0.1-1.6,0.9-1.6,1.8H239.7z"/>
<path d="M241.8,44.2h0.7l0.1,1l0,0c0.3-0.6,0.8-1,1.5-1.1c0.2,0,0.4,0,0.6,0.1l-0.2,0.7c-0.2-0.1-0.3-0.1-0.5-0.1
	c-0.5,0-1,0.3-1.4,1.3v3.5h-0.8L241.8,44.2z"/>
<path d="M245.6,44.2h0.7l0.1,0.8l0,0c0.5-0.5,1.1-0.9,1.8-0.9c1.1,0,1.6,0.7,1.6,2.1v3.4H249v-3.3c0-1-0.3-1.5-1.1-1.5
	c-0.6,0.1-1.2,0.4-1.5,0.9v4h-0.8V44.2z"/>
<path d="M251.2,46.9c-0.1-1.4,0.9-2.7,2.3-2.8h0.1c1.4,0,2.1,1,2.1,2.5v0.5H252c-0.1,1,0.7,1.9,1.7,2h0.1c0.5,0,1-0.2,1.4-0.4
	l0.3,0.5c-0.5,0.4-1.2,0.6-1.8,0.5c-1.4,0-2.6-1.1-2.6-2.5C251.1,47.1,251.2,47,251.2,46.9z M255.1,46.5c0-1.2-0.5-1.8-1.4-1.8
	c-0.9,0.1-1.6,0.9-1.6,1.8H255.1z"/>
<path d="M257.2,48v-3.1h-0.8v-0.6h0.9l0.1-1.5h0.7v1.5h1.5V45h-1.5v3.1c0,0.7,0.2,1.1,0.8,1.1c0.2,0,0.4-0.1,0.6-0.1l0.2,0.6
	c-0.3,0.1-0.7,0.2-1,0.2C257.5,49.8,257.2,49.1,257.2,48z"/>
<g>
	<path d="M307.8,75.1c-0.3,0-0.5-0.1-0.7-0.2l-24.4-16.8c-0.1-0.1-0.1-0.2,0-0.3l0.1-0.1l40.9-15.3c0.6-0.2,1.3-0.2,2,0l26.1,9.3
		c0.1,0,0.1,0.1,0.1,0.2c0,0,0,0.1-0.1,0.1l-43.4,22.9C308.2,75,308,75.1,307.8,75.1z M283.2,57.9l24.1,16.6
		c0.3,0.2,0.6,0.2,0.9,0.1l43-22.7l-25.8-9.1c-0.6-0.2-1.2-0.2-1.7,0L283.2,57.9z"/>
	<path d="M307,76.6c-0.3,0-0.7-0.1-1-0.2l-22-14.8c-1.4-0.7-2-2.3-1.4-3.8c0-0.1,0.1-0.1,0.2-0.1s0.1,0.1,0.1,0.2l0,0
		c-0.5,1.3,0.1,2.7,1.3,3.3l22,14.8c0.9,0.3,2,0.1,2.7-0.6l39.6-20.7c0.8-0.4,2.8-1.6,3.1-2.5c0-0.1,0-0.2,0-0.3
		c-0.1-0.1,0-0.2,0.1-0.3s0.2,0,0.2,0.1c0.1,0.2,0.1,0.4,0.1,0.6c-0.3,1.2-3.1,2.7-3.3,2.7l-39.5,20.7
		C308.5,76.3,307.8,76.6,307,76.6z"/>
	<path d="M282.6,60.2c-0.1,0-0.1,0-0.2,0c-0.5-0.2-1.1-1-1.6-2.4l-11.5-33.4c-0.2-0.5-0.1-1,0.1-1.4c0.5-0.5,1.2-0.8,2-0.7l40.7-7.1
		c0.2-0.1,0.5-0.1,0.7,0c0.5,0.2,0.8,0.8,0.9,1.8l9.6,25.6c0,0.1,0,0.2-0.1,0.2s-0.2,0-0.2-0.1l0,0l0,0l0,0l-9.6-25.6
		c-0.2-1.1-0.5-1.4-0.7-1.6c-0.1-0.1-0.3-0.1-0.4,0c0,0,0,0-0.1,0l-40.7,7.1c-0.9,0-1.4,0.2-1.7,0.5c-0.2,0.3-0.2,0.7-0.1,1
		l11.5,33.4c0.6,1.7,1.1,2.1,1.4,2.1c0.1,0,0.1,0,0.2,0c0.1-0.1,0.2,0,0.3,0l0,0l0,0l0,0c0.1,0.1,0,0.2,0,0.3
		C282.8,60.1,282.7,60.2,282.6,60.2z"/>
	<path d="M282.6,55.2C282.6,55.2,282.5,55.2,282.6,55.2c-0.1,0-0.2-0.1-0.2-0.1l-9.7-28.4v-0.1l0.1-0.1l40.1-8.1
		c0.1,0,0.2,0,0.2,0.1l8.2,22.9v0.1l-0.1,0.1L282.6,55.2L282.6,55.2z M273.1,26.8l9.6,28L321,41.3l-8.1-22.6L273.1,26.8z"/>
	<path d="M322.9,66c-0.2,0-0.3,0-0.5-0.1l-6.8-3.9c0,0-0.1,0-0.1-0.1c-0.1-0.2-0.1-0.4-0.1-0.6c0.1-0.2,0.3-0.4,0.5-0.6l9.7-4.3
		c0.6-0.4,1.4-0.6,2.1-0.5c0,0,0,0,0.1,0l5.1,2.3c1.1,0.5,1.6,1,1.6,1.4c0,0.2-0.1,0.4-0.3,0.5L324,65.6
		C323.7,65.9,323.3,66,322.9,66z M322.5,65.6c0.5,0.1,1,0,1.4-0.3l10.2-5.5l0.1-0.1c0-0.1-0.1-0.4-1.4-1.1l-5.1-2.3
		c-0.7-0.1-1.3,0.1-1.8,0.5c0,0,0,0-0.1,0l-9.7,4.3c-0.1,0.1-0.2,0.2-0.3,0.3c0,0.1,0,0.2,0,0.3L322.5,65.6L322.5,65.6z"/>
	<path d="M301.7,66.4c-0.3,0-0.5,0-0.8-0.1l0,0l-9.6-6.8c-0.3-0.2-0.4-0.7-0.2-1c0.1-0.1,0.2-0.2,0.3-0.3l35.3-13.8
		c0.2-0.1,0.4-0.1,0.5,0l11.3,4.2c0.5,0.2,0.8,0.5,0.9,0.8c0,0.2,0,0.3-0.1,0.5c0,0,0,0-0.1,0.1l-36.8,16.5
		C302.3,66.3,302,66.4,301.7,66.4z M301,65.9c0.5,0.1,0.9,0.1,1.4,0l36.7-16.4v-0.1c0-0.1-0.2-0.3-0.7-0.5l-11.3-4.2
		c-0.1,0-0.2,0-0.3,0l-35.3,13.8c-0.2,0.1-0.3,0.3-0.2,0.5c0,0.1,0.1,0.1,0.1,0.2L301,65.9z"/>
	<path d="M293.1,20.9c-0.3,0-0.5-0.2-0.5-0.5s0.2-0.5,0.5-0.5s0.5,0.2,0.5,0.5C293.6,20.7,293.3,20.9,293.1,20.9L293.1,20.9z
		 M293.1,20.3c-0.1,0-0.1,0.1-0.1,0.1l0.1,0.1l0.1-0.1l0,0C293.2,20.3,293.1,20.3,293.1,20.3L293.1,20.3L293.1,20.3L293.1,20.3z"/>
	<path d="M299.3,65.1c-0.1,0-0.2-0.1-0.2-0.2s0-0.1,0.1-0.2l37.7-16.8c0.1,0,0.2,0,0.2,0.1l0,0c0,0.1,0,0.2-0.1,0.2l0,0L299.3,65.1
		L299.3,65.1z"/>
	<path d="M297,63.5c-0.1,0-0.2-0.1-0.2-0.2c0-0.1,0-0.1,0.1-0.2l37.8-16c0.1,0,0.2,0,0.2,0.1l0,0c0,0.1,0,0.2-0.1,0.2l0,0l0,0
		L297,63.5C297.1,63.5,297.1,63.5,297,63.5z"/>
	<path d="M295.1,62.1c-0.1,0-0.2-0.1-0.2-0.2c0-0.1,0-0.1,0.1-0.2l37.2-15.5c0.1,0,0.2,0,0.2,0.1s0,0.2-0.1,0.2l0,0l0,0L295.1,62.1
		L295.1,62.1z"/>
	<path d="M293.1,60.6c-0.1,0-0.2-0.1-0.2-0.2c0-0.1,0-0.1,0.1-0.2l37.3-14.8c0.1,0,0.2,0,0.2,0.1s0,0.2-0.1,0.2L293.1,60.6
		L293.1,60.6z"/>
	<path d="M305.8,64.8h-0.1l-10.2-7.9c-0.1-0.1-0.1-0.2,0-0.3s0.2-0.1,0.3,0l0,0l10.2,7.9c0.1,0.1,0.1,0.2,0,0.3
		C305.9,64.8,305.8,64.8,305.8,64.8z"/>
	<path d="M309.5,63.1h-0.1l-10.5-7.6c-0.1-0.1-0.1-0.2,0-0.3l0,0c0.1-0.1,0.2-0.1,0.2,0l0,0l0,0l0,0l10.5,7.6c0.1,0.1,0.1,0.2,0,0.3
		H309.5L309.5,63.1z"/>
	<path d="M313.4,61.3h-0.1l-10.2-7.4c-0.1-0.1-0.1-0.2,0-0.3s0.2-0.1,0.3,0l10.2,7.4c0.1,0.1,0.1,0.2,0,0.3
		C313.5,61.3,313.4,61.3,313.4,61.3z"/>
	<path d="M313.9,58.6h-0.1l-7.4-6c-0.1-0.1-0.1-0.2,0-0.3l0,0l0,0l0,0c0.1-0.1,0.2-0.1,0.3,0l7.4,6c0.1,0.1,0.1,0.2,0,0.3
		C314,58.5,313.9,58.6,313.9,58.6L313.9,58.6z"/>
	<path d="M316.6,57.3h-0.1l-6.9-6.1c-0.1-0.1-0.1-0.2,0-0.3s0.2-0.1,0.3,0l0,0l0,0l0,0l6.9,6.1c0.1,0.1,0.1,0.2,0,0.3l0,0l0,0l0,0
		C316.7,57.3,316.7,57.3,316.6,57.3z"/>
	<path d="M320.6,55.5h-0.1l-7.6-5.5c-0.1-0.1-0.1-0.2,0-0.3s0.2-0.1,0.3,0l0,0l7.6,5.5c0.1,0.1,0.1,0.2,0,0.3
		C320.7,55.5,320.7,55.5,320.6,55.5L320.6,55.5z"/>
	<path d="M324.1,54C324,54,324,54,324.1,54l-8.2-5.1c-0.1-0.1-0.1-0.2-0.1-0.3l0,0l0,0c0.1-0.1,0.2-0.1,0.2-0.1l0,0l0,0l8.1,5.1
		c0.1,0.1,0.1,0.2,0.1,0.3C324.2,54,324.1,54,324.1,54L324.1,54z"/>
	<path d="M329,54.4C328.9,54.4,328.9,54.4,329,54.4l-10.6-6.5c-0.1-0.1-0.1-0.2-0.1-0.3c0.1-0.1,0.2-0.1,0.2-0.1L329,54
		c0.1,0.1,0.1,0.2,0.1,0.3S329,54.4,329,54.4z"/>
	<path d="M331.8,53.2C331.8,53.2,331.7,53.1,331.8,53.2L320.7,47c-0.1-0.1-0.1-0.2-0.1-0.2c0-0.1,0.2-0.1,0.2-0.1l11,6.2
		c0.1,0,0.1,0.2,0.1,0.2S331.9,53.2,331.8,53.2L331.8,53.2z"/>
	<path d="M334.7,51.9C334.7,51.9,334.6,51.8,334.7,51.9l-11.4-5.8c-0.1,0-0.1-0.2-0.1-0.2c0-0.1,0.2-0.1,0.2-0.1l11.3,5.8
		c0.1,0,0.1,0.2,0.1,0.2S334.8,51.9,334.7,51.9z"/>
	<path d="M337.6,50.6C337.6,50.6,337.6,50.5,337.6,50.6l-12.3-5.3c-0.1,0-0.1-0.1-0.1-0.2c0-0.1,0.1-0.1,0.2-0.1l12.2,5.3
		c0.1,0,0.1,0.1,0.1,0.2C337.7,50.5,337.7,50.6,337.6,50.6L337.6,50.6z"/>
</g>
<g>
	<line class="st4" x1="149" y1="37.6" x2="149" y2="37.6"/>
	<line class="st4" x1="142.8" y1="41.2" x2="142.8" y2="41.5"/>
	<line class="st4" x1="176" y1="76.3" x2="106" y2="64.3"/>
	<line class="st4" x1="203.1" y1="62" x2="202.8" y2="62"/>
	<line class="st4" x1="196.2" y1="70.7" x2="198.2" y2="71.1"/>
	<line class="st4" x1="174" y1="55.2" x2="174" y2="55.1"/>
	<polyline class="st4" points="182.8,57.1 182.8,57.1 182.6,57 182.5,56.8 182.4,56.5 182.4,56.2 182.4,55.8 182.5,55.5 	"/>
	<polyline class="st4" points="182.5,55.5 182.7,55.2 182.9,55 183.1,54.9 183.2,54.9 	"/>
	<polyline class="st4" points="122.1,23.8 122.4,23.6 122.7,23.6 122.7,23.6 	"/>
	<polyline class="st4" points="101.2,39.2 101.2,38.6 101.2,37.9 101.4,37.3 101.6,36.7 101.8,36.2 102.1,35.8 102.4,35.4 
		102.7,35.2 	"/>
	<line class="st4" x1="141.3" y1="50.2" x2="141.3" y2="50.3"/>
	<line class="st4" x1="149.9" y1="37.5" x2="149.9" y2="37.4"/>
	<line class="st4" x1="143" y1="41.5" x2="143" y2="41.6"/>
	<polyline class="st4" points="140.7,46 140.7,45.4 140.8,44.7 140.9,44.1 141.1,43.5 141.4,43 141.6,42.6 141.9,42.2 142.3,42 	"/>
	<line class="st4" x1="151.9" y1="36.3" x2="151.9" y2="36.6"/>
	<line class="st4" x1="141.3" y1="50.3" x2="174.1" y2="55.9"/>
	<line class="st4" x1="141.3" y1="50.3" x2="140.9" y2="50.5"/>
	<polyline class="st4" points="176.2,47.2 176.3,47.2 176.4,47.2 176.6,47.2 176.7,47.2 176.8,47.2 176.9,47.2 177,47.1 177.1,47.1 
			"/>
	<line class="st4" x1="175.4" y1="47.6" x2="176.2" y2="47.2"/>
	<line class="st4" x1="102.7" y1="35.2" x2="122.1" y2="23.8"/>
	<line class="st4" x1="142.3" y1="42" x2="102.7" y2="35.2"/>
	<line class="st4" x1="143" y1="41.5" x2="142.3" y2="42"/>
	<polyline class="st4" points="142.8,41.2 142.8,41.3 142.7,41.3 142.7,41.3 142.7,41.4 142.8,41.4 142.8,41.5 142.9,41.5 143,41.5 
			"/>
	<line class="st4" x1="149" y1="37.6" x2="142.8" y2="41.2"/>
	<polyline class="st4" points="149.9,37.4 149.8,37.4 149.7,37.4 149.6,37.4 149.4,37.4 149.3,37.5 149.2,37.5 149.1,37.5 149,37.6 
			"/>
	<line class="st4" x1="151.9" y1="36.3" x2="149.9" y2="37.4"/>
	<line class="st4" x1="185.1" y1="42" x2="151.9" y2="36.3"/>
	<line class="st4" x1="183.1" y1="43.1" x2="185.1" y2="42"/>
	<polyline class="st4" points="183.3,43.4 183.4,43.4 183.4,43.4 183.4,43.3 183.4,43.3 183.3,43.2 183.3,43.2 183.2,43.2 
		183.1,43.1 	"/>
	<line class="st4" x1="177.1" y1="47.1" x2="183.3" y2="43.4"/>
	<polyline class="st4" points="137.4,28.2 137.5,28.2 137.5,28.2 137.6,28.2 137.7,28.2 137.8,28.2 137.9,28.2 138,28.1 138,28.1 	
		"/>
	<line class="st4" x1="120.4" y1="25.3" x2="137.4" y2="28.2"/>
	<polyline class="st4" points="120.2,25.1 120.2,25.1 120.2,25.1 120.2,25.2 120.2,25.2 120.2,25.2 120.3,25.2 120.3,25.3 
		120.4,25.3 	"/>
	<line class="st4" x1="121.1" y1="24.6" x2="120.2" y2="25.1"/>
	<polyline class="st4" points="121.8,24.5 121.7,24.5 121.6,24.5 121.5,24.5 121.4,24.5 121.3,24.5 121.2,24.5 121.1,24.5 
		121.1,24.6 	"/>
	<line class="st4" x1="138.7" y1="27.4" x2="121.8" y2="24.5"/>
	<polyline class="st4" points="138.9,27.6 138.9,27.6 138.9,27.6 139,27.5 138.9,27.5 138.9,27.5 138.9,27.4 138.8,27.4 138.7,27.4 
			"/>
	<line class="st4" x1="138" y1="28.1" x2="138.9" y2="27.6"/>
	<line class="st4" x1="174.1" y1="56.2" x2="174" y2="55.3"/>
	<line class="st4" x1="140.9" y1="50.5" x2="174.1" y2="56.2"/>
	<line class="st4" x1="140.9" y1="49.6" x2="140.9" y2="50.5"/>
	<line class="st4" x1="140.7" y1="46" x2="140.9" y2="49.4"/>
	<line class="st4" x1="101.2" y1="39.2" x2="140.7" y2="46"/>
	<line class="st4" x1="102.1" y1="62.2" x2="101.2" y2="39.2"/>
	<line class="st4" x1="180.7" y1="48.6" x2="175.4" y2="47.6"/>
	<polyline class="st4" points="175.4,47.6 175.1,47.9 174.8,48.3 174.5,48.7 174.3,49.2 174.1,49.8 174,50.4 173.9,51.1 173.9,51.7 
			"/>
	<line class="st4" x1="173.9" y1="51.7" x2="179.2" y2="52.6"/>
	<polyline class="st4" points="201.9,39.2 201.8,38.6 201.7,38.1 201.5,37.7 201.3,37.4 201,37.1 200.7,37 200.4,37 200.1,37.2 	"/>
	<line class="st4" x1="200.1" y1="37.2" x2="180.7" y2="48.6"/>
	<polyline class="st4" points="180.7,48.6 180.4,48.8 180.1,49.2 179.8,49.6 179.6,50.1 179.4,50.7 179.2,51.3 179.2,52 179.2,52.6 
			"/>
	<line class="st4" x1="179.2" y1="52.6" x2="180.2" y2="77.1"/>
	<polyline class="st4" points="182,79.1 181.7,79.2 181.3,79.2 181,79.1 180.8,78.9 180.5,78.6 180.4,78.1 180.2,77.6 180.2,77.1 	
		"/>
	<line class="st4" x1="182" y1="79.1" x2="201.3" y2="67.7"/>
	<polyline class="st4" points="202.9,63.7 202.9,64.3 202.8,64.9 202.7,65.5 202.5,66.1 202.3,66.6 202,67.1 201.7,67.5 201.3,67.7 
			"/>
	<line class="st4" x1="202.9" y1="63.7" x2="201.9" y2="39.2"/>
	<polyline class="st4" points="186.3,61.5 186.3,62.1 186.2,62.7 186.1,63.4 185.9,64 185.7,64.6 185.4,65.1 185.1,65.6 184.8,65.9 
		184.4,66.2 184.1,66.3 183.7,66.4 183.4,66.3 183.1,66.1 182.8,65.8 182.6,65.4 182.5,64.9 182.3,64.4 182.3,63.8 182.3,63.2 
		182.4,62.5 182.5,61.8 182.7,61.2 182.9,60.6 183.2,60.1 183.5,59.7 183.8,59.3 184.1,59.1 184.5,58.9 184.8,58.9 185.1,58.9 
		185.4,59.1 185.7,59.4 185.9,59.8 186.1,60.3 186.2,60.9 186.3,61.5 	"/>
	<polyline class="st4" points="193.1,45 193.1,45.2 193.1,45.4 193,45.6 192.9,45.7 192.8,45.7 192.7,45.6 192.6,45.5 192.6,45.3 
		192.6,45.1 192.7,45 192.7,44.8 192.8,44.7 192.9,44.7 193,44.7 193.1,44.9 193.1,45 	"/>
	<polyline class="st4" points="191.3,46.1 191.3,46.3 191.2,46.5 191.1,46.7 191,46.8 190.9,46.8 190.8,46.7 190.8,46.6 190.7,46.4 
		190.7,46.2 190.8,46 190.9,45.9 191,45.8 191.1,45.8 191.2,45.8 191.2,45.9 191.3,46.1 	"/>
	<polyline class="st4" points="187,53.6 187,53.8 187,54 186.9,54.2 186.8,54.3 186.7,54.3 186.6,54.2 186.5,54.1 186.5,54 
		186.5,53.7 186.5,53.6 186.6,53.4 186.7,53.3 186.8,53.3 186.9,53.3 187,53.5 187,53.6 	"/>
	<polyline class="st4" points="185,54.8 185,55 184.9,55.2 184.9,55.4 184.8,55.5 184.6,55.5 184.6,55.4 184.5,55.3 184.5,55.1 
		184.5,54.9 184.5,54.7 184.6,54.6 184.7,54.5 184.8,54.5 184.9,54.5 185,54.6 185,54.8 	"/>
	<polyline class="st4" points="188.7,63.1 188.7,63.1 188.4,63 188.1,62.8 187.9,62.5 187.7,62.1 187.6,61.6 187.5,61 187.5,60.4 
		187.5,59.8 187.6,59.2 187.7,58.6 187.9,58 188.2,57.5 188.5,57 188.8,56.7 189.1,56.4 189.4,56.2 189.8,56.2 189.9,56.2 	"/>
	<polyline class="st4" points="183,57.1 182.8,57.2 182.6,57.1 182.5,56.9 182.4,56.7 182.4,56.4 182.4,56 182.4,55.7 182.6,55.3 
		182.7,55.1 182.9,54.9 183.1,54.9 183.3,54.9 183.3,55 	"/>
	<line class="st4" x1="184.7" y1="63.6" x2="183.1" y2="63.3"/>
	<line class="st4" x1="185.2" y1="63.3" x2="183.1" y2="62.9"/>
	<line class="st4" x1="184.8" y1="64.1" x2="183.1" y2="63.8"/>
	<line class="st4" x1="183.1" y1="64" x2="184.6" y2="64.2"/>
	<line class="st4" x1="183.7" y1="64.4" x2="184.6" y2="64.6"/>
	<line class="st4" x1="183.9" y1="64.6" x2="183.7" y2="64.6"/>
	<line class="st4" x1="183.2" y1="64.2" x2="183.6" y2="64.2"/>
	<line class="st4" x1="183.6" y1="64.2" x2="183.2" y2="64.5"/>
	<line class="st4" x1="183.2" y1="64.5" x2="183.1" y2="62.4"/>
	<line class="st4" x1="183.1" y1="62.4" x2="185.1" y2="61.2"/>
	<line class="st4" x1="185.1" y1="61.2" x2="185.2" y2="63.3"/>
	<line class="st4" x1="185.2" y1="63.3" x2="184.7" y2="63.6"/>
	<line class="st4" x1="184.7" y1="63.6" x2="184.8" y2="64.1"/>
	<line class="st4" x1="184.8" y1="64.1" x2="184.6" y2="64.2"/>
	<line class="st4" x1="184.6" y1="64.2" x2="184.6" y2="64.6"/>
	<line class="st4" x1="184.6" y1="64.6" x2="183.9" y2="65"/>
	<line class="st4" x1="183.9" y1="65" x2="183.9" y2="64.6"/>
	<line class="st4" x1="183.9" y1="64.6" x2="183.7" y2="64.7"/>
	<line class="st4" x1="183.7" y1="64.7" x2="183.6" y2="64.2"/>
	<polyline class="st4" points="184.7,58.9 185,58.9 185.3,59.1 185.6,59.4 185.8,59.8 185.9,60.3 186.1,60.8 186.1,61.4 186.1,62.1 
		186,62.7 185.9,63.4 185.7,64 185.5,64.6 185.3,65.1 184.9,65.5 184.6,65.9 184.3,66.1 	"/>
	<polyline class="st4" points="184.3,66.1 183.9,66.3 183.6,66.3 183.5,66.3 	"/>
	<polyline class="st4" points="190.8,61.1 190.9,61 191,60.5 191.1,59.9 191.2,59.4 191.2,58.8 	"/>
	<polyline class="st4" points="193.8,59.3 193.8,59.8 193.8,60.4 193.7,60.9 193.5,61.5 193.3,61.9 193,62.3 192.7,62.7 192.4,62.9 
		192.2,63 191.9,63 191.6,62.9 191.3,62.7 191.1,62.4 191,62 190.9,61.6 190.8,61.1 190.8,60.5 190.9,60 191,59.4 191.2,58.9 
		191.4,58.4 191.7,58 191.9,57.7 192.2,57.4 192.5,57.3 192.8,57.3 193.1,57.4 193.3,57.6 193.5,57.9 193.7,58.3 193.8,58.8 
		193.8,59.3 	"/>
	<polyline class="st4" points="190.5,61.3 190.5,60.6 190.6,60 190.7,59.4 190.8,58.8 191.1,58.3 191.3,57.8 191.6,57.3 191.9,57 
		192.3,56.8 192.6,56.7 192.9,56.7 193.2,56.8 193.5,57 193.8,57.3 193.9,57.7 194.1,58.2 194.2,58.8 194.2,59.4 194.2,60 
		194.1,60.6 193.9,61.2 193.7,61.8 193.5,62.3 193.2,62.8 192.9,63.2 192.5,63.4 192.2,63.6 191.9,63.7 191.6,63.6 191.3,63.4 
		191,63.2 190.8,62.8 190.6,62.4 190.5,61.8 190.5,61.3 	"/>
	<polyline class="st4" points="192.7,44.9 192.8,44.8 192.9,44.7 193,44.7 193,44.8 193.1,44.9 193.1,45.1 193.1,45.3 193,45.4 
		193,45.6 192.9,45.7 192.8,45.7 192.7,45.6 192.6,45.5 192.6,45.3 192.6,45.1 192.7,44.9 	"/>
	<polyline class="st4" points="191.2,45.8 191.2,45.9 191.3,46.1 191.3,46.3 191.2,46.5 191.1,46.6 191.1,46.7 190.9,46.8 
		190.9,46.7 190.8,46.6 190.8,46.5 190.8,46.3 190.8,46.1 190.9,45.9 191,45.8 191.1,45.8 191.2,45.8 	"/>
	<line class="st4" x1="202.8" y1="62.1" x2="202.9" y2="62.1"/>
	<polyline class="st4" points="198.4,71.3 198.4,71.3 198.3,71.3 198.3,71.3 198.3,71.3 198.2,71.3 198.2,71.2 198.2,71.1 
		198.2,71.1 	"/>
	<line class="st4" x1="201.8" y1="69.3" x2="198.4" y2="71.3"/>
	<polyline class="st4" points="203.3,65.3 203.3,65.9 203.2,66.5 203.1,67.2 202.9,67.7 202.7,68.3 202.4,68.7 202.1,69.1 
		201.8,69.3 	"/>
	<line class="st4" x1="203.2" y1="62.3" x2="203.3" y2="65.3"/>
	<polyline class="st4" points="203.1,62 203.1,62 203.1,62 203.2,62 203.2,62.1 203.2,62.1 203.2,62.1 203.2,62.2 203.2,62.3 	"/>
	<line class="st4" x1="202.9" y1="62.1" x2="203.1" y2="62"/>
	<line class="st4" x1="202.9" y1="63.7" x2="202.9" y2="62.1"/>
	<polyline class="st4" points="202.9,63.7 202.9,64.3 202.8,64.9 202.7,65.5 202.5,66.1 202.3,66.6 202,67.1 201.7,67.5 201.3,67.7 
			"/>
	<line class="st4" x1="198.2" y1="69.6" x2="201.3" y2="67.7"/>
	<line class="st4" x1="198.2" y1="71.1" x2="198.2" y2="69.6"/>
	<polyline class="st4" points="176.1,78.4 176.1,79 176.3,79.5 176.4,79.9 176.7,80.3 176.9,80.5 177.2,80.6 	"/>
	<line class="st4" x1="179.5" y1="75.5" x2="176.8" y2="75"/>
	<line class="st4" x1="176.8" y1="75" x2="176.2" y2="74.9"/>
	<line class="st4" x1="176.2" y1="74.9" x2="176.1" y2="75"/>
	<line class="st4" x1="180" y1="75.6" x2="179.5" y2="75.5"/>
	<line class="st4" x1="175.9" y1="75.4" x2="176.1" y2="78.4"/>
	<line class="st4" x1="179.9" y1="79.1" x2="176.1" y2="78.4"/>
	<line class="st4" x1="176.1" y1="75" x2="179.9" y2="75.7"/>
	<polyline class="st4" points="176.1,75 176,75 176,75.1 176,75.1 175.9,75.2 175.9,75.2 175.9,75.3 175.9,75.4 175.9,75.4 	"/>
	<line class="st4" x1="179.7" y1="76.1" x2="175.9" y2="75.4"/>
	<polyline class="st4" points="185.3,78.7 185.2,78.8 185.2,78.8 185.2,78.9 185.2,79 185.2,79 185.2,79.1 185.1,79.1 185.1,79.1 	
		"/>
	<line class="st4" x1="185.2" y1="77.2" x2="185.3" y2="78.7"/>
	<line class="st4" x1="182" y1="79.1" x2="185.2" y2="77.2"/>
	<polyline class="st4" points="180.2,77.1 180.2,77.6 180.4,78.1 180.5,78.6 180.8,78.9 181,79.1 181.3,79.2 181.7,79.2 182,79.1 	
		"/>
	<line class="st4" x1="180" y1="75.6" x2="180.2" y2="77.1"/>
	<line class="st4" x1="179.9" y1="75.7" x2="180" y2="75.6"/>
	<polyline class="st4" points="179.7,76.1 179.7,76 179.7,76 179.8,75.9 179.8,75.8 179.8,75.8 179.8,75.7 179.9,75.7 179.9,75.7 	
		"/>
	<line class="st4" x1="179.9" y1="79.1" x2="179.7" y2="76.1"/>
	<polyline class="st4" points="181.7,81.1 181.4,81.2 181.1,81.2 180.8,81.1 180.5,80.9 180.3,80.6 180.1,80.1 180,79.6 179.9,79.1 
			"/>
	<line class="st4" x1="185.1" y1="79.1" x2="181.7" y2="81.1"/>
	<polyline class="st4" points="101.9,65.7 102,66.2 102.1,66.7 102.3,67.2 102.5,67.5 102.8,67.7 103.1,67.8 	"/>
	<line class="st4" x1="105.3" y1="62.8" x2="102.6" y2="62.3"/>
	<line class="st4" x1="102.6" y1="62.3" x2="102.1" y2="62.2"/>
	<line class="st4" x1="102.1" y1="62.2" x2="101.9" y2="62.3"/>
	<line class="st4" x1="105.9" y1="62.8" x2="105.3" y2="62.8"/>
	<line class="st4" x1="101.7" y1="62.7" x2="101.9" y2="65.7"/>
	<line class="st4" x1="105.8" y1="66.3" x2="101.9" y2="65.7"/>
	<line class="st4" x1="101.9" y1="62.3" x2="105.7" y2="62.9"/>
	<polyline class="st4" points="101.9,62.3 101.9,62.3 101.8,62.3 101.8,62.4 101.8,62.4 101.8,62.5 101.7,62.6 101.7,62.6 
		101.7,62.7 	"/>
	<line class="st4" x1="105.6" y1="63.4" x2="101.7" y2="62.7"/>
	<polyline class="st4" points="106,64.3 106.1,64.9 106.2,65.4 106.4,65.8 106.6,66.2 106.9,66.4 107.2,66.5 	"/>
	<line class="st4" x1="105.9" y1="62.8" x2="106" y2="64.3"/>
	<line class="st4" x1="105.7" y1="62.9" x2="105.9" y2="62.8"/>
	<polyline class="st4" points="105.6,63.4 105.6,63.3 105.6,63.2 105.6,63.2 105.6,63.1 105.6,63.1 105.7,63 105.7,63 105.7,62.9 	
		"/>
	<line class="st4" x1="105.8" y1="66.3" x2="105.6" y2="63.4"/>
	<polyline class="st4" points="107.6,68.4 107.2,68.5 106.9,68.5 106.6,68.4 106.3,68.2 106.1,67.8 105.9,67.4 105.8,66.9 
		105.8,66.3 	"/>
	<line class="st4" x1="109.9" y1="67" x2="107.6" y2="68.4"/>
	<polyline class="st4" points="144.1,49.5 144.1,49.5 144.3,49.4 144.5,49.4 144.7,49.4 144.9,49.4 145,49.4 145.1,49.4 	"/>
	<line class="st4" x1="146.6" y1="47" x2="143.2" y2="49"/>
	<line class="st4" x1="172" y1="54.4" x2="170.8" y2="54.2"/>
	<line class="st4" x1="170.8" y1="54.2" x2="171" y2="54.1"/>
	<line class="st4" x1="169.9" y1="51" x2="165.9" y2="53.4"/>
	<line class="st4" x1="165.9" y1="53.4" x2="163.7" y2="53"/>
	<line class="st4" x1="163.7" y1="53" x2="163.9" y2="52.9"/>
	<line class="st4" x1="162.8" y1="49.8" x2="158.8" y2="52.1"/>
	<line class="st4" x1="158.8" y1="52.1" x2="156.6" y2="51.8"/>
	<line class="st4" x1="156.6" y1="51.8" x2="156.7" y2="51.7"/>
	<line class="st4" x1="155.7" y1="48.5" x2="151.7" y2="50.9"/>
	<line class="st4" x1="151.7" y1="50.9" x2="149.5" y2="50.5"/>
	<line class="st4" x1="149.5" y1="50.5" x2="149.6" y2="50.4"/>
	<polyline class="st4" points="145.1,49.5 144.9,49.5 144.7,49.6 144.5,49.6 144.3,49.5 144.1,49.5 144,49.4 144,49.4 144.1,49.3 
		144.3,49.2 144.4,49.2 144.7,49.2 144.9,49.2 145,49.2 145.1,49.3 145.1,49.4 145.1,49.5 	"/>
	<line class="st4" x1="152.1" y1="47.9" x2="148.1" y2="50.3"/>
	<line class="st4" x1="148.1" y1="50.3" x2="145.9" y2="49.9"/>
	<line class="st4" x1="145.9" y1="49.9" x2="146.1" y2="49.8"/>
	<line class="st4" x1="159.3" y1="49.2" x2="155.2" y2="51.5"/>
	<line class="st4" x1="155.2" y1="51.5" x2="153.1" y2="51.1"/>
	<line class="st4" x1="153.1" y1="51.1" x2="153.2" y2="51.1"/>
	<line class="st4" x1="166.4" y1="50.4" x2="162.4" y2="52.7"/>
	<line class="st4" x1="162.4" y1="52.7" x2="160.2" y2="52.4"/>
	<line class="st4" x1="160.2" y1="52.4" x2="160.3" y2="52.3"/>
	<line class="st4" x1="171.6" y1="52.7" x2="169.5" y2="54"/>
	<line class="st4" x1="169.5" y1="54" x2="167.3" y2="53.6"/>
	<line class="st4" x1="167.3" y1="53.6" x2="167.4" y2="53.5"/>
	<polyline class="st4" points="196.1,57.2 196.1,57.1 196.1,57 196.1,57 196.1,56.9 196.2,56.9 196.2,56.9 196.2,57 196.2,57 
		196.2,57.1 196.2,57.2 196.2,57.2 196.2,57.3 196.1,57.3 196.1,57.3 196.1,57.2 196.1,57.2 	"/>
	<polyline class="st4" points="196,56.3 196,56.3 196,56.2 196.1,56.1 196.1,56.1 196.1,56.1 196.2,56.1 196.2,56.2 196.2,56.2 
		196.2,56.3 196.2,56.4 196.2,56.4 196.1,56.4 196.1,56.5 196.1,56.4 196,56.4 196,56.3 	"/>
	<polyline class="st4" points="195.6,57 195.6,56.9 195.7,56.8 195.7,56.8 195.7,56.7 195.8,56.7 195.8,56.8 195.8,56.8 195.8,56.9 
		195.8,56.9 195.8,57 195.8,57.1 195.7,57.1 195.7,57.1 195.7,57.1 195.7,57 195.6,57 	"/>
	<polyline class="st4" points="195.8,56 195.8,56 195.8,56 195.8,56.1 195.8,56.2 195.7,56.2 195.7,56.3 195.7,56.3 195.6,56.3 	"/>
	<polyline class="st4" points="195.4,57.4 195.5,57.4 195.5,57.5 195.5,57.6 195.4,57.6 	"/>
	<line class="st4" x1="195.8" y1="58.4" x2="196.1" y2="58.5"/>
	<polyline class="st4" points="194.8,54.3 194.6,54.3 194.3,54.4 194.1,54.6 193.8,54.8 193.6,55.2 193.4,55.7 193.2,56.2 
		193.2,56.7 193.1,56.7 	"/>
	<polyline class="st4" points="193.6,57.1 193.6,56.7 193.7,56.2 193.9,55.7 194,55.3 194.3,54.9 194.5,54.6 194.8,54.5 195.1,54.4 
		195.3,54.4 195.6,54.6 195.8,54.8 195.8,54.8 	"/>
	<polyline class="st4" points="195.1,58.9 195,59 194.7,59.1 194.5,59.1 194.2,59.1 194.2,59 	"/>
	<polyline class="st4" points="195.2,54.7 195.1,54.7 194.8,54.8 194.6,54.9 194.3,55.2 194.1,55.6 193.9,56 193.8,56.5 193.8,56.9 
		193.7,57.3 	"/>
	<polyline class="st4" points="194.1,58.6 194.3,58.7 194.5,58.8 194.5,58.8 	"/>
	<polyline class="st4" points="195.1,57.6 195.2,58.1 195.3,58.5 195.4,58.8 195.6,59 195.8,59.1 196.1,59 196.3,58.9 196.6,58.7 
		196.8,58.4 197,58 197.2,57.5 197.3,57.1 197.3,56.6 197.3,56.1 197.2,55.7 197.1,55.4 196.9,55.1 196.7,55 196.4,54.9 196.2,55 
		195.9,55.2 195.7,55.5 195.5,55.8 195.3,56.2 195.2,56.7 195.1,57.2 195.1,57.6 	"/>
	<polyline class="st4" points="196.4,58.3 196.4,58.2 196.4,58.1 196.3,58.1 196.2,58.1 196.2,58.1 196.1,58.2 196.1,58.3 
		196.1,58.5 	"/>
	<polyline class="st4" points="196.1,58.5 195.9,58.4 195.7,58.3 195.6,58.1 195.5,57.8 195.4,57.4 195.5,57 195.5,56.6 195.7,56.2 
		195.8,55.9 196,55.7 196.3,55.6 196.5,55.5 196.7,55.6 196.8,55.8 196.9,56.1 197,56.5 197,56.9 196.9,57.3 196.8,57.7 196.6,58 
		196.4,58.3 	"/>
	<polyline class="st4" points="200.3,54.7 200.3,54.6 200.3,54.5 200.3,54.5 200.4,54.4 200.4,54.4 200.4,54.5 200.4,54.5 
		200.5,54.6 200.5,54.6 200.4,54.7 200.4,54.8 200.4,54.8 200.3,54.8 200.3,54.8 200.3,54.7 200.3,54.7 	"/>
	<polyline class="st4" points="200.2,53.9 200.2,53.8 200.3,53.7 200.3,53.7 200.3,53.6 200.4,53.6 200.4,53.6 200.4,53.7 
		200.4,53.7 200.4,53.8 200.4,53.9 200.4,53.9 200.3,54 200.3,54 200.3,54 200.2,53.9 200.2,53.9 	"/>
	<polyline class="st4" points="199.9,54.5 199.9,54.4 199.9,54.4 199.9,54.3 199.9,54.3 200,54.3 200,54.3 200,54.3 200,54.4 
		200,54.5 200,54.5 200,54.6 200,54.6 199.9,54.6 199.9,54.6 199.9,54.6 199.9,54.5 	"/>
	<polyline class="st4" points="200,53.5 200,53.5 200,53.6 200,53.6 200,53.7 200,53.8 199.9,53.8 199.9,53.8 199.9,53.8 	"/>
	<polyline class="st4" points="199.6,54.9 199.7,55 199.7,55 199.7,55.1 199.6,55.1 	"/>
	<line class="st4" x1="200" y1="55.9" x2="200.3" y2="56"/>
	<polyline class="st4" points="199,51.8 198.8,51.8 198.5,51.9 198.3,52.1 198,52.4 197.8,52.8 197.6,53.2 197.4,53.7 197.4,54.2 
		197.3,54.7 197.3,55.2 197.4,55.6 197.6,56 197.7,56.3 197.9,56.5 198.2,56.6 	"/>
	<polyline class="st4" points="199.3,56.4 199.2,56.5 198.9,56.6 198.7,56.7 198.4,56.6 198.2,56.4 198,56.1 197.9,55.7 197.8,55.3 
		197.8,54.8 197.8,54.3 197.9,53.7 198.1,53.3 198.3,52.8 198.5,52.5 198.7,52.2 199,52 199.3,51.9 199.5,51.9 199.8,52.1 200,52.3 
		200,52.3 	"/>
	<polyline class="st4" points="200.6,55.8 200.6,55.7 200.6,55.6 200.5,55.6 200.5,55.6 200.4,55.7 200.4,55.8 200.3,55.9 200.3,56 
			"/>
	<polyline class="st4" points="200.3,56 200.1,56 199.9,55.8 199.8,55.6 199.7,55.3 199.6,54.9 199.7,54.5 199.7,54.1 199.9,53.7 
		200,53.4 200.3,53.2 200.5,53.1 200.7,53.1 200.9,53.2 201,53.4 201.1,53.7 201.2,54 201.2,54.4 201.1,54.8 201,55.2 200.8,55.5 
		200.6,55.8 	"/>
	<polyline class="st4" points="199.4,52.2 199.3,52.2 199,52.3 198.8,52.5 198.5,52.7 198.3,53.1 198.2,53.5 198,54 198,54.5 
		197.9,54.9 	"/>
	<polyline class="st4" points="197.9,54.9 198,55.4 198.1,55.7 198.3,56 198.5,56.2 198.7,56.3 	"/>
	<polyline class="st4" points="199.3,55.2 199.4,55.6 199.5,56 199.6,56.3 199.8,56.5 200.1,56.6 200.3,56.6 200.6,56.4 200.8,56.2 
		201,55.9 201.2,55.5 201.4,55.1 201.5,54.6 201.5,54.1 201.5,53.7 201.4,53.3 201.3,52.9 201.1,52.6 200.9,52.5 200.6,52.5 
		200.4,52.5 200.1,52.7 199.9,53 199.7,53.3 199.5,53.7 199.4,54.2 199.3,54.7 199.3,55.2 	"/>
	<line class="st4" x1="155.1" y1="50.7" x2="158.1" y2="49"/>
	<line class="st4" x1="156.1" y1="48.6" x2="153.2" y2="50.4"/>
	<line class="st4" x1="155.1" y1="50.7" x2="155.2" y2="51.5"/>
	<line class="st4" x1="153.2" y1="50.4" x2="155.1" y2="50.7"/>
	<line class="st4" x1="153.2" y1="50.4" x2="153.2" y2="51.2"/>
	<line class="st4" x1="160.3" y1="51.6" x2="160.3" y2="52.4"/>
	<line class="st4" x1="162.2" y1="51.9" x2="162.3" y2="52.7"/>
	<line class="st4" x1="162.2" y1="51.9" x2="165.2" y2="50.2"/>
	<line class="st4" x1="163.2" y1="49.8" x2="160.3" y2="51.6"/>
	<line class="st4" x1="160.3" y1="51.6" x2="162.2" y2="51.9"/>
	<line class="st4" x1="171.7" y1="53" x2="171" y2="53.4"/>
	<line class="st4" x1="171" y1="53.4" x2="171.8" y2="53.6"/>
	<line class="st4" x1="171" y1="53.4" x2="171" y2="54.2"/>
	<line class="st4" x1="165.8" y1="52.5" x2="165.8" y2="53.3"/>
	<line class="st4" x1="163.8" y1="52.2" x2="163.9" y2="53"/>
	<line class="st4" x1="165.8" y1="52.5" x2="168.8" y2="50.8"/>
	<line class="st4" x1="166.8" y1="50.4" x2="163.8" y2="52.2"/>
	<line class="st4" x1="163.8" y1="52.2" x2="165.8" y2="52.5"/>
	<line class="st4" x1="156.7" y1="51" x2="156.7" y2="51.8"/>
	<line class="st4" x1="158.7" y1="51.3" x2="158.7" y2="52.1"/>
	<line class="st4" x1="158.7" y1="51.3" x2="161.6" y2="49.6"/>
	<line class="st4" x1="159.7" y1="49.2" x2="156.7" y2="51"/>
	<line class="st4" x1="156.7" y1="51" x2="158.7" y2="51.3"/>
	<line class="st4" x1="151.6" y1="50.1" x2="151.6" y2="50.9"/>
	<line class="st4" x1="149.6" y1="49.7" x2="149.6" y2="50.6"/>
	<line class="st4" x1="151.6" y1="50.1" x2="154.5" y2="48.3"/>
	<line class="st4" x1="152.6" y1="48" x2="149.6" y2="49.7"/>
	<line class="st4" x1="149.6" y1="49.7" x2="151.6" y2="50.1"/>
	<line class="st4" x1="149" y1="47.4" x2="146" y2="49.1"/>
	<line class="st4" x1="148" y1="49.5" x2="151" y2="47.7"/>
	<line class="st4" x1="148" y1="49.5" x2="148" y2="50.3"/>
	<line class="st4" x1="146" y1="49.1" x2="148" y2="49.5"/>
	<line class="st4" x1="146" y1="49.1" x2="146.1" y2="49.9"/>
	<line class="st4" x1="167.4" y1="52.8" x2="167.4" y2="53.6"/>
	<line class="st4" x1="170.3" y1="51.1" x2="167.4" y2="52.8"/>
	<line class="st4" x1="167.4" y1="52.8" x2="169.4" y2="53.1"/>
	<line class="st4" x1="169.4" y1="53.1" x2="171.3" y2="52"/>
	<line class="st4" x1="169.4" y1="53.1" x2="169.4" y2="54"/>
	<polyline class="st4" points="142.6,49.9 142.7,49.8 142.9,49.6 143,49.4 143.1,49.1 	"/>
	<line class="st4" x1="143.1" y1="49.1" x2="143.6" y2="47.3"/>
	<line class="st4" x1="143.1" y1="49.1" x2="142.8" y2="49.3"/>
	<polyline class="st4" points="143.6,47.3 143.7,47.1 143.8,46.9 143.9,46.7 144,46.6 	"/>
	<line class="st4" x1="143.6" y1="47.3" x2="143.3" y2="47.5"/>
	<polyline class="st4" points="141.4,50.2 141.3,50.2 141.2,50.1 141.1,50 141,49.9 141,49.8 140.9,49.7 140.9,49.6 140.9,49.5 	"/>
	<line class="st4" x1="141.5" y1="50.2" x2="141.4" y2="50.2"/>
	<polyline class="st4" points="142.8,49.3 142.7,49.6 142.6,49.8 142.4,50 142.2,50.1 142,50.2 141.7,50.2 141.5,50.2 	"/>
	<line class="st4" x1="143.3" y1="47.5" x2="142.8" y2="49.3"/>
	<polyline class="st4" points="144.5,46.6 144.3,46.6 144.1,46.6 143.9,46.7 143.7,46.8 143.6,46.9 143.4,47.1 143.3,47.3 
		143.3,47.5 	"/>
	<line class="st4" x1="140.8" y1="46" x2="140.9" y2="49.5"/>
	<polyline class="st4" points="149,37.6 149.1,37.6 149.2,37.6 149.3,37.5 149.4,37.5 149.5,37.5 149.7,37.5 149.8,37.5 149.9,37.5 
			"/>
	<line class="st4" x1="143" y1="41.2" x2="149" y2="37.6"/>
	<polyline class="st4" points="143.2,41.5 143.1,41.5 143,41.4 142.9,41.4 142.9,41.3 142.9,41.3 142.9,41.3 142.9,41.2 143,41.2 	
		"/>
	<line class="st4" x1="142.3" y1="42" x2="143.2" y2="41.5"/>
	<polyline class="st4" points="177.2,47.1 177.1,47.1 177,47.1 176.9,47.1 176.8,47.2 176.7,47.2 176.5,47.2 176.4,47.2 176.3,47.2 
			"/>
	<line class="st4" x1="183.2" y1="43.5" x2="177.2" y2="47.1"/>
	<polyline class="st4" points="183,43.2 183.1,43.2 183.2,43.2 183.3,43.3 183.3,43.3 183.3,43.4 183.3,43.4 183.3,43.5 183.2,43.5 
			"/>
	<line class="st4" x1="151.5" y1="36.6" x2="184.6" y2="42.3"/>
	<line class="st4" x1="149.9" y1="37.5" x2="151.5" y2="36.6"/>
	<polyline class="st4" points="174,55.2 174,55.3 173.9,55.4 173.9,55.5 173.8,55.6 173.7,55.6 173.7,55.7 173.5,55.7 173.4,55.7 	
		"/>
	<polyline class="st4" points="171.5,52.3 171.4,52.1 171.3,51.9 171.1,51.7 171,51.5 170.8,51.3 170.6,51.2 170.3,51.1 170.1,51 	
		"/>
	<line class="st4" x1="172" y1="54.4" x2="171.5" y2="52.3"/>
	<polyline class="st4" points="173.4,55.7 173.1,55.6 172.9,55.5 172.6,55.3 172.4,55.1 172.3,54.9 172.1,54.6 172,54.4 	"/>
	<line class="st4" x1="173.4" y1="55.7" x2="173.4" y2="55.7"/>
	<polyline class="st4" points="142.3,42 142,42.2 141.7,42.6 141.4,43 141.2,43.6 141,44.1 140.9,44.7 140.8,45.4 140.8,46 	"/>
	<line class="st4" x1="140.8" y1="46" x2="144.5" y2="46.6"/>
	<line class="st4" x1="144.5" y1="46.6" x2="170.1" y2="51"/>
	<line class="st4" x1="170.1" y1="51" x2="173.9" y2="51.7"/>
	<line class="st4" x1="184.6" y1="42.3" x2="183" y2="43.2"/>
	<line class="st4" x1="176.3" y1="47.2" x2="176.3" y2="47.2"/>
	<line class="st4" x1="176.3" y1="47.2" x2="175.5" y2="47.6"/>
	<polyline class="st4" points="173.9,51.7 173.9,51.1 174,50.4 174.1,49.8 174.3,49.2 174.5,48.7 174.8,48.3 175.1,47.9 175.5,47.6 
			"/>
	<line class="st4" x1="173.9" y1="51.7" x2="174" y2="55.2"/>
	<polyline class="st4" points="145,49.5 144.9,49.5 144.8,49.4 	"/>
	<polyline class="st4" points="144.8,49.4 144.6,49.4 144.5,49.4 144.4,49.5 144.2,49.5 144.2,49.5 	"/>
	<polyline class="st4" points="183.5,56.4 183.4,56.7 183.3,56.8 183.3,56.8 183.2,56.9 183.1,56.9 183,56.8 182.9,56.6 182.8,56.4 
		182.8,56.3 182.8,56.1 182.8,56 182.9,55.7 	"/>
	<polyline class="st4" points="182.9,55.7 183.1,55.5 183.1,55.4 183.2,55.3 183.3,55.3 183.4,55.3 183.5,55.4 183.6,55.6 
		183.6,55.7 183.7,55.8 183.7,56 183.6,56.2 183.5,56.4 	"/>
	<line class="st4" x1="184.3" y1="34.2" x2="122.7" y2="23.6"/>
	<line class="st4" x1="200.7" y1="37" x2="193.8" y2="35.8"/>
	<line class="st4" x1="107.2" y1="66.5" x2="176.1" y2="78.3"/>
	<line class="st4" x1="184.8" y1="58.9" x2="184.7" y2="58.9"/>
	<line class="st4" x1="183.5" y1="66.3" x2="183.5" y2="66.3"/>
	<line class="st4" x1="192.9" y1="56.7" x2="189.9" y2="56.2"/>
	<line class="st4" x1="188.7" y1="63.1" x2="191.7" y2="63.7"/>
	<line class="st4" x1="192.7" y1="45.7" x2="192.8" y2="45.7"/>
	<line class="st4" x1="192.9" y1="44.7" x2="192.8" y2="44.7"/>
	<line class="st4" x1="190.8" y1="46.7" x2="190.9" y2="46.8"/>
	<line class="st4" x1="191.1" y1="45.8" x2="191" y2="45.8"/>
	<g>
		<line class="st4" x1="185.8" y1="32.7" x2="185.5" y2="32.8"/>
		<g>
			<line class="st4" x1="184.3" y1="34.7" x2="184.4" y2="35.5"/>
			<g>
				<polyline class="st4" points="192.7,38.5 193,38.3 193.2,38 193.3,37.8 193.3,37.7 				"/>
				<line class="st4" x1="193.3" y1="38.3" x2="193.3" y2="37.9"/>
				<line class="st4" x1="185.2" y1="38.2" x2="185.2" y2="38.6"/>
				<line class="st4" x1="193" y1="38.3" x2="193" y2="38.2"/>
				<line class="st4" x1="185.5" y1="38.5" x2="185.5" y2="38.6"/>
				<line class="st4" x1="185.2" y1="37.8" x2="185.2" y2="38.1"/>
				<line class="st4" x1="193.3" y1="37.7" x2="193.3" y2="37.5"/>
				<line class="st4" x1="184.4" y1="35.5" x2="184.7" y2="36.8"/>
				<line class="st4" x1="193.4" y1="37.3" x2="193.6" y2="37"/>
				<line class="st4" x1="184.8" y1="37.4" x2="185" y2="37.6"/>
				<line class="st4" x1="193.7" y1="36.7" x2="193.7" y2="36.5"/>
				<line class="st4" x1="184.7" y1="36.8" x2="184.7" y2="37"/>
				<g>
					<polyline class="st4" points="190.9,31.7 191.5,31.9 191.8,32.1 					"/>
					<line class="st4" x1="191.8" y1="32.1" x2="192.2" y2="32.2"/>
					<polyline class="st4" points="192.2,32.2 192.3,32.5 192,32.8 191.5,33.1 190.8,33.4 					"/>
					<line class="st4" x1="190.8" y1="33.4" x2="190.9" y2="33.5"/>
					<polyline class="st4" points="190.8,31.5 190.8,31.5 190.8,31.5 191,31.6 191.2,31.7 					"/>
					<polyline class="st4" points="190.9,31.7 191.1,31.7 191.2,31.7 					"/>
					<line class="st4" x1="190.9" y1="31.6" x2="190.7" y2="31.5"/>
					<g>
						<polyline class="st4" points="184.4,35.5 184.5,35.7 184.7,35.9 185.1,36.1 185.5,36.3 186,36.5 186.6,36.6 						"/>
						<line class="st4" x1="190.6" y1="31.5" x2="190.7" y2="31.5"/>
						<polyline class="st4" points="186.6,36 186,35.9 185.4,35.7 185,35.5 184.6,35.3 184.4,35.1 184.3,34.8 184.3,34.7 						"/>
						<polyline class="st4" points="186.8,38 186.3,37.9 185.8,37.8 185.3,37.6 185,37.4 184.8,37.2 184.7,36.9 184.7,36.8 						
							"/>
						<polyline class="st4" points="193.7,36.5 193.7,36.6 193.6,36.8 193.3,37.1 193,37.3 192.6,37.5 192.1,37.7 191.5,37.9 
							190.9,38 190.2,38.1 189.5,38.2 188.8,38.2 188.1,38.2 187.5,38.1 186.8,38 						"/>
						<polyline class="st4" points="186.6,36.6 187.3,36.7 188,36.7 188.7,36.7 189.5,36.7 190.2,36.6 190.9,36.5 191.6,36.4 
							192.2,36.2 192.7,36 193.2,35.8 193.5,35.6 193.7,35.3 193.8,35.1 						"/>
						<polyline class="st4" points="193.9,34.3 193.9,34.5 193.8,34.7 193.5,35 193.2,35.2 192.8,35.5 192.2,35.7 191.6,35.8 
							190.9,36 190.2,36.1 189.5,36.1 188.7,36.2 188,36.2 187.3,36.1 186.6,36 						"/>
						<polyline class="st4" points="186.3,39.5 186.4,39.5 186.8,39.7 187.3,39.8 187.9,39.9 188.5,39.9 189.2,39.9 189.8,39.9 
							190.4,39.8 191,39.7 191.5,39.5 192,39.4 192.3,39.3 						"/>
						<polyline class="st4" points="185.2,38.6 185.3,38.8 185.5,39 185.8,39.3 186.1,39.4 186.6,39.6 187.2,39.7 						"/>
						<polyline class="st4" points="187.2,39.7 187.8,39.8 188.4,39.8 189.1,39.8 189.8,39.8 190.4,39.7 191.1,39.6 191.7,39.5 
							192.2,39.3 192.6,39.1 192.9,38.9 193.2,38.7 193.3,38.4 193.3,38.3 						"/>
						<polyline class="st4" points="185.5,38.6 185.7,38.7 186.1,38.9 186.6,39 187.1,39.2 						"/>
						<polyline class="st4" points="187.1,39.2 187.7,39.2 188.4,39.3 189.1,39.3 189.7,39.3 190.4,39.2 191.1,39.1 191.6,38.9 
							192.1,38.8 192.6,38.6 192.9,38.3 193,38.3 						"/>
						<polyline class="st4" points="185.2,38.1 185.2,38.1 185.3,38.3 185.5,38.5 185.8,38.7 186.2,38.9 186.7,39 187.3,39.2 
							187.9,39.2 188.6,39.3 189.2,39.3 189.9,39.2 190.6,39.1 191.2,39 191.8,38.9 192.3,38.7 192.7,38.5 						"/>
						<polyline class="st4" points="188.4,32.8 188.7,32.9 189.1,32.9 189.4,32.8 189.8,32.8 190,32.7 190.2,32.5 190.3,32.4 
							190.2,32.3 190.1,32.2 189.8,32.1 189.5,32 189.1,32 188.8,32 188.4,32.1 188.1,32.2 187.9,32.3 187.8,32.4 187.8,32.5 
							187.9,32.7 188.1,32.8 188.4,32.8 						"/>
						<polyline class="st4" points="190.2,31.6 190.3,31.6 190.4,31.6 						"/>
						<polyline class="st4" points="190.3,31.5 190.2,31.6 190.2,31.6 						"/>
						<polyline class="st4" points="187,31.8 187.8,31.6 188.6,31.5 189.5,31.5 190.3,31.5 						"/>
						<polyline class="st4" points="187.9,33.1 187.3,32.9 187.1,32.8 186.9,32.7 186.9,32.5 186.9,32.4 187.2,32.1 187.7,31.9 
							188.1,31.8 188.5,31.7 189,31.7 189.4,31.7 190.1,31.8 						"/>
						<polyline class="st4" points="188.1,32.9 187.8,32.8 187.6,32.7 187.4,32.6 187.4,32.5 187.4,32.3 187.6,32.2 187.9,32.1 
							188.2,32 188.6,31.9 189.1,31.9 189.5,31.9 189.9,31.9 190.2,32 190.5,32.1 190.6,32.2 190.6,32.4 190.6,32.5 190.4,32.7 
							190.1,32.8 189.8,32.9 189.4,32.9 189,33 188.5,33 188.1,32.9 						"/>
						<polyline class="st4" points="186.2,32.6 186.3,32.6 186.4,32.6 						"/>
						<polyline class="st4" points="186.4,32.6 186.3,32.5 186.2,32.4 						"/>
						<polyline class="st4" points="187.5,33.3 187,33.2 186.6,33.1 186.3,32.9 186.2,32.6 						"/>
						<line class="st4" x1="187.5" y1="33.3" x2="188.2" y2="33.4"/>
						<line class="st4" x1="189.9" y1="33.4" x2="190.4" y2="33.1"/>
						<line class="st4" x1="190.4" y1="33.1" x2="190.6" y2="33.2"/>
						<polyline class="st4" points="190.6,33.2 191,33.1 191.3,32.9 191.5,32.8 191.6,32.8 191.7,32.7 191.9,32.4 191.8,32.1 						
							"/>
						<line class="st4" x1="190.9" y1="31.7" x2="190.4" y2="31.6"/>
						<polyline class="st4" points="190.1,31.8 190.6,31.9 191,32.1 191.1,32.2 191.1,32.4 191,32.5 190.8,32.7 190.5,32.9 
							190.1,33 189.6,33.1 189.2,33.1 188.5,33.1 187.9,33.1 						"/>
						<line class="st4" x1="186.1" y1="32.3" x2="186.2" y2="32.4"/>
						<polyline class="st4" points="186.2,32.4 186.4,32.2 186.5,32.1 186.6,32 186.7,31.9 187,31.8 						"/>
						<line class="st4" x1="187" y1="31.8" x2="186.8" y2="31.8"/>
						<polyline class="st4" points="186.8,31.8 187.6,31.6 188.6,31.5 189.6,31.4 190.5,31.5 						"/>
						<line class="st4" x1="190.5" y1="31.5" x2="190.6" y2="31.5"/>
						<line class="st4" x1="190.7" y1="31.5" x2="190.8" y2="31.5"/>
						<polyline class="st4" points="187.3,33.5 186.7,33.4 186.3,33.2 185.9,33 185.8,32.7 						"/>
						<line class="st4" x1="185.5" y1="32.8" x2="186.1" y2="32.3"/>
						<polyline class="st4" points="185,37.6 185,37.6 185.2,37.8 185.6,38 186,38.2 186.5,38.3 187.1,38.5 187.7,38.5 188.4,38.6 
							189.1,38.6 189.8,38.5 190.5,38.5 191.1,38.3 191.7,38.2 192.2,38 192.7,37.8 193.1,37.6 193.3,37.4 193.4,37.3 						"/>
						<polyline class="st4" points="193.7,36.7 193.7,36.8 193.6,37.1 193.3,37.3 193,37.5 192.6,37.7 192.1,37.9 191.5,38.1 
							190.9,38.2 190.2,38.3 189.5,38.4 188.8,38.4 188.1,38.4 187.5,38.3 186.8,38.2 						"/>
						<polyline class="st4" points="186.8,38.2 186.3,38.1 185.8,38 185.4,37.8 185,37.6 184.8,37.4 184.7,37.1 184.7,37 						"/>
						<line class="st4" x1="190.9" y1="33.5" x2="189.7" y2="33.5"/>
						<line class="st4" x1="189.7" y1="33.5" x2="189.9" y2="33.4"/>
						<polyline class="st4" points="189.9,33.4 189.1,33.4 188.2,33.4 						"/>
						<line class="st4" x1="188.2" y1="33.4" x2="188.1" y2="33.6"/>
						<line class="st4" x1="188.1" y1="33.6" x2="187.3" y2="33.5"/>
						<polyline class="st4" points="190.7,31.5 190.6,31.5 190.5,31.5 						"/>
						<polyline class="st4" points="190.5,31.5 190.2,31.5 189.5,31.4 188.9,31.4 188.2,31.5 187.2,31.7 186.5,31.9 186.1,32 
							185.7,32.3 185.3,32.6 184.9,33 184.6,33.4 184.3,34 184.3,34.7 						"/>
					</g>
					<line class="st4" x1="193.7" y1="36.5" x2="193.8" y2="35.1"/>
					<line class="st4" x1="193.8" y1="35.1" x2="193.9" y2="34.3"/>
					<polyline class="st4" points="193.9,34.3 193.9,33.9 193.7,33.5 193.5,33.1 193.2,32.7 192.7,32.3 192.1,31.9 191.5,31.7 
						190.9,31.6 					"/>
				</g>
			</g>
		</g>
	</g>
	<line class="st4" x1="203.1" y1="62" x2="202.8" y2="62"/>
	<line class="st4" x1="195.9" y1="70.9" x2="198.3" y2="71.3"/>
	<line class="st4" x1="177.2" y1="80.6" x2="181.1" y2="81.2"/>
	<line class="st4" x1="103.1" y1="67.8" x2="106.9" y2="68.5"/>
	<line class="st4" x1="196.2" y1="56.9" x2="195.8" y2="56.9"/>
	<line class="st4" x1="195.4" y1="57.2" x2="196.1" y2="57.3"/>
	<line class="st4" x1="196.1" y1="56.1" x2="195.8" y2="56"/>
	<line class="st4" x1="195.6" y1="56.4" x2="196.1" y2="56.5"/>
	<line class="st4" x1="196.3" y1="58.1" x2="195.5" y2="57.9"/>
	<line class="st4" x1="195.8" y1="56.7" x2="195.5" y2="56.7"/>
	<line class="st4" x1="195.4" y1="57" x2="195.7" y2="57.1"/>
	<line class="st4" x1="195.6" y1="56.3" x2="195.7" y2="56.3"/>
	<line class="st4" x1="194.2" y1="59.1" x2="194.4" y2="59.1"/>
	<line class="st4" x1="195.2" y1="54.4" x2="194.8" y2="54.3"/>
	<line class="st4" x1="196.6" y1="54.9" x2="195.2" y2="54.7"/>
	<line class="st4" x1="194.5" y1="58.8" x2="195.8" y2="59.1"/>
	<line class="st4" x1="200.4" y1="54.4" x2="200" y2="54.4"/>
	<line class="st4" x1="199.6" y1="54.7" x2="200.3" y2="54.8"/>
	<line class="st4" x1="200.4" y1="53.6" x2="200" y2="53.6"/>
	<line class="st4" x1="199.8" y1="53.9" x2="200.3" y2="54"/>
	<line class="st4" x1="200.5" y1="55.6" x2="199.7" y2="55.5"/>
	<line class="st4" x1="200" y1="54.3" x2="199.7" y2="54.2"/>
	<line class="st4" x1="199.6" y1="54.6" x2="199.9" y2="54.6"/>
	<line class="st4" x1="199.8" y1="53.8" x2="199.9" y2="53.8"/>
	<line class="st4" x1="198.2" y1="56.6" x2="198.6" y2="56.7"/>
	<line class="st4" x1="199.5" y1="51.9" x2="199" y2="51.8"/>
	<line class="st4" x1="200.8" y1="52.5" x2="199.4" y2="52.2"/>
	<line class="st4" x1="198.7" y1="56.3" x2="200.1" y2="56.6"/>
	<line class="st4" x1="142.9" y1="41.3" x2="142.9" y2="41.5"/>
	<line class="st4" x1="142.2" y1="50.1" x2="142.6" y2="49.9"/>
	<line class="st4" x1="183.3" y1="43.4" x2="183.3" y2="43.4"/>
	<line class="st4" x1="173.7" y1="55.6" x2="174" y2="55.5"/>
	<line class="st4" x1="183.2" y1="54.9" x2="183" y2="54.9"/>
	<line class="st4" x1="182.6" y1="57.1" x2="182.8" y2="57.1"/>
	<polyline class="st4" points="182.8,57.1 183,57.1 183.2,57 183.3,56.9 183.5,56.7 183.5,56.6 183.6,56.4 183.7,56.1 	"/>
	<polyline class="st4" points="183.7,56.1 183.7,55.8 183.7,55.7 183.7,55.5 183.6,55.3 183.5,55.1 183.4,55 183.2,54.9 183.2,54.9 
			"/>
</g>
<g>
	<path d="M211.7,61.1h2.5c1.3,0,2.2,0.7,2.2,2c0,1.3-0.9,2-2.3,2h-1.6v2.8h-0.9v-6.8H211.7z M212.6,64.3h1.6c0.9,0,1.4-0.4,1.4-1.2
		s-0.6-1.2-1.3-1.2h-1.6L212.6,64.3L212.6,64.3z"/>
	<path d="M217.5,64.2c0-0.7,0-1.1,0-1.3h0.8c0,0.1,0,0.5,0,1c0.3-0.7,0.8-1.1,1.6-1.1v0.8c-1,0-1.6,0.6-1.6,1.8v2.4h-0.8V64.2z"/>
	<path d="M220.8,60.7h0.8v1.1h-0.8V60.7z M220.8,62.9h0.8v4.9h-0.8V62.9z"/>
	<path d="M223.4,62.9c0.7,2,1.1,3.5,1.3,4.1l0,0c0.1-0.5,0.6-2,1.4-4.1h0.9l-1.8,4.9h-0.9l-1.7-4.9
		C222.6,62.9,223.4,62.9,223.4,62.9z"/>
	<path d="M231.3,66.7c0,0.4,0,0.9,0.1,1.1h-0.8c0-0.1-0.1-0.3-0.1-0.6c-0.2,0.3-0.6,0.8-1.5,0.8c-1.2,0-1.6-0.8-1.6-1.5
		c0-1.1,0.9-1.6,2.3-1.6c0.3,0,0.7,0,0.8,0v-0.4c0-0.4-0.1-1-1.1-1c-0.8,0-1,0.4-1,0.8h-0.8c0.1-0.7,0.5-1.5,1.9-1.4
		c1.2,0,1.9,0.5,1.9,1.6L231.3,66.7L231.3,66.7z M230.5,65.4c-0.2,0-0.5,0-0.8,0c-1,0-1.5,0.3-1.5,1c0,0.5,0.3,0.9,1,0.9
		c1.2,0,1.3-0.8,1.3-1.7V65.4z"/>
	<path d="M232.1,62.9h0.8v-1.4h0.8v1.4h1.1v0.7h-1.1v2.9c0,0.5,0.1,0.7,0.6,0.7c0.1,0,0.3,0,0.4,0v0.6c-0.2,0.1-0.5,0.1-0.7,0.1
		c-0.8,0-1.1-0.4-1.1-1.2v-3.1h-0.8V62.9z"/>
	<path d="M236.2,65.5c0,1,0.5,1.7,1.3,1.7s1-0.4,1.2-0.8h0.9c-0.2,0.6-0.7,1.5-2.1,1.5c-1.5,0-2.2-1.2-2.2-2.5
		c0-1.5,0.7-2.6,2.2-2.6c1.6,0,2.1,1.3,2.1,2.3c0,0.1,0,0.3,0,0.4H236.2z M238.8,64.9c0-0.8-0.4-1.5-1.3-1.5c-0.9,0-1.2,0.6-1.3,1.5
		H238.8z"/>
	<path d="M243.3,61.1h2.5c1.3,0,2.2,0.7,2.2,2c0,1.3-0.9,2-2.3,2h-1.6v2.8h-0.9v-6.8H243.3z M244.2,64.3h1.6c0.9,0,1.4-0.4,1.4-1.2
		s-0.6-1.2-1.3-1.2h-1.6L244.2,64.3L244.2,64.3z"/>
	<path d="M249.1,64.2c0-0.7,0-1.1,0-1.3h0.8c0,0.1,0,0.5,0,1c0.3-0.7,0.8-1.1,1.6-1.1v0.8c-1,0-1.6,0.6-1.6,1.8v2.4h-0.8V64.2z"/>
	<path d="M256.6,65.3c0,1.4-0.8,2.6-2.3,2.6c-1.4,0-2.2-1.1-2.2-2.6c0-1.4,0.8-2.6,2.3-2.6C255.7,62.8,256.6,63.8,256.6,65.3z
		 M252.9,65.3c0,1.1,0.5,1.9,1.4,1.9s1.4-0.7,1.4-1.9c0-1.1-0.5-1.9-1.4-1.9C253.4,63.5,252.9,64.2,252.9,65.3z"/>
	<path d="M257.1,62.9h0.8v-1.4h0.8v1.4h1.1v0.7h-1.1v2.9c0,0.5,0.1,0.7,0.6,0.7c0.1,0,0.3,0,0.4,0v0.6c-0.2,0.1-0.5,0.1-0.7,0.1
		c-0.8,0-1.1-0.4-1.1-1.2v-3.1h-0.8L257.1,62.9L257.1,62.9z"/>
	<path d="M264.9,65.3c0,1.4-0.8,2.6-2.3,2.6c-1.4,0-2.2-1.1-2.2-2.6c0-1.4,0.8-2.6,2.3-2.6C264,62.8,264.9,63.8,264.9,65.3z
		 M261.2,65.3c0,1.1,0.5,1.9,1.4,1.9s1.4-0.7,1.4-1.9c0-1.1-0.5-1.9-1.4-1.9C261.7,63.5,261.2,64.2,261.2,65.3z"/>
	<path d="M269.9,66.3c-0.2,0.8-0.8,1.6-2,1.6c-1.3,0-2.2-1-2.2-2.5c0-1.4,0.8-2.6,2.2-2.6c1.4,0,1.9,1,2,1.6h-0.8
		c-0.1-0.5-0.4-0.9-1.1-0.9c-0.9,0-1.4,0.7-1.4,1.9c0,1.1,0.5,1.9,1.3,1.9c0.6,0,1-0.3,1.2-0.9L269.9,66.3L269.9,66.3z"/>
	<path d="M275.2,65.3c0,1.4-0.8,2.6-2.3,2.6c-1.4,0-2.2-1.1-2.2-2.6c0-1.4,0.8-2.6,2.3-2.6C274.3,62.8,275.2,63.8,275.2,65.3z
		 M271.5,65.3c0,1.1,0.5,1.9,1.4,1.9s1.4-0.7,1.4-1.9c0-1.1-0.5-1.9-1.4-1.9C272,63.5,271.5,64.2,271.5,65.3z"/>
	<path d="M276.3,67.8v-7.1h0.8v7.1H276.3z"/>
</g>
</svg>
