<?xml version="1.0" encoding="utf-8"?>
<!-- Generator: Adobe Illustrator 24.0.1, SVG Export Plug-In . SVG Version: 6.00 Build 0)  -->
<svg version="1.1" id="图层_1" xmlns="http://www.w3.org/2000/svg" xmlns:xlink="http://www.w3.org/1999/xlink" x="0px" y="0px"
	 viewBox="0 0 351 86.9" style="enable-background:new 0 0 351 86.9;" xml:space="preserve">
<style type="text/css">
	.st0{fill:none;stroke:#FFFFFF;stroke-width:0.5;stroke-linecap:round;stroke-linejoin:round;}
	.st1{fill:#FFFFFF;}
	.st2{fill:none;stroke:#FFFFFF;stroke-width:0.25;stroke-miterlimit:10;}
	.st3{fill:none;stroke:#FFFFFF;stroke-width:0.25;stroke-linecap:round;stroke-linejoin:round;}
	.st4{fill:#595757;stroke:#FFFFFF;stroke-miterlimit:10;}
</style>
<title>456</title>
<line class="st0" x1="47.8" y1="52.7" x2="93.5" y2="52.7"/>
<line class="st0" x1="210.6" y1="52.7" x2="267.6" y2="52.7"/>
<path class="st1" d="M62.2,46.1L60.4,43h-1.3v3.1h-0.9v-7.3h2.3c1.5,0,2.6,0.5,2.6,2.1c0,1-0.7,1.9-1.7,2.1l1.9,3.2L62.2,46.1z
	 M59.1,42.2h1.2c1.1,0,1.8-0.5,1.8-1.4s-0.6-1.3-1.8-1.3h-1.2V42.2z"/>
<path class="st1" d="M63.8,45.1l0.5-0.6c0.5,0.6,1.2,0.9,2,0.9c1,0,1.5-0.5,1.5-1.2s-0.5-1-1.2-1.3l-1.1-0.5
	c-1.1-0.2-1.7-1.2-1.5-2.3c0.2-1.1,1.2-1.7,2.3-1.5c0,0,0,0,0.1,0l0,0c0.8,0,1.6,0.3,2.2,0.9L68,40.1c-0.5-0.4-1.1-0.7-1.7-0.7
	c-0.8,0-1.4,0.4-1.4,1.1s0.6,1,1.2,1.2l1,0.4c0.9,0.3,1.5,1.1,1.5,2c-0.1,1.2-1.1,2.2-2.4,2.1l0,0h-0.1
	C65.2,46.2,64.3,45.8,63.8,45.1z"/>
<path class="st1" d="M74.4,44h-1v2h-0.9v-2h-3.1v-0.6l3-4.7h1v4.6h1V44z M72.6,43.3v-2.2c0-0.4,0-0.9,0.1-1.3l0,0
	c-0.2,0.4-0.4,0.7-0.6,1.1l-1.7,2.4H72.6z"/>
<path class="st1" d="M75.3,44.2c0-0.9,0.5-1.6,1.3-2l0,0c-0.6-0.4-1-1-1-1.7c0-1,0.9-1.9,1.9-1.9l0,0h0.1c1-0.1,1.9,0.7,2,1.7v0.2
	c0,0.7-0.4,1.4-1,1.8l0,0c0.7,0.4,1.2,1.1,1.2,1.9c0,1.1-0.9,1.9-2.3,1.9c-1,0.1-2-0.6-2.2-1.6C75.3,44.4,75.2,44.3,75.3,44.2z
	 M79.1,44.3c0-1-0.9-1.3-1.9-1.8c-0.6,0.4-1,1-1,1.7c0,0.7,0.6,1.3,1.3,1.3h0.2c0.7,0.1,1.3-0.4,1.4-1.1l0,0L79.1,44.3z M78.9,40.6
	c0-0.7-0.5-1.3-1.2-1.3l0,0h-0.1c-0.6,0-1.1,0.5-1.2,1.1v0.1c0,0.9,0.8,1.3,1.6,1.6C78.5,41.7,78.8,41.2,78.9,40.6z"/>
<path class="st1" d="M80.5,45.2l0.5-0.6c0.5,0.5,1.1,0.8,1.8,0.8c0.9,0,1.6-0.7,1.6-1.6c0,0,0,0,0,0v-0.1c0.1-0.9-0.5-1.6-1.4-1.7
	l0,0h-0.1c-0.4,0-0.9,0.1-1.2,0.4l-0.5-0.3l0.2-3.4H85v0.8h-2.8L82,41.6c0.3-0.2,0.7-0.3,1.1-0.3c1.1-0.1,2.1,0.8,2.2,1.9v0.4
	c0,1.3-1,2.4-2.3,2.5h-0.1C82,46.2,81.1,45.8,80.5,45.2z"/>
<g>
	<path class="st2" d="M0.1,70.2v-3.8c0-0.1,0-0.1,0.1-0.1l0,0c0.1,0,0.1,0,0.1,0.1v3.8C0.3,70.3,0.3,70.3,0.1,70.2L0.1,70.2
		L0.1,70.2z"/>
	<path class="st2" d="M0.4,66.2"/>
	<path class="st2" d="M0.2,66.4"/>
	<path class="st2" d="M0.2,66.8c-0.1,0-0.1,0-0.1-0.1V51.9l0,0c0-0.1,0-0.1,0.1-0.1l0,0c0.1,0,0.1,0,0.1,0.1L0.2,66.8
		C0.3,66.7,0.3,66.9,0.2,66.8z"/>
	<g>
		<path class="st2" d="M10.8,58.2v-6.3c0-0.1,0-0.1,0.1-0.1l0,0c0.1,0,0.1,0,0.1,0.1v6.3c0,0.1,0,0.1-0.1,0.1l0,0
			C10.8,58.3,10.8,58.3,10.8,58.2z"/>
		<path class="st2" d="M11,70.2"/>
		<path class="st2" d="M10.8,70.3V58c0-0.1,0-0.1,0.1-0.1l0,0c0.1,0,0.1,0,0.1,0.1v12.3"/>
		<path class="st2" d="M9.1,70.5"/>
		<path class="st2" d="M0.1,51.8c0.1-0.6,0.7-1.1,1.3-1c0,0,0,0,0,0h5.7V51H1.4c0,0-1.1,0.1-1.1,0.9H0.1C0.1,51.9,0.1,51.9,0.1,51.8
			z"/>
		<path class="st2" d="M9.7,51H4v-0.2h5.7c0,0,0.1,0,0.1,0c0.6,0,1.2,0.5,1.2,1.1v0h-0.2C10.8,51.1,9.7,51,9.7,51z"/>
		<rect x="0.2" y="66" class="st2" width="10.7" height="0.2"/>
		<rect x="0.2" y="62.9" class="st2" width="10.7" height="0.2"/>
		<rect x="0.2" y="70.2" class="st2" width="10.8" height="0.2"/>
		<rect x="10.9" y="60.7" class="st2" width="2.3" height="0.2"/>
		<rect x="10.9" y="52.3" class="st2" width="0.3" height="0.2"/>
		<rect x="10.4" y="32.6" class="st2" width="12.4" height="0.2"/>
		<rect x="10.4" y="27.3" class="st2" width="12.4" height="0.2"/>
		<path class="st2" d="M11.3,57.7c-0.2-0.5-0.2-1.1-0.2-1.6c0-4-0.1-14.9-0.7-17.8c-0.1-0.4-0.1-0.7-0.1-1.1l0.1-6.2V18.4
			c0-1.2,0.3-2.3,0.9-3.3c1.2-1.8,3.1-3,5.3-3.2c1.5-0.1,3,0.4,4.1,1.4c1.3,1.1,2,2.9,2.1,5.3l0.1,12.5V37c0,0.4,0,0.7-0.1,1.1
			c-0.2,1-1.1,5.8-0.8,8.6v9.4c0.1,1-0.2,2-0.7,2.9c-1,1.6-2.7,2.6-4.6,2.8c-0.3,0.1-0.5,0.1-0.8,0.1C14.7,61.9,12.4,61.4,11.3,57.7
			z M22.6,18.6c0.1-2-0.7-3.9-2.1-5.2c-1.1-0.9-2.5-1.4-3.9-1.3c-2.1,0.2-4,1.4-5.1,3.2c-0.6,0.9-0.9,2-0.9,3.1V31l-0.1,6.2
			c0,0.4,0,0.7,0.1,1.1c0.7,3.4,0.7,17.7,0.7,17.8c0,0.5,0,1.1,0.2,1.6c1.5,4.8,5,3.9,5.2,3.9c1.8-0.3,3.4-1.3,4.4-2.8
			c0.5-0.8,0.8-1.7,0.7-2.7v-9.4c-0.3-2.7,0.6-7.6,0.8-8.6c0.1-0.4,0.1-0.7,0.1-1.1v-5.9L22.6,18.6z"/>
		
			<rect x="21.9" y="15.8" transform="matrix(0.7473 -0.6644 0.6644 0.7473 -4.1439 20.9884)" class="st2" width="7.2" height="0.2"/>
		
			<rect x="10.4" y="8.9" transform="matrix(0.6999 -0.7142 0.7142 0.6999 -1.2304 15.0853)" class="st2" width="13.9" height="0.2"/>
		<path class="st2" d="M35.4,39c-0.1,0-6.5-0.2-6.7-6.7c0,0,0.2-1.5,0.4-2.4c0.2-0.6,0.2-1.3,0.2-1.9v-7.9c0-0.1,0.5-6.4-2.4-7.5
			c-0.1,0-4.8-1.5-5.2-5.9c-0.2-2.6,1.4-5.1,3.8-6.1c2.3-1,4.9-0.5,6.8,1.1c0,0,6.1,3.5,7.4,7.3c0.2,0.3,2,2.6,2.1,11.6v5.2
			c0,1.3,0.2,2.6,0.5,3.9c0.4,1.3,0.8,3.8-0.4,5.6c0,0.1-2.1,3.8-5.9,3.8C35.8,39.1,35.6,39.1,35.4,39z M25.6,0.9
			c-2.3,1-3.8,3.4-3.6,5.9c0.4,4.3,4.9,5.7,5,5.7c3.1,1.1,2.6,7.4,2.6,7.7v7.9c0,0.6,0,1.3-0.2,1.9c-0.2,0.9-0.4,2.4-0.4,2.4l0,0
			c0.2,6.3,6.2,6.5,6.5,6.5c4,0.3,6.3-3.7,6.3-3.7c1.1-1.7,0.7-4.1,0.4-5.4c-0.3-1.3-0.5-2.6-0.5-3.9v-5.2
			c-0.1-9.2-2.1-11.4-2.1-11.4l0,0C38.3,5.5,32.3,2,32.2,2c-1.1-1-2.6-1.6-4.1-1.6C27.3,0.4,26.4,0.6,25.6,0.9z"/>
		<rect x="28.9" y="33.3" class="st2" width="0.2" height="13.1"/>
		<rect x="42.5" y="33.3" class="st2" width="0.2" height="13.5"/>
		<path class="st2" d="M28.7,85.2V47.5c0.4-5.7,6.5-6.8,6.6-6.8c6,0.1,7.4,6.1,7.4,6.2v38.3h-0.2V46.9c0,0-1.4-5.9-7.2-6
			c0,0-6,1.1-6.4,6.6v37.7H28.7z"/>
		<rect x="28.8" y="64.2" class="st2" width="13.9" height="0.2"/>
		<rect x="28.8" y="70" class="st2" width="13.9" height="0.2"/>
		<path class="st2" d="M26.5,85.1H45v1.6H26.5V85.1z M44.8,85.3H26.7v1.2h18.1V85.3z"/>
		<polygon class="st2" points="41.3,80.1 42.6,80.1 42.6,80.3 41.5,80.3 41.5,85.2 41.3,85.2 		"/>
		<polygon class="st2" points="43,80 42.7,80 42.7,79.8 43.2,79.8 43.2,85.1 43,85.1 		"/>
		<polygon class="st2" points="43.1,84.7 43.7,84.7 43.7,80.7 43.1,80.7 43.1,80.5 43.9,80.5 43.9,84.9 43.1,84.9 		"/>
	</g>
</g>
<path class="st1" d="M220.2,42.2h4.2v0.7h-3.3v2.4h2.8V46h-2.8v2.8h3.4v0.7h-4.3L220.2,42.2z"/>
<path class="st1" d="M225.9,47.9v-3.1h-0.8v-0.6h0.9l0.1-1.5h0.7v1.5h1.5v0.7h-1.5V48c0,0.7,0.2,1.1,0.9,1.1c0.2,0,0.4-0.1,0.6-0.1
	l0.2,0.6c-0.3,0.1-0.7,0.2-1,0.2C226.2,49.7,225.9,49,225.9,47.9z"/>
<path class="st1" d="M229.4,41.6h0.8v3.3c0.5-0.5,1.1-0.9,1.8-0.9c1.1,0,1.6,0.7,1.6,2.1v3.4h-0.8v-3.3c0-1-0.3-1.5-1.1-1.5
	c-0.6,0.1-1.2,0.4-1.5,0.9v4h-0.8V41.6z"/>
<path class="st1" d="M235,46.8c-0.1-1.4,0.9-2.7,2.3-2.8h0.1c1.4,0,2.1,1,2.1,2.5V47h-3.7c-0.1,1,0.7,1.9,1.7,2h0.1
	c0.5,0,1-0.2,1.4-0.4l0.3,0.5c-0.5,0.4-1.2,0.6-1.8,0.5c-1.4,0-2.6-1.1-2.6-2.5C234.9,47,235,46.9,235,46.8z M238.8,46.4
	c0-1.2-0.5-1.8-1.4-1.8c-0.9,0.1-1.6,0.9-1.6,1.8H238.8z"/>
<path class="st1" d="M240.9,44.1h0.7l0.1,1l0,0c0.3-0.6,0.8-1,1.5-1.1c0.2,0,0.4,0,0.6,0.1l-0.2,0.7c-0.2-0.1-0.3-0.1-0.5-0.1
	c-0.5,0-1,0.3-1.4,1.3v3.5h-0.8L240.9,44.1z"/>
<path class="st1" d="M244.7,44.1h0.7l0.1,0.8l0,0c0.5-0.5,1.1-0.9,1.8-0.9c1.1,0,1.6,0.7,1.6,2.1v3.4h-0.8v-3.3c0-1-0.3-1.5-1.1-1.5
	c-0.6,0.1-1.2,0.4-1.5,0.9v4h-0.8V44.1z"/>
<path class="st1" d="M250.3,46.8c-0.1-1.4,0.9-2.7,2.3-2.8h0.1c1.4,0,2.1,1,2.1,2.5V47h-3.7c-0.1,1,0.7,1.9,1.7,2h0.1
	c0.5,0,1-0.2,1.4-0.4l0.3,0.5c-0.5,0.4-1.2,0.6-1.8,0.5c-1.4,0-2.6-1.1-2.6-2.5C250.2,47,250.3,46.9,250.3,46.8z M254.2,46.4
	c0-1.2-0.5-1.8-1.4-1.8c-0.9,0.1-1.6,0.9-1.6,1.8H254.2z"/>
<path class="st1" d="M256.3,47.9v-3.1h-0.8v-0.6h0.9l0.1-1.5h0.7v1.5h1.5v0.7h-1.5V48c0,0.7,0.2,1.1,0.8,1.1c0.2,0,0.4-0.1,0.6-0.1
	l0.2,0.6c-0.3,0.1-0.7,0.2-1,0.2C256.6,49.7,256.3,49,256.3,47.9z"/>
<g>
	<path class="st1" d="M306.9,75c-0.3,0-0.5-0.1-0.7-0.2l-24.4-16.8c-0.1-0.1-0.1-0.2,0-0.3c0,0,0.1-0.1,0.1-0.1l40.9-15.3
		c0.6-0.2,1.3-0.2,2,0l26.1,9.3c0.1,0,0.1,0.1,0.1,0.2c0,0,0,0.1-0.1,0.1l-43.4,22.9C307.3,74.9,307.1,75,306.9,75z M282.3,57.8
		l24.1,16.6c0.3,0.2,0.6,0.2,0.9,0.1l43-22.7l-25.8-9.1c-0.6-0.2-1.2-0.2-1.7,0L282.3,57.8z"/>
	<path class="st1" d="M306.1,76.5c-0.3,0-0.7-0.1-1-0.2l-22-14.8c-1.4-0.7-2-2.3-1.4-3.8c0-0.1,0.1-0.1,0.2-0.1
		c0.1,0,0.1,0.1,0.1,0.2l0,0c-0.5,1.3,0.1,2.7,1.3,3.3l22,14.8c0.9,0.3,2,0.1,2.7-0.6l39.6-20.7c0.8-0.4,2.8-1.6,3.1-2.5
		c0-0.1,0-0.2,0-0.3c-0.1-0.1,0-0.2,0.1-0.3c0.1-0.1,0.2,0,0.2,0.1c0.1,0.2,0.1,0.4,0.1,0.6c-0.3,1.2-3.1,2.7-3.3,2.7l-39.5,20.7
		C307.6,76.2,306.9,76.5,306.1,76.5z"/>
	<path class="st1" d="M281.7,60.1c-0.1,0-0.1,0-0.2,0c-0.5-0.2-1.1-1-1.6-2.4l-11.5-33.4c-0.2-0.5-0.1-1,0.1-1.4
		c0.5-0.5,1.2-0.8,2-0.7l40.7-7.1c0.2-0.1,0.5-0.1,0.7,0c0.5,0.2,0.8,0.8,0.9,1.8l9.6,25.6c0,0.1,0,0.2-0.1,0.2
		c-0.1,0-0.2,0-0.2-0.1c0,0,0,0,0,0l0,0l0,0l-9.6-25.6c-0.2-1.1-0.5-1.4-0.7-1.6c-0.1-0.1-0.3-0.1-0.4,0c0,0,0,0-0.1,0l-40.7,7.1
		c-0.9,0-1.4,0.2-1.7,0.5c-0.2,0.3-0.2,0.7-0.1,1l11.5,33.4c0.6,1.7,1.1,2.1,1.4,2.1c0.1,0,0.1,0,0.2,0c0.1-0.1,0.2,0,0.3,0
		c0,0,0,0,0,0l0,0l0,0c0.1,0.1,0,0.2,0,0.3C281.9,60,281.8,60.1,281.7,60.1z"/>
	<path class="st1" d="M281.7,55.1C281.7,55.1,281.6,55.1,281.7,55.1c-0.1,0-0.2-0.1-0.2-0.1l-9.7-28.4c0,0,0-0.1,0-0.1
		c0,0,0.1-0.1,0.1-0.1l40.1-8.1c0.1,0,0.2,0,0.2,0.1l8.2,22.9c0,0,0,0.1,0,0.1c0,0-0.1,0.1-0.1,0.1L281.7,55.1
		C281.7,55.1,281.7,55.1,281.7,55.1z M272.2,26.7l9.6,28l38.3-13.5L312,18.6L272.2,26.7z"/>
	<path class="st1" d="M322,65.9c-0.2,0-0.3,0-0.5-0.1l-6.8-3.9c0,0-0.1,0-0.1-0.1c-0.1-0.2-0.1-0.4-0.1-0.6c0.1-0.2,0.3-0.4,0.5-0.6
		l9.7-4.3c0.6-0.4,1.4-0.6,2.1-0.5c0,0,0,0,0.1,0l5.1,2.3c1.1,0.5,1.6,1,1.6,1.4c0,0.2-0.1,0.4-0.3,0.5l-10.2,5.5
		C322.8,65.8,322.4,65.9,322,65.9z M321.6,65.5c0.5,0.1,1,0,1.4-0.3l10.2-5.5c0,0,0.1-0.1,0.1-0.1c0-0.1-0.1-0.4-1.4-1.1l-5.1-2.3
		c-0.7-0.1-1.3,0.1-1.8,0.5c0,0,0,0-0.1,0l-9.7,4.3c-0.1,0.1-0.2,0.2-0.3,0.3c0,0.1,0,0.2,0,0.3L321.6,65.5L321.6,65.5z"/>
	<path class="st1" d="M300.8,66.3c-0.3,0-0.5,0-0.8-0.1c0,0,0,0,0,0l-9.6-6.8c-0.3-0.2-0.4-0.7-0.2-1c0.1-0.1,0.2-0.2,0.3-0.3
		l35.3-13.8c0.2-0.1,0.4-0.1,0.5,0l11.3,4.2c0.5,0.2,0.8,0.5,0.9,0.8c0,0.2,0,0.3-0.1,0.5c0,0,0,0-0.1,0.1l-36.8,16.5
		C301.4,66.2,301.1,66.3,300.8,66.3z M300.1,65.8c0.5,0.1,0.9,0.1,1.4,0l36.7-16.4c0,0,0-0.1,0-0.1c0-0.1-0.2-0.3-0.7-0.5l-11.3-4.2
		c-0.1,0-0.2,0-0.3,0l-35.3,13.8c-0.2,0.1-0.3,0.3-0.2,0.5c0,0.1,0.1,0.1,0.1,0.2L300.1,65.8z"/>
	<path class="st1" d="M292.2,20.8c-0.3,0-0.5-0.2-0.5-0.5s0.2-0.5,0.5-0.5c0.3,0,0.5,0.2,0.5,0.5C292.7,20.6,292.4,20.8,292.2,20.8
		L292.2,20.8z M292.2,20.2c-0.1,0-0.1,0.1-0.1,0.1s0.1,0.1,0.1,0.1s0.1-0.1,0.1-0.1l0,0C292.3,20.2,292.2,20.2,292.2,20.2
		L292.2,20.2L292.2,20.2L292.2,20.2z"/>
	<path class="st1" d="M298.4,65c-0.1,0-0.2-0.1-0.2-0.2c0-0.1,0-0.1,0.1-0.2L336,47.8c0.1,0,0.2,0,0.2,0.1l0,0c0,0.1,0,0.2-0.1,0.2
		l0,0L298.4,65C298.4,65,298.4,65,298.4,65z"/>
	<path class="st1" d="M296.1,63.4c-0.1,0-0.2-0.1-0.2-0.2c0-0.1,0-0.1,0.1-0.2l37.8-16c0.1,0,0.2,0,0.2,0.1l0,0c0,0.1,0,0.2-0.1,0.2
		l0,0l0,0L296.1,63.4C296.2,63.4,296.2,63.4,296.1,63.4z"/>
	<path class="st1" d="M294.2,62c-0.1,0-0.2-0.1-0.2-0.2c0-0.1,0-0.1,0.1-0.2l37.2-15.5c0.1,0,0.2,0,0.2,0.1c0,0.1,0,0.2-0.1,0.2l0,0
		l0,0L294.2,62C294.2,62,294.2,62,294.2,62z"/>
	<path class="st1" d="M292.2,60.5c-0.1,0-0.2-0.1-0.2-0.2c0-0.1,0-0.1,0.1-0.2l37.3-14.8c0.1,0,0.2,0,0.2,0.1c0,0.1,0,0.2-0.1,0.2
		L292.2,60.5C292.2,60.5,292.2,60.5,292.2,60.5z"/>
	<path class="st1" d="M304.9,64.7c0,0-0.1,0-0.1,0l-10.2-7.9c-0.1-0.1-0.1-0.2,0-0.3c0.1-0.1,0.2-0.1,0.3,0l0,0l10.2,7.9
		c0.1,0.1,0.1,0.2,0,0.3C305,64.7,304.9,64.7,304.9,64.7z"/>
	<path class="st1" d="M308.6,63c0,0-0.1,0-0.1,0l-10.5-7.6c-0.1-0.1-0.1-0.2,0-0.3l0,0c0.1-0.1,0.2-0.1,0.2,0c0,0,0,0,0,0l0,0l0,0
		l10.5,7.6c0.1,0.1,0.1,0.2,0,0.3C308.7,63,308.6,63,308.6,63L308.6,63z"/>
	<path class="st1" d="M312.5,61.2c0,0-0.1,0-0.1,0l-10.2-7.4c-0.1-0.1-0.1-0.2,0-0.3c0.1-0.1,0.2-0.1,0.3,0l10.2,7.4
		c0.1,0.1,0.1,0.2,0,0.3C312.6,61.2,312.5,61.2,312.5,61.2z"/>
	<path class="st1" d="M313,58.5c0,0-0.1,0-0.1,0l-7.4-6c-0.1-0.1-0.1-0.2,0-0.3c0,0,0,0,0,0l0,0l0,0c0.1-0.1,0.2-0.1,0.3,0l7.4,6
		c0.1,0.1,0.1,0.2,0,0.3C313.1,58.4,313,58.5,313,58.5L313,58.5z"/>
	<path class="st1" d="M315.7,57.2c0,0-0.1,0-0.1,0l-6.9-6.1c-0.1-0.1-0.1-0.2,0-0.3c0.1-0.1,0.2-0.1,0.3,0c0,0,0,0,0,0l0,0l0,0
		l6.9,6.1c0.1,0.1,0.1,0.2,0,0.3c0,0,0,0,0,0l0,0l0,0C315.8,57.2,315.8,57.2,315.7,57.2z"/>
	<path class="st1" d="M319.7,55.4c0,0-0.1,0-0.1,0l-7.6-5.5c-0.1-0.1-0.1-0.2,0-0.3c0.1-0.1,0.2-0.1,0.3,0l0,0l7.6,5.5
		c0.1,0.1,0.1,0.2,0,0.3C319.8,55.4,319.8,55.4,319.7,55.4L319.7,55.4z"/>
	<path class="st1" d="M323.2,53.9C323.1,53.9,323.1,53.9,323.2,53.9l-8.2-5.1c-0.1-0.1-0.1-0.2-0.1-0.3l0,0l0,0
		c0.1-0.1,0.2-0.1,0.2-0.1l0,0l0,0l8.1,5.1c0.1,0.1,0.1,0.2,0.1,0.3C323.3,53.9,323.2,53.9,323.2,53.9L323.2,53.9z"/>
	<path class="st1" d="M328.1,54.3C328,54.3,328,54.3,328.1,54.3l-10.6-6.5c-0.1-0.1-0.1-0.2-0.1-0.3c0.1-0.1,0.2-0.1,0.2-0.1
		l10.5,6.5c0.1,0.1,0.1,0.2,0.1,0.3C328.2,54.3,328.1,54.3,328.1,54.3z"/>
	<path class="st1" d="M330.9,53.1C330.9,53.1,330.8,53,330.9,53.1l-11.1-6.2c-0.1-0.1-0.1-0.2-0.1-0.2c0-0.1,0.2-0.1,0.2-0.1l11,6.2
		c0.1,0,0.1,0.2,0.1,0.2C331,53,331,53.1,330.9,53.1L330.9,53.1z"/>
	<path class="st1" d="M333.8,51.8C333.8,51.8,333.7,51.7,333.8,51.8l-11.4-5.8c-0.1,0-0.1-0.2-0.1-0.2c0-0.1,0.2-0.1,0.2-0.1
		l11.3,5.8c0.1,0,0.1,0.2,0.1,0.2C333.9,51.7,333.9,51.8,333.8,51.8z"/>
	<path class="st1" d="M336.7,50.5C336.7,50.5,336.7,50.4,336.7,50.5l-12.3-5.3c-0.1,0-0.1-0.1-0.1-0.2c0-0.1,0.1-0.1,0.2-0.1
		l12.2,5.3c0.1,0,0.1,0.1,0.1,0.2C336.8,50.4,336.8,50.5,336.7,50.5L336.7,50.5z"/>
</g>
<g>
	<line class="st3" x1="148.1" y1="37.5" x2="148.1" y2="37.5"/>
	<line class="st3" x1="141.9" y1="41.1" x2="141.9" y2="41.4"/>
	<line class="st3" x1="175.1" y1="76.2" x2="105.1" y2="64.2"/>
	<line class="st3" x1="202.2" y1="61.9" x2="201.9" y2="61.9"/>
	<line class="st3" x1="195.3" y1="70.6" x2="197.3" y2="71"/>
	<line class="st3" x1="173.1" y1="55.1" x2="173.1" y2="55"/>
	<polyline class="st3" points="181.9,57 181.9,57 181.7,56.9 181.6,56.7 181.5,56.4 181.5,56.1 181.5,55.7 181.6,55.4 	"/>
	<polyline class="st3" points="181.6,55.4 181.8,55.1 182,54.9 182.2,54.8 182.3,54.8 	"/>
	<polyline class="st3" points="121.2,23.7 121.5,23.5 121.8,23.5 121.8,23.5 	"/>
	<polyline class="st3" points="100.3,39.1 100.3,38.5 100.3,37.8 100.5,37.2 100.7,36.6 100.9,36.1 101.2,35.7 101.5,35.3 
		101.8,35.1 	"/>
	<line class="st3" x1="140.4" y1="50.1" x2="140.4" y2="50.2"/>
	<line class="st3" x1="149" y1="37.4" x2="149" y2="37.3"/>
	<line class="st3" x1="142.1" y1="41.4" x2="142.1" y2="41.5"/>
	<polyline class="st3" points="139.8,45.9 139.8,45.3 139.9,44.6 140,44 140.2,43.4 140.5,42.9 140.7,42.5 141,42.1 141.4,41.9 	"/>
	<line class="st3" x1="151" y1="36.2" x2="151" y2="36.5"/>
	<line class="st3" x1="140.4" y1="50.2" x2="173.2" y2="55.8"/>
	<line class="st3" x1="140.4" y1="50.2" x2="140" y2="50.4"/>
	<polyline class="st3" points="175.3,47.1 175.4,47.1 175.5,47.1 175.7,47.1 175.8,47.1 175.9,47.1 176,47.1 176.1,47 176.2,47 	"/>
	<line class="st3" x1="174.5" y1="47.5" x2="175.3" y2="47.1"/>
	<line class="st3" x1="101.8" y1="35.1" x2="121.2" y2="23.7"/>
	<line class="st3" x1="141.4" y1="41.9" x2="101.8" y2="35.1"/>
	<line class="st3" x1="142.1" y1="41.4" x2="141.4" y2="41.9"/>
	<polyline class="st3" points="141.9,41.1 141.9,41.2 141.8,41.2 141.8,41.2 141.8,41.3 141.9,41.3 141.9,41.4 142,41.4 142.1,41.4 
			"/>
	<line class="st3" x1="148.1" y1="37.5" x2="141.9" y2="41.1"/>
	<polyline class="st3" points="149,37.3 148.9,37.3 148.8,37.3 148.7,37.3 148.5,37.3 148.4,37.4 148.3,37.4 148.2,37.4 148.1,37.5 
			"/>
	<line class="st3" x1="151" y1="36.2" x2="149" y2="37.3"/>
	<line class="st3" x1="184.2" y1="41.9" x2="151" y2="36.2"/>
	<line class="st3" x1="182.2" y1="43" x2="184.2" y2="41.9"/>
	<polyline class="st3" points="182.4,43.3 182.5,43.3 182.5,43.3 182.5,43.2 182.5,43.2 182.4,43.1 182.4,43.1 182.3,43.1 182.2,43 
			"/>
	<line class="st3" x1="176.2" y1="47" x2="182.4" y2="43.3"/>
	<polyline class="st3" points="136.5,28.1 136.6,28.1 136.6,28.1 136.7,28.1 136.8,28.1 136.9,28.1 137,28.1 137.1,28 137.1,28 	"/>
	<line class="st3" x1="119.5" y1="25.2" x2="136.5" y2="28.1"/>
	<polyline class="st3" points="119.3,25 119.3,25 119.3,25 119.3,25.1 119.3,25.1 119.3,25.1 119.4,25.1 119.4,25.2 119.5,25.2 	"/>
	<line class="st3" x1="120.2" y1="24.5" x2="119.3" y2="25"/>
	<polyline class="st3" points="120.9,24.4 120.8,24.4 120.7,24.4 120.6,24.4 120.5,24.4 120.4,24.4 120.3,24.4 120.2,24.4 
		120.2,24.5 	"/>
	<line class="st3" x1="137.8" y1="27.3" x2="120.9" y2="24.4"/>
	<polyline class="st3" points="138,27.5 138,27.5 138,27.5 138.1,27.4 138,27.4 138,27.4 138,27.3 137.9,27.3 137.8,27.3 	"/>
	<line class="st3" x1="137.1" y1="28" x2="138" y2="27.5"/>
	<line class="st3" x1="173.2" y1="56.1" x2="173.1" y2="55.2"/>
	<line class="st3" x1="140" y1="50.4" x2="173.2" y2="56.1"/>
	<line class="st3" x1="140" y1="49.5" x2="140" y2="50.4"/>
	<line class="st3" x1="139.8" y1="45.9" x2="140" y2="49.3"/>
	<line class="st3" x1="100.3" y1="39.1" x2="139.8" y2="45.9"/>
	<line class="st3" x1="101.2" y1="62.1" x2="100.3" y2="39.1"/>
	<line class="st3" x1="179.8" y1="48.5" x2="174.5" y2="47.5"/>
	<polyline class="st3" points="174.5,47.5 174.2,47.8 173.9,48.2 173.6,48.6 173.4,49.1 173.2,49.7 173.1,50.3 173,51 173,51.6 	"/>
	<line class="st3" x1="173" y1="51.6" x2="178.3" y2="52.5"/>
	<polyline class="st3" points="201,39.1 200.9,38.5 200.8,38 200.6,37.6 200.4,37.3 200.1,37 199.8,36.9 199.5,36.9 199.2,37.1 	"/>
	<line class="st3" x1="199.2" y1="37.1" x2="179.8" y2="48.5"/>
	<polyline class="st3" points="179.8,48.5 179.5,48.7 179.2,49.1 178.9,49.5 178.7,50 178.5,50.6 178.3,51.2 178.3,51.9 178.3,52.5 
			"/>
	<line class="st3" x1="178.3" y1="52.5" x2="179.3" y2="77"/>
	<polyline class="st3" points="181.1,79 180.8,79.1 180.4,79.1 180.1,79 179.9,78.8 179.6,78.5 179.5,78 179.3,77.5 179.3,77 	"/>
	<line class="st3" x1="181.1" y1="79" x2="200.4" y2="67.6"/>
	<polyline class="st3" points="202,63.6 202,64.2 201.9,64.8 201.8,65.4 201.6,66 201.4,66.5 201.1,67 200.8,67.4 200.4,67.6 	"/>
	<line class="st3" x1="202" y1="63.6" x2="201" y2="39.1"/>
	<polyline class="st3" points="185.4,61.4 185.4,62 185.3,62.6 185.2,63.3 185,63.9 184.8,64.5 184.5,65 184.2,65.5 183.9,65.8 
		183.5,66.1 183.2,66.2 182.8,66.3 182.5,66.2 182.2,66 181.9,65.7 181.7,65.3 181.6,64.8 181.4,64.3 181.4,63.7 181.4,63.1 
		181.5,62.4 181.6,61.7 181.8,61.1 182,60.5 182.3,60 182.6,59.6 182.9,59.2 183.2,59 183.6,58.8 183.9,58.8 184.2,58.8 184.5,59 
		184.8,59.3 185,59.7 185.2,60.2 185.3,60.8 185.4,61.4 	"/>
	<polyline class="st3" points="192.2,44.9 192.2,45.1 192.2,45.3 192.1,45.5 192,45.6 191.9,45.6 191.8,45.5 191.7,45.4 191.7,45.2 
		191.7,45 191.8,44.9 191.8,44.7 191.9,44.6 192,44.6 192.1,44.6 192.2,44.8 192.2,44.9 	"/>
	<polyline class="st3" points="190.4,46 190.4,46.2 190.3,46.4 190.2,46.6 190.1,46.7 190,46.7 189.9,46.6 189.9,46.5 189.8,46.3 
		189.8,46.1 189.9,45.9 190,45.8 190.1,45.7 190.2,45.7 190.3,45.7 190.3,45.8 190.4,46 	"/>
	<polyline class="st3" points="186.1,53.5 186.1,53.7 186.1,53.9 186,54.1 185.9,54.2 185.8,54.2 185.7,54.1 185.6,54 185.6,53.9 
		185.6,53.6 185.6,53.5 185.7,53.3 185.8,53.2 185.9,53.2 186,53.2 186.1,53.4 186.1,53.5 	"/>
	<polyline class="st3" points="184.1,54.7 184.1,54.9 184,55.1 184,55.3 183.9,55.4 183.7,55.4 183.7,55.3 183.6,55.2 183.6,55 
		183.6,54.8 183.6,54.6 183.7,54.5 183.8,54.4 183.9,54.4 184,54.4 184.1,54.5 184.1,54.7 	"/>
	<polyline class="st3" points="187.8,63 187.8,63 187.5,62.9 187.2,62.7 187,62.4 186.8,62 186.7,61.5 186.6,60.9 186.6,60.3 
		186.6,59.7 186.7,59.1 186.8,58.5 187,57.9 187.3,57.4 187.6,56.9 187.9,56.6 188.2,56.3 188.5,56.1 188.9,56.1 189,56.1 	"/>
	<polyline class="st3" points="182.1,57 181.9,57.1 181.7,57 181.6,56.8 181.5,56.6 181.5,56.3 181.5,55.9 181.5,55.6 181.7,55.2 
		181.8,55 182,54.8 182.2,54.8 182.4,54.8 182.4,54.9 	"/>
	<line class="st3" x1="183.8" y1="63.5" x2="182.2" y2="63.2"/>
	<line class="st3" x1="184.3" y1="63.2" x2="182.2" y2="62.8"/>
	<line class="st3" x1="183.9" y1="64" x2="182.2" y2="63.7"/>
	<line class="st3" x1="182.2" y1="63.9" x2="183.7" y2="64.1"/>
	<line class="st3" x1="182.8" y1="64.3" x2="183.7" y2="64.5"/>
	<line class="st3" x1="183" y1="64.5" x2="182.8" y2="64.5"/>
	<line class="st3" x1="182.3" y1="64.1" x2="182.7" y2="64.1"/>
	<line class="st3" x1="182.7" y1="64.1" x2="182.3" y2="64.4"/>
	<line class="st3" x1="182.3" y1="64.4" x2="182.2" y2="62.3"/>
	<line class="st3" x1="182.2" y1="62.3" x2="184.2" y2="61.1"/>
	<line class="st3" x1="184.2" y1="61.1" x2="184.3" y2="63.2"/>
	<line class="st3" x1="184.3" y1="63.2" x2="183.8" y2="63.5"/>
	<line class="st3" x1="183.8" y1="63.5" x2="183.9" y2="64"/>
	<line class="st3" x1="183.9" y1="64" x2="183.7" y2="64.1"/>
	<line class="st3" x1="183.7" y1="64.1" x2="183.7" y2="64.5"/>
	<line class="st3" x1="183.7" y1="64.5" x2="183" y2="64.9"/>
	<line class="st3" x1="183" y1="64.9" x2="183" y2="64.5"/>
	<line class="st3" x1="183" y1="64.5" x2="182.8" y2="64.6"/>
	<line class="st3" x1="182.8" y1="64.6" x2="182.7" y2="64.1"/>
	<polyline class="st3" points="183.8,58.8 184.1,58.8 184.4,59 184.7,59.3 184.9,59.7 185,60.2 185.2,60.7 185.2,61.3 185.2,62 
		185.1,62.6 185,63.3 184.8,63.9 184.6,64.5 184.4,65 184,65.4 183.7,65.8 183.4,66 	"/>
	<polyline class="st3" points="183.4,66 183,66.2 182.7,66.2 182.6,66.2 	"/>
	<polyline class="st3" points="189.9,61 190,60.9 190.1,60.4 190.2,59.8 190.3,59.3 190.3,58.7 	"/>
	<polyline class="st3" points="192.9,59.2 192.9,59.7 192.9,60.3 192.8,60.8 192.6,61.4 192.4,61.8 192.1,62.2 191.8,62.6 
		191.5,62.8 191.3,62.9 191,62.9 190.7,62.8 190.4,62.6 190.2,62.3 190.1,61.9 190,61.5 189.9,61 189.9,60.4 190,59.9 190.1,59.3 
		190.3,58.8 190.5,58.3 190.8,57.9 191,57.6 191.3,57.3 191.6,57.2 191.9,57.2 192.2,57.3 192.4,57.5 192.6,57.8 192.8,58.2 
		192.9,58.7 192.9,59.2 	"/>
	<polyline class="st3" points="189.6,61.2 189.6,60.5 189.7,59.9 189.8,59.3 189.9,58.7 190.2,58.2 190.4,57.7 190.7,57.2 191,56.9 
		191.4,56.7 191.7,56.6 192,56.6 192.3,56.7 192.6,56.9 192.9,57.2 193,57.6 193.2,58.1 193.3,58.7 193.3,59.3 193.3,59.9 
		193.2,60.5 193,61.1 192.8,61.7 192.6,62.2 192.3,62.7 192,63.1 191.6,63.3 191.3,63.5 191,63.6 190.7,63.5 190.4,63.3 190.1,63.1 
		189.9,62.7 189.7,62.3 189.6,61.7 189.6,61.2 	"/>
	<polyline class="st3" points="191.8,44.8 191.9,44.7 192,44.6 192.1,44.6 192.1,44.7 192.2,44.8 192.2,45 192.2,45.2 192.1,45.3 
		192.1,45.5 192,45.6 191.9,45.6 191.8,45.5 191.7,45.4 191.7,45.2 191.7,45 191.8,44.8 	"/>
	<polyline class="st3" points="190.3,45.7 190.3,45.8 190.4,46 190.4,46.2 190.3,46.4 190.2,46.5 190.2,46.6 190,46.7 190,46.6 
		189.9,46.5 189.9,46.4 189.9,46.2 189.9,46 190,45.8 190.1,45.7 190.2,45.7 190.3,45.7 	"/>
	<line class="st3" x1="201.9" y1="62" x2="202" y2="62"/>
	<polyline class="st3" points="197.5,71.2 197.5,71.2 197.4,71.2 197.4,71.2 197.4,71.2 197.3,71.2 197.3,71.1 197.3,71 197.3,71 	
		"/>
	<line class="st3" x1="200.9" y1="69.2" x2="197.5" y2="71.2"/>
	<polyline class="st3" points="202.4,65.2 202.4,65.8 202.3,66.4 202.2,67.1 202,67.6 201.8,68.2 201.5,68.6 201.2,69 200.9,69.2 	
		"/>
	<line class="st3" x1="202.3" y1="62.2" x2="202.4" y2="65.2"/>
	<polyline class="st3" points="202.2,61.9 202.2,61.9 202.2,61.9 202.3,61.9 202.3,62 202.3,62 202.3,62 202.3,62.1 202.3,62.2 	"/>
	<line class="st3" x1="202" y1="62" x2="202.2" y2="61.9"/>
	<line class="st3" x1="202" y1="63.6" x2="202" y2="62"/>
	<polyline class="st3" points="202,63.6 202,64.2 201.9,64.8 201.8,65.4 201.6,66 201.4,66.5 201.1,67 200.8,67.4 200.4,67.6 	"/>
	<line class="st3" x1="197.3" y1="69.5" x2="200.4" y2="67.6"/>
	<line class="st3" x1="197.3" y1="71" x2="197.3" y2="69.5"/>
	<polyline class="st3" points="175.2,78.3 175.2,78.9 175.4,79.4 175.5,79.8 175.8,80.2 176,80.4 176.3,80.5 	"/>
	<line class="st3" x1="178.6" y1="75.4" x2="175.9" y2="74.9"/>
	<line class="st3" x1="175.9" y1="74.9" x2="175.3" y2="74.8"/>
	<line class="st3" x1="175.3" y1="74.8" x2="175.2" y2="74.9"/>
	<line class="st3" x1="179.1" y1="75.5" x2="178.6" y2="75.4"/>
	<line class="st3" x1="175" y1="75.3" x2="175.2" y2="78.3"/>
	<line class="st3" x1="179" y1="79" x2="175.2" y2="78.3"/>
	<line class="st3" x1="175.2" y1="74.9" x2="179" y2="75.6"/>
	<polyline class="st3" points="175.2,74.9 175.1,74.9 175.1,75 175.1,75 175,75.1 175,75.1 175,75.2 175,75.3 175,75.3 	"/>
	<line class="st3" x1="178.8" y1="76" x2="175" y2="75.3"/>
	<polyline class="st3" points="184.4,78.6 184.3,78.7 184.3,78.7 184.3,78.8 184.3,78.9 184.3,78.9 184.3,79 184.2,79 184.2,79 	"/>
	<line class="st3" x1="184.3" y1="77.1" x2="184.4" y2="78.6"/>
	<line class="st3" x1="181.1" y1="79" x2="184.3" y2="77.1"/>
	<polyline class="st3" points="179.3,77 179.3,77.5 179.5,78 179.6,78.5 179.9,78.8 180.1,79 180.4,79.1 180.8,79.1 181.1,79 	"/>
	<line class="st3" x1="179.1" y1="75.5" x2="179.3" y2="77"/>
	<line class="st3" x1="179" y1="75.6" x2="179.1" y2="75.5"/>
	<polyline class="st3" points="178.8,76 178.8,75.9 178.8,75.9 178.9,75.8 178.9,75.7 178.9,75.7 178.9,75.6 179,75.6 179,75.6 	"/>
	<line class="st3" x1="179" y1="79" x2="178.8" y2="76"/>
	<polyline class="st3" points="180.8,81 180.5,81.1 180.2,81.1 179.9,81 179.6,80.8 179.4,80.5 179.2,80 179.1,79.5 179,79 	"/>
	<line class="st3" x1="184.2" y1="79" x2="180.8" y2="81"/>
	<polyline class="st3" points="101,65.6 101.1,66.1 101.2,66.6 101.4,67.1 101.6,67.4 101.9,67.6 102.2,67.7 	"/>
	<line class="st3" x1="104.4" y1="62.7" x2="101.7" y2="62.2"/>
	<line class="st3" x1="101.7" y1="62.2" x2="101.2" y2="62.1"/>
	<line class="st3" x1="101.2" y1="62.1" x2="101" y2="62.2"/>
	<line class="st3" x1="105" y1="62.7" x2="104.4" y2="62.7"/>
	<line class="st3" x1="100.8" y1="62.6" x2="101" y2="65.6"/>
	<line class="st3" x1="104.9" y1="66.2" x2="101" y2="65.6"/>
	<line class="st3" x1="101" y1="62.2" x2="104.8" y2="62.8"/>
	<polyline class="st3" points="101,62.2 101,62.2 100.9,62.2 100.9,62.3 100.9,62.3 100.9,62.4 100.8,62.5 100.8,62.5 100.8,62.6 	
		"/>
	<line class="st3" x1="104.7" y1="63.3" x2="100.8" y2="62.6"/>
	<polyline class="st3" points="105.1,64.2 105.2,64.8 105.3,65.3 105.5,65.7 105.7,66.1 106,66.3 106.3,66.4 	"/>
	<line class="st3" x1="105" y1="62.7" x2="105.1" y2="64.2"/>
	<line class="st3" x1="104.8" y1="62.8" x2="105" y2="62.7"/>
	<polyline class="st3" points="104.7,63.3 104.7,63.2 104.7,63.1 104.7,63.1 104.7,63 104.7,63 104.8,62.9 104.8,62.9 104.8,62.8 	
		"/>
	<line class="st3" x1="104.9" y1="66.2" x2="104.7" y2="63.3"/>
	<polyline class="st3" points="106.7,68.3 106.3,68.4 106,68.4 105.7,68.3 105.4,68.1 105.2,67.7 105,67.3 104.9,66.8 104.9,66.2 	
		"/>
	<line class="st3" x1="109" y1="66.9" x2="106.7" y2="68.3"/>
	<polyline class="st3" points="143.2,49.4 143.2,49.4 143.4,49.3 143.6,49.3 143.8,49.3 144,49.3 144.1,49.3 144.2,49.3 	"/>
	<line class="st3" x1="145.7" y1="46.9" x2="142.3" y2="48.9"/>
	<line class="st3" x1="171.1" y1="54.3" x2="169.9" y2="54.1"/>
	<line class="st3" x1="169.9" y1="54.1" x2="170.1" y2="54"/>
	<line class="st3" x1="169" y1="50.9" x2="165" y2="53.3"/>
	<line class="st3" x1="165" y1="53.3" x2="162.8" y2="52.9"/>
	<line class="st3" x1="162.8" y1="52.9" x2="163" y2="52.8"/>
	<line class="st3" x1="161.9" y1="49.7" x2="157.9" y2="52"/>
	<line class="st3" x1="157.9" y1="52" x2="155.7" y2="51.7"/>
	<line class="st3" x1="155.7" y1="51.7" x2="155.8" y2="51.6"/>
	<line class="st3" x1="154.8" y1="48.4" x2="150.8" y2="50.8"/>
	<line class="st3" x1="150.8" y1="50.8" x2="148.6" y2="50.4"/>
	<line class="st3" x1="148.6" y1="50.4" x2="148.7" y2="50.3"/>
	<polyline class="st3" points="144.2,49.4 144,49.4 143.8,49.5 143.6,49.5 143.4,49.4 143.2,49.4 143.1,49.3 143.1,49.3 143.2,49.2 
		143.4,49.1 143.5,49.1 143.8,49.1 144,49.1 144.1,49.1 144.2,49.2 144.2,49.3 144.2,49.4 	"/>
	<line class="st3" x1="151.2" y1="47.8" x2="147.2" y2="50.2"/>
	<line class="st3" x1="147.2" y1="50.2" x2="145" y2="49.8"/>
	<line class="st3" x1="145" y1="49.8" x2="145.2" y2="49.7"/>
	<line class="st3" x1="158.4" y1="49.1" x2="154.3" y2="51.4"/>
	<line class="st3" x1="154.3" y1="51.4" x2="152.2" y2="51"/>
	<line class="st3" x1="152.2" y1="51" x2="152.3" y2="51"/>
	<line class="st3" x1="165.5" y1="50.3" x2="161.5" y2="52.6"/>
	<line class="st3" x1="161.5" y1="52.6" x2="159.3" y2="52.3"/>
	<line class="st3" x1="159.3" y1="52.3" x2="159.4" y2="52.2"/>
	<line class="st3" x1="170.7" y1="52.6" x2="168.6" y2="53.9"/>
	<line class="st3" x1="168.6" y1="53.9" x2="166.4" y2="53.5"/>
	<line class="st3" x1="166.4" y1="53.5" x2="166.5" y2="53.4"/>
	<polyline class="st3" points="195.2,57.1 195.2,57 195.2,56.9 195.2,56.9 195.2,56.8 195.3,56.8 195.3,56.8 195.3,56.9 195.3,56.9 
		195.3,57 195.3,57.1 195.3,57.1 195.3,57.2 195.2,57.2 195.2,57.2 195.2,57.1 195.2,57.1 	"/>
	<polyline class="st3" points="195.1,56.2 195.1,56.2 195.1,56.1 195.2,56 195.2,56 195.2,56 195.3,56 195.3,56.1 195.3,56.1 
		195.3,56.2 195.3,56.3 195.3,56.3 195.2,56.3 195.2,56.4 195.2,56.3 195.1,56.3 195.1,56.2 	"/>
	<polyline class="st3" points="194.7,56.9 194.7,56.8 194.8,56.7 194.8,56.7 194.8,56.6 194.9,56.6 194.9,56.7 194.9,56.7 
		194.9,56.8 194.9,56.8 194.9,56.9 194.9,57 194.8,57 194.8,57 194.8,57 194.8,56.9 194.7,56.9 	"/>
	<polyline class="st3" points="194.9,55.9 194.9,55.9 194.9,55.9 194.9,56 194.9,56.1 194.8,56.1 194.8,56.2 194.8,56.2 194.7,56.2 
			"/>
	<polyline class="st3" points="194.5,57.3 194.6,57.3 194.6,57.4 194.6,57.5 194.5,57.5 	"/>
	<line class="st3" x1="194.9" y1="58.3" x2="195.2" y2="58.4"/>
	<polyline class="st3" points="193.9,54.2 193.7,54.2 193.4,54.3 193.2,54.5 192.9,54.7 192.7,55.1 192.5,55.6 192.3,56.1 
		192.3,56.6 192.2,56.6 	"/>
	<polyline class="st3" points="192.7,57 192.7,56.6 192.8,56.1 193,55.6 193.1,55.2 193.4,54.8 193.6,54.5 193.9,54.4 194.2,54.3 
		194.4,54.3 194.7,54.5 194.9,54.7 194.9,54.7 	"/>
	<polyline class="st3" points="194.2,58.8 194.1,58.9 193.8,59 193.6,59 193.3,59 193.3,58.9 	"/>
	<polyline class="st3" points="194.3,54.6 194.2,54.6 193.9,54.7 193.7,54.8 193.4,55.1 193.2,55.5 193,55.9 192.9,56.4 192.9,56.8 
		192.8,57.2 	"/>
	<polyline class="st3" points="193.2,58.5 193.4,58.6 193.6,58.7 193.6,58.7 	"/>
	<polyline class="st3" points="194.2,57.5 194.3,58 194.4,58.4 194.5,58.7 194.7,58.9 194.9,59 195.2,58.9 195.4,58.8 195.7,58.6 
		195.9,58.3 196.1,57.9 196.3,57.4 196.4,57 196.4,56.5 196.4,56 196.3,55.6 196.2,55.3 196,55 195.8,54.9 195.5,54.8 195.3,54.9 
		195,55.1 194.8,55.4 194.6,55.7 194.4,56.1 194.3,56.6 194.2,57.1 194.2,57.5 	"/>
	<polyline class="st3" points="195.5,58.2 195.5,58.1 195.5,58 195.4,58 195.3,58 195.3,58 195.2,58.1 195.2,58.2 195.2,58.4 	"/>
	<polyline class="st3" points="195.2,58.4 195,58.3 194.8,58.2 194.7,58 194.6,57.7 194.5,57.3 194.6,56.9 194.6,56.5 194.8,56.1 
		194.9,55.8 195.1,55.6 195.4,55.5 195.6,55.4 195.8,55.5 195.9,55.7 196,56 196.1,56.4 196.1,56.8 196,57.2 195.9,57.6 195.7,57.9 
		195.5,58.2 	"/>
	<polyline class="st3" points="199.4,54.6 199.4,54.5 199.4,54.4 199.4,54.4 199.5,54.3 199.5,54.3 199.5,54.4 199.5,54.4 
		199.6,54.5 199.6,54.5 199.5,54.6 199.5,54.7 199.5,54.7 199.4,54.7 199.4,54.7 199.4,54.6 199.4,54.6 	"/>
	<polyline class="st3" points="199.3,53.8 199.3,53.7 199.4,53.6 199.4,53.6 199.4,53.5 199.5,53.5 199.5,53.5 199.5,53.6 
		199.5,53.6 199.5,53.7 199.5,53.8 199.5,53.8 199.4,53.9 199.4,53.9 199.4,53.9 199.3,53.8 199.3,53.8 	"/>
	<polyline class="st3" points="199,54.4 199,54.3 199,54.3 199,54.2 199,54.2 199.1,54.2 199.1,54.2 199.1,54.2 199.1,54.3 
		199.1,54.4 199.1,54.4 199.1,54.5 199.1,54.5 199,54.5 199,54.5 199,54.5 199,54.4 	"/>
	<polyline class="st3" points="199.1,53.4 199.1,53.4 199.1,53.5 199.1,53.5 199.1,53.6 199.1,53.7 199,53.7 199,53.7 199,53.7 	"/>
	<polyline class="st3" points="198.7,54.8 198.8,54.9 198.8,54.9 198.8,55 198.7,55 	"/>
	<line class="st3" x1="199.1" y1="55.8" x2="199.4" y2="55.9"/>
	<polyline class="st3" points="198.1,51.7 197.9,51.7 197.6,51.8 197.4,52 197.1,52.3 196.9,52.7 196.7,53.1 196.5,53.6 196.5,54.1 
		196.4,54.6 196.4,55.1 196.5,55.5 196.7,55.9 196.8,56.2 197,56.4 197.3,56.5 	"/>
	<polyline class="st3" points="198.4,56.3 198.3,56.4 198,56.5 197.8,56.6 197.5,56.5 197.3,56.3 197.1,56 197,55.6 196.9,55.2 
		196.9,54.7 196.9,54.2 197,53.6 197.2,53.2 197.4,52.7 197.6,52.4 197.8,52.1 198.1,51.9 198.4,51.8 198.6,51.8 198.9,52 
		199.1,52.2 199.1,52.2 	"/>
	<polyline class="st3" points="199.7,55.7 199.7,55.6 199.7,55.5 199.6,55.5 199.6,55.5 199.5,55.6 199.5,55.7 199.4,55.8 
		199.4,55.9 	"/>
	<polyline class="st3" points="199.4,55.9 199.2,55.9 199,55.7 198.9,55.5 198.8,55.2 198.7,54.8 198.8,54.4 198.8,54 199,53.6 
		199.1,53.3 199.4,53.1 199.6,53 199.8,53 200,53.1 200.1,53.3 200.2,53.6 200.3,53.9 200.3,54.3 200.2,54.7 200.1,55.1 199.9,55.4 
		199.7,55.7 	"/>
	<polyline class="st3" points="198.5,52.1 198.4,52.1 198.1,52.2 197.9,52.4 197.6,52.6 197.4,53 197.3,53.4 197.1,53.9 197.1,54.4 
		197,54.8 	"/>
	<polyline class="st3" points="197,54.8 197.1,55.3 197.2,55.6 197.4,55.9 197.6,56.1 197.8,56.2 	"/>
	<polyline class="st3" points="198.4,55.1 198.5,55.5 198.6,55.9 198.7,56.2 198.9,56.4 199.2,56.5 199.4,56.5 199.7,56.3 
		199.9,56.1 200.1,55.8 200.3,55.4 200.5,55 200.6,54.5 200.6,54 200.6,53.6 200.5,53.2 200.4,52.8 200.2,52.5 200,52.4 199.7,52.4 
		199.5,52.4 199.2,52.6 199,52.9 198.8,53.2 198.6,53.6 198.5,54.1 198.4,54.6 198.4,55.1 	"/>
	<line class="st3" x1="154.2" y1="50.6" x2="157.2" y2="48.9"/>
	<line class="st3" x1="155.2" y1="48.5" x2="152.3" y2="50.3"/>
	<line class="st3" x1="154.2" y1="50.6" x2="154.3" y2="51.4"/>
	<line class="st3" x1="152.3" y1="50.3" x2="154.2" y2="50.6"/>
	<line class="st3" x1="152.3" y1="50.3" x2="152.3" y2="51.1"/>
	<line class="st3" x1="159.4" y1="51.5" x2="159.4" y2="52.3"/>
	<line class="st3" x1="161.3" y1="51.8" x2="161.4" y2="52.6"/>
	<line class="st3" x1="161.3" y1="51.8" x2="164.3" y2="50.1"/>
	<line class="st3" x1="162.3" y1="49.7" x2="159.4" y2="51.5"/>
	<line class="st3" x1="159.4" y1="51.5" x2="161.3" y2="51.8"/>
	<line class="st3" x1="170.8" y1="52.9" x2="170.1" y2="53.3"/>
	<line class="st3" x1="170.1" y1="53.3" x2="170.9" y2="53.5"/>
	<line class="st3" x1="170.1" y1="53.3" x2="170.1" y2="54.1"/>
	<line class="st3" x1="164.9" y1="52.4" x2="164.9" y2="53.2"/>
	<line class="st3" x1="162.9" y1="52.1" x2="163" y2="52.9"/>
	<line class="st3" x1="164.9" y1="52.4" x2="167.9" y2="50.7"/>
	<line class="st3" x1="165.9" y1="50.3" x2="162.9" y2="52.1"/>
	<line class="st3" x1="162.9" y1="52.1" x2="164.9" y2="52.4"/>
	<line class="st3" x1="155.8" y1="50.9" x2="155.8" y2="51.7"/>
	<line class="st3" x1="157.8" y1="51.2" x2="157.8" y2="52"/>
	<line class="st3" x1="157.8" y1="51.2" x2="160.7" y2="49.5"/>
	<line class="st3" x1="158.8" y1="49.1" x2="155.8" y2="50.9"/>
	<line class="st3" x1="155.8" y1="50.9" x2="157.8" y2="51.2"/>
	<line class="st3" x1="150.7" y1="50" x2="150.7" y2="50.8"/>
	<line class="st3" x1="148.7" y1="49.6" x2="148.7" y2="50.5"/>
	<line class="st3" x1="150.7" y1="50" x2="153.6" y2="48.2"/>
	<line class="st3" x1="151.7" y1="47.9" x2="148.7" y2="49.6"/>
	<line class="st3" x1="148.7" y1="49.6" x2="150.7" y2="50"/>
	<line class="st3" x1="148.1" y1="47.3" x2="145.1" y2="49"/>
	<line class="st3" x1="147.1" y1="49.4" x2="150.1" y2="47.6"/>
	<line class="st3" x1="147.1" y1="49.4" x2="147.1" y2="50.2"/>
	<line class="st3" x1="145.1" y1="49" x2="147.1" y2="49.4"/>
	<line class="st3" x1="145.1" y1="49" x2="145.2" y2="49.8"/>
	<line class="st3" x1="166.5" y1="52.7" x2="166.5" y2="53.5"/>
	<line class="st3" x1="169.4" y1="51" x2="166.5" y2="52.7"/>
	<line class="st3" x1="166.5" y1="52.7" x2="168.5" y2="53"/>
	<line class="st3" x1="168.5" y1="53" x2="170.4" y2="51.9"/>
	<line class="st3" x1="168.5" y1="53" x2="168.5" y2="53.9"/>
	<polyline class="st3" points="141.7,49.8 141.8,49.7 142,49.5 142.1,49.3 142.2,49 	"/>
	<line class="st3" x1="142.2" y1="49" x2="142.7" y2="47.2"/>
	<line class="st3" x1="142.2" y1="49" x2="141.9" y2="49.2"/>
	<polyline class="st3" points="142.7,47.2 142.8,47 142.9,46.8 143,46.6 143.1,46.5 	"/>
	<line class="st3" x1="142.7" y1="47.2" x2="142.4" y2="47.4"/>
	<polyline class="st3" points="140.5,50.1 140.4,50.1 140.3,50 140.2,49.9 140.1,49.8 140.1,49.7 140,49.6 140,49.5 140,49.4 	"/>
	<line class="st3" x1="140.6" y1="50.1" x2="140.5" y2="50.1"/>
	<polyline class="st3" points="141.9,49.2 141.8,49.5 141.7,49.7 141.5,49.9 141.3,50 141.1,50.1 140.8,50.1 140.6,50.1 	"/>
	<line class="st3" x1="142.4" y1="47.4" x2="141.9" y2="49.2"/>
	<polyline class="st3" points="143.6,46.5 143.4,46.5 143.2,46.5 143,46.6 142.8,46.7 142.7,46.8 142.5,47 142.4,47.2 142.4,47.4 	
		"/>
	<line class="st3" x1="139.9" y1="45.9" x2="140" y2="49.4"/>
	<polyline class="st3" points="148.1,37.5 148.2,37.5 148.3,37.5 148.4,37.4 148.5,37.4 148.6,37.4 148.8,37.4 148.9,37.4 149,37.4 
			"/>
	<line class="st3" x1="142.1" y1="41.1" x2="148.1" y2="37.5"/>
	<polyline class="st3" points="142.3,41.4 142.2,41.4 142.1,41.3 142,41.3 142,41.2 142,41.2 142,41.2 142,41.1 142.1,41.1 	"/>
	<line class="st3" x1="141.4" y1="41.9" x2="142.3" y2="41.4"/>
	<polyline class="st3" points="176.3,47 176.2,47 176.1,47 176,47 175.9,47.1 175.8,47.1 175.6,47.1 175.5,47.1 175.4,47.1 	"/>
	<line class="st3" x1="182.3" y1="43.4" x2="176.3" y2="47"/>
	<polyline class="st3" points="182.1,43.1 182.2,43.1 182.3,43.1 182.4,43.2 182.4,43.2 182.4,43.3 182.4,43.3 182.4,43.4 
		182.3,43.4 	"/>
	<line class="st3" x1="150.6" y1="36.5" x2="183.7" y2="42.2"/>
	<line class="st3" x1="149" y1="37.4" x2="150.6" y2="36.5"/>
	<polyline class="st3" points="173.1,55.1 173.1,55.2 173,55.3 173,55.4 172.9,55.5 172.8,55.5 172.8,55.6 172.6,55.6 172.5,55.6 	
		"/>
	<polyline class="st3" points="170.6,52.2 170.5,52 170.4,51.8 170.2,51.6 170.1,51.4 169.9,51.2 169.7,51.1 169.4,51 169.2,50.9 	
		"/>
	<line class="st3" x1="171.1" y1="54.3" x2="170.6" y2="52.2"/>
	<polyline class="st3" points="172.5,55.6 172.2,55.5 172,55.4 171.7,55.2 171.5,55 171.4,54.8 171.2,54.5 171.1,54.3 	"/>
	<line class="st3" x1="172.5" y1="55.6" x2="172.5" y2="55.6"/>
	<polyline class="st3" points="141.4,41.9 141.1,42.1 140.8,42.5 140.5,42.9 140.3,43.5 140.1,44 140,44.6 139.9,45.3 139.9,45.9 	
		"/>
	<line class="st3" x1="139.9" y1="45.9" x2="143.6" y2="46.5"/>
	<line class="st3" x1="143.6" y1="46.5" x2="169.2" y2="50.9"/>
	<line class="st3" x1="169.2" y1="50.9" x2="173" y2="51.6"/>
	<line class="st3" x1="183.7" y1="42.2" x2="182.1" y2="43.1"/>
	<line class="st3" x1="175.4" y1="47.1" x2="175.4" y2="47.1"/>
	<line class="st3" x1="175.4" y1="47.1" x2="174.6" y2="47.5"/>
	<polyline class="st3" points="173,51.6 173,51 173.1,50.3 173.2,49.7 173.4,49.1 173.6,48.6 173.9,48.2 174.2,47.8 174.6,47.5 	"/>
	<line class="st3" x1="173" y1="51.6" x2="173.1" y2="55.1"/>
	<polyline class="st3" points="144.1,49.4 144,49.4 143.9,49.3 	"/>
	<polyline class="st3" points="143.9,49.3 143.7,49.3 143.6,49.3 143.5,49.4 143.3,49.4 143.3,49.4 	"/>
	<polyline class="st3" points="182.6,56.3 182.5,56.6 182.4,56.7 182.4,56.7 182.3,56.8 182.2,56.8 182.1,56.7 182,56.5 181.9,56.3 
		181.9,56.2 181.9,56 181.9,55.9 182,55.6 	"/>
	<polyline class="st3" points="182,55.6 182.2,55.4 182.2,55.3 182.3,55.2 182.4,55.2 182.5,55.2 182.6,55.3 182.7,55.5 182.7,55.6 
		182.8,55.7 182.8,55.9 182.7,56.1 182.6,56.3 	"/>
	<line class="st3" x1="183.4" y1="34.1" x2="121.8" y2="23.5"/>
	<line class="st3" x1="199.8" y1="36.9" x2="192.9" y2="35.7"/>
	<line class="st3" x1="106.3" y1="66.4" x2="175.2" y2="78.2"/>
	<line class="st3" x1="183.9" y1="58.8" x2="183.8" y2="58.8"/>
	<line class="st3" x1="182.6" y1="66.2" x2="182.6" y2="66.2"/>
	<line class="st3" x1="192" y1="56.6" x2="189" y2="56.1"/>
	<line class="st3" x1="187.8" y1="63" x2="190.8" y2="63.6"/>
	<line class="st3" x1="191.8" y1="45.6" x2="191.9" y2="45.6"/>
	<line class="st3" x1="192" y1="44.6" x2="191.9" y2="44.6"/>
	<line class="st3" x1="189.9" y1="46.6" x2="190" y2="46.7"/>
	<line class="st3" x1="190.2" y1="45.7" x2="190.1" y2="45.7"/>
	<g>
		<line class="st3" x1="184.9" y1="32.6" x2="184.6" y2="32.7"/>
		<g>
			<line class="st3" x1="183.4" y1="34.6" x2="183.5" y2="35.4"/>
			<g>
				<polyline class="st3" points="191.8,38.4 192.1,38.2 192.3,37.9 192.4,37.7 192.4,37.6 				"/>
				<line class="st3" x1="192.4" y1="38.2" x2="192.4" y2="37.8"/>
				<line class="st3" x1="184.3" y1="38.1" x2="184.3" y2="38.5"/>
				<line class="st3" x1="192.1" y1="38.2" x2="192.1" y2="38.1"/>
				<line class="st3" x1="184.6" y1="38.4" x2="184.6" y2="38.5"/>
				<line class="st3" x1="184.3" y1="37.7" x2="184.3" y2="38"/>
				<line class="st3" x1="192.4" y1="37.6" x2="192.4" y2="37.4"/>
				<line class="st3" x1="183.5" y1="35.4" x2="183.8" y2="36.7"/>
				<line class="st3" x1="192.5" y1="37.2" x2="192.7" y2="36.9"/>
				<line class="st3" x1="183.9" y1="37.3" x2="184.1" y2="37.5"/>
				<line class="st3" x1="192.8" y1="36.6" x2="192.8" y2="36.4"/>
				<line class="st3" x1="183.8" y1="36.7" x2="183.8" y2="36.9"/>
				<g>
					<polyline class="st3" points="190,31.6 190.6,31.8 190.9,32 					"/>
					<line class="st3" x1="190.9" y1="32" x2="191.3" y2="32.1"/>
					<polyline class="st3" points="191.3,32.1 191.4,32.4 191.1,32.7 190.6,33 189.9,33.3 					"/>
					<line class="st3" x1="189.9" y1="33.3" x2="190" y2="33.4"/>
					<polyline class="st3" points="189.9,31.4 189.9,31.4 189.9,31.4 190.1,31.5 190.3,31.6 					"/>
					<polyline class="st3" points="190,31.6 190.2,31.6 190.3,31.6 					"/>
					<line class="st3" x1="190" y1="31.5" x2="189.8" y2="31.4"/>
					<g>
						<polyline class="st3" points="183.5,35.4 183.6,35.6 183.8,35.8 184.2,36 184.6,36.2 185.1,36.4 185.7,36.5 						"/>
						<line class="st3" x1="189.7" y1="31.4" x2="189.8" y2="31.4"/>
						<polyline class="st3" points="185.7,35.9 185.1,35.8 184.5,35.6 184.1,35.4 183.7,35.2 183.5,35 183.4,34.7 183.4,34.6 						
							"/>
						<polyline class="st3" points="185.9,37.9 185.4,37.8 184.9,37.7 184.4,37.5 184.1,37.3 183.9,37.1 183.8,36.8 183.8,36.7 
													"/>
						<polyline class="st3" points="192.8,36.4 192.8,36.5 192.7,36.7 192.4,37 192.1,37.2 191.7,37.4 191.2,37.6 190.6,37.8 
							190,37.9 189.3,38 188.6,38.1 187.9,38.1 187.2,38.1 186.6,38 185.9,37.9 						"/>
						<polyline class="st3" points="185.7,36.5 186.4,36.6 187.1,36.6 187.8,36.6 188.6,36.6 189.3,36.5 190,36.4 190.7,36.3 
							191.3,36.1 191.8,35.9 192.3,35.7 192.6,35.5 192.8,35.2 192.9,35 						"/>
						<polyline class="st3" points="193,34.2 193,34.4 192.9,34.6 192.6,34.9 192.3,35.1 191.9,35.4 191.3,35.6 190.7,35.7 
							190,35.9 189.3,36 188.6,36 187.8,36.1 187.1,36.1 186.4,36 185.7,35.9 						"/>
						<polyline class="st3" points="185.4,39.4 185.5,39.4 185.9,39.6 186.4,39.7 187,39.8 187.6,39.8 188.3,39.8 188.9,39.8 
							189.5,39.7 190.1,39.6 190.6,39.4 191.1,39.3 191.4,39.2 						"/>
						<polyline class="st3" points="184.3,38.5 184.4,38.7 184.6,38.9 184.9,39.2 185.2,39.3 185.7,39.5 186.3,39.6 						"/>
						<polyline class="st3" points="186.3,39.6 186.9,39.7 187.5,39.7 188.2,39.7 188.9,39.7 189.5,39.6 190.2,39.5 190.8,39.4 
							191.3,39.2 191.7,39 192,38.8 192.3,38.6 192.4,38.3 192.4,38.2 						"/>
						<polyline class="st3" points="184.6,38.5 184.8,38.6 185.2,38.8 185.7,38.9 186.2,39.1 						"/>
						<polyline class="st3" points="186.2,39.1 186.8,39.1 187.5,39.2 188.2,39.2 188.8,39.2 189.5,39.1 190.2,39 190.7,38.8 
							191.2,38.7 191.7,38.5 192,38.2 192.1,38.2 						"/>
						<polyline class="st3" points="184.3,38 184.3,38 184.4,38.2 184.6,38.4 184.9,38.6 185.3,38.8 185.8,38.9 186.4,39.1 
							187,39.1 187.7,39.2 188.3,39.2 189,39.1 189.7,39 190.3,38.9 190.9,38.8 191.4,38.6 191.8,38.4 						"/>
						<polyline class="st3" points="187.5,32.7 187.8,32.8 188.2,32.8 188.5,32.7 188.9,32.7 189.1,32.6 189.3,32.4 189.4,32.3 
							189.3,32.2 189.2,32.1 188.9,32 188.6,31.9 188.2,31.9 187.9,31.9 187.5,32 187.2,32.1 187,32.2 186.9,32.3 186.9,32.4 
							187,32.6 187.2,32.7 187.5,32.7 						"/>
						<polyline class="st3" points="189.3,31.5 189.4,31.5 189.5,31.5 						"/>
						<polyline class="st3" points="189.4,31.4 189.3,31.5 189.3,31.5 						"/>
						<polyline class="st3" points="186.1,31.7 186.9,31.5 187.7,31.4 188.6,31.4 189.4,31.4 						"/>
						<polyline class="st3" points="187,33 186.4,32.8 186.2,32.7 186,32.6 186,32.4 186,32.3 186.3,32 186.8,31.8 187.2,31.7 
							187.6,31.6 188.1,31.6 188.5,31.6 189.2,31.7 						"/>
						<polyline class="st3" points="187.2,32.8 186.9,32.7 186.7,32.6 186.5,32.5 186.5,32.4 186.5,32.2 186.7,32.1 187,32 
							187.3,31.9 187.7,31.8 188.2,31.8 188.6,31.8 189,31.8 189.3,31.9 189.6,32 189.7,32.1 189.7,32.3 189.7,32.4 189.5,32.6 
							189.2,32.7 188.9,32.8 188.5,32.8 188.1,32.9 187.6,32.9 187.2,32.8 						"/>
						<polyline class="st3" points="185.3,32.5 185.4,32.5 185.5,32.5 						"/>
						<polyline class="st3" points="185.5,32.5 185.4,32.4 185.3,32.3 						"/>
						<polyline class="st3" points="186.6,33.2 186.1,33.1 185.7,33 185.4,32.8 185.3,32.5 						"/>
						<line class="st3" x1="186.6" y1="33.2" x2="187.3" y2="33.3"/>
						<line class="st3" x1="189" y1="33.3" x2="189.5" y2="33"/>
						<line class="st3" x1="189.5" y1="33" x2="189.7" y2="33.1"/>
						<polyline class="st3" points="189.7,33.1 190.1,33 190.4,32.8 190.6,32.7 190.7,32.7 190.8,32.6 191,32.3 190.9,32 						"/>
						<line class="st3" x1="190" y1="31.6" x2="189.5" y2="31.5"/>
						<polyline class="st3" points="189.2,31.7 189.7,31.8 190.1,32 190.2,32.1 190.2,32.3 190.1,32.4 189.9,32.6 189.6,32.8 
							189.2,32.9 188.7,33 188.3,33 187.6,33 187,33 						"/>
						<line class="st3" x1="185.2" y1="32.2" x2="185.3" y2="32.3"/>
						<polyline class="st3" points="185.3,32.3 185.5,32.1 185.6,32 185.7,31.9 185.8,31.8 186.1,31.7 						"/>
						<line class="st3" x1="186.1" y1="31.7" x2="185.9" y2="31.7"/>
						<polyline class="st3" points="185.9,31.7 186.7,31.5 187.7,31.4 188.7,31.3 189.6,31.4 						"/>
						<line class="st3" x1="189.6" y1="31.4" x2="189.7" y2="31.4"/>
						<line class="st3" x1="189.8" y1="31.4" x2="189.9" y2="31.4"/>
						<polyline class="st3" points="186.4,33.4 185.8,33.3 185.4,33.1 185,32.9 184.9,32.6 						"/>
						<line class="st3" x1="184.6" y1="32.7" x2="185.2" y2="32.2"/>
						<polyline class="st3" points="184.1,37.5 184.1,37.5 184.3,37.7 184.7,37.9 185.1,38.1 185.6,38.2 186.2,38.4 186.8,38.4 
							187.5,38.5 188.2,38.5 188.9,38.4 189.6,38.4 190.2,38.2 190.8,38.1 191.3,37.9 191.8,37.7 192.2,37.5 192.4,37.3 192.5,37.2 
													"/>
						<polyline class="st3" points="192.8,36.6 192.8,36.7 192.7,37 192.4,37.2 192.1,37.4 191.7,37.6 191.2,37.8 190.6,38 
							190,38.1 189.3,38.2 188.6,38.3 187.9,38.3 187.2,38.3 186.6,38.2 185.9,38.1 						"/>
						<polyline class="st3" points="185.9,38.1 185.4,38 184.9,37.9 184.5,37.7 184.1,37.5 183.9,37.3 183.8,37 183.8,36.9 						
							"/>
						<line class="st3" x1="190" y1="33.4" x2="188.8" y2="33.4"/>
						<line class="st3" x1="188.8" y1="33.4" x2="189" y2="33.3"/>
						<polyline class="st3" points="189,33.3 188.2,33.3 187.3,33.3 						"/>
						<line class="st3" x1="187.3" y1="33.3" x2="187.2" y2="33.5"/>
						<line class="st3" x1="187.2" y1="33.5" x2="186.4" y2="33.4"/>
						<polyline class="st3" points="189.8,31.4 189.7,31.4 189.6,31.4 						"/>
						<polyline class="st3" points="189.6,31.4 189.3,31.4 188.6,31.3 188,31.3 187.3,31.4 186.3,31.6 185.6,31.8 185.2,31.9 
							184.8,32.2 184.4,32.5 184,32.9 183.7,33.3 183.4,33.9 183.4,34.6 						"/>
					</g>
					<line class="st3" x1="192.8" y1="36.4" x2="192.9" y2="35"/>
					<line class="st3" x1="192.9" y1="35" x2="193" y2="34.2"/>
					<polyline class="st3" points="193,34.2 193,33.8 192.8,33.4 192.6,33 192.3,32.6 191.8,32.2 191.2,31.8 190.6,31.6 190,31.5 
											"/>
				</g>
			</g>
		</g>
	</g>
	<line class="st3" x1="202.2" y1="61.9" x2="201.9" y2="61.9"/>
	<line class="st3" x1="195" y1="70.8" x2="197.4" y2="71.2"/>
	<line class="st3" x1="176.3" y1="80.5" x2="180.2" y2="81.1"/>
	<line class="st3" x1="102.2" y1="67.7" x2="106" y2="68.4"/>
	<line class="st3" x1="195.3" y1="56.8" x2="194.9" y2="56.8"/>
	<line class="st3" x1="194.5" y1="57.1" x2="195.2" y2="57.2"/>
	<line class="st3" x1="195.2" y1="56" x2="194.9" y2="55.9"/>
	<line class="st3" x1="194.7" y1="56.3" x2="195.2" y2="56.4"/>
	<line class="st3" x1="195.4" y1="58" x2="194.6" y2="57.8"/>
	<line class="st3" x1="194.9" y1="56.6" x2="194.6" y2="56.6"/>
	<line class="st3" x1="194.5" y1="56.9" x2="194.8" y2="57"/>
	<line class="st3" x1="194.7" y1="56.2" x2="194.8" y2="56.2"/>
	<line class="st3" x1="193.3" y1="59" x2="193.5" y2="59"/>
	<line class="st3" x1="194.3" y1="54.3" x2="193.9" y2="54.2"/>
	<line class="st3" x1="195.7" y1="54.8" x2="194.3" y2="54.6"/>
	<line class="st3" x1="193.6" y1="58.7" x2="194.9" y2="59"/>
	<line class="st3" x1="199.5" y1="54.3" x2="199.1" y2="54.3"/>
	<line class="st3" x1="198.7" y1="54.6" x2="199.4" y2="54.7"/>
	<line class="st3" x1="199.5" y1="53.5" x2="199.1" y2="53.5"/>
	<line class="st3" x1="198.9" y1="53.8" x2="199.4" y2="53.9"/>
	<line class="st3" x1="199.6" y1="55.5" x2="198.8" y2="55.4"/>
	<line class="st3" x1="199.1" y1="54.2" x2="198.8" y2="54.1"/>
	<line class="st3" x1="198.7" y1="54.5" x2="199" y2="54.5"/>
	<line class="st3" x1="198.9" y1="53.7" x2="199" y2="53.7"/>
	<line class="st3" x1="197.3" y1="56.5" x2="197.7" y2="56.6"/>
	<line class="st3" x1="198.6" y1="51.8" x2="198.1" y2="51.7"/>
	<line class="st3" x1="199.9" y1="52.4" x2="198.5" y2="52.1"/>
	<line class="st3" x1="197.8" y1="56.2" x2="199.2" y2="56.5"/>
	<line class="st3" x1="142" y1="41.2" x2="142" y2="41.4"/>
	<line class="st3" x1="141.3" y1="50" x2="141.7" y2="49.8"/>
	<line class="st3" x1="182.4" y1="43.3" x2="182.4" y2="43.3"/>
	<line class="st3" x1="172.8" y1="55.5" x2="173.1" y2="55.4"/>
	<line class="st3" x1="182.3" y1="54.8" x2="182.1" y2="54.8"/>
	<line class="st3" x1="181.7" y1="57" x2="181.9" y2="57"/>
	<polyline class="st3" points="181.9,57 182.1,57 182.3,56.9 182.4,56.8 182.6,56.6 182.6,56.5 182.7,56.3 182.8,56 	"/>
	<polyline class="st3" points="182.8,56 182.8,55.7 182.8,55.6 182.8,55.4 182.7,55.2 182.6,55 182.5,54.9 182.3,54.8 182.3,54.8 	
		"/>
</g>
<g>
	<path class="st4" d="M128.9,26.6c0,0-0.1,0-0.2,0c-0.1,0-0.3,0-0.4-0.1c0,0-0.1,0-0.1,0c0,0,0,0,0,0c0,0,0,0,0.1-0.1
		c0.2-0.1,0.4-0.2,0.6-0.3c0,0,0,0,0.1,0c0.2,0,0.4,0.1,0.7,0.1c0,0,0.1,0,0.1,0c0,0,0,0,0,0.1c0,0,0,0-0.1,0
		c-0.1,0.1-0.3,0.2-0.4,0.2C129.1,26.6,129,26.6,128.9,26.6z M128.4,26.4L128.4,26.4c0.2,0,0.3,0.1,0.5,0.1c0,0,0.1,0,0.1,0
		c0.1-0.1,0.2-0.1,0.3-0.2l0,0c0,0,0,0,0,0l0,0c-0.2,0-0.3-0.1-0.5-0.1c0,0,0,0,0,0c-0.1,0.1-0.2,0.1-0.3,0.2L128.4,26.4z"/>
	<path class="st4" d="M130.1,26.8c-0.1,0-0.1,0-0.2,0c0,0,0,0,0,0c0-0.1,0-0.1,0-0.2c0,0,0,0,0,0c0,0-0.1,0-0.1,0
		c-0.1,0-0.1,0.1-0.2,0.1c0,0,0,0,0,0c0,0-0.1,0-0.2,0l0,0c0.2-0.1,0.4-0.2,0.6-0.4c0,0,0.1,0,0.1,0c0.2,0,0.3,0.1,0.5,0.1
		c0,0,0.1,0,0.1,0l0,0c0,0,0,0,0,0.1c0,0,0,0,0,0c-0.1,0-0.1,0.1-0.2,0.1c-0.1,0.1-0.2,0.1-0.4,0c0,0-0.1,0-0.1,0L130.1,26.8z
		 M129.8,26.5c0.1,0,0.2,0,0.3,0.1c0.1,0,0.2,0,0.3-0.1l0,0l0,0c0,0,0,0,0,0c-0.1,0-0.2,0-0.3-0.1c-0.1,0-0.1,0-0.1,0
		C129.9,26.4,129.9,26.4,129.8,26.5L129.8,26.5z"/>
	<path class="st4" d="M127.2,25.9C127.2,25.9,127.2,25.9,127.2,25.9C127.2,25.9,127.2,25.9,127.2,25.9
		C127.2,25.9,127.2,25.8,127.2,25.9c-0.1-0.1-0.2-0.1-0.3-0.2c0,0,0,0,0,0c-0.1,0.1-0.3,0.2-0.4,0.3l0,0c0.1,0,0.2,0,0.3,0.1
		c0,0,0.1,0,0.1,0c0.1,0,0.1,0,0.2-0.1c0,0,0,0,0.1,0c0,0,0.1,0,0.1,0l0,0c-0.1,0-0.2,0.1-0.2,0.1c-0.1,0-0.2,0-0.3,0
		c-0.1,0-0.3,0-0.4-0.1c0,0-0.1,0-0.1,0c0,0,0,0,0-0.1c0,0,0,0,0.1,0c0.2-0.1,0.4-0.2,0.6-0.3c0,0,0,0,0,0c0.2,0,0.3,0.1,0.5,0.1
		c0.1,0,0.1,0,0.2,0c0,0,0,0,0.1,0c0,0,0,0,0,0c0,0-0.1,0.1-0.1,0.1c0,0,0,0,0,0C127.3,26,127.2,25.9,127.2,25.9L127.2,25.9z"/>
	<path class="st4" d="M124,25.2l-0.6,0.3c0.1,0,0.1,0,0.2,0c0.1,0,0.2,0,0.2,0c0.1,0,0.1,0,0.2,0c0.2-0.1,0.3-0.2,0.5-0.3
		c0,0,0.1,0,0.1,0c0,0,0,0,0.1,0c0,0,0,0,0,0c0,0,0,0,0,0c-0.2,0.1-0.3,0.2-0.5,0.3c-0.1,0.1-0.2,0.1-0.3,0.1c-0.1,0-0.1,0-0.2,0
		c-0.1,0-0.2,0-0.4-0.1c0,0,0,0-0.1,0c0,0,0,0,0,0c0,0,0,0,0.1,0c0.2-0.1,0.4-0.2,0.6-0.3c0,0,0,0,0,0
		C123.9,25.1,123.9,25.2,124,25.2z"/>
	<path class="st4" d="M125.7,26l0.1-0.1c-0.1,0-0.1,0-0.2,0c-0.1,0-0.2,0-0.3,0c0,0,0,0,0,0c-0.1,0-0.1,0-0.2,0c0,0-0.1,0-0.1,0
		c0,0-0.1,0-0.1,0c0.1,0,0.2-0.1,0.3-0.1c0.3-0.1,0.6-0.2,0.9-0.3c0,0,0.1,0,0.1,0c0,0,0,0,0.1,0c0,0,0,0,0,0
		c-0.1,0.2-0.2,0.3-0.3,0.5c0,0,0,0,0,0C125.8,26,125.7,26,125.7,26z M125.9,25.6L125.9,25.6C125.9,25.6,125.9,25.6,125.9,25.6
		c-0.1,0-0.2,0-0.3,0.1l-0.1,0l0,0c0.1,0,0.2,0,0.3,0c0,0,0,0,0,0C125.9,25.8,125.9,25.7,125.9,25.6L125.9,25.6z"/>
	<path class="st4" d="M124.2,25.8L124.2,25.8c0.2-0.1,0.5-0.3,0.7-0.4c0,0,0.1,0,0.1,0c0.1,0,0.3,0.1,0.4,0.1c0.1,0,0.1,0,0.2,0
		c0,0,0,0,0,0c0,0,0,0,0,0c0,0,0,0-0.1,0c0,0,0,0,0,0c-0.2,0-0.3-0.1-0.5-0.1c0,0,0,0-0.1,0c-0.1,0-0.1,0.1-0.2,0.1l0.2,0
		c0,0,0.1,0,0.1,0c0,0,0,0,0,0c0,0,0,0,0,0c0,0,0,0-0.1,0c0,0,0,0,0,0c-0.1,0-0.2,0-0.3-0.1c0,0,0,0-0.1,0c-0.1,0-0.1,0.1-0.2,0.1
		c0,0-0.1,0-0.1,0C124.3,25.8,124.2,25.8,124.2,25.8z"/>
	<path class="st4" d="M127.4,26.3L128,26l-0.3-0.1c0,0,0,0,0.1,0c0,0,0.1,0,0.1,0c0.2,0,0.4,0.1,0.6,0.1c0,0,0.1,0,0.1,0
		c0,0,0,0,0,0c0,0,0,0,0,0c0,0,0,0-0.1,0c0,0,0,0,0,0c-0.1,0-0.2,0-0.3-0.1c0,0,0,0-0.1,0c-0.2,0.1-0.4,0.2-0.6,0.3c0,0,0,0,0,0
		C127.5,26.3,127.4,26.3,127.4,26.3L127.4,26.3z"/>
	<path class="st4" d="M130.6,26.9L130.6,26.9c0.1-0.1,0.2-0.1,0.3-0.2c0,0,0,0,0,0c0-0.1,0-0.2,0-0.2l0,0c0,0,0.1,0,0.1,0
		c0,0,0,0,0.1,0c0,0,0,0,0,0.1c0,0,0,0.1,0,0.1l0,0l0.4-0.1c0,0,0.1,0,0.1,0c0,0,0.1,0,0.1,0c0,0,0.1,0,0.1,0l-0.2,0
		c-0.2,0-0.4,0.1-0.6,0.1c0,0,0,0,0,0c-0.1,0.1-0.2,0.1-0.3,0.2c0,0-0.1,0-0.1,0C130.7,26.9,130.6,26.9,130.6,26.9z"/>
</g>
<g>
	<path class="st1" d="M210.8,61h2.5c1.3,0,2.2,0.7,2.2,2c0,1.3-0.9,2-2.3,2h-1.6v2.8h-0.9V61z M211.7,64.2h1.6
		c0.9,0,1.4-0.4,1.4-1.2c0-0.8-0.6-1.2-1.3-1.2h-1.6V64.2z"/>
	<path class="st1" d="M216.6,64.1c0-0.7,0-1.1,0-1.3h0.8c0,0.1,0,0.5,0,1c0.3-0.7,0.8-1.1,1.6-1.1v0.8c-1,0-1.6,0.6-1.6,1.8v2.4
		h-0.8V64.1z"/>
	<path class="st1" d="M219.9,60.6h0.8v1.1h-0.8V60.6z M219.9,62.8h0.8v4.9h-0.8V62.8z"/>
	<path class="st1" d="M222.5,62.8c0.7,2,1.1,3.5,1.3,4.1h0c0.1-0.5,0.6-2,1.4-4.1h0.9l-1.8,4.9h-0.9l-1.7-4.9H222.5z"/>
	<path class="st1" d="M230.4,66.6c0,0.4,0,0.9,0.1,1.1h-0.8c0-0.1-0.1-0.3-0.1-0.6c-0.2,0.3-0.6,0.8-1.5,0.8c-1.2,0-1.6-0.8-1.6-1.5
		c0-1.1,0.9-1.6,2.3-1.6c0.3,0,0.7,0,0.8,0v-0.4c0-0.4-0.1-1-1.1-1c-0.8,0-1,0.4-1,0.8h-0.8c0.1-0.7,0.5-1.5,1.9-1.4
		c1.2,0,1.9,0.5,1.9,1.6V66.6z M229.6,65.3c-0.2,0-0.5,0-0.8,0c-1,0-1.5,0.3-1.5,1c0,0.5,0.3,0.9,1,0.9c1.2,0,1.3-0.8,1.3-1.7V65.3z
		"/>
	<path class="st1" d="M231.2,62.8h0.8v-1.4h0.8v1.4h1.1v0.7h-1.1v2.9c0,0.5,0.1,0.7,0.6,0.7c0.1,0,0.3,0,0.4,0v0.6
		c-0.2,0.1-0.5,0.1-0.7,0.1c-0.8,0-1.1-0.4-1.1-1.2v-3.1h-0.8V62.8z"/>
	<path class="st1" d="M235.3,65.4c0,1,0.5,1.7,1.3,1.7c0.8,0,1-0.4,1.2-0.8h0.9c-0.2,0.6-0.7,1.5-2.1,1.5c-1.5,0-2.2-1.2-2.2-2.5
		c0-1.5,0.7-2.6,2.2-2.6c1.6,0,2.1,1.3,2.1,2.3c0,0.1,0,0.3,0,0.4H235.3z M237.9,64.8c0-0.8-0.4-1.5-1.3-1.5c-0.9,0-1.2,0.6-1.3,1.5
		H237.9z"/>
	<path class="st1" d="M242.4,61h2.5c1.3,0,2.2,0.7,2.2,2c0,1.3-0.9,2-2.3,2h-1.6v2.8h-0.9V61z M243.3,64.2h1.6
		c0.9,0,1.4-0.4,1.4-1.2c0-0.8-0.6-1.2-1.3-1.2h-1.6V64.2z"/>
	<path class="st1" d="M248.2,64.1c0-0.7,0-1.1,0-1.3h0.8c0,0.1,0,0.5,0,1c0.3-0.7,0.8-1.1,1.6-1.1v0.8c-1,0-1.6,0.6-1.6,1.8v2.4
		h-0.8V64.1z"/>
	<path class="st1" d="M255.7,65.2c0,1.4-0.8,2.6-2.3,2.6c-1.4,0-2.2-1.1-2.2-2.6c0-1.4,0.8-2.6,2.3-2.6
		C254.8,62.7,255.7,63.7,255.7,65.2z M252,65.2c0,1.1,0.5,1.9,1.4,1.9c0.9,0,1.4-0.7,1.4-1.9c0-1.1-0.5-1.9-1.4-1.9
		C252.5,63.4,252,64.1,252,65.2z"/>
	<path class="st1" d="M256.2,62.8h0.8v-1.4h0.8v1.4h1.1v0.7h-1.1v2.9c0,0.5,0.1,0.7,0.6,0.7c0.1,0,0.3,0,0.4,0v0.6
		c-0.2,0.1-0.5,0.1-0.7,0.1c-0.8,0-1.1-0.4-1.1-1.2v-3.1h-0.8V62.8z"/>
	<path class="st1" d="M264,65.2c0,1.4-0.8,2.6-2.3,2.6c-1.4,0-2.2-1.1-2.2-2.6c0-1.4,0.8-2.6,2.3-2.6C263.1,62.7,264,63.7,264,65.2z
		 M260.3,65.2c0,1.1,0.5,1.9,1.4,1.9c0.9,0,1.4-0.7,1.4-1.9c0-1.1-0.5-1.9-1.4-1.9C260.8,63.4,260.3,64.1,260.3,65.2z"/>
	<path class="st1" d="M269,66.2c-0.2,0.8-0.8,1.6-2,1.6c-1.3,0-2.2-1-2.2-2.5c0-1.4,0.8-2.6,2.2-2.6c1.4,0,1.9,1,2,1.6h-0.8
		c-0.1-0.5-0.4-0.9-1.1-0.9c-0.9,0-1.4,0.7-1.4,1.9c0,1.1,0.5,1.9,1.3,1.9c0.6,0,1-0.3,1.2-0.9H269z"/>
	<path class="st1" d="M274.3,65.2c0,1.4-0.8,2.6-2.3,2.6c-1.4,0-2.2-1.1-2.2-2.6c0-1.4,0.8-2.6,2.3-2.6
		C273.4,62.7,274.3,63.7,274.3,65.2z M270.6,65.2c0,1.1,0.5,1.9,1.4,1.9c0.9,0,1.4-0.7,1.4-1.9c0-1.1-0.5-1.9-1.4-1.9
		C271.1,63.4,270.6,64.1,270.6,65.2z"/>
	<path class="st1" d="M275.4,67.7v-7.1h0.8v7.1H275.4z"/>
</g>
</svg>
