<?xml version="1.0" encoding="utf-8"?>
<!-- Generator: Adobe Illustrator 24.0.1, SVG Export Plug-In . SVG Version: 6.00 Build 0)  -->
<svg version="1.1" id="图层_1" xmlns="http://www.w3.org/2000/svg" xmlns:xlink="http://www.w3.org/1999/xlink" x="0px" y="0px"
	 viewBox="0 0 790 389" style="enable-background:new 0 0 790 389;" xml:space="preserve">
<style type="text/css">
	.st0{fill:#FFFFFF;}
</style>
<path class="st0" d="M360.2,23.8c0.6,0.5,1.1,1.1,1.4,1.8c0.1,0.4,0.1,0.5-0.3,0.4c-0.1,0-0.3-0.1-0.3-0.1c-1.1-0.8-2.1-1.8-3.1-2.8
	c-0.4-0.4-0.6-0.4-1,0c-1,1-2.1,2-3.4,3c-0.3,0.1-0.3,0.1-0.3-0.1c0.1-0.5,0.3-0.9,0.6-1.3c0.9-1,1.9-2,3.1-3c0.1-0.1,0.4-0.1,0.6,0
	c0.5,0.4,0.9,0.8,1.3,1.1C359.6,23.1,360,23.4,360.2,23.8z"/>
<path class="st0" d="M364.5,26.8c0.6-0.4,1.1-0.4,1.8-0.1c0.1,0,0.1,0.1,0.1,0.3c-0.3,2-0.5,3.5-1,4.4c-0.3,0.5-0.6,0.6-1.3,0.4
	c-0.1,0-0.1-0.1-0.1-0.3l0.3-4.4C364.2,27.1,364.3,27,364.5,26.8z"/>
<path class="st0" d="M358.2,29.1h-3.8c-0.4,0-0.6-0.3-0.8-0.5c-0.1-0.5-0.1-0.8,0-1c0.1-0.1,0.4-0.3,0.8-0.3c2.1-0.1,4.4-0.1,6.8,0
	c0.3,0,0.5,0.3,0.5,0.5V28c-0.4,1.1-0.9,2.3-1.6,3.3c-1.1,1.6-1.8,2.5-1.8,2.5c-0.6,1.1-1.4,2.1-2,3.3c-0.1,0.1,0,0.3,0.1,0.3h4.9
	c0.1,0,0.3,0.1,0.3,0.1l0,0v1.5c0,0.3-0.3,0.4-0.4,0.4h-7.3c-0.5,0-0.8-0.3-0.6-0.8c0.3-1.1,0.8-2.1,1.4-3c0.6-0.9,0.9-1.3,0.9-1.3
	c0.5-0.8,1-1.5,1.5-2.3c0.6-1,1.1-1.8,1.3-2.5C358.3,29.2,358.3,29.1,358.2,29.1L358.2,29.1z"/>
<path class="st0" d="M631.8,29.5c-0.3-0.4-0.6-0.5-0.9-0.1c-0.5,0.4-0.9,0.9-1.4,1.3c0,0-0.3,0.4-0.9,1c-0.4,0.5-0.9,0.9-1.5,1.3
	c-0.1,0.1-0.3,0.1-0.4,0c-0.1,0-0.1-0.1-0.1-0.3c0-0.1,0-0.1,0.1-0.3c1.3-1.6,2.5-3,4-4.3c0.3-0.3,0.6-0.3,0.9,0l3.9,4.1
	c0.3,0.3,0.1,0.4-0.1,0.4c-0.4,0-0.8-0.1-1-0.3C633.5,31.5,632.6,30.5,631.8,29.5z"/>
<path class="st0" d="M366.6,38.3c0.5-1.5,1-3.1,1.6-4.6c0-0.1,0.1-0.3,0.3-0.3c0.6-0.3,1.3-0.1,1.8,0.1c0.1,0,0.1,0.1,0.3,0.3
	c0.8,2.4,1.5,4.8,2.3,7.2c0,0,0.1,0.3,0.3,0.8c0.3,0.8-0.1,1-1.3,0.8c-0.4-0.1-0.6-0.4-0.8-0.8c0-0.5-0.1-1-0.5-1.4
	c-0.1-0.1-0.1-0.1-0.3-0.1h-2c-0.1,0-0.3,0-0.4,0.1c-0.4,0.4-0.6,0.9-0.8,1.6c-0.1,0.5-0.4,0.8-0.9,0.6c0,0-0.3,0-0.6,0
	c-0.4,0-0.5-0.3-0.4-0.8c0.3-1,0.5-1.8,0.6-2.3C366.5,38.8,366.6,38.3,366.6,38.3z M369.2,35.5c-0.4,0.9-0.6,1.9-0.9,2.9
	c0,0.1,0,0.3,0.1,0.3c0.5,0.3,1,0.3,1.5,0c0.1,0,0.1-0.1,0.1-0.3l-0.5-3C369.5,35.1,369.4,35.1,369.2,35.5z"/>
<path class="st0" d="M638.3,33.7c0-0.1,0.1-0.4,0.4-0.4h1.3c0.5,0,0.8,0.3,0.6,0.6l-1.1,4.6c0,0.1-0.1,0.3-0.3,0.3
	c-0.4,0.1-0.9,0-1.3-0.1c-0.1,0-0.1-0.1-0.1-0.3L638.3,33.7z"/>
<path class="st0" d="M632.1,36.8c0.3-0.4,0.1-0.6-0.4-0.6c-1.3,0-2.3,0-3.4,0c-0.9,0-1.3-0.4-1.3-1.3c0-0.5,0.3-0.8,0.8-0.8
	c2.1-0.1,4.3-0.1,6.5,0c0.5,0,0.8,0,0.8,0c0.4,0.1,0.5,0.4,0.5,0.8c0,0.4-0.1,0.6-0.3,0.9l-5.7,8.7c-0.1,0.3-0.1,0.4,0.1,0.4
	l5.4-0.1c0.1,0,0.3,0.1,0.3,0.1c0.1,0.5,0.1,1.1,0,1.6c0,0.1-0.1,0.1-0.3,0.1c-2.6,0.1-5.5,0.1-8.4-0.1c-0.5,0-0.6-0.3-0.5-0.8
	c0.4-0.9,0.8-1.8,1.3-2.4C629.3,41,630.7,38.9,632.1,36.8z"/>
<path class="st0" d="M645.1,47.9c-0.9-0.3-1.8-0.3-2.8,0.1c-0.1,0-0.1,0.1-0.3,0.3l-0.6,2c0,0.1-0.1,0.3-0.3,0.3
	c-0.5,0.1-1,0.1-1.5-0.1c-0.3-0.1-0.3-0.3-0.3-0.5l0,0l3.1-9.2c0.1-0.3,0.3-0.4,0.5-0.4h1.5c0.1,0,0.4,0.1,0.4,0.3
	c0.5,1.3,0.9,2.6,1.3,3.9c0.5,1.9,1,3.6,1.8,5.4c0,0.1,0,0.3-0.1,0.3c-0.6,0.5-1.3,0.5-1.8,0c-0.1,0-0.1-0.1-0.1-0.3l-0.6-1.8
	C645.4,48.1,645.3,47.9,645.1,47.9z M643.5,42.9l-0.8,2.9c0,0.1,0.1,0.4,0.3,0.4l0,0c0.8,0.1,1.3,0.1,1.6-0.1c0.1,0,0.1-0.1,0.1-0.3
	l-0.8-2.9C643.9,42.3,643.6,42.3,643.5,42.9z"/>
<path class="st0" d="M276.7,55.5c-0.5-0.1-0.8,0-1.1,0.5c0,0.1-0.1,0.3-0.3,0.3c-0.9,0.6-1.8,1.4-2.5,2.4c-0.3,0.4-0.5,0.3-0.6,0
	s0.1-0.8,0.8-1.3c1-1,1.9-1.9,2.9-2.9c0.5-0.5,1-0.5,1.5,0.3c0.6,1.1,1.3,1.8,1.9,2.1c0.6,0.4,1.1,0.9,1.6,1.6
	c0.1,0.1,0,0.3-0.1,0.3c-0.6,0-1.1-0.4-1.6-0.8c-0.4-0.4-0.5-0.6-0.5-0.6c-0.4-0.4-0.8-0.8-1-1.1C277.2,55.7,276.9,55.5,276.7,55.5z
	"/>
<path class="st0" d="M283,61.4c0-0.4,0.1-0.9,0.1-1.3c0-0.1,0.1-0.3,0.1-0.3c0.5-0.4,1.1-0.5,1.8-0.4c0.1,0,0.1,0.1,0.3,0.3
	c0,1.3,0,2.5-0.4,3.6c0,0,0,0.3-0.1,0.6c0,0.6-0.6,0.8-1.6,0.5c-0.1,0-0.3-0.1-0.3-0.3C282.8,63.1,282.8,62.2,283,61.4z"/>
<path class="st0" d="M275.3,69.9h5.1c0.1,0,0.3,0.1,0.3,0.1l0.1,1.4c0,0.1-0.1,0.1-0.3,0.1l0,0h-8.2c-0.3,0-0.4-0.1-0.4-0.4V71
	c1-2.3,2.4-4.4,3.9-6.5c0.3-0.4,0.6-0.8,0.9-1.3c0.3-0.4,0.5-0.9,0.9-1.3c0.3-0.4,0.1-0.5-0.3-0.5c-1.1,0.1-2.1,0.1-3,0.1
	c-0.8,0-1,0-1.1,0c-0.4-0.1-0.5-0.6-0.4-1.4c0-0.3,0.3-0.4,0.5-0.4h6.7c1,0,1.3,0.4,0.6,1.3l-5.4,8.4
	C275.1,69.9,275.1,69.9,275.3,69.9z"/>
<path class="st0" d="M291,70.3c1.4,1.3,1.5,2.8,0.4,4.3c-0.1,0.1-0.1,0.1-0.3,0.3c-1.5,0.4-2.9,0.5-4.5,0.5c0,0-0.4,0-0.9,0
	c-0.5,0-0.6-0.3-0.6-0.8c0-0.4,0-0.6,0-0.6c0-2.5,0-5.1,0.1-7.7c0-0.1,0.1-0.3,0.3-0.3c0.8-0.1,1.6-0.1,2.4,0c0,0,0.5,0,1.4,0
	c1,0,1.6,0.4,2.1,1c0.5,0.6,0.5,1.5,0.1,2.4c0,0.1-0.1,0.1-0.3,0.3c-0.1,0.1-0.3,0.3-0.4,0.4C290.9,70.2,291,70.3,291,70.3z
	 M287.4,67.9c-0.4,1.4-0.1,2,0.9,1.9c0.5,0,0.9-0.1,1.1-0.3c0.5-0.3,0.6-0.6,0.5-1.4c0-0.1-0.1-0.3-0.3-0.3
	c-0.6-0.3-1.3-0.4-1.9-0.4C287.5,67.5,287.4,67.6,287.4,67.9z M290,73.2c0.4-0.8,0.5-1.1,0.1-1.4c-0.4-0.3-0.8-0.4-1.1-0.4
	c-0.5,0-0.9-0.1-1.1-0.1c-0.5,0-0.6,0.3-0.6,0.8c0,0.5,0,0.8,0,0.9c0,0.8,0.3,1,1,0.9c0,0,0.4,0,1-0.1
	C289.5,73.8,289.8,73.5,290,73.2z"/>
<path class="st0" d="M115.8,81.2c0.4-0.4,0.8-0.8,1.3-1.1c0.1-0.1,0.4-0.1,0.5,0l0,0l4.4,4.4c0.1,0.1,0.1,0.3,0.1,0.3
	c-0.1,0.3-0.3,0.4-0.6,0.4c-0.1,0-0.3-0.1-0.3-0.1c-1.1-1.3-2.3-2.4-3.5-3.4c-0.1-0.1-0.4-0.1-0.5,0c-1.3,1-2.4,2.1-3.5,3.1
	c-0.1,0.1-0.3,0.3-0.5,0.3c-0.6,0.1-0.8-0.1-0.1-0.8C113.7,83.2,114.7,82.2,115.8,81.2z"/>
<path class="st0" d="M755.5,81.6c0.3-0.1,0.5-0.1,0.6,0c1.4,1.1,2.6,2.3,3.8,3.5c0.3,0.4,0.4,0.6,0.1,1.1c0,0.1-0.1,0.1-0.3,0l0,0
	l-3.3-3.1c-0.4-0.4-0.9-0.4-1.3-0.1c-1,0.8-2.1,1.8-3,3c-0.1,0.1-0.1,0.1-0.3,0.1c-0.4,0-0.5-0.3-0.4-0.6c0-0.1,0.1-0.3,0.3-0.5
	C752.7,83.8,754,82.7,755.5,81.6z"/>
<path class="st0" d="M124.5,87.6c0-0.4,0-0.9,0.1-1.3c0-0.1,0.1-0.3,0.3-0.3c0.9-0.1,1.6-0.1,2.5,0c0.1,0,0.1,0.1,0.1,0.3
	c-0.3,1.8-0.8,3.4-1.4,5.1c0,0.1-0.1,0.3-0.3,0.3l-1.1-0.1c-0.1,0-0.1-0.1-0.3-0.3c-0.1-0.8-0.1-1.5,0-2.3
	C124.5,88.6,124.5,88.2,124.5,87.6z"/>
<path class="st0" d="M116.3,97.8c1.4-0.3,3.1-0.3,5.1-0.3c0.1,0,0.3,0.1,0.3,0.1l0.1,2c0,0.1-0.1,0.3-0.3,0.3l0,0h-9
	c-0.1,0-0.3-0.1-0.3-0.3l0,0c0-0.9,0.3-1.6,0.8-2.3c1.6-2.6,3.4-5.4,5.1-8.2c0.3-0.4,0.1-0.5-0.4-0.5h-4.4c-0.1,0-0.3-0.1-0.3-0.1
	v-1.9c0-0.1,0.1-0.3,0.4-0.3l0,0h7.7c0.4,0,0.6,0.3,0.6,0.6c0,0.6-0.1,1.3-0.5,1.9c-0.4,0.5-0.5,0.8-0.5,0.8c-0.6,1.1-1.3,2.1-2,3.1
	c-1,1.4-1.9,2.9-2.8,4.5C116,97.7,116,97.8,116.3,97.8z"/>
<path class="st0" d="M762.3,92.3c-0.1,0-0.1-0.1-0.1-0.3l0.3-4.5c0-0.3,0.1-0.4,0.3-0.4l1.8-0.1c0.1,0,0.3,0.1,0.3,0.3l0,0
	c-0.1,1.6-0.5,3.3-1.1,4.9C763.4,92.5,763,92.6,762.3,92.3z"/>
<path class="st0" d="M756.3,100c0,0.1-0.1,0.3-0.3,0.3h-1.4c-0.3,0-0.5-0.3-0.5-0.5l0,0c0-1.1,0-2.1-0.1-3.1c-0.1-0.9-0.4-1.9-0.9-3
	c-0.8-1.9-1.6-3.8-2.6-5.5c-0.1-0.3,0-0.5,0.1-0.5c1.1-0.6,1.9-0.4,2.5,0.6c0.8,1.5,1.4,3.1,2.1,4.6c0.1,0.5,0.4,0.4,0.5,0
	c0.5-1.6,1.1-3.4,1.9-5c0.1-0.3,0.3-0.4,0.5-0.4l1.8-0.1c0.1,0,0.3,0.1,0.3,0.3l0,0c0,0.6-0.1,1.3-0.4,1.8c-1.1,2.4-2,4.1-2.5,5
	c-0.5,0.9-0.8,1.9-0.6,2.9C756.5,98.2,756.5,99,756.3,100z"/>
<path class="st0" d="M128.8,101.2l-0.5,2c-0.1,0.4-0.4,0.6-0.6,0.6l-1.6-0.1c-0.1,0-0.1-0.1-0.1-0.1l0,0c0.4-1.1,0.8-2.3,1.1-3.4
	c0.8-2,1.4-4.1,1.8-6.2c0-0.3,0.3-0.4,0.5-0.4l1.9-0.1c0.3,0,0.5,0.1,0.6,0.5c1,3.3,2,6.5,3.3,9.5c0,0.1,0,0.3-0.1,0.3l0,0
	c-0.8,0.1-1.5,0.1-2.1,0c-0.1,0-0.3-0.1-0.3-0.3c-0.1-0.5-0.3-1.1-0.4-1.6c-0.1-0.6-0.5-1-1.1-1c-0.5,0-0.8,0-0.8,0
	c-0.5,0-0.9,0-1.4,0C128.9,100.9,128.9,101,128.8,101.2z M130.2,95.5l-0.8,3.1c-0.1,0.4,0,0.6,0.1,0.8l0,0l1.6,0.1
	c0.5,0,0.6-0.3,0.5-0.8l-1.1-3.1C130.4,95.1,130.3,95.1,130.2,95.5z"/>
<path class="st0" d="M771.3,98.7c0.9,0.5,1.4,1.1,1.4,1.9c0.1,1.3-0.4,2.1-1.5,2.8c-0.9,0.5-1.9,0.8-2.9,0.6c-0.8,0-1.6-0.1-2.5-0.1
	c-0.3,0-0.5-0.3-0.5-0.5l-0.1-9c0-0.3,0.3-0.4,0.4-0.4l0,0c0.6,0,1.4,0,2.1,0c0,0,0.4,0,1,0c0.6,0,1.1,0.1,1.6,0.3
	c0.6,0.1,1,0.5,1.3,1c0.6,1.1,0.4,2.1-0.6,3.1C771.2,98.5,771.2,98.5,771.3,98.7L771.3,98.7z M769.6,95.6l-2.1-0.3
	c-0.1,0-0.3,0.1-0.3,0.3c-0.3,0.8-0.3,1.5,0,2.3c0,0.1,0.1,0.1,0.3,0.1c0.4,0,0.8,0,1.3,0c0.5,0,1-0.1,1.3-0.5
	c0.5-0.5,0.4-1.1,0-1.8C769.8,95.8,769.7,95.6,769.6,95.6z M769.9,99.7l-2.4-0.1c-0.1,0-0.4,0.1-0.4,0.3l0,0l-0.1,2.1
	c0,0.1,0.1,0.4,0.4,0.4l0,0c0.4,0,0.8,0,1.1,0c1.9,0,2.4-0.8,1.5-2.4C770.2,99.8,770.1,99.7,769.9,99.7z"/>
<path class="st0" d="M25.3,101.8c0.4-0.4,0.6-0.6,1-1c0.1,0,0.3,0,0.3,0c1,1.3,2.1,2.4,3.3,3.4c0.6,0.5,1,1,1.1,1.4
	c0.1,0.5,0,0.6-0.3,0.6c-0.1,0-0.3-0.1-0.4-0.3c-1.1-1-2.4-2.1-3.6-3.4c-0.1-0.1-0.5-0.1-0.6,0c-1.3,1.1-2.5,2.3-3.6,3.4
	c-0.1,0.1-0.4,0.3-0.5,0.3c-0.3,0-0.4-0.1-0.4-0.4c0-0.1,0.1-0.3,0.3-0.5c0.8-0.9,1.5-1.6,2.4-2.5C24.3,102.8,24.7,102.4,25.3,101.8
	z"/>
<path class="st0" d="M474.2,104.7c0.3-0.4,0.6-0.5,1-0.3c0.1,0.1,0.3,0.3,0.4,0.5c0.1,0.1,0.3,0.4,0.4,0.5c1,0.9,1.9,1.8,2.8,2.8
	c0.1,0.1,0.3,0.4,0.3,0.5c0,0.3-0.1,0.4-0.4,0.4c-0.1,0-0.3,0-0.3-0.1l-3.4-3.1c-0.1-0.1-0.3-0.1-0.3,0l-3.5,3.1
	c-0.1,0.1-0.3,0.1-0.4,0.1c-0.3-0.1-0.1-0.6,0.5-1.3c0.3-0.3,0.5-0.5,0.8-0.8c0.6-0.4,1.1-1,1.8-1.6
	C473.8,105.2,474,105.1,474.2,104.7z"/>
<path class="st0" d="M34.5,107.2h1.8c0.1,0,0.3,0.1,0.3,0.3l0,0c-0.3,1.5-0.6,2.9-1,4.4c0,0,0,0.3,0,0.5s-0.1,0.4-0.5,0.4
	c-0.1,0-0.3,0-0.4,0c-0.3,0.1-0.6,0.1-0.9-0.1c-0.1,0-0.1-0.1-0.1-0.3l0.4-4.8C34,107.3,34.2,107.2,34.5,107.2z"/>
<path class="st0" d="M27.2,110.5c0.3-0.4,0.1-0.5-0.3-0.5h-4.6c-0.3,0-0.4-0.1-0.4-0.4l0,0v-1c0-0.6,0.3-0.9,0.8-0.9h7.3
	c0.5,0,0.8,0.3,0.8,0.8c0.1,0.9-0.1,1.6-0.8,2.4c-0.6,0.9-1,1.3-1,1.3c-1.4,2.3-2.9,4.4-4.1,6.7c-0.1,0.1,0,0.3,0.1,0.3l5.3-0.1
	c0.1,0,0.3,0,0.3,0.1c0.3,0.6,0.4,1.4,0.1,2c0,0.1-0.1,0.1-0.3,0.1c-3,0.1-6.2,0.1-9.2,0c-0.1,0-0.3-0.1-0.3-0.3l0,0
	c0.1-1,0.5-1.8,1-2.5c0.3-0.5,0.5-0.6,0.5-0.6C24.2,115.1,25.7,112.7,27.2,110.5z"/>
<path class="st0" d="M482.3,114c-0.1,0.4-0.4,0.6-0.6,0.8s-0.5,0.1-0.8,0c-0.1-0.1-0.1-0.3-0.1-0.6c0-1.3,0.1-2.5,0.3-3.8
	c0-0.1,0.1-0.3,0.1-0.3c0.4-0.4,1-0.4,1.8,0c0.1,0.1,0.3,0.3,0.3,0.4L482.3,114z"/>
<path class="st0" d="M474.6,115l1.9-4.4c0-0.1,0.1-0.3,0.3-0.3c0.6-0.3,1.3-0.3,2,0c0.1,0,0.1,0.1,0.1,0.3c0,0.3-0.1,0.5-0.4,0.8
	c-0.1,0.1-0.1,0.3-0.3,0.3c-0.5,1.8-1.3,3.3-2,4.6c-0.4,0.8-0.6,1.5-0.6,2.1c0,1-0.1,2-0.1,3.1c0,0.3-0.3,0.5-0.5,0.5l0,0l-1.5-0.1
	c-0.3,0-0.4-0.3-0.4-0.4l0,0c0.1-1,0.3-2,0-3.1c-0.1-0.6-0.5-1.6-1.1-2.8c-0.8-1.5-1.5-3.1-2.1-5c0-0.1,0-0.3,0.1-0.3l0,0
	c1.4-0.4,2.3,0,2.6,1c0.1,0.5,0.3,0.8,0.3,0.8c0.4,0.9,0.8,1.9,1.3,2.9C474.3,115.2,474.5,115.2,474.6,115z"/>
<path class="st0" d="M36.8,124.9c-0.3,0-0.4-0.1-0.4-0.4l-0.1-9.5c0-0.3,0.3-0.5,0.5-0.5l0,0c1.4,0.1,2.8,0.1,4,0.1
	c1.8,0,2.6,1,2.6,2.8c0,0.6-0.4,1.1-0.9,1.4c-0.1,0.1-0.3,0.3-0.1,0.5c0,0,0,0,0,0.1c2.1,2,2.1,3.6,0,5c-0.5,0.4-1,0.5-1.8,0.5
	C39.6,124.9,38.2,124.9,36.8,124.9z M38.2,116.4c0.1,0.3,0.1,0.6,0.1,0.9c-0.1,0.5,0,0.9,0.1,1c0.1,0,0.4,0.1,0.9,0.1
	c0.6,0,1.3-0.1,1.9-0.4c0.6-0.4,0.9-0.8,0.5-1.3c-0.1-0.3-0.5-0.5-0.9-0.6c-0.8-0.3-1.5-0.4-2.4-0.3c-0.1,0-0.1,0.1-0.3,0.3
	C38.2,116.4,38.2,116.4,38.2,116.4z M38.7,123.2c1,0.1,2,0,3-0.4c0.1,0,0.3-0.1,0.3-0.3c0.3-0.6,0.3-1.3-0.1-1.6
	c-0.3-0.4-0.8-0.5-1.4-0.6c-0.6,0-1.3,0-1.9,0c-0.1,0-0.3,0.1-0.3,0.3c-0.1,1-0.1,1.8,0.1,2.4C38.5,123,38.6,123.2,38.7,123.2z"/>
<path class="st0" d="M489.5,121l0.9,0.5c0.1,0,0.1,0.1,0.1,0.3c0.5,1.9-0.3,3-2,3.5c-1,0.3-2.5,0.3-4.5,0c-0.1,0-0.1-0.1-0.3-0.3
	c-0.1-2.9-0.1-5.8,0.1-8.7c0-0.1,0.1-0.3,0.3-0.3c2.1-0.1,3.6,0,4.4,0.3c1.3,0.4,1.9,1.3,1.8,2.4c0,0.3-0.1,0.5-0.4,1
	c-0.1,0.3-0.3,0.6-0.4,1C489.3,120.9,489.4,121,489.5,121z M486,120c0.8,0.1,1.5,0,2.1-0.5c0.1-0.1,0.1-0.1,0.3-0.3
	c0.1-0.6,0-1-0.6-1.3c-0.3-0.1-0.8-0.1-1.5-0.1c-0.6,0-0.9,0.4-0.8,0.9c0,0.1,0,0.3,0,0.4c0,0.3,0,0.4,0.1,0.5
	C485.7,119.9,485.8,120,486,120z M488.7,122.3c0-0.4-0.3-0.6-0.6-0.6l0,0h-1.8c-0.4,0-0.6,0.3-0.6,0.6l0,0v1.1
	c0,0.4,0.3,0.6,0.6,0.6l0,0h1.8c0.4,0,0.6-0.3,0.6-0.6l0,0V122.3z"/>
<path class="st0" d="M678.9,130.3l0.3-1c0-0.1,0.1-0.1,0.3-0.1l1.8-0.1c0.1,0,0.3,0.1,0.3,0.3l0,0c-0.3,1.9-0.5,3.6-0.9,5.1
	c-0.1,0.4-0.1,0.6-0.1,1c0,0.1,0,0.4-0.1,0.6c-0.1,0.4,0,0.5,0.4,0.5c0.3,0,0.5,0,0.5,0.1c0.8,0.4,1,1,0.5,1.8
	c0,0.1-0.1,0.1-0.3,0.1c-1.3,0.1-2.4-0.1-3.3-0.9c-0.1-0.1-0.3-0.1-0.3,0c-1.1,0.9-2.4,1.1-3.9,0.6c-1-0.4-1.6-1-2-2
	c-0.1-0.5-0.3-1-0.4-1.6s-0.1-1.3,0-1.6c0.1-1,0.5-1.9,1.3-2.9c1-1.1,2.1-1.6,3.4-1.5c0.5,0,0.9,0.3,1.3,0.5s0.6,0.6,0.9,1
	c0.1,0.1,0.1,0.3,0.3,0.1C678.8,130.6,678.8,130.6,678.9,130.3z M678.2,132.8c0-0.9-0.6-1.8-1.6-1.8h-0.3c-0.9,0-1.8,0.6-1.8,1.6
	l0,0l-0.1,2.4c0,0.9,0.6,1.8,1.6,1.8h0.3c0.9,0,1.8-0.6,1.8-1.6l0,0L678.2,132.8z"/>
<path class="st0" d="M568.4,139.7l-3.5,3.4c-0.1,0.1-0.3,0.1-0.3,0.1c-0.5,0-0.6-0.3-0.4-0.6c0.1-0.1,0.3-0.3,0.4-0.5
	c1.3-1.1,2.4-2.4,3.5-3.6c0.1-0.1,0.4-0.1,0.6,0l0,0c1.1,1.1,2.1,2.1,3.3,3.1c0,0,0.1,0.1,0.4,0.4c0.4,0.4,0.5,0.8,0.5,1.3
	c0,0.3-0.1,0.3-0.4,0.1c-1.3-1.1-2.5-2.3-3.8-3.3c-0.1,0-0.1-0.1-0.1-0.3C568.5,139.7,568.5,139.6,568.4,139.7L568.4,139.7z"/>
<path class="st0" d="M218.1,143.9c0.4,0.4,0.3,0.6-0.3,0.8c-0.4,0-0.8-0.1-1-0.6c-0.4-0.6-1.4-1.6-3.1-3c-0.1-0.1-0.3-0.1-0.3,0
	c-0.3,0.1-0.8,0.5-1.3,1c-0.9,0.8-1.6,1.5-2.5,2.4c-0.3,0.3-0.5,0.3-0.9,0c-0.1,0-0.1-0.1,0-0.3l0,0c1.8-2.3,3.1-3.6,4.1-4.4
	c0.5-0.4,1-0.4,1.4,0.1c0.3,0.4,0.4,0.5,0.5,0.5C215.7,141.5,216.8,142.6,218.1,143.9z"/>
<path class="st0" d="M575.6,149.4c-0.1,0-0.3-0.1-0.3-0.4l0.5-4.5c0-0.1,0.1-0.3,0.3-0.3c0.5-0.3,1-0.1,1.8,0.1
	c0.3,0.1,0.4,0.3,0.3,0.5l-1,4.3c0,0.1-0.1,0.3-0.3,0.3C576.4,149.5,576.1,149.6,575.6,149.4z"/>
<path class="st0" d="M567.3,155c-0.1,0.1,0,0.3,0.1,0.3l5.1,0.1c0.1,0,0.3,0.1,0.3,0.1c0.1,0.3,0.1,0.4,0.1,0.6c0,0.1,0,0.4,0,0.6
	c0,0.4-0.3,0.6-0.6,0.5c-0.3,0-0.5,0-0.5,0c-2.4,0-4.9,0-7.3-0.1c-0.6,0-0.8-0.3-0.5-0.9c0.6-1.5,1.5-3,2.6-4.5
	c1.1-1.5,2.1-3.1,3-4.8c0-0.1,0-0.3-0.1-0.3c0,0,0,0-0.1,0l-4.3-0.1c-0.3,0-0.5-0.1-0.5-0.4c-0.3-1,0.1-1.5,1-1.5c0.4,0,0.6,0,0.6,0
	c2.1,0,4.3,0,6.4,0.1c0.3,0,0.5,0.3,0.5,0.5c0,0,0,0,0,0.1c-0.3,1-0.8,2-1.4,2.9C570.2,150.7,568.7,152.8,567.3,155z"/>
<path class="st0" d="M221.9,145.6c0.5,0,0.8,0.1,0.8,0.4c0,0,0,0.3-0.1,0.6c-0.3,1.4-0.5,2.8-1,4.1c0,0.1-0.1,0.3-0.3,0.3
	c-1,0.6-1.5,0.3-1.5-1c0-1,0.1-2,0.3-3c0,0,0-0.3,0-0.8c0-0.6,0.4-1,1-0.8C221.6,145.5,221.7,145.6,221.9,145.6z"/>
<path class="st0" d="M213,152.2c0.1,0.3,0.1,0.1,0.3,0c0.1-0.6,0.4-1.4,0.6-2c0.5-1.1,0.9-2.1,1-3.3c0.1-0.4,0.4-0.6,0.8-0.8
	c0.9-0.1,1.6-0.1,2.1,0.1c0.1,0,0.1,0.1,0.1,0.3c-0.4,1.1-1,2.4-1.9,3.9c-0.4,0.8-0.8,1.6-1.3,2.8c-0.3,0.8-0.5,1.6-0.5,2.5
	c0,1.1-0.1,2.4-0.1,3.5c0,0.1-0.1,0.3-0.1,0.3c-0.8,0.1-1.5,0.1-2.3,0c-0.1,0-0.3-0.1-0.3-0.3c-0.3-1.4-0.3-2.6-0.1-3.8
	c0-0.5,0-1-0.3-1.5c-0.3-0.4-0.3-0.6-0.3-0.6c-1-2.3-2-4.5-3.1-6.8c-0.1-0.1,0-0.4,0.1-0.5l0,0c0.8-0.4,1.4-0.4,1.9,0
	c0.4,0.3,0.6,0.6,1,1.4C211.5,149.1,212.3,150.7,213,152.2z"/>
<path class="st0" d="M584,156.1c1.3,0.3,1.8,1.1,1.5,2.5c-0.1,0.9-0.5,1.5-1.3,1.8c-1.9,0.8-3.8,0.9-5.8,0.5c-0.1,0-0.1-0.1-0.3-0.3
	c-0.1-2.9-0.1-6,0-9.3c0-0.1,0.1-0.3,0.3-0.3l0,0c1.1,0.1,2.1,0.1,3.1,0.1c0.9,0,1.6,0.1,2.3,0.6c1.1,0.8,1.4,1.8,0.6,3
	c-0.3,0.4-0.5,0.8-0.6,1.1C583.8,155.9,583.8,156.1,584,156.1L584,156.1z M582.3,152.9c-0.5-0.1-1.1-0.1-2.1,0
	c-0.1,0-0.3,0.1-0.3,0.3v1.8c0,0.1,0.1,0.3,0.3,0.3c0.6,0.1,1.3,0.1,1.8-0.1c0.5-0.1,0.8-0.4,1-0.8
	C583.3,153.7,583.1,153.2,582.3,152.9z M582.8,156.8l-2.3-0.3c-0.3,0-0.4,0.1-0.4,0.4c-0.1,0.9-0.1,1.6,0,2.4c0,0.1,0.1,0.3,0.3,0.3
	c0.3,0,0.4,0,0.6,0c0.1,0,0.5,0,0.8,0c1.1,0,1.8-0.5,1.8-1.8C583.5,157.2,583.2,156.9,582.8,156.8z"/>
<path class="st0" d="M223.8,163.3c-0.3,0-0.4-0.3-0.4-0.5v-9.5c0-0.1,0.1-0.3,0.1-0.3c2-0.3,3.9-0.1,5.8,0.3
	c0.4,0.1,0.8,0.4,0.9,0.8c0.6,1.4,0.4,2.4-0.8,3.3c-0.3,0.3-0.3,0.4,0.1,0.5c0.4,0.1,0.8,0.4,1,0.9c1,1.5,0.8,2.9-0.8,4
	c-0.6,0.4-1.3,0.8-1.9,0.8c-0.3,0-1,0-2,0C225.2,163.5,224.5,163.5,223.8,163.3z M225.8,157.1c0.6,0.1,1.1,0,1.8-0.1
	c0.4-0.1,0.6-0.3,0.9-0.5c0.3-0.4,0.3-0.8,0.1-1.1c-0.1-0.4-0.5-0.6-1-0.8c-0.6-0.1-1.3-0.3-1.9-0.1c-0.1,0-0.3,0.1-0.3,0.3v1.9
	C225.5,156.8,225.6,156.9,225.8,157.1z M225.8,161.6c1,0.3,2,0,2.9-0.5c0.1-0.1,0.1-0.1,0.3-0.3c0.3-0.6,0.1-1.1-0.1-1.5
	c-0.3-0.4-0.8-0.5-1.4-0.6c-0.5,0-1.1,0-1.6,0c-0.1,0-0.3,0.1-0.3,0.3c-0.3,0.6-0.3,1.5,0,2.4C225.6,161.5,225.7,161.6,225.8,161.6z
	"/>
<path class="st0" d="M501.5,182.3c-0.4-0.3-0.8-0.6-1-0.9c-0.1-0.1-0.1-0.1-0.3,0l-3.5,3.1c-0.1,0.1-0.3,0.1-0.4,0.1
	c-0.4,0-0.4-0.3,0-0.6c0.5-0.8,1.1-1.4,1.9-2c0.6-0.5,1.1-1,1.5-1.5c0.3-0.4,0.6-0.4,1-0.1c1.1,1.1,2.4,2.4,3.5,3.5
	c0.1,0.1,0.3,0.3,0.3,0.4c0,0.3-0.1,0.4-0.4,0.4c-0.1,0-0.3-0.1-0.4-0.3c-0.4-0.4-0.6-0.6-1-1C502.2,183,501.8,182.7,501.5,182.3z"
	/>
<path class="st0" d="M506.2,190.5c-0.1-0.1-0.3-0.3-0.3-0.4l0.4-4c0-0.1,0.1-0.3,0.1-0.3c0.6-0.3,1.3-0.3,1.9,0
	c0.1,0,0.1,0.1,0.1,0.3c-0.3,1.4-0.5,2.6-1,4c-0.1,0.4-0.3,0.5-0.4,0.6C506.9,190.7,506.6,190.7,506.2,190.5z"/>
<path class="st0" d="M499.8,191.1c0.1,0.3,0.1,0.3,0.3,0l2-4.6c0-0.1,0.1-0.3,0.3-0.3c0.6-0.3,1.3-0.3,1.9,0c0.1,0,0.1,0.1,0.1,0.3
	c-0.6,1.8-1.4,3.4-2.1,5.1c0,0-0.3,0.5-0.8,1.3c-0.4,0.6-0.5,1.4-0.5,2.1s0.1,1.6,0.1,2.4c0,0.4-0.3,0.6-0.8,0.5c-0.1,0-0.3,0-0.4,0
	c-1,0.3-1.4-0.1-1.1-1.1c0.1-0.4,0.1-1.1,0-2.4c-0.1-0.6-0.3-1.3-0.6-1.9c-0.9-1.6-1.6-3.3-2.3-4.9c-0.3-0.5-0.4-0.9-0.4-0.9
	c0-0.4,0.3-0.8,0.9-0.9s1,0.1,1.3,0.6L499.8,191.1z"/>
<path class="st0" d="M510.6,199.1L510,201c0,0.1-0.1,0.3-0.3,0.3h-1.5c-0.3,0-0.4-0.1-0.3-0.4v-0.1c0.9-2.3,1.6-4.5,2.4-6.9
	c0,0,0-0.3,0.1-0.6c0.1-0.8,0.8-1.1,1.6-1c0.9,0.1,1.4,0.5,1.5,1.4c0.5,2.4,1.3,4.8,2.3,7.2c0.1,0.1,0,0.4-0.1,0.4l0,0
	c-0.8,0.3-1.1,0.3-1.3,0.3c-0.5-0.3-0.8-0.6-0.8-1.1c-0.1-0.9-0.5-1.4-1-1.3c-0.4,0-0.5,0-0.6,0c-0.4,0-0.9,0-1.3,0
	C510.8,199,510.6,199,510.6,199.1z M511.8,194.6l-0.8,2.5c0,0.1,0,0.3,0.1,0.4l0,0c0.6,0.1,1.1,0.1,1.5-0.1c0.1,0,0.1-0.1,0.1-0.3
	c-0.1-0.9-0.3-1.6-0.4-2.4C512.1,193.7,511.9,193.7,511.8,194.6z"/>
<path class="st0" d="M760,201.8c-0.1-0.3,0-0.5,0.3-0.8c1.4-1.1,2.4-2.3,3.3-3.4c0.5-0.6,1.1-0.6,1.8-0.1c0.6,0.6,1.1,1.3,1.6,1.9
	c0.5,0.6,1.1,1.3,1.8,1.8c0.1,0.1,0.1,0.1,0.1,0.3c0,0.3,0,0.5-0.4,0.5s-0.6-0.1-0.9-0.4l-3.3-3.1c-0.1-0.1-0.4-0.1-0.5,0
	c0,0,0,0,0,0.1c-0.6,1-1.4,1.9-2.4,2.5c-0.1,0-0.1,0.1-0.3,0.3c-0.3,0.4-0.5,0.5-0.9,0.5C760.2,201.9,760,201.9,760,201.8z"/>
<path class="st0" d="M248.7,203.3c-0.4-0.3-0.8-0.3-1.1,0.1c-0.6,0.8-1.3,1.5-1.8,2.3c-0.5,0.8-1.1,1.1-1.6,1.3
	c-0.9,0.1-1-0.1-0.5-0.6c1.4-1.6,2.9-3,4.4-4.5c0.1-0.1,0.3-0.1,0.3,0c1.3,1.1,2.4,2.4,3.6,3.5c0,0,0.1,0.1,0.5,0.4
	c0.3,0.3,0.5,0.5,0.5,0.9c0.1,0.5-0.1,0.6-0.5,0.4c-1.3-0.6-2.3-1.6-3-2.8C249.2,203.6,248.9,203.4,248.7,203.3z"/>
<path class="st0" d="M770.7,203.1c0-0.1,0.1-0.3,0.3-0.3h1.9c0.3,0,0.5,0.3,0.5,0.5v0.1l-1,3.8c-0.1,0.4-0.4,0.6-0.8,0.8
	c-0.8,0.1-1.1,0.1-1.3-0.1c0,0,0-0.4,0-0.9C770.6,205.8,770.7,204.4,770.7,203.1z"/>
<path class="st0" d="M763.2,216.1c-0.3,0-0.4-0.1-0.4-0.4l0,0c0-1,0-2.1,0-3.1c0-0.8-0.3-1.4-0.5-2c-0.5-1-1-2.1-1.5-3.1
	c-0.5-1-1-2-1.3-3.1c-0.1-0.3,0-0.5,0.3-0.5l0,0c0.8-0.1,1.3-0.1,1.8,0.1c0.3,0.1,0.6,0.6,0.9,1.3c0.5,1.3,1,2.5,1.4,3.8
	c0.1,0.5,0.4,0.5,0.5,0c0.4-0.9,0.6-1.9,1.1-2.8c0,0,0.1-0.4,0.4-1.1c0.5-1.3,1.4-1.8,2.8-1.4c0.1,0,0.3,0.3,0.3,0.4l0,0
	c-1,2-1.9,4-2.8,6c0,0-0.1,0.4-0.5,1c-0.3,0.5-0.4,1.1-0.4,1.8c0.1,0.9,0.1,1.9,0,3c0,0.1-0.1,0.3-0.1,0.3L763.2,216.1z"/>
<path class="st0" d="M257.2,207.7c0.4,0.1,0.5,0.4,0.5,0.8l0,0l-1,4.4c-0.1,0.4-0.4,0.6-0.6,0.6c-0.8,0.1-1.3,0-1.4-0.4
	c0,0,0-0.4,0-1.1c0-1.4,0.1-2.6,0.4-4c0-0.1,0.1-0.3,0.3-0.3C256,207.7,256.7,207.5,257.2,207.7z"/>
<path class="st0" d="M247.8,214.1c0.1,0.1,0.3,0,0.4,0l0,0l2.1-5.4c0-0.1,0.3-0.3,0.4-0.3h2.1c0.1,0,0.3,0.1,0.3,0.3l0,0
	c-0.1,0.6-0.3,1.1-0.5,1.6c-0.4,0.6-0.6,1-0.6,1c-0.3,0.4-0.4,0.9-0.6,1.3c-0.1,0.3-0.4,0.8-0.6,1.3c-1,1.9-1.5,3.8-1.4,5.8
	c0,0.9,0,1.6,0,2c0,0.1-0.1,0.3-0.3,0.3h-1.9c-0.5,0-0.8-0.3-0.8-0.9c0.1-1.4,0.1-2.6-0.1-3.8c-0.1-0.8-0.6-2-1.4-3.4
	s-1.4-2.8-2.1-4.3c-0.3-0.5-0.1-0.9,0.5-1c0.4,0,1,0,1.8,0.1c0.3,0,0.5,0.3,0.5,0.4c0.6,1.5,1.1,3,1.5,4.4c0.1,0.3,0.1,0.4,0.3,0.5
	C247.6,213.8,247.7,214.1,247.8,214.1z"/>
<path class="st0" d="M775.3,217.5l-0.4,1.4c-0.1,0.4-0.4,0.6-0.8,0.8c-1.1,0.1-1.5,0-1.3-0.5s0.4-0.8,0.4-0.9
	c0.5-2.6,1.4-5.3,2.5-7.8c0-0.1,0.1-0.3,0.3-0.3c0.8-0.3,1.4-0.3,2,0.1c0.1,0,0.1,0.1,0.3,0.3c0.5,1.4,1,2.9,1.5,4.3
	c0.5,1.5,1,3,1.1,4.4c0,0.3-0.1,0.4-0.4,0.4l0,0c-1.3,0.1-1.9-0.4-1.9-1.4c0-0.6-0.4-1-1-1l-2.1,0.1
	C775.5,217.2,775.3,217.3,775.3,217.5z M776.6,215.7c0.9,0.1,1.3-0.1,1.1-0.9c-0.1-0.5-0.1-0.6-0.1-0.6c0-0.5-0.1-1.1-0.1-1.6
	c-0.1-0.6-0.3-0.8-0.5-0.4c-0.1,0.1-0.1,0.3-0.1,0.4c-0.1,0.6-0.3,1.1-0.5,1.6s-0.3,1,0,1.4C776.4,215.6,776.5,215.6,776.6,215.7z"
	/>
<path class="st0" d="M60.7,215.7c0.6-1.6,1.4-3.3,2.1-5c0.3-0.6,0.8-0.8,1.5-0.5c0.1,0,0.3,0,0.4,0c0.3,0,0.6,0,0.8,0.3
	c0.1,0.1,0.1,0.1,0,0.3c-1,1.9-1.9,3.8-2.6,5.8c-0.1,0.3-0.4,0.6-0.6,1.3c-0.3,0.5-0.5,1-0.5,1.4c0,1.5,0,2.9,0,4.4
	c0,0.1-0.1,0.3-0.1,0.3l0,0l-2.1-0.1c-0.1,0-0.1-0.1-0.1-0.3c0-1.3,0-2.5,0-3.6c0-0.8-0.1-1.4-0.5-2c-0.3-0.4-0.3-0.5-0.3-0.5
	c-1.1-2.1-2.1-4.4-3-6.7c0-0.1,0-0.3,0.1-0.3c0,0,0,0,0.1,0h2.1c0.3,0,0.5,0.1,0.6,0.4l2,5.1C60.5,216.1,60.6,216.1,60.7,215.7z"/>
<path class="st0" d="M445.7,219.7c1.6,0.8,2,2.1,1.5,4.3c-0.1,0.5-0.4,1-0.9,1.4c-0.9,0.9-2,1.1-3.4,0.8c-0.6-0.1-1.3-0.4-1.9-0.5
	c-0.3-0.1-0.3,0-0.3,0.3c0.3,1.1,0.4,2.3,0.3,3.3c0,0.1-0.1,0.3-0.3,0.3c-0.8,0.1-1.5,0.1-2.3,0c-0.1,0-0.1-0.1-0.1-0.3
	c0-3,0-5.9,0-8.9c0,0,0-0.8,0-2.1c0-1.1,0-1.9,0.3-2.4c0.3-1,1-1.6,2.3-2.1c1.4-0.5,2.5-0.5,3.6,0.1c1,0.5,1.5,1.3,1.6,2.1
	c0.1,1-0.1,1.9-0.9,2.9C445.1,219.1,445.2,219.5,445.7,219.7z M442.3,220.3c-0.3-0.9-0.1-1.5,0.5-1.9s0.9-0.5,0.9-0.5
	c0.8-0.6,0.8-1.4,0.3-2.4c0-0.1-0.1-0.3-0.3-0.3c-1-0.5-1.6-0.4-2.1,0.3c-0.3,0.4-0.4,0.9-0.5,1.8c-0.1,1.5-0.1,3.1-0.1,4.6
	c0,0.8,0.1,1.4,0.5,1.8c0.5,0.6,1.1,0.9,1.9,0.8s1.3-0.5,1.6-1c0.4-0.6,0.4-1.4,0-2.1c0-0.1-0.1-0.1-0.3-0.3
	c-0.6-0.4-1.4-0.5-2.1-0.6C442.5,220.5,442.3,220.3,442.3,220.3z"/>
<path class="st0" d="M257.5,225.4c-0.1,0-0.3-0.1-0.1-0.4c0.9-3.3,1.9-6.5,3-9.5c0-0.1,0.1-0.3,0.3-0.3l1.9-0.1
	c0.3,0,0.4,0.1,0.5,0.4c0.9,2.3,1.6,4.5,2.1,6.8c0.1,0.5,0.3,1,0.4,1.5c0.1,0.5,0.4,1,0.5,1.4c0,0.1,0,0.4-0.3,0.4l0,0
	c-1.3,0.3-1.9-0.1-2.1-1.1c-0.1-0.6-0.3-1-0.3-1.1c-0.3-0.3-0.5-0.4-0.9-0.4c-0.5,0-0.8,0-0.9,0c-0.5,0-1,0-1.4,0.1
	c-0.1,0-0.3,0.1-0.3,0.3c-0.1,0.5-0.3,0.9-0.5,1.4c-0.1,0.5-0.4,0.8-0.8,0.9C258.4,225.5,258,225.5,257.5,225.4z M260.7,221l1.3,0.3
	c0.5,0.1,0.8-0.1,0.6-0.6c-0.3-1-0.5-2-0.8-2.9c0-0.3-0.1-0.3-0.3-0.3s-0.1,0.1-0.3,0.3c-0.1,0.8-0.3,1.5-0.4,2.4
	c0,0.4-0.1,0.6-0.3,0.8C260.5,220.8,260.5,220.8,260.7,221z"/>
<path class="st0" d="M283.7,278.4c-0.6-0.6-1.3-0.6-1.8,0.1c-0.9,1-1.8,1.9-2.8,2.5c-0.5,0.4-0.8,0.3-0.5-0.4s0.6-1,1.1-1.3
	c0.6-0.4,1.1-0.9,1.6-1.5c0.3-0.5,0.8-0.9,1.3-1.3c0.3-0.1,0.5-0.1,0.8,0.1c0.5,0.5,0.9,1,1.4,1.6c0.5,0.8,1.1,1.3,2,1.6
	c0.4,0.3,0.5,0.6,0.4,1c-0.3,0.4-0.4,0.4-0.8,0.1c-0.1-0.1-0.3-0.3-0.3-0.3C285.1,279.7,284.4,279,283.7,278.4z"/>
<path class="st0" d="M289.9,286.9c-0.3,0-0.5-0.4-0.5-0.6l0.3-4.1c0-0.3,0.3-0.4,0.4-0.4l1.6,0.1c0.1,0,0.3,0.1,0.3,0.3l0,0
	c-0.1,1.3-0.3,2.4-0.4,3.4C291.4,286.6,290.8,287.1,289.9,286.9z"/>
<path class="st0" d="M283.4,290.8c-0.5-0.9-0.9-0.9-1.3,0l-1.1,3.1c0,0.1-0.1,0.1-0.3,0.1l-2,0.1c-0.5,0-0.6-0.1-0.4-0.5l3-5.1
	c0.3-0.4,0.3-0.8,0-1.1c-1-1.4-1.9-2.9-2.6-4.4c-0.3-0.5-0.1-0.8,0.3-0.6c0.3,0,0.4,0,0.5,0c0.4,0,0.9,0,1.5,0.1
	c0.1,0,0.4,0.1,0.4,0.4c0.4,1.1,0.8,2.3,1.4,3.3c0.3,0.4,0.5,0.4,0.6,0l1.4-3.1c0.1-0.1,0.3-0.3,0.4-0.3h2c0.1,0,0.1,0.1,0.1,0.1
	l0,0c0,0.4-0.1,0.6-0.4,0.9c-0.3,0.4-0.5,0.6-0.5,0.8c-0.4,0.8-0.6,1.3-0.9,1.5c-0.9,1.1-1.1,2.3-0.6,3.4c0.3,0.5,1,1.9,2.3,3.9
	c0.1,0.1,0.1,0.3,0.3,0.4c0.5,0.4,0.4,0.5-0.1,0.5c-0.1,0-0.3,0-0.4,0c-0.5,0.1-1,0.1-1.5,0c-0.1,0-0.3-0.1-0.3-0.3L283.4,290.8z"/>
<path class="st0" d="M295.7,295.4h-2.1c-0.3,0-0.5,0.3-0.6,0.5c-0.3,0.8-0.5,1.3-0.9,1.6c-0.1,0.1-0.1,0.1-0.3,0.1
	c-0.8,0.1-1-0.3-0.8-1.1c0.5-1.4,1-3.1,1.5-5.3c0.1-0.5,0.4-1.1,0.8-1.9c0-0.1,0-0.3,0-0.4c0-0.3,0.1-0.4,0.4-0.5
	c0.6-0.1,1.3-0.1,1.9,0c0.1,0,0.3,0.1,0.3,0.3c0.9,2.4,1.6,4.8,2.5,7c0,0,0.1,0.3,0.3,0.8c0.5,1.1,0,1.5-1.5,0.9
	c-0.1,0-0.3-0.1-0.3-0.3l-0.9-1.6C295.8,295.4,295.7,295.4,295.7,295.4z M294.7,293.8c0.3,0,0.5,0,0.6-0.1c0.1,0,0.1-0.1,0.1-0.3
	c-0.1-0.9-0.3-1.9-0.4-2.8c0-0.1,0-0.1-0.1-0.3s-0.1-0.1-0.3-0.1s-0.3,0.1-0.3,0.3c-0.3,0.9-0.5,1.8-0.8,2.6c-0.1,0.5,0,0.8,0.5,0.6
	C294.4,293.7,294.5,293.7,294.7,293.8z"/>
<path class="st0" d="M62.6,291.8l-3.5,3.8c-0.1,0.1-0.3,0.1-0.3,0.1c-0.8,0-0.9-0.3-0.4-0.6c0.1-0.1,0.3-0.3,0.4-0.4
	c1.1-1.4,2.3-2.8,3.6-3.8c0.3-0.3,0.6-0.3,0.9,0c1.6,1.3,3,2.8,4.1,4.3c0.3,0.4,0.3,0.5-0.1,0.6c-0.1,0-0.3,0-0.4-0.1
	c-0.5-0.4-1-0.8-1.5-1.3c-0.4-0.3-0.8-0.8-1.3-1.4c-0.4-0.5-0.8-0.9-1.3-1.1C62.7,291.7,62.6,291.7,62.6,291.8z"/>
<path class="st0" d="M70.8,302.2c-0.4-0.1-0.5-0.4-0.5-0.8l0.3-4.5c0-0.1,0-0.3,0.1-0.3c0.3-0.3,0.6-0.4,0.9-0.3
	c0.5,0,0.8,0.1,0.9,0.1c0.8,0,1,0.4,0.8,1c-0.1,0.5-0.3,0.9-0.3,1c-0.3,1.6-0.6,2.8-1,3.3C71.6,302.2,71.3,302.3,70.8,302.2z"/>
<path class="st0" d="M62.8,305.5c-0.1-0.4-0.3-0.4-0.4,0c-0.5,1.8-1.4,3.3-2.4,4.8c-0.1,0.1-0.1,0.1-0.3,0.1l-1.8-0.1
	c-0.5,0-0.6-0.3-0.3-0.6c0.5-0.8,1-1.5,1.5-2.4c0.1-0.3,0.4-0.8,0.6-1.4s0.5-1.1,0.8-1.4c0.5-0.5,0.6-1.1,0.3-1.6
	c-0.3-0.4-0.4-0.5-0.4-0.5c-0.8-1.6-1.6-3.3-2.5-4.9c0-0.1,0-0.1,0-0.3l0,0c0.6-0.3,1.3-0.3,1.9-0.1c0.5,0.1,0.9,0.5,1.1,1
	c0.6,1,1.1,2,1.5,3c0.3,0.8,0.5,0.8,0.8,0c0.4-1,0.8-2,1.3-3c0.4-0.8,0.9-1,1.8-1c0.1,0,0.4,0,0.6,0c0.1,0,0.4,0,0.5,0
	c0.1,0,0.1,0.1,0.1,0.3l0,0c-0.8,2-1.6,3.9-2.9,5.7c-0.1,0.1-0.1,0.3-0.1,0.4c0,0.5,0.1,1,0.4,1.4c0.4,0.5,0.6,0.9,0.6,0.9
	c0.8,1.4,1.5,2.9,2.3,4.4c0.1,0.1,0,0.4-0.1,0.4h-0.1c-0.8,0.1-1.5,0-2.3-0.3c-0.1,0-0.3-0.1-0.3-0.3
	C64.2,308.6,63.5,307.1,62.8,305.5z"/>
<path class="st0" d="M555.3,301.3c-0.1-0.1-0.5-0.3-0.6,0l-3.9,3.4c-0.1,0.1-0.3,0.1-0.3-0.1c-0.1-0.5,0-0.9,0.4-1.3
	c0.3-0.3,0.4-0.4,0.4-0.4c0.8-0.8,1.5-1.6,2.4-2.3c0,0,0.3-0.3,0.6-0.8c0.4-0.4,0.8-0.4,1.1,0c0.4,0.5,0.6,0.6,0.6,0.8
	c0.8,0.8,1.8,1.6,2.9,2.9c0.3,0.3,0.3,0.5,0.3,0.8c-0.1,0.5-0.4,0.5-0.9,0C557.4,303.2,556.2,302.2,555.3,301.3z"/>
<path class="st0" d="M353.4,303c-0.1,0.3-0.3,0.4-0.6,0.6c-0.3,0.3-0.5,0.4-0.6,0.5c-0.6,0.6-1.4,1.3-2,1.9c-0.1,0.1-0.3,0.1-0.3,0
	l0,0c-0.1-0.1-0.1-0.4-0.1-0.6s0.1-0.5,0.4-0.8l3.4-3.3c0.1-0.1,0.3-0.1,0.3,0c0.4,0.1,0.6,0.4,0.9,0.8c0.8,0.9,1.6,1.6,2.4,2.3
	c0.4,0.3,0.6,0.5,0.8,0.9c0.3,0.6,0.1,0.9-0.4,0.8c-0.1,0-0.3-0.1-0.3-0.1c-0.9-1-1.9-2-3.3-2.9C353.9,302.6,353.7,302.7,353.4,303
	C353.5,302.8,353.4,302.8,353.4,303z"/>
<path class="st0" d="M71.9,314.3c-0.1,0-0.3-0.3-0.3-0.4l0,0c1.1-3,2.1-6.2,2.9-9.3c0-0.1,0.1-0.3,0.3-0.3c0.8-0.5,1.5-0.5,2.4-0.3
	c0.1,0,0.3,0.1,0.3,0.3c0.9,2.5,1.8,4.9,2.5,7.4c0,0,0.1,0.4,0.4,1c0.1,0.5,0.3,0.9,0.3,1.4c0,0.1-0.1,0.3-0.1,0.3
	c-1.5,0.5-2.4-0.1-2.5-1.8c0-0.5-0.4-0.8-0.9-0.8h-2.4c-0.3,0-0.5,0.3-0.5,0.5l-0.4,1.6c0,0.1-0.1,0.3-0.3,0.3
	C73,314.4,72.4,314.4,71.9,314.3z M75.9,306c-0.1,0-0.3,0.1-0.3,0.3c-0.1,1-0.4,2-0.8,3c-0.1,0.3,0,0.5,0.3,0.5
	c0.5,0.3,1,0.3,1.6,0.1c0.3,0,0.4-0.3,0.4-0.5l0,0c-0.4-1.1-0.6-2.4-1.1-3.5C76,305.7,76,305.7,75.9,306C76,305.9,75.9,306,75.9,306
	z"/>
<path class="st0" d="M562.3,305.9c0-0.3,0.3-0.4,0.4-0.4h1.9c0.1,0,0.1,0.1,0.1,0.1l0,0c-0.1,1.6-0.5,3.1-1,4.5
	c-0.1,0.4-0.3,0.6-0.5,0.8c-0.3,0.3-0.6,0.1-0.9-0.1c-0.1-0.1-0.1-0.1-0.1-0.3C562,309,562,307.5,562.3,305.9z"/>
<path class="st0" d="M554.8,314.4c-0.4,0-0.5,0.3-0.6,0.6c-0.4,1.3-1,2.3-1.6,3.4c-0.1,0.1-0.1,0.1-0.3,0.3c-0.6,0.1-1.4,0.1-2,0
	c-0.1,0-0.1-0.1-0.1-0.1l0,0l3-5.9c0.1-0.1,0.1-0.4,0-0.5l-2.6-5.4c0-0.1,0-0.3,0.1-0.3c0.8-0.4,1.5-0.4,2.3,0
	c0.1,0,0.1,0.1,0.3,0.3l1.8,3.4c0.1,0.3,0.4,0.3,0.5,0c0.3-0.6,0.5-1.1,0.8-1.8c0.4-1,0.8-1.5,0.8-1.5c0.4-0.4,1-0.5,1.9-0.5
	c0.8,0,0.9,0.3,0.4,0.8c-0.1,0.1-0.3,0.4-0.4,1c-0.5,1.3-1.1,2.5-1.9,3.6c-0.4,0.5-0.4,1,0,1.5c0.4,0.4,0.5,0.6,0.5,0.6
	c0.9,1.5,1.6,3,2.4,4.6c0,0.1,0,0.3-0.1,0.3c0,0,0,0-0.1,0c-0.6,0-1.1,0-1.5-0.1c-0.5-0.1-0.9-0.4-1.1-0.8c-0.8-1-1.3-2.1-1.6-3.3
	C555.1,314.5,555,314.4,554.8,314.4z"/>
<path class="st0" d="M362.7,306.7c0.1,0,0.1,0.1,0.1,0.3c-0.1,1.4-0.5,2.8-1,4c-0.1,0.4-0.3,0.5-0.5,0.6c-0.3,0.1-0.4,0.1-0.6,0
	c-0.1,0-0.1-0.1-0.1-0.3c-0.1-1.5,0-2.9,0.3-4.4c0-0.1,0.1-0.3,0.3-0.3C361.6,306.6,362.2,306.6,362.7,306.7z"/>
<path class="st0" d="M353.9,314.9c-0.3-0.5-0.4-0.5-0.5,0c-0.4,1.4-0.9,2.6-1.8,3.8c-0.1,0.1-0.1,0.1-0.3,0.3
	c-0.6,0.3-1.3,0.3-1.9,0c-0.1,0-0.1-0.1-0.1-0.3l0,0c0.8-1.8,1.6-3.5,2.8-5.3c0.3-0.4,0.3-0.8,0-1.1c-0.9-1.3-1.6-2.8-2.4-4.5
	c-0.1-0.3,0-0.4,0.3-0.5c0,0,0,0,0.1,0c0.8-0.1,1.4-0.1,1.9,0.1c0.1,0,0.3,0.1,0.3,0.3l1.3,2.6c0.4,0.8,0.8,0.8,1,0
	c0.4-0.9,0.8-1.6,1-2.3c0.3-0.5,0.8-0.8,1.3-0.8c0.1,0,0.4,0,0.8,0c0.5,0,0.6,0.4,0.4,1c-0.6,1.4-1.3,2.6-2.1,3.8
	c-0.5,0.6-0.5,1.4,0,2c1,1.5,1.9,3,2.5,4.6c0,0.1,0,0.3-0.1,0.3c-0.5,0.3-1,0.3-1.5,0.1c-0.4-0.1-0.8-0.4-1.1-0.9
	C354.9,317.2,354.3,316,353.9,314.9z"/>
<path class="st0" d="M563.5,322.2c-0.1,0-0.3-0.1-0.3-0.4v-0.1l2.9-9c0-0.1,0.1-0.3,0.3-0.3l2-0.1c0.1,0,0.3,0.1,0.3,0.3l3,9.3
	c0,0.1,0,0.3-0.1,0.4c0,0,0,0-0.1,0h-1.5c-0.1,0-0.1-0.1-0.3-0.3l-0.6-1.9c0-0.1-0.1-0.1-0.3-0.3c-0.9-0.3-1.8-0.3-2.6,0
	c-0.1,0-0.3,0.1-0.3,0.3l-0.6,1.9c0,0.1-0.1,0.3-0.3,0.3L563.5,322.2z M566.6,318c0.6,0.3,1.3,0.3,1.9-0.1c0.1,0,0.1-0.1,0.1-0.3
	c-0.4-1-0.6-2-1-3.1c0-0.1-0.1-0.3-0.1-0.3c-0.1-0.1-0.3-0.1-0.4,0.1c-0.3,1-0.5,2-0.8,3.3C566.4,317.9,566.5,318,566.6,318z"/>
<path class="st0" d="M363.5,322.3c-0.4,0-0.6-0.3-0.6-0.6l0.1-8.3c0-0.1,0.1-0.3,0.3-0.3c1.1,0,2.1,0,3.1,0s1.8,0.3,2.3,0.6
	c0.8,0.6,0.9,1.5,0.4,2.8c-0.1,0.4-0.3,0.6-0.3,0.8c0,0.3,0.1,0.5,0.5,0.8c0.3,0.1,0.4,0.3,0.4,0.5c0.1,0.5,0.1,1,0.1,1.5
	c0,0.5-0.3,0.9-0.6,1.3c-0.8,0.6-1.4,1-2.1,1C365.7,322.4,364.5,322.4,363.5,322.3z M367.5,315.2c0-0.4-0.3-0.6-0.6-0.6l0,0h-1.4
	c-0.4,0-0.6,0.3-0.6,0.6v1.1c0,0.4,0.3,0.6,0.6,0.6h1.4c0.4,0,0.6-0.3,0.6-0.6l0,0V315.2z M367,318.3c-0.4-0.1-0.6-0.1-1-0.1
	c0,0-0.3,0-0.5,0c-0.5,0-0.6,0.3-0.6,0.8s0,1,0,1.5c0,0.5,0.1,0.8,0.6,0.8c0.3,0,0.4,0,0.5,0c1.1,0.1,1.9-0.4,2.3-1.6
	C368.2,318.9,367.9,318.4,367,318.3z"/>
<path class="st0" d="M23.3,322.9c0.5,0.5,0.9,0.9,1.4,1.4c0.1,0.1,0.1,0.3,0.1,0.4c0.1,1-0.1,1.1-0.8,0.4c-1-1.1-2.3-2.3-3.6-3.5
	c-0.1-0.1-0.3-0.1-0.3,0l-4.1,3.8c0,0-0.1,0-0.3,0l0,0c-0.3-0.4-0.3-0.8,0.1-1c1.4-1.4,2.9-2.8,4.1-4.1c0.1-0.1,0.4-0.1,0.5,0
	c0.5,0.5,1,1,1.4,1.4C22.4,322.1,22.9,322.4,23.3,322.9z"/>
<path class="st0" d="M29.1,332c-1.3,0.1-1.8-0.3-1.6-1.1c0.3-1.4,0.4-2.8,0.4-4.1c0-0.1,0-0.3,0.1-0.3c0.3-0.1,0.5-0.3,0.9-0.3
	c0.5,0,0.8,0,0.9,0c0.8,0,1,0.4,0.9,1.1c-0.1,0.4-0.1,0.6-0.1,0.6c-0.3,1.3-0.5,2.5-0.9,3.8C29.4,331.9,29.3,332,29.1,332z"/>
<path class="st0" d="M20,335.6c-0.9,1.4-1.5,2.6-2.1,4c-0.1,0.4-0.5,0.5-0.8,0.5h-1.9c-0.1,0-0.3-0.1-0.3-0.3v-0.1l3-6.2
	c0.1-0.3,0.1-0.6,0-1l-2.8-5.7c-0.1-0.1,0-0.4,0.1-0.5c0,0,0,0,0.1,0c0.3,0,0.5-0.1,0.9,0c0,0,0.3,0,0.8,0s0.9,0.3,1.1,0.8
	c0.8,1.3,1.4,2.4,2,3.6c0.1,0.1,0.3,0.1,0.3,0l2.1-4.1c0-0.1,0.1-0.1,0.3-0.1h1.8c0.3,0,0.4,0.1,0.4,0.4c0,0.1,0,0.1,0,0.1l-3,6
	c-0.1,0.1-0.1,0.3,0,0.4l3.3,6.2c0.1,0.1,0,0.3-0.1,0.4H25l-1.4,0.1c-0.6,0-1-0.1-1.3-0.6l-2-4.1C20.1,335.5,20.1,335.5,20,335.6z"
	/>
<path class="st0" d="M36.7,338.8l0.6,0.3c0.1,0,0.1,0.1,0.3,0.3c0.3,0.6,0.4,1.4,0.3,2.4c-0.1,1.1-0.8,1.9-1.8,2
	c-1.6,0.3-3.4,0.4-5.4,0.3c-0.1,0-0.3-0.1-0.3-0.3c-0.1-2.9-0.1-5.8-0.1-8.8c0,0,0-0.3,0-0.6c0-0.5,0.1-0.8,0.6-0.8
	c0.5,0,0.8,0,0.8,0c1.5-0.1,2.9,0,4.1,0.4c0.4,0.1,0.8,0.4,1.1,0.6c0.3,0.3,0.5,0.8,0.5,1.1c0.1,1-0.1,1.9-1,2.6
	c-0.1,0.1-0.1,0.3,0,0.4C36.6,338.8,36.7,338.8,36.7,338.8z M32.7,337.6c0.8,0.4,1.5,0.3,2.1-0.4c0.8-0.5,0.8-1.1,0.1-1.6
	c-0.4-0.4-0.9-0.5-1.4-0.5c-1.1,0-1.5,0.6-1.1,2C32.5,337.4,32.6,337.5,32.7,337.6z M32.6,342.3c0.6,0.1,1.4,0,2.3-0.1
	c0.3,0,0.4-0.1,0.5-0.3c0.5-0.5,0.8-1,0.5-1.5c-0.1-0.4-0.5-0.6-1-0.8c-0.6-0.3-1.4-0.4-2-0.3c-0.1,0-0.3,0.1-0.3,0.1
	c-0.3,0.9-0.4,1.8-0.3,2.6C32.3,342.3,32.5,342.3,32.6,342.3z"/>
<path class="st0" d="M702.5,346.8c0.6-0.8,1.3-1.4,2-2c0.3-0.1,0.5-0.1,0.8,0.1l0,0c0.9,1.1,1.9,2.1,3,2.9c0.6,0.5,0.9,1,1,1.8
	c0,0.5-0.1,0.6-0.5,0.3c-1.1-1-2.1-2.1-3.1-3.1c-0.5-0.6-1.1-0.6-1.8,0c-1,1-2,2-2.9,3.1c-0.1,0.1-0.3,0.1-0.3,0.1
	c-0.4-0.1-0.4-0.4-0.1-0.9c0.3-0.4,0.5-0.8,1-1.1C701.9,347.3,702.3,347,702.5,346.8z"/>
<path class="st0" d="M712.1,355.8c-0.1,0-0.3-0.1-0.3-0.3l0.3-4.8c0-0.1,0.1-0.3,0.1-0.3l1.6-0.3c0.3,0,0.5,0.1,0.5,0.4v0.1
	c-0.3,1.6-0.6,3.3-1.1,4.6c0,0.1-0.1,0.3-0.3,0.3C712.8,355.8,712.4,356,712.1,355.8z"/>
<path class="st0" d="M705,359.5c-0.3-0.6-0.5-0.6-0.8,0c-0.5,1.4-1.1,2.8-1.9,4c-0.1,0.1-0.1,0.1-0.3,0.1h-1.8
	c-0.6,0-0.8-0.3-0.4-0.8c1-1.5,1.9-3.1,2.6-4.9c0.3-0.5,0.3-1,0.1-1.5c-0.3-0.9-0.5-1.6-1.1-2.4c-0.6-0.9-1.1-1.8-1.6-2.8
	c-0.1-0.1,0-0.4,0.1-0.5l0,0c1.4-0.5,2.3-0.3,2.8,1c0.5,1,1,2,1.5,3c0.3,0.5,0.5,0.5,0.8,0l1.4-3.5c0-0.1,0.1-0.3,0.3-0.3l2.3-0.1
	c0.4,0,0.4,0.1,0.3,0.4l-3,5.5c-0.1,0.3-0.1,0.5,0,0.6c0.6,1,1.1,2,1.8,3c0,0,0.3,0.5,0.9,1.4c0.3,0.5,0.5,1,0.6,1.5
	c0,0.1,0,0.3-0.1,0.3c-0.8,0.1-1.4,0.1-2.1,0c-0.4-0.1-0.6-0.3-0.8-0.6L705,359.5z"/>
<path class="st0" d="M720.6,362.4c0.5,0.4,0.9,0.9,1,1.5c0.1,0.5,0.1,1.1-0.3,1.6c-0.6,1.4-1.9,2-3.6,1.9c-1,0-2.1,0-3.1,0
	c-0.1,0-0.3-0.1-0.3-0.3l0,0l-0.1-9.3c0-0.3,0.3-0.5,0.5-0.5l0,0c1,0,2.1,0,3.3,0.1c1,0,1.8,0.3,2.3,0.6c0.8,0.6,1,1.5,0.8,2.6
	c0,0.1-0.1,0.3-0.1,0.3c-0.3,0.3-0.5,0.6-0.5,1C720.3,362.1,720.5,362.2,720.6,362.4z M716.8,361.6c0.4,0.1,0.8,0.1,1.3,0
	c0.4-0.1,0.8-0.3,1-0.6c0.5-0.8,0.4-1.4-0.4-1.9c-0.3-0.1-0.5-0.1-0.9-0.1s-0.6,0-0.9-0.1c-0.3,0-0.4,0.1-0.5,0.3l0,0l-0.1,1.6
	C716.3,361.2,716.6,361.5,716.8,361.6z M719.3,363.4c-1-0.4-1.8-0.4-2.5-0.4c-0.1,0-0.3,0.1-0.3,0.3c-0.1,0.8-0.1,1.5,0,2.1
	c0,0.1,0.1,0.3,0.3,0.3c1,0.3,1.9,0.1,2.5-0.3c0.8-0.5,1-1,0.5-1.8C719.6,363.5,719.5,363.4,719.3,363.4z"/>
<circle class="st0" cx="104.6" cy="213.8" r="6.4"/>
<circle class="st0" cx="362.8" cy="194" r="6.4"/>
<circle class="st0" cx="637.7" cy="209.8" r="6.4"/>
<g>
	<rect x="103.8" y="63.8" class="st0" width="1.5" height="146.3"/>
</g>
<g>
	
		<rect x="102.6" y="188.3" transform="matrix(0.9493 -0.3145 0.3145 0.9493 -50.5268 64.9154)" class="st0" width="146.7" height="1.5"/>
</g>
<g>
	<rect x="108.9" y="211.4" class="st0" width="105.1" height="1.5"/>
</g>
<g>
	
		<rect x="69.9" y="75.4" transform="matrix(0.8886 -0.4586 0.4586 0.8886 -59.0068 48.6511)" class="st0" width="1.5" height="140.9"/>
</g>
<g>
	
		<rect x="21.4" y="254.6" transform="matrix(0.6535 -0.757 0.757 0.6535 -169.0682 141.4176)" class="st0" width="97" height="1.5"/>
</g>
<g>
	<path class="st0" d="M84.2,267l-1.4-0.4c3.3-12.3,2.4-21.1-2.7-26.2c-8.8-8.8-27.2-3.8-27.4-3.8l-0.4-1.4
		c0.8-0.2,19.5-5.2,28.9,4.2C86.6,244.9,87.7,254.2,84.2,267z"/>
</g>
<g>
	<path class="st0" d="M419.4,224.6c-0.7-0.4-16.9-11-16.2-24.2c0.4-7.8,6.6-14.8,18.5-20.8l0.7,1.3c-11.3,5.7-17.3,12.3-17.6,19.5
		c-0.6,12.4,15.3,22.8,15.5,22.9L419.4,224.6z"/>
</g>
<g>
	<path class="st0" d="M639.7,143.7c-0.4,0-0.9,0-1.3-0.1c-7.8-0.6-14.6-7-20.2-19.1l1.4-0.6c5.4,11.5,11.8,17.6,19,18.2
		c12.4,1,23.2-14.7,23.4-14.8l1.2,0.8C662.6,128.9,652.3,143.7,639.7,143.7z"/>
</g>
<g>
	<rect x="362.1" y="69" class="st0" width="1.5" height="118.5"/>
</g>
<g>
	
		<rect x="361.9" y="165.4" transform="matrix(0.9046 -0.4263 0.4263 0.9046 -31.1757 193.0012)" class="st0" width="107.4" height="1.5"/>
</g>
<g>
	<rect x="367.5" y="192.5" class="st0" width="102.8" height="1.5"/>
</g>
<g>
	
		<rect x="303.5" y="243.8" transform="matrix(0.2526 -0.9676 0.9676 0.2526 24.564 520.821)" class="st0" width="91.8" height="1.5"/>
</g>
<g>
	
		<rect x="296.8" y="227.4" transform="matrix(0.6122 -0.7907 0.7907 0.6122 -50.3059 353.6419)" class="st0" width="77.3" height="1.5"/>
</g>
<g>
	
		<rect x="324.6" y="84.3" transform="matrix(0.8106 -0.5856 0.5856 0.8106 -22.1589 217.5939)" class="st0" width="1.5" height="117.6"/>
</g>
<g>
	<rect x="640.6" y="207.4" class="st0" width="98.2" height="1.5"/>
</g>
<g>
	<polygon class="st0" points="637.1,207.3 637.1,76.3 638.6,76.3 638.6,203.7 730.1,113.3 731.2,114.4 	"/>
</g>
<g>
	<polygon class="st0" points="590,281.9 588.7,281.1 634.7,208.4 558,166.3 558.7,164.9 636.8,207.8 	"/>
</g>
<g>
	
		<rect x="666" y="205.6" transform="matrix(0.8918 -0.4524 0.4524 0.8918 -47.5014 330.2545)" class="st0" width="1.5" height="117.7"/>
</g>
<polygon class="st0" points="104.7,52.9 98.4,63.7 110.9,63.7 "/>
<polygon class="st0" points="255.2,162.3 243,159.9 246.9,171.7 "/>
<polygon class="st0" points="224.3,212.1 213.5,205.9 213.5,218.4 "/>
<polygon class="st0" points="53.6,283 43.8,275.4 42,287.7 "/>
<polygon class="st0" points="57.3,239.7 48,231.4 45.5,243.6 "/>
<polygon class="st0" points="43.5,295.7 33.7,288 32,300.4 "/>
<polygon class="st0" points="34.1,73.5 33.1,85.9 44.3,80.6 "/>
<polygon class="st0" points="362.8,59.2 356.6,70 369.1,70 "/>
<polygon class="st0" points="637.7,65.6 631.5,76.4 643.9,76.4 "/>
<polygon class="st0" points="737.8,105.9 725.8,109.1 734.6,117.9 "/>
<polygon class="st0" points="667.8,128.4 661.5,117.6 655.3,128.4 "/>
<polygon class="st0" points="748.5,208.1 737.7,201.9 737.7,214.3 "/>
<polygon class="st0" points="561.6,160.7 549.2,160.7 555.4,171.4 "/>
<polygon class="st0" points="594.8,284.1 583.7,278.3 584.3,290.8 "/>
<polygon class="st0" points="697.7,325 697.7,312.6 687,318.8 "/>
<polygon class="st0" points="473,137.6 460.5,137.6 466.8,148.4 "/>
<polygon class="st0" points="480.9,192.7 470,186.7 470.3,199.2 "/>
<polygon class="st0" points="426.7,223.3 417.3,215.2 415,227.5 "/>
<polygon class="st0" points="343.7,290.4 332,285.9 333.9,298.2 "/>
<polygon class="st0" points="317.3,261.9 307,254.9 306.1,267.4 "/>
<polygon class="st0" points="285.3,87 286.1,99.4 296.5,92.5 "/>
</svg>
